<svg width="498" height="485" viewBox="0 0 498 485" fill="none" xmlns="http://www.w3.org/2000/svg">
<path d="M461.81 373.35L433.553 410.911C393.934 463.477 325.392 491.907 247.707 483.02C238.897 482 229.984 480.582 220.965 478.565C198.318 473.572 176.546 465.772 156.152 455.659C117.977 436.708 84.6267 409.613 58.5323 377.651C28.7959 341.123 8.7021 298.305 2.19493 253.963C0.0601208 239.282 -0.675664 224.488 0.28848 209.679C2.64058 171.755 15.3354 138.438 35.6886 111.45L63.9451 73.8887C43.5919 100.877 30.8971 134.195 28.545 172.118C27.4148 190.629 28.7854 209.217 32.3523 227.385C40.9511 270.808 62.4329 312.313 92.9556 347.334C117.212 375.213 147.131 398.939 180.892 416.33C202.294 427.334 225.172 435.724 249.222 441.004C256.737 442.635 264.25 443.966 271.658 444.898C351.158 455.369 421.499 426.823 461.81 373.35Z" fill="#FB9300"/>
<path d="M92.9556 347.334L58.5314 377.551C28.7959 341.123 8.70212 298.305 2.19495 253.963L32.3523 227.385C40.9512 270.808 62.4329 312.313 92.9556 347.334Z" fill="#E08300"/>
<path d="M271.659 444.998L247.607 483.021C238.797 482.001 229.884 480.583 220.865 478.566C198.218 473.573 176.446 465.773 156.052 455.659L180.893 416.43C202.295 427.434 225.173 435.824 249.223 441.104C256.737 442.635 264.249 443.966 271.659 444.998Z" fill="#E08300"/>
<path d="M489.606 274.691C487.243 311.514 474.946 344.529 453.693 371.525C447.564 379.281 440.63 386.545 432.992 393.316C399.859 422.621 354.708 439.036 305.91 439.484C287.911 439.649 269.391 437.619 250.854 433.589C125.095 405.942 28.8168 288.92 36.1501 172.648C37.894 144.731 45.3588 119.061 58.1518 96.4429C67.1073 80.66 78.6765 66.3533 92.764 54.0235C125.896 24.7182 171.048 8.30318 219.846 7.85538C237.845 7.69021 256.364 9.72035 274.902 13.7504C400.561 41.3985 496.939 158.419 489.606 274.691Z" fill="#1F2533"/>
<path d="M475.694 295.32C473.95 323.237 466.486 348.906 453.693 371.525C447.563 379.281 440.63 386.545 432.992 393.316C399.859 422.621 354.708 439.036 305.91 439.484C287.911 439.649 269.391 437.619 250.854 433.589C125.095 405.942 28.8167 288.92 36.15 172.648C37.8939 144.731 45.3587 119.061 58.1517 96.4428C64.2807 88.6862 71.2135 81.3223 78.8526 74.6519C111.985 45.3466 157.136 28.9316 205.934 28.4838C223.934 28.3186 242.452 30.2488 260.991 34.3788C386.65 62.0269 483.028 179.047 475.694 295.32Z" fill="#333E55"/>
<path d="M219.915 15.4546C237.415 15.294 255.333 17.2297 273.27 21.1653C303.231 27.6906 331.941 39.5276 358.596 56.2838C384.445 72.4472 407.23 92.539 426.446 115.964C445.561 139.289 460.195 164.756 469.742 191.57C479.595 219.08 483.65 246.844 482 274.161C480.51 297.075 475.008 318.627 465.487 338.215C456.359 356.999 443.711 373.616 427.939 387.561C412.265 401.406 393.864 412.275 373.433 419.863C352.402 427.556 329.639 431.665 305.84 431.884C288.341 432.044 270.422 430.109 252.486 426.173C222.524 419.648 193.815 407.811 167.16 391.055C141.31 374.891 118.525 354.799 99.3092 331.375C80.1943 308.049 65.56 282.582 56.0136 255.769C46.1607 228.258 42.1058 200.494 43.7552 173.178C45.245 150.263 50.7474 128.712 60.2681 109.124C69.3961 90.339 82.0441 73.7222 97.8168 59.7769C113.49 45.9325 131.891 35.0632 152.323 27.4754C173.353 19.7821 196.016 15.6739 219.915 15.4546ZM219.776 0.25526C116.08 1.20685 34.9094 70.1546 28.5448 172.117C21.0463 292.191 119.754 412.49 249.221 441.004C268.662 445.325 287.68 447.251 305.98 447.083C409.675 446.131 490.846 377.184 497.211 275.221C504.709 155.147 405.901 34.8488 276.534 6.33468C257.094 2.01289 238.075 0.0873327 219.776 0.25526Z" fill="#F54748"/>
<path d="M177.163 326.06L181.538 356.021L227.129 365.703C227.129 365.703 253.412 352.861 270.127 365.308C286.942 377.754 299.009 395.844 299.009 395.844L314.308 395.704C314.308 395.704 323.952 378.615 342.969 380.44C361.987 382.266 365.417 385.535 365.417 385.535C365.417 385.535 373.438 376.961 393.745 377.574L390.328 354.005C390.328 354.005 362.259 357.462 355.908 362.821C355.908 362.821 335.016 352.912 306.328 365.276C306.328 365.276 279.354 335.522 235.957 346.921L177.163 326.06Z" fill="#1F2533"/>
<path d="M184.435 322.893L188.81 352.854L234.4 362.536C234.4 362.536 260.684 349.694 277.399 362.141C294.214 374.587 306.28 392.677 306.28 392.677L321.579 392.537C321.579 392.537 331.223 375.448 350.241 377.273C369.258 379.099 372.688 382.368 372.688 382.368C372.688 382.368 380.71 373.794 401.016 374.407L397.6 350.838C397.6 350.838 369.531 354.295 363.179 359.654C363.179 359.654 342.288 349.745 313.6 362.109C313.6 362.109 286.626 332.355 243.228 343.754L184.435 322.893Z" fill="#F5E6CA"/>
<path d="M310.491 219.532C297.971 228.247 291.828 245.404 294.787 262.778C293.289 262.992 291.791 263.205 290.293 263.419C289.306 253.928 288.704 242.833 289.389 230.326C290.246 214.718 292.923 201.292 295.724 190.466C297.138 191.953 310.063 205.535 329.645 203.456C352.124 201.149 361.937 180.658 362.328 179.655C359.203 176.983 334.312 156.311 306.482 164.066C299.201 166.133 293.332 169.587 288.964 173.028L284.605 166.667C287.963 162.036 294.467 151.576 294.638 137.474C295.167 107.968 267.907 90.7173 266.097 89.6339C262.521 92.1668 250.803 101.175 247.249 117.108C243.307 134.345 250.379 153.081 265.292 165.344C264.098 165.955 262.803 166.567 261.609 167.178C256.759 161.723 241.515 146.162 216.271 141.493C198.139 138.06 183.374 141.895 176.096 144.362C180.855 150.819 213.754 194.119 248.395 187.5C251.19 186.975 254.182 186.047 257.17 184.72C262.342 192.573 268.647 204.015 272.982 218.676C278.45 236.927 278.895 252.823 278.193 263.43C276.291 263.248 274.289 263.066 272.387 262.783C272.63 256.581 272.268 238.984 260.405 221.292C248.236 202.903 231.173 196.059 225.453 193.911C220.636 192.155 211.413 189.64 199.823 190.846C188.533 191.95 180.27 196.026 175.794 198.667C179.292 209.335 187.887 230.557 207.964 249.774C229.959 270.873 253.928 278.253 264.952 280.852C267.7 296.928 270.248 313.105 272.996 329.181C275.695 329.056 278.494 328.93 281.193 328.805C279.754 313.718 278.216 298.631 276.777 283.544C277.98 283.833 279.283 284.121 280.485 284.41C282.362 303.694 284.238 322.877 286.216 342.16C289.32 342.631 292.624 343.101 295.729 343.573C294.353 324.384 292.876 305.097 291.499 285.809L295.798 285.77C297.039 301.059 298.38 316.447 299.52 331.637C302.125 332.214 304.53 332.791 307.136 333.368C306.394 317.974 305.653 302.58 304.911 287.086C309.115 287.547 332.934 289.429 352.875 272.045C368.55 258.401 372.291 241.066 373.342 235.656C357.528 212.4 328.179 207.169 310.491 219.532ZM320.58 174.638C324.775 174.099 328.28 174.667 331.986 175.233C338.294 176.075 343.309 177.729 346.623 179.199C344.743 181.416 342.857 182.933 341.067 184.05C326.453 193.484 306.56 183.467 303.948 182.19C310.895 176.326 317.484 175.066 320.58 174.638ZM218.704 166.872C207.856 161.671 201.387 154.23 198.251 150.259C203.851 150.208 213.057 150.823 223.497 155.128C235.844 160.214 243.616 168.043 247.455 172.308C242.259 172.756 230.96 172.86 218.704 166.872ZM217.58 240.485C198.661 227.659 189.312 211.444 185.541 203.678C192.54 203.614 210.048 204.353 227.954 215.889C249.181 229.595 256.866 249.725 259.023 255.906C250.413 254.885 234.284 251.733 217.58 240.485ZM264.118 135.454C262.208 123.471 264.914 113.246 267.255 106.824C271.195 111.188 278.683 120.72 279.405 134.014C279.995 143.809 276.904 155.737 273.306 155.971C269.709 156.304 265.499 144.242 264.118 135.454ZM277.641 192.432C274.9 187.957 272.258 183.381 269.517 178.906C271.406 177.689 273.293 176.272 275.181 174.954C277.899 176.929 280.618 179.004 283.336 180.98L277.641 192.432ZM346.261 259.705C328.757 270.167 310.608 264.933 307.5 264.061C307.588 262.76 308.814 243.848 325.329 234.496C337.664 227.383 353.476 228.538 365.359 237.529C363.696 241.645 358.496 252.493 346.261 259.705Z" fill="#1F2533"/>
<path d="M317.763 216.365C305.242 225.08 299.099 242.237 302.059 259.611C300.561 259.825 299.063 260.038 297.565 260.252C296.577 250.761 295.976 239.666 296.661 227.159C297.518 211.551 300.195 198.125 302.995 187.299C304.409 188.786 317.334 202.368 336.916 200.289C359.396 197.982 369.208 177.491 369.599 176.488C366.474 173.816 341.584 153.144 313.754 160.899C306.472 162.966 300.604 166.42 296.235 169.861L291.877 163.5C295.234 158.869 301.739 148.409 301.909 134.307C302.438 104.801 275.179 87.5503 273.369 86.4669C269.792 88.9998 258.074 98.0077 254.52 113.941C250.578 131.178 257.65 149.914 272.564 162.177C271.369 162.788 270.075 163.4 268.88 164.011C264.03 158.556 248.787 142.995 223.543 138.326C205.41 134.893 190.645 138.728 183.367 141.195C188.127 147.652 221.026 190.952 255.666 184.333C258.462 183.808 261.453 182.88 264.441 181.553C269.613 189.406 275.919 200.848 280.253 215.509C285.721 233.76 286.167 249.656 285.464 260.263C283.562 260.081 281.561 259.899 279.658 259.616C279.901 253.414 279.54 235.817 267.677 218.125C255.508 199.736 238.444 192.892 232.724 190.744C227.908 188.988 218.684 186.473 207.095 187.679C195.805 188.783 187.542 192.859 183.066 195.5C186.564 206.168 195.159 227.391 215.236 246.607C237.23 267.706 261.199 275.087 272.224 277.685C274.971 293.761 277.52 309.938 280.267 326.014C282.966 325.889 285.765 325.763 288.464 325.638C287.026 310.551 285.487 295.465 284.049 280.377C285.251 280.666 286.554 280.954 287.757 281.243C289.634 300.527 291.51 319.71 293.487 338.993C296.591 339.464 299.796 339.935 303 340.406C301.624 321.217 300.147 301.93 298.77 282.642L303.07 282.603C304.31 297.892 305.652 313.28 306.791 328.47C309.396 329.047 311.802 329.624 314.407 330.201C313.666 314.807 312.925 299.413 312.182 283.919C316.387 284.38 340.206 286.362 360.146 268.878C375.822 255.234 379.563 237.899 380.613 232.489C364.799 209.233 335.451 204.102 317.763 216.365ZM327.851 171.471C332.046 170.932 335.552 171.5 339.257 172.066C345.565 172.908 350.581 174.562 353.894 176.032C352.014 178.249 350.128 179.766 348.338 180.883C333.724 190.317 313.832 180.3 311.22 179.023C318.167 173.259 324.655 171.9 327.851 171.471ZM225.976 163.705C215.127 158.504 208.659 151.063 205.522 147.092C211.122 147.041 220.328 147.656 230.768 151.961C243.115 157.047 250.887 164.876 254.727 169.141C249.431 169.59 238.231 169.693 225.976 163.705ZM224.851 237.318C205.933 224.492 196.583 208.277 192.812 200.511C199.812 200.447 217.319 201.186 235.226 212.722C256.453 226.428 264.138 246.558 266.294 252.739C257.686 251.818 241.456 248.667 224.851 237.318ZM271.39 132.387C269.48 120.404 272.186 110.179 274.528 103.757C278.468 108.121 285.956 117.653 286.678 130.947C287.268 140.742 284.177 152.671 280.579 152.904C276.981 153.137 272.77 141.075 271.39 132.387ZM284.914 189.365C282.172 184.89 279.53 180.314 276.789 175.839C278.678 174.622 280.565 173.205 282.453 171.887C285.171 173.862 287.891 175.937 290.709 177.912L284.914 189.365ZM353.434 256.639C335.929 267.1 317.78 261.867 314.672 260.995C314.76 259.694 315.987 240.782 332.502 231.43C344.837 224.317 360.648 225.472 372.531 234.463C370.968 238.478 365.767 249.326 353.434 256.639Z" fill="#F5E6CA"/>
<path d="M79.2674 261.556L82.0306 268.431L115.047 259.228L112.179 251.754L79.2674 261.556Z" fill="#1F2533"/>
<path d="M85.2209 256.502L87.9841 263.377L121 254.074L118.131 246.6L85.2209 256.502Z" fill="#F5E6CA"/>
<path d="M68.2257 213.455L69.1908 220.547L104.712 222.721L104.644 215.321L83.1242 213.219L102.312 200.942L102.234 192.442L67.9165 190.657L67.978 197.357L88.0836 197.872L68.2257 213.455Z" fill="#1F2533"/>
<path d="M74.2785 208.3L75.3427 215.29L110.865 217.564L110.797 210.165L89.1779 208.163L108.365 195.786L108.287 187.287L73.9702 185.602L74.0317 192.301L94.1364 192.717L74.2785 208.3Z" fill="#F5E6CA"/>
<path d="M79.8812 143.145C72.8659 152.41 75.3658 163.287 80.5922 166.139C85.0149 168.599 92.7935 166.227 98.0318 159.479C98.2309 159.377 99.3253 158.767 100.63 159.255C101.633 159.646 102.443 160.639 102.654 161.837C101.694 166.246 100.533 170.457 99.5731 174.866C101.98 175.644 104.286 176.222 106.793 176.999C108.242 171.486 109.592 165.973 111.141 160.459C110.903 156.261 108.269 152.585 104.356 151.221C100.343 149.757 95.853 150.899 92.8816 154.026C92.221 158.332 88.4423 160.667 86.1369 160.088C83.6306 159.411 81.5949 155.53 83.1572 151.415C84.0406 149.607 84.8241 147.8 85.7084 146.092C83.6984 145.01 81.7903 144.127 79.8812 143.145Z" fill="#1F2533"/>
<path d="M85.9339 137.99C78.9186 147.254 81.4185 158.132 86.6449 160.984C91.0677 163.444 98.8462 161.072 104.085 154.324C104.284 154.222 105.378 153.612 106.683 154.1C107.686 154.491 108.495 155.483 108.706 156.681C107.747 161.09 106.585 165.301 105.626 169.71C108.033 170.488 110.338 171.067 112.846 171.844C114.295 166.331 115.645 160.818 117.194 155.304C116.956 151.106 114.322 147.43 110.409 146.065C106.395 144.602 101.906 145.743 98.9343 148.871C98.2738 153.177 94.495 155.512 92.1896 154.933C89.6833 154.256 87.6476 150.374 89.2099 146.26C90.0934 144.452 90.8768 142.645 91.7612 140.936C89.6512 139.856 87.743 138.973 85.9339 137.99Z" fill="#F5E6CA"/>
<path d="M97.6048 102.081L86.0934 122.688L92.9298 126.625L97.6672 119.781L120.797 133.87L123.748 128.442L101.007 113.25L104.738 105.716L97.6048 102.081Z" fill="#1F2533"/>
<path d="M103.558 97.0264L92.047 117.633L98.8825 121.47L103.62 114.627L126.85 128.714L129.801 123.387L106.96 108.096L110.691 100.561L103.558 97.0264Z" fill="#F5E6CA"/>
<path d="M109.573 87.6705L136.677 109.723L141.136 105.282L114.53 82.9248L109.573 87.6705Z" fill="#1F2533"/>
<path d="M115.627 82.6148L142.731 104.667L147.19 100.226L120.684 77.8682L115.627 82.6148Z" fill="#F5E6CA"/>
<path d="M131.002 68.8737L135.85 74.1295L142.118 70.5718L160.599 90.2031L164.679 88.0655L147.785 67.0197L154.047 62.862L149.997 57.399L131.002 68.8737Z" fill="#1F2533"/>
<path d="M137.054 63.7181L141.904 69.0738L148.171 65.5161L166.652 85.1474L170.832 82.9089L153.839 61.964L160.2 57.7054L156.251 52.3415L137.054 63.7181Z" fill="#F5E6CA"/>
<path d="M166.938 50.943L174.22 48.8761L185.69 67.3717C187.601 68.5542 190.002 68.6322 191.692 67.5166C193.58 66.1992 193.759 63.9975 193.857 63.6966C190.1 57.5308 186.443 51.3641 182.687 45.2983L188.769 43.2424L200.766 64.7332C200.675 65.6341 199.923 70.9412 195.35 73.8833C190.876 76.7245 184.774 76.4805 180.04 72.8237C175.573 65.5644 171.305 58.2033 166.938 50.943Z" fill="#1F2533"/>
<path d="M172.991 45.7874L180.273 43.7205L191.744 62.316C193.655 63.4985 196.055 63.5765 197.745 62.4609C199.633 61.1436 199.813 58.9418 199.91 58.6409C196.154 52.4751 192.497 46.3084 188.741 40.2426L194.822 38.1867L206.82 59.6775C206.728 60.5784 205.977 65.8855 201.404 68.8276C196.93 71.6688 190.827 71.4248 186.093 67.7681C181.726 60.4078 177.259 53.1485 172.991 45.7874Z" fill="#F5E6CA"/>
<path d="M205.559 42.0878L206.803 46.8766L214.103 46.8096L224.114 69.8187L231.214 69.7536L222.902 46.7289L227.399 46.3876L226.549 40.8952L205.559 42.0878Z" fill="#1F2533"/>
<path d="M211.612 36.9326L212.856 41.7214L220.155 41.6544L230.168 64.7635L237.368 64.6974L228.955 41.5736L233.552 41.2314L232.702 35.739L211.612 36.9326Z" fill="#F5E6CA"/>
<path d="M265.426 49.1385L268.173 76.0144L274.173 75.9594L273.369 64.6663C273.369 64.6663 281.382 66.0928 281.945 61.9875C282.508 57.9821 283.119 48.2761 265.426 49.1385ZM276.724 59.7353C276.129 60.3408 272.624 59.7729 272.624 59.7729L272.176 54.5768C278.171 53.9218 277.219 59.2307 276.724 59.7353Z" fill="#1F2533"/>
<path d="M271.479 43.9832L274.226 70.8592L280.225 70.8041L279.423 59.611C279.423 59.611 287.436 61.0375 287.998 56.9322C288.661 52.8259 289.172 43.1208 271.479 43.9832ZM282.677 54.6809C282.083 55.2864 278.578 54.7185 278.578 54.7185L278.13 49.5224C284.223 48.7665 283.272 54.0754 282.677 54.6809Z" fill="#F5E6CA"/>
<path d="M305.278 65.4741L301.392 88.8107L315.147 94.7848L317.008 90.4675L308.262 85.5476L309.522 81.1358L316.947 83.8678L317.816 80.4597L310.186 77.2296L311.038 72.0215L318.162 74.5562L318.931 71.1491L305.278 65.4741Z" fill="#1F2533"/>
<path d="M311.33 60.2182L307.445 83.6549L321.2 89.6289L323.061 85.3116L314.314 80.2917L315.574 75.88L322.999 78.6119L323.869 75.3038L316.338 71.9728L317.191 66.8647L324.315 69.3995L325.182 65.8914L311.33 60.2182Z" fill="#F5E6CA"/>
<path d="M340.289 88.3534L330.755 106.442L336.282 109.391L339.415 102.062L340.319 102.554L341.726 114.141L348.868 118.776L345.82 102.603C345.82 102.603 350.823 102.957 351.377 97.852C351.931 92.8467 346.989 88.2919 340.289 88.3534Z" fill="#1F2533"/>
<path d="M346.343 83.2977L336.808 101.386L342.336 104.335L345.468 97.0063L346.373 97.498L347.779 109.086L354.922 113.72L351.874 97.5476C351.874 97.5476 356.877 97.9017 357.43 92.7964C358.084 87.7902 353.042 83.2362 346.343 83.2977Z" fill="#F5E6CA"/>
<path d="M370.305 111.679L368.031 114.5L373.877 119.546L362.396 132.552L366.628 136.013L378.23 125.306L384.282 130.951L387.354 127.823L370.305 111.679Z" fill="#1F2533"/>
<path d="M376.357 106.523L374.183 109.343L380.031 114.49L368.45 127.497L372.682 130.958L384.384 120.25L390.335 125.796L393.406 122.668L376.357 106.523Z" fill="#F5E6CA"/>
<path d="M402.846 148.782L379.684 152.995L383.427 157.661L387.719 156.721L392.875 162.874L391.732 169.085L395.167 172.854L406.792 153.746L402.846 148.782ZM394.949 159.955L391.605 155.186L398.913 156.019L394.949 159.955Z" fill="#1F2533"/>
<path d="M408.799 143.628L385.637 147.841L389.38 152.506L393.671 151.567L398.828 157.72L397.684 163.831L401.119 167.599L412.744 148.492L408.799 143.628ZM401.101 154.799L397.757 150.03L405.065 150.862L401.101 154.799Z" fill="#F5E6CA"/>
<path d="M401.578 184.895L404.315 188.97L417.087 185.853L409.44 202.524L413.492 208.187L434.019 200.198L429.575 195.339L416.817 200.056L425.077 184.68L421.508 177.212L401.578 184.895Z" fill="#1F2533"/>
<path d="M407.731 179.739L410.469 183.914L423.241 180.797L415.594 197.468L419.545 203.032L440.072 195.043L435.629 190.284L422.872 195.101L431.031 179.625L427.463 172.258L407.731 179.739Z" fill="#F5E6CA"/>
<path d="M418.738 224.14L420.194 230.227L444.493 230.004L441.537 223.93L418.738 224.14Z" fill="#1F2533"/>
<path d="M424.792 219.084L426.248 225.171L450.547 224.948L447.591 218.875L424.792 219.084Z" fill="#F5E6CA"/>
<path d="M425.747 246.776L425.808 253.476L431.037 256.628L432.017 265.32L429.025 266.247L429.881 272.34L451.712 264.739L451.669 260.039L425.747 246.776ZM435.707 264.186L435.658 258.886L443.593 262.613L435.707 264.186Z" fill="#1F2533"/>
<path d="M431.9 241.72L431.962 248.419L437.191 251.572L438.171 260.263L435.179 261.19L436.035 267.283L457.866 259.682L457.823 254.982L431.9 241.72ZM441.86 259.029L441.811 253.729L449.746 257.457L441.86 259.029Z" fill="#F5E6CA"/>
<path d="M431.298 285.027L428.561 291.952L444.001 296.211L427.675 304.361L428.528 310.153L451.346 311.944L451.805 307.539L439.789 305.85L451.721 298.34L451.068 292.546L431.298 285.027Z" fill="#1F2533"/>
<path d="M437.251 279.972L434.615 286.896L450.055 291.155L433.628 299.206L434.581 304.998L457.399 306.888L457.759 302.485L445.742 300.695L457.675 293.285L457.12 287.39L437.251 279.972Z" fill="#F5E6CA"/>
</svg>
