<svg width="453" height="445" viewBox="0 0 453 445" fill="none" xmlns="http://www.w3.org/2000/svg">
<g clip-path="url(#clip0)">
<path d="M17.8167 197L0.0947266 202.393C1.23197 160.855 11.941 119.695 35.9177 89.7002C25.3983 110.327 18.6696 135.023 17.4376 164.072C16.9638 175.521 17.1533 186.402 17.8167 197Z" fill="#FB9300"/>
<path d="M77.3322 352.083L146 408L128.5 430C128.5 430 19.5 352.083 13.8364 297.014L38.1923 284.808C50.7019 315.181 66.0546 337.89 77.3322 352.083Z" fill="#FB9300"/>
<path d="M38.2869 284.903L13.931 297.109C11.8461 291.053 9.95069 284.713 8.24483 277.901C2.3691 254.34 -0.56877 228.319 0.0946189 202.488L17.8166 197.095C20.1858 230.969 28.2413 260.396 38.2869 284.903Z" fill="#E08300"/>
<path d="M453 307.99L447.124 321.142C446.272 338.363 443.523 352.367 441.059 362.302C437.079 378.387 434.425 388.701 425.801 398.92C418.788 407.247 410.828 412.072 405.426 414.722C356.051 424.846 306.77 434.876 257.395 445L183.664 441.405L169.638 430.239L92.9694 369.588C92.9694 369.588 86.5251 363.627 77.4272 352.083C54.2085 322.751 13.5523 257.557 17.4378 164.072C18.6698 135.024 25.3985 110.328 35.918 89.7004C72.4044 17.8834 154.096 -5.58244 205.651 1.04099C279.192 6.52898 448.167 90.5519 453 307.99Z" fill="#343F56"/>
<path d="M452.432 293.324C449.778 296.068 447.504 298.149 445.608 299.285C442.575 301.177 440.964 300.609 441.438 296.825C443.902 275.724 421.347 120.168 296.44 49.7706C172.86 -19.8701 79.3225 48.3513 77.4271 49.7706L63.7803 51.0952C105.005 9.46224 164.805 -4.1631 205.651 1.04102C277.486 6.43439 440.491 86.7672 452.432 293.324Z" fill="#1F2533"/>
<path d="M453 307.99C452.905 303.069 452.715 298.149 452.431 293.323C440.49 86.7669 277.486 6.43416 205.65 1.0408C164.805 -4.16333 105.005 9.46202 63.78 51.1896C52.9762 62.071 43.4992 74.8448 35.9176 89.7948C25.3982 110.422 18.6695 135.118 17.4375 164.166C13.4572 257.651 54.1134 322.845 77.4268 352.177C86.5247 363.721 92.9691 369.682 92.9691 369.682L169.638 430.334L189.255 428.441C189.255 428.441 96.6651 380.374 65.9597 317.735C35.0647 255.002 -2.46418 154.799 68.9923 58.4754C68.9923 58.4754 71.8354 54.9745 77.332 49.865C99.4134 29.4269 164.236 -16.9371 265.545 23.9389C403.814 79.6704 435.846 217.911 440.301 246.392C442.101 258.125 443.997 278.941 445.513 299.379C446.082 306.854 446.555 314.235 447.029 321.142C444.281 347.068 440.49 366.276 438.216 373.562C436.415 379.333 434.33 384.538 434.33 384.538C432.814 388.228 431.392 391.256 430.35 393.432L437.458 397.406C453.474 364.573 453 307.99 453 307.99Z" fill="#F54748"/>
<path d="M152.105 313.571L156.181 343.566L201.67 353.69C201.67 353.69 228.111 341.106 244.696 353.69C261.375 366.275 273.316 384.537 273.316 384.537H288.574C288.574 384.537 298.335 367.505 317.384 369.492C336.433 371.479 339.75 374.791 339.75 374.791C339.75 374.791 347.9 366.275 368.181 367.126L364.959 343.566C364.959 343.566 336.907 346.783 330.462 352.082C330.462 352.082 309.708 341.957 280.898 354.069C280.898 354.069 254.173 324.074 210.673 335.05L152.105 313.571Z" fill="#1F2533"/>
<path d="M286.394 208.259C273.79 216.87 267.535 233.996 270.283 251.406C268.767 251.595 267.251 251.785 265.734 251.974C264.787 242.512 264.313 231.347 265.166 218.857C266.208 203.244 268.957 189.808 271.895 179.021C273.316 180.535 286.11 194.255 305.727 192.363C328.188 190.281 338.233 169.843 338.613 168.897C335.485 166.153 310.845 145.337 282.888 152.812C275.591 154.799 269.715 158.205 265.261 161.611L260.996 155.177C264.408 150.541 271.042 140.132 271.326 126.034C272.084 96.5124 244.98 79.0076 243.274 77.9668C239.673 80.4269 227.827 89.3213 224.131 105.312C220.055 122.533 226.974 141.268 241.758 153.663C240.526 154.231 239.294 154.893 238.062 155.461C233.228 149.973 218.16 134.266 192.951 129.346C174.85 125.75 160.066 129.44 152.769 131.806C157.507 138.335 190.013 181.955 224.699 175.615C227.542 175.142 230.48 174.196 233.513 172.871C238.63 180.819 244.79 192.268 249.055 206.934C254.362 225.196 254.646 241.092 253.888 251.69C251.993 251.501 250.003 251.311 248.107 251.028C248.392 244.877 248.202 227.183 236.545 209.395C224.51 190.944 207.546 183.847 201.86 181.671C197.026 179.873 187.834 177.224 176.272 178.359C164.994 179.4 156.654 183.374 152.2 185.929C155.612 196.621 163.952 217.91 183.853 237.308C205.65 258.597 229.532 266.167 240.526 268.911C243.084 284.996 245.549 301.176 248.107 317.262C250.856 317.167 253.604 317.073 256.352 316.978C255.025 301.839 253.699 286.794 252.372 271.655C253.604 271.939 254.836 272.223 256.068 272.601C257.774 291.904 259.48 311.112 261.28 330.414C264.408 330.887 267.63 331.455 270.757 331.928C269.525 312.72 268.293 293.418 267.061 274.115H271.326C272.463 289.444 273.6 304.772 274.643 320.006C277.202 320.574 279.666 321.236 282.224 321.804C281.656 306.381 280.992 290.957 280.424 275.534C284.594 276.007 308.381 278.184 328.567 260.963C344.394 247.432 348.279 230.117 349.322 224.723C333.495 201.541 304.211 196.053 286.394 208.259ZM296.914 163.504C301.084 163.031 304.59 163.598 308.286 164.166C314.541 165.112 319.564 166.815 322.881 168.235C320.985 170.411 319.09 171.925 317.289 173.06C302.6 182.333 282.793 172.209 280.234 170.884C287.247 165.112 293.786 163.882 296.914 163.504ZM195.131 154.799C184.327 149.5 177.883 142.025 174.85 137.956C180.442 137.956 189.634 138.619 200.059 143.066C212.379 148.27 220.055 156.123 223.846 160.476C218.634 160.854 207.356 160.854 195.131 154.799ZM193.33 228.413C174.566 215.45 165.373 199.081 161.677 191.322C168.69 191.322 186.223 192.268 203.945 203.907C225.078 217.816 232.565 237.97 234.65 244.215C226.026 243.08 209.915 239.768 193.33 228.413ZM240.81 123.763C239.009 111.746 241.852 101.527 244.222 95.1877C248.107 99.5403 255.499 109.192 256.163 122.533C256.637 132.374 253.509 144.201 249.908 144.39C246.212 144.674 242.137 132.563 240.81 123.763ZM253.793 180.914C251.14 176.372 248.486 171.83 245.833 167.289C247.728 166.058 249.624 164.734 251.519 163.409C254.267 165.396 256.921 167.478 259.669 169.465L253.793 180.914ZM321.838 248.757C304.211 259.07 286.11 253.677 283.077 252.731C283.172 251.406 284.594 232.577 301.178 223.304C313.593 216.302 329.42 217.627 341.171 226.71C339.371 230.873 334.064 241.66 321.838 248.757Z" fill="#1F2533"/>
<path d="M159.403 310.449L163.478 340.444L208.967 350.568C208.967 350.568 235.408 337.984 251.993 350.568C268.672 363.153 280.614 381.415 280.614 381.415H295.871C295.871 381.415 305.633 364.383 324.681 366.37C343.73 368.357 347.047 371.669 347.047 371.669C347.047 371.669 355.197 363.153 375.478 364.004L372.256 340.444C372.256 340.444 344.204 343.661 337.76 348.96C337.76 348.96 317.005 338.835 288.195 350.947C288.195 350.947 261.47 320.952 217.971 331.928L159.403 310.449Z" fill="#F5E6CA"/>
<path d="M293.692 205.137C281.087 213.748 274.832 230.874 277.581 248.284C276.064 248.473 274.548 248.663 273.032 248.852C272.084 239.39 271.61 228.224 272.463 215.735C273.506 200.122 276.254 186.686 279.192 175.899C280.613 177.413 293.407 191.133 313.025 189.241C335.485 187.159 345.531 166.721 345.91 165.775C342.782 163.031 318.142 142.214 290.185 149.69C282.888 151.677 277.012 155.083 272.558 158.489L268.293 152.055C271.705 147.419 278.339 137.01 278.623 122.912C279.381 93.3903 252.277 75.8856 250.571 74.8447C246.97 77.3049 235.124 86.1992 231.428 102.19C227.353 119.411 234.271 138.146 249.055 150.541C247.823 151.109 246.591 151.771 245.359 152.339C240.526 146.851 225.457 131.144 200.249 126.224C182.148 122.628 167.363 126.318 160.066 128.684C164.805 135.213 197.311 178.833 231.997 172.493C234.84 172.02 237.777 171.074 240.81 169.749C245.928 177.697 252.088 189.146 256.352 203.812C261.659 222.074 261.944 237.97 261.186 248.568C259.29 248.379 257.3 248.189 255.405 247.906C255.689 241.755 255.499 224.061 243.843 206.273C231.807 187.822 214.843 180.725 209.157 178.549C204.324 176.751 195.131 174.102 183.569 175.237C172.291 176.278 163.952 180.252 159.498 182.807C162.909 193.499 171.249 214.788 191.151 234.186C212.948 255.475 236.83 263.045 247.823 265.789C250.382 281.874 252.846 298.054 255.405 314.14C258.153 314.045 260.901 313.951 263.65 313.856C262.323 298.717 260.996 283.672 259.669 268.533C260.901 268.817 262.133 269.101 263.365 269.479C265.071 288.782 266.777 307.99 268.578 327.292C271.705 327.765 274.927 328.333 278.055 328.806C276.823 309.598 275.591 290.296 274.359 270.993H278.623C279.761 286.321 280.898 301.65 281.94 316.884C284.499 317.452 286.963 318.114 289.522 318.682C288.953 303.259 288.29 287.835 287.721 272.412C291.891 272.885 315.678 275.062 335.864 257.841C351.691 244.31 355.576 226.994 356.619 221.601C340.792 198.514 311.508 193.026 293.692 205.137ZM304.211 160.382C308.381 159.909 311.887 160.476 315.584 161.044C321.838 161.99 326.861 163.693 330.178 165.113C328.283 167.289 326.387 168.803 324.587 169.938C309.897 179.211 290.09 169.087 287.532 167.762C294.545 162.085 300.989 160.76 304.211 160.382ZM202.428 151.677C191.625 146.378 185.18 138.903 182.148 134.834C187.739 134.834 196.932 135.496 207.356 139.944C219.676 145.148 227.353 153.001 231.144 157.354C225.836 157.732 214.654 157.732 202.428 151.677ZM200.628 225.291C181.863 212.328 172.671 195.959 168.975 188.2C175.988 188.2 193.52 189.146 211.242 200.785C232.376 214.694 239.862 234.848 241.947 241.093C233.323 240.052 217.118 236.74 200.628 225.291ZM248.107 120.736C246.307 108.719 249.15 98.4998 251.519 92.1603C255.405 96.5128 262.797 106.164 263.46 119.506C263.934 129.346 260.807 141.174 257.205 141.363C253.509 141.552 249.434 129.441 248.107 120.736ZM261.091 177.886C258.437 173.345 255.784 168.803 253.13 164.261C255.026 163.031 256.921 161.706 258.816 160.382C261.565 162.369 264.218 164.45 266.967 166.437L261.091 177.886ZM329.041 245.729C311.414 256.043 293.313 250.65 290.28 249.703C290.375 248.379 291.796 229.549 308.381 220.276C320.796 213.274 336.622 214.599 348.374 223.683C346.668 227.751 341.361 238.538 329.041 245.729Z" fill="#F5E6CA"/>
<path d="M323.07 76.6426L320.985 82.0359C320.985 82.0359 324.302 84.4961 325.724 82.7929C327.145 80.9951 326.577 77.1157 323.07 76.6426Z" fill="#F5E6CA" stroke="black" stroke-miterlimit="10"/>
<path d="M54.7769 248.19L57.4304 255.097L90.5051 246.203L87.662 238.728L54.7769 248.19Z" fill="#1F2533"/>
<path d="M44.2573 199.934L45.205 207.03L80.7437 209.49V202.204L59.231 199.934L78.564 187.822V179.306L44.2573 177.225V183.943L64.3485 184.605L44.2573 199.934Z" fill="#1F2533"/>
<path d="M56.4825 129.819C49.3747 138.998 51.744 149.879 56.9563 152.812C61.3157 155.272 69.1816 153.001 74.4887 146.283C74.6783 146.189 75.8155 145.621 77.0475 146.094C78.09 146.473 78.8482 147.513 79.0377 148.649C77.9952 153.001 76.858 157.259 75.8155 161.612C78.1848 162.369 80.554 163.031 83.018 163.788C84.5343 158.3 85.9559 152.812 87.4722 147.324C87.2827 143.161 84.6291 139.471 80.7436 138.051C76.7632 136.537 72.2143 137.673 69.2764 140.795C68.613 145.053 64.8222 147.419 62.453 146.756C59.989 146.094 57.904 142.12 59.5151 138.051C60.368 136.254 61.221 134.456 62.0739 132.753C60.2733 131.712 58.3779 130.766 56.4825 129.819Z" fill="#1F2533"/>
<path d="M74.5834 88.8486L62.9268 109.381L69.7502 113.355L74.5834 106.543L97.6125 120.83L100.645 115.437L77.9952 100.014L81.786 92.5388L74.5834 88.8486Z" fill="#1F2533"/>
<path d="M86.7144 74.5611L113.629 96.8915L118.083 92.539L91.7372 69.8301L86.7144 74.5611Z" fill="#1F2533"/>
<path d="M108.322 56.0157L113.155 61.3144L119.41 57.8135L137.7 77.5892L141.776 75.5075L125.096 54.3125L131.446 50.2438L127.465 44.7559L108.322 56.0157Z" fill="#1F2533"/>
<path d="M144.429 38.4164L151.726 36.4294L163.004 55.0696C164.9 56.2997 167.269 56.3943 168.975 55.2589C170.87 53.9342 171.06 51.7579 171.154 51.474C167.458 45.3237 163.857 39.0788 160.161 32.9284L166.226 30.9414L178.073 52.5149C177.978 53.3665 177.22 58.6652 172.576 61.5984C168.122 64.437 161.962 64.0586 157.318 60.3684C152.958 53.0826 148.694 45.7022 144.429 38.4164Z" fill="#1F2533"/>
<path d="M183.095 29.9003L184.327 34.726H191.625L201.386 57.8133H208.494L200.438 34.726L204.987 34.4421L204.229 28.9541L183.095 29.9003Z" fill="#1F2533"/>
<path d="M242.895 37.4699L245.359 64.3422H251.33L250.666 53.0823C250.666 53.0823 258.627 54.5963 259.29 50.5276C259.954 46.4589 260.617 36.8076 242.895 37.4699ZM254.078 48.1621C253.509 48.7298 250.003 48.1621 250.003 48.1621L249.624 42.9579C255.594 42.3902 254.647 47.689 254.078 48.1621Z" fill="#1F2533"/>
<path d="M282.603 54.123L278.528 77.3997L292.27 83.4554L294.165 79.1975L285.447 74.1826L286.773 69.7354L294.165 72.574L295.018 69.1677L287.437 65.856L288.384 60.6519L295.492 63.3012L296.25 59.8949L282.603 54.123Z" fill="#1F2533"/>
<path d="M317.384 77.3994L307.718 95.3773L313.214 98.4052L316.437 91.1194L317.384 91.5925L318.711 103.231L325.819 107.962L322.881 91.7817C322.881 91.7817 327.904 92.1602 328.472 87.0507C329.041 81.9412 324.113 77.3994 317.384 77.3994Z" fill="#1F2533"/>
<path d="M347.237 100.96L344.962 103.799L350.743 108.908L339.181 121.776L343.351 125.277L355.008 114.68L360.978 120.357L364.106 117.235L347.237 100.96Z" fill="#1F2533"/>
<path d="M379.364 138.335L356.145 142.309L359.841 147.04L364.106 146.188L369.223 152.433L367.991 158.584L371.403 162.369L383.249 143.35L379.364 138.335ZM371.403 149.5L368.086 144.675L375.383 145.621L371.403 149.5Z" fill="#1F2533"/>
<path d="M377.847 174.48L380.595 178.549L393.389 175.521L385.618 192.079L389.599 197.757L410.164 189.998L405.709 185.172L392.916 189.808L401.35 174.48L397.844 167.005L377.847 174.48Z" fill="#1F2533"/>
<path d="M394.622 213.843L396.043 219.993H420.304L417.366 213.843H394.622Z" fill="#1F2533"/>
<path d="M401.445 236.552V243.27L406.657 246.487L407.51 255.192L404.477 256.044L405.236 262.099L427.127 254.719V249.988L401.445 236.552ZM411.206 254.057V248.758L419.072 252.543L411.206 254.057Z" fill="#1F2533"/>
<path d="M406.563 274.873L403.72 281.78L419.167 286.133L402.772 294.176L403.53 299.948L426.37 301.935L426.844 297.582L414.808 295.784L426.844 288.404L426.275 282.632L406.563 274.873Z" fill="#1F2533"/>
<path d="M60.8423 243.175L63.4958 250.082L96.5705 241.093L93.7274 233.618L60.8423 243.175Z" fill="#F5E6CA"/>
<path d="M50.3228 194.919L51.3652 201.921L86.9039 204.476V197.095L65.2964 194.919L84.6294 182.713V174.197L50.3228 172.21V178.928L70.414 179.496L50.3228 194.919Z" fill="#F5E6CA"/>
<path d="M62.6426 124.71C55.5349 133.888 57.9041 144.769 63.1165 147.703C67.4759 150.163 75.3418 147.892 80.6489 141.174C80.8384 141.079 81.9757 140.512 83.2077 140.985C84.2502 141.363 85.0083 142.404 85.1979 143.539C84.1554 147.892 83.0181 152.15 81.9757 156.502C84.3449 157.259 86.7142 157.922 89.1782 158.679C90.6945 153.191 92.1161 147.703 93.6324 142.215C93.4428 138.051 90.7893 134.361 86.9037 132.942C82.9234 131.428 78.3744 132.563 75.4366 135.686C74.7732 139.944 70.9824 142.309 68.6131 141.647C66.1491 140.985 64.0642 137.011 65.6753 132.942C66.5282 131.144 67.3811 129.346 68.234 127.643C66.3386 126.602 64.4432 125.656 62.6426 124.71Z" fill="#F5E6CA"/>
<path d="M80.6489 83.834L68.9922 104.367L75.8156 108.246L80.6489 101.433L103.773 115.721L106.805 110.422L84.0606 94.9046L87.8514 87.4296L80.6489 83.834Z" fill="#F5E6CA"/>
<path d="M92.7798 69.5465L119.694 91.8769L124.149 87.4297L97.8026 64.8154L92.7798 69.5465Z" fill="#F5E6CA"/>
<path d="M114.387 50.9064L119.22 56.2998L125.475 52.7988L143.766 72.5745L147.936 70.3982L131.161 49.2979L137.511 45.1346L133.625 39.7412L114.387 50.9064Z" fill="#F5E6CA"/>
<path d="M150.495 33.3072L157.792 31.3201L169.07 50.055C170.965 51.285 173.334 51.3797 175.04 50.2442C176.935 48.9195 177.125 46.7433 177.22 46.4594C173.524 40.3091 169.922 34.0641 166.226 27.9138L172.292 25.9268L184.138 47.5002C184.043 48.3518 183.285 53.6506 178.641 56.5838C174.187 59.4224 168.027 59.0439 163.383 55.3537C159.119 47.9733 154.759 40.6875 150.495 33.3072Z" fill="#F5E6CA"/>
<path d="M189.161 24.7909L190.393 29.6166H197.69L207.451 52.7986H214.654L206.504 29.6166L211.147 29.3327L210.389 23.8447L189.161 24.7909Z" fill="#F5E6CA"/>
<path d="M249.055 32.3606L251.519 59.2328H257.49L256.826 48.0676C256.826 48.0676 264.787 49.5815 265.45 45.5128C266.114 41.3495 266.682 31.6982 249.055 32.3606ZM260.143 43.1473C259.575 43.715 256.068 43.1473 256.068 43.1473L255.689 37.9432C261.754 37.2808 260.712 42.5796 260.143 43.1473Z" fill="#F5E6CA"/>
<path d="M288.669 49.0137L284.594 72.3849L298.335 78.4406L300.231 74.1827L291.512 69.0732L292.839 64.6261L300.231 67.4647L301.084 64.153L293.597 60.7466L294.45 55.6371L301.558 58.2865L302.41 54.7855L288.669 49.0137Z" fill="#F5E6CA"/>
<path d="M323.544 72.3848L313.878 90.3627L319.375 93.3905L322.597 86.1047L323.544 86.5778L324.871 98.2162L331.979 102.947L329.041 86.7671C329.041 86.7671 334.064 87.1456 334.633 82.036C335.201 76.9265 330.178 72.3848 323.544 72.3848Z" fill="#F5E6CA"/>
<path d="M353.302 95.8506L351.122 98.6892L356.903 103.893L345.247 116.762L349.416 120.263L361.168 109.665L367.044 115.248L370.171 112.125L353.302 95.8506Z" fill="#F5E6CA"/>
<path d="M385.429 133.226L362.21 137.2L365.906 141.931L370.171 141.079L375.289 147.324L374.057 153.474L377.468 157.259L389.315 138.24L385.429 133.226ZM377.563 144.391L374.246 139.565L381.543 140.511L377.563 144.391Z" fill="#F5E6CA"/>
<path d="M384.007 169.371L386.756 173.534L399.55 170.506L391.778 187.065L395.664 192.647L416.229 184.888L411.87 180.063L399.076 184.794L407.415 169.371L403.909 161.99L384.007 169.371Z" fill="#F5E6CA"/>
<path d="M400.687 208.828L402.109 214.884H426.37L423.432 208.828H400.687Z" fill="#F5E6CA"/>
<path d="M407.605 231.537V238.255L412.817 241.472L413.67 250.177L410.638 251.029L411.396 257.085L433.288 249.704V244.973L407.605 231.537ZM417.366 248.947V243.649L425.232 247.433L417.366 248.947Z" fill="#F5E6CA"/>
<path d="M412.628 269.858L409.88 276.766L425.327 281.118L408.837 289.066L409.69 294.838L432.53 296.92L432.909 292.567L420.873 290.675L432.909 283.389L432.435 277.523L412.628 269.858Z" fill="#F5E6CA"/>
</g>
<defs>
<clipPath id="clip0">
<rect width="453" height="445" fill="white"/>
</clipPath>
</defs>
</svg>
