<svg width="147" height="150" viewBox="0 0 147 150" fill="none" xmlns="http://www.w3.org/2000/svg">
<path d="M69.8261 137.099C64.5941 132.9 16.0093 85.6531 15.4663 85.1365C13.3205 82.9907 11.9694 80.7655 11.5986 78.7257C11.2144 76.6064 11.8635 74.752 13.5854 73.0301C15.1881 71.4273 17.1485 70.5796 19.2545 70.5796C21.8241 70.5796 24.46 71.7982 26.6588 74.0102L48.6862 95.1767C49.0703 95.5475 49.5736 95.733 50.0637 95.733C50.4538 95.7338 50.8355 95.6194 51.1607 95.404C51.486 95.1886 51.7403 94.8819 51.8917 94.5223C52.0432 94.1628 52.085 93.7666 52.0119 93.3834C51.9388 93.0002 51.7541 92.6471 51.481 92.3686L16.314 56.0492C12.7907 52.5259 11.135 47.1349 15.3206 42.9493C16.9233 41.3466 18.8836 40.4989 20.9897 40.4989C23.5593 40.4989 26.1952 41.7175 28.394 43.9295L64.369 79.0038C64.7531 79.3747 65.2564 79.5734 65.7597 79.5734C66.2631 79.5734 66.7796 79.3747 67.1638 78.9906C67.932 78.2223 67.9453 76.9772 67.177 76.1957L23.9699 31.9025C21.9698 29.9024 20.7645 27.505 20.5526 25.1738C20.3539 22.8028 21.1884 20.604 22.9765 18.8159C24.5792 17.2132 26.5396 16.3655 28.6456 16.3655C31.2153 16.3655 33.8511 17.5841 36.0499 19.7828L80.118 62.7515C80.5021 63.1224 81.0054 63.321 81.5087 63.321C82.0121 63.321 82.5286 63.1224 82.9128 62.7382C83.681 61.97 83.6943 60.7249 82.926 59.9434L50.9247 27.0546C48.9114 25.0413 47.706 22.6571 47.5073 20.3259C47.3086 17.9549 48.1431 15.7562 49.9313 13.968C51.534 12.3653 53.4943 11.5176 55.6004 11.5176C58.17 11.5176 60.8059 12.7362 63.0047 14.9482C74.7402 26.4718 105.377 56.6055 106.41 57.7182C110.344 60.4335 111.139 56.3274 111.338 53.665C111.563 50.5656 108.013 39.7439 110.079 30.0084C113.55 17.0675 123.55 19.1868 123.775 19.2927C129.259 21.8624 128.213 25.7036 126.266 33.4258L126.067 34.949C124.027 45.0421 138.041 74.9507 139.074 77.1892C144.571 89.2162 150.902 113.601 129.935 134.569C106.954 157.55 78.502 145.775 69.8261 137.099V137.099Z" fill="#F8F8F8"/>
<path d="M99.3141 150C85.2208 150 73.2335 143.258 68.5049 138.582C64.253 135.112 37.4175 109.204 15.5623 87.9976C14.6748 87.1366 14.1582 86.6465 14.1053 86.5803C11.6283 84.1034 10.0918 81.5205 9.65474 79.0833C9.15141 76.315 10.0124 73.8116 12.1846 71.626C14.1715 69.6392 16.6087 68.5928 19.2578 68.5928C22.3705 68.5928 25.4965 70.0233 28.0661 72.6062L50.067 93.7462L14.8867 57.4268C10.8336 53.3736 8.79378 46.6581 13.9198 41.5453C15.9067 39.5585 18.3438 38.5121 20.993 38.5121C24.1057 38.5121 27.2316 39.9426 29.8013 42.5255L65.7498 77.5733L22.5559 33.2933C20.2512 30.9886 18.8339 28.1673 18.5823 25.3592C18.3306 22.3657 19.3638 19.6239 21.5758 17.4119C23.5626 15.425 25.9998 14.3786 28.6489 14.3786C31.7484 14.3786 34.8743 15.7959 37.4572 18.3788L81.512 61.3342L49.5107 28.4455C47.1927 26.1275 45.7754 23.3062 45.537 20.4981C45.2854 17.5178 46.3185 14.776 48.5305 12.564C50.5174 10.5772 52.9545 9.53076 55.6037 9.53076C58.7164 9.53076 61.8423 10.9613 64.412 13.5442L73.962 22.9088C90.9826 39.5982 105.208 53.5723 106.732 55.1353C107.473 55.7313 108.44 55.9565 108.851 55.7578C109.116 55.6254 109.407 55.0161 109.354 53.7313C109.275 51.4795 108.957 48.6847 108.626 45.7309C107.963 39.7969 107.275 33.651 108.136 29.5978C110.016 22.5644 113.712 19.5842 116.467 18.2993C120.255 16.5509 123.924 17.1602 124.626 17.4914C131.514 20.7233 130.15 26.1275 128.269 33.6245L128.229 33.8099L128.017 35.3596C126.64 42.1414 133.713 60.8839 140.786 76.156L140.892 76.368C145.621 86.6995 154.138 113.204 131.355 135.986C120.878 146.437 109.54 150 99.3141 150V150ZM19.2578 72.5665C17.6948 72.5665 16.2113 73.2155 14.9927 74.4341C13.7344 75.6924 13.2973 76.911 13.5622 78.368C13.8536 79.9708 15.0324 81.8781 16.8736 83.7325C16.8868 83.7458 17.4167 84.2623 18.3306 85.1365C49.3517 115.244 68.081 133.139 71.0745 135.549L71.2334 135.695C78.545 143.006 105.712 155.987 128.534 133.165C149.555 112.144 141.647 87.6002 137.263 78.0104L137.17 77.8117C132.613 67.9835 122.255 44.1415 124.097 34.6311L124.401 32.6443C126.441 24.538 126.56 22.8426 123.103 21.1736C122.083 20.9882 114.772 20.1007 111.977 30.525C111.275 33.8496 111.95 39.9294 112.546 45.2938C112.891 48.3271 113.209 51.2014 113.288 53.5988C113.421 57.3738 111.632 58.8176 110.546 59.3474C108.334 60.4203 105.698 59.5063 104.056 58.1288L103.884 57.9699C103.076 57.0956 83.8565 38.2472 71.1407 25.7698L61.5774 16.3787C58.319 13.1071 54.1202 12.564 51.2988 15.3853C49.9213 16.7628 49.2988 18.3788 49.4445 20.167C49.6034 22.0346 50.6101 23.9817 52.2923 25.6639L84.3598 58.5527C85.0886 59.3021 85.4941 60.3076 85.4891 61.3529C85.4842 62.3982 85.0691 63.3998 84.3333 64.1423C82.8631 65.6126 80.2669 65.639 78.7569 64.182L34.6624 21.2001C31.404 17.9417 27.1919 17.3986 24.3838 20.2199C23.0063 21.5975 22.3837 23.2134 22.5294 25.0016C22.7016 26.8692 23.7083 28.8296 25.3772 30.4853L68.5976 74.805C70.1208 76.3415 70.1076 78.8581 68.5711 80.3946C67.1008 81.8649 64.5047 81.8914 62.9947 80.4344L27.0065 45.3468C23.748 42.0619 19.5359 41.5321 16.7279 44.3534C13.2973 47.784 15.1252 52.0358 17.7213 54.6452L52.9148 90.9911C53.6414 91.7371 54.0447 92.7394 54.0373 93.7808C54.0298 94.8222 53.6123 95.8187 52.8751 96.5542C51.3916 98.0377 48.8219 98.051 47.3119 96.6072L25.2845 75.4408C23.4301 73.5731 21.2976 72.5665 19.2578 72.5665V72.5665Z" fill="#F8F8F8"/>
<path d="M103.247 56.4336C95.9751 71.2819 96.9155 92.0642 107.83 108.74C109.062 110.992 111.168 109.893 110.095 107.575C96.9155 79.3749 110.731 59.0562 110.731 59.0562L103.247 56.4336V56.4336Z" fill="#F8F8F8"/>
<path d="M74.6514 0.748897C78.6515 -0.297504 82.9166 -0.204784 87.0625 0.762143C91.1819 1.75556 95.3012 3.84836 98.361 7.26572C101.354 10.6566 103.196 14.776 103.818 19.094C104.401 23.3724 103.858 27.7831 101.831 31.4389C101.593 27.3328 100.878 23.5578 99.6723 20.0742C99.0497 18.339 98.3212 16.6833 97.4338 15.1204C96.5596 13.5706 95.5264 12.0341 94.427 10.7758C92.1885 8.19291 89.1553 6.17959 85.7512 4.61661C82.3338 3.00065 78.6118 1.80854 74.6514 0.748897V0.748897Z" fill="#F8F8F8"/>
<path d="M75.748 13.3051C77.9601 11.9011 80.7284 11.6097 83.3378 12.0733C85.9736 12.5369 88.4903 13.8482 90.4771 15.6628C92.4507 17.504 93.8548 19.8219 94.729 22.2326C95.1528 23.438 95.3647 24.7096 95.5634 25.9414C95.6297 27.213 95.6297 28.4846 95.431 29.7561C94.517 28.7892 93.8018 27.8223 93.1263 26.8818C92.3448 25.9944 91.7355 25.0539 91.0334 24.193C89.6559 22.4843 88.3181 20.9346 86.8743 19.557C85.3908 18.2192 83.8279 17.0404 82.0132 16.0205C80.2118 14.9741 78.1852 14.0999 75.748 13.3051Z" fill="#F8F8F8"/>
<path d="M0.0253163 97.2295C1.89294 100.885 3.84004 104.276 6.10504 107.27C8.35679 110.263 10.9397 112.806 13.9464 114.462C15.4034 115.27 17.1386 115.972 18.834 116.502C20.5427 117.045 22.3176 117.416 24.1455 117.667C27.8013 118.118 31.6425 118.038 35.7089 117.416C32.5565 120.158 28.3444 121.615 24.0528 121.933C19.7082 122.224 15.2975 121.283 11.3503 119.058C7.37661 116.793 4.46259 113.19 2.6347 109.362C0.806806 105.508 -0.173367 101.362 0.0253163 97.2295V97.2295Z" fill="#F8F8F8"/>
<path d="M12.5438 95.6797C13.8286 97.9049 15.1002 99.6931 16.491 101.256C17.8685 102.819 19.352 104.104 20.968 105.269C22.6104 106.395 24.4118 107.389 26.3722 108.382C27.3523 108.886 28.3987 109.283 29.4319 109.866C30.5048 110.329 31.5909 110.819 32.73 111.521C31.5247 111.972 30.2928 112.237 29.0345 112.435C27.7894 112.488 26.5046 112.555 25.233 112.382C22.6899 112.038 20.1467 111.151 17.9215 109.601C15.736 108.025 13.9213 105.839 12.9279 103.362C11.9212 100.898 11.6298 98.1434 12.5438 95.6797V95.6797Z" fill="#F8F8F8"/>
</svg>
