<svg width="255" height="400" viewBox="0 0 255 400" fill="none" xmlns="http://www.w3.org/2000/svg">
<path fill-rule="evenodd" clip-rule="evenodd" d="M48.1786 175.322L45.3441 173.177L12.1019 148.049C9.6341 151.677 8.19497 156.055 8.19497 160.766C8.19497 173.27 18.329 183.404 30.8324 183.404C32.2606 183.404 33.656 183.272 35.0075 183.021C13.3495 206.063 0.0800781 237.084 0.0800781 271.207C0.0800781 288.629 3.53837 305.248 9.80923 320.41C9.73263 318.939 9.68886 317.456 9.68886 315.967C9.68886 296.12 16.7148 277.915 28.4084 263.694C28.4139 263.688 28.4139 263.683 28.4194 263.677C29.2128 262.687 30.039 261.729 30.9036 260.799L30.9091 260.794L30.9145 260.788C36.6054 254.659 43.7518 249.904 51.8065 247.07C57.2128 245.171 63.0295 244.137 69.0869 244.137C75.2702 244.137 81.1745 245.209 86.6355 247.168C87.4837 247.475 88.3263 247.798 89.1526 248.142C89.4536 248.268 89.749 248.394 90.0445 248.525C93.0103 249.729 96.2497 250.391 99.6478 250.391C108.567 250.391 116.414 245.817 120.978 238.884C122.242 236.963 123.254 234.862 123.965 232.629L92.3045 208.695L85.563 203.601L48.1786 175.322Z" fill="url(#paint0_linear)"/>
<path fill-rule="evenodd" clip-rule="evenodd" d="M180.611 294.052C200.627 278.572 213.519 260.728 213.519 227.053C213.519 195.196 187.467 155.021 154.088 145.986C165.946 160.624 173.049 179.267 173.049 199.573C173.049 246.621 113.481 284.761 87.8614 284.761C76.4195 284.761 72.4031 282.851 62.2143 286.227C56.5837 288.093 51.4072 290.955 46.8929 294.605C35.834 303.551 28.7588 317.237 28.7588 332.575C28.7588 337.521 29.4975 342.298 30.8655 346.796C33.4647 355.349 38.3511 362.906 44.8135 368.761C43.5659 364.454 42.9038 359.896 42.9038 355.19C42.9038 354.884 42.9093 354.572 42.9147 354.265C43.1993 338.873 50.6138 325.22 61.99 316.471C70.2253 310.14 80.5344 306.375 91.7191 306.375C95.6862 306.375 99.544 306.851 103.243 307.743C104.644 308.082 106.023 308.482 107.374 308.941C111.965 310.145 116.704 310.971 121.569 311.387C123.982 311.595 126.422 311.699 128.885 311.699C133.021 311.699 137.093 311.404 141.071 310.829C155.818 308.695 169.344 302.763 180.611 294.052ZM192.458 186.659C194.948 186.659 196.961 188.679 196.961 191.163C196.961 193.653 194.942 195.666 192.458 195.666C189.968 195.666 187.954 193.647 187.954 191.163C187.954 188.679 189.968 186.659 192.458 186.659ZM200.786 214.9C203.276 214.9 205.29 216.919 205.29 219.404C205.29 221.893 203.27 223.907 200.786 223.907C198.296 223.907 196.283 221.888 196.283 219.404C196.283 216.919 198.296 214.9 200.786 214.9ZM198.838 200.181C201.328 200.181 203.342 202.2 203.342 204.684C203.342 207.174 201.322 209.187 198.838 209.187C196.348 209.187 194.335 207.168 194.335 204.684C194.335 202.194 196.354 200.181 198.838 200.181Z" fill="url(#paint1_linear)"/>
<path fill-rule="evenodd" clip-rule="evenodd" d="M140.321 350.654C196.606 349.811 241.968 303.918 241.968 247.437C241.968 209.078 221.049 175.612 189.996 157.811C187.862 156.657 185.695 155.568 183.49 154.534C204.858 169.899 218.767 194.971 218.767 223.3C218.767 252.881 203.594 278.917 180.6 294.052C169.334 302.763 155.812 308.695 141.055 310.824C137.076 311.398 133.005 311.694 128.869 311.694C126.401 311.694 123.96 311.59 121.553 311.382C116.693 310.966 111.949 310.14 107.358 308.936C105.968 308.569 104.589 308.17 103.227 307.738C99.5334 306.846 95.6757 306.37 91.7031 306.37C80.5129 306.37 70.2037 310.134 61.9739 316.465C50.5977 325.215 43.1832 338.867 42.8986 354.26C42.8932 354.567 42.8877 354.873 42.8877 355.185C42.8877 359.77 43.5225 364.208 44.7044 368.416C44.6935 368.038 44.6825 367.661 44.6825 367.283C44.6825 363.311 45.4103 359.502 46.74 355.995C51.2981 343.951 62.937 335.387 76.5786 335.387C80.9178 335.387 85.0546 336.252 88.8248 337.822C90.4938 338.517 92.0861 339.349 93.5963 340.301C100.332 343.579 107.473 346.145 114.931 347.907C117.695 348.558 120.502 349.1 123.347 349.527C128.365 350.276 133.503 350.665 138.729 350.665C139.271 350.665 139.796 350.66 140.321 350.654Z" fill="url(#paint2_linear)"/>
<path fill-rule="evenodd" clip-rule="evenodd" d="M44.7152 368.416C44.748 368.531 44.7809 368.646 44.8137 368.755C44.7809 368.646 44.748 368.531 44.7152 368.416ZM128.403 387.387C135.271 388.793 142.384 389.538 149.667 389.538C175.052 389.538 198.34 380.553 216.524 365.587C232.814 350.451 245.175 331.157 251.922 309.384C253.892 301.335 254.937 292.925 254.937 284.268C254.937 271.458 252.65 259.179 248.458 247.819C248.464 248.208 248.464 248.596 248.464 248.985C248.464 288.919 224.009 323.135 189.257 337.483C174.751 345.636 158.078 350.391 140.321 350.654C139.796 350.659 139.271 350.665 138.74 350.665C133.514 350.665 128.376 350.276 123.358 349.527C120.513 349.1 117.706 348.564 114.942 347.907C107.484 346.145 100.343 343.579 93.6072 340.301C91.993 339.513 90.4006 338.687 88.8356 337.822C85.0654 336.252 80.9286 335.387 76.5893 335.387C70.6249 335.387 65.0381 337.023 60.2665 339.874C54.1215 343.54 49.3172 349.215 46.7508 355.994C45.4211 359.502 44.6934 363.31 44.6934 367.283L44.7152 368.416C44.7207 368.503 44.7207 368.591 44.7262 368.678C44.7535 368.706 44.7864 368.733 44.8137 368.755C44.9943 368.919 45.1803 369.083 45.3609 369.248C50.8602 364.115 58.2419 360.968 66.3568 360.968C66.417 360.968 66.4772 360.968 66.5428 360.968C67.9218 360.974 69.2789 361.078 70.6085 361.258C75.4676 361.932 79.9656 363.737 83.8233 366.402C84.77 367.053 85.6728 367.759 86.5374 368.509C90.4498 371.442 94.5703 374.112 98.8822 376.492C101.153 377.745 103.473 378.916 105.842 380C112.972 383.278 120.529 385.773 128.403 387.387Z" fill="url(#paint3_linear)"/>
<path fill-rule="evenodd" clip-rule="evenodd" d="M66.3562 360.974C58.2413 360.974 50.8542 364.115 45.3604 369.253C67.8446 388.427 97.0101 400 128.879 400C149.782 400 169.524 395.021 186.985 386.178C176.846 390.61 165.639 393.073 153.864 393.073C140.474 393.073 127.828 389.893 116.638 384.246C112.944 383.026 109.344 381.609 105.842 380.006C103.473 378.922 101.152 377.746 98.8816 376.498C94.5752 374.123 90.4493 371.453 86.5368 368.514C85.6723 367.765 84.7694 367.059 83.8228 366.408C79.965 363.743 75.4671 361.937 70.608 361.264C69.24 361.204 67.8829 361.111 66.5423 360.974H66.3562Z" fill="url(#paint4_linear)"/>
<path fill-rule="evenodd" clip-rule="evenodd" d="M28.7591 332.569C28.7591 317.231 35.8288 303.551 46.8931 294.599C51.4075 290.95 56.584 288.082 62.2146 286.222C55.1941 277.62 50.9861 266.638 50.9861 254.665C50.9861 252.126 51.1777 249.631 51.5388 247.196C42.6031 250.364 34.5101 255.951 28.4198 263.694C16.7208 277.91 9.7002 296.115 9.7002 315.967C9.7002 317.456 9.73855 318.939 9.82063 320.411C17.6784 339.409 29.9519 356.115 45.361 369.253L44.8138 368.761L44.7262 368.684C38.3076 362.846 33.454 355.316 30.8658 346.796C29.4978 342.293 28.7591 337.516 28.7591 332.569Z" fill="url(#paint5_linear)"/>
<path fill-rule="evenodd" clip-rule="evenodd" d="M62.658 167.201C63.4022 168.963 64.2449 170.67 65.1915 172.312C70.1382 180.93 77.7497 187.819 86.9043 191.858C88.223 192.279 89.5089 192.782 90.7565 193.357C99.9494 197.603 106.921 205.849 109.427 215.863L109.624 216.011C115.577 210.287 119.446 202.402 119.966 193.62C120.004 192.947 120.026 192.273 120.026 191.589C120.026 178.112 112.152 166.473 100.759 161.023C100.3 160.826 99.8454 160.618 99.3913 160.405C85.7333 153.931 76.2887 140.022 76.2887 123.907C76.2887 119.469 77.0055 115.201 78.3242 111.212C69.9302 117.308 63.643 126.123 60.7593 136.366C59.6211 140.405 59.0137 144.662 59.0137 149.067C59.0137 155.496 60.3105 161.625 62.658 167.201Z" fill="url(#paint6_linear)"/>
<path fill-rule="evenodd" clip-rule="evenodd" d="M62.6574 167.201C60.3099 161.625 59.013 155.497 59.013 149.073C59.013 144.673 59.6205 140.41 60.7586 136.372C-5.46845 97.0124 78.92 59.7046 78.92 59.7046C78.92 59.7046 44.7915 67.0753 24.5234 83.8742C13.1636 93.2915 6.15943 105.669 11.9597 121.374C16.9392 134.856 31.3578 150.796 60.5617 169.417C62.0664 170.375 63.6095 171.343 65.1909 172.317C64.2443 170.665 63.4016 168.958 62.6574 167.201Z" fill="url(#paint7_linear)"/>
<path fill-rule="evenodd" clip-rule="evenodd" d="M11.9595 121.368C6.15923 105.663 13.1689 93.2859 24.5232 83.8687C15.9377 72.7387 45.8747 0 45.8747 0C45.8747 0 -14.8257 72.2626 11.9595 121.368Z" fill="url(#paint8_linear)"/>
<path fill-rule="evenodd" clip-rule="evenodd" d="M11.3254 149.27C2.58664 163.989 13.0435 183.404 30.8383 183.404C32.2665 183.404 33.6618 183.272 35.0134 183.021C24.4744 194.238 16.2009 207.059 10.3568 220.81C21.7111 197.056 46.8985 187.612 46.8985 187.612C7.97105 165.68 9.5415 153.056 11.3254 149.27Z" fill="#BB2774"/>
<path fill-rule="evenodd" clip-rule="evenodd" d="M28.4196 263.694C34.5044 255.945 42.6029 250.359 51.5386 247.196C60.7479 243.929 70.8491 243.24 80.5563 245.406L80.5673 245.401C80.5673 245.401 4.46331 225.122 0.271794 263.929C0.189714 265.319 0.13503 266.709 0.102198 268.104C0.10767 268.274 0.113091 268.449 0.118563 268.618L0.0912433 268.629C-0.269906 286.025 2.88743 303.65 9.82587 320.411C9.74927 318.939 9.70544 317.456 9.70544 315.967C9.69997 296.121 16.726 277.91 28.4196 263.694Z" fill="url(#paint9_linear)"/>
<path fill-rule="evenodd" clip-rule="evenodd" d="M99.3858 160.405C85.7278 153.931 76.2832 140.022 76.2832 123.907C76.2832 119.469 77 115.201 78.3188 111.212C78.3188 111.212 60.7867 136.832 72.0479 152.979C83.3147 169.127 110.762 174.648 109.613 216.011C115.566 210.287 119.435 202.402 119.955 193.62C119.993 192.947 120.015 192.273 120.015 191.589C120.015 178.112 112.141 166.473 100.748 161.023L99.3858 160.405Z" fill="#C42880"/>
<path fill-rule="evenodd" clip-rule="evenodd" d="M78.9202 59.6992C78.9202 59.6992 -32.8937 95.256 59.0132 149.067C59.0132 144.668 59.6207 140.405 60.7588 136.367C-5.46825 97.007 78.9202 59.6992 78.9202 59.6992Z" fill="url(#paint10_linear)"/>
<path fill-rule="evenodd" clip-rule="evenodd" d="M45.8755 0C45.8755 0 2.1874 73.2804 15.5335 93.3953C17.9576 89.9316 21.0328 86.7633 24.524 83.8687C15.9385 72.7442 45.8755 0 45.8755 0Z" fill="url(#paint11_linear)"/>
<path fill-rule="evenodd" clip-rule="evenodd" d="M35.5607 307.705C15.8178 281.401 51.5388 247.196 51.5388 247.196C42.6031 250.364 34.5101 255.951 28.4198 263.694C16.7208 277.91 9.7002 296.115 9.7002 315.967C9.7002 317.456 9.73855 318.939 9.82063 320.411C17.6784 339.409 29.9519 356.115 45.361 369.253L44.8138 368.761C44.7864 368.733 44.7536 368.706 44.7262 368.684C38.3076 362.846 33.454 355.316 30.8658 346.796C29.4978 342.298 28.7591 337.521 28.7591 332.575C28.7591 323.491 31.2378 314.988 35.5607 307.705Z" fill="url(#paint12_linear)"/>
<path fill-rule="evenodd" clip-rule="evenodd" d="M87.8614 284.755C76.4195 284.755 72.4031 282.846 62.2143 286.222C56.5837 288.088 51.4072 290.95 46.8929 294.599C42.384 298.249 38.5317 302.687 35.5604 307.699C31.243 314.982 28.7588 323.486 28.7588 332.564C28.7588 337.51 29.4975 342.287 30.8655 346.785C33.4537 355.3 38.3073 362.829 44.7259 368.673L44.715 368.411C15.1773 300.958 91.15 296.93 91.15 296.93C91.15 296.93 132.452 295.426 174.51 253.374C216.567 211.316 154.088 145.976 154.088 145.976C165.946 160.613 173.049 179.256 173.049 199.562C173.049 246.616 113.481 284.755 87.8614 284.755Z" fill="url(#paint13_linear)"/>
<path fill-rule="evenodd" clip-rule="evenodd" d="M128.879 311.694C126.411 311.694 123.971 311.59 121.563 311.382C116.704 310.966 111.96 310.14 107.369 308.936C105.979 308.569 104.6 308.17 103.238 307.738C99.5441 306.846 95.6864 306.37 91.7137 306.37C80.5236 306.37 70.2144 310.134 61.9846 316.465C50.6084 325.215 43.1939 338.868 42.9094 354.26L42.8984 355.185C42.8984 359.77 43.5332 364.208 44.7151 368.416L44.6933 367.283C44.6933 366.605 44.7151 365.937 44.7534 365.27C45.1474 318.156 92.7261 322.775 114.362 325.341C136.518 327.967 187.96 321.959 224.381 268.64C250.072 231.032 219.183 189.713 198.745 168.624C211.238 183.371 218.773 202.457 218.773 223.3C218.773 252.881 203.599 278.917 180.606 294.052C169.339 302.764 155.818 308.695 141.06 310.824C137.087 311.398 133.016 311.694 128.879 311.694Z" fill="url(#paint14_linear)"/>
<path fill-rule="evenodd" clip-rule="evenodd" d="M248.463 248.98C248.463 288.914 224.009 323.13 189.256 337.478C174.75 345.631 158.077 350.386 140.321 350.649L138.739 350.659C133.514 350.659 128.375 350.271 123.358 349.521C120.512 349.094 117.705 348.558 114.942 347.902C107.483 346.14 100.343 343.573 93.6066 340.296C91.9924 339.508 90.4 338.681 88.835 337.817C85.0648 336.246 80.928 335.382 76.5888 335.382C62.9472 335.382 51.3084 343.945 46.7502 355.989C45.6504 358.9 44.9609 362.014 44.7584 365.264C44.7147 365.932 44.6982 366.605 44.6982 367.278L44.7201 368.41C44.7529 368.525 44.7858 368.64 44.8186 368.75L45.3658 369.242C54.6079 335.053 83.0566 356.12 119.856 364.383C156.654 372.646 203.965 345.986 227.62 328.711C251.275 311.436 248.463 247.809 248.463 247.809V248.98Z" fill="url(#paint15_linear)"/>
<path fill-rule="evenodd" clip-rule="evenodd" d="M45.3604 369.253C45.3604 369.253 64.266 368.657 88.6764 381.986C112.753 395.136 147.297 402.742 185.421 386.846C185.404 386.851 185.393 386.856 185.382 386.862C175.67 390.867 165.027 393.073 153.869 393.073C140.479 393.073 127.834 389.893 116.644 384.246C112.95 383.026 109.349 381.609 105.847 380.006C103.478 378.922 101.158 377.746 98.887 376.498C94.5806 374.123 90.4547 371.453 86.5423 368.514C85.6777 367.765 84.7749 367.059 83.8282 366.408C79.9705 363.743 75.4725 361.937 70.6134 361.264C69.2455 361.204 67.8884 361.111 66.5478 360.974H66.3617C58.2413 360.974 50.8597 364.12 45.3604 369.253Z" fill="url(#paint16_linear)"/>
<path fill-rule="evenodd" clip-rule="evenodd" d="M65.9405 206.812L84.3865 218.068C84.3865 218.068 58.4385 221.51 65.9405 206.812Z" fill="#FDFDFF"/>
<defs>
<linearGradient id="paint0_linear" x1="98.9425" y1="208.234" x2="-7.53891" y2="239.694" gradientUnits="userSpaceOnUse">
<stop stop-color="#DC1780"/>
<stop offset="1" stop-color="#B93E7C"/>
</linearGradient>
<linearGradient id="paint1_linear" x1="171.681" y1="203.403" x2="77.4165" y2="357.224" gradientUnits="userSpaceOnUse">
<stop stop-color="#E9B336"/>
<stop offset="0.4" stop-color="#DF5861"/>
<stop offset="1" stop-color="#B93E7C"/>
</linearGradient>
<linearGradient id="paint2_linear" x1="213.729" y1="221.43" x2="80.4142" y2="354.238" gradientUnits="userSpaceOnUse">
<stop stop-color="#E9B336"/>
<stop offset="0.43" stop-color="#DF5861"/>
<stop offset="1" stop-color="#B93E7C"/>
</linearGradient>
<linearGradient id="paint3_linear" x1="253.902" y1="301.507" x2="70.3598" y2="371.336" gradientUnits="userSpaceOnUse">
<stop stop-color="#E9B336"/>
<stop offset="0.47" stop-color="#DF5861"/>
<stop offset="1" stop-color="#B93E7C"/>
</linearGradient>
<linearGradient id="paint4_linear" x1="68.4484" y1="376.596" x2="173.734" y2="392.737" gradientUnits="userSpaceOnUse">
<stop stop-color="#B93E7C"/>
<stop offset="0.43" stop-color="#DF5861"/>
<stop offset="1" stop-color="#E9B336"/>
</linearGradient>
<linearGradient id="paint5_linear" x1="54.4851" y1="244.265" x2="36.918" y2="304.502" gradientUnits="userSpaceOnUse">
<stop stop-color="#D83170"/>
<stop offset="1" stop-color="#E67654"/>
</linearGradient>
<linearGradient id="paint6_linear" x1="71.9278" y1="141.609" x2="107.789" y2="203.688" gradientUnits="userSpaceOnUse">
<stop stop-color="#DC1780"/>
<stop offset="0.1915" stop-color="#D42081"/>
<stop offset="0.6582" stop-color="#C63284"/>
<stop offset="1" stop-color="#C13885"/>
</linearGradient>
<linearGradient id="paint7_linear" x1="52.2266" y1="147.912" x2="43.6476" y2="79.9635" gradientUnits="userSpaceOnUse">
<stop stop-color="#D83170"/>
<stop offset="1" stop-color="#E67654"/>
</linearGradient>
<linearGradient id="paint8_linear" x1="28.5235" y1="29.3994" x2="4.80859" y2="122.776" gradientUnits="userSpaceOnUse">
<stop stop-color="#FAC82A"/>
<stop offset="1" stop-color="#E67654"/>
</linearGradient>
<linearGradient id="paint9_linear" x1="4.21535" y1="291.451" x2="48.0343" y2="242.783" gradientUnits="userSpaceOnUse">
<stop stop-color="#B93E7C"/>
<stop offset="0.8855" stop-color="#B93E7C"/>
<stop offset="1" stop-color="#B93E7C"/>
</linearGradient>
<linearGradient id="paint10_linear" x1="55.3659" y1="97.7354" x2="74.278" y2="148.369" gradientUnits="userSpaceOnUse">
<stop stop-color="#D83170"/>
<stop offset="1" stop-color="#D83170"/>
</linearGradient>
<linearGradient id="paint11_linear" x1="34.7081" y1="26.219" x2="12.6035" y2="100.008" gradientUnits="userSpaceOnUse">
<stop stop-color="#FAC82A"/>
<stop offset="1" stop-color="#E67654"/>
</linearGradient>
<linearGradient id="paint12_linear" x1="35.6852" y1="312.875" x2="53.0819" y2="264.959" gradientUnits="userSpaceOnUse">
<stop stop-color="#E67654"/>
<stop offset="1" stop-color="#D83170"/>
</linearGradient>
<linearGradient id="paint13_linear" x1="36.0304" y1="337.7" x2="181.02" y2="181.723" gradientUnits="userSpaceOnUse">
<stop stop-color="#B93E7C"/>
<stop offset="0.45" stop-color="#DF5861"/>
<stop offset="1" stop-color="#E9B336"/>
</linearGradient>
<linearGradient id="paint14_linear" x1="65.3148" y1="361.606" x2="217.471" y2="215.128" gradientUnits="userSpaceOnUse">
<stop stop-color="#B93E7C"/>
<stop offset="0.4" stop-color="#DF5265"/>
<stop offset="1" stop-color="#E9B336"/>
</linearGradient>
<linearGradient id="paint15_linear" x1="66.3891" y1="366.929" x2="260.166" y2="281.478" gradientUnits="userSpaceOnUse">
<stop stop-color="#B93E7C"/>
<stop offset="0.29" stop-color="#DF5861"/>
<stop offset="1" stop-color="#E9B336"/>
</linearGradient>
<linearGradient id="paint16_linear" x1="52.2992" y1="369.467" x2="168.743" y2="390.943" gradientUnits="userSpaceOnUse">
<stop stop-color="#B93E7C"/>
<stop offset="0.43" stop-color="#DF5861"/>
<stop offset="1" stop-color="#E9B336"/>
</linearGradient>
</defs>
</svg>
