<svg width="136" height="136" viewBox="0 0 136 136" fill="none" xmlns="http://www.w3.org/2000/svg">
<path d="M123.732 56.2138C123.732 66.0576 120.48 75.3888 114.482 82.9971C115.831 81.9367 117.125 80.7835 118.358 79.5512C121.741 76.1677 124.496 72.3256 126.563 68.1632C126.698 66.6308 126.762 65.0865 126.765 63.5355C126.765 56.5628 125.442 49.7654 122.832 43.3305C120.27 37.0102 116.569 31.3052 111.818 26.3623C119.511 34.4511 123.732 45.0096 123.732 56.2138Z" fill="black"/>
<path d="M53.597 22.1121C61.2053 16.1138 70.5365 12.8618 80.3769 12.8584C91.5845 12.8618 102.141 17.0848 110.235 24.7774C110.503 25.0337 110.77 25.2916 111.034 25.558C111.299 25.8243 111.562 26.0924 111.82 26.3638C119.509 34.4526 123.732 45.0111 123.732 56.2153C123.732 66.0591 120.48 75.3903 114.482 82.9986C113.096 84.091 111.655 85.0958 110.163 86.0011C114.236 79.2948 116.41 71.5819 116.41 63.537C116.41 51.9585 111.901 41.0696 103.711 32.8797C95.5244 24.6931 84.6354 20.1834 73.0535 20.1801C65.0086 20.1801 57.2992 22.3582 50.5962 26.4346C51.5032 24.9426 52.5046 23.4962 53.597 22.1121Z" fill="black"/>
<path d="M35.0779 25.5567C36.3069 24.3277 37.5848 23.1627 38.9133 22.0703C35.4421 26.2715 32.6554 30.9363 30.602 36.0056C27.9906 42.4439 26.6672 49.2413 26.6689 56.2174C26.6689 63.1901 27.9889 69.9892 30.5986 76.4258C33.1679 82.7461 36.8683 88.451 41.6191 93.394C41.8753 93.662 42.1333 93.9284 42.3996 94.1931C42.666 94.4577 42.934 94.7207 43.2055 94.9804C48.1484 99.7311 53.8534 103.432 60.1703 105.997C66.6052 108.607 73.406 109.927 80.3787 109.927C87.3514 109.927 94.1505 108.607 100.59 105.994C105.658 103.941 110.325 101.154 114.522 97.6794C113.43 99.0096 112.267 100.286 111.036 101.515C105.911 106.64 99.9346 110.612 93.2687 113.314C86.8338 115.924 80.0297 117.247 73.057 117.247C66.0843 117.247 59.2869 115.924 52.8519 113.314C46.1861 110.612 40.2063 106.641 35.0779 101.515C29.9529 96.3897 25.9844 90.41 23.2803 83.7441C20.6706 77.3092 19.3472 70.5118 19.3472 63.5391C19.3438 56.5647 20.6706 49.7639 23.2803 43.3273C25.9827 36.6614 29.9529 30.6817 35.0779 25.5567Z" fill="black"/>
<path d="M123.732 56.2138C123.732 66.0576 120.48 75.3888 114.482 82.9971C115.831 81.9367 117.125 80.7835 118.358 79.5512C121.741 76.1677 124.496 72.3256 126.563 68.1632C126.698 66.6308 126.762 65.0865 126.765 63.5355C126.765 56.5628 125.442 49.7654 122.832 43.3305C120.27 37.0102 116.569 31.3052 111.818 26.3623C119.511 34.4511 123.732 45.0096 123.732 56.2138Z" fill="black"/>
<path d="M43.2036 94.9783C51.2924 102.668 61.8475 106.894 73.0551 106.891C79.8525 106.891 86.4088 105.34 92.3228 102.403C97.6822 101.951 102.905 100.695 107.909 98.6703C111.348 97.2778 114.603 95.5464 117.649 93.4863C116.682 94.9345 115.637 96.3287 114.519 97.6774C110.321 101.15 105.656 103.939 100.587 105.992C94.1486 108.603 87.3479 109.925 80.3751 109.925C73.4024 109.925 66.6033 108.605 60.1667 105.995C53.8532 103.43 48.1482 99.7274 43.2036 94.9783Z" fill="black"/>
<path d="M38.9133 22.0701C40.262 20.9524 41.6562 19.9071 43.1044 18.9395C41.0476 21.9892 39.3163 25.2429 37.9237 28.6837C35.8923 33.6924 34.6414 38.9203 34.1879 44.2847C31.2511 50.1919 29.7001 56.7432 29.7001 63.5338C29.7001 74.7448 33.9266 85.2983 41.6191 93.3921C36.8684 88.4491 33.1679 82.7442 30.5987 76.4239C27.989 69.989 26.669 63.1882 26.669 56.2155C26.6656 49.2411 27.989 42.4437 30.6021 36.0037C32.6554 30.9377 35.4421 26.2713 38.9133 22.0701Z" fill="black"/>
<path d="M43.1045 18.9405C46.1542 16.8837 49.4079 15.1524 52.8488 13.7598C57.8575 11.7284 63.0853 10.4775 68.4463 10.0273C64.2772 12.0942 60.4284 14.8489 57.0432 18.2358C55.8108 19.4682 54.6594 20.7629 53.5973 22.1116C52.5049 23.4974 51.5034 24.9422 50.5981 26.4341C49.1062 27.3394 47.6614 28.3408 46.2756 29.4333C44.9269 30.4937 43.6322 31.6468 42.3998 32.8792C39.0129 36.2661 36.2549 40.1166 34.188 44.2857C34.6398 38.9213 35.8924 33.6934 37.9238 28.6848C39.3164 25.2439 41.0478 21.9885 43.1045 18.9405Z" fill="black"/>
<path d="M57.0426 18.2345C60.4295 14.8476 64.2766 12.0929 68.4457 10.0261C69.9714 9.8912 71.5106 9.82715 73.0582 9.82715C80.031 9.82715 86.8283 11.1505 93.2633 13.7603C99.5869 16.3261 105.292 20.0266 110.235 24.7773C102.143 17.0848 91.5842 12.8617 80.3766 12.8583C70.5362 12.8617 61.205 16.1137 53.5967 22.112C54.6571 20.7633 55.8085 19.4686 57.0426 18.2345Z" fill="black"/>
<path d="M118.357 79.5511C121.741 76.1675 124.496 72.3255 126.563 68.1631C126.111 73.5224 124.858 78.7435 122.833 83.7455C121.441 87.1846 119.71 90.44 117.649 93.4864C114.603 95.5465 111.348 97.2779 107.909 98.6704C102.905 100.695 97.6821 101.951 92.3228 102.403C96.4868 100.336 100.331 97.578 103.714 94.1944C104.946 92.9621 106.098 91.6673 107.16 90.3186C108.252 88.9329 109.257 87.4915 110.163 85.9995C111.654 85.0942 113.096 84.0894 114.482 82.997C115.83 81.9366 117.125 80.7834 118.357 79.5511Z" fill="black"/>
<path d="M80.3297 112.175C75.3278 126.597 76.921 135.836 76.9496 135.999C76.9462 135.997 76.9378 135.992 76.9243 135.986C76.9176 135.982 76.9108 135.977 76.9024 135.974C75.992 135.458 62.7024 127.533 65.474 108.113C66.826 98.2207 63.2908 88.5894 59.9831 83.493C56.6755 78.395 59.796 71.8252 59.0997 67.8162C58.4052 63.809 56.4731 58.1074 56.4731 58.1074L61.4397 60.3209L58.4608 51.3488L64.5636 54.5182L62.3264 47.3887L74.5961 62.5985C74.5961 62.5985 72.477 70.7446 82.2786 67.0525C82.2786 67.0525 84.6624 79.7791 72.3438 79.651C72.3438 79.651 69.724 73.4504 66.445 74.204C66.445 74.204 66.998 79.157 71.4436 83.2317C71.4453 83.2334 71.4453 83.2334 71.4453 83.2351C72.3135 84.0308 73.3267 84.7929 74.5169 85.4773C81.7998 89.6734 85.3789 97.6222 80.3297 112.175Z" fill="black"/>
<path d="M92.3887 55.0261L93.4424 53.057C93.4424 53.057 88.9715 45.7555 77.7066 44.2096C77.7066 44.2096 77.7066 39.1419 69.928 36.9941L71.3576 41.2897L63.402 40.6019L62.4175 45.4976L75.9195 61.8201C75.9195 61.8201 81.552 58.2966 82.8939 65.4278C82.8939 65.4278 92.6382 65.942 91.834 56.0646V56.0629L92.3887 55.0261ZM73.3857 44.803C74.4528 44.8856 75.2755 45.705 77.248 46.1989C77.248 46.1989 76.1589 46.6103 77.6458 49.7308C77.6458 49.7308 76.105 49.4847 73.9656 47.1835C72.8412 45.9747 72.4433 45.56 72.3202 45.4386C72.3286 45.3189 72.4248 44.7272 73.3857 44.803Z" fill="black"/>
<path d="M80.3297 112.175C75.3278 126.597 76.921 135.836 76.9496 135.999C76.9462 135.997 76.9378 135.992 76.9243 135.986C76.9176 135.982 76.9108 135.977 76.9024 135.974C76.25 135.584 67.7583 127.776 73.1379 113.105C78.6355 98.1077 71.8617 84.0848 71.4453 83.2334C72.3135 84.0291 73.3267 84.7911 74.5169 85.4756C81.7998 89.6734 85.3789 97.6222 80.3297 112.175Z" fill="black"/>
<path d="M53.0471 116.069C51.6276 108.975 38.8893 105.993 38.3212 96.7713C36.2088 63.1097 53.0791 57.833 53.327 57.7588H53.3287C53.3287 57.7588 53.3287 57.7588 53.3287 57.7605C46.9443 66.8405 42.9724 82.4448 49.4984 92.5179C56.0277 102.589 53.0471 116.069 53.0471 116.069Z" fill="black"/>
<path d="M53.0472 116.069C52.3881 103.779 48.1161 102.331 44.4207 95.1863C34.5972 76.1934 53.0624 57.9777 53.3288 57.7568H53.3304C53.3304 57.7568 53.3304 57.7568 53.3304 57.7585C46.9461 66.8386 42.9742 82.4429 49.5002 92.5159C56.0278 102.589 53.0472 116.069 53.0472 116.069Z" fill="black"/>
<path d="M61.4718 114.986C61.4685 115.001 61.4651 115.009 61.4651 115.009C62.0905 106.406 53.491 97.2453 50.2625 84.7379C47.0341 72.2322 54.6964 63.083 54.6964 63.083C54.6964 63.083 53.9158 67.3971 54.2783 72.9807C54.5362 76.9728 55.3791 81.614 57.5101 85.7932C65.5179 101.505 61.6674 114.363 61.4718 114.986Z" fill="black"/>
<path d="M61.4717 114.985C62.9822 106.5 55.4043 96.4915 53.5094 83.7261C52.9024 79.6464 53.3677 76.0218 54.2781 72.9805C54.536 76.9726 55.379 81.6138 57.5099 85.793C65.5177 101.505 61.6672 114.363 61.4717 114.985Z" fill="black"/>
<path d="M68.2689 31.7747C68.2403 32.3293 68.1964 32.8401 68.1408 33.3155C68.1408 33.3206 68.1391 33.324 68.1391 33.3273C67.5288 38.4355 65.3895 39.0609 63.7913 38.7558C63.3563 38.6715 62.9483 38.5147 62.5791 38.2939C62.1509 38.041 61.7733 37.7055 61.4665 37.3144C59.8514 35.2526 53.7351 28.9188 39.5537 28.7755C22.6091 28.6036 21.3194 19.7039 13.4229 15.7506C13.4229 15.7506 18.8075 14.9734 28.4068 21.3206C34.518 25.3616 51.5857 23.3791 59.7048 32.1944C59.7065 32.1978 59.7081 32.1978 59.7081 32.1995C59.6491 32.0646 55.8323 23.6539 44.6382 22.349C31.0704 20.766 29.7454 14.208 29.7454 14.208C29.7454 14.208 36.7922 18.8357 43.6587 18.8357C50.5219 18.8374 68.805 21.3223 68.2689 31.7747Z" fill="black"/>
<path d="M68.2691 31.7749C68.2405 32.3296 68.1967 32.8404 68.141 33.3158C68.141 33.3209 68.1393 33.3242 68.1393 33.3276C68.1376 33.3175 68.136 33.3107 68.1343 33.3006C66.8952 25.4884 55.5493 20.8708 47.0408 20.6516C36.0945 20.3701 29.7422 14.21 29.7422 14.21C29.7422 14.21 36.7891 18.8376 43.6556 18.8376C50.5221 18.8376 68.8052 21.3226 68.2691 31.7749Z" fill="black"/>
<path d="M59.7081 32.2024C44.9889 24.0681 34.6782 29.4898 26.8474 23.215C21.6785 19.0729 13.4229 15.7518 13.4229 15.7518C13.4229 15.7518 18.8075 14.9746 28.4068 21.3218C34.518 25.3628 51.5857 23.3803 59.7048 32.1956C59.7064 32.2007 59.7081 32.2024 59.7081 32.2024Z" fill="black"/>
<path d="M68.1407 33.3154C68.1407 33.3205 68.139 33.3239 68.139 33.3273C67.5288 38.4354 65.3894 39.0609 63.7912 38.7557C63.3563 38.6714 62.9483 38.5146 62.5791 38.2938C62.4644 37.7796 62.3919 37.1575 62.3683 36.409C62.1104 27.946 55.3501 24.4883 55.3501 24.4883C63.0275 25.4206 66.5493 29.8915 68.1357 33.3003C68.1374 33.3053 68.1391 33.3104 68.1407 33.3154Z" fill="black"/>
<path d="M61.3251 45.1764L58.9986 44.2188C58.9986 44.2188 59.6848 50.1581 54.2108 53.5837C48.7385 57.0094 36.8532 62.0333 33.7327 100.447L33.7293 100.441C33.559 100.088 25.976 84.2512 34.5082 63.8709C35.6647 61.6489 37.2595 59.8197 39.0431 58.2266C45.3988 52.552 54.1518 49.8715 54.0169 43.1179L50.9942 41.1657C50.9942 41.1657 50.7919 47.5265 46.4542 49.8142C42.1148 52.1019 29.8012 59.4978 23.5416 86.431C23.5416 86.431 13.7316 61.632 36.693 46.3447C36.398 46.4458 26.9235 49.7821 19.059 61.8074C19.0573 61.8091 19.0573 61.8107 19.0573 61.8107C19.0573 61.8107 21.082 46.461 38.2963 40.1879C38.2491 40.1947 37.8411 40.2486 37.1364 40.3683C33.5995 40.9634 22.6043 43.1719 12.624 48.9207C8.16998 51.4865 3.91825 54.7571 0.620704 58.906C0.539783 59.0089 0.458851 59.11 0.37793 59.2145C0.457165 58.9026 5.62264 38.9168 19.6557 34.0042C19.6557 34.0042 45.9181 22.3987 62.5423 40.1795L61.3251 45.1764Z" fill="black"/>
<path d="M62.544 40.1735L61.3251 45.1771C61.3251 45.1771 58.2518 38.7354 40.5587 35.8998C14.8139 32.0392 2.77692 55.6985 0.622392 58.9017C0.516183 59.0585 0.435249 59.1647 0.37793 59.2136C0.379616 59.2119 0.379617 59.2119 0.379617 59.2102C0.458853 58.8983 5.62432 38.9125 19.6574 33.9999C19.6591 33.9982 45.9214 22.3927 62.544 40.1735Z" fill="black"/>
<path d="M49.2224 40.3744C45.7546 39.2702 41.5214 39.464 37.1398 40.3643C33.6029 40.9594 22.6077 43.1679 12.6274 48.9167C28.9213 30.8948 49.6523 40.5109 49.2224 40.3744Z" fill="black"/>
<path d="M23.5432 86.4301C23.5432 86.4301 13.7332 61.6311 36.6946 46.3437C36.3996 46.4448 26.9251 49.7811 19.0605 61.8064C19.155 61.5569 24.2513 44.619 42.5024 43.1523C42.5041 43.1507 20.4413 61.6176 23.5432 86.4301Z" fill="black"/>
<path d="M39.0445 58.2275C28.4505 73.5537 33.7323 100.448 33.7323 100.448L33.729 100.441C33.5587 100.089 25.9757 84.2522 34.5078 63.8718C35.666 61.6498 37.2608 59.8207 39.0445 58.2275Z" fill="black"/>
<path d="M72.3457 79.6492C80.9419 77.6666 82.2805 67.0508 82.2805 67.0508C82.2805 67.0508 84.6643 79.7773 72.3457 79.6492Z" fill="black"/>
<path d="M82.8926 65.4274C82.8926 65.4274 91.0858 63.546 91.8327 56.0625C92.6368 65.9416 82.8926 65.4274 82.8926 65.4274Z" fill="black"/>
<path d="M77.7066 44.2096C77.7066 44.2096 77.7066 39.1419 69.928 36.9941L71.3576 41.2897L63.402 40.6019L62.4175 45.4976C78.89 61.7088 91.6671 56.1371 91.8324 56.0646C91.8324 56.0646 91.8324 56.0663 91.834 56.0646V56.0629L92.3904 55.0244L93.444 53.0553C93.4424 53.057 88.9715 45.7555 77.7066 44.2096Z" fill="black"/>
<path d="M73.9657 47.183C72.8412 45.9743 72.4434 45.5595 72.3203 45.4382C72.3304 45.3185 72.4265 44.7267 73.3858 44.8026C74.4529 44.8852 75.2756 45.7045 77.2481 46.1985C77.2481 46.1985 76.159 46.6098 77.6459 49.7304C77.6459 49.7304 76.1051 49.4842 73.9657 47.183Z" fill="black"/>
<path d="M61.202 54.8561L65.3003 65.568L56.4731 58.1064L61.4397 60.3183L58.4608 51.3461L64.5636 54.5172L62.3264 47.3877L68.967 59.8883L61.202 54.8561Z" fill="black"/>
<path d="M92.3889 55.0264L91.8325 56.0649V56.0666C91.8308 56.0683 91.8308 56.0666 91.8308 56.0666C89.9292 55.3636 90.8497 54.6387 90.8497 54.6387C91.5358 54.701 92.0331 54.8511 92.3889 55.0264Z" fill="black"/>
<path d="M113.644 83.4673C113.646 83.4656 113.649 83.464 113.652 83.4623C113.792 83.3628 116.109 81.714 118.4 79.2021C121.001 76.353 123.569 72.3946 122.889 68.3384C121.241 58.4981 129.046 54.8145 129.046 54.8145C129.115 54.9932 129.179 55.1719 129.245 55.3472C138.679 81.1021 113.644 83.4673 113.644 83.4673Z" fill="black"/>
<path d="M98.645 88.7663C98.645 88.7663 102.875 82.0482 112.381 85.0709C121.888 88.092 128.964 76.9805 128.964 76.9805C128.964 76.9805 123.488 101.874 98.645 88.7663Z" fill="black"/>
<path d="M83.3848 83.471C83.3848 83.471 90.9104 80.9422 96.3625 89.2956C101.815 97.6491 114.324 93.517 114.324 93.517C114.324 93.517 94.3361 109.335 83.3848 83.471Z" fill="black"/>
<path d="M132.124 69.7226C132.178 69.5068 134.028 62.0013 129.516 51.5524C129.444 51.3855 129.371 51.2203 129.297 51.0534C129.297 51.0534 120.711 54.2026 120.94 63.8845C121.237 76.2536 112.649 80.6149 112.649 80.6149C112.705 80.1125 117.181 70.2873 114.226 59.1118C112.064 50.9404 127.692 36.963 125.954 29.6699C125.953 29.6716 143.152 47.5738 132.124 69.7226Z" fill="black"/>
<path d="M115.569 108.136C115.569 108.136 112.127 100.983 102.339 102.912C92.5504 104.841 86.7764 92.999 86.7764 92.999C86.7764 92.999 89.4046 118.353 115.569 108.136Z" fill="black"/>
<path d="M112.061 73.7758C112.061 73.7758 107.75 72.4709 104.802 77.3009C101.853 82.1309 94.6899 80.0034 94.6899 80.0034C94.6899 80.0034 106.294 88.6299 112.061 73.7758Z" fill="black"/>
<path d="M102.025 49.4146C102.025 49.4146 102.818 44.6537 102.027 39.7849C102.029 39.7799 102.027 39.7731 102.025 39.7698C101.486 36.4419 100.204 33.0702 97.4296 31.128C89.1368 25.3321 91.4953 17.1843 91.733 16.4375C91.7448 16.4004 91.7499 16.3818 91.7499 16.3818C119.11 28.3666 102.025 49.4146 102.025 49.4146Z" fill="black"/>
<path d="M95.6256 65.3152C95.6256 65.3152 93.5065 57.1439 102.775 51.9835C112.044 46.823 108.597 33.2451 108.597 33.2451C108.597 33.2451 123.881 55.6317 95.6256 65.3152Z" fill="black"/>
<path d="M84.0518 75.5101C84.0518 75.5101 86.9059 67.5663 97.4712 68.5273C108.035 69.4899 112.841 56.3301 112.841 56.3301C112.841 56.3301 112.85 83.437 84.0518 75.5101Z" fill="black"/>
<path d="M89.0578 13.4515C88.724 14.2438 85.4433 22.5922 92.5981 29.2884C102.206 38.2791 99.119 48.0453 99.119 48.0453C98.7785 47.6289 94.6582 36.9153 83.975 30.831C76.1644 26.3837 77.1944 4.1135 70.3667 0C70.3667 0 96.7656 0.283221 105.358 25.1564C105.358 25.1564 100.947 17.7943 89.0831 13.3908C89.0831 13.3908 89.0747 13.411 89.0578 13.4515Z" fill="black"/>
<path d="M95.626 65.3149C95.626 65.3149 95.8418 58.1534 101.73 56.3309C107.621 54.5102 112.061 44.3799 112.061 44.3799C112.061 44.3799 112.527 60.4748 95.626 65.3149Z" fill="black"/>
<path d="M99.1691 48.0234C97.4647 44.1021 96.728 40.1066 92.6786 36.0706C90.1312 33.5334 86.3549 31.4109 84.6235 28.2331C82.705 24.7147 83.1552 21.0564 83.8177 17.103C83.9762 16.1539 84.2139 15.2182 84.5308 14.3096C84.9894 16.8822 85.453 19.4717 86.3515 21.9263C87.1793 24.1887 88.3527 26.5557 90.2813 28.0797C91.195 28.8029 92.2622 29.1552 93.1607 29.8987C94.2077 30.7636 95.1298 31.8088 95.9289 32.9012C99.0596 37.1816 100.361 42.8293 99.1691 48.0234Z" fill="black"/>
<path d="M105.358 25.1563C105.358 25.1563 91.9418 9.42729 82.002 9.55035C82.002 9.55035 87.7187 5.30366 96.2728 10.7406C96.2728 10.7389 103.616 17.7588 105.358 25.1563Z" fill="black"/>
<path d="M102.025 49.4142C102.025 49.4142 107.036 37.2827 96.8497 27.9566C96.8497 27.9566 92.4732 22.926 93.6803 20.8389C93.6803 20.8389 105.373 24.1533 106.818 31.1462C106.818 31.1462 109.777 39.5806 102.025 49.4142Z" fill="black"/>
<path d="M84.0518 75.5097C84.0518 75.5097 90.3687 69.4372 98.6463 70.6612C106.924 71.8851 111.847 62.8135 111.847 62.8135C111.847 62.8135 108.234 82.6223 84.0518 75.5097Z" fill="black"/>
<path d="M94.6885 80.002C96.8531 80.5955 99.2201 80.9866 101.464 80.8264C102.11 80.7809 102.76 80.6932 103.364 80.4454C104.404 80.0172 104.965 78.9636 105.652 78.1425C106.444 77.1934 107.41 76.3286 108.551 75.8279C109.376 75.4671 110.391 75.3288 111.137 75.8312C111.299 75.9408 109.635 78.3432 109.468 78.5623C108.433 79.9127 107.107 81.1602 105.493 81.8295C103.866 82.5055 101.708 82.8326 99.9854 82.3589C98.5373 81.9593 97.0757 81.4687 95.7607 80.732C95.3847 80.5196 95.0172 80.2836 94.6885 80.002Z" fill="black"/>
<path d="M112.647 80.6146C112.647 80.6146 118.079 74.0937 116.606 59.7369C116.606 59.7369 118.374 51.1475 128.963 46.4844C128.963 46.4844 138.19 53.1992 132.122 69.7206C132.122 69.7206 133.518 60.5293 129.295 51.0531C129.295 51.0531 120.731 54.1652 120.939 63.8841C121.148 73.6048 115.928 79.0367 112.647 80.6146Z" fill="black"/>
<path d="M113.652 83.4623C113.652 83.4623 123.811 78.6171 125.76 71.41C127.709 64.203 131.091 62.3418 131.091 62.3418C131.091 62.3418 135.144 80.5154 113.652 83.4623Z" fill="black"/>
<path d="M98.645 88.7653C98.645 88.7653 108.839 84.0027 113.644 87.575C118.449 91.1491 126.863 82.4922 126.863 82.4922C126.863 82.4922 119.349 100.472 98.645 88.7653Z" fill="black"/>
<path d="M83.3848 83.4707C83.3848 83.4707 92.8357 85.7584 94.6885 90.7081C96.5429 95.6595 108.123 96.902 108.123 96.902C108.123 96.902 92.6266 105.464 83.3848 83.4707Z" fill="black"/>
<path d="M86.7764 92.999C86.7764 92.999 90.7078 103.645 101.172 104.911C111.636 106.177 113.651 108.836 113.651 108.836C113.651 108.836 90.9337 118.72 86.7764 92.999Z" fill="black"/>
</svg>
