<svg width="833" height="739" viewBox="0 0 833 739" fill="none" xmlns="http://www.w3.org/2000/svg">
<path d="M752.35 339.3C752.35 401.65 731.75 460.76 693.75 508.96C702.29 502.24 710.49 494.94 718.3 487.13C739.73 465.7 757.19 441.36 770.27 414.99C771.12 405.28 771.54 395.5 771.55 385.67C771.55 341.5 763.17 298.45 746.64 257.68C730.41 217.65 706.96 181.51 676.87 150.19C725.6 201.45 752.35 268.33 752.35 339.3Z" fill="url(#paint0_linear)"/>
<path d="M308.07 123.28C356.27 85.28 415.38 64.68 477.71 64.66C548.7 64.68 615.58 91.43 666.85 140.16C668.55 141.78 670.23 143.42 671.91 145.1C673.59 146.78 675.25 148.48 676.89 150.2C725.6 201.44 752.35 268.32 752.35 339.3C752.35 401.65 731.75 460.76 693.75 508.96C684.97 515.88 675.84 522.25 666.39 527.98C692.19 485.5 705.97 436.64 705.97 385.68C705.97 312.33 677.4 243.36 625.53 191.48C573.67 139.62 504.7 111.06 431.33 111.04C380.36 111.04 331.53 124.84 289.07 150.66C294.8 141.21 301.15 132.06 308.07 123.28Z" fill="url(#paint1_linear)"/>
<path d="M190.76 145.1C198.55 137.31 206.63 129.94 215.06 123.02C193.08 149.63 175.42 179.19 162.41 211.29C145.86 252.07 137.48 295.13 137.5 339.32C137.5 383.49 145.86 426.56 162.39 467.33C178.66 507.36 202.11 543.5 232.2 574.82C233.82 576.52 235.46 578.2 237.14 579.88C238.82 581.56 240.52 583.22 242.24 584.86C273.56 614.95 309.69 638.4 349.71 654.65C390.47 671.18 433.55 679.54 477.72 679.54C521.89 679.54 564.96 671.18 605.75 654.63C637.86 641.62 667.41 623.97 694 601.96C687.08 610.38 679.71 618.47 671.92 626.26C639.46 658.72 601.6 683.89 559.37 701.01C518.61 717.54 475.51 725.92 431.34 725.92C387.17 725.92 344.12 717.54 303.35 701.01C261.12 683.89 223.24 658.74 190.76 626.26C158.3 593.8 133.15 555.92 116.03 513.69C99.5002 472.93 91.1202 429.87 91.1202 385.7C91.1002 341.51 99.5002 298.44 116.03 257.67C133.15 215.44 158.3 177.57 190.76 145.1Z" fill="url(#paint2_linear)"/>
<path d="M752.35 339.3C752.35 401.65 731.75 460.76 693.75 508.96C702.29 502.24 710.49 494.94 718.3 487.13C739.73 465.7 757.19 441.36 770.27 414.99C771.12 405.28 771.54 395.5 771.55 385.67C771.55 341.5 763.17 298.45 746.64 257.68C730.41 217.65 706.96 181.51 676.87 150.19C725.6 201.45 752.35 268.33 752.35 339.3Z" fill="url(#paint3_linear)"/>
<path d="M242.24 584.86C293.48 633.57 360.34 660.34 431.34 660.32C474.4 660.32 515.93 650.49 553.4 631.89C587.34 629.02 620.44 621.08 652.13 608.25C673.92 599.43 694.54 588.46 713.83 575.41C707.7 584.58 701.08 593.42 694 601.96C667.41 623.96 637.85 641.62 605.75 654.63C564.97 671.18 521.89 679.54 477.72 679.54C433.55 679.54 390.48 671.18 349.71 654.65C309.69 638.39 273.55 614.95 242.24 584.86Z" fill="url(#paint4_linear)"/>
<path d="M215.05 123.02C223.59 115.94 232.43 109.32 241.6 103.19C228.57 122.5 217.6 143.12 208.78 164.91C195.91 196.64 187.98 229.75 185.12 263.74C166.52 301.16 156.69 342.66 156.69 385.68C156.69 456.69 183.46 523.55 232.19 574.82C202.1 543.51 178.65 507.37 162.38 467.33C145.85 426.57 137.49 383.49 137.49 339.32C137.47 295.13 145.85 252.08 162.4 211.29C175.42 179.19 193.07 149.63 215.05 123.02Z" fill="url(#paint5_linear)"/>
<path d="M241.6 103.19C260.91 90.1599 281.53 79.19 303.32 70.37C335.05 57.5 368.16 49.57 402.13 46.73C375.72 59.82 351.34 77.27 329.89 98.72C322.08 106.53 314.79 114.73 308.06 123.27C301.14 132.05 294.79 141.2 289.06 150.65C279.61 156.38 270.46 162.73 261.68 169.65C253.14 176.37 244.94 183.67 237.13 191.48C215.68 212.93 198.2 237.33 185.12 263.74C187.99 229.76 195.91 196.64 208.78 164.91C217.6 143.13 228.58 122.51 241.6 103.19Z" fill="url(#paint6_linear)"/>
<path d="M329.9 98.73C351.35 77.28 375.73 59.82 402.14 46.74C411.81 45.89 421.55 45.47 431.36 45.47C475.53 45.47 518.58 53.85 559.35 70.38C599.4 86.63 635.54 110.08 666.86 140.17C615.6 91.44 548.72 64.69 477.72 64.67C415.39 64.69 356.28 85.29 308.08 123.29C314.79 114.74 322.09 106.53 329.9 98.73Z" fill="url(#paint7_linear)"/>
<path d="M718.31 487.14C739.74 465.71 757.2 441.37 770.28 415C767.41 448.94 759.49 482.02 746.66 513.71C737.84 535.5 726.87 556.12 713.82 575.41C694.52 588.46 673.91 599.43 652.12 608.25C620.43 621.08 587.34 629.03 553.39 631.89C579.76 618.8 604.12 601.33 625.55 579.9C633.36 572.09 640.65 563.89 647.38 555.35C654.3 546.57 660.67 537.44 666.4 527.99C675.85 522.26 684.98 515.89 693.76 508.97C702.29 502.24 710.5 494.95 718.31 487.14Z" fill="url(#paint8_linear)"/>
<path d="M529.19 594.51C529.19 594.51 488.14 568.6 488.41 519.65C488.68 470.7 477.8 452.52 477.8 452.52C477.8 452.52 516.36 474.93 515.63 500.13C514.9 525.33 517.05 536.35 517.05 536.35C517.05 536.35 504.76 528.93 501.52 514.72C498.29 500.5 491.68 531.1 529.19 594.51Z" fill="url(#paint9_linear)"/>
<path d="M506.12 532.48C506.12 532.48 510.51 556.78 530.3 586.65C530.3 586.65 524.77 489.61 563.61 419.75C563.61 419.75 522.23 371.42 543.74 276.13C543.74 276.13 469.21 382.24 500.08 464.23C500.08 464.23 519.49 476.76 520.67 492.82C521.85 508.88 524.23 557.57 524.23 557.57C524.23 557.57 521.41 561.59 506.12 532.48Z" fill="#EBEBEF"/>
<path d="M564.92 415.48C564.92 415.48 515.21 338.16 560.9 275.38C560.9 275.38 599.4 230.55 685.46 166.35C685.46 166.35 619.43 250.64 621.66 289.72C621.66 289.72 606.1 279.62 611.87 255.39C611.87 255.4 543.27 308.13 564.92 415.48Z" fill="#EBEBEF"/>
<path d="M606.38 264.76C606.38 264.76 551.26 334.97 569.02 410.89C569.02 410.89 604.4 303.86 806.97 175.23C806.97 175.23 761.97 178.36 748.68 157.23C748.68 157.23 648.88 174.36 626.83 296.03C626.83 296.04 609.54 291.45 606.38 264.76Z" fill="#EBEBEF"/>
<path d="M549.91 595.68C546.08 571.52 566.92 539.45 582.76 523.39C604.34 501.52 634.34 490.13 656.09 468.16C637.46 468.78 619.48 475.72 603.49 485.32C587.5 494.92 573.28 507.13 559.14 519.28C541.8 534.19 546.68 575.3 549.91 595.68Z" fill="#EBEBEF"/>
<path d="M632.02 467.8C634.52 466.51 636.94 465.02 639.23 463.17C647.4 456.54 655.17 449.42 663.44 442.87C681.08 428.92 699.22 415.39 714.54 398.81C707.15 406.82 684.46 409.13 674.26 410.24C659.46 411.85 646.72 412.6 632.27 417.07C606.11 425.16 577.42 439.62 566.06 466.17C559.38 481.79 553.93 502.33 553.96 519.39C564.04 510.15 574.76 501.51 585.78 493.43C594.32 487.17 603.15 481.15 612.58 476.3C619.01 472.99 625.77 471.02 632.02 467.8Z" fill="#EBEBEF"/>
<path d="M567.83 453.11C567.83 453.11 596.99 407.16 723.8 395.48C723.8 395.48 750.39 392.36 805.52 326.99C805.52 326.99 746.32 367.92 701.37 369.32C656.42 370.72 636.25 381.8 636.25 381.8C636.25 381.8 664.52 383 668.79 390.08C668.8 390.08 589.99 399.69 567.83 453.11Z" fill="#EBEBEF"/>
<path d="M565.87 445.23C565.87 445.23 585.78 401.57 654.12 389.04C654.12 389.04 629.59 383.63 625.07 385.88C625.07 385.88 629.46 374.71 674.09 366.77C718.72 358.83 777.36 367.9 806.73 297.44C806.73 297.44 771.16 329.21 755.65 328.53C755.65 328.53 813.97 293.52 825.06 259.54C825.06 259.54 829.74 232.57 822.03 213.9C822.03 213.9 823.93 195.08 832.83 191.8C832.83 191.8 827.68 191.1 815.63 205.94C809.06 214.02 798.91 220.57 788.49 221.36C793.69 213.9 799.82 206.83 804.41 197.88C808.27 190.36 814.74 182.63 823.19 182.98C786.91 183.71 758.23 211.51 732.16 233.56C702.55 258.61 674.6 285.62 648.19 314.01C628.96 334.68 610.63 356.44 595.16 380.09C581.35 401.22 576 423.01 565.87 445.23Z" fill="#EBEBEF"/>
<path d="M549.91 595.68C549.91 595.68 538.31 551.98 569.95 523C601.59 494.02 639.92 472.81 656.1 468.16C656.1 468.16 639.11 487.89 610.52 503.88C589.7 515.53 547.54 555.44 549.91 595.68Z" fill="url(#paint10_linear)"/>
<path d="M553.97 519.39C553.97 519.39 590.16 459.09 643.92 437.12C697.68 415.15 714.55 398.81 714.55 398.81C714.55 398.81 691.4 422.07 685.05 426.47C678.7 430.87 647.89 455.61 639.24 463.17C639.24 463.17 635.45 466.48 629.77 468.9C624.1 471.32 620.82 472.62 619.21 473.29C617.6 473.96 594.31 483.16 553.97 519.39Z" fill="url(#paint11_linear)"/>
<path d="M567.83 453.11C567.83 453.11 610.98 397.38 693.91 393.96C693.91 393.96 691.79 385.63 675.53 383.61C675.53 383.61 689.14 377.54 712.05 388.74C712.05 388.74 755.58 383.3 805.52 326.98C805.52 326.98 752.31 392.06 723.8 395.47C695.3 398.89 614.44 404.9 567.83 453.11Z" fill="url(#paint12_linear)"/>
<path d="M625.07 385.87C625.07 385.87 645.36 356.13 709.43 349.07C773.5 342.01 806.73 297.42 806.73 297.42C806.73 297.42 793.77 332.23 766.04 346.87C738.31 361.51 709.56 362.47 709.56 362.47C709.56 362.47 641.68 367.04 625.07 385.87Z" fill="url(#paint13_linear)"/>
<path d="M543.73 276.13C543.73 276.13 493.18 407.19 541.25 478.31C541.25 478.31 550.39 441.77 563.6 419.75C563.61 419.75 523.64 373.56 543.73 276.13Z" fill="url(#paint14_linear)"/>
<path d="M569.02 410.89C569.02 410.89 548.92 343.5 606.38 264.76C606.38 264.76 607.63 281.51 617.85 290.46C617.85 290.46 569.73 328.8 569.02 410.89Z" fill="url(#paint15_linear)"/>
<path d="M621.12 289.29C621.9 278.97 624.7 268.82 628.86 259.35C647.68 216.39 664.09 196.4 685.11 166.72C658.67 184.15 639.08 210.35 624.09 238.25C614.99 255.18 610.2 271.87 621.12 289.29Z" fill="url(#paint16_linear)"/>
<path d="M748.68 157.23C748.68 157.23 672.98 199.44 647.21 301.6C647.21 301.6 714.56 231.22 806.98 175.23C806.97 175.23 766.58 176.63 748.68 157.23Z" fill="url(#paint17_linear)"/>
<path d="M788.49 221.35C788.49 221.35 750.71 229.94 678.45 317.96C678.45 317.96 789 316.06 825.05 259.54C825.05 259.54 829.7 231.21 822.02 213.9C822.02 213.9 825.16 193.49 832.82 191.8C832.82 191.8 825.53 192.08 815.62 205.94C805.71 219.79 788.49 221.35 788.49 221.35Z" fill="url(#paint18_linear)"/>
<path d="M379.31 545.27C379.31 545.27 430.48 512.97 430.15 451.95C429.82 390.92 443.38 368.26 443.38 368.26C443.38 368.26 395.3 396.2 396.21 427.62C397.12 459.04 394.44 472.77 394.44 472.77C394.44 472.77 409.76 463.52 413.79 445.8C417.82 428.08 426.08 466.21 379.31 545.27Z" fill="url(#paint19_linear)"/>
<path d="M408.08 467.94C408.08 467.94 402.6 498.23 377.94 535.47C377.94 535.47 384.84 414.49 336.41 327.41C336.41 327.41 388 267.16 361.18 148.36C361.18 148.36 454.1 280.64 415.61 382.86C415.61 382.86 391.41 398.48 389.94 418.5C388.47 438.52 385.5 499.22 385.5 499.22C385.5 499.22 389.01 504.23 408.08 467.94Z" fill="#EBEBEF"/>
<path d="M334.76 322.08C334.76 322.08 396.73 225.68 339.77 147.42C339.77 147.42 291.77 91.54 184.49 11.49C184.49 11.49 266.81 116.58 264.02 165.3C264.02 165.3 283.42 152.71 276.23 122.5C276.23 122.51 361.76 188.25 334.76 322.08Z" fill="#EBEBEF"/>
<path d="M283.08 134.18C283.08 134.18 351.8 221.71 329.66 316.35C329.66 316.35 285.56 182.92 33.0098 22.5699C33.0098 22.5699 89.0998 26.47 105.68 0.130005C105.68 0.130005 230.1 21.4901 257.59 173.17C257.59 173.18 279.14 167.46 283.08 134.18Z" fill="#EBEBEF"/>
<path d="M353.48 546.73C358.25 516.61 332.28 476.63 312.52 456.6C285.62 429.33 248.21 415.14 221.1 387.75C244.33 388.52 266.75 397.17 286.67 409.14C306.59 421.1 324.33 436.33 341.95 451.48C363.59 470.07 357.5 521.32 353.48 546.73Z" fill="#EBEBEF"/>
<path d="M251.12 387.3C248 385.69 244.98 383.84 242.13 381.52C231.94 373.25 222.25 364.37 211.94 356.22C189.95 338.82 167.33 321.97 148.24 301.29C157.46 311.27 185.74 314.15 198.45 315.54C216.9 317.55 232.78 318.49 250.79 324.06C283.41 334.15 319.17 352.18 333.33 385.28C341.66 404.76 348.45 430.36 348.42 451.63C335.85 440.11 322.49 429.33 308.75 419.26C298.11 411.46 287.09 403.95 275.34 397.9C267.34 393.77 258.91 391.31 251.12 387.3Z" fill="#EBEBEF"/>
<path d="M331.14 368.99C331.14 368.99 294.78 311.7 136.69 297.14C136.69 297.14 103.54 293.26 34.8101 211.75C34.8101 211.75 108.61 262.78 164.64 264.53C220.67 266.28 245.82 280.09 245.82 280.09C245.82 280.09 210.58 281.59 205.26 290.42C205.26 290.41 303.51 302.39 331.14 368.99Z" fill="#EBEBEF"/>
<path d="M333.58 359.16C333.58 359.16 308.76 304.73 223.56 289.11C223.56 289.11 254.14 282.37 259.78 285.17C259.78 285.17 254.31 271.24 198.67 261.34C143.03 251.44 69.93 262.75 33.32 174.91C33.32 174.91 77.67 214.52 97 213.67C97 213.67 24.3 170.02 10.47 127.67C10.47 127.67 4.63002 94.05 14.24 70.77C14.24 70.77 11.87 47.31 0.77002 43.22C0.77002 43.22 7.19002 42.35 22.22 60.84C30.41 70.91 43.07 79.0801 56.05 80.0601C49.57 70.7601 41.92 61.94 36.21 50.79C31.4 41.41 23.33 31.78 12.79 32.22C58.02 33.13 93.77 67.78 126.27 95.28C163.18 126.51 198.02 160.18 230.95 195.58C254.92 221.35 277.77 248.47 297.06 277.97C314.28 304.3 320.96 331.47 333.58 359.16Z" fill="#EBEBEF"/>
<path d="M353.48 546.73C353.48 546.73 367.94 492.25 328.5 456.12C289.06 419.99 241.28 393.55 221.1 387.75C221.1 387.75 242.28 412.35 277.92 432.29C303.87 446.81 356.43 496.56 353.48 546.73Z" fill="url(#paint20_linear)"/>
<path d="M348.42 451.62C348.42 451.62 303.3 376.45 236.29 349.06C169.28 321.67 148.24 301.29 148.24 301.29C148.24 301.29 177.1 330.28 185.02 335.77C192.94 341.26 231.34 372.1 242.13 381.52C242.13 381.52 246.86 385.64 253.93 388.67C261 391.69 265.08 393.3 267.09 394.15C269.1 394.99 298.12 406.46 348.42 451.62Z" fill="url(#paint21_linear)"/>
<path d="M331.14 368.99C331.14 368.99 277.35 299.52 173.96 295.25C173.96 295.25 176.6 284.86 196.87 282.34C196.87 282.34 179.91 274.77 151.34 288.74C151.34 288.74 97.0801 281.96 34.8101 211.75C34.8101 211.75 101.15 292.89 136.69 297.14C172.23 301.39 273.03 308.89 331.14 368.99Z" fill="url(#paint22_linear)"/>
<path d="M259.78 285.17C259.78 285.17 234.49 248.1 154.61 239.3C74.73 230.5 33.3101 174.91 33.3101 174.91C33.3101 174.91 49.4701 218.3 84.0401 236.56C118.61 254.82 154.45 256 154.45 256C154.45 256 239.08 261.69 259.78 285.17Z" fill="url(#paint23_linear)"/>
<path d="M361.18 148.36C361.18 148.36 424.19 311.74 364.27 400.41C364.27 400.41 352.87 354.85 336.41 327.4C336.41 327.41 386.23 269.81 361.18 148.36Z" fill="url(#paint24_linear)"/>
<path d="M329.66 316.36C329.66 316.36 354.71 232.35 283.08 134.19C283.08 134.19 281.52 155.07 268.78 166.23C268.78 166.23 328.77 214.02 329.66 316.36Z" fill="url(#paint25_linear)"/>
<path d="M264.71 164.76C263.74 151.9 260.24 139.25 255.07 127.43C231.6 73.8701 211.15 48.95 184.95 11.95C217.91 33.68 242.34 66.34 261.02 101.12C272.34 122.24 278.32 143.05 264.71 164.76Z" fill="url(#paint26_linear)"/>
<path d="M105.68 0.130005C105.68 0.130005 200.05 52.75 232.18 180.11C232.18 180.11 148.22 92.3699 33.0098 22.5699C33.0098 22.5699 83.3698 24.32 105.68 0.130005Z" fill="url(#paint27_linear)"/>
<path d="M56.05 80.0601C56.05 80.0601 103.15 90.77 193.23 200.49C193.23 200.49 55.41 198.12 10.47 127.66C10.47 127.66 4.68002 92.34 14.24 70.76C14.24 70.76 10.32 45.32 0.77002 43.21C0.77002 43.21 9.86002 43.55 22.22 60.83C34.58 78.12 56.05 80.0601 56.05 80.0601Z" fill="url(#paint28_linear)"/>
<path d="M490.9 330.74C483.25 328.45 475.36 326.65 467.27 325.4C361.84 309.02 261.76 389.78 243.73 505.78C239 536.24 240.26 559.62 245.13 593.24C238.51 585.63 224.48 574.07 224.18 565.43C224 560.13 227.64 555.71 231.36 552.5C224.2 548.11 220 539.73 221.37 530.92C222.8 521.74 229.84 514.83 238.46 513.16C230.22 509.15 225.19 500.12 226.68 490.59C228.14 481.17 235.53 474.15 244.46 472.72C239.43 468.03 236.73 461.01 237.86 453.71C239.36 444.06 247.07 436.93 256.29 435.74C252.88 431.26 251.23 425.46 252.16 419.46C253.98 407.76 264.94 399.75 276.64 401.56C278.16 401.8 279.62 402.2 281.01 402.72C277.4 397.99 275.76 391.79 277.05 385.43C279.02 375.72 287.59 368.5 297.5 368.28C300.33 368.22 303.02 368.7 305.45 369.59C304.1 366.02 303.66 362.04 304.43 357.98C306.59 346.63 317.68 338.92 329.07 340.85C331.17 341.2 333.15 341.85 334.96 342.74C334.29 339.45 334.37 335.92 335.39 332.39C338.25 322.57 347.9 316.08 358.08 317.1C363.32 317.63 367.88 319.96 371.26 323.4C371.3 323.03 371.35 322.67 371.4 322.31C373.22 310.61 384.18 302.6 395.87 304.41C404.4 305.74 410.96 311.91 413.19 319.69C416.35 309.8 426.32 303.4 436.9 305.04C444.47 306.22 450.48 311.21 453.3 317.75C457.98 312.38 465.22 309.45 472.77 310.63C482.99 312.25 490.4 320.8 490.9 330.74Z" fill="url(#paint29_radial)"/>
<path d="M634.41 654.06C627.68 658.89 620.8 663.37 613.87 667.51C611.12 669.17 608.35 670.77 605.58 672.33L605.57 672.34C577.79 687.91 549.93 698.39 528.13 705.15C514.33 709.43 502.96 712.21 495.59 713.83C489.71 715.12 486.38 715.68 486.38 715.68C533.23 691.17 557.71 599.73 559.53 592.75C540.61 656.83 498.86 689.11 473.19 703.49C473.18 703.5 473.17 703.51 473.16 703.51C462.2 709.65 454.18 712.53 452.14 713.2C453.83 712.58 455.6 711.64 457.43 710.42C477.53 697.11 504.57 651.32 506.4 648.21C495.25 666.05 475.42 680.28 456.67 690.64C433.91 703.22 412.71 710.11 410.43 710.83C414.57 709.3 419.69 705.48 425.26 700.3C448.08 679.03 478.46 634.82 480.55 631.77C453.2 668.54 403.5 697.83 371.95 713.88C367.57 716.11 363.54 718.07 359.97 719.79C349.93 724.56 343.52 727.19 343.14 727.35C343.51 726.95 350.82 719.29 361.06 707.87C363.39 705.28 365.86 702.5 368.44 699.56C383.73 682.19 402.68 659.5 415.71 639.99C443.12 598.92 473.21 567.17 475.05 565.23L475.12 565.16C435.96 596.38 426.72 609.15 392.22 659.4C381 675.74 366.07 689.85 351.01 701.46C324.32 722.07 297.27 734.79 289.97 738.06C289.96 738.06 289.96 738.07 289.95 738.07C288.82 738.57 288.16 738.85 288.07 738.88C305.46 718.55 318.94 700.69 329.75 684.74C381.82 607.87 371.65 575.78 437.72 530.15C500.58 486.73 573.56 508.84 601.68 520.17C607.66 522.58 609.74 529.98 605.9 535.17C603.77 538.06 601.81 540.89 600.04 543.67C585.36 566.54 582.32 585.53 585.33 600.91C587.49 611.99 592.8 621.23 599.17 628.7C607.21 638.16 616.94 644.82 624.13 648.93C630.16 652.41 634.41 654.06 634.41 654.06Z" fill="url(#paint30_linear)"/>
<path d="M688.71 561.98C684.38 528.85 673.16 504.18 655.34 491.88C655 491.63 654.64 491.4 654.3 491.17C654.21 491.11 654.12 491.05 654.03 490.99C639.83 481.83 608.26 475.06 593.18 448.96C586.87 438.03 596.35 424.64 608.77 426.77C608.94 426.8 609.11 426.84 609.29 426.86C616.71 428.07 622.01 434.62 621.86 442.15C621.67 451.35 623.3 461.18 631.14 460.99C640.6 460.74 637.44 445.71 633.98 435.06C632.61 430.81 631.19 427.28 630.5 425.62C630.29 425.1 630.05 424.59 629.77 424.09C628.01 420.95 619.98 404.13 639.18 388.49C644.01 384.55 645.95 378.02 643.95 372.12C640.01 360.56 630.02 343.42 604.78 336.59C603.1 336.14 601.51 335.4 600.09 334.39C596.27 331.67 588.04 322.38 585.15 316.84C578.22 303.57 557.16 300.6 537.53 316.75C530.57 322.46 524.36 332.82 519.99 345.4C518.96 348.34 518.03 351.41 517.23 354.57C513.46 369.33 512.22 386.08 514.98 401.68C516.23 408.72 518.28 415.52 521.29 421.81C536.78 454.13 546.01 459.9 568.08 474.87C572.96 478.18 578.08 481.1 583.42 483.58C592.78 487.93 608.81 495.9 620.09 504.14C626.97 509.17 628.3 518.88 623.05 525.59C614.18 536.93 601.47 556.36 600.31 575.87C599.87 583.23 600.82 589.97 602.9 595.94C607.99 610.58 619.87 620.65 634.67 624.27C638.58 625.23 642.71 625.74 646.96 625.78C673.81 625.92 693.14 595.93 688.71 561.98ZM587.66 397.43C587.66 397.43 579.48 394.2 572.02 387.56C562.86 379.41 561.55 365.49 569.49 356.16C575.04 349.64 583.74 344.6 596.61 349.56C596.61 349.56 618.19 354.97 626.11 376.16C626.6 377.47 626.78 378.88 626.61 380.27C626.12 384.34 624.32 393.13 617.76 397.41C615.7 398.76 613.05 398.67 610.97 397.38C607.68 395.34 602 392.63 597.55 394.65C597.54 394.66 589.04 398.26 587.66 397.43Z" fill="url(#paint31_linear)"/>
<path d="M561.24 372.1C561.24 372.1 569.19 338.88 595.83 348.66C595.83 348.66 618.69 353.96 626.45 376.99C626.45 376.99 626.45 394.93 613.92 398.8C613.92 398.8 604.38 391.26 597.82 394.52C597.82 394.52 589.47 398.39 588.08 397.58C588.08 397.57 567 389.62 561.24 372.1Z" fill="white"/>
<path d="M451.91 512.37C442.58 516.09 433.29 520.96 424.22 527.22C413.55 534.59 404.78 541.63 397.35 548.56C358.88 556.03 312.28 568.4 261.14 588.83C256.66 570.5 254.63 551.11 255.11 531.17C255.26 524.85 255.71 518.61 256.46 512.46C284.92 507.4 351.34 499.72 451.91 512.37Z" fill="url(#paint32_linear)"/>
<path d="M386.59 562.5C358.58 593.86 351.92 626.06 313.79 682.35C291.42 662.16 275.3 636.54 265.66 607.72C291.83 595.68 335.64 577.19 386.59 562.5Z" fill="url(#paint33_linear)"/>
<path d="M515.51 494.6C515.51 494.6 485.08 494 459.57 506.69C459.57 506.69 354.37 485.55 255.78 503.09C255.78 503.09 278.94 415.31 309.68 400.09C340.42 384.87 515.51 494.6 515.51 494.6Z" fill="url(#paint34_linear)"/>
<path d="M566.08 496.34C566.08 496.34 538.35 492.06 525.96 493.34C525.96 493.34 358.05 383.54 321.82 386.57C321.82 386.57 389.63 317.1 485.28 341.84L504.14 374.62C504.14 374.62 494.77 442.78 560.01 476.01L566.08 496.34Z" fill="url(#paint35_linear)"/>
<path d="M386.59 562.5C386.59 562.5 304.39 610.29 286.65 650.87C286.65 650.87 299.95 671.04 313.79 682.35C313.79 682.35 339.02 644.78 351.21 618.38C363.4 591.98 384.18 562.75 386.59 562.5Z" fill="url(#paint36_linear)"/>
<path d="M261.15 588.83C261.15 588.83 324.35 505.79 451.91 512.37C451.91 512.37 436.59 516.32 397.35 548.57C397.35 548.56 318.08 563.08 261.15 588.83Z" fill="url(#paint37_linear)"/>
<path d="M255.78 503.1C255.78 503.1 372.58 407.7 515.51 494.61C515.51 494.61 485.93 494.71 459.57 506.7C459.57 506.7 361.01 485.35 255.78 503.1Z" fill="url(#paint38_linear)"/>
<path d="M566.08 496.34C566.08 496.34 540.74 492.87 525.96 493.34C525.96 493.34 364.04 386.07 321.82 386.57C321.82 386.57 445.73 359.28 513.14 428.19C513.14 428.19 521.43 453.94 560 476.01L566.08 496.34Z" fill="url(#paint39_linear)"/>
<path d="M651.34 398.15C648.97 395.7 645.17 395.17 642.29 397C640.1 398.39 637.72 400.6 636.27 404.02C636.27 404.02 636.25 404.05 636.22 404.11C635.73 405.26 635.35 406.55 635.12 407.99C635.11 408.09 635.1 408.18 635.08 408.27C634.74 410.43 634.74 412.93 635.19 415.81C635.44 417.42 635.87 419.11 636.45 420.89C638.07 425.92 640.87 431.55 644.05 437.49C644.1 437.59 644.19 437.74 644.31 437.95C646.5 442.03 648.87 446.26 651.17 450.54C651.2 450.58 651.22 450.63 651.24 450.67C654.43 456.62 657.48 462.66 659.72 468.55C659.73 468.57 659.74 468.59 659.74 468.6C661.03 472 662.06 475.36 662.68 478.61C662.69 478.63 662.69 478.65 662.69 478.67C662.7 478.69 662.7 478.7 662.7 478.72C662.88 479.66 664.24 479.64 664.35 478.68C666.48 461.59 669.88 417.39 651.34 398.15ZM648.18 404.84C649.37 403.93 651.33 403.82 652.54 406.06C653.48 407.82 655.32 419.49 655.32 419.49C655.32 419.49 649.47 410.94 648.24 409.36C647.03 407.78 647 405.75 648.18 404.84Z" fill="url(#paint40_linear)"/>
<path d="M662.7 478.74C662.7 478.74 655.73 411.5 636.28 404.02C636.28 404.02 630.11 414.29 644.01 437.41C644 437.41 662.16 468.94 662.7 478.74Z" fill="url(#paint41_linear)"/>
<path d="M606.01 381.54C605.01 380.68 604.13 379.62 603.41 378.52C602.77 377.53 602.3 376.49 602.12 375.33C601.93 374.1 601.97 372.83 601.7 371.61C601.37 370.12 600.82 368.68 600.05 367.36C598.74 365.13 596.75 363.35 594.3 362.47C593.55 362.2 592.81 362.05 592.02 361.98C589.67 361.78 587.12 361.28 585.61 359.27C586.58 360.56 587.01 362.31 586.9 363.91C586.78 365.62 586.17 367.35 586.66 369.05C587.02 370.29 587.73 371.42 588.49 372.46C589.55 373.91 590.88 375.16 592.33 376.21C594.41 377.72 596.75 378.84 599.16 379.71C600.21 380.09 601.28 380.42 602.37 380.71C602.95 380.87 603.54 381.01 604.13 381.15C604.72 381.28 605.41 381.52 606.01 381.54Z" fill="url(#paint42_linear)"/>
<path d="M646.98 626.02C642.73 625.99 638.61 625.48 634.69 624.51C619.89 620.89 608.01 610.83 602.92 596.18C616.41 593.29 692.29 573.13 654.31 491.42C654.66 491.65 655.02 491.89 655.35 492.13C673.17 504.43 684.39 529.1 688.72 562.23C693.17 596.19 673.84 626.18 646.98 626.02Z" fill="url(#paint43_linear)"/>
<path d="M343.03 727.07C363.53 705.94 384.07 684.77 402.4 661.73C429.97 627.08 460.74 566.96 512.17 568.51C526.92 568.96 541.34 574.82 552.45 584.49C557.72 589.08 559.77 593.15 557.47 599.9C540.44 650.05 501.53 692.33 452.97 713.46C475.2 696.2 493.46 673.87 505.97 648.65C495.36 664.65 480.13 677.19 463.61 686.97C447.08 696.75 429.19 703.96 411.33 711.04C438.67 689.11 462.06 662.27 480.04 632.18C444.35 675.5 394.99 705.84 343.03 727.07Z" fill="url(#paint44_linear)"/>
<path d="M587.52 569.71C587.52 569.71 487.88 485.19 363.57 626.02C363.57 626.02 401.68 515.16 504.2 505.48C504.2 505.48 552.89 498.53 601.68 520.18C601.68 520.18 611.76 526.69 605.9 535.18C605.9 535.18 590.36 556.44 587.52 569.71Z" fill="url(#paint45_linear)"/>
<defs>
<linearGradient id="paint0_linear" x1="780.643" y1="424.82" x2="591.47" y2="235.647" gradientUnits="userSpaceOnUse">
<stop offset="0.1173" stop-color="#D24D56"/>
<stop offset="0.212" stop-color="#C84950"/>
<stop offset="0.5312" stop-color="#AA3C3D"/>
<stop offset="0.8051" stop-color="#983531"/>
<stop offset="1" stop-color="#91322D"/>
</linearGradient>
<linearGradient id="paint1_linear" x1="767.714" y1="435.021" x2="382.033" y2="49.3409" gradientUnits="userSpaceOnUse">
<stop stop-color="#3F3C6A"/>
<stop offset="0.2077" stop-color="#464170"/>
<stop offset="0.4996" stop-color="#584F82"/>
<stop offset="0.8398" stop-color="#76659E"/>
<stop offset="0.8827" stop-color="#7A68A2"/>
</linearGradient>
<linearGradient id="paint2_linear" x1="563.269" y1="734.913" x2="-57.5687" y2="114.075" gradientUnits="userSpaceOnUse">
<stop offset="0.1173" stop-color="#7A68A2"/>
<stop offset="0.212" stop-color="#706198"/>
<stop offset="0.5312" stop-color="#524B7D"/>
<stop offset="0.8051" stop-color="#403E6C"/>
<stop offset="1" stop-color="#393966"/>
</linearGradient>
<linearGradient id="paint3_linear" x1="846.567" y1="490.744" x2="534.522" y2="178.699" gradientUnits="userSpaceOnUse">
<stop offset="0.1173" stop-color="#3D3D6B"/>
<stop offset="0.1784" stop-color="#434171"/>
<stop offset="0.5112" stop-color="#61578C"/>
<stop offset="0.7968" stop-color="#73639C"/>
<stop offset="1" stop-color="#7A68A2"/>
</linearGradient>
<linearGradient id="paint4_linear" x1="596.976" y1="698.992" x2="362.551" y2="464.567" gradientUnits="userSpaceOnUse">
<stop offset="0.1173" stop-color="#7A68A2"/>
<stop offset="0.1784" stop-color="#74649C"/>
<stop offset="0.5112" stop-color="#564E81"/>
<stop offset="0.7968" stop-color="#444271"/>
<stop offset="1" stop-color="#3D3D6B"/>
</linearGradient>
<linearGradient id="paint5_linear" x1="219.972" y1="575.855" x2="170.06" y2="5.35589" gradientUnits="userSpaceOnUse">
<stop offset="0.3128" stop-color="#3B3A67"/>
<stop offset="0.4616" stop-color="#403E6B"/>
<stop offset="0.6356" stop-color="#4E4879"/>
<stop offset="0.8214" stop-color="#65598E"/>
<stop offset="0.9609" stop-color="#7C69A3"/>
</linearGradient>
<linearGradient id="paint6_linear" x1="393.153" y1="254.675" x2="176.425" y2="37.9471" gradientUnits="userSpaceOnUse">
<stop stop-color="#7A69A2"/>
<stop offset="0.7542" stop-color="#3B3B68"/>
</linearGradient>
<linearGradient id="paint7_linear" x1="581.427" y1="225.604" x2="392.234" y2="36.4115" gradientUnits="userSpaceOnUse">
<stop offset="0.1173" stop-color="#7868A1"/>
<stop offset="0.1784" stop-color="#72639B"/>
<stop offset="0.5112" stop-color="#544D7F"/>
<stop offset="0.7968" stop-color="#42406E"/>
<stop offset="1" stop-color="#3B3B68"/>
</linearGradient>
<linearGradient id="paint8_linear" x1="713.862" y1="575.384" x2="600.765" y2="462.287" gradientUnits="userSpaceOnUse">
<stop offset="0.1173" stop-color="#7A68A2"/>
<stop offset="0.1784" stop-color="#74649C"/>
<stop offset="0.5112" stop-color="#564E80"/>
<stop offset="0.7968" stop-color="#44426F"/>
<stop offset="1" stop-color="#3D3D69"/>
</linearGradient>
<linearGradient id="paint9_linear" x1="495.345" y1="590.425" x2="511.641" y2="456.679" gradientUnits="userSpaceOnUse">
<stop/>
<stop offset="0.0162" stop-color="#0C0C0C"/>
<stop offset="0.0908" stop-color="#3E3E3E"/>
<stop offset="0.1709" stop-color="#6C6C6C"/>
<stop offset="0.2545" stop-color="#949494"/>
<stop offset="0.3427" stop-color="#B5B5B5"/>
<stop offset="0.4368" stop-color="#D0D0D0"/>
<stop offset="0.5388" stop-color="#E5E5E5"/>
<stop offset="0.6526" stop-color="#F4F4F4"/>
<stop offset="0.7879" stop-color="#FCFCFC"/>
<stop offset="1" stop-color="white"/>
</linearGradient>
<linearGradient id="paint10_linear" x1="562.972" y1="601.515" x2="627.772" y2="455.606" gradientUnits="userSpaceOnUse">
<stop stop-color="white"/>
<stop offset="0.1931" stop-color="#FBFBFB"/>
<stop offset="0.3868" stop-color="#EFF0F0"/>
<stop offset="0.5808" stop-color="#DBDCDE"/>
<stop offset="0.7752" stop-color="#BFC1C4"/>
<stop offset="0.9681" stop-color="#9B9EA3"/>
<stop offset="1" stop-color="#94989D"/>
</linearGradient>
<linearGradient id="paint11_linear" x1="552.035" y1="516.951" x2="710.132" y2="393.195" gradientUnits="userSpaceOnUse">
<stop stop-color="white"/>
<stop offset="0.1606" stop-color="#F6F6F7"/>
<stop offset="0.4218" stop-color="#DEDFE1"/>
<stop offset="0.7491" stop-color="#B7B9BD"/>
<stop offset="1" stop-color="#94989D"/>
</linearGradient>
<linearGradient id="paint12_linear" x1="584.336" y1="474.228" x2="792.948" y2="310.93" gradientUnits="userSpaceOnUse">
<stop stop-color="#EBEBEF"/>
<stop offset="0.187" stop-color="#E2E3E7"/>
<stop offset="0.4911" stop-color="#CACBD0"/>
<stop offset="0.8724" stop-color="#A3A6AB"/>
<stop offset="1" stop-color="#94989D"/>
</linearGradient>
<linearGradient id="paint13_linear" x1="642.176" y1="407.755" x2="797.751" y2="285.974" gradientUnits="userSpaceOnUse">
<stop offset="0.1564" stop-color="#EBEBEF"/>
<stop offset="0.3142" stop-color="#E2E3E7"/>
<stop offset="0.5707" stop-color="#CACBD0"/>
<stop offset="0.8924" stop-color="#A3A6AB"/>
<stop offset="1" stop-color="#94989D"/>
</linearGradient>
<linearGradient id="paint14_linear" x1="504.841" y1="464.136" x2="585.108" y2="278.898" gradientUnits="userSpaceOnUse">
<stop offset="0.1508" stop-color="#EBEBEF"/>
<stop offset="0.2541" stop-color="#E7E7EB"/>
<stop offset="0.3635" stop-color="#DADADE"/>
<stop offset="0.4759" stop-color="#C5C5C9"/>
<stop offset="0.5902" stop-color="#A8A8AB"/>
<stop offset="0.706" stop-color="#838385"/>
<stop offset="0.8232" stop-color="#555556"/>
<stop offset="0.9391" stop-color="#1F1F20"/>
<stop offset="1"/>
</linearGradient>
<linearGradient id="paint15_linear" x1="605.409" y1="402.48" x2="575.162" y2="272.018" gradientUnits="userSpaceOnUse">
<stop stop-color="white"/>
<stop offset="0.2121" stop-color="#FCFCFC"/>
<stop offset="0.3474" stop-color="#F4F4F4"/>
<stop offset="0.4612" stop-color="#E5E5E5"/>
<stop offset="0.5632" stop-color="#D0D0D0"/>
<stop offset="0.6573" stop-color="#B5B5B5"/>
<stop offset="0.7455" stop-color="#949494"/>
<stop offset="0.8291" stop-color="#6C6C6C"/>
<stop offset="0.9092" stop-color="#3E3E3E"/>
<stop offset="0.9838" stop-color="#0C0C0C"/>
<stop offset="1"/>
</linearGradient>
<linearGradient id="paint16_linear" x1="663.808" y1="279.412" x2="640.102" y2="177.162" gradientUnits="userSpaceOnUse">
<stop stop-color="#EBEBEF"/>
<stop offset="0.2168" stop-color="#E8E8EC"/>
<stop offset="0.3551" stop-color="#E0E0E4"/>
<stop offset="0.4715" stop-color="#D1D1D5"/>
<stop offset="0.5757" stop-color="#BDBDC0"/>
<stop offset="0.6718" stop-color="#A2A2A5"/>
<stop offset="0.762" stop-color="#828284"/>
<stop offset="0.8476" stop-color="#5B5B5C"/>
<stop offset="0.9273" stop-color="#2F2F30"/>
<stop offset="1"/>
</linearGradient>
<linearGradient id="paint17_linear" x1="727.781" y1="276.218" x2="725.161" y2="133.753" gradientUnits="userSpaceOnUse">
<stop stop-color="#EBEBEF"/>
<stop offset="0.2168" stop-color="#E8E8EC"/>
<stop offset="0.3551" stop-color="#E0E0E4"/>
<stop offset="0.4715" stop-color="#D1D1D5"/>
<stop offset="0.5757" stop-color="#BDBDC0"/>
<stop offset="0.6718" stop-color="#A2A2A5"/>
<stop offset="0.762" stop-color="#828284"/>
<stop offset="0.8476" stop-color="#5B5B5C"/>
<stop offset="0.9273" stop-color="#2F2F30"/>
<stop offset="1"/>
</linearGradient>
<linearGradient id="paint18_linear" x1="689.324" y1="331.861" x2="846.286" y2="208.994" gradientUnits="userSpaceOnUse">
<stop offset="0.1564" stop-color="#EBEBEF"/>
<stop offset="0.3142" stop-color="#E2E3E7"/>
<stop offset="0.5707" stop-color="#CACBD0"/>
<stop offset="0.8924" stop-color="#A3A6AB"/>
<stop offset="1" stop-color="#94989D"/>
</linearGradient>
<linearGradient id="paint19_linear" x1="421.383" y1="540.066" x2="401.068" y2="373.33" gradientUnits="userSpaceOnUse">
<stop/>
<stop offset="0.0162" stop-color="#0C0C0C"/>
<stop offset="0.0908" stop-color="#3E3E3E"/>
<stop offset="0.1709" stop-color="#6C6C6C"/>
<stop offset="0.2545" stop-color="#949494"/>
<stop offset="0.3427" stop-color="#B5B5B5"/>
<stop offset="0.4368" stop-color="#D0D0D0"/>
<stop offset="0.5388" stop-color="#E5E5E5"/>
<stop offset="0.6526" stop-color="#F4F4F4"/>
<stop offset="0.7879" stop-color="#FCFCFC"/>
<stop offset="1" stop-color="white"/>
</linearGradient>
<linearGradient id="paint20_linear" x1="337.076" y1="553.892" x2="256.292" y2="371.994" gradientUnits="userSpaceOnUse">
<stop stop-color="white"/>
<stop offset="0.1931" stop-color="#FBFBFB"/>
<stop offset="0.3868" stop-color="#EFF0F0"/>
<stop offset="0.5808" stop-color="#DBDCDE"/>
<stop offset="0.7752" stop-color="#BFC1C4"/>
<stop offset="0.9681" stop-color="#9B9EA3"/>
<stop offset="1" stop-color="#94989D"/>
</linearGradient>
<linearGradient id="paint21_linear" x1="350.71" y1="448.469" x2="153.617" y2="294.188" gradientUnits="userSpaceOnUse">
<stop stop-color="white"/>
<stop offset="0.1606" stop-color="#F6F6F7"/>
<stop offset="0.4218" stop-color="#DEDFE1"/>
<stop offset="0.7491" stop-color="#B7B9BD"/>
<stop offset="1" stop-color="#94989D"/>
</linearGradient>
<linearGradient id="paint22_linear" x1="310.442" y1="395.209" x2="50.373" y2="191.631" gradientUnits="userSpaceOnUse">
<stop stop-color="#EBEBEF"/>
<stop offset="0.187" stop-color="#E2E3E7"/>
<stop offset="0.4911" stop-color="#CACBD0"/>
<stop offset="0.8724" stop-color="#A3A6AB"/>
<stop offset="1" stop-color="#94989D"/>
</linearGradient>
<linearGradient id="paint23_linear" x1="238.334" y1="312.34" x2="44.3853" y2="160.52" gradientUnits="userSpaceOnUse">
<stop offset="0.1564" stop-color="#EBEBEF"/>
<stop offset="0.3142" stop-color="#E2E3E7"/>
<stop offset="0.5707" stop-color="#CACBD0"/>
<stop offset="0.8924" stop-color="#A3A6AB"/>
<stop offset="1" stop-color="#94989D"/>
</linearGradient>
<linearGradient id="paint24_linear" x1="409.545" y1="382.628" x2="309.479" y2="151.698" gradientUnits="userSpaceOnUse">
<stop offset="0.1508" stop-color="#EBEBEF"/>
<stop offset="0.2541" stop-color="#E7E7EB"/>
<stop offset="0.3635" stop-color="#DADADE"/>
<stop offset="0.4759" stop-color="#C5C5C9"/>
<stop offset="0.5902" stop-color="#A8A8AB"/>
<stop offset="0.706" stop-color="#838385"/>
<stop offset="0.8232" stop-color="#555556"/>
<stop offset="0.9391" stop-color="#1F1F20"/>
<stop offset="1"/>
</linearGradient>
<linearGradient id="paint25_linear" x1="284.171" y1="305.763" x2="321.879" y2="143.121" gradientUnits="userSpaceOnUse">
<stop stop-color="white"/>
<stop offset="0.2121" stop-color="#FCFCFC"/>
<stop offset="0.3474" stop-color="#F4F4F4"/>
<stop offset="0.4612" stop-color="#E5E5E5"/>
<stop offset="0.5632" stop-color="#D0D0D0"/>
<stop offset="0.6573" stop-color="#B5B5B5"/>
<stop offset="0.7455" stop-color="#949494"/>
<stop offset="0.8291" stop-color="#6C6C6C"/>
<stop offset="0.9092" stop-color="#3E3E3E"/>
<stop offset="0.9838" stop-color="#0C0C0C"/>
<stop offset="1"/>
</linearGradient>
<linearGradient id="paint26_linear" x1="211.367" y1="152.338" x2="240.921" y2="24.868" gradientUnits="userSpaceOnUse">
<stop stop-color="#EBEBEF"/>
<stop offset="0.2168" stop-color="#E8E8EC"/>
<stop offset="0.3551" stop-color="#E0E0E4"/>
<stop offset="0.4715" stop-color="#D1D1D5"/>
<stop offset="0.5757" stop-color="#BDBDC0"/>
<stop offset="0.6718" stop-color="#A2A2A5"/>
<stop offset="0.762" stop-color="#828284"/>
<stop offset="0.8476" stop-color="#5B5B5C"/>
<stop offset="0.9273" stop-color="#2F2F30"/>
<stop offset="1"/>
</linearGradient>
<linearGradient id="paint27_linear" x1="131.614" y1="148.357" x2="134.88" y2="-29.2491" gradientUnits="userSpaceOnUse">
<stop stop-color="#EBEBEF"/>
<stop offset="0.2168" stop-color="#E8E8EC"/>
<stop offset="0.3551" stop-color="#E0E0E4"/>
<stop offset="0.4715" stop-color="#D1D1D5"/>
<stop offset="0.5757" stop-color="#BDBDC0"/>
<stop offset="0.6718" stop-color="#A2A2A5"/>
<stop offset="0.762" stop-color="#828284"/>
<stop offset="0.8476" stop-color="#5B5B5C"/>
<stop offset="0.9273" stop-color="#2F2F30"/>
<stop offset="1"/>
</linearGradient>
<linearGradient id="paint28_linear" x1="179.557" y1="217.725" x2="-16.1217" y2="64.5509" gradientUnits="userSpaceOnUse">
<stop offset="0.1564" stop-color="#EBEBEF"/>
<stop offset="0.3142" stop-color="#E2E3E7"/>
<stop offset="0.5707" stop-color="#CACBD0"/>
<stop offset="0.8924" stop-color="#A3A6AB"/>
<stop offset="1" stop-color="#94989D"/>
</linearGradient>
<radialGradient id="paint29_radial" cx="0" cy="0" r="1" gradientUnits="userSpaceOnUse" gradientTransform="translate(355.565 449.393) rotate(1.36379) scale(139.601)">
<stop stop-color="#7F6CA7"/>
<stop offset="0.3209" stop-color="#7C6AA4"/>
<stop offset="0.5324" stop-color="#73649C"/>
<stop offset="0.7123" stop-color="#64598E"/>
<stop offset="0.8737" stop-color="#4F497B"/>
<stop offset="1" stop-color="#393966"/>
</radialGradient>
<linearGradient id="paint30_linear" x1="330.849" y1="842.214" x2="620.993" y2="478.244" gradientUnits="userSpaceOnUse">
<stop stop-color="#7F6CA7"/>
<stop offset="0.2604" stop-color="#72629A"/>
<stop offset="0.7456" stop-color="#4E487A"/>
<stop offset="1" stop-color="#393966"/>
</linearGradient>
<linearGradient id="paint31_linear" x1="497.206" y1="440.936" x2="710.012" y2="490.07" gradientUnits="userSpaceOnUse">
<stop stop-color="#393966"/>
<stop offset="0.344" stop-color="#534C7E"/>
<stop offset="0.8464" stop-color="#7F6CA7"/>
</linearGradient>
<linearGradient id="paint32_linear" x1="254.726" y1="545.853" x2="450.963" y2="550.525" gradientUnits="userSpaceOnUse">
<stop stop-color="#7F6CA7"/>
<stop offset="0.2105" stop-color="#7867A1"/>
<stop offset="0.5137" stop-color="#65598F"/>
<stop offset="0.8713" stop-color="#464272"/>
<stop offset="1" stop-color="#393966"/>
</linearGradient>
<linearGradient id="paint33_linear" x1="265.316" y1="620.381" x2="385.101" y2="623.233" gradientUnits="userSpaceOnUse">
<stop stop-color="#7F6CA7"/>
<stop offset="0.2105" stop-color="#7867A1"/>
<stop offset="0.5137" stop-color="#65598F"/>
<stop offset="0.8713" stop-color="#464272"/>
<stop offset="1" stop-color="#393966"/>
</linearGradient>
<linearGradient id="paint34_linear" x1="296.924" y1="549.397" x2="446.215" y2="416.681" gradientUnits="userSpaceOnUse">
<stop stop-color="#7F6CA7"/>
<stop offset="0.252" stop-color="#7B69A4"/>
<stop offset="0.4844" stop-color="#706199"/>
<stop offset="0.7091" stop-color="#5D5488"/>
<stop offset="0.9279" stop-color="#434170"/>
<stop offset="1" stop-color="#393966"/>
</linearGradient>
<linearGradient id="paint35_linear" x1="320.673" y1="405.438" x2="570.515" y2="420.123" gradientUnits="userSpaceOnUse">
<stop stop-color="#7F6CA7"/>
<stop offset="0.497" stop-color="#5A5185"/>
<stop offset="1" stop-color="#393966"/>
</linearGradient>
<linearGradient id="paint36_linear" x1="337.415" y1="682.061" x2="336.093" y2="563.039" gradientUnits="userSpaceOnUse">
<stop stop-color="#3E3E6A"/>
<stop offset="0.2485" stop-color="#43426F"/>
<stop offset="0.5563" stop-color="#534D7E"/>
<stop offset="0.8942" stop-color="#6C6097"/>
<stop offset="1" stop-color="#7567A0"/>
</linearGradient>
<linearGradient id="paint37_linear" x1="263.115" y1="592.808" x2="446.176" y2="500.993" gradientUnits="userSpaceOnUse">
<stop stop-color="#393966"/>
<stop offset="1" stop-color="#7F6CA7"/>
</linearGradient>
<linearGradient id="paint38_linear" x1="279.404" y1="550.247" x2="490.328" y2="444.457" gradientUnits="userSpaceOnUse">
<stop stop-color="#393966"/>
<stop offset="1" stop-color="#7F6CA7"/>
</linearGradient>
<linearGradient id="paint39_linear" x1="336.099" y1="360.031" x2="571.116" y2="486.912" gradientUnits="userSpaceOnUse">
<stop offset="0.1453" stop-color="#393966"/>
<stop offset="0.3327" stop-color="#423F6E"/>
<stop offset="0.6377" stop-color="#5A5185"/>
<stop offset="1" stop-color="#7F6CA7"/>
</linearGradient>
<linearGradient id="paint40_linear" x1="634.183" y1="437.162" x2="666.408" y2="437.93" gradientUnits="userSpaceOnUse">
<stop stop-color="#7F6CA7"/>
<stop offset="0.2105" stop-color="#7867A1"/>
<stop offset="0.5137" stop-color="#65598F"/>
<stop offset="0.8713" stop-color="#464272"/>
<stop offset="1" stop-color="#393966"/>
</linearGradient>
<linearGradient id="paint41_linear" x1="659.826" y1="479.515" x2="638.514" y2="403.369" gradientUnits="userSpaceOnUse">
<stop stop-color="#7F6CA7"/>
<stop offset="0.2281" stop-color="#75659E"/>
<stop offset="0.6159" stop-color="#5A5185"/>
<stop offset="1" stop-color="#393966"/>
</linearGradient>
<linearGradient id="paint42_linear" x1="585.312" y1="370.136" x2="606.235" y2="370.634" gradientUnits="userSpaceOnUse">
<stop stop-color="#7F6CA7"/>
<stop offset="1" stop-color="#393966"/>
</linearGradient>
<linearGradient id="paint43_linear" x1="583.963" y1="563.452" x2="710.51" y2="554.542" gradientUnits="userSpaceOnUse">
<stop offset="0.1397" stop-color="#7F6CA7"/>
<stop offset="0.3118" stop-color="#6A5D93"/>
<stop offset="0.5793" stop-color="#4F497A"/>
<stop offset="0.8174" stop-color="#3F3D6B"/>
<stop offset="1" stop-color="#393966"/>
</linearGradient>
<linearGradient id="paint44_linear" x1="455.66" y1="717.211" x2="443.14" y2="574.104" gradientUnits="userSpaceOnUse">
<stop offset="0.4581" stop-color="#393966"/>
<stop offset="0.5726" stop-color="#3F3D6C"/>
<stop offset="0.7256" stop-color="#504A7B"/>
<stop offset="0.8997" stop-color="#6C5E95"/>
<stop offset="1" stop-color="#7F6CA7"/>
</linearGradient>
<linearGradient id="paint45_linear" x1="371.013" y1="637.918" x2="590.982" y2="500.466" gradientUnits="userSpaceOnUse">
<stop stop-color="#393966"/>
<stop offset="0.2919" stop-color="#3C3B69"/>
<stop offset="0.5107" stop-color="#464272"/>
<stop offset="0.7056" stop-color="#564E81"/>
<stop offset="0.8857" stop-color="#6C5E96"/>
<stop offset="1" stop-color="#7F6CA7"/>
</linearGradient>
</defs>
</svg>
