<svg width="145" height="128" viewBox="0 0 145 128" fill="none" xmlns="http://www.w3.org/2000/svg">
<path d="M130.434 58.7663C130.434 69.5694 126.865 79.8111 120.281 88.1625C121.76 86.9982 123.181 85.7333 124.534 84.3801C128.247 80.6671 131.273 76.4498 133.539 71.8807C133.686 70.1983 133.759 68.5038 133.761 66.8006C133.761 59.1475 132.309 51.6884 129.445 44.6243C126.633 37.6885 122.57 31.4267 117.356 26C125.799 34.8816 130.434 46.4696 130.434 58.7663Z" fill="black"/>
<path d="M53.4556 21.3375C61.807 14.7534 72.0488 11.1841 82.8484 11.1807C95.1485 11.1841 106.737 15.819 115.62 24.2622C115.914 24.5429 116.205 24.8271 116.497 25.1181C116.788 25.4092 117.075 25.7038 117.359 26.0018C125.799 34.8799 130.434 46.4679 130.434 58.7663C130.434 69.5695 126.865 79.8112 120.281 88.1626C118.759 89.3616 117.178 90.4653 115.54 91.4581C120.01 84.0978 122.398 75.632 122.398 66.8024C122.398 54.0934 117.448 42.1432 108.461 33.1542C99.475 24.1686 87.5248 19.2202 74.8123 19.2167C65.981 19.2167 57.5204 21.6078 50.1636 26.0815C51.1564 24.4441 52.2566 22.8588 53.4556 21.3375Z" fill="black"/>
<path d="M33.1299 25.1177C34.4797 23.768 35.8796 22.491 37.3403 21.292C33.5319 25.9026 30.472 31.0243 28.2178 36.5862C25.3503 43.6519 23.8983 51.1127 23.9018 58.7693C23.9018 66.4225 25.3503 73.885 28.2144 80.9491C31.0334 87.8849 35.0965 94.1467 40.31 99.5734C40.5907 99.868 40.8749 100.159 41.166 100.45C41.4571 100.741 41.7516 101.029 42.0496 101.313C47.4763 106.527 53.7364 110.59 60.6705 113.405C67.7328 116.269 75.1971 117.718 82.8502 117.718C90.5034 117.718 97.9659 116.269 105.033 113.402C110.597 111.148 115.717 108.089 120.324 104.276C119.125 105.735 117.848 107.136 116.498 108.486C110.874 114.11 104.314 118.471 96.9974 121.438C89.9351 124.302 82.4673 125.754 74.8142 125.754C67.161 125.754 59.7019 124.302 52.6379 121.438C45.3209 118.471 38.7576 114.114 33.1299 108.486C27.5057 102.862 23.1481 96.2987 20.1818 88.9817C17.3177 81.9194 15.8657 74.4585 15.8657 66.8054C15.8623 59.1488 17.3177 51.6863 20.1818 44.6222C23.1481 37.3052 27.5057 30.7436 33.1299 25.1177Z" fill="black"/>
<path d="M130.434 58.7663C130.434 69.5694 126.865 79.8111 120.281 88.1625C121.76 86.9982 123.181 85.7333 124.534 84.3801C128.247 80.6671 131.273 76.4498 133.539 71.8807C133.686 70.1983 133.759 68.5038 133.761 66.8006C133.761 59.1475 132.309 51.6884 129.445 44.6243C126.633 37.6885 122.57 31.4267 117.356 26C125.799 34.8816 130.434 46.4696 130.434 58.7663Z" fill="black"/>
<path d="M42.0498 101.313C50.9279 109.753 62.5125 114.391 74.8143 114.388C82.2752 114.388 89.4709 112.685 95.9632 109.462C101.844 108.965 107.579 107.589 113.07 105.366C116.845 103.838 120.418 101.937 123.76 99.6758C122.698 101.265 121.551 102.796 120.324 104.276C115.717 108.088 110.595 111.148 105.034 113.402C97.9678 116.269 90.5035 117.718 82.8504 117.718C75.1973 117.718 67.7347 116.269 60.6707 113.405C53.7366 110.588 47.4748 106.527 42.0498 101.313Z" fill="black"/>
<path d="M37.3384 21.2923C38.8181 20.0656 40.3498 18.9186 41.9386 17.8564C39.6809 21.2022 37.7802 24.775 36.252 28.5504C34.0221 34.0481 32.6481 39.785 32.1526 45.6743C28.9298 52.1579 27.2266 59.3484 27.2266 66.8023C27.2266 79.1059 31.8649 90.6904 40.3082 99.5737C35.0946 94.1488 31.0315 87.887 28.2125 80.9494C25.3484 73.8871 23.8999 66.4228 23.8999 58.7697C23.8964 51.1131 25.3484 43.654 28.216 36.5865C30.4719 31.0247 33.53 25.9029 37.3384 21.2923Z" fill="black"/>
<path d="M41.9389 17.8568C45.2846 15.5991 48.8574 13.6984 52.6328 12.1702C58.1306 9.94029 63.8674 8.56629 69.7532 8.07422C65.1773 10.3423 60.953 13.3657 57.2365 17.0823C55.8833 18.4355 54.6202 19.8563 53.4541 21.336C52.2551 22.8572 51.1549 24.4426 50.1621 26.08C48.5247 27.0728 46.9393 28.173 45.418 29.372C43.9384 30.5364 42.5176 31.8012 41.1644 33.1544C37.4478 36.871 34.4191 41.0987 32.1528 45.6746C32.6501 39.787 34.0224 34.0485 36.2523 28.5508C37.7805 24.777 39.683 21.2043 41.9389 17.8568Z" fill="black"/>
<path d="M57.2382 17.0836C60.9547 13.3671 65.1789 10.3418 69.7549 8.07552C71.4304 7.92824 73.118 7.85547 74.8177 7.85547C82.4708 7.85547 89.9299 9.30744 96.994 12.1715C103.933 14.9871 110.195 19.0502 115.622 24.2637C106.74 15.8205 95.1522 11.1856 82.8503 11.1822C72.0507 11.1856 61.8089 14.7549 53.4575 21.339C54.6201 19.8576 55.885 18.4351 57.2382 17.0836Z" fill="black"/>
<path d="M124.536 84.3822C128.249 80.6691 131.275 76.4518 133.541 71.8828C133.044 77.7634 131.671 83.4951 129.448 88.9859C127.92 92.7613 126.02 96.3341 123.758 99.6764C120.414 101.937 116.843 103.838 113.068 105.366C107.577 107.589 101.844 108.967 95.9614 109.462C100.53 107.194 104.751 104.167 108.464 100.454C109.817 99.1011 111.081 97.6803 112.247 96.2006C113.446 94.6794 114.549 93.0975 115.542 91.4601C117.18 90.4673 118.761 89.3636 120.283 88.1646C121.761 86.9985 123.183 85.7354 124.536 84.3822Z" fill="black"/>
<path d="M91.7674 102.986C91.7674 102.986 84.6548 98.4965 84.7016 90.0151C84.7484 81.5338 82.8633 78.3838 82.8633 78.3838C82.8633 78.3838 89.5444 82.2667 89.4179 86.633C89.2914 90.9993 89.664 92.9086 89.664 92.9086C89.664 92.9086 87.5345 91.623 86.9731 89.1609C86.4135 86.6971 85.2682 91.999 91.7674 102.986Z" fill="black"/>
<path d="M87.7701 92.2379C87.7701 92.2379 88.5307 96.4483 91.9596 101.624C91.9596 101.624 91.0015 84.81 97.7311 72.7057C97.7311 72.7057 90.5614 64.3318 94.2883 47.8213C94.2883 47.8213 81.3748 66.2065 86.7236 80.4126C86.7236 80.4126 90.0866 82.5836 90.2911 85.3662C90.4955 88.1489 90.9079 96.5852 90.9079 96.5852C90.9079 96.5852 90.4193 97.2817 87.7701 92.2379Z" fill="black"/>
<path d="M97.9581 71.9655C97.9581 71.9655 89.3451 58.5686 97.2616 47.691C97.2616 47.691 103.932 39.9235 118.844 28.7998C118.844 28.7998 107.403 43.4044 107.789 50.1756C107.789 50.1756 105.093 48.4256 106.093 44.2274C106.093 44.2291 94.2069 53.3654 97.9581 71.9655Z" fill="black"/>
<path d="M105.142 45.851C105.142 45.851 95.5912 58.016 98.6684 71.1703C98.6684 71.1703 104.799 52.6257 139.897 30.3385C139.897 30.3385 132.1 30.8808 129.797 27.2197C129.797 27.2197 112.505 30.1878 108.685 51.269C108.685 51.2707 105.689 50.4754 105.142 45.851Z" fill="black"/>
<path d="M95.3572 103.188C94.6936 99.0015 98.3045 93.4449 101.049 90.6622C104.788 86.8729 109.986 84.8994 113.755 81.0928C110.527 81.2002 107.411 82.4026 104.641 84.066C101.87 85.7293 99.4064 87.8449 96.9565 89.9501C93.952 92.5335 94.7976 99.6565 95.3572 103.188Z" fill="black"/>
<path d="M109.584 81.0307C110.017 80.8072 110.437 80.5491 110.833 80.2285C112.249 79.0798 113.595 77.8461 115.028 76.7112C118.085 74.2942 121.228 71.9499 123.882 69.0771C122.602 70.465 118.67 70.8652 116.903 71.0576C114.339 71.3365 112.131 71.4665 109.628 72.241C105.095 73.6427 100.124 76.1481 98.1556 80.7483C96.9982 83.4547 96.0539 87.0136 96.0591 89.9695C97.8056 88.3685 99.663 86.8715 101.572 85.4715C103.052 84.3869 104.582 83.3438 106.216 82.5035C107.33 81.93 108.501 81.5887 109.584 81.0307Z" fill="black"/>
<path d="M98.4624 78.486C98.4624 78.486 103.515 70.5245 125.487 68.5008C125.487 68.5008 130.094 67.9602 139.646 56.6338C139.646 56.6338 129.389 63.7255 121.6 63.9681C113.812 64.2107 110.317 66.1305 110.317 66.1305C110.317 66.1305 115.215 66.3384 115.955 67.5651C115.957 67.5651 102.302 69.2302 98.4624 78.486Z" fill="black"/>
<path d="M98.123 77.1206C98.123 77.1206 101.573 69.5558 113.414 67.3848C113.414 67.3848 109.164 66.4474 108.38 66.8373C108.38 66.8373 109.141 64.9019 116.874 63.5262C124.607 62.1504 134.767 63.7219 139.856 51.5137C139.856 51.5137 133.693 57.0183 131.005 56.9005C131.005 56.9005 141.11 50.8345 143.032 44.9469C143.032 44.9469 143.843 40.2739 142.507 37.0391C142.507 37.0391 142.836 33.7782 144.378 33.2099C144.378 33.2099 143.486 33.0886 141.398 35.6598C140.26 37.0598 138.501 38.1947 136.695 38.3316C137.596 37.039 138.659 35.8141 139.454 34.2633C140.123 32.9604 141.244 31.621 142.708 31.6817C136.422 31.8082 131.452 36.625 126.935 40.4455C121.805 44.7858 116.962 49.4657 112.386 54.3847C109.054 57.9661 105.878 61.7363 103.198 65.8341C100.805 69.4952 99.8782 73.2706 98.123 77.1206Z" fill="black"/>
<path d="M95.3573 103.188C95.3573 103.188 93.3474 95.6159 98.8295 90.5947C104.312 85.5734 110.953 81.8985 113.756 81.0928C113.756 81.0928 110.813 84.5113 105.859 87.2818C102.252 89.3004 94.9466 96.2154 95.3573 103.188Z" fill="black"/>
<path d="M96.061 89.9695C96.061 89.9695 102.332 79.5216 111.646 75.7149C120.961 71.9083 123.884 69.0771 123.884 69.0771C123.884 69.0771 119.873 73.1073 118.773 73.8697C117.672 74.632 112.334 78.9186 110.835 80.2285C110.835 80.2285 110.179 80.802 109.195 81.2213C108.212 81.6406 107.644 81.8659 107.365 81.982C107.086 82.0981 103.051 83.6921 96.061 89.9695Z" fill="black"/>
<path d="M98.4624 78.4858C98.4624 78.4858 105.939 68.8297 120.308 68.2372C120.308 68.2372 119.94 66.7939 117.123 66.4439C117.123 66.4439 119.481 65.3921 123.451 67.3327C123.451 67.3327 130.993 66.3902 139.646 56.6318C139.646 56.6318 130.426 67.908 125.487 68.4988C120.549 69.0914 106.538 70.1327 98.4624 78.4858Z" fill="black"/>
<path d="M108.38 66.8351C108.38 66.8351 111.896 61.6822 122.997 60.4589C134.098 59.2357 139.856 51.5098 139.856 51.5098C139.856 51.5098 137.61 57.5411 132.806 60.0777C128.001 62.6144 123.02 62.7807 123.02 62.7807C123.02 62.7807 111.258 63.5725 108.38 66.8351Z" fill="black"/>
<path d="M94.2869 47.8213C94.2869 47.8213 85.5283 70.5295 93.8572 82.8521C93.8572 82.8521 95.4408 76.521 97.7297 72.7057C97.7314 72.7057 90.806 64.7026 94.2869 47.8213Z" fill="black"/>
<path d="M98.6687 71.1699C98.6687 71.1699 95.1861 59.4935 105.142 45.8506C105.142 45.8506 105.358 48.7528 107.129 50.3035C107.129 50.3035 98.7917 56.9465 98.6687 71.1699Z" fill="black"/>
<path d="M107.696 50.1014C107.831 48.3133 108.316 46.5547 109.037 44.9139C112.298 37.4704 115.141 34.0068 118.783 28.8643C114.202 31.8843 110.808 36.4238 108.21 41.258C106.634 44.1913 105.804 47.0832 107.696 50.1014Z" fill="black"/>
<path d="M129.798 27.2197C129.798 27.2197 116.681 34.5333 112.216 52.2341C112.216 52.2341 123.886 40.0397 139.899 30.3385C139.897 30.3385 132.899 30.5811 129.798 27.2197Z" fill="black"/>
<path d="M136.695 38.3299C136.695 38.3299 130.149 39.8183 117.629 55.0691C117.629 55.0691 136.783 54.7399 143.03 44.947C143.03 44.947 143.835 40.0384 142.505 37.0391C142.505 37.0391 143.049 33.5028 144.376 33.21C144.376 33.21 143.113 33.2585 141.396 35.6599C139.679 38.0596 136.695 38.3299 136.695 38.3299Z" fill="black"/>
<path d="M65.7988 94.4539C65.7988 94.4539 74.6648 88.8574 74.6077 78.2848C74.5505 67.7104 76.9 63.7842 76.9 63.7842C76.9 63.7842 68.5693 68.6252 68.727 74.0692C68.8847 79.5132 68.4203 81.8922 68.4203 81.8922C68.4203 81.8922 71.0748 80.2895 71.773 77.2192C72.4713 74.1489 73.9025 80.7556 65.7988 94.4539Z" fill="black"/>
<path d="M70.7837 81.0558C70.7837 81.0558 69.8342 86.304 65.5614 92.7565C65.5614 92.7565 66.757 71.7948 58.3657 56.7068C58.3657 56.7068 67.3045 46.2676 62.6575 25.6836C62.6575 25.6836 78.7574 48.6032 72.0884 66.3144C72.0884 66.3144 67.8953 69.0208 67.6406 72.4896C67.3859 75.9584 66.8713 86.4756 66.8713 86.4756C66.8713 86.4756 67.4795 87.3436 70.7837 81.0558Z" fill="black"/>
<path d="M58.0801 55.7833C58.0801 55.7833 68.8174 39.0805 58.9481 25.5208C58.9481 25.5208 50.6314 15.8387 32.0435 1.96875C32.0435 1.96875 46.3067 20.1772 45.8233 28.6187C45.8233 28.6187 49.1846 26.4373 47.9389 21.203C47.9389 21.2047 62.7583 32.5952 58.0801 55.7833Z" fill="black"/>
<path d="M49.1254 23.2263C49.1254 23.2263 61.0322 38.3922 57.1961 54.7901C57.1961 54.7901 49.5551 31.6712 5.79688 3.88807C5.79688 3.88807 15.5153 4.56382 18.3881 0C18.3881 0 39.9458 3.70096 44.7089 29.9819C44.7089 29.9836 48.4427 28.9925 49.1254 23.2263Z" fill="black"/>
<path d="M61.3236 94.7069C62.1501 89.4881 57.6504 82.561 54.2267 79.0905C49.5658 74.3655 43.084 71.9069 38.3867 67.1611C42.4117 67.2945 46.2963 68.7933 49.7477 70.8673C53.1992 72.9395 56.2729 75.5784 59.3259 78.2033C63.0753 81.4244 62.0201 90.3042 61.3236 94.7069Z" fill="black"/>
<path d="M43.5878 67.0832C43.0472 66.8043 42.5239 66.4837 42.0301 66.0818C40.2645 64.6489 38.5856 63.1102 36.7992 61.6981C32.9891 58.6833 29.0698 55.7638 25.7622 52.1807C27.3597 53.9099 32.2597 54.4089 34.4619 54.6497C37.6586 54.998 40.4101 55.1608 43.5306 56.1259C49.1825 57.8742 55.3785 60.9982 57.8319 66.7332C59.2752 70.1085 60.4517 74.5441 60.4465 78.2294C58.2686 76.2334 55.9537 74.3656 53.5731 72.6208C51.7295 71.2693 49.8201 69.9681 47.7843 68.9199C46.3981 68.2043 44.9375 67.778 43.5878 67.0832Z" fill="black"/>
<path d="M57.4527 63.9103C57.4527 63.9103 51.1528 53.9839 23.7612 51.4612C23.7612 51.4612 18.0174 50.7889 6.10889 36.666C6.10889 36.666 18.8959 45.5078 28.604 45.811C38.312 46.1142 42.6697 48.507 42.6697 48.507C42.6697 48.507 36.5638 48.7669 35.642 50.2968C35.642 50.2951 52.6654 52.3708 57.4527 63.9103Z" fill="black"/>
<path d="M57.8755 62.2076C57.8755 62.2076 53.575 52.7768 38.8128 50.0703C38.8128 50.0703 44.1113 48.9025 45.0885 49.3877C45.0885 49.3877 44.1407 46.9741 34.5002 45.2588C24.8597 43.5434 12.194 45.5031 5.85073 30.2834C5.85073 30.2834 13.5351 37.1465 16.8843 36.9992C16.8843 36.9992 4.28788 29.4362 1.89161 22.0984C1.89161 22.0984 0.879743 16.2732 2.54483 12.2395C2.54483 12.2395 2.13419 8.17471 0.210938 7.46606C0.210938 7.46606 1.3233 7.31531 3.92748 10.519C5.34653 12.2638 7.54007 13.6794 9.78906 13.8492C8.6663 12.2378 7.34082 10.7096 6.35147 8.77769C5.51806 7.15246 4.11981 5.4839 2.29359 5.56013C10.1304 5.71781 16.3246 11.7215 21.9558 16.4863C28.351 21.8974 34.3876 27.7312 40.0932 33.8648C44.2464 38.3299 48.2055 43.0288 51.5478 48.1402C54.5314 52.7022 55.6889 57.4099 57.8755 62.2076Z" fill="black"/>
<path d="M61.3236 94.7069C61.3236 94.7069 63.829 85.2674 56.9954 79.0073C50.1619 72.7472 41.8832 68.1661 38.3867 67.1611C38.3867 67.1611 42.0565 71.4235 48.2317 74.8784C52.7279 77.3942 61.8348 86.0142 61.3236 94.7069Z" fill="black"/>
<path d="M60.4465 78.2277C60.4465 78.2277 52.6288 65.2033 41.0182 60.4576C29.4077 55.7118 25.7622 52.1807 25.7622 52.1807C25.7622 52.1807 30.7627 57.2036 32.1349 58.1549C33.5072 59.1061 40.1606 64.4496 42.0301 66.0818C42.0301 66.0818 42.8497 66.7956 44.0747 67.3206C45.2996 67.8439 46.0066 68.1228 46.3548 68.2701C46.7031 68.4157 51.7313 70.403 60.4465 78.2277Z" fill="black"/>
<path d="M57.4527 63.9103C57.4527 63.9103 48.1327 51.8735 30.2188 51.1337C30.2188 51.1337 30.6762 49.3335 34.1883 48.8968C34.1883 48.8968 31.2497 47.5852 26.2995 50.0057C26.2995 50.0057 16.8981 48.831 6.10889 36.666C6.10889 36.666 17.6033 50.7248 23.7612 51.4612C29.9191 52.1975 47.3842 53.497 57.4527 63.9103Z" fill="black"/>
<path d="M45.0886 49.3875C45.0886 49.3875 40.7067 42.9645 26.8662 41.4398C13.0258 39.915 5.84912 30.2832 5.84912 30.2832C5.84912 30.2832 8.64909 37.8012 14.6389 40.965C20.6287 44.1289 26.8385 44.3333 26.8385 44.3333C26.8385 44.3333 41.502 45.3192 45.0886 49.3875Z" fill="black"/>
<path d="M62.6575 25.6836C62.6575 25.6836 73.575 53.9917 63.1929 69.3552C63.1929 69.3552 61.2177 61.4612 58.3657 56.7051C58.3657 56.7068 66.9978 46.7267 62.6575 25.6836Z" fill="black"/>
<path d="M57.1964 54.7913C57.1964 54.7913 61.5367 40.2353 49.1256 23.2275C49.1256 23.2275 48.8554 26.8453 46.6479 28.779C46.6479 28.779 57.0422 37.0593 57.1964 54.7913Z" fill="black"/>
<path d="M45.9427 28.5246C45.7746 26.2964 45.1682 24.1046 44.2724 22.0566C40.2059 12.7765 36.6626 8.45868 32.123 2.04785C37.8339 5.81291 42.0668 11.4718 45.3034 17.498C47.2647 21.1573 48.3009 24.763 45.9427 28.5246Z" fill="black"/>
<path d="M18.3881 0C18.3881 0 34.7392 9.11723 40.3062 31.1843C40.3062 31.1843 25.7588 15.982 5.79688 3.88807C5.79687 3.88807 14.5225 4.1913 18.3881 0Z" fill="black"/>
<path d="M9.78906 13.8487C9.78906 13.8487 17.9499 15.7044 33.5576 34.7151C33.5576 34.7151 9.67817 34.3045 1.89161 22.0962C1.89161 22.0962 0.888406 15.9764 2.54483 12.2373C2.54483 12.2373 1.86562 7.82946 0.210938 7.46387C0.210938 7.46387 1.78592 7.52278 3.92748 10.5168C6.06905 13.5126 9.78906 13.8487 9.78906 13.8487Z" fill="black"/>
<path d="M85.1336 57.2831C83.8082 56.8863 82.4411 56.5744 81.0394 56.3578C62.772 53.5197 45.4315 67.5127 42.3076 87.6115C41.488 92.8892 41.7063 96.9401 42.5501 102.765C41.4031 101.447 38.9722 99.4438 38.9202 97.9468C38.889 97.0285 39.5197 96.2626 40.1643 95.7064C38.9237 94.9458 38.196 93.4939 38.4333 91.9674C38.6811 90.3768 39.9009 89.1795 41.3944 88.8902C39.9667 88.1954 39.0952 86.6308 39.3534 84.9796C39.6063 83.3474 40.8868 82.1311 42.434 81.8833C41.5625 81.0707 41.0947 79.8544 41.2905 78.5895C41.5504 76.9175 42.8863 75.6821 44.4838 75.476C43.8929 74.6997 43.6071 73.6948 43.7682 72.6552C44.0835 70.628 45.9825 69.2401 48.0097 69.5537C48.2731 69.5953 48.5261 69.6646 48.7669 69.7547C48.1414 68.9352 47.8573 67.8609 48.0808 66.759C48.4221 65.0766 49.907 63.8256 51.6241 63.7875C52.1144 63.7771 52.5805 63.8602 53.0015 64.0144C52.7676 63.3959 52.6914 62.7063 52.8248 62.0028C53.199 60.0362 55.1206 58.7004 57.0941 59.0348C57.4579 59.0954 57.801 59.208 58.1146 59.3622C57.9985 58.7922 58.0124 58.1806 58.1891 57.5689C58.6846 55.8675 60.3566 54.743 62.1205 54.9197C63.0284 55.0115 63.8185 55.4153 64.4041 56.0113C64.4111 55.9472 64.4197 55.8848 64.4284 55.8224C64.7437 53.7952 66.6427 52.4074 68.6682 52.721C70.1461 52.9514 71.2828 54.0205 71.6692 55.3685C72.2167 53.6549 73.9441 52.546 75.7773 52.8301C77.0889 53.0346 78.1302 53.8992 78.6188 55.0323C79.4297 54.1019 80.6842 53.5942 81.9923 53.7987C83.7631 54.0794 85.047 55.5608 85.1336 57.2831Z" fill="black"/>
<path d="M109.999 113.303C108.833 114.14 107.641 114.916 106.44 115.633C105.964 115.921 105.484 116.198 105.004 116.469L105.002 116.47C100.189 119.168 95.3616 120.984 91.5844 122.155C89.1933 122.897 87.2233 123.378 85.9463 123.659C84.9275 123.883 84.3505 123.98 84.3505 123.98C92.468 119.733 96.7096 103.89 97.0249 102.68C93.7467 113.783 86.5129 119.376 82.0652 121.868C82.0634 121.869 82.0617 121.871 82.06 121.871C80.161 122.935 78.7714 123.434 78.4179 123.55C78.7107 123.443 79.0174 123.28 79.3345 123.068C82.8171 120.762 87.5022 112.828 87.8193 112.289C85.8874 115.38 82.4515 117.846 79.2028 119.641C75.2593 121.821 71.5861 123.015 71.191 123.139C71.9083 122.874 72.7955 122.212 73.7605 121.315C77.7145 117.629 82.9783 109.969 83.3404 109.441C78.6016 115.812 69.9903 120.887 64.5238 123.668C63.7649 124.054 63.0666 124.394 62.448 124.692C60.7084 125.518 59.5978 125.974 59.532 126.002C59.5961 125.932 60.8627 124.605 62.6369 122.626C63.0406 122.178 63.4686 121.696 63.9156 121.187C66.5648 118.177 69.8482 114.246 72.1059 110.865C76.8551 103.749 82.0686 98.248 82.3874 97.9119L82.3996 97.8997C75.6145 103.309 74.0135 105.522 68.0358 114.228C66.0918 117.059 63.505 119.504 60.8956 121.516C56.2711 125.087 51.5843 127.291 50.3194 127.857C50.3177 127.857 50.3177 127.859 50.316 127.859C50.1202 127.946 50.0058 127.994 49.9902 127.999C53.0033 124.477 55.3389 121.382 57.2119 118.619C66.2339 105.3 64.4718 99.7398 75.9194 91.8337C86.8109 84.3105 99.4558 88.1414 104.328 90.1045C105.364 90.5221 105.725 91.8043 105.059 92.7035C104.69 93.2042 104.351 93.6946 104.044 94.1763C101.5 98.1388 100.974 101.429 101.495 104.094C101.869 106.014 102.789 107.615 103.893 108.909C105.286 110.548 106.972 111.702 108.218 112.414C109.263 113.017 109.999 113.303 109.999 113.303Z" fill="black"/>
<path d="M119.407 97.349C118.657 91.6087 116.713 87.3343 113.626 85.2031C113.567 85.1598 113.504 85.1199 113.445 85.0801C113.43 85.0697 113.414 85.0593 113.399 85.0489C110.938 83.4618 105.468 82.2888 102.855 77.7665C101.762 75.8727 103.405 73.5527 105.557 73.9218C105.586 73.927 105.615 73.9339 105.647 73.9374C106.932 74.147 107.851 75.2819 107.825 76.5866C107.792 78.1807 108.074 79.8839 109.432 79.8509C111.072 79.8076 110.524 77.2034 109.925 75.3582C109.687 74.6218 109.441 74.0101 109.322 73.7225C109.285 73.6324 109.244 73.5441 109.195 73.4574C108.89 72.9134 107.499 69.999 110.826 67.2892C111.662 66.6065 111.999 65.4751 111.652 64.4528C110.969 62.4499 109.238 59.4801 104.865 58.2967C104.574 58.2187 104.299 58.0905 104.053 57.9155C103.391 57.4442 101.965 55.8346 101.464 54.8747C100.263 52.5755 96.6143 52.0609 93.2131 54.8591C92.0072 55.8484 90.9312 57.6435 90.174 59.8232C89.9956 60.3326 89.8344 60.8645 89.6958 61.412C89.0426 63.9694 88.8277 66.8716 89.306 69.5746C89.5225 70.7943 89.8777 71.9726 90.3993 73.0624C93.0831 78.6623 94.6824 79.6621 98.5064 82.2559C99.3519 82.8294 100.239 83.3353 101.164 83.765C102.786 84.5187 105.563 85.8996 107.518 87.3273C108.71 88.1989 108.94 89.8813 108.031 91.0439C106.494 93.0087 104.292 96.3753 104.091 99.7557C104.014 101.031 104.179 102.199 104.539 103.233C105.421 105.77 107.48 107.515 110.044 108.142C110.722 108.308 111.437 108.396 112.174 108.403C116.826 108.428 120.175 103.231 119.407 97.349ZM101.899 68.8382C101.899 68.8382 100.482 68.2785 99.189 67.128C97.6019 65.7159 97.3749 63.3041 98.7507 61.6875C99.7123 60.5578 101.22 59.6846 103.45 60.544C103.45 60.544 107.189 61.4813 108.561 65.1528C108.646 65.3798 108.677 65.6241 108.648 65.8649C108.563 66.5701 108.251 68.0931 107.114 68.8347C106.757 69.0686 106.298 69.053 105.938 68.8295C105.368 68.476 104.384 68.0065 103.612 68.3565C103.611 68.3582 102.138 68.982 101.899 68.8382Z" fill="black"/>
<path d="M97.3213 64.4497C97.3213 64.4497 98.6988 58.6938 103.315 60.3884C103.315 60.3884 107.275 61.3067 108.62 65.297C108.62 65.297 108.62 68.4054 106.449 69.0759C106.449 69.0759 104.796 67.7695 103.659 68.3343C103.659 68.3343 102.213 69.0049 101.972 68.8645C101.972 68.8628 98.3193 67.4853 97.3213 64.4497Z" fill="black"/>
<path d="M78.3777 88.7535C76.7611 89.398 75.1515 90.2418 73.58 91.3265C71.7312 92.6034 70.2117 93.8232 68.9243 95.024C62.2588 96.3183 54.1846 98.4615 45.3238 102.001C44.5476 98.8254 44.1959 95.4658 44.279 92.0109C44.305 90.9158 44.383 89.8347 44.5129 88.7691C49.4441 87.8923 60.9524 86.5617 78.3777 88.7535Z" fill="black"/>
<path d="M67.0604 97.4395C62.2073 102.873 61.0533 108.452 54.4467 118.205C50.5707 114.707 47.7777 110.268 46.1074 105.275C50.6418 103.188 58.2326 99.9847 67.0604 97.4395Z" fill="black"/>
<path d="M89.3978 85.6742C89.3978 85.6742 84.1253 85.5702 79.7053 87.769C79.7053 87.769 61.4778 84.1061 44.3955 87.1452C44.3955 87.1452 48.4083 71.9359 53.7345 69.2988C59.0607 66.6617 89.3978 85.6742 89.3978 85.6742Z" fill="black"/>
<path d="M98.1598 85.9756C98.1598 85.9756 93.3551 85.2341 91.2083 85.4559C91.2083 85.4559 62.1153 66.4313 55.8379 66.9563C55.8379 66.9563 67.587 54.9195 84.1599 59.2061L87.4277 64.8858C87.4277 64.8858 85.8042 76.6955 97.108 82.4532L98.1598 85.9756Z" fill="black"/>
<path d="M67.0603 97.4395C67.0603 97.4395 52.8179 105.72 49.7441 112.751C49.7441 112.751 52.0486 116.246 54.4466 118.205C54.4466 118.205 58.8181 111.696 60.9302 107.122C63.0423 102.547 66.6427 97.4828 67.0603 97.4395Z" fill="black"/>
<path d="M45.3257 102.001C45.3257 102.001 56.2761 87.6127 78.3778 88.7528C78.3778 88.7528 75.7234 89.4372 68.9245 95.025C68.9245 95.0233 55.1897 97.5391 45.3257 102.001Z" fill="black"/>
<path d="M44.3955 87.1472C44.3955 87.1472 64.6329 70.6177 89.3978 85.6762C89.3978 85.6762 84.2726 85.6935 79.7053 87.771C79.7053 87.771 62.6283 84.0718 44.3955 87.1472Z" fill="black"/>
<path d="M98.1598 85.9763C98.1598 85.9763 93.7692 85.375 91.2083 85.4565C91.2083 85.4565 63.1532 66.8702 55.8379 66.9569C55.8379 66.9569 77.3072 62.2285 88.9871 74.1682C88.9871 74.1682 90.4234 78.6298 97.1063 82.4538L98.1598 85.9763Z" fill="black"/>
<path d="M112.933 68.9626C112.522 68.5381 111.864 68.4462 111.365 68.7633C110.985 69.0042 110.573 69.3871 110.321 69.9796C110.321 69.9796 110.318 69.9848 110.313 69.9952C110.228 70.1945 110.162 70.418 110.122 70.6675C110.12 70.6848 110.119 70.7004 110.115 70.716C110.056 71.0903 110.056 71.5235 110.134 72.0225C110.178 72.3014 110.252 72.5942 110.353 72.9026C110.633 73.7742 111.118 74.7496 111.669 75.7788C111.678 75.7962 111.694 75.8222 111.715 75.8585C112.094 76.5655 112.505 77.2984 112.903 78.04C112.908 78.0469 112.912 78.0556 112.915 78.0625C113.468 79.0934 113.996 80.14 114.385 81.1605C114.386 81.164 114.388 81.1674 114.388 81.1691C114.612 81.7582 114.79 82.3404 114.897 82.9035C114.899 82.907 114.899 82.9105 114.899 82.9139C114.901 82.9174 114.901 82.9191 114.901 82.9226C114.932 83.0855 115.168 83.082 115.187 82.9157C115.556 79.9546 116.145 72.2962 112.933 68.9626ZM112.385 70.1217C112.591 69.964 112.931 69.945 113.141 70.3331C113.303 70.6381 113.622 72.6601 113.622 72.6601C113.622 72.6601 112.609 71.1786 112.395 70.9049C112.186 70.6311 112.181 70.2794 112.385 70.1217Z" fill="black"/>
<path d="M114.901 82.9259C114.901 82.9259 113.693 71.2755 110.323 69.9795C110.323 69.9795 109.254 71.7589 111.662 75.7648C111.66 75.7648 114.807 81.2279 114.901 82.9259Z" fill="black"/>
<path d="M105.078 66.0852C104.905 65.9362 104.752 65.7525 104.628 65.5619C104.517 65.3904 104.435 65.2102 104.404 65.0092C104.371 64.7961 104.378 64.576 104.331 64.3647C104.274 64.1065 104.179 63.857 104.045 63.6283C103.818 63.2419 103.474 62.9335 103.049 62.781C102.919 62.7342 102.791 62.7082 102.654 62.6961C102.247 62.6615 101.805 62.5748 101.543 62.2266C101.712 62.4501 101.786 62.7533 101.767 63.0305C101.746 63.3268 101.64 63.6266 101.725 63.9211C101.788 64.136 101.911 64.3317 102.042 64.5119C102.226 64.7632 102.457 64.9797 102.708 65.1617C103.068 65.4233 103.474 65.6174 103.891 65.7681C104.073 65.8339 104.259 65.8911 104.447 65.9414C104.548 65.9691 104.65 65.9934 104.752 66.0176C104.855 66.0401 104.974 66.0817 105.078 66.0852Z" fill="black"/>
<path d="M112.177 108.445C111.441 108.439 110.727 108.351 110.048 108.183C107.483 107.556 105.425 105.813 104.543 103.274C106.88 102.774 120.028 99.2806 113.447 85.123C113.508 85.1629 113.57 85.2045 113.627 85.2461C116.715 87.3772 118.659 91.6517 119.409 97.392C120.18 103.276 116.831 108.472 112.177 108.445Z" fill="black"/>
<path d="M59.5127 125.954C63.0646 122.293 66.6235 118.625 69.7995 114.632C74.5764 108.629 79.9078 98.2121 88.8188 98.4807C91.3745 98.5586 93.873 99.574 95.798 101.249C96.7111 102.045 97.0663 102.75 96.6678 103.919C93.7171 112.609 86.9753 119.934 78.5615 123.596C82.4132 120.605 85.577 116.736 87.7446 112.366C85.9062 115.138 83.2674 117.311 80.4051 119.006C77.541 120.7 74.4413 121.95 71.3467 123.176C76.0838 119.377 80.1365 114.726 83.2518 109.513C77.068 117.018 68.5156 122.275 59.5127 125.954Z" fill="black"/>
<path d="M101.875 98.6879C101.875 98.6879 84.6104 84.0435 63.0718 108.445C63.0718 108.445 69.6749 89.2363 87.4381 87.5591C87.4381 87.5591 95.8744 86.3549 104.328 90.1061C104.328 90.1061 106.075 91.2341 105.059 92.7051C105.059 92.7051 102.367 96.3887 101.875 98.6879Z" fill="black"/>
</svg>
