<svg width="122" height="128" viewBox="0 0 122 128" fill="none" xmlns="http://www.w3.org/2000/svg">
<path d="M117.952 51.7777C117.952 62.765 114.323 73.1811 107.626 81.6745C109.131 80.4903 110.576 79.205 111.952 77.8292C115.728 74.0536 118.805 69.7642 121.111 65.1178C121.261 63.4076 121.334 61.6835 121.337 59.9507C121.337 52.1678 119.861 44.58 116.949 37.3979C114.089 30.343 109.956 23.9759 104.655 18.457C113.239 27.4851 117.952 39.2718 117.952 51.7777Z" fill="black"/>
<path d="M39.6626 13.7108C48.1561 7.01467 58.5722 3.38532 69.556 3.38184C82.0654 3.38532 93.8503 8.0979 102.884 16.6854C103.183 16.971 103.479 17.2601 103.775 17.5561C104.071 17.8522 104.364 18.1517 104.653 18.4548C113.237 27.4846 117.95 39.2695 117.95 51.7754C117.95 62.7628 114.32 73.1788 107.624 81.6723C106.078 82.8913 104.468 84.0129 102.804 85.023C107.349 77.5361 109.778 68.9278 109.778 59.9467C109.778 47.0228 104.744 34.8669 95.604 25.7274C86.4662 16.5896 74.3121 11.5566 61.3847 11.5531C52.4037 11.5531 43.7988 13.9843 36.3154 18.5349C37.3255 16.87 38.4436 15.2573 39.6626 13.7108Z" fill="black"/>
<path d="M18.9909 17.5566C20.3633 16.1843 21.7878 14.8851 23.2716 13.666C19.3985 18.3542 16.2863 23.5631 13.9945 29.2214C11.0792 36.4086 9.60235 43.9947 9.60583 51.7811C9.60583 59.564 11.0792 67.1553 13.991 74.3374C16.8576 81.3923 20.9902 87.7594 26.2914 93.2783C26.577 93.5778 26.8661 93.8739 27.1622 94.1699C27.4582 94.466 27.7578 94.7586 28.0608 95.0477C33.5797 100.351 39.9467 104.482 46.9982 107.345C54.182 110.256 61.7733 111.73 69.5545 111.73C77.3356 111.73 84.9287 110.256 92.1143 107.341C97.7725 105.049 102.98 101.937 107.666 98.0605C106.447 99.5443 105.148 100.969 103.776 102.341C98.0546 108.062 91.3846 112.496 83.943 115.512C76.7592 118.424 69.1644 119.901 61.3832 119.901C53.6003 119.901 46.0125 118.424 38.8304 115.512C31.3889 112.496 24.7153 108.064 18.9909 102.341C13.27 96.6203 8.83956 89.9467 5.82323 82.5052C2.9114 75.3214 1.43458 67.7353 1.43458 59.9524C1.43109 52.166 2.9114 44.5747 5.82323 37.3926C8.83956 29.9528 13.2717 23.2775 18.9909 17.5566Z" fill="black"/>
<path d="M117.952 51.7777C117.952 62.765 114.323 73.1811 107.626 81.6745C109.131 80.4903 110.576 79.205 111.952 77.8292C115.728 74.0536 118.805 69.7642 121.111 65.1178C121.261 63.4076 121.334 61.6835 121.337 59.9507C121.337 52.1678 119.861 44.58 116.949 37.3979C114.089 30.343 109.956 23.9759 104.655 18.457C113.239 27.4851 117.952 39.2718 117.952 51.7777Z" fill="black"/>
<path d="M100.34 103.247C97.7204 104.816 94.9757 106.183 92.1179 107.341C84.9306 110.256 77.341 111.73 69.5581 111.73C61.7752 111.73 54.1839 110.256 47.0018 107.344C39.9504 104.481 33.5834 100.349 28.0645 95.0475C37.0943 103.632 48.8757 108.348 61.3851 108.344C68.973 108.344 76.2926 106.613 82.893 103.334C88.8752 102.829 94.7058 101.428 100.291 99.168C104.129 97.6145 107.764 95.6814 111.163 93.3809C110.084 94.997 108.917 96.5539 107.67 98.0586C105.35 99.9795 102.905 101.711 100.34 103.247Z" fill="black"/>
<path d="M23.2735 13.6654C24.7782 12.4184 26.3351 11.2516 27.9512 10.1719C25.6559 13.5748 23.7228 17.2094 22.1676 21.0477C19.9001 26.6398 18.5034 32.4739 17.9984 38.463C14.7208 45.0582 12.988 52.3691 12.988 59.95C12.988 72.4629 17.7041 84.2443 26.2916 93.2776C20.9886 87.7587 16.8577 81.3917 13.9911 74.3368C11.0793 67.153 9.60596 59.5634 9.60596 51.7805C9.60248 43.9941 11.0793 36.4063 13.9946 29.2207C16.2882 23.5625 19.3986 18.3536 23.2735 13.6654Z" fill="black"/>
<path d="M27.9513 10.172C31.3543 7.87668 34.9888 5.94358 38.8272 4.38839C44.4192 2.12092 50.2533 0.724217 56.239 0.222656C51.5856 2.52844 47.2892 5.60572 43.5101 9.38484C42.1343 10.7606 40.8491 12.2061 39.6648 13.7108C38.4458 15.2573 37.3277 16.8699 36.3176 18.5348C34.6527 19.5449 33.0401 20.663 31.4936 21.8821C29.9889 23.0663 28.5434 24.3515 27.1676 25.7273C23.3885 29.5065 20.3077 33.8063 18.002 38.4597C18.507 32.4705 19.9037 26.6364 22.1712 21.0444C23.7229 17.2078 25.656 13.575 27.9513 10.172Z" fill="black"/>
<path d="M43.5098 9.3851C47.289 5.60598 51.5853 2.5287 56.2387 0.222916C57.9419 0.073144 59.659 0 61.3884 0C69.1713 0 76.7591 1.47682 83.9412 4.38865C90.9996 7.25173 97.3666 11.3844 102.886 16.6856C93.8522 8.09811 82.0673 3.38553 69.5579 3.38205C58.5741 3.38553 48.158 7.01488 39.6646 13.7111C40.847 12.2064 42.134 10.7609 43.5098 9.3851Z" fill="black"/>
<path d="M111.954 77.8276C115.73 74.052 118.807 69.7626 121.113 65.1162C120.608 71.0984 119.211 76.9255 116.95 82.5106C115.397 86.3489 113.464 89.9835 111.163 93.383C107.764 95.6818 104.129 97.6149 100.291 99.1701C94.7059 101.431 88.8752 102.831 82.8931 103.336C87.5395 101.03 91.8323 97.9493 95.608 94.1736C96.9838 92.7978 98.269 91.3523 99.4533 89.8477C100.672 88.3012 101.794 86.692 102.804 85.0271C104.469 84.017 106.078 82.8955 107.625 81.6764C109.131 80.4904 110.578 79.2052 111.954 77.8276Z" fill="black"/>
<path d="M50.4635 107.038C56.4909 108.441 55.0524 106.16 55.1447 103.008C55.2039 100.988 61.5797 85.6882 62.9886 80.8015C64.3975 75.9147 63.9429 72.3969 62.5288 72.7312C61.1147 73.0656 60.8622 80.5002 58.6678 80.4567C56.4735 80.4131 49.0128 66.4165 46.5172 58.1372C44.302 50.788 42.1407 42.0107 38.8283 41.6101C35.5159 41.2078 38.8579 56.9251 44.4012 65.4133C49.0215 72.4874 55.4059 79.1801 55.8431 88.6105C56.4073 100.759 47.7763 107.271 47.9174 91.6111C47.9975 82.6667 44.079 79.0094 44.1922 89.8836C44.3054 100.758 46.357 101.23 46.714 103.065C47.0727 104.901 46.7732 106.177 50.4635 107.038Z" fill="black"/>
<path d="M43.6907 90.9431L43.6333 94.562C43.6333 94.562 35.772 85.7846 33.3391 85.1559C30.9062 84.5273 20.5737 82.932 15.1088 77.1188C9.64385 71.3056 16.2164 70.9886 22.0313 76.0495C27.8463 81.1104 39.0409 86.7616 31.5732 74.4316C24.1055 62.1016 21.9303 55.8356 21.9425 55.078C21.9547 54.3204 22.3065 42.788 24.8108 49.3971C27.3151 56.0062 35.1903 79.9627 37.7452 83.4562C37.9315 83.7105 39.323 87.2144 39.8263 85.8456C40.2077 84.8059 41.9353 76.1 42.146 77.0822C42.6249 79.3183 43.8179 81.6137 43.2501 82.8136C39.8106 90.0862 43.6907 90.9431 43.6907 90.9431Z" fill="black"/>
<path d="M55.5069 102.42C55.5069 102.42 55.3728 107.461 55.7385 107.461C56.4334 107.461 61.099 97.6044 62.9398 96.9252C64.7788 96.246 72.6784 94.1945 76.4662 89.2503C80.254 84.3061 75.1235 84.5777 71.0065 88.9646C66.8895 93.3516 58.6399 98.6214 63.4692 88.4596C68.2984 78.2978 69.4949 73.2595 69.4252 72.6726C69.3556 72.0857 66.2696 71.1209 64.8433 76.45C63.4169 81.7791 60.3101 90.6295 58.4867 94.7796C57.1248 97.8726 55.5069 102.42 55.5069 102.42Z" fill="black"/>
<path d="M44.3698 97.2909C44.3698 97.2909 46.0818 103.562 46.8463 105.123C47.6091 106.681 39.4901 101.955 35.9652 99.2884C32.4404 96.6221 30.9043 90.7601 28.2833 87.385C27.1357 85.9082 24.7358 83.7383 24.7358 83.7383L28.7466 85.276C30.1868 86.2635 32.7225 93.0885 33.0638 93.0032C35.4288 92.4163 30.0371 85.5408 30.0371 85.5408C30.4637 84.9748 32.7695 85.2046 33.9642 87.6149C33.9642 87.6149 36.9248 92.3014 37.5901 93.7764C40.1954 99.5531 46.0278 104.196 41.6879 97.613C37.3497 91.0266 40.9721 89.7082 44.3698 97.2909Z" fill="black"/>
<path d="M51.2766 94.337C48.7427 100.57 53.2689 103.651 55.1672 92.4719C56.7363 83.2278 46.6111 70.5704 43.431 65.055C40.251 59.5396 37.219 51.7131 36.559 44.8306C35.8989 37.9481 29.5075 28.0997 30.9669 38.7805C32.9331 53.1708 43.2081 66.7234 42.7832 67.3782C42.3583 68.033 28.5375 45.468 28.2884 46.7567C28.0394 48.0455 34.7965 61.0442 37.1163 63.7001C39.436 66.3559 48.4188 76.3488 49.9513 82.5173C52.2414 91.7282 51.2766 94.337 51.2766 94.337Z" fill="black"/>
<path d="M23.1842 74.1716C18.3828 62.9179 18.0014 53.1706 18.503 47.2581C19.0045 41.3456 18.395 33.6236 16.0718 27.7407C13.7486 21.8579 15.2777 10.9768 18.4977 20.3044C22.8342 32.8713 19.4086 48.512 20.0634 48.8516C20.7199 49.1912 23.4942 24.6339 24.2605 25.5673C25.0267 26.5008 24.5931 40.123 23.5586 43.3048C22.0435 47.9669 19.9711 52.0264 21.3051 57.7003C24.917 73.0797 32.7191 72.5259 32.8584 80.4951C32.9176 83.8772 24.5513 77.3761 23.1842 74.1716Z" fill="black"/>
<path d="M61.7501 70.9617C63.368 66.054 66.4644 59.9848 70.2714 55.8626C74.0784 51.7404 76.5827 42.5451 70.9088 49.2065C63.2635 58.1806 60.6216 71.7297 59.9946 71.8272C59.3694 71.9247 65.5466 51.3538 64.6341 51.9006C63.7198 52.4475 59.5088 63.5689 59.157 66.4076C58.8052 69.248 56.7432 77.4732 57.297 78.4119C59.7822 82.6317 60.1322 75.8693 61.7501 70.9617Z" fill="black"/>
<path d="M11.7005 48.3984C10.6782 43.3341 10.3665 36.5264 11.6361 31.0598C12.9057 25.5931 10.532 16.363 8.89666 24.9592C6.69188 36.5403 11.098 49.6227 10.6016 50.0163C10.1053 50.4099 5.29866 29.4767 4.77446 30.4032C4.25026 31.3297 6.09279 43.078 7.1917 45.7217C8.2906 48.3636 15.3107 64.6312 15.2097 63.5462C14.5671 56.5819 12.7211 53.4628 11.7005 48.3984Z" fill="black"/>
<path d="M49.044 81.7263C46.9873 76.4982 40.6098 68.2381 38.3423 66.0682C38.3423 66.0682 35.4375 62.4214 33.3163 59.2675C30.5769 55.1958 32.4211 61.5872 33.2327 62.3413C34.3403 63.374 38.0358 67.7366 36.1672 66.6133C31.7646 63.9679 29.7218 54.8196 28.191 54.8301C27.1879 54.8371 28.4 58.1007 28.9276 59.6576C30.7998 65.1922 36.2473 68.8041 37.8843 69.9849C39.6868 71.2841 39.8 72.6128 39.5719 72.9716C39.1539 73.6282 34.5214 69.9866 32.766 68.5725C32.5901 68.4314 32.3463 68.623 32.4386 68.8267L34.0286 72.2924C34.1783 72.6198 34.4361 72.8863 34.7583 73.0465C35.7631 73.548 38.4712 75.159 39.3315 75.1172C42.3095 74.9726 44.53 79.7966 46.8358 83.5653C49.4132 88.6924 47.2973 96.2419 49.6658 96.2419C51.4891 96.2454 50.8134 86.2211 49.044 81.7263Z" fill="black"/>
<path d="M66.8861 62.6168C66.8861 62.6168 69.5036 58.7593 71.3793 55.4521C73.8 51.1837 72.4486 57.697 71.698 58.5103C70.6722 59.6231 67.3215 64.2556 69.0979 62.9947C73.2845 60.0219 74.6237 50.743 76.1511 50.6368C77.1524 50.5672 76.1911 53.9126 75.7853 55.5079C74.3399 61.1678 69.1849 65.1873 67.6419 66.4882C65.944 67.9215 65.9318 69.2538 66.1878 69.5951C66.6545 70.2186 70.9944 66.2339 72.6384 64.6892C72.8021 64.536 73.0616 64.7084 72.9832 64.9191L71.6631 68.4962C71.5378 68.8341 71.3026 69.1179 70.9944 69.3043C70.0313 69.8807 67.7046 70.5878 66.5866 72.2405C62.4313 78.3829 65.3484 72.7002 63.0809 72.4024C59.8382 71.9793 64.1154 67.002 66.8861 62.6168Z" fill="black"/>
<path d="M22.3779 73.2171C23.7363 77.6475 20.8105 74.0791 18.4978 72.9994C18.4978 72.9994 14.9503 69.6835 12.8657 67.6355C5.93785 60.8313 4.64738 60.3506 4.8285 58.1528C5.00787 55.955 14.2902 68.3129 15.0234 68.1144C15.7583 67.9141 4.27295 52.1898 1.11208 47.0924C-2.0488 41.9949 2.05598 43.7486 6.81732 50.6312C11.5787 57.5137 14.6333 65.3227 15.8054 65.0197C16.9774 64.7184 13.8148 56.575 14.0447 53.5395C14.2571 50.7182 16.9582 60.5248 17.4859 61.8483C19.062 65.8034 21.9895 71.991 22.3779 73.2171Z" fill="black"/>
<path d="M63.4221 93.8839C66.7328 93.2117 72.7985 86.7768 75.9803 83.4766C78.7336 80.6204 83.077 70.9323 73.8016 80.873C69.9842 84.9638 78.1467 68.8355 76.9521 69.0271C75.7574 69.2169 69.9232 85.8032 68.5039 86.8725C67.708 87.4716 63.2271 89.7339 62.83 90.8241C61.7206 93.8561 63.2636 93.9153 63.4221 93.8839Z" fill="black"/>
<path d="M57.2014 73.5832C58.1349 65.7986 59.3853 49.6494 59.5281 41.3945C59.6517 34.2508 55.9196 20.9577 55.7455 45.1492C55.6741 55.1056 50.237 30.9384 49.3889 33.629C48.5408 36.3179 56.2592 55.5653 55.89 59.0937C55.6828 61.0703 53.6765 71.765 54.1711 73.0625C55.5487 76.6709 56.7434 77.3937 57.2014 73.5832Z" fill="black"/>
<path d="M45.3417 83.4016C43.8057 90.427 45.4532 97.2625 46.256 101.08C46.5695 102.571 46.0436 101.475 45.9112 101.217C44.6556 98.9343 43.8997 91.949 44.1836 87.3549C44.4414 83.1735 45.3417 83.4016 45.3417 83.4016Z" fill="black"/>
<path d="M31.5053 34.0663C30.7999 45.1737 39.0548 60.8684 39.0548 60.8684C36.4825 55.9486 32.7975 49.0521 31.1761 40.0728C30.025 33.704 31.5053 34.0663 31.5053 34.0663Z" fill="black"/>
<path d="M38.8302 41.6107C39.2761 52.8714 46.6828 68.735 46.6828 68.735C43.2137 64.6685 39.2761 56.5948 37.8654 48.1641C36.5993 40.5971 38.8302 41.6107 38.8302 41.6107Z" fill="black"/>
<path d="M27.9959 54.8301C29.4744 61.2424 31.4807 62.2681 33.3772 64.9693C34.4099 66.4391 34.6537 67.5101 34.6537 67.5101C33.1334 66.2092 31.7907 64.8439 30.131 62.2664C29.4762 61.2494 29.0286 59.9449 28.5723 58.6144C27.308 54.9311 27.9959 54.8301 27.9959 54.8301Z" fill="black"/>
<path d="M31.0787 102.804C27.0279 100.481 21.0074 94.2391 19.4975 92.1109C19.4975 92.1109 16.8504 89.281 14.5133 87.1563C11.4952 84.4116 16.5282 86.7018 17.0507 87.4593C17.7647 88.4955 20.9064 92.0604 20.2098 90.3886C18.5675 86.4492 11.2914 83.6628 11.4847 82.4071C11.6119 81.5834 14.1475 82.9749 15.3649 83.5966C19.6891 85.8049 22.0001 90.7212 22.7733 92.2102C23.6232 93.849 24.7012 94.1033 25.0251 93.9587C25.6155 93.6957 23.1826 89.4464 22.2317 87.8303C22.1377 87.67 22.324 87.4907 22.4807 87.5934L25.1383 89.3193C25.3891 89.483 25.5772 89.725 25.6695 90.0107C25.9603 90.8971 26.9582 93.3196 26.8206 94.0214C26.3417 96.4526 30.039 98.8611 32.8603 101.212C36.7648 103.952 45.8973 104.986 45.3731 105.373C44.1541 106.273 34.5617 104.801 31.0787 102.804Z" fill="black"/>
<path d="M11.5088 82.2467C16.6028 84.2373 17.2036 86.0119 19.1959 87.8979C20.2809 88.9237 21.1307 89.2546 21.1307 89.2546C20.246 87.8474 19.2847 86.5779 17.3656 84.9008C16.608 84.239 15.5892 83.713 14.5512 83.1767C11.6742 81.6929 11.5088 82.2467 11.5088 82.2467Z" fill="black"/>
<path d="M5.40662 52.7365C2.72641 48.3165 2.32586 47.6687 0.64877 44.8265C-0.383957 43.078 0.138498 45.3855 0.138498 45.3855C1.51605 47.9456 3.9838 51.6167 6.48115 55.0249C8.5884 57.8984 5.40662 52.7365 5.40662 52.7365Z" fill="black"/>
<path d="M18.1597 62.4233C16.3137 57.655 15.8609 56.0615 14.6662 53.6895C13.7536 51.8748 13.8895 54.1754 13.8895 54.1754C14.7028 56.9653 16.3537 61.0718 18.0883 64.9241C19.5494 68.1721 18.1597 62.4233 18.1597 62.4233Z" fill="black"/>
<path d="M22.2945 50.3994C24.0604 56.5261 27.3641 64.7409 29.0726 67.5639C30.0025 69.1 28.3394 67.7555 28.3394 67.7555C26.3819 65.9513 22.7717 58.4575 21.948 55.1729C21.8243 54.6679 22.2945 50.3994 22.2945 50.3994Z" fill="black"/>
<path d="M68.3701 72.2475C67.2068 78.2489 63.6854 84.8266 62.0222 88.341C61.1166 90.255 63.1246 88.7468 63.1246 88.7468C64.8748 85.6747 66.8724 81.0475 68.5199 76.2687C69.2095 74.2712 69.6048 73.0347 69.3384 72.514C69.1677 72.1814 68.3701 72.2475 68.3701 72.2475Z" fill="black"/>
<path d="M63.3037 73.0938C63.5824 77.66 62.2553 80.0494 60.9022 83.6962C60.1655 85.6815 60.8308 86.6881 60.8308 86.6881C62.1926 83.2416 61.7816 84.6453 63.2811 79.7412C63.8993 77.721 63.9516 74.1056 63.6416 73.611C63.4413 73.2923 63.3037 73.0938 63.3037 73.0938Z" fill="black"/>
<path d="M75.9837 54.2168C74.4913 58.541 74.7769 57.6824 72.1297 60.5316C70.6895 62.0815 70.437 64.861 73.4707 60.4428C74.6672 58.7012 76.1945 55.401 76.097 54.8246C76.0343 54.4536 75.9837 54.2168 75.9837 54.2168Z" fill="black"/>
<path d="M23.4489 84.8563C23.4489 84.8563 27.8636 88.1548 28.6142 89.447C30.8382 93.2662 32.3359 96.124 33.1422 97.3483C33.9485 98.5726 34.3073 98.8826 34.3073 98.8826C34.3073 98.8826 31.0297 95.2846 29.8368 93.4055C28.3913 91.131 25.584 88.1339 23.5603 86.8347C21.5367 85.5355 21.2998 84.3408 21.2998 84.3408L23.4489 84.8563Z" fill="black"/>
<path d="M76.4839 102.821C76.4839 102.821 73.1575 115.992 65.2336 122.271C57.3096 128.549 52.6336 128.138 47.2802 127.88C44.6174 127.753 39.1873 127.098 39.7184 125.203C40.3193 123.054 43.872 124.08 49.6138 118.49C52.9662 115.226 59.3908 107.419 64.4307 104.946C67.0587 103.657 69.6466 102.83 71.268 102.67C74.5455 102.346 76.4839 102.821 76.4839 102.821Z" fill="black"/>
<path d="M68.5025 103.295C68.5025 103.295 64.2375 105.477 62.0136 108.892C59.7897 112.309 57.9576 118.35 53.6037 121.621C49.4537 124.738 39.7168 125.202 39.7168 125.202C39.7151 123.41 44.6296 123.223 48.562 119.462C50.7511 117.368 58.9764 107.847 63.7307 105.315" fill="black"/>
<path d="M107.534 78.4067C107.711 77.017 108.03 76.2995 109.171 76.2838C109.192 76.2838 109.214 76.2855 109.235 76.2855C109.176 76.2768 109.118 76.2699 109.064 76.2646C108.009 76.3273 107.704 77.0483 107.534 78.4067Z" fill="black"/>
<path d="M82.7672 54.1853C73.0216 39.546 60.2562 35.5161 58.4537 34.3545C58.3701 36.1309 63.2742 41.8883 65.6009 44.4083C72.1682 51.519 71.557 53.6768 70.4929 56.9247C69.3086 60.5401 69.4079 60.6673 66.8217 63.8734C65.5226 65.4843 64.1467 69.1659 63.8176 72.3059C63.532 75.0279 63.9447 77.1456 65.5434 77.5949C68.1 78.3124 70.4232 75.0227 72.6088 73.7339C74.1362 72.8318 76.4959 71.8932 78.321 72.6089C79.8588 73.2115 81.1702 74.6988 81.4645 77.9868C81.9278 83.1713 82.3213 89.4843 79.4234 99.3118C77.7463 105 75.0452 110.424 72.9554 114.15C77.2848 107.466 84.6968 95.4369 87.4519 87.4676C91.3459 76.1982 88.5665 62.8982 82.7672 54.1853Z" fill="black"/>
<path d="M70.0399 118.953C70.0277 118.971 70.0173 118.988 70.0068 119.002C70.0208 118.987 70.0382 118.969 70.0556 118.948C70.0486 118.95 70.0452 118.952 70.0399 118.953Z" fill="black"/>
<path d="M106.109 87.0745C102.493 98.9621 94.2507 105.942 90.8059 108.673C81.372 116.151 70.5363 118.828 69.9703 119.054C69.9528 119.08 69.9424 119.094 69.9424 119.092C69.9319 118.997 81.1091 116.381 90.8024 108.697C94.2454 105.967 102.49 98.9865 106.105 87.0988C106.71 85.1135 107.009 83.3911 107.187 81.9404C107.009 83.3859 106.708 85.0996 106.109 87.0745Z" fill="black"/>
<path d="M100.614 45.8386C100.773 46.0423 100.924 46.2443 101.076 46.4481C100.994 46.1677 100.928 45.9848 100.894 45.8978C100.886 45.8856 100.877 45.8734 100.868 45.8629C97.5751 41.6223 92.7075 37.3434 86.9187 35.9589C84.8236 35.4573 83.1448 35.203 81.7969 35.0898C83.1013 35.2135 84.6983 35.466 86.6645 35.9362C92.4516 37.3173 97.3209 41.5979 100.614 45.8386Z" fill="black"/>
<path d="M118.291 76.2471C118.04 77.9921 117.282 78.6678 116.093 78.6173C116.006 78.6225 115.917 78.6225 115.825 78.619C115.901 78.6295 115.974 78.6382 116.046 78.6417C117.267 78.7113 118.04 78.0339 118.291 76.2471Z" fill="black"/>
<path d="M76.2854 35.182C76.3707 35.2151 76.4769 35.2273 76.6058 35.2256C76.5832 35.2203 76.5605 35.2134 76.5396 35.2047C72.4348 33.6112 68.8769 32.5453 67.1876 32.2597C66.9351 32.2179 66.5676 32.1709 66.1235 32.1309C66.4544 32.1639 66.7331 32.2005 66.9351 32.2353C68.6244 32.5227 72.1823 33.5885 76.2854 35.182Z" fill="black"/>
<path d="M81.797 35.0878C78.7406 34.7987 77.3108 35.2184 76.6055 35.2254C77.1854 35.3699 78.5037 34.8092 81.797 35.0878Z" fill="black"/>
<path d="M109.233 76.2861C110.844 76.5334 114.125 78.5223 115.792 78.618C115.802 78.618 115.813 78.618 115.825 78.618C114.002 78.3673 110.665 76.3279 109.233 76.2861Z" fill="black"/>
<path d="M66.1236 32.1327C63.8857 31.9081 59.1679 31.8593 58.2414 34.1041C58.2153 34.1686 58.2902 34.2504 58.4539 34.3549C58.4574 34.2713 58.4696 34.1929 58.4957 34.1268C59.3874 31.9655 63.8004 31.9307 66.1236 32.1327Z" fill="black"/>
<path d="M69.688 119.07C69.6863 119.06 69.8099 119.021 70.0398 118.953C70.3707 118.464 71.5184 116.707 72.9534 114.148C71.0116 117.147 69.688 119.072 69.688 119.07Z" fill="black"/>
<path d="M96.5951 78.2674C103.866 59.0514 101.806 48.9296 101.076 46.4479C100.925 46.2442 100.771 46.0404 100.615 45.8384C97.3213 41.5978 92.4538 37.3188 86.6649 35.9343C84.6987 35.4641 83.1017 35.2116 81.7973 35.0879C78.5024 34.8093 77.1858 35.3701 76.6058 35.2255C76.477 35.2273 76.3707 35.2151 76.2854 35.182C72.1806 33.5885 68.6227 32.5227 66.9334 32.2371C66.7314 32.2022 66.4545 32.1656 66.1218 32.1326C63.8004 31.9305 59.3856 31.9654 58.4939 34.1284C58.4678 34.1945 58.4556 34.2712 58.4521 34.3565C60.2564 35.5181 73.0218 39.548 82.7656 54.1873C88.5649 62.8984 91.3444 76.2002 87.4486 87.4662C84.6935 95.4354 77.2816 107.464 72.9521 114.148C71.5154 116.708 70.3677 118.464 70.0385 118.953C70.0438 118.951 70.049 118.95 70.0542 118.948C71.5989 117.243 89.4287 97.2065 96.5951 78.2674ZM87.9223 45.1261C86.3601 44.9781 84.8015 42.7959 84.5611 42.324C84.8241 42.209 86.9436 43.0328 87.5392 43.4159C89.5454 44.6472 88.7025 45.1993 87.9223 45.1261Z" fill="black"/>
<path d="M101.076 46.4481C100.924 46.2444 100.771 46.0406 100.614 45.8386C97.321 41.5997 92.4534 37.319 86.6663 35.9345C84.6984 35.4643 83.1032 35.2118 81.7988 35.0899C78.5055 34.8112 77.1872 35.372 76.6073 35.2275C76.4784 35.2292 76.3721 35.217 76.2885 35.1839C72.1838 33.5922 68.6258 32.5246 66.9365 32.239C66.7328 32.2042 66.4559 32.1676 66.125 32.1345C63.8035 31.9325 59.3905 31.9673 58.4988 34.1303C58.471 34.1947 58.4605 34.2731 58.457 34.3567C60.2613 35.5183 73.0267 39.5482 82.7705 54.1875C88.5716 62.8986 91.3493 76.1987 87.4535 87.4646C84.6984 95.4339 77.2864 107.463 72.9587 114.147C71.522 116.707 70.3743 118.462 70.0434 118.951C70.0487 118.95 70.0539 118.948 70.0608 118.946C71.6038 117.241 89.4336 97.205 96.6 78.2659C103.867 59.0516 101.805 48.9298 101.076 46.4481ZM87.9202 45.1263C86.3581 44.98 84.7994 42.7962 84.5591 42.3242C84.822 42.2093 86.9415 43.0313 87.5371 43.4161C89.5433 44.6491 88.7022 45.1995 87.9202 45.1263Z" fill="black"/>
<path d="M87.9202 45.1265C86.3581 44.9802 84.7994 42.7963 84.5591 42.3244C84.8221 42.2095 86.9415 43.0315 87.5371 43.4163C89.5433 44.6493 88.7022 45.1997 87.9202 45.1265Z" fill="black"/>
<path d="M116.05 78.6179C114.264 78.5152 110.625 76.2407 109.172 76.2599C109.134 76.2599 109.099 76.2651 109.062 76.2668C109.116 76.2703 109.174 76.279 109.233 76.2877C110.665 76.3295 114.001 78.3671 115.825 78.6197C115.917 78.6231 116.006 78.6231 116.093 78.6179C116.079 78.6179 116.065 78.6179 116.05 78.6179Z" fill="black"/>
<path d="M116.05 78.6179C114.264 78.5152 110.625 76.2407 109.172 76.2599C109.134 76.2599 109.099 76.2651 109.062 76.2668C109.116 76.2703 109.174 76.279 109.233 76.2877C110.665 76.3295 114.001 78.3671 115.825 78.6197C115.917 78.6231 116.006 78.6231 116.093 78.6179C116.079 78.6179 116.065 78.6179 116.05 78.6179Z" fill="black"/>
<path d="M106.859 56.6814C108.019 57.9249 110.886 61.3278 111.154 61.6674C112.305 63.1216 115.078 66.5524 116.873 70.1156C117.274 70.9097 118.533 73.8215 118.333 75.8992C118.32 76.0194 118.307 76.136 118.291 76.2475C118.308 76.1273 118.322 76.0037 118.336 75.8731C118.535 73.7937 117.277 70.8836 116.877 70.0894C115.081 66.5263 112.309 63.0937 111.158 61.6413C110.889 61.3017 108.023 57.8987 106.863 56.6553C105.929 53.996 104.014 49.8807 100.872 45.8369C100.872 45.8369 100.881 45.8578 100.896 45.8979C104.019 49.9295 105.928 54.0291 106.859 56.6814Z" fill="black"/>
<path d="M69.9458 119.068C69.9458 119.066 69.9545 119.061 69.9702 119.054C69.9789 119.04 69.9911 119.023 70.005 119.002C69.9667 119.045 69.9458 119.068 69.9458 119.068Z" fill="black"/>
<path d="M107.534 78.4072C107.419 79.3059 107.365 80.4866 107.187 81.9408C107.365 80.4884 107.42 79.3076 107.534 78.4072Z" fill="black"/>
<path d="M106.605 56.6574C107.765 57.9008 110.631 61.3038 110.9 61.6434C112.051 63.0976 114.823 66.5284 116.619 70.0915C117.019 70.8857 118.278 73.7975 118.078 75.8752C117.897 77.7578 117.213 78.5589 116.093 78.6163C117.282 78.6668 118.04 77.9929 118.291 76.2461C118.306 76.1347 118.32 76.018 118.332 75.8978C118.531 73.8184 117.274 70.9083 116.873 70.1142C115.078 66.551 112.305 63.1185 111.154 61.666C110.886 61.3264 108.019 57.9235 106.859 56.68C105.928 54.0294 104.021 49.9299 100.895 45.8965C100.928 45.9836 100.992 46.1664 101.076 46.4468C103.942 50.2921 105.717 54.1322 106.605 56.6574Z" fill="black"/>
<path d="M106.605 56.6574C107.765 57.9008 110.631 61.3038 110.9 61.6434C112.051 63.0976 114.823 66.5284 116.619 70.0915C117.019 70.8857 118.278 73.7975 118.078 75.8752C117.897 77.7578 117.213 78.5589 116.093 78.6163C117.282 78.6668 118.04 77.9929 118.291 76.2461C118.306 76.1347 118.32 76.018 118.332 75.8978C118.531 73.8184 117.274 70.9083 116.873 70.1142C115.078 66.551 112.305 63.1185 111.154 61.666C110.886 61.3264 108.019 57.9235 106.859 56.68C105.928 54.0294 104.021 49.9299 100.895 45.8965C100.928 45.9836 100.992 46.1664 101.076 46.4468C103.942 50.2921 105.717 54.1322 106.605 56.6574Z" fill="black"/>
<path d="M109.063 76.2669C109.012 76.2635 108.962 76.2617 108.916 76.2617C106.304 76.2965 107.998 80.0217 105.851 87.0766C102.236 98.9643 93.9931 105.944 90.5483 108.675C81.8929 115.537 72.055 118.356 70.0558 118.95C70.0384 118.971 70.0209 118.988 70.007 119.004C69.9931 119.025 69.9809 119.042 69.9722 119.056C70.5382 118.83 81.374 116.153 90.8078 108.675C94.2508 105.944 102.495 98.9643 106.111 87.0766C106.711 85.1017 107.011 83.3881 107.189 81.9443C107.366 80.4902 107.42 79.3094 107.535 78.4108C107.704 77.0489 108.009 76.3279 109.063 76.2669Z" fill="black"/>
<path d="M109.063 76.2669C109.012 76.2635 108.962 76.2617 108.916 76.2617C106.304 76.2965 107.998 80.0217 105.851 87.0766C102.236 98.9643 93.9931 105.944 90.5483 108.675C81.8929 115.537 72.055 118.356 70.0558 118.95C70.0384 118.971 70.0209 118.988 70.007 119.004C69.9931 119.025 69.9809 119.042 69.9722 119.056C70.5382 118.83 81.374 116.153 90.8078 108.675C94.2508 105.944 102.495 98.9643 106.111 87.0766C106.711 85.1017 107.011 83.3881 107.189 81.9443C107.366 80.4902 107.42 79.3094 107.535 78.4108C107.704 77.0489 108.009 76.3279 109.063 76.2669Z" fill="black"/>
<path d="M118.078 75.8768C118.277 73.7974 117.019 70.8873 116.619 70.0932C114.823 66.53 112.051 63.0975 110.9 61.645C110.632 61.3054 107.765 57.9025 106.605 56.659C105.719 54.1338 103.942 50.2937 101.076 46.4502C101.805 48.9319 103.866 59.0536 96.5948 78.2697C89.4284 97.2088 71.5987 117.245 70.0557 118.95C72.0549 118.356 81.8928 115.537 90.5482 108.675C93.9912 105.944 102.236 98.9643 105.851 87.0766C107.997 80.0216 106.304 76.2965 108.916 76.2617C108.963 76.2617 109.012 76.2634 109.062 76.2669C109.099 76.2652 109.134 76.2599 109.172 76.2599C110.625 76.2408 114.263 78.5152 116.049 78.618C116.065 78.618 116.079 78.618 116.093 78.618C117.211 78.5588 117.897 77.7594 118.078 75.8768Z" fill="black"/>
<path d="M118.078 75.8768C118.277 73.7974 117.019 70.8873 116.619 70.0932C114.823 66.53 112.051 63.0975 110.9 61.645C110.632 61.3054 107.765 57.9025 106.605 56.659C105.719 54.1338 103.942 50.2937 101.076 46.4502C101.805 48.9319 103.866 59.0536 96.5948 78.2697C89.4284 97.2088 71.5987 117.245 70.0557 118.95C72.0549 118.356 81.8928 115.537 90.5482 108.675C93.9912 105.944 102.236 98.9643 105.851 87.0766C107.997 80.0216 106.304 76.2965 108.916 76.2617C108.963 76.2617 109.012 76.2634 109.062 76.2669C109.099 76.2652 109.134 76.2599 109.172 76.2599C110.625 76.2408 114.263 78.5152 116.049 78.618C116.065 78.618 116.079 78.618 116.093 78.618C117.211 78.5588 117.897 77.7594 118.078 75.8768Z" fill="black"/>
<path d="M118.078 75.8768C118.277 73.7974 117.019 70.8873 116.619 70.0932C114.823 66.53 112.051 63.0975 110.9 61.645C110.632 61.3054 107.765 57.9025 106.605 56.659C105.719 54.1338 103.942 50.2937 101.076 46.4502C101.805 48.9319 103.866 59.0536 96.5948 78.2697C89.4284 97.2088 71.5987 117.245 70.0557 118.95C72.0549 118.356 81.8928 115.537 90.5482 108.675C93.9912 105.944 102.236 98.9643 105.851 87.0766C107.997 80.0216 106.304 76.2965 108.916 76.2617C108.963 76.2617 109.012 76.2634 109.062 76.2669C109.099 76.2652 109.134 76.2599 109.172 76.2599C110.625 76.2408 114.263 78.5152 116.049 78.618C116.065 78.618 116.079 78.618 116.093 78.618C117.211 78.5588 117.897 77.7594 118.078 75.8768Z" fill="black"/>
</svg>
