<svg width="29" height="32" viewBox="0 0 29 32" fill="none" xmlns="http://www.w3.org/2000/svg">
<path d="M15.3165 0.0270014C17.0616 0 18.7967 0.0160009 20.5297 0C20.6348 2.04111 21.3688 4.12022 22.8629 5.5633C24.354 7.04238 26.4631 7.71941 28.5152 7.94842V13.3177C26.5921 13.2547 24.66 12.8547 22.9149 12.0266C22.1548 11.6826 21.4468 11.2396 20.7538 10.7866C20.7448 14.6828 20.7698 18.574 20.7288 22.4542C20.6248 24.3183 20.0097 26.1734 18.9257 27.7095C17.1816 30.2666 14.1544 31.9337 11.0452 31.9857C9.13814 32.0947 7.23304 31.5747 5.60795 30.6166C2.91481 29.0285 1.01971 26.1214 0.743693 23.0012C0.708926 22.3404 0.703587 21.6784 0.727692 21.0171C0.967705 18.48 2.22277 16.0529 4.17088 14.4018C6.37899 12.4787 9.47216 11.5626 12.3683 12.1046C12.3953 14.0798 12.3163 16.0529 12.3163 18.028C10.9932 17.5999 9.44716 17.7199 8.2911 18.523C7.44529 19.0802 6.80612 19.9 6.472 20.8561C6.19598 21.5322 6.27499 22.2832 6.29099 23.0012C6.60801 25.1893 8.71212 27.0284 10.9582 26.8294C12.4473 26.8134 13.8744 25.9494 14.6504 24.6843C14.9014 24.2413 15.1825 23.7883 15.1975 23.2672C15.3285 20.8821 15.2765 18.507 15.2925 16.1219C15.3035 10.7466 15.2765 5.38629 15.3175 0.0280015L15.3165 0.0270014Z" fill="#F8F8F8"/>
</svg>
