<svg width="804" height="807" viewBox="0 0 804 807" fill="none" xmlns="http://www.w3.org/2000/svg">
<path d="M732.31 333.68C732.31 392.07 713.02 447.42 677.44 492.55C685.44 486.26 693.12 479.42 700.43 472.11C720.5 452.04 736.84 429.25 749.1 404.56C749.9 395.47 750.28 386.31 750.3 377.11C750.3 335.75 742.45 295.43 726.97 257.26C711.77 219.77 689.82 185.93 661.64 156.61C707.27 204.59 732.31 267.22 732.31 333.68Z" fill="url(#paint0_linear)"/>
<path d="M316.29 131.4C361.42 95.82 416.77 76.53 475.14 76.51C541.62 76.53 604.24 101.58 652.25 147.21C653.84 148.73 655.42 150.26 656.99 151.84C658.56 153.42 660.12 155.01 661.65 156.62C707.26 204.6 732.31 267.23 732.31 333.69C732.31 392.08 713.02 447.43 677.44 492.56C669.22 499.04 660.67 505 651.82 510.37C675.98 470.59 688.88 424.84 688.88 377.12C688.88 308.44 662.13 243.85 613.55 195.27C564.99 146.71 500.4 119.96 431.7 119.94C383.98 119.94 338.25 132.86 298.49 157.04C303.87 148.19 309.81 139.61 316.29 131.4Z" fill="url(#paint1_linear)"/>
<path d="M206.44 151.83C213.73 144.54 221.31 137.63 229.19 131.15C208.6 156.07 192.07 183.74 179.89 213.81C164.4 252 156.55 292.32 156.56 333.7C156.56 375.06 164.39 415.39 179.87 453.57C195.11 491.06 217.06 524.9 245.24 554.22C246.76 555.81 248.29 557.39 249.87 558.96C251.45 560.53 253.04 562.09 254.65 563.63C283.97 591.81 317.81 613.76 355.28 628.98C393.45 644.46 433.79 652.29 475.15 652.29C516.51 652.29 556.84 644.46 595.04 628.96C625.1 616.78 652.78 600.25 677.68 579.64C671.2 587.53 664.3 595.1 657 602.39C626.6 632.79 591.15 656.35 551.61 672.38C513.44 687.86 473.08 695.71 431.72 695.71C390.36 695.71 350.04 687.86 311.87 672.38C272.33 656.35 236.86 632.8 206.44 602.39C176.04 571.99 152.5 536.52 136.46 496.98C120.98 458.81 113.13 418.49 113.13 377.13C113.11 335.76 120.98 295.42 136.46 257.24C152.49 217.7 176.04 182.23 206.44 151.83Z" fill="url(#paint2_linear)"/>
<path d="M732.31 333.68C732.31 392.07 713.02 447.42 677.44 492.55C685.44 486.26 693.12 479.42 700.43 472.11C720.5 452.04 736.84 429.25 749.1 404.56C749.9 395.47 750.28 386.31 750.3 377.11C750.3 335.75 742.45 295.43 726.97 257.26C711.77 219.77 689.82 185.93 661.64 156.61C707.27 204.59 732.31 267.22 732.31 333.68Z" fill="url(#paint3_linear)"/>
<path d="M254.64 563.62C302.62 609.23 365.23 634.3 431.71 634.28C472.03 634.28 510.92 625.08 546 607.66C577.79 604.98 608.77 597.53 638.45 585.52C658.85 577.26 678.16 566.99 696.23 554.77C690.49 563.36 684.29 571.63 677.66 579.63C652.76 600.23 625.09 616.77 595.02 628.95C556.83 644.44 516.49 652.28 475.13 652.28C433.77 652.28 393.44 644.45 355.26 628.97C317.81 613.75 283.97 591.79 254.64 563.62Z" fill="url(#paint4_linear)"/>
<path d="M229.19 131.15C237.19 124.52 245.46 118.32 254.05 112.58C241.85 130.67 231.58 149.97 223.32 170.38C211.27 200.09 203.85 231.1 201.16 262.92C183.74 297.96 174.54 336.82 174.54 377.1C174.54 443.6 199.61 506.2 245.24 554.21C217.06 524.89 195.11 491.05 179.87 453.56C164.39 415.39 156.56 375.05 156.56 333.69C156.54 292.32 164.39 252 179.89 213.8C192.07 183.75 208.6 156.07 229.19 131.15Z" fill="url(#paint5_linear)"/>
<path d="M254.05 112.59C272.14 100.39 291.44 90.12 311.85 81.86C341.56 69.81 372.57 62.39 404.37 59.72C379.64 71.98 356.81 88.32 336.73 108.41C329.42 115.72 322.59 123.4 316.29 131.4C309.81 139.62 303.87 148.19 298.5 157.04C289.65 162.41 281.08 168.35 272.86 174.83C264.86 181.12 257.18 187.96 249.87 195.27C229.78 215.36 213.42 238.2 201.16 262.93C203.84 231.11 211.27 200.1 223.32 170.39C231.58 149.98 241.85 130.67 254.05 112.59Z" fill="url(#paint6_linear)"/>
<path d="M336.73 108.4C356.82 88.31 379.64 71.97 404.37 59.71C413.42 58.91 422.55 58.53 431.73 58.53C473.09 58.53 513.41 66.38 551.58 81.86C589.09 97.08 622.93 119.03 652.25 147.21C604.25 101.58 541.62 76.53 475.14 76.51C416.77 76.53 361.42 95.82 316.29 131.4C322.58 123.4 329.41 115.72 336.73 108.4Z" fill="url(#paint7_linear)"/>
<path d="M700.43 472.11C720.5 452.04 736.84 429.25 749.1 404.56C746.42 436.35 738.99 467.32 726.98 496.99C718.72 517.39 708.45 536.7 696.23 554.77C678.16 566.99 658.85 577.26 638.45 585.52C608.77 597.53 577.79 604.98 546 607.66C570.7 595.4 593.5 579.04 613.57 558.97C620.88 551.66 627.71 543.98 634.01 535.98C640.49 527.76 646.45 519.21 651.82 510.36C660.67 504.99 669.22 499.03 677.44 492.55C685.44 486.26 693.12 479.42 700.43 472.11Z" fill="url(#paint8_linear)"/>
<path d="M474.86 665.63C445.19 751.18 454.64 805.98 454.81 806.95C454.79 806.94 454.74 806.91 454.66 806.87C454.62 806.85 454.58 806.82 454.53 806.8C449.13 803.74 370.3 756.73 386.74 641.54C394.76 582.86 373.79 525.73 354.17 495.5C334.55 465.26 353.06 426.29 348.93 402.51C344.81 378.74 333.35 344.92 333.35 344.92L362.81 358.05L345.14 304.83L381.34 323.63L368.07 281.34L440.85 371.56C440.85 371.56 428.28 419.88 486.42 397.98C486.42 397.98 500.56 473.47 427.49 472.71C427.49 472.71 411.95 435.93 392.5 440.4C392.5 440.4 395.78 469.78 422.15 493.95C422.16 493.96 422.16 493.96 422.16 493.97C427.31 498.69 433.32 503.21 440.38 507.27C483.58 532.16 504.81 579.31 474.86 665.63Z" fill="url(#paint9_linear)"/>
<path d="M546.39 326.64L552.64 314.96C552.64 314.96 526.12 271.65 459.3 262.48C459.3 262.48 459.3 232.42 413.16 219.68L421.64 245.16L374.45 241.08L368.61 270.12L448.7 366.94C448.7 366.94 482.11 346.04 490.07 388.34C490.07 388.34 547.87 391.39 543.1 332.8V332.79L546.39 326.64ZM433.67 266C440 266.49 444.88 271.35 456.58 274.28C456.58 274.28 450.12 276.72 458.94 295.23C458.94 295.23 449.8 293.77 437.11 280.12C430.44 272.95 428.08 270.49 427.35 269.77C427.4 269.06 427.97 265.55 433.67 266Z" fill="url(#paint10_linear)"/>
<path d="M474.86 665.63C445.19 751.18 454.64 805.98 454.81 806.95C454.79 806.94 454.74 806.91 454.66 806.87C454.62 806.85 454.58 806.82 454.53 806.8C450.66 804.49 400.29 758.17 432.2 671.15C464.81 582.19 424.63 499.01 422.16 493.96C427.31 498.68 433.32 503.2 440.38 507.26C483.58 532.16 504.81 579.31 474.86 665.63Z" fill="url(#paint11_linear)"/>
<path d="M313.03 688.73C304.61 646.65 229.05 628.96 225.68 574.26C213.15 374.59 313.22 343.29 314.69 342.85H314.7C314.7 342.85 314.7 342.85 314.7 342.86C276.83 396.72 253.27 489.28 291.98 549.03C330.71 608.77 313.03 688.73 313.03 688.73Z" fill="url(#paint12_linear)"/>
<path d="M313.03 688.73C309.12 615.83 283.78 607.24 261.86 564.86C203.59 452.2 313.12 344.15 314.7 342.84H314.71C314.71 342.84 314.71 342.84 314.71 342.85C276.84 396.71 253.28 489.27 291.99 549.02C330.71 608.77 313.03 688.73 313.03 688.73Z" fill="url(#paint13_linear)"/>
<path d="M363 682.3C362.98 682.39 362.96 682.44 362.96 682.44C366.67 631.41 315.66 577.07 296.51 502.88C277.36 428.7 322.81 374.43 322.81 374.43C322.81 374.43 318.18 400.02 320.33 433.14C321.86 456.82 326.86 484.35 339.5 509.14C387 602.34 364.16 678.61 363 682.3Z" fill="url(#paint14_linear)"/>
<path d="M363 682.3C371.96 631.97 327.01 572.6 315.77 496.88C312.17 472.68 314.93 451.18 320.33 433.14C321.86 456.82 326.86 484.35 339.5 509.14C387 602.34 364.16 678.61 363 682.3Z" fill="url(#paint15_linear)"/>
<path d="M403.32 188.72C403.15 192.01 402.89 195.04 402.56 197.86C402.56 197.89 402.55 197.91 402.55 197.93C398.93 228.23 386.24 231.94 376.76 230.13C374.18 229.63 371.76 228.7 369.57 227.39C367.03 225.89 364.79 223.9 362.97 221.58C353.39 209.35 317.11 171.78 232.99 170.93C132.48 169.91 124.83 117.12 77.9897 93.67C77.9897 93.67 109.93 89.06 166.87 126.71C203.12 150.68 304.36 138.92 352.52 191.21C352.53 191.23 352.54 191.23 352.54 191.24C352.19 190.44 329.55 140.55 263.15 132.81C182.67 123.42 174.81 84.52 174.81 84.52C174.81 84.52 216.61 111.97 257.34 111.97C298.05 111.98 406.5 126.72 403.32 188.72Z" fill="url(#paint16_linear)"/>
<path d="M403.32 188.72C403.15 192.01 402.89 195.04 402.56 197.86C402.56 197.89 402.55 197.91 402.55 197.93C402.54 197.87 402.53 197.83 402.52 197.77C395.17 151.43 327.87 124.04 277.4 122.74C212.47 121.07 174.79 84.53 174.79 84.53C174.79 84.53 216.59 111.98 257.32 111.98C298.05 111.98 406.5 126.72 403.32 188.72Z" fill="url(#paint17_linear)"/>
<path d="M352.54 191.26C265.23 143.01 204.07 175.17 157.62 137.95C126.96 113.38 77.9897 93.6801 77.9897 93.6801C77.9897 93.6801 109.93 89.07 166.87 126.72C203.12 150.69 304.36 138.93 352.52 191.22C352.53 191.25 352.54 191.26 352.54 191.26Z" fill="url(#paint18_linear)"/>
<path d="M402.56 197.86C402.56 197.89 402.55 197.91 402.55 197.93C398.93 228.23 386.24 231.94 376.76 230.13C374.18 229.63 371.76 228.7 369.57 227.39C368.89 224.34 368.46 220.65 368.32 216.21C366.79 166.01 326.69 145.5 326.69 145.5C372.23 151.03 393.12 177.55 402.53 197.77C402.54 197.8 402.55 197.83 402.56 197.86Z" fill="url(#paint19_linear)"/>
<path d="M362.13 268.22L348.33 262.54C348.33 262.54 352.4 297.77 319.93 318.09C287.47 338.41 216.97 368.21 198.46 596.07L198.44 596.03C197.43 593.94 152.45 500 203.06 379.11C209.92 365.93 219.38 355.08 229.96 345.63C267.66 311.97 319.58 296.07 318.78 256.01L300.85 244.43C300.85 244.43 299.65 282.16 273.92 295.73C248.18 309.3 175.14 353.17 138.01 512.93C138.01 512.93 79.8199 365.83 216.02 275.15C214.27 275.75 158.07 295.54 111.42 366.87C111.41 366.88 111.41 366.89 111.41 366.89C111.41 366.89 123.42 275.84 225.53 238.63C225.25 238.67 222.83 238.99 218.65 239.7C197.67 243.23 132.45 256.33 73.2499 290.43C46.8299 305.65 21.6099 325.05 2.04993 349.66C1.56993 350.27 1.08986 350.87 0.609863 351.49C1.07986 349.64 31.7198 231.09 114.96 201.95C114.96 201.95 270.74 133.11 369.35 238.58L362.13 268.22Z" fill="url(#paint20_linear)"/>
<path d="M369.36 238.54L362.13 268.22C362.13 268.22 343.9 230.01 238.95 213.19C86.2398 190.29 14.8399 330.63 2.05994 349.63C1.42994 350.56 0.949863 351.19 0.609863 351.48C0.619863 351.47 0.619873 351.47 0.619873 351.46C1.08987 349.61 31.7299 231.06 114.97 201.92C114.98 201.91 270.76 133.07 369.36 238.54Z" fill="url(#paint21_linear)"/>
<path d="M290.34 239.73C269.77 233.18 244.66 234.33 218.67 239.67C197.69 243.2 132.47 256.3 73.27 290.4C169.92 183.5 292.89 240.54 290.34 239.73Z" fill="url(#paint22_linear)"/>
<path d="M138.02 512.92C138.02 512.92 79.8299 365.82 216.03 275.14C214.28 275.74 158.08 295.53 111.43 366.86C111.99 365.38 142.22 264.91 250.48 256.21C250.49 256.2 119.62 365.74 138.02 512.92Z" fill="url(#paint23_linear)"/>
<path d="M229.97 345.63C167.13 436.54 198.46 596.07 198.46 596.07L198.44 596.03C197.43 593.94 152.45 500 203.06 379.11C209.93 365.93 219.39 355.08 229.97 345.63Z" fill="url(#paint24_linear)"/>
<path d="M427.5 472.7C478.49 460.94 486.43 397.97 486.43 397.97C486.43 397.97 500.57 473.46 427.5 472.7Z" fill="url(#paint25_linear)"/>
<path d="M490.06 388.34C490.06 388.34 538.66 377.18 543.09 332.79C547.86 391.39 490.06 388.34 490.06 388.34Z" fill="url(#paint26_linear)"/>
<path d="M459.3 262.48C459.3 262.48 459.3 232.42 413.16 219.68L421.64 245.16L374.45 241.08L368.61 270.12C466.32 366.28 542.11 333.23 543.09 332.8C543.09 332.8 543.09 332.81 543.1 332.8V332.79L546.4 326.63L552.65 314.95C552.64 314.96 526.12 271.65 459.3 262.48Z" fill="url(#paint27_linear)"/>
<path d="M437.11 280.12C430.44 272.95 428.08 270.49 427.35 269.77C427.41 269.06 427.98 265.55 433.67 266C440 266.49 444.88 271.35 456.58 274.28C456.58 274.28 450.12 276.72 458.94 295.23C458.94 295.23 449.8 293.77 437.11 280.12Z" fill="white"/>
<path d="M361.4 325.63L385.71 389.17L333.35 344.91L362.81 358.03L345.14 304.81L381.34 323.62L368.07 281.33L407.46 355.48L361.4 325.63Z" fill="url(#paint28_linear)"/>
<path d="M546.39 326.64L543.09 332.8V332.81C543.08 332.82 543.08 332.81 543.08 332.81C531.8 328.64 537.26 324.34 537.26 324.34C541.33 324.71 544.28 325.6 546.39 326.64Z" fill="url(#paint29_linear)"/>
<path d="M672.47 495.34C672.48 495.33 672.5 495.32 672.52 495.31C673.35 494.72 687.09 484.94 700.68 470.04C716.11 453.14 731.34 429.66 727.31 405.6C717.53 347.23 763.83 325.38 763.83 325.38C764.24 326.44 764.62 327.5 765.01 328.54C820.97 481.31 672.47 495.34 672.47 495.34Z" fill="#D9DAE0"/>
<path d="M583.5 526.77C583.5 526.77 608.59 486.92 664.98 504.85C721.37 522.77 763.34 456.86 763.34 456.86C763.34 456.86 730.86 604.52 583.5 526.77Z" fill="#D9DAE0"/>
<path d="M492.98 495.36C492.98 495.36 537.62 480.36 569.96 529.91C602.3 579.46 676.5 554.95 676.5 554.95C676.5 554.95 557.94 648.78 492.98 495.36Z" fill="#D9DAE0"/>
<path d="M782.09 413.81C782.41 412.53 793.38 368.01 766.62 306.03C766.19 305.04 765.76 304.06 765.32 303.07C765.32 303.07 714.39 321.75 715.75 379.18C717.51 452.55 666.57 478.42 666.57 478.42C666.9 475.44 693.45 417.16 675.92 350.87C663.1 302.4 755.8 219.49 745.49 176.23C745.48 176.24 847.5 282.43 782.09 413.81Z" fill="#D9DAE0"/>
<path d="M683.89 641.67C683.89 641.67 663.47 599.24 605.41 610.68C547.35 622.12 513.1 551.88 513.1 551.88C513.1 551.88 528.69 702.27 683.89 641.67Z" fill="#D9DAE0"/>
<path d="M663.08 437.85C663.08 437.85 637.51 430.11 620.02 458.76C602.53 487.41 560.04 474.79 560.04 474.79C560.04 474.79 628.87 525.96 663.08 437.85Z" fill="#D9DAE0"/>
<path d="M603.55 293.35C603.55 293.35 608.25 265.11 603.56 236.23C603.57 236.2 603.56 236.16 603.55 236.14C600.35 216.4 592.75 196.4 576.29 184.88C527.1 150.5 541.09 102.17 542.5 97.74C542.57 97.52 542.6 97.41 542.6 97.41C704.89 168.5 603.55 293.35 603.55 293.35Z" fill="#D9DAE0"/>
<path d="M565.59 387.67C565.59 387.67 553.02 339.2 608 308.59C662.98 277.98 642.53 197.44 642.53 197.44C642.53 197.44 733.19 330.23 565.59 387.67Z" fill="#D9DAE0"/>
<path d="M496.94 448.14C496.94 448.14 513.87 401.02 576.54 406.72C639.2 412.43 667.71 334.37 667.71 334.37C667.71 334.37 667.76 495.16 496.94 448.14Z" fill="#D9DAE0"/>
<path d="M526.63 80.03C524.65 84.73 505.19 134.25 547.63 173.97C604.62 227.3 586.31 285.23 586.31 285.23C584.29 282.76 559.85 219.21 496.48 183.12C450.15 156.74 456.26 24.64 415.76 0.23999C415.76 0.23999 572.35 1.91997 623.32 149.46C623.32 149.46 597.15 105.79 526.78 79.67C526.78 79.67 526.73 79.79 526.63 80.03Z" fill="#D9DAE0"/>
<path d="M565.59 387.67C565.59 387.67 566.87 345.19 601.8 334.38C636.74 323.58 663.08 263.49 663.08 263.49C663.08 263.49 665.84 358.96 565.59 387.67Z" fill="url(#paint30_linear)"/>
<path d="M586.61 285.1C576.5 261.84 572.13 238.14 548.11 214.2C533 199.15 510.6 186.56 500.33 167.71C488.95 146.84 491.62 125.14 495.55 101.69C496.49 96.0599 497.9 90.51 499.78 85.12C502.5 100.38 505.25 115.74 510.58 130.3C515.49 143.72 522.45 157.76 533.89 166.8C539.31 171.09 545.64 173.18 550.97 177.59C557.18 182.72 562.65 188.92 567.39 195.4C585.96 220.79 593.68 254.29 586.61 285.1Z" fill="url(#paint31_linear)"/>
<path d="M623.32 149.46C623.32 149.46 543.74 56.16 484.78 56.89C484.78 56.89 518.69 31.6999 569.43 63.9499C569.43 63.9399 612.99 105.58 623.32 149.46Z" fill="url(#paint32_linear)"/>
<path d="M603.55 293.35C603.55 293.35 633.27 221.39 572.85 166.07C572.85 166.07 546.89 136.23 554.05 123.85C554.05 123.85 623.41 143.51 631.98 184.99C631.98 184.99 649.53 235.02 603.55 293.35Z" fill="url(#paint33_linear)"/>
<path d="M496.94 448.14C496.94 448.14 534.41 412.12 583.51 419.38C632.61 426.64 661.81 372.83 661.81 372.83C661.81 372.83 640.38 490.33 496.94 448.14Z" fill="url(#paint34_linear)"/>
<path d="M560.03 474.79C572.87 478.31 586.91 480.63 600.22 479.68C604.05 479.41 607.91 478.89 611.49 477.42C617.66 474.88 620.99 468.63 625.06 463.76C629.76 458.13 635.49 453 642.26 450.03C647.15 447.89 653.17 447.07 657.6 450.05C658.56 450.7 648.69 464.95 647.7 466.25C641.56 474.26 633.69 481.66 624.12 485.63C614.47 489.64 601.67 491.58 591.45 488.77C582.86 486.4 574.19 483.49 566.39 479.12C564.16 477.86 561.98 476.46 560.03 474.79Z" fill="url(#paint35_linear)"/>
<path d="M666.56 478.42C666.56 478.42 698.78 439.74 690.04 354.58C690.04 354.58 700.53 303.63 763.34 275.97C763.34 275.97 818.07 315.8 782.08 413.8C782.08 413.8 790.36 359.28 765.31 303.07C765.31 303.07 714.51 321.53 715.74 379.18C716.98 436.84 686.02 469.06 666.56 478.42Z" fill="url(#paint36_linear)"/>
<path d="M672.52 495.31C672.52 495.31 732.78 466.57 744.34 423.82C755.9 381.07 775.96 370.03 775.96 370.03C775.96 370.03 800 477.83 672.52 495.31Z" fill="url(#paint37_linear)"/>
<path d="M583.5 526.77C583.5 526.77 643.97 498.52 672.47 519.71C700.97 540.91 750.88 489.56 750.88 489.56C750.88 489.56 706.31 596.21 583.5 526.77Z" fill="url(#paint38_linear)"/>
<path d="M492.98 495.36C492.98 495.36 549.04 508.93 560.03 538.29C571.03 567.66 639.72 575.03 639.72 575.03C639.72 575.03 547.8 625.82 492.98 495.36Z" fill="url(#paint39_linear)"/>
<path d="M513.1 551.88C513.1 551.88 536.42 615.03 598.49 622.54C660.56 630.05 672.51 645.82 672.51 645.82C672.51 645.82 537.76 704.45 513.1 551.88Z" fill="url(#paint40_linear)"/>
<defs>
<linearGradient id="paint0_linear" x1="758.798" y1="413.756" x2="581.657" y2="236.615" gradientUnits="userSpaceOnUse">
<stop offset="0.1173" stop-color="#D24D56"/>
<stop offset="0.212" stop-color="#C84950"/>
<stop offset="0.5312" stop-color="#AA3C3D"/>
<stop offset="0.8051" stop-color="#983531"/>
<stop offset="1" stop-color="#91322D"/>
</linearGradient>
<linearGradient id="paint1_linear" x1="746.691" y1="423.308" x2="385.541" y2="62.1575" gradientUnits="userSpaceOnUse">
<stop offset="0.1173" stop-color="#D24D56"/>
<stop offset="0.212" stop-color="#C84950"/>
<stop offset="0.5312" stop-color="#AA3C3D"/>
<stop offset="0.8051" stop-color="#983531"/>
<stop offset="1" stop-color="#91322D"/>
</linearGradient>
<linearGradient id="paint2_linear" x1="555.249" y1="704.126" x2="-26.1019" y2="122.775" gradientUnits="userSpaceOnUse">
<stop offset="0.1173" stop-color="#D24D56"/>
<stop offset="0.212" stop-color="#C84950"/>
<stop offset="0.5312" stop-color="#AA3C3D"/>
<stop offset="0.8051" stop-color="#983531"/>
<stop offset="1" stop-color="#91322D"/>
</linearGradient>
<linearGradient id="paint3_linear" x1="820.529" y1="475.487" x2="528.331" y2="183.288" gradientUnits="userSpaceOnUse">
<stop offset="0.1173" stop-color="#D24D56"/>
<stop offset="0.212" stop-color="#C84950"/>
<stop offset="0.5312" stop-color="#AA3C3D"/>
<stop offset="0.8051" stop-color="#983531"/>
<stop offset="1" stop-color="#91322D"/>
</linearGradient>
<linearGradient id="paint4_linear" x1="586.812" y1="670.49" x2="367.297" y2="450.975" gradientUnits="userSpaceOnUse">
<stop offset="0.1173" stop-color="#D24D56"/>
<stop offset="0.212" stop-color="#C84950"/>
<stop offset="0.5312" stop-color="#AA3C3D"/>
<stop offset="0.8051" stop-color="#983531"/>
<stop offset="1" stop-color="#91322D"/>
</linearGradient>
<linearGradient id="paint5_linear" x1="357.893" y1="441.571" x2="89.8074" y2="173.485" gradientUnits="userSpaceOnUse">
<stop offset="0.1173" stop-color="#D24D56"/>
<stop offset="0.212" stop-color="#C84950"/>
<stop offset="0.5312" stop-color="#AA3C3D"/>
<stop offset="0.8051" stop-color="#983531"/>
<stop offset="1" stop-color="#91322D"/>
</linearGradient>
<linearGradient id="paint6_linear" x1="395.953" y1="254.432" x2="193.009" y2="51.4886" gradientUnits="userSpaceOnUse">
<stop offset="0.1173" stop-color="#D24D56"/>
<stop offset="1" stop-color="#91322D"/>
</linearGradient>
<linearGradient id="paint7_linear" x1="572.253" y1="227.21" x2="395.093" y2="50.0506" gradientUnits="userSpaceOnUse">
<stop offset="0.1173" stop-color="#D24D56"/>
<stop offset="0.212" stop-color="#C84950"/>
<stop offset="0.5312" stop-color="#AA3C3D"/>
<stop offset="0.8051" stop-color="#983531"/>
<stop offset="1" stop-color="#91322D"/>
</linearGradient>
<linearGradient id="paint8_linear" x1="696.265" y1="554.744" x2="590.361" y2="448.84" gradientUnits="userSpaceOnUse">
<stop offset="0.1173" stop-color="#D24D56"/>
<stop offset="0.212" stop-color="#C84950"/>
<stop offset="0.5312" stop-color="#AA3C3D"/>
<stop offset="0.8051" stop-color="#983531"/>
<stop offset="1" stop-color="#91322D"/>
</linearGradient>
<linearGradient id="paint9_linear" x1="333.35" y1="544.139" x2="488.847" y2="544.139" gradientUnits="userSpaceOnUse">
<stop offset="0.1173" stop-color="#D24D56"/>
<stop offset="0.212" stop-color="#C84950"/>
<stop offset="0.5312" stop-color="#AA3C3D"/>
<stop offset="0.8051" stop-color="#983531"/>
<stop offset="1" stop-color="#91322D"/>
</linearGradient>
<linearGradient id="paint10_linear" x1="512.076" y1="427.019" x2="446.313" y2="255.138" gradientUnits="userSpaceOnUse">
<stop offset="0.1173" stop-color="#D24D56"/>
<stop offset="0.212" stop-color="#C84950"/>
<stop offset="0.5312" stop-color="#AA3C3D"/>
<stop offset="0.8051" stop-color="#983531"/>
<stop offset="1" stop-color="#91322D"/>
</linearGradient>
<linearGradient id="paint11_linear" x1="478.096" y1="467.182" x2="414.538" y2="761.266" gradientUnits="userSpaceOnUse">
<stop stop-color="#D24D56"/>
<stop offset="0.1072" stop-color="#C84950"/>
<stop offset="0.4689" stop-color="#AA3C3D"/>
<stop offset="0.7792" stop-color="#983531"/>
<stop offset="1" stop-color="#91322D"/>
</linearGradient>
<linearGradient id="paint12_linear" x1="224.602" y1="515.787" x2="317.057" y2="515.787" gradientUnits="userSpaceOnUse">
<stop offset="0.1173" stop-color="#D24D56"/>
<stop offset="0.212" stop-color="#C84950"/>
<stop offset="0.5312" stop-color="#AA3C3D"/>
<stop offset="0.8051" stop-color="#983531"/>
<stop offset="1" stop-color="#91322D"/>
</linearGradient>
<linearGradient id="paint13_linear" x1="330.201" y1="346.192" x2="258.708" y2="676.99" gradientUnits="userSpaceOnUse">
<stop offset="0.1173" stop-color="#D24D56"/>
<stop offset="0.212" stop-color="#C84950"/>
<stop offset="0.5312" stop-color="#AA3C3D"/>
<stop offset="0.8051" stop-color="#983531"/>
<stop offset="1" stop-color="#91322D"/>
</linearGradient>
<linearGradient id="paint14_linear" x1="291.805" y1="528.437" x2="369.496" y2="528.437" gradientUnits="userSpaceOnUse">
<stop offset="0.1173" stop-color="#D24D56"/>
<stop offset="0.212" stop-color="#C84950"/>
<stop offset="0.5312" stop-color="#AA3C3D"/>
<stop offset="0.8051" stop-color="#983531"/>
<stop offset="1" stop-color="#91322D"/>
</linearGradient>
<linearGradient id="paint15_linear" x1="314.143" y1="557.724" x2="369.496" y2="557.724" gradientUnits="userSpaceOnUse">
<stop offset="0.1173" stop-color="#D24D56"/>
<stop offset="0.212" stop-color="#C84950"/>
<stop offset="0.5312" stop-color="#AA3C3D"/>
<stop offset="0.8051" stop-color="#983531"/>
<stop offset="1" stop-color="#91322D"/>
</linearGradient>
<linearGradient id="paint16_linear" x1="77.9839" y1="157.525" x2="403.388" y2="157.525" gradientUnits="userSpaceOnUse">
<stop offset="0.1173" stop-color="#D24D56"/>
<stop offset="0.212" stop-color="#C84950"/>
<stop offset="0.5312" stop-color="#AA3C3D"/>
<stop offset="0.8051" stop-color="#983531"/>
<stop offset="1" stop-color="#91322D"/>
</linearGradient>
<linearGradient id="paint17_linear" x1="174.808" y1="142.556" x2="403.388" y2="139.903" gradientUnits="userSpaceOnUse">
<stop offset="0.1173" stop-color="#D24D56"/>
<stop offset="0.212" stop-color="#C84950"/>
<stop offset="0.5312" stop-color="#AA3C3D"/>
<stop offset="0.8051" stop-color="#983531"/>
<stop offset="1" stop-color="#91322D"/>
</linearGradient>
<linearGradient id="paint18_linear" x1="77.7768" y1="143.998" x2="352.593" y2="140.809" gradientUnits="userSpaceOnUse">
<stop stop-color="#D24D56"/>
<stop offset="0.1072" stop-color="#C84950"/>
<stop offset="0.4689" stop-color="#AA3C3D"/>
<stop offset="0.7792" stop-color="#983531"/>
<stop offset="1" stop-color="#91322D"/>
</linearGradient>
<linearGradient id="paint19_linear" x1="273.604" y1="110.236" x2="403.201" y2="222.058" gradientUnits="userSpaceOnUse">
<stop stop-color="#D24D56"/>
<stop offset="0.1072" stop-color="#C84950"/>
<stop offset="0.4689" stop-color="#AA3C3D"/>
<stop offset="0.7792" stop-color="#983531"/>
<stop offset="1" stop-color="#91322D"/>
</linearGradient>
<linearGradient id="paint20_linear" x1="0.625063" y1="387.956" x2="369.362" y2="387.956" gradientUnits="userSpaceOnUse">
<stop offset="0.1173" stop-color="#D24D56"/>
<stop offset="0.212" stop-color="#C84950"/>
<stop offset="0.5312" stop-color="#AA3C3D"/>
<stop offset="0.8051" stop-color="#983531"/>
<stop offset="1" stop-color="#91322D"/>
</linearGradient>
<linearGradient id="paint21_linear" x1="-32.5809" y1="147.371" x2="274.5" y2="351.516" gradientUnits="userSpaceOnUse">
<stop offset="0.1173" stop-color="#D24D56"/>
<stop offset="0.212" stop-color="#C84950"/>
<stop offset="0.5312" stop-color="#AA3C3D"/>
<stop offset="0.8051" stop-color="#983531"/>
<stop offset="1" stop-color="#91322D"/>
</linearGradient>
<linearGradient id="paint22_linear" x1="50.6739" y1="221.127" x2="256.677" y2="289.69" gradientUnits="userSpaceOnUse">
<stop stop-color="#D24D56"/>
<stop offset="0.1072" stop-color="#C84950"/>
<stop offset="0.4689" stop-color="#AA3C3D"/>
<stop offset="0.7792" stop-color="#983531"/>
<stop offset="1" stop-color="#91322D"/>
</linearGradient>
<linearGradient id="paint23_linear" x1="93.4116" y1="350.995" x2="198.572" y2="385.995" gradientUnits="userSpaceOnUse">
<stop stop-color="#D24D56"/>
<stop offset="0.1072" stop-color="#C84950"/>
<stop offset="0.4689" stop-color="#AA3C3D"/>
<stop offset="0.7792" stop-color="#983531"/>
<stop offset="1" stop-color="#91322D"/>
</linearGradient>
<linearGradient id="paint24_linear" x1="161.747" y1="453.384" x2="232.291" y2="476.863" gradientUnits="userSpaceOnUse">
<stop stop-color="#D24D56"/>
<stop offset="0.1072" stop-color="#C84950"/>
<stop offset="0.4689" stop-color="#AA3C3D"/>
<stop offset="0.7792" stop-color="#983531"/>
<stop offset="1" stop-color="#91322D"/>
</linearGradient>
<linearGradient id="paint25_linear" x1="427.496" y1="435.339" x2="487.526" y2="435.339" gradientUnits="userSpaceOnUse">
<stop offset="0.1173" stop-color="#D24D56"/>
<stop offset="0.212" stop-color="#C84950"/>
<stop offset="0.5312" stop-color="#AA3C3D"/>
<stop offset="0.8051" stop-color="#983531"/>
<stop offset="1" stop-color="#91322D"/>
</linearGradient>
<linearGradient id="paint26_linear" x1="502.321" y1="361.395" x2="555.562" y2="358.624" gradientUnits="userSpaceOnUse">
<stop offset="0.1173" stop-color="#D24D56"/>
<stop offset="0.212" stop-color="#C84950"/>
<stop offset="0.5312" stop-color="#AA3C3D"/>
<stop offset="0.8051" stop-color="#983531"/>
<stop offset="1" stop-color="#91322D"/>
</linearGradient>
<linearGradient id="paint27_linear" x1="664.501" y1="362.329" x2="301.804" y2="222.952" gradientUnits="userSpaceOnUse">
<stop offset="0.1173" stop-color="#D24D56"/>
<stop offset="0.212" stop-color="#C84950"/>
<stop offset="0.5312" stop-color="#AA3C3D"/>
<stop offset="0.8051" stop-color="#983531"/>
<stop offset="1" stop-color="#91322D"/>
</linearGradient>
<linearGradient id="paint28_linear" x1="345.506" y1="375.649" x2="439.736" y2="240.078" gradientUnits="userSpaceOnUse">
<stop stop-color="#D24D56"/>
<stop offset="0.1072" stop-color="#C84950"/>
<stop offset="0.4689" stop-color="#AA3C3D"/>
<stop offset="0.7792" stop-color="#983531"/>
<stop offset="1" stop-color="#91322D"/>
</linearGradient>
<linearGradient id="paint29_linear" x1="520.274" y1="328.567" x2="564.632" y2="328.567" gradientUnits="userSpaceOnUse">
<stop offset="0.1173" stop-color="#D24D56"/>
<stop offset="0.212" stop-color="#C84950"/>
<stop offset="0.5312" stop-color="#AA3C3D"/>
<stop offset="0.8051" stop-color="#983531"/>
<stop offset="1" stop-color="#91322D"/>
</linearGradient>
<linearGradient id="paint30_linear" x1="643.546" y1="255.989" x2="589.479" y2="396.838" gradientUnits="userSpaceOnUse">
<stop offset="0.1899" stop-color="#D9DAE0"/>
<stop offset="0.3701" stop-color="#D4D5DB"/>
<stop offset="0.5797" stop-color="#C6C8CE"/>
<stop offset="0.8032" stop-color="#AFB2B8"/>
<stop offset="1" stop-color="#94999E"/>
</linearGradient>
<linearGradient id="paint31_linear" x1="492.173" y1="185.112" x2="589.199" y2="185.112" gradientUnits="userSpaceOnUse">
<stop stop-color="#D9DAE0"/>
<stop offset="0.2224" stop-color="#D4D5DB"/>
<stop offset="0.4811" stop-color="#C6C8CE"/>
<stop offset="0.757" stop-color="#AFB2B7"/>
<stop offset="1" stop-color="#94989D"/>
</linearGradient>
<linearGradient id="paint32_linear" x1="496.381" y1="39.6916" x2="634.515" y2="132.864" gradientUnits="userSpaceOnUse">
<stop offset="0.1849" stop-color="#D9DAE0"/>
<stop offset="0.4184" stop-color="#CBCDD3"/>
<stop offset="0.8557" stop-color="#A7ABB1"/>
<stop offset="1" stop-color="#9A9EA4"/>
</linearGradient>
<linearGradient id="paint33_linear" x1="551.028" y1="125.666" x2="638.987" y2="272.055" gradientUnits="userSpaceOnUse">
<stop offset="0.1899" stop-color="#D9DAE0"/>
<stop offset="0.3701" stop-color="#D4D5DB"/>
<stop offset="0.5797" stop-color="#C6C8CE"/>
<stop offset="0.8032" stop-color="#AFB2B7"/>
<stop offset="1" stop-color="#94989D"/>
</linearGradient>
<linearGradient id="paint34_linear" x1="653.685" y1="363.147" x2="519.848" y2="475.449" gradientUnits="userSpaceOnUse">
<stop offset="0.3758" stop-color="#D9DAE0"/>
<stop offset="0.5155" stop-color="#CCCED4"/>
<stop offset="0.771" stop-color="#ABAEB3"/>
<stop offset="1" stop-color="#888D91"/>
</linearGradient>
<linearGradient id="paint35_linear" x1="616.656" y1="437.034" x2="600.015" y2="491.463" gradientUnits="userSpaceOnUse">
<stop offset="0.1899" stop-color="#D9DAE0"/>
<stop offset="0.3568" stop-color="#D4D5DB"/>
<stop offset="0.551" stop-color="#C6C8CE"/>
<stop offset="0.7589" stop-color="#AFB1B7"/>
<stop offset="0.975" stop-color="#8E9297"/>
<stop offset="1" stop-color="#8A8E93"/>
</linearGradient>
<linearGradient id="paint36_linear" x1="684.132" y1="316.151" x2="750.232" y2="435.825" gradientUnits="userSpaceOnUse">
<stop stop-color="#D9DAE0"/>
<stop offset="0.2567" stop-color="#D6D7DD"/>
<stop offset="0.4662" stop-color="#CCCDD3"/>
<stop offset="0.6591" stop-color="#BBBDC2"/>
<stop offset="0.841" stop-color="#A3A6AB"/>
<stop offset="1" stop-color="#878B90"/>
</linearGradient>
<linearGradient id="paint37_linear" x1="772.245" y1="368.052" x2="697.515" y2="508.598" gradientUnits="userSpaceOnUse">
<stop offset="0.2737" stop-color="#D9DAE0"/>
<stop offset="0.4679" stop-color="#C4C5CB"/>
<stop offset="0.8686" stop-color="#8C9093"/>
<stop offset="1" stop-color="#797D80"/>
</linearGradient>
<linearGradient id="paint38_linear" x1="752.348" y1="517.532" x2="583.483" y2="526.382" gradientUnits="userSpaceOnUse">
<stop offset="0.2889" stop-color="#D9DAE0"/>
<stop offset="0.4027" stop-color="#D1D2D8"/>
<stop offset="0.5814" stop-color="#BABCC1"/>
<stop offset="0.8015" stop-color="#96999D"/>
<stop offset="1" stop-color="#6F7476"/>
</linearGradient>
<linearGradient id="paint39_linear" x1="621.92" y1="596.245" x2="496.578" y2="491.071" gradientUnits="userSpaceOnUse">
<stop stop-color="#EBEBEF"/>
<stop offset="0.1518" stop-color="#E3E3E7"/>
<stop offset="0.3905" stop-color="#CCCDD1"/>
<stop offset="0.6861" stop-color="#A8AAAD"/>
<stop offset="1" stop-color="#797D80"/>
</linearGradient>
<linearGradient id="paint40_linear" x1="640.767" y1="673.42" x2="525.638" y2="540.98" gradientUnits="userSpaceOnUse">
<stop stop-color="#EBEBEF"/>
<stop offset="0.2851" stop-color="#C7C8CC"/>
<stop offset="0.7671" stop-color="#8F9295"/>
<stop offset="1" stop-color="#797D80"/>
</linearGradient>
</defs>
</svg>
