<svg width="115" height="180" viewBox="0 0 115 180" fill="none" xmlns="http://www.w3.org/2000/svg">
<path fill-rule="evenodd" clip-rule="evenodd" d="M21.6512 78.8946L20.3756 77.9293L5.41668 66.6221C4.30614 68.2546 3.65854 70.2245 3.65854 72.3446C3.65854 77.9712 8.21886 82.5315 13.8454 82.5315C14.4881 82.5315 15.116 82.4724 15.7242 82.3591C5.9781 92.7282 0.00683594 106.687 0.00683594 122.043C0.00683594 129.883 1.56307 137.361 4.38496 144.185C4.35048 143.522 4.33079 142.855 4.33079 142.185C4.33079 133.254 7.49248 125.062 12.7546 118.662C12.757 118.66 12.7571 118.657 12.7595 118.655C13.1166 118.209 13.4884 117.778 13.8774 117.359L13.8799 117.357L13.8823 117.354C16.4432 114.597 19.6591 112.457 23.2837 111.181C25.7166 110.327 28.3341 109.861 31.0599 109.861C33.8424 109.861 36.4993 110.344 38.9568 111.226C39.3385 111.364 39.7177 111.509 40.0895 111.664C40.2249 111.721 40.3579 111.777 40.4908 111.836C41.8255 112.378 43.2832 112.676 44.8123 112.676C48.826 112.676 52.3571 110.617 54.4107 107.498C54.9795 106.633 55.435 105.688 55.7551 104.683L41.5078 93.9126L38.4741 91.6202L21.6512 78.8946Z" fill="url(#paint0_linear)"/>
<path fill-rule="evenodd" clip-rule="evenodd" d="M81.2466 132.323C90.254 125.357 96.0554 117.327 96.0554 102.174C96.0554 87.8375 84.3319 69.7587 69.3114 65.6934C74.6474 72.2802 77.8436 80.6696 77.8436 89.8074C77.8436 110.979 51.0381 128.142 39.5093 128.142C34.3604 128.142 32.553 127.282 27.9681 128.802C25.4343 129.641 23.1049 130.929 21.0734 132.572C16.0969 136.598 12.9131 142.756 12.9131 149.658C12.9131 151.884 13.2455 154.034 13.8611 156.058C15.0307 159.906 17.2296 163.307 20.1377 165.942C19.5763 164.004 19.2783 161.953 19.2783 159.835C19.2783 159.697 19.2808 159.557 19.2833 159.419C19.4113 152.492 22.7478 146.349 27.8671 142.411C31.573 139.562 36.2121 137.868 41.2452 137.868C43.0304 137.868 44.7664 138.082 46.431 138.484C47.0614 138.636 47.6819 138.816 48.2901 139.023C50.356 139.565 52.4885 139.937 54.6775 140.124C55.7634 140.217 56.8616 140.264 57.9697 140.264C59.8313 140.264 61.6633 140.131 63.4534 139.873C70.0896 138.912 76.1766 136.243 81.2466 132.323ZM86.5776 83.9962C87.698 83.9962 88.6042 84.9049 88.6042 86.0228C88.6042 87.1432 87.6956 88.0493 86.5776 88.0493C85.4573 88.0493 84.5511 87.1407 84.5511 86.0228C84.5511 84.9049 85.4573 83.9962 86.5776 83.9962ZM90.3254 96.7046C91.4458 96.7046 92.3519 97.6132 92.3519 98.7311C92.3519 99.8515 91.4433 100.758 90.3254 100.758C89.205 100.758 88.2989 99.849 88.2989 98.7311C88.2989 97.6132 89.205 96.7046 90.3254 96.7046ZM89.4488 90.0808C90.5692 90.0808 91.4753 90.9894 91.4753 92.1073C91.4753 93.2277 90.5667 94.1339 89.4488 94.1339C88.3284 94.1339 87.4222 93.2252 87.4222 92.1073C87.4222 90.9869 88.3309 90.0808 89.4488 90.0808Z" fill="url(#paint1_linear)"/>
<path fill-rule="evenodd" clip-rule="evenodd" d="M63.1157 157.794C88.4437 157.415 108.857 136.763 108.857 111.346C108.857 94.085 99.4431 79.0251 85.4691 71.015C84.5088 70.4954 83.5337 70.0054 82.5414 69.54C92.157 76.4544 98.4163 87.737 98.4163 100.485C98.4163 113.796 91.5882 125.512 81.2412 132.323C76.1712 136.243 70.0867 138.913 63.4456 139.871C61.6555 140.129 59.8234 140.262 57.9619 140.262C56.8514 140.262 55.7531 140.215 54.6697 140.122C52.4831 139.935 50.3482 139.563 48.2823 139.021C47.6568 138.856 47.0363 138.676 46.4232 138.482C44.7611 138.08 43.0251 137.866 41.2374 137.866C36.2019 137.866 31.5627 139.56 27.8593 142.409C22.74 146.347 19.4035 152.49 19.2754 159.417C19.273 159.555 19.2705 159.693 19.2705 159.833C19.2705 161.897 19.5562 163.894 20.088 165.787C20.0831 165.617 20.0782 165.447 20.0782 165.277C20.0782 163.49 20.4057 161.776 21.004 160.197C23.0552 154.778 28.2927 150.924 34.4314 150.924C36.3841 150.924 38.2456 151.313 39.9422 152.02C40.6932 152.333 41.4098 152.707 42.0894 153.135C45.1206 154.61 48.334 155.765 51.6902 156.558C52.9337 156.851 54.1969 157.095 55.4774 157.287C57.7354 157.624 60.0475 157.799 62.3991 157.799C62.6429 157.799 62.8793 157.797 63.1157 157.794Z" fill="url(#paint2_linear)"/>
<path fill-rule="evenodd" clip-rule="evenodd" d="M20.0928 165.787C20.1076 165.839 20.1224 165.89 20.1372 165.94C20.1224 165.89 20.1076 165.839 20.0928 165.787ZM57.7525 174.324C60.8428 174.957 64.0439 175.292 67.3213 175.292C78.7443 175.292 89.2242 171.249 97.4067 164.514C104.737 157.703 110.3 149.021 113.336 139.223C114.222 135.601 114.693 131.816 114.693 127.92C114.693 122.156 113.663 116.63 111.777 111.519C111.78 111.693 111.78 111.868 111.78 112.043C111.78 130.013 100.775 145.411 85.1366 151.867C78.6088 155.536 71.106 157.676 63.1156 157.794C62.8792 157.797 62.6428 157.799 62.4039 157.799C60.0524 157.799 57.7402 157.624 55.4822 157.287C54.2018 157.095 52.9385 156.853 51.695 156.558C48.3388 155.765 45.1254 154.61 42.0942 153.135C41.3678 152.781 40.6513 152.409 39.947 152.02C38.2504 151.313 36.3889 150.924 34.4362 150.924C31.7522 150.924 29.2381 151.66 27.0909 152.943C24.3257 154.593 22.1637 157.146 21.0089 160.197C20.4105 161.776 20.083 163.49 20.083 165.277L20.0928 165.787C20.0953 165.826 20.0953 165.866 20.0978 165.905C20.1101 165.917 20.1249 165.93 20.1372 165.94C20.2184 166.013 20.3022 166.087 20.3834 166.161C22.8581 163.852 26.1799 162.436 29.8316 162.436C29.8586 162.436 29.8857 162.436 29.9153 162.436C30.5358 162.438 31.1465 162.485 31.7448 162.566C33.9314 162.869 35.9555 163.682 37.6915 164.881C38.1175 165.174 38.5238 165.491 38.9128 165.829C40.6734 167.149 42.5276 168.35 44.468 169.421C45.4899 169.985 46.5339 170.512 47.6001 171C50.8086 172.475 54.2091 173.598 57.7525 174.324Z" fill="url(#paint3_linear)"/>
<path fill-rule="evenodd" clip-rule="evenodd" d="M29.8319 162.438C26.1802 162.438 22.856 163.852 20.3838 166.164C30.5017 174.792 43.6262 180 57.9671 180C67.3734 180 76.2576 177.759 84.1151 173.78C79.5523 175.775 74.5094 176.883 69.2103 176.883C63.1849 176.883 57.4943 175.452 52.4588 172.911C50.7967 172.362 49.1764 171.724 47.6005 171.003C46.5343 170.515 45.4902 169.986 44.4683 169.424C42.5305 168.356 40.6738 167.154 38.9132 165.832C38.5241 165.494 38.1179 165.177 37.6919 164.884C35.9559 163.684 33.9318 162.872 31.7452 162.569C31.1296 162.542 30.5189 162.5 29.9157 162.438H29.8319Z" fill="url(#paint4_linear)"/>
<path fill-rule="evenodd" clip-rule="evenodd" d="M12.9134 149.656C12.9134 142.754 16.0948 136.598 21.0737 132.57C23.1052 130.927 25.4346 129.637 27.9684 128.8C24.8092 124.929 22.9156 119.987 22.9156 114.599C22.9156 113.457 23.0018 112.334 23.1643 111.238C19.1432 112.664 15.5014 115.178 12.7607 118.662C7.49617 125.06 4.33691 133.252 4.33691 142.185C4.33691 142.855 4.35417 143.523 4.39111 144.185C7.92709 152.734 13.4502 160.252 20.3843 166.164L20.138 165.943L20.0986 165.908C17.2102 163.281 15.0261 159.892 13.8614 156.059C13.2458 154.032 12.9134 151.882 12.9134 149.656Z" fill="url(#paint5_linear)"/>
<path fill-rule="evenodd" clip-rule="evenodd" d="M28.1678 75.24C28.5027 76.0329 28.8819 76.8011 29.3079 77.5399C31.5339 81.4181 34.959 84.5182 39.0786 86.3355C39.672 86.5251 40.2507 86.7516 40.8121 87.0102C44.9489 88.921 48.086 92.6318 49.2137 97.138L49.3024 97.2044C51.9815 94.6288 53.7224 91.0805 53.9563 87.1284C53.9735 86.8255 53.9834 86.5226 53.9834 86.2148C53.9834 80.15 50.44 74.9125 45.3133 72.46C45.1065 72.3713 44.9021 72.2778 44.6977 72.1817C38.5516 69.2687 34.3016 63.0094 34.3016 55.7576C34.3016 53.7607 34.6241 51.84 35.2176 50.0449C31.4403 52.788 28.611 56.7549 27.3133 61.3645C26.8012 63.1817 26.5278 65.0975 26.5278 67.0797C26.5278 69.973 27.1114 72.7308 28.1678 75.24Z" fill="url(#paint6_linear)"/>
<path fill-rule="evenodd" clip-rule="evenodd" d="M28.1673 75.2407C27.1109 72.7315 26.5273 69.9736 26.5273 67.0828C26.5273 65.103 26.8006 63.1848 27.3128 61.3676C-2.48937 43.6557 35.4854 26.8672 35.4854 26.8672C35.4854 26.8672 20.1276 30.184 11.0069 37.7435C5.89504 41.9813 2.74318 47.5512 5.3533 54.6182C7.59407 60.6855 14.0825 67.8584 27.2242 76.2379C27.9013 76.6688 28.5957 77.1047 29.3073 77.543C28.8813 76.7993 28.5021 76.0311 28.1673 75.2407Z" fill="url(#paint7_linear)"/>
<path fill-rule="evenodd" clip-rule="evenodd" d="M5.35287 54.6156C2.74275 47.5486 5.89708 41.9787 11.0065 37.7409C7.14304 32.7324 20.6147 0 20.6147 0C20.6147 0 -6.70048 32.5182 5.35287 54.6156Z" fill="url(#paint8_linear)"/>
<path fill-rule="evenodd" clip-rule="evenodd" d="M5.06765 67.1709C1.13523 73.7947 5.84082 82.5312 13.8485 82.5312C14.4912 82.5312 15.1191 82.4721 15.7273 82.3589C10.9847 87.4067 7.26163 93.1761 4.6318 99.3641C9.74124 88.6749 21.0756 84.4248 21.0756 84.4248C3.55821 74.5556 4.26491 68.8749 5.06765 67.1709Z" fill="#BB2774"/>
<path fill-rule="evenodd" clip-rule="evenodd" d="M12.7602 118.662C15.4984 115.175 19.1427 112.661 23.1638 111.238C27.308 109.768 31.8535 109.457 36.2218 110.433L36.2267 110.43C36.2267 110.43 1.97993 101.304 0.0937428 118.768C0.0568071 119.393 0.0321989 120.019 0.0174246 120.646C0.019887 120.723 0.0223265 120.802 0.0247889 120.878L0.012495 120.883C-0.150022 128.711 1.27078 136.642 4.39308 144.184C4.35861 143.522 4.33888 142.855 4.33888 142.185C4.33642 133.254 7.49814 125.059 12.7602 118.662Z" fill="url(#paint9_linear)"/>
<path fill-rule="evenodd" clip-rule="evenodd" d="M44.6954 72.1817C38.5493 69.2687 34.2993 63.0094 34.2993 55.7576C34.2993 53.7607 34.6218 51.84 35.2153 50.0449C35.2153 50.0449 27.3258 61.5738 32.3934 68.8403C37.4634 76.1068 49.8148 78.5913 49.2976 97.2044C51.9767 94.6288 53.7176 91.0805 53.9515 87.1284C53.9688 86.8255 53.9786 86.5226 53.9786 86.2148C53.9786 80.15 50.4353 74.9125 45.3086 72.46L44.6954 72.1817Z" fill="#C42880"/>
<path fill-rule="evenodd" clip-rule="evenodd" d="M35.4859 26.8643C35.4859 26.8643 -14.8304 42.8648 26.5278 67.0799C26.5278 65.1001 26.8011 63.1819 27.3133 61.3647C-2.48889 43.6528 35.4859 26.8643 35.4859 26.8643Z" fill="url(#paint10_linear)"/>
<path fill-rule="evenodd" clip-rule="evenodd" d="M20.6157 0C20.6157 0 0.956009 32.9762 6.96176 42.0279C8.05259 40.4692 9.43646 39.0435 11.0075 37.7409C7.14398 32.7349 20.6157 0 20.6157 0Z" fill="url(#paint11_linear)"/>
<path fill-rule="evenodd" clip-rule="evenodd" d="M15.9741 138.467C7.08986 126.631 23.1643 111.238 23.1643 111.238C19.1432 112.664 15.5014 115.178 12.7607 118.662C7.49617 125.06 4.33691 133.252 4.33691 142.185C4.33691 142.855 4.35417 143.523 4.39111 144.185C7.92709 152.734 13.4502 160.252 20.3843 166.164L20.138 165.943C20.1257 165.93 20.1109 165.918 20.0986 165.908C17.2102 163.281 15.0261 159.892 13.8614 156.059C13.2458 154.034 12.9134 151.885 12.9134 149.659C12.9134 145.571 14.0288 141.745 15.9741 138.467Z" fill="url(#paint12_linear)"/>
<path fill-rule="evenodd" clip-rule="evenodd" d="M39.5093 128.139C34.3604 128.139 32.553 127.28 27.9681 128.799C25.4343 129.639 23.1049 130.927 21.0734 132.569C19.0444 134.212 17.3109 136.209 15.9738 138.464C14.031 141.742 12.9131 145.568 12.9131 149.653C12.9131 151.879 13.2455 154.029 13.8611 156.053C15.0258 159.884 17.2099 163.273 20.0983 165.902L20.0934 165.784C6.80144 135.43 40.9892 133.618 40.9892 133.618C40.9892 133.618 59.5752 132.941 78.5011 114.018C97.4269 95.0918 69.3114 65.6885 69.3114 65.6885C74.6474 72.2753 77.8436 80.6647 77.8436 89.8026C77.8436 110.977 51.0381 128.139 39.5093 128.139Z" fill="url(#paint13_linear)"/>
<path fill-rule="evenodd" clip-rule="evenodd" d="M57.9682 140.262C56.8577 140.262 55.7595 140.215 54.676 140.122C52.4894 139.935 50.3545 139.563 48.2886 139.021C47.6632 138.856 47.0427 138.676 46.4295 138.482C44.7674 138.081 43.0314 137.866 41.2437 137.866C36.2082 137.866 31.5691 139.56 27.8656 142.409C22.7464 146.347 19.4098 152.49 19.2818 159.417L19.2769 159.833C19.2769 161.897 19.5625 163.894 20.0944 165.787L20.0845 165.278C20.0845 164.972 20.0944 164.672 20.1116 164.371C20.2889 143.17 41.6993 145.249 51.4355 146.403C61.4057 147.585 84.5546 144.882 100.944 120.888C112.505 103.964 98.6049 85.3709 89.4079 75.8809C95.0295 82.517 98.4202 91.1058 98.4202 100.485C98.4202 113.797 91.592 125.513 81.2451 132.324C76.1751 136.244 70.0905 138.913 63.4495 139.871C61.6618 140.129 59.8298 140.262 57.9682 140.262Z" fill="url(#paint14_linear)"/>
<path fill-rule="evenodd" clip-rule="evenodd" d="M111.779 112.041C111.779 130.011 100.775 145.408 85.1361 151.865C78.6083 155.534 71.1055 157.673 63.1151 157.792L62.4034 157.797C60.0519 157.797 57.7397 157.622 55.4817 157.284C54.2012 157.092 52.938 156.851 51.6945 156.556C48.3383 155.763 45.1249 154.608 42.0937 153.133C41.3673 152.778 40.6507 152.406 39.9465 152.017C38.2499 151.311 36.3884 150.922 34.4357 150.922C28.297 150.922 23.0595 154.775 21.0084 160.195C20.5134 161.505 20.2032 162.906 20.112 164.369C20.0923 164.669 20.085 164.972 20.085 165.275L20.0948 165.785C20.1096 165.836 20.1244 165.888 20.1391 165.937L20.3854 166.159C24.5443 150.774 37.3462 160.254 53.9058 163.972C70.4653 167.69 91.755 155.694 102.4 147.92C113.045 140.146 111.779 111.514 111.779 111.514V112.041Z" fill="url(#paint15_linear)"/>
<path fill-rule="evenodd" clip-rule="evenodd" d="M20.3838 166.164C20.3838 166.164 28.8913 165.896 39.876 171.894C50.7105 177.811 66.2555 181.234 83.4109 174.081C83.4035 174.083 83.3986 174.086 83.3936 174.088C79.0229 175.89 74.2336 176.883 69.2128 176.883C63.1874 176.883 57.4968 175.452 52.4612 172.911C50.7991 172.362 49.1789 171.724 47.6029 171.003C46.5367 170.515 45.4927 169.986 44.4708 169.424C42.5329 168.356 40.6763 167.154 38.9157 165.832C38.5266 165.494 38.1203 165.177 37.6943 164.884C35.9584 163.684 33.9343 162.872 31.7477 162.569C31.1321 162.542 30.5214 162.5 29.9181 162.438H29.8344C26.1802 162.438 22.8585 163.854 20.3838 166.164Z" fill="url(#paint16_linear)"/>
<path fill-rule="evenodd" clip-rule="evenodd" d="M29.6454 93.0654L37.946 98.1305C37.946 98.1305 26.2694 99.6794 29.6454 93.0654Z" fill="#FDFDFF"/>
<defs>
<linearGradient id="paint0_linear" x1="44.4949" y1="93.705" x2="-3.42171" y2="107.862" gradientUnits="userSpaceOnUse">
<stop stop-color="#DC1780"/>
<stop offset="1" stop-color="#B93E7C"/>
</linearGradient>
<linearGradient id="paint1_linear" x1="77.228" y1="91.531" x2="34.8091" y2="160.75" gradientUnits="userSpaceOnUse">
<stop stop-color="#E9B336"/>
<stop offset="0.4" stop-color="#DF5861"/>
<stop offset="1" stop-color="#B93E7C"/>
</linearGradient>
<linearGradient id="paint2_linear" x1="96.1492" y1="99.6436" x2="36.1575" y2="159.407" gradientUnits="userSpaceOnUse">
<stop stop-color="#E9B336"/>
<stop offset="0.43" stop-color="#DF5861"/>
<stop offset="1" stop-color="#B93E7C"/>
</linearGradient>
<linearGradient id="paint3_linear" x1="114.227" y1="135.678" x2="31.6329" y2="167.101" gradientUnits="userSpaceOnUse">
<stop stop-color="#E9B336"/>
<stop offset="0.47" stop-color="#DF5861"/>
<stop offset="1" stop-color="#B93E7C"/>
</linearGradient>
<linearGradient id="paint4_linear" x1="30.7734" y1="169.468" x2="78.152" y2="176.732" gradientUnits="userSpaceOnUse">
<stop stop-color="#B93E7C"/>
<stop offset="0.43" stop-color="#DF5861"/>
<stop offset="1" stop-color="#E9B336"/>
</linearGradient>
<linearGradient id="paint5_linear" x1="24.4901" y1="109.92" x2="16.5849" y2="137.026" gradientUnits="userSpaceOnUse">
<stop stop-color="#D83170"/>
<stop offset="1" stop-color="#E67654"/>
</linearGradient>
<linearGradient id="paint6_linear" x1="32.3392" y1="63.7238" x2="48.4766" y2="91.6592" gradientUnits="userSpaceOnUse">
<stop stop-color="#DC1780"/>
<stop offset="0.1915" stop-color="#D42081"/>
<stop offset="0.6582" stop-color="#C63284"/>
<stop offset="1" stop-color="#C13885"/>
</linearGradient>
<linearGradient id="paint7_linear" x1="23.4734" y1="66.5605" x2="19.6128" y2="35.9837" gradientUnits="userSpaceOnUse">
<stop stop-color="#D83170"/>
<stop offset="1" stop-color="#E67654"/>
</linearGradient>
<linearGradient id="paint8_linear" x1="12.8067" y1="13.2297" x2="2.13496" y2="55.2491" gradientUnits="userSpaceOnUse">
<stop stop-color="#FAC82A"/>
<stop offset="1" stop-color="#E67654"/>
</linearGradient>
<linearGradient id="paint9_linear" x1="1.86834" y1="131.153" x2="21.5869" y2="109.252" gradientUnits="userSpaceOnUse">
<stop stop-color="#B93E7C"/>
<stop offset="0.8855" stop-color="#B93E7C"/>
<stop offset="1" stop-color="#B93E7C"/>
</linearGradient>
<linearGradient id="paint10_linear" x1="24.8865" y1="43.9805" x2="33.3969" y2="66.7659" gradientUnits="userSpaceOnUse">
<stop stop-color="#D83170"/>
<stop offset="1" stop-color="#D83170"/>
</linearGradient>
<linearGradient id="paint11_linear" x1="15.5903" y1="11.7986" x2="5.64327" y2="45.0037" gradientUnits="userSpaceOnUse">
<stop stop-color="#FAC82A"/>
<stop offset="1" stop-color="#E67654"/>
</linearGradient>
<linearGradient id="paint12_linear" x1="16.0302" y1="140.794" x2="23.8587" y2="119.232" gradientUnits="userSpaceOnUse">
<stop stop-color="#E67654"/>
<stop offset="1" stop-color="#D83170"/>
</linearGradient>
<linearGradient id="paint13_linear" x1="16.1853" y1="151.964" x2="81.4306" y2="81.775" gradientUnits="userSpaceOnUse">
<stop stop-color="#B93E7C"/>
<stop offset="0.45" stop-color="#DF5861"/>
<stop offset="1" stop-color="#E9B336"/>
</linearGradient>
<linearGradient id="paint14_linear" x1="29.3642" y1="162.723" x2="97.8347" y2="96.8074" gradientUnits="userSpaceOnUse">
<stop stop-color="#B93E7C"/>
<stop offset="0.4" stop-color="#DF5265"/>
<stop offset="1" stop-color="#E9B336"/>
</linearGradient>
<linearGradient id="paint15_linear" x1="29.8458" y1="165.118" x2="117.045" y2="126.665" gradientUnits="userSpaceOnUse">
<stop stop-color="#B93E7C"/>
<stop offset="0.29" stop-color="#DF5861"/>
<stop offset="1" stop-color="#E9B336"/>
</linearGradient>
<linearGradient id="paint16_linear" x1="23.5063" y1="166.26" x2="75.9061" y2="175.925" gradientUnits="userSpaceOnUse">
<stop stop-color="#B93E7C"/>
<stop offset="0.43" stop-color="#DF5861"/>
<stop offset="1" stop-color="#E9B336"/>
</linearGradient>
</defs>
</svg>
