<svg xmlns="http://www.w3.org/2000/svg" xmlns:xlink="http://www.w3.org/1999/xlink" width="134" height="128" fill="none" xmlns:v="https://vecta.io/nano"><g fill="#000"><use xlink:href="#B"/><path d="M38.847 17.189C47.403 10.445 57.894 6.787 68.96 6.783c12.602.003 24.472 4.751 33.573 13.401l.898.878.884.905a48.41 48.41 0 0 1 13.395 33.566c0 11.067-3.657 21.561-10.402 30.116a48.66 48.66 0 0 1-4.856 3.375c4.578-7.542 7.025-16.213 7.025-25.258 0-13.019-5.07-25.262-14.279-34.471S73.749 15.019 60.727 15.016c-9.047 0-17.715 2.45-25.251 7.032a48.04 48.04 0 0 1 3.372-4.86zm-20.823 3.873l4.313-3.92a59.75 59.75 0 0 0-9.345 15.668A60.09 60.09 0 0 0 8.57 55.536c.003 7.844 1.484 15.486 4.418 22.723a60.05 60.05 0 0 0 12.391 19.08l.878.898.905.884a60.01 60.01 0 0 0 19.077 12.388c7.235 2.934 14.882 4.418 22.723 4.418s15.486-1.484 22.726-4.421c5.699-2.309 10.945-5.443 15.665-9.349-1.228 1.495-2.538 2.931-3.921 4.313-5.761 5.761-12.482 10.23-19.978 13.269-7.235 2.934-14.886 4.422-22.726 4.422a60.18 60.18 0 0 1-22.719-4.422c-7.495-3.039-14.219-7.502-19.985-13.269A60.02 60.02 0 0 1 4.759 86.489a60.17 60.17 0 0 1-4.422-22.72C.333 55.926 1.825 48.28 4.759 41.043c3.039-7.495 7.502-14.22 13.265-19.982z"/><use xlink:href="#B"/><path d="M27.161 99.12c9.095 8.647 20.964 13.398 33.566 13.394 7.644 0 15.015-1.744 21.666-5.045a60 60 0 0 0 17.525-4.198 59.15 59.15 0 0 0 10.952-5.829 56.77 56.77 0 0 1-3.52 4.713 59.57 59.57 0 0 1-15.665 9.349c-7.239 2.938-14.886 4.422-22.726 4.422s-15.486-1.484-22.723-4.418c-7.101-2.886-13.515-7.048-19.075-12.388zm-4.826-81.978l4.713-3.52a59.51 59.51 0 0 0-5.825 10.955c-2.284 5.632-3.691 11.51-4.201 17.542-3.303 6.642-5.046 14.008-5.046 21.645 0 12.605 4.751 24.472 13.402 33.573-5.341-5.558-9.502-11.972-12.391-19.08-2.934-7.235-4.418-14.882-4.418-22.723a60.08 60.08 0 0 1 4.422-22.726 59.81 59.81 0 0 1 9.345-15.667z"/><path d="M27.048 13.621c3.429-2.312 7.089-4.26 10.955-5.825a59.88 59.88 0 0 1 17.539-4.198c-4.689 2.324-9.014 5.422-12.822 9.23-1.386 1.386-2.681 2.843-3.873 4.358-1.227 1.558-2.355 3.182-3.372 4.86a48.33 48.33 0 0 0-4.86 3.372c-1.515 1.193-2.972 2.488-4.358 3.874a48.77 48.77 0 0 0-9.233 12.826c.509-6.032 1.915-11.91 4.201-17.542a59.44 59.44 0 0 1 5.823-10.954z"/><path d="M42.72 12.829c3.808-3.808 8.135-6.906 12.822-9.23a58.88 58.88 0 0 1 5.187-.224 60.18 60.18 0 0 1 22.719 4.422c7.109 2.884 13.524 7.047 19.083 12.388-9.098-8.65-20.971-13.398-33.572-13.402-11.064.003-21.557 3.66-30.113 10.405a49.03 49.03 0 0 1 3.874-4.36zm68.946 68.945c3.805-3.805 6.902-8.123 9.226-12.805a59.94 59.94 0 0 1-4.194 17.522 59.17 59.17 0 0 1-5.828 10.952 59.28 59.28 0 0 1-10.952 5.829c-5.625 2.277-11.5 3.687-17.525 4.197 4.682-2.323 9.004-5.425 12.808-9.229a49.33 49.33 0 0 0 3.874-4.358 48.51 48.51 0 0 0 3.375-4.856 48.5 48.5 0 0 0 4.856-3.375 49.34 49.34 0 0 0 4.36-3.875zm-31.618-51.66L95.19 84.01 48.65 97.086 33.508 43.19l46.54-13.076z"/><path d="M68.111 52.913s.697-8.376-4.973-14.586c.9.986 2.936-.345 3.865-.76 6.751-3.008 12.272-10.069 16.939-15.484 2.944-3.419 5.38-5.158 9.833-6.368 3.968-1.079 8.161-1.345 12.229-.731.4.06.812.135 1.141.369.362.257.574.674.716 1.093.712 2.127-.187 4.527-1.695 6.187-1.534 1.689-3.529 2.448-5.36 3.703-1.717 1.176-3.335 2.663-4.957 3.981-2.119 1.719-4.18 3.515-6.118 5.437-.478.474-4.954 5.908-5.025 5.885-.002 0-8.502-.915-16.594 11.274zm40.246-31.066s1.634-3.229.29-7.013c-.188-.529 5.535-5.018 6.214-5.453 2.57-1.643 5.61-2.269 8.368-3.503 2.777-1.243 5.272-3.065 7.259-5.373.095 2.06.071 4.148-.408 6.154-1.419 5.934-6.998 8.137-11.957 10.567-3.232 1.586-6.489 3.127-9.766 4.62zm19.847-8.387s3.938 12.578-7.009 23.655c0 0-16.039-3.179-32.609 3.012.002.002 7.687-12.955 39.618-26.667zM87.093 41.346s19.858-6.59 33.935-3.079c0 0-15.788 17.21-25.067 14.419s-8.868-11.34-8.868-11.34zm-.653.383s.557 9.649 8.525 11.41 11.638-1.17 19.29-7.349c0 0-10.258 11.657-17.511 13.827s-20.35 10.781-24.567 21.647c.002-.002-7.001-18.215 14.263-39.536z"/><path d="M60.37 77.48l13.119-29.049 26.108 11.791-13.12 29.049L60.37 77.48z"/><path d="M82.179 38.372l27.058-8.632 7.007 21.966-27.058 8.632-7.008-21.966z"/><path d="M81.744 18.677L120.24 6.396l11.206 35.124-38.497 12.281-11.205-35.124zm-17.22 35.965l.415-18.263 20.251.462-.417 18.261-20.249-.46z"/><path d="M105.005 20.673L112.247 0l20.964 7.344-7.242 20.673-20.964-7.344zm-59.03 25.689L20.96 87.768l35.753 21.601 25.015-41.405-35.753-21.602z"/><path d="M50.669 68.097s1.346-7.139 7.499-11.005c-.977.614-2.367-.964-3.044-1.522-4.93-4.06-7.904-11.211-10.545-16.794-1.667-3.524-3.294-5.534-6.725-7.566-3.056-1.812-6.487-2.998-10.017-3.424-.347-.041-.709-.074-1.036.045-.36.131-.633.429-.846.746-1.083 1.608-.886 3.813-.012 5.544.889 1.76 2.376 2.851 3.613 4.318 1.159 1.374 2.165 2.986 3.213 4.456 1.369 1.919 2.674 3.889 3.844 5.937.29.505 2.767 6.061 2.831 6.058.002-.002 7.292 1.193 11.226 13.207zM24.297 32.961s-.617-3.067 1.372-5.908c.279-.398-3.456-5.454-3.922-5.972-1.763-1.96-4.149-3.181-6.165-4.844-2.027-1.674-3.686-3.767-4.811-6.146-.553 1.695-1.014 3.439-1.076 5.22-.184 5.268 3.956 8.387 7.528 11.554l7.073 6.096zM9.696 21.407s-6.173 9.569.393 21.316c0 0 14.091 1.043 26.469 10.014 0 0-3.42-12.56-26.862-31.33zm27.825 32.687S22.498 44.035 9.965 43.72c0 0 9.188 17.966 17.56 17.778s9.997-7.404 9.997-7.404zm.457.47s-2.684 7.907-9.726 7.542-9.425-3.655-14.377-10.561c0 0 5.863 12.071 11.404 15.546S39.748 80.755 40.76 90.774c0 0 10.024-13.557-2.781-36.21z"/><path d="M51.466 90.342l-4.242-27.215-24.46 3.813 4.243 27.215 24.46-3.813z"/><path d="M42.3 52.751L21.75 39.332 10.858 56.016l20.551 13.417L42.3 52.751z"/><path d="M47.194 36.445L17.957 17.356.539 44.034l29.239 19.089 17.416-26.677zm6.067 33.919l3.856-15.306-16.973-4.275-3.856 15.305 16.973 4.277z"/><path d="M27.361 32.754l-1.274-18.885-19.152 1.293 1.274 18.885 19.152-1.293zm56.197 53.575c.584-2.205 1.988-2.488 1.153-3.782-4.167-6.473-6.923-7.83-10.719-11.514-1.277-6.139-5.539-5.992-10.68-6.702-3.246-.448-9.062-1.319-15.432 4.28-5.756 5.06-4.108 4.056-4.479 6.594-3.227 5.151-.35 2.241-2.953 7.116-.828 1.552 1.524 3.581-5.939 4.239-1.033.091-1.346 2.555-.164 4.222.59.831.476 3.31-1.324 4.57-2.039 1.429-2.774 3.179-2.774 3.179s.657.767 1.972 2.149a12.1 12.1 0 0 0 .669.64c.436.57 1.508 1.67 4.044 3.213.679.497 1.219.866 1.439.983l3.346 1.843a24.13 24.13 0 0 0 1.212.462 31.86 31.86 0 0 0 4.646 1.693 5.93 5.93 0 0 1 .176.072c.179.076.583.165 1.122.259.014.003.029.006.043.01a26.9 26.9 0 0 0 5.156.645c.993.098 1.784.16 2.065.16.933 0 2.665.077 3.501 0 .678-.062 1.339-.15 2.012-.272 1.524-.278 3.12-.728 5.515-1.647 2.781-1.067 17.679-11.46 17.797-11.56-1.12-3.318-2.944-5.044-1.407-10.852z"/><path d="M47.882 68.61c-5.756 5.06-4.108 4.056-4.479 6.594-3.227 5.151-.35 2.241-2.953 7.116-.828 1.552 1.524 3.581-5.939 4.239-1.033.091-1.346 2.555-.164 4.222.59.831.476 3.31-1.324 4.57-2.039 1.429-2.774 3.179-2.774 3.179l1.972 2.15.669.639c.436.571 1.508 1.671 4.044 3.214l1.439.982 3.346 1.843c.134.064.596.238 1.212.462 1.433.65 2.982 1.231 4.646 1.693l.176.073c.179.075.583.165 1.122.258.014.004.029.007.043.01 1.669.383 3.4.59 5.156.645l2.065.16h3.501l2.012-.272c1.524-.277 3.12-.727 5.515-1.646 2.781-1.067 17.679-11.461 17.797-11.561-1.951-7.528-15.237-8.152-26.855-15.398-7.382-4.605-10.23-13.172-10.23-13.172z"/><path d="M34.51 86.562c-1.033.091-1.346 2.555-.164 4.222.59.831.476 3.31-1.324 4.57-2.039 1.429-11.528 11.972-11.474 13.139.026.564.252 1.241 1.062 1.974 12.393 11.198 22.993 12.99 28.617 14.134 6.923 1.409 16.334.79 21.6-.348 11.048-2.389 22.097-10.697 25.581-13.56 3.121-2.564-5.251-9.89-14.412-13.231-3.979-1.858-2.341 8.737-35.457 1.434C38.075 96.592 37.59 86.291 34.51 86.562z"/><path d="M39.992 85.172c-1.776 2.551-3.599 7.973 18.227 9.669 13.276 1.033 23.088 1.476 28.363 2.936 2.024.764 4.079 1.746 4.763 3.308 0 0-19.013 1.404-33.049.407-13.405-1.393-24.591-2.186-26.431-8.349-1.765-5.916 5.865-11.023 8.983-11.641 0 0-.412.74-.469 1.336-.081.819.048 1.708-.388 2.334zm46.584-7.43c-3.755-4.868-21.794-3.815-30.547-5.149-8.442-1.286-9.868-8.509-3.893-14.574 3.262-3.153 3.262-4.149 7.439-1.963.719.415 3.569.443 6.085-.609 1.55-.636 3.348-.276 4.315-.165s6.639.443 7.164-2.046c0 0-2.6-6.944-8.907-8.88-3.872-1.052-4.508-.664-6.999.636-.36.248-2.101-.138-6.085 2.767s-13.653 10.817-14.022 16.83c-.338 5.522 1.046 9.95 6.961 12.991s19.063 3.212 22.842 3.401c4.022.2 12.276-1.527 13.851 1.734.664 1.338-1.077 1.724-1.431 4.466 0 0 7.252-4.22 3.227-9.44zM70.324 51.395c-.293.14-1.915.686-2.636.05a.98.98 0 0 1-.293-.693c.124-.109 2.844.49 2.929.643z"/><path d="M56.046 72.588c-8.185-1.215-9.952-8.256-3.892-14.574 3.262-3.153 3.262-4.149 7.439-1.964-2.031-1.2-3.374-2.334-6.299-1.738-3.084.629-7.38 4.384-9.007 7.687-1.658 3.367-.481 8.919 5.492 11.095 2.41.879 10.321.857 10.848-.026.002.002-3.222-.279-4.58-.481zm5.113-27.558c3.075-.471 7.77-.803 11.895 2.207 0 0-2.598-2.968-7.599-3.455-1.717-.167-2.62.445-3.236.703s-1.06.545-1.06.545zm14.452 10.064s.49.45 1.636.329 2.538-.824 3.122-.931 3.019-.286 3.472.014.814 1.133.929 1.658a15.16 15.16 0 0 0 .453 1.446s.228-1.124.109-1.465l-.614-1.541c-.153-.21 1.015-.162 1.015-.162l2.21.757s-1.577-1.222-2.019-1.308c-.664-.129-.746.048-1.8-.026-.889-.064-.95-.271-1.898-.291-.207-.005-.595-.014-1.096.055-.524.072-.665.159-1.181.215a5.86 5.86 0 0 1-1.033.021c-.931-.053-1.148-.262-1.563-.255-.174.005-.179.65-1.743 1.484zm-2.333 69.071s-3.629 3.911-7.149 3.834-14.336-1.262-23.216-11.399L26.047 97.832l-2.034-2.374s1.327-.546 4.77.371c4.937 1.317 17.984 12.833 24.633 19.268 7.621 7.383 19.863 9.068 19.863 9.068zm-52.523-15.228c-8.907.128-8.664-6.619-8.74-9.45-.203-7.564 5.36-12.812 4.608-14.293a28.35 28.35 0 0 1-1.439-3.672s1.498.409 2.341 1.519c2.051 2.701-.04 7.866-1.293 13.057-1.627 6.733 2.701 11.222 4.106 12.476a12.25 12.25 0 0 0 .417.363zm-4.727-38.726c.15 1.139.869 2.355-.012 4.458-.639 1.527-3.329 4.806-7.187 7.728-3.153 2.508-3.086 4.915-2.608 6.468.424 1.382.322 1.377.762 2.531-.355-.005-2.279-.205-3.167-1.915-.367-.707-1.288-2.608-.317-5.077.6-1.526 1.567-2.862 2.646-3.727 4.048-3.236 6.42-3.844 8.862-6.439 1.486-1.648 1.071-3.443 1.021-4.027zm44.205 25.655c.788-.121 2.001.453 2.001.453s-1.565.75-2.036.498m-1.849-.663c.788-.121 1.908.717 1.908.717s-1.733.776-2.203.526"/><path d="M62.216 96.33c.788-.121 1.796.778 1.796.778s-1.786.843-2.258.591m-2.301 2.011c.788-.121 1.796.778 1.796.778s-1.432.755-1.905.503"/><path d="M59.69 98.376c.788-.121 1.81.743 1.81.743s-1.565.752-2.038.5"/><path d="M57.971 98.974c.788-.121 1.553.696 1.553.696s-1.038.965-1.622.772m.159-2.909c.788-.121 1.71.803 1.71.803s-1.362.798-1.834.546"/><path d="M61.41 99.163c.788-.121 1.877.779 1.877.779s-1.627.748-2.098.498m-1.039-3.517c.788-.121 1.665.831 1.665.831s-1.651.771-2.122.519"/><path d="M61.752 97.785c.788-.121 1.796.778 1.796.778s-1.608.776-2.081.526m4.302-2.497c.788-.121 1.796.777 1.796.777s-1.3.741-2.212.648"/><path d="M64.089 96.082c.788-.121 1.75.471 1.75.471s-1.391.776-1.864.526m3.84-.703c.788-.121 1.788.447 1.788.447s-1.603.769-2.076.517m-.707 2.873c.788-.12 1.796.778 1.796.778s-1.565.784-2.038.534"/><path d="M65.155 99.379c.788-.121 1.815.783 1.815.783s-1.574.714-2.091.55m.408-2.691c.788-.121 1.796.778 1.796.778s-1.479.717-1.951.465"/><path d="M63.148 99.988c.788-.121 1.796.777 1.796.777s-1.565.785-2.038.535m.543-2.718c.788-.121 1.796.777 1.796.777s-1.565.784-2.038.534m.73-2.751c.788-.121 1.414.876 1.414.876s-1.424.721-1.896.471m3.572.337c.788-.121 1.796.778 1.796.778s-1.462.74-1.934.49m.534-2.666c.788-.121 1.705.788 1.705.788s-1.619.798-2.091.548M62.3 95.437c.784 0 1.876.647 1.876.647s-1.634.4-2.076.177m4.006-.619c.784 0 1.779.733 1.779.733s-1.645.381-2.084.157m-7.252-1.192c.807-.002 1.743.512 1.743.512s-1.495.35-1.981.181"/><path d="M60.522 94.828c.793-.093 1.822.595 1.822.595s-1.634.56-2.146.393m3.729-.65c.771-.091 2.208.464 2.208.464s-1.531.576-2.029.409"/><path d="M60.721 94.792c.828-.036 3.993.238 3.993.238l-2.445.331m-5.015-.734c.789-.103 3.613.071 3.613.071s-1.812.721-2.327.558m6.277 5.52c.788-.121 1.796.777 1.796.777s-1.102.304-1.81.238-1.636-.441-1.636-.441m-1.972-.835c.828-.052 1.908.774 1.908.774s-1.407.445-2.029.314c-.691-.148-1.662-.555-1.662-.555"/><path d="M57.913 100.535c.828-.052 1.5.513 1.5.513s-1.309.483-1.86.371l-1.686-.405m8.341-5.965c1.115.243 4.248.291 4.248.291s-1.886.483-2.36.267"/><path d="M67.847 95.48c.814-.06 2.329.534 2.329.534s-1.817.465-2.345.316m-18.013-1.381c.691-.088 1.817.44 1.817.44s-1.579.943-1.988.697"/><path d="M48.241 95.312c.915.267 1.477.838 1.477.838s-1.317.353-2.66.195m4.493-.925c.707-.09 1.629.783 1.629.783s-1.65.757-2.077.495m-2.681 2.161c.769.002 2.114.679 2.114.679s-2.526.734-2.977.426m1.306-2.524c.733-.091 1.962.665 1.962.665s-1.944.959-2.374.676"/><path d="M45.834 97.654c1.603.114 2.708 1.183 2.708 1.183s-2.643.222-3.813-.307m2.307-2.1c.722-.09 1.938.986 1.938.986s-2.653.424-3.074.148m4.84.581c.745-.09 1.781.902 1.781.902s-1.591.731-2.038.433m-.849-3.305c.707-.091 1.527.579 1.527.579s-1.843.862-2.262.597"/><path d="M51.099 96.783c.726-.09 1.664.84 1.664.84s-1.531.729-1.967.45m3.995-2.307c.727-.091 1.748.81 1.748.81s-1.196.693-2.075.565m-1.229-1.899c.712-.09 1.62.488 1.62.488s-1.265.7-1.708.443m3.548-.55c.734-.091 1.757.484 1.757.484s-1.471.705-1.948.44m-.465 2.975c.791-.093 1.934.983 1.934.983s-1.565.827-2.079.502"/><path d="M54.329 98.537c.767-.091 1.857.934 1.857.934s-1.55.716-2.079.502m.295-2.829c.746-.091 1.786.867 1.786.867s-1.414.691-1.888.403"/><path d="M52.383 99.092c.767-.091 1.789.946 1.789.946s-1.56.803-2.033.488m.532-2.889c.746-.091 1.746.883 1.746.883s-1.514.767-1.976.474m.673-2.759c.727-.09 1.35.907 1.35.907s-1.338.674-1.788.4m3.46.494c.769-.091 1.881.915 1.881.915s-1.417.745-1.919.441m.312-2.764c.748-.091 1.746.859 1.746.859s-1.526.767-2.014.483m-4.502-3.354c.693.017 1.674.631 1.674.631s-1.452.305-1.843.088m3.585-.442c.721.021 1.705.731 1.705.731s-1.519.314-1.941.088m-6.231-1.414c.679.016 1.283.641 1.283.641s-1.183.526-1.548.317"/><path d="M49.88 93.819c.69-.062 1.8.786 1.8.786s-1.432.445-1.872.283m3.479-.677c.681-.064 1.795.671 1.795.671s-1.376.49-1.833.321m-3.17-1.486c.688-.064 3.639.336 3.639.336s-1.653.655-2.105.495"/><path d="M47.198 93.068c.852.197 3.079.538 3.079.538s-1.119.676-1.707.548m5.477 5.89c.79-.092 1.883.998 1.883.998s-1.215.208-1.757.15c-.769-.083-1.774-.592-1.774-.592m-1.916-1.036c.802-.016 1.855.962 1.855.962s-1.655.296-2.26.225c-.802-.093-2.526-.706-2.526-.706m-2.73-1.281a4.55 4.55 0 0 1 2.891 1.256s-1.724.307-2.679.149c-1.028-.171-1.427-.354-1.427-.354"/><path d="M53.445 94.123c.714.005 4.422.343 4.422.343s-2.374.605-2.822.395"/><path d="M56.924 94.682c.748-.033 1.707.636 1.707.636s-1.412.419-1.924.259M43.93 93.538c.912.169 1.617 1.269 1.617 1.269s-1.891.119-2.824-.302m-.212-1.843c.829.141 1.514.869 1.514.869s-1.836.131-2.155-.202m4.467.743c1.021.191 2.07 1.088 2.07 1.088s-2.443.016-2.887-.393m-2.458 2.314c1.033.281 1.829 1.532 1.829 1.532s-2.569.214-2.967-.328"/><path d="M41.718 95.561c.921.224 1.555 1.541 1.555 1.541s-2.25-.081-2.693-.477m2.073-2.141c.909.195 1.555 1.383 1.555 1.383s-2.096.002-2.446-.414"/><path d="M39.612 95.448c.829.209 1 1.257 1 1.257s-1.905.109-2.17-.321m2.111-2.013c.827.183 1.272 1.21 1.272 1.21s-1.81.195-2.094-.197m2.068-2.019c.834.159.924 1.139.924 1.139s-1.741.143-2.039-.216m3.445 1.579c1.02.243 1.829 1.633 1.829 1.633s-2.324-.014-2.741-.503"/><path d="M45.353 94.802c1.017.212 1.755 1.453 1.755 1.453s-2.505.003-2.929-.441m.586-2.874c.855.243 1.66 1.157 1.66 1.157s-2.069-.276-2.425-.593m-.949-1.561c.786.138 1.75.998 1.75.998s-1.857-.043-2.251-.303m-2.078 4.018c.92.257 1.472 1.677 1.472 1.677s-2.11-.128-2.381-.431"/><path d="M43.232 91.945c2.024.798 4.706 1.022 4.706 1.022s-2.762.252-3.17-.053"/><path d="M47.113 93.026c1.019.229 1.622 1.119 1.622 1.119s-1.783.214-2.353-.107m-6.239-2.39c.659.141.89.802.89.802s-1.919-.057-2.134-.359"/><path d="M38.173 90.95c.638.476.743 1.226.743 1.226s-1.834-.288-2.346-.983m4.366 1.252c.714.162 1.046.995 1.046.995s-1.938.121-2.176-.212m-3.814.123c.615.255 1.738 1.722 1.738 1.722s-2.476-.595-2.655-.957m2.727-1.076c.536.352.976 1.108.976 1.108s-2.384-.296-2.734-.862"/><path d="M35.451 92.418c.502.481.619.95.619.95s-1.975-.402-2.089-.853m3.211-.806c.507.452.722 1.376.722 1.376s-1.924-.045-2.127-.667"/><path d="M38.68 94.148c.707.195 1.079 1.307 1.079 1.307s-1.846-.045-2.06-.422m1.141-2.869c.453.291.988 1.124.988 1.124s-1.776-.055-1.975-.374"/><path d="M39.757 93.288c.709.177.953 1.086.953 1.086s-1.717.095-1.943-.258m2.708-2.229c.647.229 1.267.85 1.267.85s-1.593-.093-1.831-.377m-1.376-1.795c.596.293.681 1.103.681 1.103s-1.639-.148-1.927-.748m2.63.077c.652.15.6.893.6.893s-1.026-.086-1.321-.331"/><path d="M41.262 91.063c.834.415 2.182.865 2.182.865s-1.619.157-1.953-.1"/><path d="M39.928 89.668c.56.615 1.662 1.445 1.662 1.445s-1.091-.1-1.913-.579m-2.006 4.538c.653.357.776 1.362.776 1.362s-1.686.284-2.174-.26m-2.513-3.622c1.308.602 1.326 1.674 1.326 1.674-.702-.224-1.674-.603-2.114-1.296m8.893 5.387c.921.257 1.87 1.522 1.87 1.522l-2.924-.522c-.61-.452-1.248-1.451-1.248-1.451"/><path d="M38.336 96.422c.924.429 1.248 1.541 1.248 1.541s-1.643.255-2.736-.388m-1.823-3.37c.874.376 1.276 2.082 1.276 2.082s-2.186-.26-2.663-1.422"/><path d="M32.632 92.749c1.557 1.095 1.038 2.189 1.038 2.189s-1.207-.36-1.303-.876c-.11-.59.265-1.314.265-1.314zm3.605 3.533c.584.697.615 1.336.615 1.336s-1.939-.171-2.448-.891"/><path d="M35.299 97.291c.741.55 3.07 1.469 3.07 1.469l-1.626-1.176"/><path d="M38.009 98.499c.805.464 3.124.957 3.124.957l-.948-.753m-7.639-4.377c.329.833 1.881 2.558 1.881 2.558-.091-.622-.419-1.31-.84-2.019m4.095-6.017c.278.374-.566 1.165-.566 1.165s-1.069-.548-1.07-1.053"/><path d="M37.915 87.991c.264.324-.176.907-.176.907s-1.05-.502-.852-.765m1.44 1.76c.259.384-.067 1.188-.067 1.188s-1.334-.739-1.112-1.096m-3.707.381c.183.479-.919 1.412-.919 1.412s-.852-.746-.684-1.331"/><path d="M34.437 89.177c.195.402-.922 1.27-.922 1.27s-.952-.757-.733-1.093m3.252-.427c.234.383-.734 1.193-.734 1.193s-1.003-.667-.726-.984"/><path d="M33.579 88.501c.16.355-.867.927-.867.927s-.967-.529-.638-.819m3.075-.356c.2.341-.683.991-.683.991s-1.047-.46-.766-.74m3.113-.377c.24.334-.767.857-.767.857s-.988-.464-.75-.733m-.036 1.845c.235.457-.984 1.443-.984 1.443s-1.003-.779-.671-1.164"/><path d="M37.025 89.945c.283.443-.514 1.42-.514 1.42s-1.445-.917-1.169-1.283m3.412-1.277c.176.397-.41 1.127-.41 1.127s-.755-.807-.59-1.081m-5.056.486c.148.415-1.269 1.479-1.269 1.479l.184-1.129c.11-.562.41-1.076.41-1.076m7.022-.786c.176 1.034 1.172 1.986 1.172 1.986s-1.553-.734-1.431-1.02"/><path d="M38.956 87.793c.252.31-.184 1.046-.184 1.046s-.895-.598-.812-.85m1.927 1.612c0 .345-.24 1.076-.24 1.076s-1.319-.434-1.262-.788m-.738-3.305c.172.26-.236.834-.236.834s-1.124-.479-.914-.688m.595-.793c-.169.391-.653.831-.653.831s-.484-.391-.431-.905"/><path d="M37.368 87.388c.178.293-.545.81-.545.81s-1.06-.521-.824-.755m-.882-.766c.129.269-.562.914-.562.914s-.993-.612-.731-.827"/><path d="M35.959 85.827c.136.24-.812.888-.812.888s-.648-.8-.414-.99m-.223 1.837c.122.303-.872.962-.872.962s-.759-.576-.464-.822m3.232-.961c.155.265-.46.736-.46.736s-.977-.593-.741-.803"/><path d="M35.913 87.456c.15.298-.691.82-.691.82s-.9-.465-.636-.705m3.639-.302c.079.307-.274.807-.274.807s-.688-.526-.503-.738m.789-1.569c.072.257-.572.834-.572.834s-.662-.49-.496-.664m1.718.433c.167.262-.645.912-.645.912s-.646-.51-.533-.715m1.222-.118c-.021.448.241 1.429.241 1.429s-.984-.409-.879-.636m.878-2.392c-.064.333-.097 1.657-.097 1.657s-.733-.491-.683-.734m-5.209 2.055c-.033.341-1.317.9-1.317.9s.364-.788.555-.998l.865-.879"/><path d="M33.748 86.765c.014.296-.629.971-.629.971s-.55-.348.714-1.646"/><path d="M34.693 85.696c.114.243-.921 1.11-.921 1.11s-.219-.491.321-1.11m2.299 5.593c.01.412-.667 1.476-.667 1.476s-1.638-.933-1.357-1.305m-.17.015c.305.353-.286 1.341-.286 1.341s-1.501-.805-1.25-1.162m-.193.091c.31.364.503 1.386.503 1.386s-1.246-.602-1.391-1.353c-.096-.491-.007-.745-.005-1.076m6.423-6.326c-.067.29-1.157.815-1.157.815s-.278-.443.04-.788"/><path d="M38.78 83.723c-.034.248-.76.674-.76.674s-.364-.388-.059-.574m-.247 1.367c.043.355-.595.783-.595.783s-.352-.4-.24-.802m-2.03-.057c-.148.322-1.176.946-1.176.946s.85-1.036 1.3-1.365"/><path d="M36.027 84.478c-.138.262-1.303.757-1.303.757s.047-.767 1.405-1.371m.767.517c-.105.271-1.141.762-1.141.762s.186-.762 1.231-1.405"/><path d="M37.447 83.395c-.247.107-1.583 1.126-1.583 1.126s-.25-.514.964-1.136m1.086.419c-.066.241-1.033.598-1.033.598s.172-.838.703-1.021m-1.835 1.741c.021.558-1.026.683-1.026.683s-.119-.276.079-.61m2.028-.058c-.076.393-.826.802-.826.802s-.369-.436-.205-.817m3.014-.742c-.157.317-1.115.843-1.115.843s.047-.646.348-.841m1.932-.968c-.022.248-1.16.976-1.16.976s-.241-.477-.005-.667m1.468.186c-.022.248-1.16.976-1.16.976s-.241-.478-.005-.667m.718 1.221c-.31.886-.778 1.45-.778 1.45s-.015-.645.062-.998"/><path d="M40.379 83.873c-.098.95-.548 1.684-.548 1.684s-.453-.669-.305-.962m-.405.29c-.012.193-.812.946-.812.946s-.483-.405-.552-.638m2.121-2.912c-.029.181-.876.645-.879.648s.062-.433.178-.578m-.251.591c-.147.752-1.067.945-1.067.945s.195-.657 1.041-.969"/><path d="M38.73 82.928c-.902.655-2.084.488-2.084.488l1.079-.591"/><path d="M38.948 82.187c-.288.01-1.281.643-1.281.643s.989.166 1.239.012"/><path d="M39.983 81.942c-.474.536-1.207.307-1.207.307s.457-.233.955-.421m.024.921c-.16.236-1.026 1.057-1.026 1.057s.048-.769.328-.929m1.74-1.373c-.303-.053-1.108.271-1.108.271s.386.34.795.048m-.077.662c-.055.502-.06 1.457-.06 1.457s-.56-.671-.517-1.11m.712-.645c-.01.207-.646.576-.646.576s-.012-.49.183-.691"/><path d="M40.84 81.454c.057.398-.341.838-.341.838s-.293-.588.31-.753m30.424 15.264c.843-.112 2.148.384 2.148.384s-1.593.693-2.117.478m-1.832-.765c1.339.179 1.045.284 1.901.812 0 0-1.724.638-2.293.419m4.322-.934c.781-.114 1.798.631 1.798.631s-1.71.776-2.203.576m-2.36 1.909c.86-.165 1.983.568 1.983.568s-1.495.803-2.031.62m.254-2.423c.855-.147 1.969.583 1.969.583s-1.629.774-2.165.581"/><path d="M68.698 99.666c.919-.157 1.979.619 1.979.619s-1.472.743-2.175.612m.502-2.624c.915-.136 1.872.783 1.872.783s-1.607.652-2.181.443m3.985.205c.802-.15 1.922.551 1.922.551s-1.586.767-2.088.586m-1.298-3.098c.843-.126 1.812.705 1.812.705s-1.702.738-2.234.534"/><path d="M72.962 98.48c.793-.133 1.824.595 1.824.595s-1.555.753-2.051.562m4.02-2.271c.689-.109 1.588.59 1.588.59s-1.083.633-1.9.59m-1.255-1.583c.731-.107 1.629.369 1.629.369s-1.234.671-1.691.471m3.388-.638c.643-.103 1.507.483 1.507.483s-1.303.469-1.707.284m-.482 2.315c.66-.145 1.524.491 1.524.491s-1.264.735-1.677.574"/><path d="M76.326 99.671c.7-.141 1.631.524 1.631.524s-1.346.685-1.824.59m.253-2.234c.698-.126 1.61.557 1.61.557s-1.26.652-1.696.472"/><path d="M74.467 100.305c.752-.155 1.729.521 1.729.521s-1.274.743-1.741.572m.238-2.305c.745-.136 1.714.557 1.714.557s-1.42.75-1.886.57m.574-2.361c.734-.119 1.35.684 1.35.684s-1.286.659-1.75.469m3.255.117c.659-.129 1.517.522 1.517.522s-1.172.663-1.583.493m.345-2.14c.652-.114 1.398.579 1.398.579s-1.262.672-1.67.495m-4.551-2.658c.783 0 1.865.545 1.865.545s-1.548.343-2.003.155m3.747-.531c.684-.002 1.557.574 1.557.574s-1.389.328-1.789.154m-6.8-1.256a1.61 1.61 0 0 1 1.334.734s-1.115.229-1.867-.05"/><path d="M71.47 95.81c.846.01 1.979.598 1.979.598s-1.655.484-2.219.336m3.761-.552c.722-.072 2.05.388 2.05.388s-1.364.484-1.839.348"/><path d="M71.646 95.797c.876-.022 4.08.284 4.08.284l-2.356.271"/><path d="M67.203 95.477l4.67.26s-1.295.357-1.893.202m6.101 4.904c.707-.157 1.629.489 1.629.489s-1.143.406-1.634.39c-.645-.019-1.634-.288-1.634-.288m-1.917-.524c.848-.112 1.962.505 1.962.505s-1.5.502-2.05.383c-.714-.155-1.81-.252-1.81-.252m-2.136-.493c.971-.119 2.136.495 2.136.495s-1.407.298-2.069.255c-.859-.057-1.883-.226-1.883-.226"/><path d="M75.253 96.096c1.045.209 3.748.253 3.748.253s-1.57.386-1.996.214"/><path d="M78.505 96.456c.667-.046 1.891.405 1.891.405s-1.427.376-1.869.264m3.599.704c.731-.043 1.672.371 1.672.371s-1.432.45-1.832.276M79.9 97.69c1.221.212 1.483.393 2.115.822 0 0-1.976.183-2.482-.012m4.249-.295c.621-.052 1.222.496 1.222.496s-1.441.508-1.791.357m-2.422 1.416c.8-.136 1.593.386 1.593.386s-1.458.645-1.903.527m.712-2.13c.781-.093 1.607.71 1.607.71s-1.548.589-1.984.45"/><path d="M79.357 99.714c.912-.114 1.514.734 1.515.734s-.995.29-1.65.198m.295-2.007c.922-.076 1.782.574 1.782.574s-1.445.521-1.96.352m3.378.433c.674-.11 1.395.379 1.395.379s-1.398.574-1.77.455m-.437-2.3c.74-.067 1.353.56 1.353.56s-1.572.259-1.996.097m1.939-.076c.65-.081 1.284.441 1.284.441s-1.348.531-1.71.395m1.004-2.568c.607.047 1.472.734 1.472.734s-1.226.2-1.539.05m-3.403-1.28c.853.074 1.891.941 1.891.941s-1.674.017-2.331-.243"/><path d="M82.31 96.892c.712.069 1.7.757 1.7.757s-1.429.272-1.874.136m.334-.904c.948-.031 3.027.36 3.027.36s-1.336.245-1.981.103"/><path d="M79.054 96.471c1.008.002 3.846.376 3.846.376s-2.07.148-2.598-.017m2.032 4.05c.714-.101 1.458.311 1.458.311s-1.272.563-1.701.5l-1.546-.274m-1.334-.599c.971-.11 1.334.599 1.334.599s-.85.236-1.501.236c-.879 0-1.364-.34-1.364-.34m8.055-3.041c.447-.053 1.029.472 1.029.472s-.753.416-1.29.343"/><path d="M85.004 98.146c.534-.086.772.107.772.107s-.578.546-.841.393m1.414 1.872c.49-.065 1.153.578 1.153.578s-.995.538-1.303.341"/><path d="M85.33 99.932c.481-.062 1.112.553 1.112.553s-.995.461-1.319.335m.314-1.729c.464-.059 1.062.51 1.062.51s-.9.43-1.181.259m-1.302.555c.493-.064 1.146.444 1.146.444s-1.133.497-1.421.306m3.725-.972c.493-.147 1.293.358 1.293.358s-1.041.586-1.369.445m2.482-.877c.414.194 1.538.948 1.538.948s-.74-1.202-1.358-1.526"/><path d="M88.729 99.669c.509-.081 1.236.522 1.236.522s-1.024.471-1.329.29m-4.239-.894c.476-.06.988.335.988.335s-1.098.569-1.377.391"/><path d="M87.659 99.298c.476-.06 1.076.364 1.076.364s-1.002.562-1.281.384m.2-1.769c.509.109 1.248.567 1.248.567s-1.002.562-1.281.384m-.729-1.041c.441-.053 1.031.279 1.031.279s-.9.416-1.177.26m-1.964.05c.457-.055.695.314.695.314s-.828.553-1.096.388"/><path d="M86.466 99.617c.471-.06 1.112.534 1.112.534s-.889.467-1.188.288m.295-1.661c.453-.057 1.022.5 1.022.5s-.946.467-1.234.3m-.54-1.816c.434.012.998.426.998.426s-.927.184-1.176.052m-.94-.9c.421-.034 1.136.417 1.136.417s-.605.324-.879.224m.01 2.884c.502-.067 1.14.595 1.14.595s-1.043.102-1.379-.06c-.422-.202-1.084-.195-1.084-.195m4.915-1.582c.453.064 1.376-.024 1.376-.024s-.762-.66-1.179-.772m1.024 1.395c.443.115 1.258.867 1.258.867s-1.014.107-1.443.05m-1.117-.499c.49-.13 1.236.462 1.236.462s-1.022.229-1.377.11c-.443-.148-1.1.034-1.1.034m-2.475-3.929l1.629.272s-.515.174-.577.153"/><path d="M86.187 97.669l1.7.509s-.845.136-1.145.043m-3.72-11.371c-.267.195-.571.743-.571.743s1.084-.478 1.332-.945M57.367 73.756c.55-.141.948-.736.855-.929zm-2.227.108c.79-.186 1.729-.896 1.729-1.215zm-2.407-.121c.674-.098 2.269-1.05 2.269-1.446zm-2.512-.512c.889.193 2.981-.769 3.334-1.315zm-2.301-1.052c.629.229 3.538-.533 3.756-1.177zm-1.75-1.376c1.052.36 4.32-.334 4.455-.707zm-1.021-1.409c1.191.514 4.43.096 4.553-.397zm-1.156-2.447c1.048.871 4.348.528 4.841.107zm-.262-2.507c.55.845 4.454 1.028 4.903.469zm5.259-1.318c-.379.319-4.51-.393-4.67-1.214zm-3.583-2.933c.215.824 3.482 1.927 4.117 1.746zm.92-1.257c.067.596 3.019 2.193 3.627 2.182zm1.019-1.088c-.034.408 2.536 2.346 3.181 2.432zm3.742 1.44c-.495-.079-2.791-2.12-2.657-2.429z"/><path d="M49.76 56.139c-.079.422 1.96 2.231 2.226 2.225zm1.185-.826c-.138.555 1.498 2.162 1.776 2.157zm1.352-.821c-.071.421 1.119 2.127 1.333 2.02zm1.5-.479c-.141.64.362 1.688.557 1.815zm1.137-.071c-.067.571 0 1.038.203 1.401zm.947.124c-.083.324-.095.619.048.853zm3.044 19.548c.233.019.69-.528.607-.781zm25.883 6.385c.264.341.765.186.765.186s-.028-.481-.56-.748"/><path d="M83.906 79.801c.272.343.938.31.938.31s-.307-1.015-.55-1.017m.905 1.789c.221.272.89.071.89.071s-.362-.741-.605-.75m-.064-1.909c.291.419.897.288.897.288s-.441-1.1-.726-1.188m-.464 1.948c.274.283.762.16.762.16s-.171-.85-.55-1.081m-.895-1.44c.365.41 1.114.328 1.114.328s-.548-1.377-.841-1.314"/><path d="M84.535 78.145c.298.412.922.257.922.257s-.369-1.095-.972-1.389m-.1 1.978c.283.369.753.483.753.483s-.028-.934-.707-1.288m1.444 1.256c.317.3 1.16.217 1.16.217s-.484-1.074-.765-1.071m-.717 1.484c.257.347 1.01.229 1.01.229s-.293-.679-.743-.793m-1.41 1.285c.281.252.81.165.81.165s-.228-.834-.445-.848"/><path d="M83.458 80.665c.305.257 1.164.145 1.164.145s-.531-.807-.764-.84m1.727-2.664c.309.469 1.203.128 1.203.128l-.815-.805c-.474-.448-1.54-.689-1.54-.689"/><path d="M83.463 81.183c.288.15.741.512.741.512s.329-.631.157-.9"/><path d="M84.248 81.603c.219.095.741.107.741.107s.278-.488.15-.784m-3.01-2.151c.348.274 1.345.076 1.345.076s-1.031-.915-1.815-1.145"/><path d="M83.412 78.796c.331.269.927.405.927.405s-.691-1.183-1.281-1.338m-1.846-2.419c.446.322 1.857.471 1.857.471s-.826-1.922-3.324-1.191"/><path d="M81.457 76.435c.4.352 1.617.276 1.617.276s-.624-.84-1.819-1.217m.445 2.086c.365.307 1.457.281 1.457.281s-1-1.233-1.755-1.336"/><path d="M83.069 77.758c.353.303 1.372.4 1.372.4s-.436-1.169-1.467-1.441"/><path d="M83.081 76.748c.353.303 1.35.457 1.35.457s-.326-1.062-1.357-1.332m.011 3.859c.331.174.833.253.833.253s-.459-1.15-.671-1.1m-1.204.828c.343.233 1.076.059 1.076.059s-.769-.921-1.01-.927"/><path d="M82.581 80.971a5.96 5.96 0 0 1 1.105.488s-.281-1.308-.712-1.66m2.525 3.23c-.05.35-.443 1.028-.443 1.028s.845-.771 1.069-1.11"/><path d="M85.37 83.85c-.15.216-.645 1.117-.645 1.117s.617-.428.872-.743m-4.561-3.406c.507.024 1.772.326 1.772.326s-.419-.912-.764-.94m.979-4.37c.462.284 1.357.095 1.357.095l-1.038-.557c-.412-.186-1.134-.419-1.134-.419m-29.173 3.151c.652.212 1.674-.148 1.674-.148s-.872-1.1-1.3-.953m-2.002.444c.908.053 1.314-.055 2.062-.486 0 0-1.072-.931-1.501-.786m2.703 1.735c.529.297 1.6-.346 1.6-.346s-1-1.243-1.429-1.098m-.823-2.539c.529.297 1.364-.2 1.364-.2s-.752-.641-2.22-.436m.422 2.058c.529.297 1.569-.362 1.569-.362s-.8-1.05-1.229-.903"/><path d="M52.047 76.059c.529.297 1.581-.676 1.581-.676s-.417-.552-.889-.555m2.365.093c.529.296 1.631-.36 1.631-.36s-.959-.822-1.41-.807m-1.925 3.15c.529.296 1.505-.479 1.505-.479s-.931-1.119-1.36-.972"/><path d="M54.871 76.379c.529.297 1.572-.379 1.572-.379s-.893-1.138-1.322-.991m2.241 3.462c.529.296 1.572-.379 1.572-.379s-.683-1.033-1.376-1.143m-1.589 1.66c.529.296 1.431-.081 1.431-.081s-.736-1.09-1.165-.943m2.534 1.56c.529.297 1.555-.252 1.555-.252s-.996-.926-1.426-.779m.491-3.037c.529.296 1.572-.379 1.572-.379s-.86-1.136-1.289-.99"/><path d="M57.891 75.543c.529.296 1.588-.378 1.588-.378s-.889-1.067-1.322-1.019m-.643 2.786c.529.296 1.572-.379 1.572-.379s-.822-1.048-1.25-.902"/><path d="M56.65 74.483c.529.296 1.572-.379 1.572-.379s-.915-.741-1.37-.714c-.426.026-1.493.317-1.493.317m1.018 2.254c.529.297 1.572-.379 1.572-.379s-.86-1.136-1.289-.99m-.431 2.919c.529.296 1.329-.562 1.329-.562s-.779-1.041-1.208-.895m2.705.461c.529.296 1.572-.379 1.572-.379s-.802-1.069-1.229-.922m-.545 2.79c.529.296 1.488-.434 1.488-.434s-.872-1.134-1.301-.988m-4.592 2.273c.569.176 1.584-.229 1.584-.229s-1.014-.767-1.41-.641m2.653 1.515c.569.176 1.545-.336 1.545-.336s-1.059-.748-1.455-.622m-6.459-.011c1.308.067 2.181-.397 2.181-.397s-1.04-.614-1.679-.586m1.49 1.58c.574.176 1.577-.248 1.577-.248s-1.019-.771-1.446-.717m2.504 1.327c.526.264 1.762.028 1.762.028s-.908-.919-1.327-.862"/><path d="M53.012 79.178c.586.222 3.043.622 3.043.622s-1.35-.829-1.655-.877m-3.453-.349c.793.195 2.196.722 2.196.722s-.779-.75-2.236-.766"/><path d="M58.134 74.067c.529.297 1.572-.379 1.572-.379s-.757-.507-1.209-.471l-1.526.181m-1.276 6.272c.893.005 3.177.657 3.177.657s-1.198-.905-1.615-.795"/><path d="M58.481 80.052c.569.241 1.862-.071 1.862-.071s-1.141-.815-1.576-.783m2.968.02c.56.236 1.61-.186 1.61-.186s-.998-.996-1.407-.803"/><path d="M60.294 78.868c.91-.048 1.01-.174 1.701-.686 0 0-1.262-.793-1.672-.6m3.01 1.438c.56.236 1.515-.55 1.515-.55s-1.143-1.124-1.551-.931m-1.339-2.125c.56.236 1.596-.831 1.596-.831s-.898-.984-1.307-.791m-.413 3.027c.56.236 1.598-.784 1.598-.784s-1.133-.686-1.541-.495"/><path d="M60.57 76.065c.56.236 1.417-.614 1.417-.614s-.627-.82-1.107-.703m-.576 2.774c.56.236 1.588-.66 1.588-.66s-.84-.646-1.321-.693m2.804-.193c.56.236 1.577-.54 1.577-.54s-1.045-1.005-1.453-.812m-1.579 3.51c.56.236 1.438-.643 1.438-.643s-1.102-.786-1.51-.593m1.468.55c.56.236 1.515-.55 1.515-.55s-1.024-1.031-1.432-.838m2.645 3.192c.56.236 1.515-.55 1.515-.55s-.802-.95-1.503-.983m-1.382 1.823c.56.236 1.412-.24 1.412-.24s-.862-1-1.271-.807m2.706 1.27c.56.236 1.514-.422 1.514-.422s-1.102-.808-1.51-.615"/><path d="M67.748 75.664c.521.233 1.479-.584 1.479-.584s-.764-.869-1.362-.807m-1.648 2.009c.56.236 1.531-.552 1.531-.552s-1.012-.96-1.436-.865m-.303 2.842c.56.236 1.515-.55 1.515-.55s-.941-.95-1.35-.757m-1.317-1.031c.56.236 1.515-.55 1.515-.55s-.874-.976-1.283-.783"/><path d="M64.764 76.866c.56.236 1.515-.55 1.515-.55s-.991-1.034-1.4-.841m-.077 2.949c.56.236 1.253-.705 1.253-.705s-.9-.948-1.308-.755m2.741.156c.56.236 1.515-.55 1.515-.55s-.924-.972-1.333-.779m-.203 2.832c.56.236 1.426-.597 1.426-.597s-1.003-1.031-1.412-.838m-4.287 2.767c.586.112 1.546-.403 1.546-.403s-1.115-.621-1.495-.452m2.834 1.182c.586.11 1.495-.505 1.495-.505s-1.141-.626-1.519-.457m-5.754.632c.602.116 1.489-.714 1.489-.714s-1.002-.533-1.543-.307"/><path d="M61.687 80.398c.591.112 1.536-.421 1.536-.421s-1.083-.789-1.503-.688m2.627 1.176c.555.203 1.753-.167 1.753-.167s-1.012-.812-1.422-.709"/><path d="M61.806 80.435c.609.155 3.096.281 3.096.281s-1.439-.674-1.75-.688m-4.253.154l3.051.355s-1.205-.647-1.626-.553m5.957-5.195c.56.236 1.693-.538 1.693-.538s-1.103-.934-1.538-.803c-.55.166-1.348.541-1.348.541m-1.567.558c.605.171 1.598-.529 1.598-.529s-.971-.847-1.403-.715l-1.405.443"/><path d="M60.91 74.634c.605.171 1.402-.891 1.402-.891s-.862-.655-1.3-.615c-.553.048-1.372.481-1.372.481m4.89 7.017c.886-.095 3.236.3 3.236.3s-1.298-.766-1.7-.612"/><path d="M67.343 80.697c.595.178 1.858-.222 1.858-.222s-1.25-.74-1.677-.657m1.448-.471c.555.293 1.927-.447 1.929-.462 0 0-1.603-.952-2.026-.762m.099-1.58c.562.248 2.127-.705 2.127-.705s-1.517-.874-1.939-.69m-.328 2.849c.564.245 2.1-.691 2.1-.691s-1.536-.843-1.958-.655m3.096 3.027c.55.238 1.517-.54 1.517-.54s-.762-.955-1.457-.995m-1.438 1.819c.555.24 1.421-.233 1.421-.233s-.829-1.008-1.245-.819m2.65 1.287c.543.236 1.496-.412 1.496-.412s-1.052-.808-1.46-.621m.216-3.052c.543.245 1.498-.516 1.498-.516s-.934-1.046-1.341-.864"/><path d="M72.337 76.711c.548.245 1.529-.522 1.529-.522s-.969-.977-1.391-.891m-.39 2.832c.55.241 1.517-.529 1.517-.529s-.9-.962-1.312-.776"/><path d="M71.008 75.77c.553.248 1.529-.519 1.529-.519s-.84-.996-1.253-.814m-.416 2.834c.555.245 1.531-.527 1.531-.527s-.955-1.053-1.371-.867m-.17 2.959c.555.241 1.274-.693 1.274-.693s-.869-.962-1.284-.774m2.722.195c.543.241 1.5-.524 1.5-.524s-.872-.979-1.279-.797m-.289 2.816c.543.238 1.415-.579 1.415-.579s-.948-1.034-1.357-.848M69.141 80.5c.591.114 1.619-.529 1.619-.529s-1.34-.703-1.731-.536m3.048 1.274c.578.112 1.495-.5 1.495-.5s-1.108-.631-1.489-.464m-1.749 1.145c.552.205 1.762-.165 1.762-.165s-.986-.819-1.401-.715m-2.947.845c.619.159 3.138.288 3.138.288s-1.434-.545-1.748-.56m3.31-5.363c.548.248 1.514-.512 1.514-.512s-.934-.9-1.367-.781c-.552.15-1.312.464-1.312.464m-2.133.684c.609.188 2.163-.657 2.163-.657s-.917-.803-1.371-.874c-.727-.112-2.007.676-2.007.676"/><path d="M70.513 81.052c.893-.093 3.21.3 3.21.3s-1.258-.765-1.664-.61"/><path d="M73.315 81.124c.579.176 1.827-.219 1.827-.219s-1.2-.736-1.622-.657m5.79.707c.9-.088 3.089.24 3.089.24s-1.129-.655-1.533-.519m.075-.063c.514.119 1.338-.645 1.338-.645s-.984-.488-1.353-.334"/><path d="M80.969 79.746c.514.14 1.274-.666 1.274-.666s-.91-.789-1.281-.584"/><path d="M81.019 78.575c.512.147 1.283-.648 1.283-.648s-.9-.802-1.274-.602m.139-.075c.393.133.995-.531.995-.531s-.684-.838-.974-.645m-6.032 3.48c.572.238 1.988-.496 1.991-.512 0 0-1.62-.803-2.067-.612m.134-1.467c.584.219 2.207-.677 2.207-.677s-1.532-.796-1.979-.624"/><path d="M75.039 78.315c.586.205 2.181-.698 2.181-.698s-1.555-.738-2.003-.555m.092 3.536c.61.066 1.667-.576 1.667-.576s-1.352-.566-1.763-.391"/><path d="M73.821 81.018c.662.102 3.253.041 3.253.041s-1.445-.393-1.772-.386m.128-5.082c.634.172 2.239-.6 2.239-.6s-.91-.75-1.376-.822c-.76-.119-2.15.61-2.15.61m4.136 4.912c.524.181 1.464-.543 1.464-.543s-.693-.803-1.364-.815m-1.468 1.685c.548.181 1.408-.283 1.408-.283s-.788-.857-1.207-.669m2.535 1.001c.498.172 1.389-.431 1.389-.431s-.94-.647-1.326-.465m.295-2.67c.498.207 1.398-.462 1.398-.462s-.822-.91-1.209-.752"/><path d="M78.617 77.053c.522.207 1.474-.486 1.474-.486s-.889-.857-1.3-.779m-.456 2.534c.526.195 1.467-.514 1.467-.514s-.828-.826-1.231-.653"/><path d="M77.329 76.224c.547.219 1.524-.476 1.524-.476s-.795-.901-1.214-.738m-.489 2.578c.548.205 1.526-.507 1.526-.507s-.91-.933-1.329-.76M77.102 79c.546.191 1.277-.669 1.277-.669s-.829-.834-1.252-.653m2.644.098c.5.195 1.403-.49 1.403-.49s-.769-.836-1.155-.669m-.355 2.467c.5.183 1.326-.555 1.326-.555s-.841-.864-1.227-.691m-1.506 2.761c.553.062 1.438-.522 1.438-.522s-1.034-.491-1.407-.324m-1.762 1.118c.55.147 1.748-.26 1.748-.26s-.946-.665-1.364-.552m1.857-4.341c.521.219 1.458-.455 1.458-.455s-.859-.807-1.279-.707c-.543.129-1.305.407-1.305.407"/><path d="M76.835 80.908c.898-.09 3.091.234 3.091.234s-1.131-.652-1.534-.517"/><path d="M79.427 80.881c.534.114 1.688-.3 1.688-.3s-1.072-.558-1.469-.467m7.525-1.553l.789.467-.743-1.026c-.386-.498-.579-.553-.579-.553m-.572 3.46c.184.362.865.447.865.447s.145-.457-.526-1.041m-1.442 1.946c.477.641.353 1.202.353 1.202.043-.004.653-.626.31-1.107"/><path d="M85.001 82.143c.003.269.56.471.56.471s.49-.421.379-.738"/><path d="M84.248 81.604c.471.648.86.978.86.978.043-.004.019-.505-.198-.872m2.125-2.051c.514.15 1.37.874 1.37.874s-.005-.302-.21-.826c-.219-.559-.995-1.091-.995-1.091m-.934-.15c.355.24 1.103.643 1.103.643s-.481-1.32-.874-1.627m-1.473 4.165c.252.19.917.229.917.229s.295-.5.072-.902m.093 1.997a2.06 2.06 0 0 0 .269.629s.783-.303.881-.767m-1.833.882a1.66 1.66 0 0 0 .138.553s.643-.266.814-.669"/><path d="M86.418 83.581c.069.303.377.653.377.653s.433-.186.777-.519m-1.928-1.285c.069.303.378.653.378.653s.334-.009.491-.528"/><path d="M86.464 82.445c.117.29.478.584.478.584s.329-.062.4-.6"/><path d="M87.254 82.414c.086.3.581.615.581.615s.255-.167.343-.896m-2.618 2.136l.259.738s.714-.397.934-.824"/><path d="M86.863 84.183c-.203.262-.343.872-.343.872s.912-.757 1.021-1.276m-2.755 1.174l.124.772s.772-.264 1.065-.645"/><path d="M84.229 85.777c-.109.312-.109.636-.109.636s.772-.266 1.065-.647m.054.136c-.245.222-.491.798-.491.798s1.031-.586 1.227-1.076"/><path d="M86.083 85.1c-.246.221-.493.796-.493.796s1.031-.583 1.231-1.074m.117-3.498c-.147.397.367 1.105.367 1.105s1.067-.619.474-1.45m-1.751.697c-.117.376.386.919.386.919s.748-.422.424-1.253m.449 1.496c-.036.319.222.931.222.931s.271-.26.377-.736m.035-1.896c.055.228.21 1.481.21 1.481s.19-.671.212-1.108"/><path d="M87.749 80.876c.038.274.683.984.683.984s.031-1.038-.115-1.46"/><path d="M86.489 80.205a14.14 14.14 0 0 0 1.357.809s-.098-.709-.895-1.35M51.228 52.918c-.202.612-1.193.719-1.193.719s-.709-1.143 1.296-2.214"/><path d="M50.032 53.584c-.197.614-1.034.765-1.034.765s-.381-.921 1.074-1.819m2.191 1.079c-.202.612-1.193.719-1.193.719s-.343-.938.193-1.358"/><path d="M53.201 54.535c-.303.567-1.334.578-1.334.578s-.14-1.057.459-1.379m-1.206.555c-.197.614-1.234.957-1.234.957s-.253-1.207.279-1.629m-1.207.618c-.172.621-1.072.905-1.072.905s-.138-.517.314-.983c.121-.126.746-.688.945-.858m.719 1.831c-.172.621-1.153.941-1.153.941s-.121-1.307.393-1.748"/><path d="M48.706 55.964c-.172.621-1.136.824-1.136.824s-.169-1.095.543-1.676m-2.427 5.297c-.172.621-1.145.857-1.145.857s-.397-1.243.131-1.741"/><path d="M44.543 61.265c-.172.621-1.062.926-1.062.926s-.407-1.105.121-1.603M43.6 63.77c-.024.645-.857 1.16-.857 1.16s-.922-1.095-.51-1.696m1.896 2.213c.035.445-.776 1.095-.776 1.095s-.957-1.053-.545-1.655m1.497 4.223c.236.388-.393 1.557-.393 1.557s-1.272-.655-1.419-1.305m3.002.785c.288.733-.386 1.682-.386 1.682s-1.25-.536-1.155-1.245"/><path d="M45.058 71.807c.455.686-.255 1.631-.255 1.631s-1.043-.608-1.108-1.262m2.87.723c.352.3-.181 1.24-.181 1.24s-1.36-.114-1.503-.815"/><path d="M48.073 73.649c.126.395-.181 1.084-.181 1.084s-.981-.066-1.503-.622m-.1.016c.338.44.153 1.439.153 1.439s-1.519-.312-1.662-1.014"/><path d="M44.745 73.408c.352.3-.029 1.353-.029 1.353s-1.041-.927-1.286-1.757m4.002-1.364c.828.688.862 1.936.862 1.936s-.981.117-1.438-.752m.959 1.902c.684.352.572 1.414.572 1.414s-1.343.183-1.932-.638m1.761-1.916c.965.529 1.038 1.296 1.038 1.296s-.662.245-1.217-.276"/><path d="M49.854 73.764c.471.19 1.181 1.239 1.181 1.239s-1.279.259-1.819-.215m-.029.111c.709.369 1.165 1.422 1.165 1.422s-1.443.284-1.858-.348m-.059.125c.886.441 1.16 1.46 1.16 1.46s-1.448.031-2.153-.822"/><path d="M50.309 76.327c.564.181 1.148 1.214 1.148 1.214s-1.576.231-1.915-.121"/><path d="M49.542 77.565c.788.191 1.479 1.093 1.479 1.093s-1.817-.648-2.315-1.222m-2.315-1.882c.905.578 1.119 1.734 1.022 1.488 0 0-1.86-1.195-2.076-1.879m5.629-.149c.498.126 1.126 1.112 1.126 1.112s-1.203.658-1.762.14m1.374-2.763c.507.057 1.174 1.265 1.174 1.265s-1.329.638-1.912.141m-1.62-2.271c.409.207.548 1.121.548 1.121s-1.288.369-1.607-.274m-4.71-1.242c.236.388-.148 1.015-.148 1.015s-.614-.908-.636-1.56m4.505-.01c.136.4-.648 1.253-.648 1.253s-1.222-.586-1.502-1.179"/><path d="M43.802 70.617c.236.388-.167 1.65-.167 1.65s-1.041-.4-1.152-1.181"/><path d="M42.417 69.459c.5.664.066 1.808.066 1.808s-.641-1.81-.395-2.332"/><path d="M42.719 67.908c.236.388-.278 1.581-.278 1.581s-.767-.971-.707-2.136m.03-1.007c.164.248-.122 1.469-.122 1.469s-.115-1.341-.053-2.063m.142-1.103c-.159 1.065 0 1.66 0 1.66s1.12-.783.976-1.484"/><path d="M41.814 66.311c.047.672.979 1.646.979 1.646s.64-.772.495-1.474m6.246-9.886c-.21.527-.977.714-.977.714s-.226-.903.236-1.283m1.866-.214c-.133.528-.998.757-.998.757s-.195-.971.207-1.345m1.92-.1c-.207.564-1.129.688-1.129.688s-.005-1.152.467-1.517m1.478-2.072c-.431.55-1.476.805-1.476.805s-.345-1.35.572-1.822"/><path d="M53.737 53.161c-.476.481-1.69.553-1.69.553s-.028-1.302.628-1.567"/><path d="M54.804 54.214c-.436.517-1.61.293-1.61.293s.16-1.29.776-1.576m-6.019 2.211c-.202.612-1.114.857-1.114.857s-.114-.524.36-.969c.128-.119.777-.653.986-.815"/><path d="M46.829 55.921c-.191.615-1.283.955-1.283.955s.467-.729 1.401-1.519m-4.624 7.835c.202.612-.562 1.615-.562 1.615s-.093-1.326.472-2.651m5.328-5.447c-.152.624-1.093.976-1.093.976s-.052-1.253.448-1.71"/><path d="M46.467 57.571c-.076.638-.996 1.093-.996 1.093s-.319-1.276.122-1.786"/><path d="M45.446 58.564c-.031.641-.928 1.039-.928 1.039s-.424-1.177.928-2.465"/><path d="M44.495 59.505c-.031.641-1.026 1.15-1.026 1.15.007.069-.326-.781.547-1.839m2.63.631c-.138.738-.922 1.067-.922 1.067s-.508-1.374-.122-1.924m2.028-.154c-.009.641-.984 1.01-.984 1.01s-.49-1.243-.103-1.793"/><path d="M48.558 57.483c-.164.612-.893 1.04-.893 1.04s-.412-1.221-.004-1.757m-3.103 1.724c-.159.516-.7.484-.7.484l1.345-1.583m-1.758 4.691c.055.522-1.086 1.281-1.086 1.281s-.247-1.133-.062-1.467c.234-.424.338-.746.338-.746"/><path d="M43.426 60.404c.012.641-1.069 1.233-1.069 1.233l1.138-1.92m.171 4.06c-.24.478.422 1.736.422 1.736s.643-.993.583-1.369l-.222-1.241"/><path d="M44.628 62.734c-.012.621-.791 1.088-.791 1.088s-.574-1.058-.224-1.631m-.256 4.291c.038.986 1.551 1.422 1.551 1.422s.097-1.158-.138-1.469l-.728-1.002m3.333 6.384c.538.836 1.953 1.091 1.953 1.091s-.514-1.046-.869-1.205c-.453-.202-1.196-.236-1.196-.236"/><path d="M45.495 70.147c.21 1.117 1.872 1.551 1.872 1.551s-.1-1.158-.383-1.429c-.359-.345-1-.603-1-.603m-1.732-.731c.258.953 1.777.953 1.777.953s-.167-1.15-.465-1.401l-1.003-.815"/><path d="M44.855 67.89c.236.388-.483 1.258-.483 1.258S43 68.55 42.845 67.89m7.037 5.787c.757.66 1.867-.2 1.867-.2s-.702-.838-1.091-.898c-.493-.074-1.219.09-1.219.09m3.406 2.043c.6-.197 1.226-.74 1.226-.74s-.883-.786-1.276-.807c-.498-.026-1.07.286-1.07.286m-7.018-12.232c-.367.388-.033 1.734-.033 1.734s.777-.834.836-1.208l.234-1.239M28.128 97.935c-.469-.597-.822-.926-1.55-1.146.169.755.36 1.45.834 2.07m-1.408-3.5c-.586-.126-1.162-.16-1.755-.066.516.331.989.717 1.543.984"/><path d="M25.494 96.23c-.407-.29-1.064-.578-1.501-.814.141.433.374.867.684 1.172s.596.462.902.746m1.487-1.158c-.521-.302-1.058-.512-1.651-.605.391.474.727.99 1.174 1.414m1.335-1.264c-.548-.245-1.105-.398-1.705-.426.438.431.826.907 1.314 1.283m-1.258.267c-.407-.29-1.064-.578-1.502-.814.141.433.374.867.684 1.172s.596.462.902.746"/><path d="M28.729 97.219c-.465-.383-.964-.678-1.536-.865.312.531.562 1.095.936 1.586"/><path d="M29.267 96.657c-.493-.347-1.008-.605-1.593-.75.348.507.64 1.05 1.046 1.514"/><path d="M29.458 95.943c-.548-.245-1.105-.398-1.705-.426.438.431.826.907 1.314 1.283m-2.134 1.264l-1.57-.865c.207.502.524 1 .919 1.334s.752.498 1.139.807m8.862 2.216c-.453-.529-.924-1.008-1.486-1.418.219.746.412 1.432.908 2.041m1.706.873c-.546-.415-1.127-.674-1.776-.884.234.743.498 1.37 1.051 1.929"/><path d="M34.804 100.16c-.369-.231-.976-.607-1.772-.512.434.608.733 1.291 1.195 1.882m.008 3.074a2.73 2.73 0 0 0-1.622-.963c.131.698.336 1.305.741 1.889"/><path d="M34.982 103.553c-.441-.472-.917-.738-1.533-.908.184.696.421 1.306.846 1.891m1.376.849a3.1 3.1 0 0 0-1.452-.872c.007.767.084 1.448.419 2.142"/><path d="M36.583 104.189c-.503-.408-.993-.606-1.624-.72.157.701.326 1.313.796 1.867m-2.287-2.603c-.431-.437-.905-.677-1.476-.88.147.672.25 1.249.686 1.799"/><path d="M35.668 102.284c-.45-.45-.886-.681-1.514-.767.198.729.415 1.372.889 1.968"/><path d="M34.173 101.591c-.481-.485-.965-.649-1.629-.73.278.628.509 1.25.941 1.788m-1.441-4.025c-.483-.416-1.102-.472-1.701-.603.31.591.622 1.119 1.131 1.557m2.06-.5c-.533-.302-.988-.402-1.517-.515.25.512.536.848 1.06 1.079m-2.455-2.343c-.526-.271-1.081-.455-1.646-.624.388.517.896.962 1.408 1.352m-1.291 1.511c-.509-.562-.884-.865-1.626-1.034.221.741.46 1.421.976 2.007"/><path d="M30.763 100.338l-1.733-.869c.219.813.548 1.365 1.265 1.817m1.261-1.765c-.49-.4-1.14-.422-1.719-.629.222.633.441 1.036 1.015 1.401"/><path d="M32.039 101.984c-.524-.595-1.083-.665-1.846-.7.391.547.641 1.167 1.031 1.714m1.381-2.061c-.588-.401-1.222-.555-1.915-.668l1.369 1.615m1.007-2.186c-.534-.176-.955-.228-1.51-.179.319.519.61.986 1.096 1.35m-2.783-1.991c-.477-.391-.993-.733-1.576-.936.317.514.526 1.081.89 1.567"/><path d="M30.413 98.045a4.66 4.66 0 0 0-1.607-.717c.359.5.659 1.038 1.076 1.493m5.377.824c-.578-.424-1.095-.54-1.798-.593.616.334.915.752 1.455 1.167"/><path d="M32.305 97.759c-.552-.338-1.105-.443-1.741-.497.488.452.919.96 1.489 1.308m5.799 3.779c-.515-.317-1.058-.574-1.598-.846.345.583.743 1.074 1.272 1.491"/><path d="M36.7 100.737c-.457-.475-.858-.855-1.464-1.131.35.674.614 1.355 1.098 1.947m-2.239-2.841c-.648-.212-1.17-.709-1.805-.981.326.586.619 1.057 1.25 1.324"/><path d="M36.595 100.575c-1.1-1.541-1.655-1.413-3.041-2.365.45.609 1.233.865 1.767 1.42m3.752 2.712c-.777-.726-1.793-1.177-2.501-1.951a4.6 4.6 0 0 0 1.345 1.905m-7.604-.932l-2.026-.857c.314.586.764 1.153 1.288 1.512s.979.512 1.493.841m1.555.836a3.28 3.28 0 0 0-1.483-.835c.171.549.378 1.15.765 1.559.431.455.926.682 1.372 1.096m1.444 1.166c-.4-.531-.848-.898-1.446-1.174.267.589.724 1.053 1.165 1.498.381.383.802.584 1.219.901m-4.618-11.248l-2.094-.869c.521.609.969 1.102 1.682 1.47"/><path d="M33.732 98.588c-1.015-.845-1.988-1.617-3.119-2.3.509.558 1.057 1.083 1.624 1.579m13.287 12.021c-.522-.677-1.138-1.139-1.876-1.553.25.872.455 1.762 1.059 2.46m2.082 1.031c-.65-.559-1.358-.826-2.174-1.04.228.969.414 1.815 1.198 2.476m-2.157-4.9c-.59-.579-1.245-.848-2.048-.972.305.931.648 1.82 1.265 2.584m-.123 3.912c-.536-.73-1.129-1.062-1.983-1.302.135.874.345 1.645.862 2.367m2.073-2.32c-.497-.659-1.074-1.034-1.848-1.284.198.9.407 1.718.972 2.458"/><path d="M44.505 114.875c-.502-.567-1.05-.889-1.769-1.098-.033.938.017 1.769.447 2.617m2.497-3.01c-.583-.498-1.265-.705-2.001-.863.14.844.322 1.667.933 2.292m-2.734-3.344c-.534-.673-1.14-1.005-1.931-1.293.165.888.312 1.724.905 2.429m3.794-1.668c-.515-.612-1.088-.87-1.864-.984.221.924.403 1.834.998 2.595"/><path d="M42.803 110.048c-.533-.655-1.152-.938-1.957-1.109.247.854.493 1.723 1.055 2.421m-1.209-5.91c-.588-.594-1.227-.815-2.038-.924.267.917.547 1.74 1.176 2.471m2.56-.491c-.493-.55-1.033-.898-1.719-1.153.179.784.381 1.491.988 2.044m-2.434-3.906c-.578-.504-1.207-.757-1.943-.929.371.717.821 1.434 1.424 1.97m-1.874 2.784c-.619-.638-1.167-.922-2.022-1.114.21.876.393 1.664 1.058 2.303"/><path d="M38.935 108.173c-.657-.545-1.362-.824-2.177-1.032.291.856.629 1.61 1.322 2.204m1.796-2.291c-.608-.545-1.279-.807-2.062-.985.236.831.543 1.502 1.229 2.041"/><path d="M39.995 110.354c-.546-.755-1.131-.919-2.024-1.019.298.786.479 1.605 1.005 2.272m1.927-2.564c-.578-.603-1.227-.824-2.031-.96.31.755.662 1.496 1.164 2.139m1.598-2.742c-.555-.493-1.088-.586-1.807-.484.25.757.569 1.415 1.146 1.968m-3.14-2.822c-.56-.583-1.21-.9-1.988-1.08.197.769.474 1.542 1.036 2.107m1.84-2.482c-.59-.515-1.239-.755-2.015-.801.255.784.603 1.6 1.172 2.198m6.453 1.501c-.607-.522-1.262-.886-2.012-1.153.419.756.827 1.413 1.481 1.986m-2.591-4.057c-.619-.52-1.262-.77-2.043-.932.481.693.896 1.396 1.55 1.937m6.683 5.485a9.93 9.93 0 0 0-1.908-1.031c.372.759.765 1.41 1.446 1.921"/><path d="M46.196 108.662c-.548-.562-1.146-.891-1.886-1.129.362.826.698 1.648 1.286 2.338m-2.315-3.943c-.614-.668-1.295-1.168-2.086-1.603.321.778.629 1.521 1.217 2.131"/><path d="M46.075 108.461c-1.04-1.166-2.176-2.241-3.286-3.336.5.846 1.007 1.669 1.629 2.429m4.505 3.259c-.91-.905-1.946-1.675-2.877-2.563.357.96.648 1.843 1.439 2.527m-9.411-1.332c-.693-.521-1.414-.802-2.262-.945.371.624.822 1.272 1.352 1.738s1.055.758 1.603 1.168m2.011 1.249c-.545-.61-1.146-.986-1.915-1.234.231.719.509 1.55.998 2.088.545.598 1.119.87 1.672 1.415m1.749 1.503a4.05 4.05 0 0 0-1.75-1.51c.267.771.886 1.32 1.396 1.905.441.505.948.727 1.448 1.139m-4.51-15.25c-.752-.57-1.593-.977-2.472-1.303.553.793 1.083 1.441 1.851 2.029"/><path d="M42.958 105.592l-3.534-3.461c.502.827 1 1.66 1.677 2.353m13.976 13.842c-.566-.601-1.248-1.032-1.993-1.372.26.788.531 1.703 1.243 2.179m2.2.907c-.648-.557-1.467-.776-2.294-.912.331.789.726 1.732 1.462 2.205m-2.604-4.353c-.61-.623-1.336-.759-2.177-.764.3.8.653 1.855 1.365 2.353m.218 3.662c-.64-.551-1.396-.691-2.222-.681.283.693.61 1.5 1.269 1.893m1.906-2.581c-.629-.557-1.403-.759-2.232-.76.295.751.631 1.622 1.35 2.039"/><path d="M54.439 122.75c-.557-.517-1.229-.655-1.972-.61.052.726.181 1.501.769 1.972m2.336-2.669c-.608-.552-1.36-.69-2.16-.678.215.702.493 1.538 1.136 1.933m-3.291-2.486c-.669-.576-1.483-.674-2.336-.69.259.769.719 1.642 1.445 2.028m3.915-2.291c-.583-.548-1.314-.743-2.103-.693.265.807.608 1.752 1.357 2.203"/><path d="M52.204 118.652c-.614-.607-1.379-.71-2.21-.701.241.786.543 1.724 1.281 2.151m-1.373-5.799c-.548-.621-1.274-.909-2.084-.993.19.996.521 1.918 1.207 2.67m2.696-.731c-.527-.531-1.134-.832-1.841-1.048.167.735.417 1.619 1.091 2.015m-2.42-4.134c-.433-.694-.986-1.027-1.751-1.26.228.857.384 1.891 1.074 2.495m-2.1 3.379c-.615-.552-1.405-.735-2.213-.785.271.785.545 1.686 1.257 2.16"/><path d="M47.968 117.365c-.598-.648-1.426-.819-2.277-.842.305.807.629 1.721 1.255 2.324m2.127-2.808c-.583-.595-1.355-.829-2.169-.892.241.747.536 1.669 1.19 2.133"/><path d="M48.997 119.683c-.591-.556-1.358-.779-2.153-.846.24.827.481 1.774 1.271 2.217m1.941-3.009c-.591-.567-1.345-.722-2.139-.777.191.798.388 1.817 1.117 2.273m1.911-3.237c-.567-.486-1.22-.507-1.922-.324.214.71.453 1.574 1.115 1.967m-3.211-2.724c-.641-.66-1.374-.753-2.25-.817.2.795.41 1.684 1.152 2.121m2.046-3.023c-.54-.67-1.226-.834-2.053-.843.219.898.367 1.921 1.155 2.493m6.757 1.043c-.612-.522-1.314-.834-2.089-1.015.445.672.931 1.38 1.593 1.844m-2.789-3.876c-.553-.549-1.207-.914-1.946-1.145.319.805.703 1.705 1.424 2.21m7.15 4.945c-.64-.396-1.327-.667-2.039-.894.431.655.957 1.294 1.629 1.699"/><path d="M55.667 117.232c-.541-.554-1.21-.898-1.957-1.085.383.774.753 1.621 1.44 2.164m-2.548-3.689c-.626-.631-1.395-1.085-2.167-1.509.288.767.638 1.591 1.307 2.088"/><path d="M55.533 117.035c-1.09-1.138-2.274-2.156-3.472-3.172l1.758 2.3m4.797 2.957c-1.008-1.038-2.069-1.302-3.127-2.288.381.884.843 1.738 1.672 2.26m-10.224-.129c-.579-.633-1.341-.84-2.174-.892.395.609.814 1.291 1.338 1.776s1.1.795 1.738 1.06m2.462.708c-.712-.496-1.515-.632-2.358-.712.412.604.998 1.371 1.595 1.728.664.398 1.233.52 1.905.815"/><path d="M53.336 124.106c-.498-.424-1.241-.626-1.893-.664.315.59 1.072.809 1.624 1.088.477.242.902.278 1.522.676m-2.134-11.167c-1.412-1.028-2.372-2.096-3.465-3.439.409.87.75 1.901 1.495 2.532"/><path d="M49.318 111.283c-.621-.78-1.367-1.195-2.25-1.614.45.795.934 1.65 1.514 2.35m14.532 10.374c-.438-.314-.958-.395-1.488-.384.236.436.517 1.008 1.019 1.146m1.623.067c-.638-.215-1.038-.222-1.684-.045.355.426.764.895 1.315 1.028m-2.265-2.181c-.522-.291-1.11-.172-1.662-.012.272.521.674 1.192 1.267 1.342m.6 2.134c-.593-.193-1.193.069-1.717.362.253.445.572.952 1.112 1.007m1.092-2.505c-.571-.238-1.188.014-1.729.246.384.362.791.747 1.332.797"/><path d="M63.304 125.286c-.509-.21-1.007-.076-1.486.164.214.405.521.722.981.784m1.101-1.977c-.526-.259-1.081-.153-1.614.043.288.374.617.695 1.038.907m-2.685-.543c-.589-.257-1.246-.124-1.858.009.362.413.848 1.039 1.4 1.151m2.453-2.583c-.486-.26-.989-.084-1.464.136.319.383.657.819 1.167.904m-1.14-.853c-.567-.267-1.227-.133-1.815.021.303.455.702 1.022 1.257 1.136m-1.496-3.764c-.529-.305-1.162-.078-1.712.096.127.629.369 1.086.939 1.398m2.182-1.247c-.431-.319-.903-.4-1.427-.314.143.502.346 1.101.89 1.246m-1.986-2.06c-.467-.234-1.031-.189-1.541-.153.224.448.459 1.015.989 1.115m-2.275 2.894c-.626-.191-1.298-.053-1.91.152.197.717.591.983 1.319 1.055m2.902-1.446c-.738-.269-1.543-.065-2.269.173.364.507 1.043.819 1.626.963"/><path d="M58.415 122.343c-.617-.303-1.322-.124-1.958.054.221.543.562.979 1.159 1.074m1.264 1.292c-.676-.27-1.403-.198-2.105-.05.402.483.771 1.002 1.405 1.143"/><path d="M59.448 123.499c-.638-.278-1.338-.159-1.995.012.324.517.826 1.024 1.426 1.153m1.122-2.591c-.547-.277-1.119-.031-1.629.241.217.502.583.992 1.131 1.104m-3.029-.978c-.627-.309-1.362-.133-2.01.048.09.588.258 1.152.919 1.197m2.087-2.668c-.509-.281-1.148-.137-1.683.019.017.55.141 1.211.74 1.34m5.536-1.136c-.502-.219-1.029-.245-1.569-.207.326.4.729.836 1.245.946m-2.131-2.213c-.533-.193-1.096-.007-1.622.15.328.357.691.741 1.178.831m5.464 1.567c-.521-.193-1.034-.138-1.555.041.348.393.738.727 1.257.834"/><path d="M63.55 121.395c-.476-.229-.988-.245-1.507-.184.297.432.62.905 1.103 1.129m-1.943-1.974c-.476-.331-1.041-.508-1.605-.622.212.497.462 1.048.969 1.281"/><path d="M63.461 121.317c-.845-.543-1.777-.924-2.657-1.403.391.464.812.943 1.322 1.274"/><path d="M66.049 122.624l-2.676-1.451c.352.427.721.9 1.245 1.103m-7.732 2.486c-.822-.252-1.636-.007-2.429.255.543.227 1.234.753 1.782.843.697.112 1.262 0 1.936.046m1.969-.015c-.621-.236-1.364-.129-2.001-.024.352.388.96 1.019 1.446 1.081.617.077 1-.054 1.576-.052m1.591-.575c-.608-.088-1.124.2-1.596.57.334.304.834.676 1.267.719.55.054.955-.127 1.464-.229m-2.794-7.229l-2.815-1.324c.386.407.815.752 1.353.916"/><path d="M58.592 119.127c-.574-.226-1.205-.275-1.81-.378.338.45.715.971 1.267 1.143m11.589 4.291c-.398-.131-.76-.084-1.164.002.29.271.548.472.952.503m1.187-.158c-.447-.018-.815 0-1.229.181.384.189.776.275 1.202.291m-2.103-.811c-.445-.07-.821 0-1.236.171.34.346.715.693 1.215.727m1.005 1.002a3.38 3.38 0 0 0-1.436.717c.39.241.731.357 1.165.159m.309-1.602c-.5.074-.907.328-1.331.592.465.143.876.177 1.352.056m1.067-.458c-.46.019-.788.265-1.155.524.35.124.64.12.977-.04"/><path d="M70.605 125.024c-.434-.029-.784.085-1.146.328.369.096.736.132 1.114.165m-2.352.469c-.545.004-.977.159-1.458.409.422.243.824.398 1.315.384m1.358-2.042c-.41-.028-.7.131-1.015.382.352.197.669.274 1.07.211"/><path d="M68.448 125.143c-.514-.017-.948.088-1.419.292.364.301.693.512 1.177.505m-1.743-2.373c-.497-.139-.922.059-1.369.274.153.509.433.785.929.952"/><path d="M67.552 123.654a1.43 1.43 0 0 0-1.107-.136c.167.42.379.73.834.83m-1.739-1.351c-.419-.131-.765-.09-1.184.017.197.369.331.728.772.809m-1.115 2.429a1.87 1.87 0 0 0-1.352.039c.214.479.564.697 1.045.864m1.903-1.284c-.571-.021-1.048.145-1.579.331.381.41.793.634 1.352.665"/><path d="M66.063 124.807c-.552-.074-1.017.081-1.505.332.298.381.612.642 1.109.649m1.183.643c-.562.026-1.034.224-1.534.469.402.303.757.524 1.272.486"/><path d="M67.09 125.459c-.574-.04-1.031.126-1.536.388.384.336.764.541 1.279.519m.448-1.966c-.502-.089-.859.1-1.258.393.309.354.624.576 1.1.602m-2.543-.224c-.467-.111-.843-.016-1.289.141.183.4.378.755.826.86m1.011-2.253c-.469-.126-.846.031-1.262.248.102.447.257.838.731.95m4.089-1.491c-.4-.023-.783-.043-1.181.005.315.286.615.498 1.048.519m-1.763-1.456c-.452-.055-.869.126-1.284.288.295.265.569.47.969.525m4.276.412c-.41-.002-.778.067-1.152.243.345.205.648.334 1.052.345"/><path d="M69.815 123.43c-.41-.059-.767.026-1.148.183.31.234.61.425.986.532m-1.699-1.055a3.72 3.72 0 0 0-1.171-.414c.171.414.364.748.774.944"/><path d="M69.738 123.388c-.715-.207-1.424-.304-2.105-.624.317.344.647.656 1.093.812m3.096.331c-.748-.157-1.429-.409-2.17-.605.341.253.662.517 1.088.589m-5.332 3.026c-.612.007-1.217.11-1.812.233.419.288.97.696 1.46.693.622-.004.986-.273 1.546-.414m1.46-.6c-.576.031-1.014.29-1.498.578.397.186.96.412 1.372.306.524-.132.786-.439 1.226-.689"/><path d="M70.36 126.067c-.498.241-.914.469-1.207.957.364-.04.75-.2 1.055-.348.386-.188.619-.431.983-.626m-3.332-3.119l-2.194-.781a2.91 2.91 0 0 0 1.145.524"/><path d="M65.942 122.345c-.481-.098-.96-.127-1.448-.15.317.323.626.624 1.062.762m5.483 1.408c-.345.05-.803.402-.803.402s1.088.496 1.476.074"/><path d="M71.249 123.842c-.345-.051-.883.155-.883.155s.903.79 1.395.499m-.772.964c-.253.241-.429.798-.429.798s1.17-.229 1.25-.8"/><path d="M71.082 124.94c-.343.056-.796.416-.796.416s1.096.477 1.477.05m.274-1.444c-.279.012-.674.258-.674.258s.833.485 1.176.178"/><path d="M71.823 124.874c-.164.25-.205.745-.205.745s.927-.418.884-.907"/><path d="M72.02 124.401c-.307.05-.712.373-.712.373s.981.427 1.322.045"/><path d="M73.173 124.222c-.46.644-.845.875-.845.875s-.198-.567.176-.911"/><path d="M73.278 124.189c-.717-.114-1.372-.321-2.084-.472.335.224.65.458 1.057.508m-55.96-41.369c-.079-.241-.153-.384-.359-.54-.034.255-.053.495.024.743m-.041-1.255a1.58 1.58 0 0 0-.548-.226c.124.164.231.34.374.488m-.087-.05c-.095-.138-.271-.305-.381-.429a1 1 0 0 0 .081.447c.062.131.135.214.198.338m.606-.188c-.129-.155-.276-.284-.453-.383.069.193.116.393.209.579"/><path d="M16.483 82.142a1.58 1.58 0 0 0-.49-.333c.09.186.157.379.267.553m-.431-.064c-.095-.138-.271-.305-.381-.429a1 1 0 0 0 .081.447c.062.131.134.214.198.338"/><path d="M16.564 82.704c-.103-.174-.226-.324-.386-.45.038.202.052.407.114.605"/><path d="M16.798 82.59c-.116-.166-.25-.307-.417-.421.052.2.081.403.157.595"/><path d="M16.941 82.39a1.58 1.58 0 0 0-.489-.333c.09.186.157.379.267.553m-.821.145l-.396-.453c.007.181.05.372.136.524s.181.243.267.386m.478.466a1.45 1.45 0 0 1-.012-.465c.14.069.252.155.355.271"/><path d="M16.422 84.125a2.21 2.21 0 0 1-.053-.452.83.83 0 0 1 .326.286m-.55-.587a2.15 2.15 0 0 1-.103-.357.71.71 0 0 1 .328.21m.594-.433a1.9 1.9 0 0 1-.169-.478c.167.086.286.2.414.336"/><path d="M17.094 83.245a1.71 1.71 0 0 1-.16-.477l.431.309m-.626.417c-.033-.171-.029-.333-.007-.503a2.56 2.56 0 0 1 .346.279"/><path d="M17.497 83.597a2.5 2.5 0 0 1-.133-.538c.188.122.283.284.391.476m-.57.23c-.017-.184-.081-.348-.109-.529a.76.76 0 0 1 .396.36m-.756.358c-.028-.162-.031-.31.01-.471.202.057.34.103.434.298m-.418-.784l-.171-.459a.77.77 0 0 1 .365.26"/><path d="M16.397 83.225c-.038-.143-.06-.288-.079-.434.15.043.298.105.41.217m-.575.781c-.024-.141-.028-.283-.016-.427.1.095.174.197.229.322m-.133.601a2.41 2.41 0 0 1-.084-.5c.11.103.188.21.26.343m.976-1.048c-.083-.138-.15-.285-.176-.443a1.84 1.84 0 0 1 .336.359c.091.14.122.293.181.447m-1.537.762a5.51 5.51 0 0 0-.309-.762c.114.103.196.217.266.353"/><path d="M15.958 83.514l-.135-.452a1.64 1.64 0 0 1 .31.317m.488 1.17a1.86 1.86 0 0 1-.066-.457c.126.098.221.205.293.348m.909-.303c-.035-.203-.045-.398-.022-.602.212.129.295.302.362.533m-.828.258a1.32 1.32 0 0 1 .083-.584c.202.112.296.224.345.452"/><path d="M16.886 84.376c-.036-.162-.053-.31.002-.471.171.098.298.197.393.374m-.857.404a2.99 2.99 0 0 1-.083-.505c.107.114.193.229.257.371m1.292 2.978c.078-.246.136-.493.172-.75a4.15 4.15 0 0 0-.476.657m.004.764c.015-.264.012-.526-.012-.79a3.02 3.02 0 0 0-.469.707"/><path d="M18.057 86.784a2.8 2.8 0 0 0-.222-.779l-.279.803m-.983.515a2.08 2.08 0 0 0 .171-.66c-.233.14-.434.3-.617.5"/><path d="M17.03 87.415a2.45 2.45 0 0 0 .11-.664l-.534.581m-.104.609c.064-.21.095-.417.1-.636a3.42 3.42 0 0 0-.705.465"/><path d="M17.061 88.091a2.85 2.85 0 0 0-.007-.697c-.198.171-.371.353-.521.569m.583-1.186c.059-.302.022-.572-.052-.867-.066.293-.119.541-.317.776m.798.753c.043-.226.043-.434.002-.66l-.488.647"/><path d="M17.53 86.8c.022-.281-.022-.533-.109-.8l-.279.765m.766-1.286a1.49 1.49 0 0 0-.233-.583 2.19 2.19 0 0 0-.162.505m.58.711a4 4 0 0 0-.172-.648c-.078.183-.091.362-.076.56m.133-1.138c-.071-.2-.157-.393-.25-.584a2.25 2.25 0 0 0-.043.609m-.8-.058c-.138-.2-.312-.355-.498-.509a.89.89 0 0 0 .129.521"/><path d="M17.166 85.315a2.14 2.14 0 0 0-.288-.488 1.16 1.16 0 0 0-.04.443m.707.147c-.05-.198-.147-.357-.271-.519a1.08 1.08 0 0 0-.079.436"/><path d="M17.057 85.977c-.052-.262-.109-.503-.243-.738a2.01 2.01 0 0 0-.191.578m.791.221c-.052-.264-.119-.51-.25-.746a2.9 2.9 0 0 0-.086.669m.75.066c-.072-.215-.16-.419-.283-.61a3.01 3.01 0 0 0-.103.631m-.154-1.145c-.083-.219-.198-.409-.338-.595a2.32 2.32 0 0 0-.029.557"/><path d="M17.688 84.92a2.62 2.62 0 0 0-.286-.593 3.35 3.35 0 0 0-.095.569m.998 1.959c-.036-.272-.116-.524-.219-.778.007.254-.007.503-.024.757"/><path d="M18.228 85.451a1.7 1.7 0 0 0-.253-.586c-.028.204-.048.405-.048.61m-.015 2.745l-.01-.714c-.117.233-.207.469-.271.721"/><path d="M18.24 87.527a2.41 2.41 0 0 0 .072-.686l-.412.703m.419-1.274l-.086-.828c-.102.217-.138.426-.131.665"/><path d="M18.25 87.463c.131-.495.152-.979.136-1.488-.038.3-.047.6-.067.9m-.162 1.79l.174-1.241a2.83 2.83 0 0 0-.388.81m-1.122-2.953a1.39 1.39 0 0 0-.359-.45l.048.296.09.543"/><path d="M16.725 86.672c.112-.34.026-.615-.096-.938-.079.243-.188.502-.281.733s-.138.441-.229.669m-.217.665c.102-.215.178-.433.221-.667-.143.178-.283.398-.364.602s-.097.374-.157.578m2.684-3.392l-.229-.74c-.043.235-.079.462-.065.7"/><path d="M18.365 86.05l-.066-1.352-.074.7m-1.838 7.443c.114-.343.178-.703.197-1.064-.312.278-.559.553-.712.948m-.009 1.024c.081-.371.05-.709-.022-1.079-.324.298-.586.572-.724 1m1.48-1.871c.105-.334.083-.626-.007-.96-.319.288-.591.578-.784.965m-1.543.743c.165-.371.176-.695.102-1.091-.319.241-.578.495-.777.843m1.374.383c.141-.343.166-.655.116-1.021-.307.267-.569.541-.767.9"/><path d="M14.212 93.475c.117-.322.145-.619.093-.957-.388.183-.712.386-.986.722m1.725.403c.069-.343.034-.653-.041-.991-.315.247-.581.481-.743.855m.777-1.81c.128-.348.153-.674.129-1.041-.335.24-.61.464-.79.841m1.414 1.218c.109-.331.104-.615.009-.95-.319.278-.593.553-.788.933"/><path d="M15.764 91.791c.129-.34.131-.638.062-.993-.303.262-.569.521-.743.886m2.103-1.595c.085-.374.04-.697-.069-1.062-.267.319-.519.626-.702 1.002m.682.967c.138-.316.157-.598.124-.938-.257.243-.49.467-.622.802m.984-1.846c.035-.335.048-.652-.019-.983-.205.317-.348.653-.438 1.019"/><path d="M15.824 88.885c.159-.362.172-.665.102-1.052-.293.271-.498.521-.674.888"/><path d="M15.797 89.881a3.17 3.17 0 0 0 .088-1.058c-.302.272-.553.54-.707.922m1.224.315c.091-.35.081-.677.029-1.031-.262.271-.469.522-.591.884"/><path d="M15.102 90.707c.169-.353.157-.634.059-1.008-.283.257-.567.49-.765.821m1.399.321c.114-.343.1-.65.026-1.002-.25.267-.481.538-.659.86m1.397.166c.076-.317.017-.555-.141-.836-.248.246-.446.498-.576.826m.567-1.804c.117-.338.129-.664.088-1.017-.24.259-.45.526-.607.843m1.184.215c.057-.341.034-.648-.064-.979-.228.298-.424.6-.574.945m.625 2.855c.079-.321.081-.626.053-.953-.221.281-.393.569-.512.905m1.108-1.804c.043-.383-.01-.721-.119-1.088-.138.365-.286.724-.367 1.107m-.855 3.704a4.2 4.2 0 0 0 .014-.964c-.207.309-.371.607-.459.969m1.13-1.009c.259-.648.429-1.312.66-1.967-.236.358-.427.745-.62 1.127"/><path d="M16.992 92.882a2.34 2.34 0 0 0 .128-.971c-.309.295-.553.552-.738.943m1.182-1.872c.286-.715.402-1.446.583-2.189-.236.388-.386.815-.503 1.253"/><path d="M17.5 91.167c.128-.379.217-.716.222-1.119-.212.303-.436.619-.6.95m-.439 3.403c.19-.55.297-1.117.452-1.676-.312.328-.571.645-.719 1.077m-1.269-4.066a2.47 2.47 0 0 0 .091-1.081c-.217.245-.438.528-.566.822s-.167.56-.255.859m-.077 1.139a2.46 2.46 0 0 0 .112-1.038c-.255.241-.521.496-.646.826s-.124.66-.228.991m-.251 1.037c.176-.336.257-.659.255-1.038-.238.281-.365.633-.489.967-.107.288-.109.552-.171.843m5.092-4.961c.026-.429.069-.846.033-1.277-.198.384-.393.75-.44 1.186m-2.376 9.544c.048-.381.021-.741-.047-1.119-.25.316-.445.605-.508 1.01m.414 1.121c-.012-.417-.14-.764-.326-1.133-.236.358-.429.691-.491 1.122"/><path d="M15.178 97.446c.019-.397-.091-.712-.276-1.059-.267.341-.486.659-.569 1.091m-1.434.891c.019-.4-.072-.722-.257-1.076-.224.3-.395.584-.46.958m1.529.221c.019-.41-.081-.746-.267-1.108-.253.316-.438.607-.491 1.014m.544.889c-.052-.371-.21-.627-.464-.896-.238.283-.4.547-.445.919m1.759.182c-.015-.403-.165-.7-.4-1.02-.228.302-.398.579-.436.962m-.102-2.011c.015-.412-.095-.748-.272-1.115-.257.322-.428.627-.476 1.041m1.95 1.13c.014-.393-.097-.695-.305-1.024-.274.324-.474.626-.534 1.053"/><path d="M14.28 97.463c.024-.403-.088-.726-.276-1.078-.271.307-.479.59-.546 1.002m1.949-1.814c.083-.364.047-.672-.072-1.024a2.42 2.42 0 0 0-.777.991m.917.967c.046-.328.029-.638-.033-.962-.279.25-.465.49-.526.865m1.044-1.743c.145-.3.157-.572.124-.9-.315.233-.584.436-.741.805"/><path d="M13.535 94.364c.04-.384-.031-.721-.167-1.081-.281.302-.503.579-.605.986"/><path d="M13.769 95.407c.072-.414-.007-.738-.183-1.114-.272.317-.502.631-.643 1.027m1.602.253a1.79 1.79 0 0 0-.124-1.076c-.274.283-.488.557-.591.943"/><path d="M13.092 96.355c.048-.39-.019-.717-.167-1.078-.291.312-.51.597-.584 1.026m1.64.13c.036-.386-.036-.714-.184-1.069-.307.29-.543.557-.64.974m1.718.082c.004-.35-.107-.603-.317-.879-.26.272-.453.528-.519.907m.358-1.927c.06-.393-.031-.715-.178-1.077-.298.265-.521.508-.602.909m1.656.251c.097-.359.031-.65-.109-.988-.338.257-.6.496-.727.912m1.218 2.986c-.004-.364-.067-.705-.176-1.052a3.15 3.15 0 0 0-.279 1.053m.773-1.93a2.62 2.62 0 0 0 .007-.948c-.264.281-.445.552-.533.929m.132 3.985a5.46 5.46 0 0 0-.246-1.034c-.131.352-.221.69-.229 1.065"/><path d="M15.843 98.502c.014-.358-.053-.674-.178-1.008-.191.35-.345.689-.409 1.086m.679-1.861c.053-.381.06-.76.048-1.145-.245.283-.414.56-.486.931m.379 1.897l.209-2.053a6.87 6.87 0 0 0-.393 1.189"/><path d="M15.96 100.154c.059-.607-.014-1.213-.021-1.822-.219.405-.376.778-.395 1.243m-2.649-4.231c.067-.397.005-.726-.145-1.096-.15.305-.324.617-.397.948s-.04.631-.021.962m.289 1.159c-.007-.4-.105-.752-.262-1.117-.14.326-.295.683-.309 1.033s.081.64.103.981m.348.965c.04-.34-.216-.655-.343-.969-.122.286-.107.624-.098.915l.046.788m4.011-3.376c.071-.674.243-1.291.512-1.914-.274.302-.509.581-.641.974"/><path d="M16.434 94.852c.134-.381.16-.765.172-1.167l-.616.986m-.661 6.457c-.083-.367-.264-.652-.484-.953a2.02 2.02 0 0 0-.24.981"/><path d="M15.657 102.072c-.06-.345-.155-.659-.308-.974a1.92 1.92 0 0 0-.248.974m.273-1.848c-.047-.29-.155-.561-.241-.838-.176.259-.283.495-.272.812m-1.806-.125c-.04-.41-.14-.777-.291-1.158-.302.341-.443.7-.519 1.148"/><path d="M13.557 101.125c-.043-.429-.245-.767-.46-1.133-.221.355-.419.709-.545 1.11m2.048.09c-.117-.383-.336-.697-.579-1.01-.181.313-.324.61-.374.972"/><path d="M13.062 102.285a4.06 4.06 0 0 0-.536-1.219c-.333.44-.303.886-.207 1.411m1.795-.207a2.51 2.51 0 0 0-.533-1.19c-.388.369-.519.624-.455 1.171m1.936-.16c-.078-.342-.186-.698-.457-.933-.259.369-.428.659-.421 1.121m-.181-2.073c-.086-.391-.255-.743-.409-1.11-.286.291-.422.547-.455.958"/><path d="M14.817 100.23c-.086-.336-.231-.643-.393-.95-.231.293-.365.552-.381.931m1.787.861c-.096-.328-.262-.598-.457-.878-.067.314-.062.609-.014.926"/><path d="M16.166 102.164c-.078-.379-.179-.75-.331-1.106-.112.337-.179.648-.157 1.006m-3.173-.932c-.003-.396-.112-.734-.277-1.091-.107.365-.179.731-.191 1.119s.078.734.2 1.098m4.045-.323l-.386-1.882c-.074.343-.079.677-.045 1.025"/><path d="M15.856 100.287c-.119-.367-.253-.686-.314-1.07a2.21 2.21 0 0 0-.145 1.007m1.463 4.993a1.92 1.92 0 0 0-.526-.667c-.053.3-.081.558.057.839"/><path d="M17.114 105.96a2.11 2.11 0 0 0-.758-.583c.022.329.076.614.255.896m-.277-1.715c-.165-.286-.388-.445-.679-.591-.076.358-.088.663.066 1.003m-.514 1.229c-.309-.262-.621-.32-1.017-.331.005.321.062.562.29.798"/><path d="M15.832 105.813c-.253-.292-.538-.397-.905-.485.038.336.117.605.357.853m.698.39c-.217-.245-.455-.346-.774-.398-.005.279.062.486.25.695"/><path d="M16.595 106.298c-.202-.274-.445-.414-.762-.523.017.273.072.518.186.766m-1.1-1.162c-.209-.305-.452-.512-.793-.655-.053.4-.134.794.103 1.148m2.128-.451c-.176-.251-.391-.367-.676-.467-.014.31.003.566.181.829"/><path d="M15.676 104.985c-.198-.308-.469-.486-.793-.646-.066.357-.096.664.069.996m.825-2.147c-.121-.286-.324-.404-.598-.528-.21.283-.309.533-.259.886m1.298.228c-.084-.262-.207-.448-.422-.621-.148.276-.238.517-.122.823m.128-1.502c-.074-.287-.236-.424-.469-.595-.103.265-.215.505-.131.789m-2.021.482c-.191-.302-.438-.464-.757-.614-.122.35-.066.585.088.912m1.6.362c-.24-.328-.527-.504-.889-.676-.029.379.015.71.2 1.046m1.505-.608c-.178-.319-.431-.481-.75-.643-.098.307-.155.577.007.872m-.061 1.007c-.174-.324-.417-.491-.746-.643-.038.348-.047.657.079.988"/><path d="M14.889 104.382c-.197-.31-.448-.47-.783-.611-.069.348-.081.646.059.977"/><path d="M15.645 104.001c-.179-.281-.405-.381-.722-.455-.1.3-.122.534.022.822m-.778-1.413c-.178-.336-.445-.486-.784-.633-.164.293-.248.528-.093.843m1.855-.451c-.131-.316-.383-.45-.684-.581-.219.257-.358.47-.25.81m2.578 1.432c-.16-.25-.352-.45-.581-.638-.003.307.029.569.184.838"/><path d="M16.322 102.892c-.136-.208-.307-.324-.522-.441-.055.252-.09.469.012.712m1.768 2.516c-.198-.247-.434-.381-.726-.491.041.293.124.537.3.777"/><path d="M17.389 104.932a2.22 2.22 0 0 0-.598-.578c-.021.299-.014.569.103.849m-.156-1.493a3.59 3.59 0 0 0-.41-.829c-.112.295-.164.57-.086.881m1.132 1.108l-.634-1.489c-.007.339.01.664.093.995"/><path d="M18.113 106.306l-.731-1.526c.019.314.069.592.205.878m-4.187-1.44c-.272-.331-.59-.591-.943-.825.067.329.11.825.284 1.082.222.328.474.412.695.707m.752.712c-.25-.253-.46-.533-.746-.745-.029.311-.002.735.193.964.248.291.519.343.801.559m.979.224c-.314-.198-.617-.242-.983-.236.107.246.265.553.457.72.243.214.467.248.734.388"/><path d="M16.774 103.584c-.212-.484-.365-.95-.491-1.462-.024.267-.038.516.059.769"/><path d="M16.26 102.336a2.95 2.95 0 0 0-.436-.757c-.024.295-.034.588.002.883m3.182 5.29c-.1-.15-.241-.222-.409-.291.026.179.059.324.191.436m.454.224c-.146-.112-.277-.194-.472-.225a1.08 1.08 0 0 0 .333.401m-.504-.831a.9.9 0 0 0-.502-.253c.022.229.059.464.233.605m.071.644c-.238-.083-.472-.095-.746-.057.076.195.171.324.391.345m.577-.567c-.2-.093-.422-.089-.659-.089a.92.92 0 0 0 .479.351"/><path d="M18.951 108.514c-.164-.1-.35-.079-.555-.063a.44.44 0 0 0 .358.213m.349-.353c-.141-.114-.293-.154-.491-.143.102.125.221.227.341.329m-.978-.38c-.207-.136-.422-.182-.688-.203.091.21.2.374.395.491m1.1-.488c-.136-.112-.286-.12-.474-.1a.59.59 0 0 0 .324.347"/><path d="M18.31 107.835c-.184-.138-.379-.206-.621-.246.048.217.11.388.295.507m.058-1.416c-.146-.195-.374-.236-.617-.276a.62.62 0 0 0 .071.652m.926-.045a.62.62 0 0 0-.371-.355c-.064.214-.078.397.064.559m-.252-1.024c-.122-.174-.272-.261-.472-.343-.038.208-.098.396.053.558m-1.258.699c-.162-.209-.341-.318-.621-.381-.071.275.015.474.176.686m1.247-.021c-.229-.166-.486-.231-.777-.302a.86.86 0 0 0 .36.662m.935-.676c-.197-.182-.434-.25-.719-.286 0 .245.046.443.248.583m.277.583c-.233-.136-.49-.178-.779-.209.071.238.147.424.372.541"/><path d="M17.706 107.614c-.21-.167-.445-.222-.733-.25.05.245.138.433.352.557"/><path d="M18.099 107.237c-.162-.17-.357-.189-.605-.181.012.23.067.405.243.542m-.949-.791c-.162-.183-.353-.253-.6-.319-.055.226-.09.436.071.612m1.154-.654c-.148-.188-.353-.235-.596-.269-.103.217-.167.427-.003.612m2.022.506c-.134-.112-.265-.221-.424-.307.031.197.078.359.228.478"/><path d="M18.426 106.425c-.152-.148-.362-.195-.571-.25.033.191.074.351.21.484m1.391 1.261a.95.95 0 0 0-.455-.185c.06.164.127.288.262.387"/><path d="M19.281 107.504c-.122-.124-.269-.183-.447-.219a1.2 1.2 0 0 0 .191.455m-.294-.845a1.62 1.62 0 0 0-.302-.479c-.06.21-.088.395.003.583m.833.471c-.186-.261-.405-.481-.553-.786.012.219.04.427.153.603"/><path d="M19.808 108.166c-.2-.235-.355-.493-.548-.75.045.181.079.36.2.491m-2.896-.13c-.264-.164-.564-.288-.872-.402.09.245.197.576.414.707.269.162.512.143.79.226m.766.115c-.233-.13-.486-.133-.774-.135.102.179.293.276.49.333.245.07.402.145.641.146m.708-.104c-.245-.019-.46-.026-.712.103.147.069.333.093.485.104.19.013.34-.031.519-.024m-.276-2.037l-.572-.918a1.36 1.36 0 0 0 .269.532"/><path d="M18.215 106.047c-.152-.179-.328-.332-.512-.487.024.225.05.437.178.62m1.206 2.423c-.136.027-.31.177-.31.177s.445.169.589-.005"/><path d="M19.23 108.445c-.133-.039-.357.009-.357.009s.312.36.522.274"/><path d="M19.375 108.302c-.131-.048-.357-.012-.357-.012s.29.378.505.306"/><path d="M19.549 108.169c-.122-.064-.353-.059-.353-.059s.24.412.462.368"/><path d="M19.689 107.997c-.117-.074-.346-.088-.346-.088s.203.431.429.405m-.037.04c-.145-.056-.398-.021-.398-.021s.316.426.557.348"/><path d="M19.93 108.19c-.122-.094-.376-.132-.376-.132s.183.498.434.493m-.478.134c-.148.041-.331.22-.331.22s.507.154.655-.051"/><path d="M19.639 108.528c-.145-.053-.398-.014-.398-.014s.322.421.562.34m.375-.455c-.102-.073-.305-.095-.305-.095s.162.394.365.381"/><path d="M19.951 108.742c-.128.029-.291.174-.291.174s.424.152.558-.017"/><path d="M20.12 108.557c-.129-.048-.357-.012-.357-.012s.29.376.503.304"/><path d="M20.72 108.944c-.343.06-.536.013-.536.013s.11-.239.334-.232"/><path d="M20.737 108.923c-.253-.199-.464-.421-.707-.633.083.159.153.317.302.424m-4.215-37.54a1.75 1.75 0 0 1-.022-.164.32.32 0 0 1 .081.1c.017.038.024.072.038.11"/><path d="M16.086 70.707l-.01-.112a.41.41 0 0 1 .034.079l.017.079"/><path d="M16.147 70.831l-.023-.141a.53.53 0 0 0-.017.109c-.002.038.003.067.005.103m-.009.01l-.015-.107a.24.24 0 0 1 .053.066c.012.024.015.048.026.072"/><path d="M16.271 71.361c-.009-.116-.029-.226-.067-.336-.04.114-.036.198-.069.314m.06-.317a1.12 1.12 0 0 0-.019-.14c-.019.031-.038.066-.043.1s-.002.066-.007.1"/><path d="M16.33 71.662a1.48 1.48 0 0 0-.057-.377l-.138.379"/><path d="M16.295 71.631a1.9 1.9 0 0 0-.186-.34l.01.398"/><path d="M16.255 71.985a1.86 1.86 0 0 0-.162-.352l-.017.398"/><path d="M16.384 72.053a1.85 1.85 0 0 0-.043-.424l-.166.41m.068.317a2.32 2.32 0 0 1 .06-.421 2.6 2.6 0 0 1 .169.428m-.316.374c.016-.14.04-.276.074-.412l.166.407"/><path d="M16.363 72.734c.015-.131.034-.26.071-.388.036.133.047.234.034.374a2 2 0 0 1-.081.419"/><path d="M16.229 73.159l.176-.44a1.22 1.22 0 0 1-.007.507m-.383-.066l.136-.438a.77.77 0 0 1 .067.426m-.479-.005c.029-.129.071-.253.14-.367.09.129.102.234.102.393"/><path d="M15.998 72.394l.086-.398a1.16 1.16 0 0 1 .121.359"/><path d="M15.896 72.775l.086-.398c.062.116.129.219.15.347m-.565.76l.164-.352c.01.136.002.264-.029.397m.405.127a2.37 2.37 0 0 1 .281-.441c.016.19-.019.36-.069.541m-.444-.143a1.62 1.62 0 0 1 .228-.405 1.17 1.17 0 0 1-.035.464"/><path d="M15.719 73.522c.024-.128.05-.25.109-.367a1.1 1.1 0 0 1 .062.429m-.935 2.458a8.76 8.76 0 0 0 .35-.55c-.185.117-.352.253-.517.397"/><path d="M14.49 76.477a4.67 4.67 0 0 0 .302-.61l-.583.415m1.091-.787a5.39 5.39 0 0 0 .155-.638l-.481.526"/><path d="M14.209 75.537c.14-.14.253-.291.355-.46l-.6.197m.49.458a3.42 3.42 0 0 0 .303-.491l-.533.312"/><path d="M13.894 75.986a3.99 3.99 0 0 0 .343-.453 5.19 5.19 0 0 0-.688.138m.639.582a4.13 4.13 0 0 0 .29-.529 5.95 5.95 0 0 0-.574.288m.831-.757l.326-.671c-.159.179-.314.302-.496.457m.196.841a2.77 2.77 0 0 0 .217-.524l-.51.39"/><path d="M14.963 75.37l.25-.633a7.67 7.67 0 0 0-.459.515m.986-.689c.053-.143.085-.286.098-.438l-.293.252m.054.662a3.85 3.85 0 0 0 .155-.481 1.18 1.18 0 0 0-.298.316m.549-.642l.04-.471-.207.376m-.155-.11a5.12 5.12 0 0 0 .083-.486l-.24.347"/><path d="M15.533 73.925l.048-.49-.216.362m-.041.404l.048-.49-.216.362"/><path d="M15.418 74.221a3.81 3.81 0 0 0 .14-.384l-.279.257m.275.303a2.34 2.34 0 0 0 .112-.4l-.245.245"/><path d="M15.023 74.631l.262-.56a2.35 2.35 0 0 0-.443.319m.35.371l.24-.555a3.39 3.39 0 0 0-.388.415m.398.251l.112-.474a3.01 3.01 0 0 0-.352.379m.635-.633a5.11 5.11 0 0 0 .083-.486l-.24.347m-.226 1.621l.155-.614-.322.521m.685-.847a2.16 2.16 0 0 0 .04-.469l-.259.35"/><path d="M14.7 76.587c.1-.181.188-.367.269-.559l-.465.483m.694-.368a4.65 4.65 0 0 0 .266-.522 5.14 5.14 0 0 0-.507.44m.74-.827l.281-.55a1.63 1.63 0 0 0-.372.359"/><path d="M15.228 76.092l.552-.893c-.159.178-.228.209-.322.447m-.875 1.272a11.12 11.12 0 0 0 .664-.879c-.212.153-.372.364-.569.538m-.076-1.576c.083-.152.221-.488.265-.653l-.298.305-.245.296"/><path d="M14.314 75.172a2.22 2.22 0 0 0 .21-.465l-.312.29-.259.283"/><path d="M13.538 75.696l.434-.445c-.176.093-.364.203-.502.341s-.219.286-.341.433m3.011-1.676c.022-.188.095-.343.105-.531l-.229.419"/><path d="M15.807 75.115c.178-.276.26-.491.383-.795l-.226.333m-4.349 4.871a4.51 4.51 0 0 0 .669-.664c-.334.083-.645.195-.948.359m-.54.683a3.51 3.51 0 0 0 .547-.733 3.18 3.18 0 0 0-.967.36m1.906-.646a2.16 2.16 0 0 0 .422-.712c-.333.105-.652.229-.964.388m-1.365-.151c.243-.2.415-.422.559-.702-.309.038-.597.107-.883.226m.712.87a2.4 2.4 0 0 0 .555-.646c-.319.064-.621.152-.919.283m-.489.575c.207-.178.369-.372.507-.609a3.22 3.22 0 0 0-.955.048m.881 1.029a3.02 3.02 0 0 0 .462-.683 2.88 2.88 0 0 0-.879.257m1.349-.896c.217-.197.395-.414.553-.66-.319.036-.612.102-.905.236m.362 1.442c.207-.19.353-.395.467-.65a4.49 4.49 0 0 0-.965.305"/><path d="M11.718 78.533c.212-.197.366-.414.491-.674a4.22 4.22 0 0 0-.896.314m2.081-.399a5.39 5.39 0 0 0 .402-.822 8.13 8.13 0 0 0-.871.56m.057.959a2.45 2.45 0 0 0 .445-.712 5.15 5.15 0 0 0-.729.431m1.404-1.129a3.57 3.57 0 0 0 .441-.717 7.04 7.04 0 0 0-.753.626m-.741-.44a2.56 2.56 0 0 0 .493-.803 4.25 4.25 0 0 0-.802.514m-.15.97c.205-.217.372-.452.522-.71l-.872.398m.664.631a4.79 4.79 0 0 0 .464-.743c-.267.135-.521.284-.764.459"/><path d="M11.763 77.511a1.77 1.77 0 0 0 .49-.646 5.52 5.52 0 0 0-.891.219m.807.792a2.56 2.56 0 0 0 .455-.684l-.819.34m.866.648c.141-.209.217-.419.255-.667a4.53 4.53 0 0 0-.733.391m1.149-1.106a3.7 3.7 0 0 0 .505-.745 5.93 5.93 0 0 0-.755.488"/><path d="M13.74 76.986a3.12 3.12 0 0 0 .409-.734 7.52 7.52 0 0 0-.789.557m-.811 2.35c.188-.219.336-.45.46-.71l-.755.484m1.498-1.034l.374-.864a5.27 5.27 0 0 0-.705.743m-2.329 2.37a4.52 4.52 0 0 0 .531-.64 4.52 4.52 0 0 0-.81.445m1.288-.168a11.39 11.39 0 0 0 1.389-1.236l-.933.643m-.554.637c.233-.19.424-.397.588-.647-.34.093-.667.202-.988.35"/><path d="M13.316 78.633l1.29-1.553c-.348.219-.64.464-.895.786"/><path d="M13.195 78.759a4.03 4.03 0 0 0 .571-.871l-.765.591m-2.024 2.238l1.21-.933a5.14 5.14 0 0 0-1.074.397m1.112-3.3c.224-.205.402-.419.531-.695-.238.11-.515.2-.736.331s-.372.298-.569.452m-.541.739c.207-.197.379-.407.522-.655-.269.067-.55.115-.781.274s-.379.386-.59.566m-.617.597c.245-.166.447-.357.621-.593a3.39 3.39 0 0 0-.721.426c-.207.162-.331.328-.517.5m5.53-1.571c.229-.295.433-.595.602-.929l-.838.74M7.829 82.55a3.9 3.9 0 0 0 .615-.65c-.317.053-.609.134-.895.284m-.385.835a2.88 2.88 0 0 0 .448-.796c-.334.083-.643.193-.943.365"/><path d="M8.434 81.9c.198-.233.326-.478.421-.767-.338.067-.653.164-.96.321m-1.404-.256c.202-.221.341-.453.446-.734-.297.057-.567.143-.834.284m.839.937c.207-.229.353-.472.465-.762-.319.055-.605.147-.886.308m-.164.793a1.7 1.7 0 0 0 .219-.753c-.291.052-.546.138-.798.295m.984 1.014a1.94 1.94 0 0 0 .336-.783c-.297.062-.56.157-.817.317m1.081-1.186a2.36 2.36 0 0 0 .45-.746c-.317.059-.602.152-.881.316m.573 1.658a1.86 1.86 0 0 0 .4-.74c-.336.053-.636.141-.934.31"/><path d="M7.87 81.417c.202-.224.334-.462.433-.748-.321.045-.612.122-.9.272m2.193-.042a2.2 2.2 0 0 0 .471-.695 3.94 3.94 0 0 0-.971.26m.045 1.05a3.35 3.35 0 0 0 .491-.616 1.98 1.98 0 0 0-.779.255m1.538-.585a2.59 2.59 0 0 0 .534-.555c-.305.028-.584.086-.864.212m-.992-.923a2.66 2.66 0 0 0 .405-.796 3.03 3.03 0 0 0-.84.369m.049 1.141a1.81 1.81 0 0 0 .452-.738l-.926.29m.861.91c.212-.209.357-.433.471-.707-.295.066-.569.157-.838.293"/><path d="M7.747 80.192a2.03 2.03 0 0 0 .474-.657c-.328.029-.626.095-.926.233m.969.917c.2-.203.343-.421.459-.681-.326.026-.624.083-.926.212m1.025.922a1.42 1.42 0 0 0 .274-.672 2.5 2.5 0 0 0-.803.257m1.222-.949a2.37 2.37 0 0 0 .415-.779c-.297.064-.555.16-.805.333"/><path d="M10.003 80.212c.198-.207.329-.429.429-.697a2.42 2.42 0 0 0-.896.281m-.845 2.42c.195-.222.345-.462.478-.726-.267.135-.521.283-.76.462m1.531-.755a3.15 3.15 0 0 0 .477-.641 3.05 3.05 0 0 0-.793.36m-2.15 2.353a5.86 5.86 0 0 0 .441-.684 3.88 3.88 0 0 0-.752.452m1.075-.173a2.59 2.59 0 0 0 .472-.653 4.51 4.51 0 0 0-.877.369m1.473-.673c.233-.222.446-.46.646-.714-.286.072-.543.176-.795.331"/><path d="M8.317 82.829c.448-.334.871-.695 1.284-1.071l-.902.491m-1.326 1.527c.36-.295.69-.622 1.024-.945a3.26 3.26 0 0 0-.957.433m.727-3.706a1.68 1.68 0 0 0 .469-.703c-.24.107-.51.202-.727.341s-.359.321-.541.495m-.456.777c.188-.228.334-.467.448-.74-.26.102-.541.209-.75.388s-.324.4-.505.598m-.322.741c.167-.226.247-.474.328-.74-.214.115-.41.29-.565.464l-.428.496m4.399.222l1.319-1.046a4.41 4.41 0 0 0-.893.362"/><path d="M10.601 80.921c.252-.226.481-.471.703-.726a6.99 6.99 0 0 0-.896.388m-3.959 3.401c.11-.247.178-.495.221-.76a2.45 2.45 0 0 0-.672.44m.174 1.02a5.17 5.17 0 0 0 .305-.709 2.05 2.05 0 0 0-.641.462m1.132-.922a7.11 7.11 0 0 0 .324-.571 1.56 1.56 0 0 0-.622.3m-1.038-.98c.179-.262.333-.534.464-.824a2.74 2.74 0 0 0-.971.395m.259 1.311c.15-.291.247-.59.319-.908a5.06 5.06 0 0 0-.934.393m1.209 1.052c.1-.284.155-.569.188-.867a2.73 2.73 0 0 0-.743.393"/><path d="M4.501 83.638c.121-.341.21-.684.267-1.043-.39.179-.622.431-.838.796m1.225.733c.141-.322.229-.641.265-.993-.376.072-.624.214-.864.515m1.248.786c.112-.252.188-.491.195-.769a2.03 2.03 0 0 0-.807.496m.951-1.339c.143-.274.259-.557.369-.845a1.78 1.78 0 0 0-.817.319"/><path d="M6.625 83.239a5.01 5.01 0 0 0 .293-.727c-.283.062-.521.16-.752.333m.621 1.341a3.27 3.27 0 0 0 .197-.688 2.61 2.61 0 0 0-.51.493m-.037.974l.36-.784c-.231.143-.431.303-.609.508m-1.464-2.062a3.58 3.58 0 0 0 .403-.814c-.252.183-.509.357-.71.596s-.309.517-.431.8m2.641 1.673l.762-1.191c-.221.147-.414.312-.593.507"/><path d="M7.234 83.791c.124-.246.255-.488.409-.719-.247.121-.46.264-.659.453m-1.467 3.849c.012-.236-.005-.46-.052-.693-.153.191-.266.383-.331.621m.235.7a3.01 3.01 0 0 0-.253-.724c-.115.246-.197.491-.233.76m.577-1.353a2.08 2.08 0 0 0-.164-.721 2.09 2.09 0 0 0-.407.743m-.873.651a1.82 1.82 0 0 0-.483-.736 1.55 1.55 0 0 0-.186.714m1.238.032a2.09 2.09 0 0 0-.343-.765 1.97 1.97 0 0 0-.169.781"/><path d="M4.328 87.989a1.49 1.49 0 0 0-.298-.648 1.42 1.42 0 0 0-.178.619m1.008.091c-.043-.26-.126-.483-.26-.71-.1.209-.179.419-.236.643m-.15-1.352a2.43 2.43 0 0 0-.188-.841c-.222.264-.388.517-.471.855m1.541.666a1.73 1.73 0 0 0-.222-.631 1.82 1.82 0 0 0-.257.679"/><path d="M4.856 86.699a2.65 2.65 0 0 0-.195-.822 2.08 2.08 0 0 0-.407.741m1.47-1.143a1.26 1.26 0 0 0-.119-.626c-.243.117-.412.264-.56.49m.691.745a1.78 1.78 0 0 0 .016-.622c-.207.14-.347.29-.445.521m.758-.979a1.28 1.28 0 0 0 .002-.583c-.19.122-.338.252-.455.447m-1.441-.603c-.017-.279-.086-.526-.2-.781-.2.19-.303.388-.369.655m.837 1.014a2.73 2.73 0 0 0-.236-.877 2.42 2.42 0 0 0-.359.805m1.192.279a2.04 2.04 0 0 0-.152-.778 1.26 1.26 0 0 0-.395.597m-.502.671c.003-.286-.05-.538-.16-.802-.176.222-.317.446-.422.71"/><path d="M4.647 85.912c-.012-.283-.074-.531-.19-.788a2.13 2.13 0 0 0-.415.705m1.234.156c-.021-.246-.095-.441-.231-.646a1.3 1.3 0 0 0-.36.588m.181-1.333c.005-.284-.059-.524-.181-.781-.226.127-.362.267-.452.514m1.326.544c.022-.248-.028-.452-.131-.678-.245.081-.403.188-.533.415m.943 2.147c-.01-.238-.043-.469-.095-.7a2.08 2.08 0 0 0-.253.671m.71-1.198c-.012-.19-.057-.364-.124-.541-.14.148-.248.298-.321.49m.064 2.495c-.066-.226-.162-.426-.291-.622a2.09 2.09 0 0 0-.131.672M6 87.387a2.95 2.95 0 0 0-.152-.643 2.22 2.22 0 0 0-.303.634m.555-1.1a5.31 5.31 0 0 0 .109-.755c-.197.16-.341.336-.453.564m.259 1.25l.233-1.284a4.36 4.36 0 0 0-.381.721"/><path d="M5.948 88.582l.114-1.302c-.107.219-.184.438-.229.679m-2.017-2.864c-.038-.348-.11-.684-.228-1.014-.11.25-.281.576-.303.833-.028.329.086.552.088.862m.146.863l-.126-.888c-.165.203-.333.476-.326.733.01.328.178.54.243.843m.5.632a1.93 1.93 0 0 0-.491-.645c-.048.219-.109.498-.076.712.041.271.174.434.262.678"/><path d="M6.179 86.207a10.31 10.31 0 0 1 .353-1.215c-.134.169-.243.341-.321.543m.208-.411c.05-.219.083-.438.1-.66a3.36 3.36 0 0 0-.431.543m.025 4.897c-.067-.126-.152-.221-.257-.315-.041.143-.053.258-.019.405m.336.261c-.102-.121-.222-.188-.355-.267.005.152.028.3.076.445"/><path d="M5.854 89.593a1.14 1.14 0 0 0-.303-.333c-.074.186-.119.355-.079.555m-.275.57a1.35 1.35 0 0 0-.541-.321c-.007.171.029.281.148.405m.726-.256c-.145-.124-.307-.212-.483-.286.038.171.098.312.19.46m.338.253c-.097-.134-.228-.202-.376-.269a.71.71 0 0 0 .122.341"/><path d="M5.883 90.446c-.093-.131-.207-.195-.355-.252l.064.426m-.55-.671a1.66 1.66 0 0 0-.453-.386.98.98 0 0 0 .088.51"/><path d="M5.816 90.01c-.098-.11-.226-.162-.365-.2a.73.73 0 0 0 .095.39"/><path d="M5.445 89.823a1.61 1.61 0 0 0-.384-.384c-.047.174-.06.322 0 .495m.679-1.106c-.076-.171-.195-.281-.343-.388-.145.155-.222.303-.238.516"/><path d="M5.892 89.182a.57.57 0 0 0-.136-.367c-.119.14-.191.265-.195.453m.25-.844a1.13 1.13 0 0 0-.2-.398c-.112.129-.19.25-.202.424m-1.204.027c-.029-.214-.097-.39-.214-.571-.141.181-.203.357-.228.585m.858.546a3.63 3.63 0 0 0-.393-.56 1.2 1.2 0 0 0-.091.669"/><path d="M5.159 88.974c-.098-.193-.229-.336-.391-.478-.097.183-.138.34-.102.546m-.077.559c-.147-.174-.31-.322-.478-.476-.06.202-.084.384-.021.59"/><path d="M5.061 89.465c-.117-.183-.265-.321-.438-.453-.062.198-.083.371-.007.569m.924-.301c-.093-.162-.215-.245-.383-.322-.072.172-.109.319-.064.505m-.334-.953a1.39 1.39 0 0 0-.259-.491c-.134.148-.221.288-.247.489m1.118-.039c-.06-.176-.162-.298-.302-.419-.16.131-.255.248-.284.457m1.333 1.008l-.224-.353c-.047.153-.062.286-.007.44m.251-.853c-.088-.136-.203-.238-.326-.34a.84.84 0 0 0-.045.412"/><path d="M6.514 90.075c-.124-.085-.264-.133-.403-.184.007.131.029.246.083.365m.244-.485a1.22 1.22 0 0 0-.321-.265c-.016.134-.016.26.014.391m.054-.725c.007-.147-.009-.284-.041-.428-.115.131-.197.26-.236.431"/><path d="M6.435 89.744a2.1 2.1 0 0 1-.181-.738c-.071.167-.114.326-.11.508"/><path d="M6.621 90.426c.01-.298-.067-.453-.178-.722a.57.57 0 0 0 .076.362m-2.401-.902c-.112-.246-.231-.486-.371-.717-.06.214-.141.486-.078.695.081.259.26.383.402.593m.583.343c-.167-.169-.364-.267-.576-.369.036.176.133.295.265.414a4.19 4.19 0 0 0 .433.347m.53.227c-.16-.129-.329-.198-.533-.231a1.99 1.99 0 0 0 .286.291c.105.086.222.15.321.245"/><path d="M6.23 89.106l-.071-.796c-.029.148-.033.291-.01.441"/><path d="M6.128 88.43l-.171-.502a1.35 1.35 0 0 0-.129.491m-.202 2.353l-.355.053c.148.221.269.228.534.165"/><path d="M5.902 90.615c-.114-.034-.229-.048-.346-.064.009.241.05.36.307.397"/><path d="M6.172 90.463c-.117-.04-.238-.05-.36-.052.017.217.048.346.274.409"/><path d="M6.443 90.337c-.093-.086-.193-.09-.315-.095.01.198-.003.347.169.472"/><path d="M6.638 90.223a.25.25 0 0 0-.24-.166c.04.181-.012.35.098.512m-.048.026c-.098-.09-.212-.098-.34-.1.003.231.045.386.262.491"/><path d="M6.687 90.499a1.14 1.14 0 0 0-.165-.274c-.069.231-.145.438 0 .653m-.508.036c-.167.045-.326.107-.488.169.243.078.457.115.71.059"/><path d="M6.243 90.767c-.122-.066-.252-.071-.388-.069.021.24.129.355.353.438m.539-.348c-.045-.078-.1-.141-.169-.198-.04.179-.067.348.074.486"/><path d="M6.39 91.061c-.119.017-.229.055-.341.1.178.081.298.159.497.11m.073-.346a.59.59 0 0 0-.279-.112c.021.197.067.353.267.421m.385.146c-.167-.035-.334-.017-.5-.064.122-.098.24-.152.397-.15m.121.204c-.145-.252-.259-.445-.314-.736-.026.169-.041.328.026.488m46.076-40.5c-.612.336-1.674.243-1.674.243s.895-1.26 1.924-1.336"/><path d="M53.597 51.827c-.598.317-1.777.021-1.777.021s.364-1.25 1.069-1.307"/><path d="M54.376 52.987c-.603.353-1.669.207-1.669.207s.174-1.383 1.2-1.484"/><path d="M55.427 52.037c-.629.303-1.679.072-1.679.072s.285-1.364 1.315-1.384"/><path d="M56.033 53.374c-.638.222-1.76-.248-1.76-.248s.548-1.181 1.253-1.129m-1.207-2.624c-.617.252-1.574.153-1.574.153s1.176-1.146 2.179-1.541"/><path d="M54.808 50.75c-.615.281-1.776-.083-1.776-.083s.436-1.226 1.143-1.241m1.497 4.679c-.938.252-1.496-.271-1.496-.271s.457-.457 1.165-.462m2.25-.211c-.693.093-1.619-.453-1.619-.453s.695-1.208 1.681-.907"/><path d="M57.267 54.546c-.652.181-1.495-.667-1.495-.667s.86-.976 1.529-.864m.39-3.601c-.64.219-1.758-.26-1.758-.26s.676-1.439 1.381-1.383m-1.381 1.488c-.629.304-1.679.072-1.679.072s.284-1.363 1.315-1.384"/><path d="M56.538 50.599c-.638.222-1.76-.248-1.76-.248s.548-1.181 1.253-1.129m.705-1.273c-.629.217-1.85-.007-1.85-.007s1.236-1.083 2.26-1.422m2.091 5.814c-.698.022-1.565-.614-1.565-.614s.812-1.133 1.764-.733m-.357 2.877c-.674-.055-1.51-.939-1.51-.939s.979-.857 1.603-.526"/><path d="M58.96 55.358c-.676-.002-1.258-1.045-1.258-1.045s1.091-.707 1.705-.419m-.087-5.045c-.65.186-1.81-.546-1.81-.546s.615-1.148 1.315-1.057m.623 3.254c-.624.26-1.565-.479-1.565-.479s.734-1.072 1.412-1.045m-.742-1.731c-.65.148-1.948-.352-1.948-.352s1.346-.941 2.401-1.167m1.736 2.328c-.693.093-1.619-.453-1.619-.453s.695-1.208 1.681-.907"/><use xlink:href="#C"/><path d="M60.93 51.012c-.672.067-1.357-.914-1.357-.914s1.014-.814 1.655-.588m-.56 2.96c-.693.093-1.619-.453-1.619-.453s.695-1.209 1.681-.907"/><use xlink:href="#C" x="-0.075" y="4.416"/><path d="M60.233 55.089c-.621-.069-1.69.39-1.69.39s1.057.833 2.36.833m1.328-.107c-.629.248-1.557-.507-1.557-.507s.752-1.06 1.429-1.019m.015-6.201c-.697.055-1.593-.538-1.593-.538s.757-1.171 1.726-.815"/><use xlink:href="#C" x="1.465" y="0.58"/><path d="M62.523 51.473c-.672.067-1.357-.914-1.357-.914s1.014-.814 1.655-.588"/><use xlink:href="#C" x="-0.255" y="5.788"/><path d="M60.186 46.702c-.681.155-1.653-.302-1.653-.302s.581-1.267 1.591-1.057m-3.092 6.464c-.607.3-1.593-.374-1.593-.374s.66-1.119 1.339-1.136"/><path d="M58.194 50.846c-.607.3-1.593-.374-1.593-.374s.66-1.119 1.339-1.136m5.332 3.879c.469.14.734.833.746 1.338s-.364 1.331-.909 1.331c-1.079 0-2.929-1.041-3.57-1.734-.214-.233 1.127-.291 2.16-.565.547-.145 1.403-.419 1.572-.369z"/><path d="M63.902 53.549c.253-1.093-.179-2.251-.5-2.496-.907-.691-2.617 1.057-2.856 1.467s-.173.521.912.578 2.325.971 2.444.452z"/><path d="M63.11 49.503c.655.355.753 2.01 0 1.877-.903-.16-2.15.148-2.356.272s.19-1.098 1.17-1.701.96-.571 1.186-.448z"/><path d="M66.545 49.171c.09.574-.145 2.35.528 2.798s-2.894 1.186-3.687-.519-1.386-4.475.593-2.91c1.888 1.493 2.567.631 2.567.631z"/><path d="M69.847 45.705c-1.176-.384-3.982-1.107-7.08-.619-2.415.381-3.906-.214-.964 2.041s4.842 2.801 6.277 2.996 1.767-4.418 1.767-4.418zm-3.302 8.342c-.726.286-2.32.017-2.688-.8s-1.595-1.596.217-2.32 2.386.631 3.224 1.548-.753 1.572-.753 1.572z"/><path d="M66.545 55.189c-.552.072-1.267.422-1.6.528s-1.186.341-1.593.408c-.069.012-.172-.21-.164-.231.114-.264.498-.741.508-1.217.017-.896-1.015-1.627.54-1.429.402.052 1.148.043 1.296.169s.781.455.872.733.14 1.039.14 1.039zm9.226-2.794c-.567-1.05-1.231-1.601-.99-2.117s.555.1 1.143.553l.564.996.248.495c.005.014-.965.072-.965.072z"/><path d="M75.611 52.43c-.846-1.188-1.267-2.61-2.413-1.858-1.05.688-2.41 1.841-2.151 2.082s3.148.31 3.406.431 1.158-.655 1.158-.655z"/><path d="M73.796 54.369c-.586.184-1.71.633-2.391.081-.869-.705-1.558-.24-1.729-.803-.081-.264 1.055-.929 1.353-.665s3.351.047 3.42.241-.653 1.146-.653 1.146z"/><path d="M73.672 54.294c-.698.095-1.286.312-1.81.124-.853-.307-.247.943-.247.943l1.577-.067.603-.071-.124-.929z"/><path d="M76.697 52.241c-1.136-.178-2.776.814-3.017 1.819l-.24 1.208s1.203-.122 1.984-.429c.395-.155 1.224-.49 1.488-1.043s.231-.562.231-.562l-.219-.515-.227-.478zm-8.778-.678c-.453.383-1.184-.205-1.081-.658s.881.164.881.164l.2.495z"/><path d="M66.888 50.58l.443.202.028-.443c0-.353-.855.069-.471.241z"/><path d="M67.878 51.089l1.705.153s.874-.357.819-.447c-.146-.238-2.703-.793-2.91-.514-.157.214-.143.51-.035.576l.421.231zm.093.469c-.121.126-.252.164-.286.188s.207.155.712.207 1.028-.034.969-.109c-.083-.107-.217-.212-.217-.212l-1.177-.074z"/><path d="M69.252 51.63c.021.035.34.331.615.184s.491-.29.147-.353-.762.169-.762.169z"/><path d="M69.829 51.208l.622-.279c.031-.038.371.507.152.559s-.364.029-.531-.098l-.243-.181zm-.46 3.693c.103.383.26.352.614.383l1.683.078-.262-1.212s-1.576-.589-1.688-.457-.443.846-.347 1.208z"/><path d="M70.805 52.585c.31-.74 2.083-2.753 3.322-2.379.724.219-.526-1.315-1.171-1.505-1.212-.355-.85.148-1.841 1.183-.862.898-.31 2.701-.31 2.701zm4.928-2.061s-.86-.984-1.098-.281c-.095.281-.869-1.498-.496-1.869l.528.631.815 1.127a5.81 5.81 0 0 0 .252.391zm-5.699 3.294l-1.321-.055c-.645-.002-.988-.021-1.45.078s-1.188-1.651-.693-2.029 1.331.396 1.789.448 1.872-.448 2.148-.259-.474 1.817-.474 1.817z"/><path d="M69.671 55.243c-.66-.047-.905-.153-1.55-.155s-.988-.021-1.45.078-.798-1.445-.302-1.824 1.093.5 1.551.55 1.767-.602 2.043-.414-.293 1.765-.293 1.765zm.858-4.595c.198-.955.5-.895.817-1.308s-4.273-1.517-4.273-.714c0 .431.471 1.472.762 1.472.226 0 2.308.365 2.488.488s.207.062.207.062z"/><path d="M70.948 48.827c.412.252.479.65.986-.24.276-.483 1.343.114 1.664.39s.65.672.364-.341c-.124-.44.109-.341.109-.341s-.703-.862-1.238-1.215-2.631-1.303-2.987-1.372-2.122-.453-2.363-.181 1.265 1.705 1.284 1.834c.124.767 1.689 1.165 2.182 1.467zm-.625 2.564c-.084-.153-2.805-.752-2.929-.641a.98.98 0 0 0 .293.693c.721.634 2.343.088 2.636-.052z"/></g><defs ><path id="B" d="M117.708 55.533c0 11.067-3.656 21.561-10.402 30.116 1.515-1.193 2.972-2.487 4.358-3.874 3.805-3.805 6.902-8.123 9.226-12.805.152-1.722.224-3.46.228-5.204a60.18 60.18 0 0 0-4.422-22.719 59.89 59.89 0 0 0-12.384-19.08c8.648 9.095 13.396 20.968 13.396 33.566z"/><path id="C" d="M60.901 49.514c-.676.014-1.596-.783-1.596-.783s.888-.952 1.543-.684"/></defs></svg>