<svg width="698" height="736" viewBox="0 0 698 736" fill="none" xmlns="http://www.w3.org/2000/svg">
<path d="M677.85 297.57C677.85 360.66 657.01 420.47 618.56 469.24C627.2 462.44 635.5 455.06 643.4 447.16C665.08 425.48 682.75 400.85 695.99 374.17C696.85 364.35 697.27 354.45 697.29 344.5C697.29 299.81 688.81 256.24 672.09 215C655.67 174.49 631.94 137.93 601.5 106.24C650.79 158.08 677.85 225.76 677.85 297.57Z" fill="url(#paint0_linear)"/>
<path d="M228.31 78.9901C277.08 40.5401 336.89 19.7001 399.96 19.6801C471.79 19.7001 539.46 46.7601 591.33 96.0701C593.05 97.7101 594.75 99.3701 596.45 101.07C598.15 102.77 599.83 104.49 601.49 106.23C650.78 158.08 677.84 225.75 677.84 297.56C677.84 360.65 657 420.46 618.55 469.23C609.67 476.23 600.43 482.67 590.87 488.47C616.97 445.48 630.92 396.05 630.92 344.48C630.92 270.27 602.01 200.47 549.53 147.99C497.06 95.5201 427.27 66.6201 353.04 66.6001C301.47 66.6001 252.06 80.5601 209.09 106.69C214.89 97.1301 221.31 87.8701 228.31 78.9901Z" fill="url(#paint1_linear)"/>
<path d="M109.61 101.07C117.49 93.19 125.67 85.73 134.19 78.73C111.95 105.65 94.0799 135.56 80.9199 168.05C64.1799 209.32 55.6999 252.88 55.7199 297.59C55.7199 342.28 64.1798 385.87 80.8998 427.11C97.3598 467.62 121.09 504.18 151.53 535.87C153.17 537.59 154.83 539.29 156.53 540.99C158.23 542.69 159.95 544.37 161.69 546.03C193.38 576.48 229.94 600.2 270.43 616.64C311.68 633.36 355.27 641.82 399.95 641.82C444.63 641.82 488.23 633.36 529.49 616.62C561.98 603.46 591.88 585.59 618.79 563.33C611.79 571.85 604.33 580.03 596.45 587.91C563.6 620.76 525.3 646.22 482.57 663.54C441.32 680.26 397.71 688.74 353.03 688.74C308.34 688.74 264.77 680.26 223.53 663.54C180.8 646.22 142.48 620.77 109.61 587.91C76.7598 555.06 51.3199 516.74 33.9999 474.01C17.2799 432.76 8.79984 389.2 8.79984 344.51C8.77984 299.8 17.2799 256.21 33.9999 214.97C51.3199 172.25 76.7698 133.92 109.61 101.07Z" fill="url(#paint2_linear)"/>
<path d="M677.85 297.57C677.85 360.66 657.01 420.47 618.56 469.24C627.2 462.44 635.5 455.06 643.4 447.16C665.08 425.48 682.75 400.85 695.99 374.17C696.85 364.35 697.27 354.45 697.29 344.5C697.29 299.81 688.81 256.24 672.09 215C655.67 174.49 631.94 137.93 601.5 106.24C650.79 158.08 677.85 225.76 677.85 297.57Z" fill="url(#paint3_linear)"/>
<path d="M576.72 593.11C561.68 602.12 545.92 609.97 529.51 616.62C488.24 633.36 444.66 641.82 399.97 641.82C355.28 641.82 311.69 633.36 270.45 616.64C229.96 600.2 193.4 576.47 161.71 546.03C213.56 595.32 281.21 622.4 353.04 622.38C396.61 622.38 438.64 612.44 476.54 593.61C510.89 590.71 544.37 582.67 576.44 569.69C598.48 560.77 619.35 549.67 638.87 536.46C632.67 545.74 625.97 554.68 618.81 563.32C605.49 574.35 591.45 584.29 576.72 593.11Z" fill="url(#paint4_linear)"/>
<path d="M134.2 78.73C142.84 71.57 151.78 64.87 161.06 58.67C147.88 78.21 136.78 99.08 127.85 121.12C114.83 153.23 106.81 186.73 103.91 221.12C85.0898 258.99 75.1398 300.97 75.1398 344.5C75.1398 416.35 102.22 484 151.53 535.87C121.08 504.18 97.3598 467.62 80.8998 427.11C64.1798 385.86 55.7198 342.28 55.7198 297.59C55.6998 252.88 64.1798 209.31 80.9198 168.05C94.0898 135.56 111.95 105.65 134.2 78.73Z" fill="url(#paint5_linear)"/>
<path d="M161.06 58.67C180.6 45.49 201.47 34.39 223.51 25.46C255.62 12.44 289.12 4.42004 323.49 1.54004C296.77 14.78 272.1 32.45 250.4 54.15C242.5 62.05 235.12 70.35 228.32 78.99C221.32 87.87 214.9 97.13 209.1 106.69C199.54 112.49 190.28 118.91 181.4 125.91C172.76 132.71 164.46 140.09 156.56 147.99C134.86 169.69 117.17 194.38 103.93 221.1C106.83 186.71 114.85 153.21 127.87 121.1C136.78 99.07 147.88 78.21 161.06 58.67Z" fill="url(#paint6_linear)"/>
<path d="M250.4 54.15C272.1 32.45 296.77 14.78 323.49 1.54001C333.27 0.680009 343.13 0.26001 353.06 0.26001C397.75 0.26001 441.32 8.74002 482.56 25.46C523.09 41.9 559.65 65.63 591.34 96.07C539.47 46.76 471.8 19.7 399.97 19.68C336.9 19.7 277.09 40.54 228.32 78.99C235.11 70.35 242.5 62.05 250.4 54.15Z" fill="url(#paint7_linear)"/>
<path d="M643.41 447.15C665.09 425.47 682.76 400.84 696 374.16C693.1 408.51 685.08 441.97 672.1 474.04C663.18 496.08 652.08 516.95 638.87 536.47C619.35 549.67 598.48 560.77 576.44 569.7C544.37 582.68 510.89 590.72 476.54 593.62C503.22 580.38 527.87 562.69 549.55 541.01C557.45 533.11 564.83 524.81 571.63 516.17C578.63 507.29 585.07 498.05 590.87 488.49C600.43 482.69 609.67 476.25 618.55 469.25C627.2 462.44 635.51 455.06 643.41 447.15Z" fill="url(#paint8_linear)"/>
<path d="M290.33 614.88C324.94 622.94 316.68 609.84 317.21 591.74C317.55 580.14 354.16 492.29 362.25 464.23C370.34 436.17 367.73 415.97 359.61 417.89C351.49 419.81 350.04 462.5 337.44 462.25C324.84 462 282 381.63 267.67 334.09C254.95 291.89 242.54 241.49 223.52 239.19C204.5 236.88 223.69 327.13 255.52 375.87C282.05 416.49 318.71 454.92 321.22 509.07C324.46 578.83 274.9 616.22 275.71 526.3C276.17 474.94 253.67 453.94 254.32 516.38C254.97 578.82 266.75 581.53 268.8 592.07C270.86 602.61 269.14 609.94 290.33 614.88Z" fill="url(#paint9_linear)"/>
<path d="M251.44 522.46L251.11 543.24C251.11 543.24 205.97 492.84 192 489.23C178.03 485.62 118.7 476.46 87.32 443.08C55.94 409.7 93.68 407.88 127.07 436.94C160.46 466 224.74 498.45 181.86 427.65C138.98 356.85 126.49 320.87 126.56 316.52C126.63 312.17 128.65 245.95 143.03 283.9C157.41 321.85 202.63 459.41 217.3 479.47C218.37 480.93 226.36 501.05 229.25 493.19C231.44 487.22 241.36 437.23 242.57 442.87C245.32 455.71 252.17 468.89 248.91 475.78C229.16 517.54 251.44 522.46 251.44 522.46Z" fill="url(#paint10_linear)"/>
<path d="M319.29 588.36C319.29 588.36 318.52 617.31 320.62 617.31C324.61 617.31 351.4 560.71 361.97 556.81C372.53 552.91 417.89 541.13 439.64 512.74C461.39 484.35 431.93 485.91 408.29 511.1C384.65 536.29 337.28 566.55 365.01 508.2C392.74 449.85 399.61 420.92 399.21 417.55C398.81 414.18 381.09 408.64 372.9 439.24C364.71 469.84 346.87 520.66 336.4 544.49C328.58 562.25 319.29 588.36 319.29 588.36Z" fill="url(#paint11_linear)"/>
<path d="M255.34 558.91C255.34 558.91 265.17 594.92 269.56 603.88C273.94 612.83 227.32 585.69 207.08 570.38C186.84 555.07 178.02 521.41 162.97 502.03C156.38 493.55 142.6 481.09 142.6 481.09L165.63 489.92C173.9 495.59 188.46 534.78 190.42 534.29C204 530.92 173.04 491.44 173.04 491.44C175.49 488.19 188.73 489.51 195.59 503.35C195.59 503.35 212.59 530.26 216.41 538.73C231.37 571.9 264.86 598.56 239.94 560.76C215.03 522.94 235.83 515.37 255.34 558.91Z" fill="url(#paint12_linear)"/>
<path d="M295 541.95C280.45 577.74 306.44 595.43 317.34 531.24C326.35 478.16 268.21 405.48 249.95 373.81C231.69 342.14 214.28 297.2 210.49 257.68C206.7 218.16 170 161.61 178.38 222.94C189.67 305.57 248.67 383.39 246.23 387.15C243.79 390.91 164.43 261.34 163 268.74C161.57 276.14 200.37 350.78 213.69 366.03C227.01 381.28 278.59 438.66 287.39 474.08C300.54 526.97 295 541.95 295 541.95Z" fill="url(#paint13_linear)"/>
<path d="M133.69 426.16C106.12 361.54 103.93 305.57 106.81 271.62C109.69 237.67 106.19 193.33 92.8502 159.55C79.5102 125.77 88.2902 63.29 106.78 116.85C131.68 189.01 112.01 278.82 115.77 280.77C119.54 282.72 135.47 141.71 139.87 147.07C144.27 152.43 141.78 230.65 135.84 248.92C127.14 275.69 115.24 299 122.9 331.58C143.64 419.89 188.44 416.71 189.24 462.47C189.58 481.89 141.54 444.56 133.69 426.16Z" fill="url(#paint14_linear)"/>
<path d="M355.14 407.73C364.43 379.55 382.21 344.7 404.07 321.03C425.93 297.36 440.31 244.56 407.73 282.81C363.83 334.34 348.66 412.14 345.06 412.7C341.47 413.26 376.94 295.14 371.7 298.28C366.45 301.42 342.27 365.28 340.25 381.58C338.23 397.89 326.39 445.12 329.57 450.51C343.84 474.74 345.85 435.91 355.14 407.73Z" fill="url(#paint15_linear)"/>
<path d="M67.75 278.17C61.88 249.09 60.09 210 67.38 178.61C74.67 147.22 61.04 94.22 51.65 143.58C38.99 210.08 64.29 285.2 61.44 287.46C58.59 289.72 30.99 169.52 27.98 174.84C24.97 180.16 35.55 247.62 41.86 262.8C48.17 277.97 88.48 371.38 87.9 365.15C84.21 325.16 73.61 307.25 67.75 278.17Z" fill="url(#paint16_linear)"/>
<path d="M282.18 469.54C270.37 439.52 233.75 392.09 220.73 379.63C220.73 379.63 204.05 358.69 191.87 340.58C176.14 317.2 186.73 353.9 191.39 358.23C197.75 364.16 218.97 389.21 208.24 382.76C182.96 367.57 171.23 315.04 162.44 315.1C156.68 315.14 163.64 333.88 166.67 342.82C177.42 374.6 208.7 395.34 218.1 402.12C228.45 409.58 229.1 417.21 227.79 419.27C225.39 423.04 198.79 402.13 188.71 394.01C187.7 393.2 186.3 394.3 186.83 395.47L195.96 415.37C196.82 417.25 198.3 418.78 200.15 419.7C205.92 422.58 221.47 431.83 226.41 431.59C243.51 430.76 256.26 458.46 269.5 480.1C284.3 509.54 272.15 552.89 285.75 552.89C296.22 552.91 292.34 495.35 282.18 469.54Z" fill="url(#paint17_linear)"/>
<path d="M384.63 359.81C384.63 359.81 399.66 337.66 410.43 318.67C424.33 294.16 416.57 331.56 412.26 336.23C406.37 342.62 387.13 369.22 397.33 361.98C421.37 344.91 429.06 291.63 437.83 291.02C443.58 290.62 438.06 309.83 435.73 318.99C427.43 351.49 397.83 374.57 388.97 382.04C379.22 390.27 379.15 397.92 380.62 399.88C383.3 403.46 408.22 380.58 417.66 371.71C418.6 370.83 420.09 371.82 419.64 373.03L412.06 393.57C411.34 395.51 409.99 397.14 408.22 398.21C402.69 401.52 389.33 405.58 382.91 415.07C359.05 450.34 375.8 417.71 362.78 416C344.16 413.57 368.72 384.99 384.63 359.81Z" fill="url(#paint18_linear)"/>
<path d="M129.06 420.68C136.86 446.12 120.06 425.63 106.78 419.43C106.78 419.43 86.4101 400.39 74.4401 388.63C34.6601 349.56 27.2501 346.8 28.2901 334.18C29.3201 321.56 82.6201 392.52 86.8301 391.38C91.0501 390.23 25.1001 299.94 6.95008 270.67C-11.1999 241.4 12.3701 251.47 39.7101 290.99C67.0501 330.51 84.5901 375.35 91.3201 373.61C98.0501 371.88 79.8901 325.12 81.2101 307.69C82.4301 291.49 97.9401 347.8 100.97 355.4C110.02 378.11 126.83 413.64 129.06 420.68Z" fill="url(#paint19_linear)"/>
<path d="M364.74 539.35C383.75 535.49 418.58 498.54 436.85 479.59C452.66 463.19 477.6 407.56 424.34 464.64C402.42 488.13 449.29 395.52 442.43 396.62C435.57 397.71 402.07 492.95 393.92 499.09C389.35 502.53 363.62 515.52 361.34 521.78C354.97 539.19 363.83 539.53 364.74 539.35Z" fill="url(#paint20_linear)"/>
<path d="M329.02 422.78C334.38 378.08 341.56 285.35 342.38 237.95C343.09 196.93 321.66 120.6 320.66 259.51C320.25 316.68 289.03 177.91 284.16 193.36C279.29 208.8 323.61 319.32 321.49 339.58C320.3 350.93 308.78 412.34 311.62 419.79C319.53 440.51 326.39 444.66 329.02 422.78Z" fill="url(#paint21_linear)"/>
<path d="M260.92 479.16C252.1 519.5 261.56 558.75 266.17 580.67C267.97 589.23 264.95 582.94 264.19 581.46C256.98 568.35 252.64 528.24 254.27 501.86C255.75 477.85 260.92 479.16 260.92 479.16Z" fill="url(#paint22_linear)"/>
<path d="M181.47 195.87C177.42 259.65 224.82 349.77 224.82 349.77C210.05 321.52 188.89 281.92 179.58 230.36C172.97 193.79 181.47 195.87 181.47 195.87Z" fill="url(#paint23_linear)"/>
<path d="M223.53 239.19C226.09 303.85 268.62 394.94 268.62 394.94C248.7 371.59 226.09 325.23 217.99 276.82C210.72 233.37 223.53 239.19 223.53 239.19Z" fill="url(#paint24_linear)"/>
<path d="M161.32 315.1C169.81 351.92 181.33 357.81 192.22 373.32C198.15 381.76 199.55 387.91 199.55 387.91C190.82 380.44 183.11 372.6 173.58 357.8C169.82 351.96 167.25 344.47 164.63 336.83C157.37 315.68 161.32 315.1 161.32 315.1Z" fill="url(#paint25_linear)"/>
<path d="M179.02 590.57C155.76 577.23 121.19 541.39 112.52 529.17C112.52 529.17 97.32 512.92 83.9 500.72C66.57 484.96 95.47 498.11 98.47 502.46C102.57 508.41 120.61 528.88 116.61 519.28C107.18 496.66 65.4 480.66 66.51 473.45C67.24 468.72 81.8 476.71 88.79 480.28C113.62 492.96 126.89 521.19 131.33 529.74C136.21 539.15 142.4 540.61 144.26 539.78C147.65 538.27 133.68 513.87 128.22 504.59C127.68 503.67 128.75 502.64 129.65 503.23L144.91 513.14C146.35 514.08 147.43 515.47 147.96 517.11C149.63 522.2 155.36 536.11 154.57 540.14C151.82 554.1 173.05 567.93 189.25 581.43C211.67 597.16 264.11 603.1 261.1 605.32C254.1 610.49 199.02 602.04 179.02 590.57Z" fill="url(#paint26_linear)"/>
<path d="M66.6499 472.53C95.8999 483.96 99.3499 494.15 110.79 504.98C117.02 510.87 121.9 512.77 121.9 512.77C116.82 504.69 111.3 497.4 100.28 487.77C95.9299 483.97 90.0799 480.95 84.1199 477.87C67.5999 469.35 66.6499 472.53 66.6499 472.53Z" fill="url(#paint27_linear)"/>
<path d="M31.6099 303.08C16.2199 277.7 13.9199 273.98 4.28991 257.66C-1.64009 247.62 1.35989 260.87 1.35989 260.87C9.26989 275.57 23.4399 296.65 37.7799 316.22C49.8799 332.72 31.6099 303.08 31.6099 303.08Z" fill="url(#paint28_linear)"/>
<path d="M104.84 358.7C94.2398 331.32 91.6399 322.17 84.7799 308.55C79.5399 298.13 80.3199 311.34 80.3199 311.34C84.9899 327.36 94.4698 350.94 104.43 373.06C112.82 391.71 104.84 358.7 104.84 358.7Z" fill="url(#paint29_linear)"/>
<path d="M128.58 289.66C138.72 324.84 157.69 372.01 167.5 388.22C172.84 397.04 163.29 389.32 163.29 389.32C152.05 378.96 131.32 335.93 126.59 317.07C125.88 314.17 128.58 289.66 128.58 289.66Z" fill="url(#paint30_linear)"/>
<path d="M393.15 415.11C386.47 449.57 366.25 487.34 356.7 507.52C351.5 518.51 363.03 509.85 363.03 509.85C373.08 492.21 384.55 465.64 394.01 438.2C397.97 426.73 400.24 419.63 398.71 416.64C397.73 414.73 393.15 415.11 393.15 415.11Z" fill="url(#paint31_linear)"/>
<path d="M364.06 419.97C365.66 446.19 358.04 459.91 350.27 480.85C346.04 492.25 349.86 498.03 349.86 498.03C357.68 478.24 355.32 486.3 363.93 458.14C367.48 446.54 367.78 425.78 366 422.94C364.85 421.11 364.06 419.97 364.06 419.97Z" fill="url(#paint32_linear)"/>
<path d="M436.87 311.58C428.3 336.41 429.94 331.48 414.74 347.84C406.47 356.74 405.02 372.7 422.44 347.33C429.31 337.33 438.08 318.38 437.52 315.07C437.16 312.94 436.87 311.58 436.87 311.58Z" fill="url(#paint33_linear)"/>
<path d="M135.21 487.51C135.21 487.51 160.56 506.45 164.87 513.87C177.64 535.8 186.24 552.21 190.87 559.24C195.5 566.27 197.56 568.05 197.56 568.05C197.56 568.05 178.74 547.39 171.89 536.6C163.59 523.54 147.47 506.33 135.85 498.87C124.23 491.41 122.87 484.55 122.87 484.55L135.21 487.51Z" fill="url(#paint34_linear)"/>
<path d="M439.74 590.67C439.74 590.67 420.64 666.3 375.14 702.35C329.64 738.4 302.79 736.04 272.05 734.56C256.76 733.83 225.58 730.07 228.63 719.19C232.08 706.85 252.48 712.74 285.45 680.64C304.7 661.9 341.59 617.07 370.53 602.87C385.62 595.47 400.48 590.72 409.79 589.8C428.61 587.94 439.74 590.67 439.74 590.67Z" fill="url(#paint35_linear)"/>
<path d="M393.91 593.39C393.91 593.39 369.42 605.92 356.65 625.53C343.88 645.15 333.36 679.84 308.36 698.62C284.53 716.52 228.62 719.18 228.62 719.18C228.61 708.89 256.83 707.82 279.41 686.22C291.98 674.2 339.21 619.53 366.51 604.99" fill="url(#paint36_linear)"/>
<path d="M618.03 450.48C619.05 442.5 620.88 438.38 627.43 438.29C627.55 438.29 627.68 438.3 627.8 438.3C627.46 438.25 627.13 438.21 626.82 438.18C620.76 438.54 619.01 442.68 618.03 450.48Z" fill="url(#paint37_linear)"/>
<path d="M475.82 311.4C419.86 227.34 346.56 204.2 336.21 197.53C335.73 207.73 363.89 240.79 377.25 255.26C414.96 296.09 411.45 308.48 405.34 327.13C398.54 347.89 399.11 348.62 384.26 367.03C376.8 376.28 368.9 397.42 367.01 415.45C365.37 431.08 367.74 443.24 376.92 445.82C391.6 449.94 404.94 431.05 417.49 423.65C426.26 418.47 439.81 413.08 450.29 417.19C459.12 420.65 466.65 429.19 468.34 448.07C471 477.84 473.26 514.09 456.62 570.52C446.99 603.18 431.48 634.33 419.48 655.72C444.34 617.34 486.9 548.27 502.72 502.51C525.08 437.8 509.12 361.43 475.82 311.4Z" fill="url(#paint38_linear)"/>
<path d="M402.74 683.3C402.67 683.4 402.61 683.5 402.55 683.58C402.63 683.49 402.73 683.39 402.83 683.27C402.79 683.28 402.77 683.29 402.74 683.3Z" fill="url(#paint39_linear)"/>
<path d="M609.85 500.25C589.09 568.51 541.76 608.59 521.98 624.27C467.81 667.21 405.59 682.58 402.34 683.88C402.24 684.03 402.18 684.11 402.18 684.1C402.12 683.55 466.3 668.53 521.96 624.41C541.73 608.73 589.07 568.65 609.83 500.39C613.3 488.99 615.02 479.1 616.04 470.77C615.02 479.07 613.29 488.91 609.85 500.25Z" fill="url(#paint40_linear)"/>
<path d="M578.3 263.47C579.21 264.64 580.08 265.8 580.95 266.97C580.48 265.36 580.1 264.31 579.91 263.81C579.86 263.74 579.81 263.67 579.76 263.61C560.85 239.26 532.9 214.69 499.66 206.74C487.63 203.86 477.99 202.4 470.25 201.75C477.74 202.46 486.91 203.91 498.2 206.61C531.43 214.54 559.39 239.12 578.3 263.47Z" fill="url(#paint41_linear)"/>
<path d="M679.8 438.08C678.36 448.1 674.01 451.98 667.18 451.69C666.68 451.72 666.17 451.72 665.64 451.7C666.08 451.76 666.5 451.81 666.91 451.83C673.92 452.23 678.36 448.34 679.8 438.08Z" fill="url(#paint42_linear)"/>
<path d="M438.6 202.28C439.09 202.47 439.7 202.54 440.44 202.53C440.31 202.5 440.18 202.46 440.06 202.41C416.49 193.26 396.06 187.14 386.36 185.5C384.91 185.26 382.8 184.99 380.25 184.76C382.15 184.95 383.75 185.16 384.91 185.36C394.61 187.01 415.04 193.13 438.6 202.28Z" fill="url(#paint43_linear)"/>
<path d="M470.25 201.74C452.7 200.08 444.49 202.49 440.44 202.53C443.77 203.36 451.34 200.14 470.25 201.74Z" fill="url(#paint44_linear)"/>
<path d="M627.79 438.3C637.04 439.72 655.88 451.14 665.45 451.69C665.51 451.69 665.57 451.69 665.64 451.69C655.17 450.25 636.01 438.54 627.79 438.3Z" fill="url(#paint45_linear)"/>
<path d="M380.25 184.77C367.4 183.48 340.31 183.2 334.99 196.09C334.84 196.46 335.27 196.93 336.21 197.53C336.23 197.05 336.3 196.6 336.45 196.22C341.57 183.81 366.91 183.61 380.25 184.77Z" fill="url(#paint46_linear)"/>
<path d="M400.72 683.97C400.71 683.91 401.42 683.69 402.74 683.3C404.64 680.49 411.23 670.4 419.47 655.71C408.32 672.93 400.72 683.98 400.72 683.97Z" fill="url(#paint47_linear)"/>
<path d="M555.22 449.68C596.97 339.34 585.14 281.22 580.95 266.97C580.08 265.8 579.2 264.63 578.3 263.47C559.39 239.12 531.44 214.55 498.2 206.6C486.91 203.9 477.74 202.45 470.25 201.74C451.33 200.14 443.77 203.36 440.44 202.53C439.7 202.54 439.09 202.47 438.6 202.28C415.03 193.13 394.6 187.01 384.9 185.37C383.74 185.17 382.15 184.96 380.24 184.77C366.91 183.61 341.56 183.81 336.44 196.23C336.29 196.61 336.22 197.05 336.2 197.54C346.56 204.21 419.86 227.35 475.81 311.41C509.11 361.43 525.07 437.81 502.7 502.5C486.88 548.26 444.32 617.33 419.46 655.71C411.21 670.41 404.62 680.49 402.73 683.3C402.76 683.29 402.79 683.28 402.82 683.27C411.69 673.48 514.07 558.43 555.22 449.68ZM505.42 259.38C496.45 258.53 487.5 246 486.12 243.29C487.63 242.63 499.8 247.36 503.22 249.56C514.74 256.63 509.9 259.8 505.42 259.38Z" fill="url(#paint48_linear)"/>
<path d="M580.95 266.97C580.08 265.8 579.2 264.63 578.3 263.47C559.39 239.13 531.44 214.55 498.21 206.6C486.91 203.9 477.75 202.45 470.26 201.75C451.35 200.15 443.78 203.37 440.45 202.54C439.71 202.55 439.1 202.48 438.62 202.29C415.05 193.15 394.62 187.02 384.92 185.38C383.75 185.18 382.16 184.97 380.26 184.78C366.93 183.62 341.59 183.82 336.47 196.24C336.31 196.61 336.25 197.06 336.23 197.54C346.59 204.21 419.89 227.35 475.84 311.41C509.15 361.43 525.1 437.8 502.73 502.49C486.91 548.25 444.35 617.32 419.5 655.7C411.25 670.4 404.66 680.48 402.76 683.29C402.79 683.28 402.82 683.27 402.86 683.26C411.72 673.47 514.1 558.42 555.25 449.67C596.98 339.34 585.14 281.22 580.95 266.97ZM505.41 259.38C496.44 258.54 487.49 246 486.11 243.29C487.62 242.63 499.79 247.35 503.21 249.56C514.73 256.64 509.9 259.8 505.41 259.38Z" fill="url(#paint49_linear)"/>
<path d="M505.41 259.38C496.44 258.54 487.49 246 486.11 243.29C487.62 242.63 499.79 247.35 503.21 249.56C514.73 256.64 509.9 259.8 505.41 259.38Z" fill="white"/>
<path d="M666.93 451.69C656.68 451.1 635.78 438.04 627.44 438.15C627.22 438.15 627.02 438.18 626.81 438.19C627.12 438.21 627.45 438.26 627.79 438.31C636.01 438.55 655.17 450.25 665.64 451.7C666.17 451.72 666.68 451.72 667.18 451.69C667.1 451.69 667.02 451.69 666.93 451.69Z" fill="url(#paint50_linear)"/>
<path d="M666.93 451.69C656.68 451.1 635.78 438.04 627.44 438.15C627.22 438.15 627.02 438.18 626.81 438.19C627.12 438.21 627.45 438.26 627.79 438.31C636.01 438.55 655.17 450.25 665.64 451.7C666.17 451.72 666.68 451.72 667.18 451.69C667.1 451.69 667.02 451.69 666.93 451.69Z" fill="url(#paint51_linear)"/>
<path d="M614.16 325.73C620.82 332.87 637.28 352.41 638.82 354.36C645.43 362.71 661.35 382.41 671.66 402.87C673.96 407.43 681.19 424.15 680.04 436.08C679.97 436.77 679.89 437.44 679.8 438.08C679.9 437.39 679.98 436.68 680.06 435.93C681.2 423.99 673.98 407.28 671.68 402.72C661.37 382.26 645.45 362.55 638.84 354.21C637.3 352.26 620.84 332.72 614.18 325.58C608.82 310.31 597.82 286.68 579.78 263.46C579.78 263.46 579.83 263.58 579.92 263.81C597.85 286.96 608.81 310.5 614.16 325.73Z" fill="url(#paint52_linear)"/>
<path d="M402.2 683.96C402.2 683.95 402.25 683.92 402.34 683.88C402.39 683.8 402.46 683.7 402.54 683.58C402.32 683.83 402.2 683.96 402.2 683.96Z" fill="url(#paint53_linear)"/>
<path d="M618.03 450.48C617.37 455.64 617.06 462.42 616.04 470.77C617.06 462.43 617.38 455.65 618.03 450.48Z" fill="url(#paint54_linear)"/>
<path d="M612.7 325.59C619.36 332.73 635.82 352.27 637.36 354.22C643.97 362.57 659.89 382.27 670.2 402.73C672.5 407.29 679.73 424.01 678.58 435.94C677.54 446.75 673.61 451.35 667.18 451.68C674.01 451.97 678.36 448.1 679.8 438.07C679.89 437.43 679.97 436.76 680.04 436.07C681.18 424.13 673.96 407.42 671.66 402.86C661.35 382.4 645.43 362.69 638.82 354.35C637.28 352.4 620.82 332.86 614.16 325.72C608.81 310.5 597.86 286.96 579.91 263.8C580.1 264.3 580.47 265.35 580.95 266.96C597.41 289.04 607.6 311.09 612.7 325.59Z" fill="url(#paint55_linear)"/>
<path d="M612.7 325.59C619.36 332.73 635.82 352.27 637.36 354.22C643.97 362.57 659.89 382.27 670.2 402.73C672.5 407.29 679.73 424.01 678.58 435.94C677.54 446.75 673.61 451.35 667.18 451.68C674.01 451.97 678.36 448.1 679.8 438.07C679.89 437.43 679.97 436.76 680.04 436.07C681.18 424.13 673.96 407.42 671.66 402.86C661.35 382.4 645.43 362.69 638.82 354.35C637.28 352.4 620.82 332.86 614.16 325.72C608.81 310.5 597.86 286.96 579.91 263.8C580.1 264.3 580.47 265.35 580.95 266.96C597.41 289.04 607.6 311.09 612.7 325.59Z" fill="url(#paint56_linear)"/>
<path d="M626.81 438.19C626.52 438.17 626.23 438.16 625.97 438.16C610.97 438.36 620.7 459.75 608.37 500.26C587.61 568.52 540.28 608.6 520.5 624.28C470.8 663.68 414.31 679.87 402.83 683.28C402.73 683.4 402.63 683.5 402.55 683.59C402.47 683.71 402.4 683.81 402.35 683.89C405.6 682.59 467.82 667.22 521.99 624.28C541.76 608.6 589.1 568.52 609.86 500.26C613.31 488.92 615.03 479.08 616.05 470.79C617.07 462.44 617.38 455.66 618.04 450.5C619.01 442.68 620.76 438.54 626.81 438.19Z" fill="url(#paint57_linear)"/>
<path d="M626.81 438.19C626.52 438.17 626.23 438.16 625.97 438.16C610.97 438.36 620.7 459.75 608.37 500.26C587.61 568.52 540.28 608.6 520.5 624.28C470.8 663.68 414.31 679.87 402.83 683.28C402.73 683.4 402.63 683.5 402.55 683.59C402.47 683.71 402.4 683.81 402.35 683.89C405.6 682.59 467.82 667.22 521.99 624.28C541.76 608.6 589.1 568.52 609.86 500.26C613.31 488.92 615.03 479.08 616.05 470.79C617.07 462.44 617.38 455.66 618.04 450.5C619.01 442.68 620.76 438.54 626.81 438.19Z" fill="url(#paint58_linear)"/>
<path d="M678.58 435.95C679.72 424.01 672.5 407.3 670.2 402.74C659.89 382.28 643.97 362.57 637.36 354.23C635.82 352.28 619.36 332.74 612.7 325.6C607.61 311.1 597.41 289.05 580.95 266.98C585.14 281.23 596.97 339.35 555.22 449.69C514.07 558.44 411.69 673.49 402.83 683.28C414.31 679.87 470.8 663.68 520.5 624.28C540.27 608.6 587.61 568.52 608.37 500.26C620.69 459.75 610.97 438.36 625.97 438.16C626.24 438.16 626.52 438.17 626.81 438.19C627.02 438.18 627.22 438.15 627.44 438.15C635.78 438.04 656.67 451.1 666.93 451.69C667.02 451.69 667.1 451.69 667.18 451.69C673.6 451.35 677.54 446.76 678.58 435.95Z" fill="url(#paint59_linear)"/>
<path d="M678.58 435.95C679.72 424.01 672.5 407.3 670.2 402.74C659.89 382.28 643.97 362.57 637.36 354.23C635.82 352.28 619.36 332.74 612.7 325.6C607.61 311.1 597.41 289.05 580.95 266.98C585.14 281.23 596.97 339.35 555.22 449.69C514.07 558.44 411.69 673.49 402.83 683.28C414.31 679.87 470.8 663.68 520.5 624.28C540.27 608.6 587.61 568.52 608.37 500.26C620.69 459.75 610.97 438.36 625.97 438.16C626.24 438.16 626.52 438.17 626.81 438.19C627.02 438.18 627.22 438.15 627.44 438.15C635.78 438.04 656.67 451.1 666.93 451.69C667.02 451.69 667.1 451.69 667.18 451.69C673.6 451.35 677.54 446.76 678.58 435.95Z" fill="url(#paint60_linear)"/>
<path d="M678.58 435.95C679.72 424.01 672.5 407.3 670.2 402.74C659.89 382.28 643.97 362.57 637.36 354.23C635.82 352.28 619.36 332.74 612.7 325.6C607.61 311.1 597.41 289.05 580.95 266.98C585.14 281.23 596.97 339.35 555.22 449.69C514.07 558.44 411.69 673.49 402.83 683.28C414.31 679.87 470.8 663.68 520.5 624.28C540.27 608.6 587.61 568.52 608.37 500.26C620.69 459.75 610.97 438.36 625.97 438.16C626.24 438.16 626.52 438.17 626.81 438.19C627.02 438.18 627.22 438.15 627.44 438.15C635.78 438.04 656.67 451.1 666.93 451.69C667.02 451.69 667.1 451.69 667.18 451.69C673.6 451.35 677.54 446.76 678.58 435.95Z" fill="url(#paint61_linear)"/>
<defs>
<linearGradient id="paint0_linear" x1="706.479" y1="384.111" x2="515.067" y2="192.699" gradientUnits="userSpaceOnUse">
<stop offset="0.1173" stop-color="#D24D56"/>
<stop offset="0.212" stop-color="#C84950"/>
<stop offset="0.5312" stop-color="#AA3C3D"/>
<stop offset="0.8051" stop-color="#983531"/>
<stop offset="1" stop-color="#91322D"/>
</linearGradient>
<linearGradient id="paint1_linear" x1="693.396" y1="394.433" x2="303.151" y2="4.18764" gradientUnits="userSpaceOnUse">
<stop offset="0.1173" stop-color="#009ACF"/>
<stop offset="0.443" stop-color="#008AB6"/>
<stop offset="0.7684" stop-color="#007EA4"/>
<stop offset="1" stop-color="#007A9D"/>
</linearGradient>
<linearGradient id="paint2_linear" x1="486.532" y1="697.873" x2="-141.653" y2="69.6879" gradientUnits="userSpaceOnUse">
<stop offset="0.1173" stop-color="#009ACF"/>
<stop offset="0.443" stop-color="#008AB6"/>
<stop offset="0.7684" stop-color="#007EA4"/>
<stop offset="1" stop-color="#007A9D"/>
</linearGradient>
<linearGradient id="paint3_linear" x1="773.183" y1="450.815" x2="457.444" y2="135.077" gradientUnits="userSpaceOnUse">
<stop offset="0.1173" stop-color="#009ACF"/>
<stop offset="0.443" stop-color="#008AB6"/>
<stop offset="0.7684" stop-color="#007EA4"/>
<stop offset="1" stop-color="#007A9D"/>
</linearGradient>
<linearGradient id="paint4_linear" x1="520.638" y1="661.527" x2="283.438" y2="424.327" gradientUnits="userSpaceOnUse">
<stop offset="0.1173" stop-color="#009ACF"/>
<stop offset="0.443" stop-color="#008AB6"/>
<stop offset="0.7684" stop-color="#007EA4"/>
<stop offset="1" stop-color="#007A9D"/>
</linearGradient>
<linearGradient id="paint5_linear" x1="273.276" y1="414.166" x2="-16.4058" y2="124.483" gradientUnits="userSpaceOnUse">
<stop offset="0.1173" stop-color="#6BBAE2"/>
<stop offset="0.1759" stop-color="#60B4DB"/>
<stop offset="0.4308" stop-color="#379BC0"/>
<stop offset="0.662" stop-color="#1989AD"/>
<stop offset="0.8595" stop-color="#077EA1"/>
<stop offset="1" stop-color="#007A9D"/>
</linearGradient>
<linearGradient id="paint6_linear" x1="314.402" y1="211.951" x2="95.1101" y2="-7.34103" gradientUnits="userSpaceOnUse">
<stop offset="0.1173" stop-color="#009ACF"/>
<stop offset="1" stop-color="#007A9D"/>
</linearGradient>
<linearGradient id="paint7_linear" x1="504.905" y1="182.537" x2="313.473" y2="-8.89457" gradientUnits="userSpaceOnUse">
<stop offset="0.1173" stop-color="#6BBAE2"/>
<stop offset="0.1759" stop-color="#60B4DB"/>
<stop offset="0.4308" stop-color="#379BC0"/>
<stop offset="0.662" stop-color="#1989AD"/>
<stop offset="0.8595" stop-color="#077EA1"/>
<stop offset="1" stop-color="#007A9D"/>
</linearGradient>
<linearGradient id="paint8_linear" x1="638.907" y1="536.456" x2="524.472" y2="422.02" gradientUnits="userSpaceOnUse">
<stop offset="0.1173" stop-color="#009ACF"/>
<stop offset="0.443" stop-color="#008AB6"/>
<stop offset="0.7684" stop-color="#007EA4"/>
<stop offset="1" stop-color="#007A9D"/>
</linearGradient>
<linearGradient id="paint9_linear" x1="293.515" y1="462.71" x2="297.317" y2="696.149" gradientUnits="userSpaceOnUse">
<stop stop-color="white"/>
<stop offset="0.182" stop-color="#FBFBFB"/>
<stop offset="0.3607" stop-color="#EFF0F1"/>
<stop offset="0.5381" stop-color="#DCDDDF"/>
<stop offset="0.7147" stop-color="#C0C3C6"/>
<stop offset="0.8891" stop-color="#9DA1A7"/>
<stop offset="1" stop-color="#82888F"/>
</linearGradient>
<linearGradient id="paint10_linear" x1="156.199" y1="419.756" x2="197.805" y2="592.241" gradientUnits="userSpaceOnUse">
<stop stop-color="white"/>
<stop offset="0.1419" stop-color="#F8F8F8"/>
<stop offset="0.355" stop-color="#E3E4E6"/>
<stop offset="0.6129" stop-color="#C1C4C8"/>
<stop offset="0.9034" stop-color="#93989E"/>
<stop offset="1" stop-color="#82888F"/>
</linearGradient>
<linearGradient id="paint11_linear" x1="377.94" y1="491.825" x2="393.011" y2="665.38" gradientUnits="userSpaceOnUse">
<stop stop-color="white"/>
<stop offset="0.1583" stop-color="#FAFAFB"/>
<stop offset="0.3436" stop-color="#ECEDEE"/>
<stop offset="0.5425" stop-color="#D4D6D9"/>
<stop offset="0.7509" stop-color="#B3B7BB"/>
<stop offset="0.9649" stop-color="#8A8F96"/>
<stop offset="1" stop-color="#82888F"/>
</linearGradient>
<linearGradient id="paint12_linear" x1="192.993" y1="515.53" x2="273.312" y2="614.914" gradientUnits="userSpaceOnUse">
<stop stop-color="white"/>
<stop offset="0.1979" stop-color="#FCFCFC"/>
<stop offset="0.3681" stop-color="#F1F2F2"/>
<stop offset="0.5281" stop-color="#DFE1E3"/>
<stop offset="0.6818" stop-color="#C6C9CC"/>
<stop offset="0.8296" stop-color="#A7ABB0"/>
<stop offset="0.9658" stop-color="#82888F"/>
</linearGradient>
<linearGradient id="paint13_linear" x1="214.369" y1="290.787" x2="316.056" y2="669.97" gradientUnits="userSpaceOnUse">
<stop stop-color="white"/>
<stop offset="0.1606" stop-color="#F2F2F3"/>
<stop offset="0.4594" stop-color="#CFD1D4"/>
<stop offset="0.8606" stop-color="#979CA2"/>
<stop offset="1" stop-color="#82888F"/>
</linearGradient>
<linearGradient id="paint14_linear" x1="114.165" y1="191.004" x2="200.38" y2="561.232" gradientUnits="userSpaceOnUse">
<stop stop-color="white"/>
<stop offset="0.1606" stop-color="#F2F2F3"/>
<stop offset="0.4594" stop-color="#CFD1D4"/>
<stop offset="0.8606" stop-color="#979CA2"/>
<stop offset="1" stop-color="#82888F"/>
</linearGradient>
<linearGradient id="paint15_linear" x1="397.511" y1="313.826" x2="285.36" y2="485.26" gradientUnits="userSpaceOnUse">
<stop stop-color="white"/>
<stop offset="0.1606" stop-color="#F2F2F3"/>
<stop offset="0.4594" stop-color="#CFD1D4"/>
<stop offset="0.8606" stop-color="#979CA2"/>
<stop offset="1" stop-color="#82888F"/>
</linearGradient>
<linearGradient id="paint16_linear" x1="63.0761" y1="184.502" x2="48.3598" y2="422.057" gradientUnits="userSpaceOnUse">
<stop stop-color="white"/>
<stop offset="0.1606" stop-color="#F2F2F3"/>
<stop offset="0.4594" stop-color="#CFD1D4"/>
<stop offset="0.8606" stop-color="#979CA2"/>
<stop offset="1" stop-color="#82888F"/>
</linearGradient>
<linearGradient id="paint17_linear" x1="212.232" y1="367.49" x2="272.105" y2="557.499" gradientUnits="userSpaceOnUse">
<stop stop-color="white"/>
<stop offset="0.1419" stop-color="#F8F8F8"/>
<stop offset="0.355" stop-color="#E3E4E6"/>
<stop offset="0.6129" stop-color="#C1C4C8"/>
<stop offset="0.9034" stop-color="#93989E"/>
<stop offset="1" stop-color="#82888F"/>
</linearGradient>
<linearGradient id="paint18_linear" x1="405.577" y1="321.885" x2="379.521" y2="433.759" gradientUnits="userSpaceOnUse">
<stop stop-color="white"/>
<stop offset="0.1419" stop-color="#F8F8F8"/>
<stop offset="0.355" stop-color="#E3E4E6"/>
<stop offset="0.6129" stop-color="#C1C4C8"/>
<stop offset="0.9034" stop-color="#93989E"/>
<stop offset="1" stop-color="#82888F"/>
</linearGradient>
<linearGradient id="paint19_linear" x1="29.7827" y1="299.728" x2="171.385" y2="435.982" gradientUnits="userSpaceOnUse">
<stop stop-color="white"/>
<stop offset="0.2575" stop-color="#FCFCFD"/>
<stop offset="0.4305" stop-color="#F3F4F5"/>
<stop offset="0.5787" stop-color="#E4E5E7"/>
<stop offset="0.713" stop-color="#CFD1D4"/>
<stop offset="0.8379" stop-color="#B3B7BB"/>
<stop offset="0.9542" stop-color="#91979D"/>
<stop offset="1" stop-color="#82888F"/>
</linearGradient>
<linearGradient id="paint20_linear" x1="408.897" y1="435.115" x2="406.164" y2="576.005" gradientUnits="userSpaceOnUse">
<stop stop-color="white"/>
<stop offset="0.1719" stop-color="#FBFBFB"/>
<stop offset="0.3525" stop-color="#EEEFF0"/>
<stop offset="0.537" stop-color="#D9DBDD"/>
<stop offset="0.7244" stop-color="#BCBFC3"/>
<stop offset="0.912" stop-color="#969BA1"/>
<stop offset="1" stop-color="#82888F"/>
</linearGradient>
<linearGradient id="paint21_linear" x1="285.537" y1="284.605" x2="400.69" y2="329.198" gradientUnits="userSpaceOnUse">
<stop stop-color="white"/>
<stop offset="0.1719" stop-color="#FBFBFB"/>
<stop offset="0.3525" stop-color="#EEEFF0"/>
<stop offset="0.537" stop-color="#D9DBDD"/>
<stop offset="0.7244" stop-color="#BCBFC3"/>
<stop offset="0.912" stop-color="#969BA1"/>
<stop offset="1" stop-color="#82888F"/>
</linearGradient>
<linearGradient id="paint22_linear" x1="306.476" y1="526.166" x2="219.735" y2="525.318" gradientUnits="userSpaceOnUse">
<stop stop-color="white"/>
<stop offset="0.1998" stop-color="#FBFCFC"/>
<stop offset="0.3764" stop-color="#F1F1F2"/>
<stop offset="0.5443" stop-color="#DFE0E2"/>
<stop offset="0.7068" stop-color="#C5C8CB"/>
<stop offset="0.8638" stop-color="#A5A9AE"/>
<stop offset="1" stop-color="#82888F"/>
</linearGradient>
<linearGradient id="paint23_linear" x1="242.171" y1="292.168" x2="81.5612" y2="212.486" gradientUnits="userSpaceOnUse">
<stop stop-color="white"/>
<stop offset="0.1998" stop-color="#FBFCFC"/>
<stop offset="0.3764" stop-color="#F1F1F2"/>
<stop offset="0.5443" stop-color="#DFE0E2"/>
<stop offset="0.7068" stop-color="#C5C8CB"/>
<stop offset="0.8638" stop-color="#A5A9AE"/>
<stop offset="1" stop-color="#82888F"/>
</linearGradient>
<linearGradient id="paint24_linear" x1="318.031" y1="342.507" x2="141.881" y2="280.185" gradientUnits="userSpaceOnUse">
<stop stop-color="white"/>
<stop offset="0.1998" stop-color="#FBFCFC"/>
<stop offset="0.3764" stop-color="#F1F1F2"/>
<stop offset="0.5443" stop-color="#DFE0E2"/>
<stop offset="0.7068" stop-color="#C5C8CB"/>
<stop offset="0.8638" stop-color="#A5A9AE"/>
<stop offset="1" stop-color="#82888F"/>
</linearGradient>
<linearGradient id="paint25_linear" x1="199.39" y1="350.368" x2="111.061" y2="355.732" gradientUnits="userSpaceOnUse">
<stop stop-color="white"/>
<stop offset="0.2347" stop-color="#E6E7E9"/>
<stop offset="0.73" stop-color="#A7ABB0"/>
<stop offset="1" stop-color="#82888F"/>
</linearGradient>
<linearGradient id="paint26_linear" x1="106.58" y1="522.049" x2="264.584" y2="598.603" gradientUnits="userSpaceOnUse">
<stop stop-color="white"/>
<stop offset="0.1419" stop-color="#F8F8F8"/>
<stop offset="0.355" stop-color="#E3E4E6"/>
<stop offset="0.6129" stop-color="#C1C4C8"/>
<stop offset="0.9034" stop-color="#93989E"/>
<stop offset="1" stop-color="#82888F"/>
</linearGradient>
<linearGradient id="paint27_linear" x1="90.9284" y1="508.147" x2="106.018" y2="436.169" gradientUnits="userSpaceOnUse">
<stop stop-color="white"/>
<stop offset="0.2347" stop-color="#E6E7E9"/>
<stop offset="0.73" stop-color="#A7ABB0"/>
<stop offset="1" stop-color="#82888F"/>
</linearGradient>
<linearGradient id="paint28_linear" x1="67.4798" y1="301.791" x2="-31.677" y2="270.907" gradientUnits="userSpaceOnUse">
<stop offset="0.0842" stop-color="white"/>
<stop offset="0.2991" stop-color="#E6E7E9"/>
<stop offset="0.7528" stop-color="#A7ABB0"/>
<stop offset="1" stop-color="#82888F"/>
</linearGradient>
<linearGradient id="paint29_linear" x1="75.7124" y1="386.387" x2="116.008" y2="290.372" gradientUnits="userSpaceOnUse">
<stop offset="0.0842" stop-color="white"/>
<stop offset="0.2991" stop-color="#E6E7E9"/>
<stop offset="0.7528" stop-color="#A7ABB0"/>
<stop offset="1" stop-color="#82888F"/>
</linearGradient>
<linearGradient id="paint30_linear" x1="186.926" y1="353.235" x2="82.9783" y2="320.241" gradientUnits="userSpaceOnUse">
<stop stop-color="white"/>
<stop offset="0.2347" stop-color="#E6E7E9"/>
<stop offset="0.73" stop-color="#A7ABB0"/>
<stop offset="1" stop-color="#82888F"/>
</linearGradient>
<linearGradient id="paint31_linear" x1="358.5" y1="493.208" x2="425.481" y2="388.988" gradientUnits="userSpaceOnUse">
<stop stop-color="white"/>
<stop offset="0.1998" stop-color="#FBFCFC"/>
<stop offset="0.3764" stop-color="#F1F1F2"/>
<stop offset="0.5443" stop-color="#DFE0E2"/>
<stop offset="0.7068" stop-color="#C5C8CB"/>
<stop offset="0.8638" stop-color="#A5A9AE"/>
<stop offset="1" stop-color="#82888F"/>
</linearGradient>
<linearGradient id="paint32_linear" x1="345.293" y1="480.826" x2="387.123" y2="401.343" gradientUnits="userSpaceOnUse">
<stop stop-color="white"/>
<stop offset="0.1998" stop-color="#FBFCFC"/>
<stop offset="0.3764" stop-color="#F1F1F2"/>
<stop offset="0.5443" stop-color="#DFE0E2"/>
<stop offset="0.7068" stop-color="#C5C8CB"/>
<stop offset="0.8638" stop-color="#A5A9AE"/>
<stop offset="1" stop-color="#82888F"/>
</linearGradient>
<linearGradient id="paint33_linear" x1="389.053" y1="350.379" x2="445.771" y2="327.483" gradientUnits="userSpaceOnUse">
<stop stop-color="white"/>
<stop offset="0.1998" stop-color="#FBFCFC"/>
<stop offset="0.3764" stop-color="#F1F1F2"/>
<stop offset="0.5443" stop-color="#DFE0E2"/>
<stop offset="0.7068" stop-color="#C5C8CB"/>
<stop offset="0.8638" stop-color="#A5A9AE"/>
<stop offset="1" stop-color="#82888F"/>
</linearGradient>
<linearGradient id="paint34_linear" x1="208.416" y1="520.904" x2="83.7657" y2="534.864" gradientUnits="userSpaceOnUse">
<stop stop-color="white"/>
<stop offset="0.2061" stop-color="#FCFCFC"/>
<stop offset="0.3533" stop-color="#F3F3F4"/>
<stop offset="0.4823" stop-color="#E3E5E6"/>
<stop offset="0.6006" stop-color="#CDCFD2"/>
<stop offset="0.7118" stop-color="#B0B4B9"/>
<stop offset="0.8163" stop-color="#8E9399"/>
<stop offset="0.8469" stop-color="#82888F"/>
</linearGradient>
<linearGradient id="paint35_linear" x1="365.899" y1="547.187" x2="302.139" y2="763.563" gradientUnits="userSpaceOnUse">
<stop offset="0.163" stop-color="#6BBAE2"/>
<stop offset="0.2918" stop-color="#66B7DF"/>
<stop offset="0.4388" stop-color="#58AFD6"/>
<stop offset="0.5948" stop-color="#42A1C7"/>
<stop offset="0.7559" stop-color="#228EB3"/>
<stop offset="0.8958" stop-color="#007A9D"/>
</linearGradient>
<linearGradient id="paint36_linear" x1="405.193" y1="641.914" x2="225.994" y2="670.737" gradientUnits="userSpaceOnUse">
<stop offset="0.0716" stop-color="#6BBAE2"/>
<stop offset="0.8434" stop-color="#007A9D"/>
</linearGradient>
<linearGradient id="paint37_linear" x1="693.939" y1="359.255" x2="451.448" y2="640.513" gradientUnits="userSpaceOnUse">
<stop offset="0.273" stop-color="#85CCF2"/>
<stop offset="0.2767" stop-color="#84CBF1"/>
<stop offset="0.4286" stop-color="#55AED3"/>
<stop offset="0.5734" stop-color="#3098BC"/>
<stop offset="0.7076" stop-color="#1687AB"/>
<stop offset="0.8273" stop-color="#067DA1"/>
<stop offset="0.9203" stop-color="#007A9D"/>
</linearGradient>
<linearGradient id="paint38_linear" x1="545.894" y1="231.616" x2="303.403" y2="512.874" gradientUnits="userSpaceOnUse">
<stop offset="0.273" stop-color="#85CCF2"/>
<stop offset="0.2767" stop-color="#84CBF1"/>
<stop offset="0.4286" stop-color="#55AED3"/>
<stop offset="0.5734" stop-color="#3098BC"/>
<stop offset="0.7076" stop-color="#1687AB"/>
<stop offset="0.8273" stop-color="#067DA1"/>
<stop offset="0.9203" stop-color="#007A9D"/>
</linearGradient>
<linearGradient id="paint39_linear" x1="687.157" y1="353.385" x2="444.671" y2="634.668" gradientUnits="userSpaceOnUse">
<stop offset="0.273" stop-color="#85CCF2"/>
<stop offset="0.2767" stop-color="#84CBF1"/>
<stop offset="0.4286" stop-color="#55AED3"/>
<stop offset="0.5734" stop-color="#3098BC"/>
<stop offset="0.7076" stop-color="#1687AB"/>
<stop offset="0.8273" stop-color="#067DA1"/>
<stop offset="0.9203" stop-color="#007A9D"/>
</linearGradient>
<linearGradient id="paint40_linear" x1="708.833" y1="372.096" x2="466.341" y2="653.354" gradientUnits="userSpaceOnUse">
<stop offset="0.273" stop-color="#85CCF2"/>
<stop offset="0.2767" stop-color="#84CBF1"/>
<stop offset="0.4286" stop-color="#55AED3"/>
<stop offset="0.5734" stop-color="#3098BC"/>
<stop offset="0.7076" stop-color="#1687AB"/>
<stop offset="0.8273" stop-color="#067DA1"/>
<stop offset="0.9203" stop-color="#007A9D"/>
</linearGradient>
<linearGradient id="paint41_linear" x1="535.572" y1="222.717" x2="293.081" y2="503.975" gradientUnits="userSpaceOnUse">
<stop offset="0.273" stop-color="#85CCF2"/>
<stop offset="0.2767" stop-color="#84CBF1"/>
<stop offset="0.4286" stop-color="#55AED3"/>
<stop offset="0.5734" stop-color="#3098BC"/>
<stop offset="0.7076" stop-color="#1687AB"/>
<stop offset="0.8273" stop-color="#067DA1"/>
<stop offset="0.9203" stop-color="#007A9D"/>
</linearGradient>
<linearGradient id="paint42_linear" x1="725.522" y1="386.485" x2="483.03" y2="667.743" gradientUnits="userSpaceOnUse">
<stop offset="0.273" stop-color="#85CCF2"/>
<stop offset="0.2767" stop-color="#84CBF1"/>
<stop offset="0.4286" stop-color="#55AED3"/>
<stop offset="0.5734" stop-color="#3098BC"/>
<stop offset="0.7076" stop-color="#1687AB"/>
<stop offset="0.8273" stop-color="#067DA1"/>
<stop offset="0.9203" stop-color="#007A9D"/>
</linearGradient>
<linearGradient id="paint43_linear" x1="449.333" y1="148.365" x2="206.842" y2="429.623" gradientUnits="userSpaceOnUse">
<stop offset="0.273" stop-color="#85CCF2"/>
<stop offset="0.2767" stop-color="#84CBF1"/>
<stop offset="0.4286" stop-color="#55AED3"/>
<stop offset="0.5734" stop-color="#3098BC"/>
<stop offset="0.7076" stop-color="#1687AB"/>
<stop offset="0.8273" stop-color="#067DA1"/>
<stop offset="0.9203" stop-color="#007A9D"/>
</linearGradient>
<linearGradient id="paint44_linear" x1="433.908" y1="142.001" x2="597.083" y2="600.912" gradientUnits="userSpaceOnUse">
<stop offset="0.1378" stop-color="#85CCF2"/>
<stop offset="0.371" stop-color="#59B1D6"/>
<stop offset="0.7343" stop-color="#1989AD"/>
<stop offset="0.9061" stop-color="#007A9D"/>
</linearGradient>
<linearGradient id="paint45_linear" x1="527.122" y1="108.857" x2="690.296" y2="567.767" gradientUnits="userSpaceOnUse">
<stop offset="0.1378" stop-color="#85CCF2"/>
<stop offset="0.371" stop-color="#59B1D6"/>
<stop offset="0.7343" stop-color="#1989AD"/>
<stop offset="0.9061" stop-color="#007A9D"/>
</linearGradient>
<linearGradient id="paint46_linear" x1="350.797" y1="171.553" x2="513.97" y2="630.463" gradientUnits="userSpaceOnUse">
<stop offset="0.1378" stop-color="#85CCF2"/>
<stop offset="0.371" stop-color="#59B1D6"/>
<stop offset="0.7343" stop-color="#1989AD"/>
<stop offset="0.9061" stop-color="#007A9D"/>
</linearGradient>
<linearGradient id="paint47_linear" x1="246.097" y1="208.781" x2="409.27" y2="667.69" gradientUnits="userSpaceOnUse">
<stop offset="0.1378" stop-color="#85CCF2"/>
<stop offset="0.371" stop-color="#59B1D6"/>
<stop offset="0.7343" stop-color="#1989AD"/>
<stop offset="0.9061" stop-color="#007A9D"/>
</linearGradient>
<linearGradient id="paint48_linear" x1="575.308" y1="260.872" x2="312.986" y2="487.925" gradientUnits="userSpaceOnUse">
<stop offset="0.273" stop-color="#85CCF2"/>
<stop offset="0.2767" stop-color="#84CBF1"/>
<stop offset="0.4286" stop-color="#55AED3"/>
<stop offset="0.5734" stop-color="#3098BC"/>
<stop offset="0.7076" stop-color="#1687AB"/>
<stop offset="0.8273" stop-color="#067DA1"/>
<stop offset="0.9203" stop-color="#007A9D"/>
</linearGradient>
<linearGradient id="paint49_linear" x1="428.788" y1="156.444" x2="525.857" y2="645.849" gradientUnits="userSpaceOnUse">
<stop offset="0.1378" stop-color="#85CCF2"/>
<stop offset="0.371" stop-color="#59B1D6"/>
<stop offset="0.7343" stop-color="#1989AD"/>
<stop offset="0.9061" stop-color="#007A9D"/>
</linearGradient>
<linearGradient id="paint50_linear" x1="709.342" y1="372.536" x2="466.851" y2="653.794" gradientUnits="userSpaceOnUse">
<stop offset="0.273" stop-color="#85CCF2"/>
<stop offset="0.2767" stop-color="#84CBF1"/>
<stop offset="0.4286" stop-color="#55AED3"/>
<stop offset="0.5734" stop-color="#3098BC"/>
<stop offset="0.7076" stop-color="#1687AB"/>
<stop offset="0.8273" stop-color="#067DA1"/>
<stop offset="0.9203" stop-color="#007A9D"/>
</linearGradient>
<linearGradient id="paint51_linear" x1="527.389" y1="108.763" x2="690.562" y2="567.672" gradientUnits="userSpaceOnUse">
<stop offset="0.1378" stop-color="#85CCF2"/>
<stop offset="0.371" stop-color="#59B1D6"/>
<stop offset="0.7343" stop-color="#1989AD"/>
<stop offset="0.9061" stop-color="#007A9D"/>
</linearGradient>
<linearGradient id="paint52_linear" x1="516.692" y1="54.7132" x2="699.735" y2="521.658" gradientUnits="userSpaceOnUse">
<stop offset="0.3837" stop-color="#85CCF2"/>
<stop offset="0.5107" stop-color="#5DB3D8"/>
<stop offset="0.689" stop-color="#2B94B8"/>
<stop offset="0.8242" stop-color="#0C81A4"/>
<stop offset="0.8995" stop-color="#007A9D"/>
</linearGradient>
<linearGradient id="paint53_linear" x1="203.82" y1="177.361" x2="386.88" y2="644.297" gradientUnits="userSpaceOnUse">
<stop offset="0.3837" stop-color="#85CCF2"/>
<stop offset="0.5107" stop-color="#5DB3D8"/>
<stop offset="0.689" stop-color="#2B94B8"/>
<stop offset="0.8242" stop-color="#0C81A4"/>
<stop offset="0.8995" stop-color="#007A9D"/>
</linearGradient>
<linearGradient id="paint54_linear" x1="465.678" y1="74.7084" x2="648.718" y2="541.657" gradientUnits="userSpaceOnUse">
<stop offset="0.3837" stop-color="#85CCF2"/>
<stop offset="0.5107" stop-color="#5DB3D8"/>
<stop offset="0.689" stop-color="#2B94B8"/>
<stop offset="0.8242" stop-color="#0C81A4"/>
<stop offset="0.8995" stop-color="#007A9D"/>
</linearGradient>
<linearGradient id="paint55_linear" x1="654.446" y1="325.205" x2="411.954" y2="606.464" gradientUnits="userSpaceOnUse">
<stop offset="0.273" stop-color="#85CCF2"/>
<stop offset="0.2767" stop-color="#84CBF1"/>
<stop offset="0.4286" stop-color="#55AED3"/>
<stop offset="0.5734" stop-color="#3098BC"/>
<stop offset="0.7076" stop-color="#1687AB"/>
<stop offset="0.8273" stop-color="#067DA1"/>
<stop offset="0.9203" stop-color="#007A9D"/>
</linearGradient>
<linearGradient id="paint56_linear" x1="516.572" y1="54.7603" x2="699.615" y2="521.705" gradientUnits="userSpaceOnUse">
<stop offset="0.3837" stop-color="#85CCF2"/>
<stop offset="0.5107" stop-color="#5DB3D8"/>
<stop offset="0.689" stop-color="#2B94B8"/>
<stop offset="0.8242" stop-color="#0C81A4"/>
<stop offset="0.8995" stop-color="#007A9D"/>
</linearGradient>
<linearGradient id="paint57_linear" x1="708.787" y1="372.057" x2="466.295" y2="653.315" gradientUnits="userSpaceOnUse">
<stop offset="0.273" stop-color="#85CCF2"/>
<stop offset="0.2767" stop-color="#84CBF1"/>
<stop offset="0.4286" stop-color="#55AED3"/>
<stop offset="0.5734" stop-color="#3098BC"/>
<stop offset="0.7076" stop-color="#1687AB"/>
<stop offset="0.8273" stop-color="#067DA1"/>
<stop offset="0.9203" stop-color="#007A9D"/>
</linearGradient>
<linearGradient id="paint58_linear" x1="342.758" y1="122.895" x2="525.801" y2="589.84" gradientUnits="userSpaceOnUse">
<stop offset="0.3837" stop-color="#85CCF2"/>
<stop offset="0.5107" stop-color="#5DB3D8"/>
<stop offset="0.689" stop-color="#2B94B8"/>
<stop offset="0.8242" stop-color="#0C81A4"/>
<stop offset="0.8995" stop-color="#007A9D"/>
</linearGradient>
<linearGradient id="paint59_linear" x1="656.521" y1="326.995" x2="414.03" y2="608.253" gradientUnits="userSpaceOnUse">
<stop offset="0.273" stop-color="#85CCF2"/>
<stop offset="0.2767" stop-color="#84CBF1"/>
<stop offset="0.4286" stop-color="#55AED3"/>
<stop offset="0.5734" stop-color="#3098BC"/>
<stop offset="0.7076" stop-color="#1687AB"/>
<stop offset="0.8273" stop-color="#067DA1"/>
<stop offset="0.9203" stop-color="#007A9D"/>
</linearGradient>
<linearGradient id="paint60_linear" x1="398.638" y1="154.542" x2="561.811" y2="613.452" gradientUnits="userSpaceOnUse">
<stop offset="0.1378" stop-color="#85CCF2"/>
<stop offset="0.371" stop-color="#59B1D6"/>
<stop offset="0.7343" stop-color="#1989AD"/>
<stop offset="0.9061" stop-color="#007A9D"/>
</linearGradient>
<linearGradient id="paint61_linear" x1="368.038" y1="112.986" x2="551.081" y2="579.93" gradientUnits="userSpaceOnUse">
<stop offset="0.3837" stop-color="#85CCF2"/>
<stop offset="0.5107" stop-color="#5DB3D8"/>
<stop offset="0.689" stop-color="#2B94B8"/>
<stop offset="0.8242" stop-color="#0C81A4"/>
<stop offset="0.8995" stop-color="#007A9D"/>
</linearGradient>
</defs>
</svg>
