<svg width="37" height="30" viewBox="0 0 37 30" fill="none" xmlns="http://www.w3.org/2000/svg">
<path d="M36.9033 3.55855C35.5462 4.1599 34.0883 4.56621 32.5557 4.74987C34.1371 3.80363 35.3202 2.31435 35.8842 0.559934C34.3985 1.44244 32.7724 2.06362 31.0767 2.39648C29.9364 1.17894 28.426 0.371933 26.78 0.100754C25.1341 -0.170425 23.4446 0.109396 21.974 0.896774C20.5033 1.68415 19.3338 2.93503 18.6469 4.45521C17.96 5.97539 17.7943 7.67981 18.1753 9.30386C15.1648 9.1527 12.2198 8.37022 9.53125 7.00721C6.84273 5.64419 4.47085 3.73109 2.56954 1.39207C1.91944 2.5135 1.54563 3.81371 1.54563 5.19844C1.5449 6.44501 1.85188 7.67249 2.43933 8.77196C3.02677 9.87144 3.87652 10.8089 4.91318 11.5012C3.71093 11.463 2.53521 11.1381 1.48387 10.5537V10.6512C1.48375 12.3996 2.08852 14.0941 3.19557 15.4474C4.30262 16.8006 5.84376 17.7291 7.55748 18.0754C6.4422 18.3773 5.27291 18.4217 4.13793 18.2054C4.62144 19.7098 5.56328 21.0253 6.83159 21.9678C8.0999 22.9103 9.63119 23.4326 11.2111 23.4615C8.52912 25.5669 5.21692 26.709 1.80729 26.7039C1.20332 26.7041 0.599847 26.6688 0 26.5983C3.46096 28.8236 7.48978 30.0046 11.6044 30C25.5329 30 33.1473 18.4639 33.1473 8.45872C33.1473 8.13367 33.1392 7.80537 33.1245 7.48031C34.6056 6.40922 35.8841 5.08288 36.9 3.56342L36.9033 3.55855Z" fill="#F8F8F8"/>
</svg>
