<svg width="75" height="56" viewBox="0 0 75 56" fill="none" xmlns="http://www.w3.org/2000/svg">
<path d="M0.637779 18.1691C0.646103 18.061 0.655914 17.953 0.667221 17.8452C0.993591 13.2046 3.06433 8.85947 6.46326 5.68312C9.86221 2.50677 14.3374 0.734628 18.9895 0.722843H55.796C60.5133 0.701523 65.0566 2.50345 68.4769 5.75233C71.8973 9.00121 73.9303 13.4458 74.1514 18.1581C74.1882 18.4488 74.1992 18.7507 74.1992 19.0893V43.0503C74.1992 46.4549 72.8263 49.7785 70.4376 52.1636C68.0127 54.5726 64.735 55.9271 61.3169 55.9326C54.6918 55.9326 52.1006 52.2519 48.4347 44.8906C47.8973 43.8159 44.7835 37.5293 37.3927 37.5293C30.0462 37.5293 26.8918 43.8122 26.3508 44.8906C22.6554 52.2519 20.0937 55.9326 13.4685 55.9326C10.0639 55.9326 6.7403 54.5597 4.35524 52.1709C1.94623 49.7461 0.591751 46.4684 0.58625 43.0503V19.1261C0.58625 18.7764 0.600975 18.4636 0.637779 18.1691ZM55.796 26.6015C56.7763 26.6237 57.7511 26.4497 58.6633 26.09C59.5755 25.7302 60.4066 25.1918 61.1078 24.5064C61.809 23.8211 62.3663 23.0025 62.7468 22.0988C63.1273 21.1951 63.3235 20.2245 63.3237 19.2439C63.3239 18.2634 63.1283 17.2926 62.7482 16.3887C62.3681 15.4849 61.8113 14.666 61.1104 13.9803C60.4095 13.2945 59.5787 12.7557 58.6667 12.3955C57.7547 12.0353 56.78 11.8609 55.7997 11.8826C53.8763 11.9251 52.046 12.7189 50.7006 14.094C49.3552 15.4692 48.6016 17.3164 48.6011 19.2402C48.6006 21.1641 49.3533 23.0116 50.698 24.3875C52.0427 25.7633 53.8726 26.558 55.796 26.6015ZM18.9895 8.19824C18.0133 8.19824 17.0771 8.58602 16.3869 9.27628C15.6966 9.96653 15.3088 10.9027 15.3088 11.8789C15.3088 12.8551 15.6966 13.7912 16.3869 14.4815C17.0771 15.1718 18.0133 15.5595 18.9895 15.5595C19.9657 15.5595 20.9019 15.1718 21.5921 14.4815C22.2824 13.7912 22.6701 12.8551 22.6701 11.8789C22.6701 10.9027 22.2824 9.96653 21.5921 9.27628C20.9019 8.58602 19.9657 8.19824 18.9895 8.19824ZM26.3508 22.9208C27.327 22.9208 28.2631 22.5331 28.9534 21.8428C29.6437 21.1525 30.0314 20.2164 30.0314 19.2402C30.0314 18.264 29.6437 17.3278 28.9534 16.6376C28.2631 15.9473 27.327 15.5595 26.3508 15.5595C25.3746 15.5595 24.4384 15.9473 23.7482 16.6376C23.0579 17.3278 22.6701 18.264 22.6701 19.2402C22.6701 20.2164 23.0579 21.1525 23.7482 21.8428C24.4384 22.5331 25.3746 22.9208 26.3508 22.9208ZM18.9895 30.2821C19.9657 30.2821 20.9019 29.8943 21.5921 29.2041C22.2824 28.5138 22.6701 27.5777 22.6701 26.6015C22.6701 25.6253 22.2824 24.6891 21.5921 23.9989C20.9019 23.3086 19.9657 22.9208 18.9895 22.9208C18.0133 22.9208 17.0771 23.3086 16.3869 23.9989C15.6966 24.6891 15.3088 25.6253 15.3088 26.6015C15.3088 27.5777 15.6966 28.5138 16.3869 29.2041C17.0771 29.8943 18.0133 30.2821 18.9895 30.2821ZM11.6282 22.9208C12.6044 22.9208 13.5406 22.5331 14.2308 21.8428C14.9211 21.1525 15.3088 20.2164 15.3088 19.2402C15.3088 18.264 14.9211 17.3278 14.2308 16.6376C13.5406 15.9473 12.6044 15.5595 11.6282 15.5595C10.652 15.5595 9.71584 15.9473 9.02558 16.6376C8.33533 17.3278 7.94755 18.264 7.94755 19.2402C7.94755 20.2164 8.33533 21.1525 9.02558 21.8428C9.71584 22.5331 10.652 22.9208 11.6282 22.9208Z" fill="#F8F8F8"/>
</svg>
