<svg width="175" height="150" viewBox="0 0 175 150" fill="none" xmlns="http://www.w3.org/2000/svg">
<path d="M91.4104 139.277C91.4104 139.277 154.574 136.771 160.129 144.477C165.684 152.182 116.999 149.645 91.7112 149.432C66.4232 149.219 34.1 150.224 25.2202 148.021C16.3405 145.819 6.38628 138.106 91.4104 139.277Z" fill="#F8F8F8"/>
<path d="M81.442 131.424C81.442 131.424 81.8892 135.381 80.9944 137.557C80.0997 139.734 75.8491 142.108 79.2049 143.295C82.5606 144.482 89.0483 143.69 90.8379 142.503C92.6279 141.316 90.8379 133.798 90.3907 132.809C89.9431 131.82 81.442 131.424 81.442 131.424" fill="#F8F8F8"/>
<path d="M83.9384 137.508C83.9384 137.508 81.5387 136.886 80.872 136.841C80.2057 136.797 80.6499 137.597 80.5167 137.686C80.3836 137.775 83.2275 138.441 83.6717 138.485C84.1163 138.53 84.2495 137.463 83.9384 137.508" fill="#F8F8F8"/>
<path d="M82.879 139.337C82.879 139.337 80.5644 138.45 79.9066 138.331C79.2492 138.212 79.6015 139.057 79.459 139.13C79.3164 139.204 82.068 140.185 82.5045 140.279C82.9411 140.373 83.193 139.328 82.879 139.337Z" fill="#F8F8F8"/>
<path d="M91.4932 140.619C91.4932 140.619 89.8487 143.108 83.8941 142.663C82.447 142.555 79.3168 140.174 78.739 140.485C78.1612 140.797 76.1614 142.796 76.3393 143.552C76.5171 144.307 88.2463 144.423 90.8264 143.907C91.9374 143.685 91.8484 141.152 91.4932 140.619" fill="#F8F8F8"/>
<path d="M84.5647 134.964C84.5647 134.964 82.1322 134.486 81.4642 134.481C80.7962 134.476 81.2872 135.248 81.1591 135.345C81.0315 135.441 83.9103 135.938 84.3562 135.956C84.8025 135.974 84.8723 134.901 84.5647 134.964Z" fill="#F8F8F8"/>
<path d="M105.34 131.424C105.34 131.424 104.892 135.381 105.787 137.557C106.682 139.734 110.933 142.108 107.577 143.295C104.221 144.482 97.7331 143.69 95.9435 142.503C94.1535 141.316 95.9435 133.798 96.3907 132.809C96.8383 131.82 105.34 131.424 105.34 131.424" fill="#F8F8F8"/>
<path d="M102.843 137.508C102.843 137.508 105.243 136.886 105.909 136.841C106.576 136.797 106.131 137.597 106.265 137.686C106.398 137.775 103.554 138.441 103.11 138.485C102.665 138.53 102.532 137.463 102.843 137.508" fill="#F8F8F8"/>
<path d="M103.902 139.337C103.902 139.337 106.217 138.45 106.875 138.331C107.532 138.212 107.18 139.057 107.322 139.13C107.465 139.204 104.714 140.185 104.277 140.279C103.84 140.373 103.588 139.328 103.902 139.337Z" fill="#F8F8F8"/>
<path d="M95.2884 140.619C95.2884 140.619 96.9325 143.108 102.888 142.663C104.334 142.555 107.464 140.174 108.042 140.485C108.62 140.797 110.62 142.796 110.442 143.552C110.264 144.307 98.5349 144.423 95.9548 143.907C94.8438 143.685 94.9327 141.152 95.2884 140.619" fill="#F8F8F8"/>
<path d="M102.217 134.964C102.217 134.964 104.649 134.486 105.317 134.481C105.986 134.476 105.494 135.248 105.622 135.345C105.75 135.441 102.872 135.938 102.425 135.956C101.979 135.974 101.909 134.901 102.217 134.964" fill="#F8F8F8"/>
<path d="M81.8026 30.2778C81.8026 30.2778 60.8864 39.0848 59.6019 43.6714C58.3174 48.2585 68.2251 60.5515 71.8949 64.0374C74.0439 66.0789 79.2339 58.9002 78.5 57.6157C77.766 56.3316 71.8948 49.5426 72.2616 48.4419C72.6288 47.3412 77.9494 46.7906 80.1513 43.8553C82.3527 40.9194 81.8026 30.2778 81.8026 30.2778" fill="#F8F8F8"/>
<path d="M97.2142 20.7372C97.2142 20.7372 95.9302 28.9936 97.3981 29.7276C98.8655 30.4611 108.223 30.0943 108.957 32.1124C109.691 34.1308 103.269 56.8817 103.269 56.8817C103.269 56.8817 85.8391 59.6341 85.2885 58.5329C84.7379 57.4322 78.8667 34.8648 79.0501 33.3969C79.2339 31.929 87.6737 29.3604 88.2239 28.6264C88.7744 27.8925 88.4077 20.9206 88.4077 20.9206L97.2142 20.7372" fill="#F8F8F8"/>
<path d="M84.131 7.24321C84.131 7.24321 83.8531 17.5887 84.225 19.7429C84.5964 21.8976 89.6839 24.9849 92.2253 25.1767C94.7671 25.3686 99.8082 22.6958 100.836 20.7352C101.864 18.7741 101.333 9.13532 101.404 7.764C101.476 6.39225 95.5053 3.9334 92.0449 4.64438C88.584 5.35535 84.1667 6.65562 84.131 7.24321" fill="#F8F8F8"/>
<path d="M92.4199 16.9663C92.2646 16.9663 92.1267 16.9595 92.0285 16.9416C91.8893 16.9169 91.7693 16.8348 91.6915 16.7106C91.6047 16.5736 91.3749 16.2085 92.0944 13.6016C92.1574 13.3748 92.3935 13.2429 92.6178 13.3046C92.8445 13.3672 92.9773 13.6012 92.9147 13.828C92.6854 14.6594 92.4684 15.6601 92.4356 16.1166C92.7492 16.1141 93.2338 16.0771 93.5678 16.0413C93.8048 16.0209 94.0116 16.186 94.0359 16.4196C94.0605 16.6536 93.8912 16.8629 93.6576 16.8876C93.5053 16.9038 92.8862 16.9663 92.4199 16.9663Z" fill="#F8F8F8"/>
<path d="M95.0995 18.2228C95.0995 18.2228 90.8966 17.9871 90.412 18.2301C89.9273 18.4734 90.8596 20.129 92.5577 20.5302C94.2553 20.9314 95.787 18.4641 95.0995 18.2228" fill="#F8F8F8"/>
<path d="M95.5562 14.0048C95.557 14.652 95.974 15.1761 96.4871 15.1753C97.0007 15.1744 97.4159 14.649 97.4147 14.0018C97.4138 13.3547 96.9968 12.8309 96.4837 12.8313C95.9701 12.8322 95.5549 13.3576 95.5562 14.0048Z" fill="#F8F8F8"/>
<path d="M88.0649 13.4657C88.0662 14.1129 88.4832 14.6371 88.9963 14.6362C89.5099 14.6354 89.9251 14.1099 89.9239 13.4628C89.923 12.8156 89.506 12.2914 88.9925 12.2923C88.4794 12.2931 88.0641 12.8186 88.0649 13.4657Z" fill="#F8F8F8"/>
<path d="M100.843 14.8579C100.843 14.8579 100.92 12.433 103.629 13.0347C106.337 13.6363 106.382 16.2632 103.637 18.2477C100.892 20.2321 100.403 17.4044 100.843 14.8579Z" fill="#F8F8F8"/>
<path d="M102.384 17.584C102.222 17.584 102.067 17.4917 101.996 17.3351C101.739 16.7734 101.533 15.4728 102.588 14.5716C103.114 14.1214 103.605 13.9329 104.04 14.0121C104.391 14.075 104.631 14.3052 104.73 14.4831C104.845 14.6882 104.772 14.9473 104.567 15.0617C104.366 15.1745 104.114 15.1064 103.995 14.9107C103.986 14.8988 103.95 14.8571 103.878 14.8477C103.797 14.8371 103.566 14.8545 103.14 15.2183C102.304 15.9327 102.765 16.9713 102.77 16.9819C102.867 17.1955 102.774 17.4478 102.56 17.5457C102.502 17.5716 102.442 17.584 102.384 17.584Z" fill="#F8F8F8"/>
<path d="M85.2504 14.1554C85.2504 14.1554 85.1653 11.731 82.4589 12.3416C79.7524 12.9522 79.7162 15.5791 82.4674 17.5546C85.2185 19.5301 85.6989 16.7006 85.2504 14.1554" fill="#F8F8F8"/>
<path d="M83.7184 16.4614C83.7184 16.4614 84.3226 15.1267 83.2299 14.1992C82.1373 13.2716 81.7344 13.9996 81.7344 13.9996" fill="#F8F8F8"/>
<path d="M95.7817 16.9936C95.7834 18.128 96.7046 19.0461 97.8389 19.0444C98.9733 19.0423 99.8915 18.1211 99.8897 16.9868C99.8876 15.8525 98.9669 14.9343 97.8321 14.9364C96.6978 14.9381 95.7796 15.8593 95.7817 16.9936" fill="#F8F8F8"/>
<path d="M85.686 16.8271C85.6882 17.9614 86.6093 18.8796 87.7437 18.8779C88.878 18.8762 89.7962 17.9551 89.794 16.8207C89.7923 15.686 88.8712 14.7682 87.7368 14.7699C86.6025 14.7716 85.6843 15.6928 85.686 16.8271" fill="#F8F8F8"/>
<path d="M97.4436 11.2651C97.3402 11.2651 97.2368 11.2277 97.1551 11.152C97.1134 11.1145 96.2012 10.2976 95.4634 10.926C95.2834 11.0788 95.0154 11.0558 94.8635 10.8771C94.7111 10.698 94.7333 10.4295 94.9124 10.2772C95.968 9.38153 97.2193 10.0495 97.7333 10.5278C97.9052 10.6882 97.9154 10.9571 97.7555 11.1294C97.6712 11.2192 97.5576 11.2651 97.4436 11.2651Z" fill="#F8F8F8"/>
<path d="M90.206 10.7378C90.1098 10.7378 90.0128 10.7055 89.9332 10.6387C89.8928 10.605 88.9419 9.83152 88.2326 10.4953C88.0615 10.6561 87.7922 10.6476 87.631 10.4757C87.4705 10.3042 87.4791 10.0349 87.651 9.87449C88.661 8.9278 89.9434 9.53412 90.4804 9.98725C90.6599 10.1387 90.6829 10.4068 90.5315 10.5867C90.4472 10.6867 90.3272 10.7378 90.206 10.7378" fill="#F8F8F8"/>
<path d="M86.9377 28.2596C86.9377 28.2596 92.0431 34.5499 92.811 34.8647C93.579 35.1791 98.6516 28.1021 99.42 28.417C100.188 28.7314 103.453 30.9337 103.453 31.8779C103.453 32.8216 97.2658 40.2117 96.1136 40.3687C94.9614 40.5262 92.6277 36.3326 92.6277 36.3326C92.6277 36.3326 90.1016 39.3467 89.1417 39.8186C88.1814 40.2904 82.3289 31.8779 82.905 30.9337C83.4811 29.99 86.9377 28.2596 86.9377 28.2596" fill="#F8F8F8"/>
<path d="M77.9491 33.3966C77.9491 33.3966 74.9827 43.1282 76.7412 45.9683C78.4997 48.8088 77.676 55.5828 77.7658 58.7165C77.8513 61.7017 80.8849 60.184 87.4901 61.8353C94.0952 63.4865 104.089 60.2223 106.285 60.1184C108.482 60.0146 105.193 51.4684 106.111 50.0005C107.029 48.5326 109.874 44.9556 108.956 41.4697C108.039 37.9837 106.755 33.58 106.204 32.4793C105.654 31.3786 98.8653 31.7453 97.9479 32.4793C97.0306 33.2132 94.8288 37.7999 92.6273 36.3324C90.4255 34.8645 88.4074 30.0941 87.4901 30.2774C86.5728 30.4608 77.3986 30.6446 77.9491 33.3966" fill="#F8F8F8"/>
<path d="M69.3263 135.843C69.3263 135.843 118.864 136.849 119.966 136.246C121.066 135.642 113.378 70.6158 107.507 58.7462C106.606 56.9251 77.7661 58.7393 76.8488 59.3929C72.9574 62.1666 66.7577 135.642 69.3263 135.843" fill="#F8F8F8"/>
<path d="M121.519 26.6271C121.519 26.6271 118.207 26.4539 117.653 27.7933C117.099 29.1323 116.843 32.3962 117.799 32.817C118.754 33.2373 122.224 33.682 123.026 32.6212C123.828 31.5609 125.283 26.7492 121.519 26.6271Z" fill="#F8F8F8"/>
<path d="M114.645 33.0298C114.645 33.0298 121.8 32.846 123.818 33.9472C125.837 35.0479 124.002 52.6615 124.552 55.0467C125.103 57.4319 116.847 61.8352 113.361 55.4139C112.145 53.1737 114.461 33.7634 114.645 33.0298Z" fill="#F8F8F8"/>
<path d="M102.902 29.5438C102.902 29.5438 106.021 28.6265 108.039 30.4612C110.058 32.2963 121.066 47.1578 122.718 49.3593C124.369 51.5611 115.929 58.7168 114.645 57.4323C113.361 56.1478 107.122 49.3593 103.82 46.0567C100.517 42.7541 102.902 29.5438 102.902 29.5438Z" fill="#F8F8F8"/>
<path d="M86.0837 8.56633C86.0837 8.56633 90.3645 5.14165 93.1777 5.3863C95.9914 5.63095 100.924 9.61429 100.884 12.2361C100.844 14.8579 101.129 20.3091 99.6608 22.0213C98.1929 23.7338 88.8927 27.1589 86.9377 28.2597C84.9826 29.3604 85.9612 31.0729 88.4077 34.253C90.8538 37.4334 89.6309 39.6353 92.5663 38.7788C95.5021 37.9227 104.309 34.253 104.921 33.1522C105.532 32.0515 103.453 24.5899 103.697 23.8564C103.942 23.1224 107.856 16.5641 106.633 13.2147C96.8475 -13.5731 79.4173 8.07746 79.7841 11.5634C80.1981 15.4936 78.2553 20.7984 83.3926 24.5899C85.4119 26.0804 78.6221 29.605 79.7232 31.3176C80.8239 33.0301 89.3863 38.412 90.6091 38.9013C91.8324 39.3906 99.1715 33.2748 100.15 32.5408C101.129 31.8069 94.7635 25.76 92.6889 25.691C89.0191 25.5685 83.0258 19.942 84.004 14.3154C84.9826 8.68887 86.0837 8.56633 86.0837 8.56633" fill="#F8F8F8"/>
<path d="M114.455 39.0342C114.455 39.0342 113.43 47.5455 113.635 48.8785C113.84 50.2116 111.584 46.3146 111.789 44.4689C111.994 42.6231 112.199 36.7783 112.814 36.7783C113.43 36.7783 114.455 39.0342 114.455 39.0342" fill="#F8F8F8"/>
<path d="M105.088 39.5498C105.088 39.5498 97.0111 38.8669 96.6699 39.6634C96.3287 40.4595 96.4427 45.6924 97.0111 46.8298C97.58 47.9675 99.855 49.9013 101.22 49.7877C102.585 49.6737 104.86 47.5126 105.088 46.6025C105.315 45.6924 105.77 39.6634 105.088 39.5498Z" fill="#F8F8F8"/>
<path d="M89.196 34.6143C89.196 34.6143 91.2387 37.2123 91.1655 38.2402C91.0928 39.2678 89.4372 49.7686 88.9781 51.2854C88.519 52.8023 91.5229 56.3418 92.239 57.8127C92.9555 59.2836 96.2989 53.4524 96.39 52.1679C96.481 50.8829 93.5874 38.7993 93.9026 37.6595C94.2179 36.52 95.1706 34.6509 94.9829 33.9918C94.7953 33.3332 88.999 34.0841 89.196 34.6143" fill="#F8F8F8"/>
<path d="M72.9533 61.7422C72.9533 61.7422 73.5838 59.1076 76.7758 58.2613C79.9681 57.415 83.3486 59.0787 84.4952 60.3168C86.1721 62.1281 80.731 61.0091 80.731 61.0091C80.731 61.0091 84.4297 61.3571 84.18 62.5625C83.9302 63.7674 80.3979 62.6161 80.3979 62.6161C80.3979 62.6161 85.6542 64.1997 83.3486 64.8107C81.0429 65.4221 77.317 64.4495 75.507 65.4987C73.6974 66.5479 72.1244 62.9114 72.9533 61.7422" fill="#F8F8F8"/>
<path d="M123.214 13.767L119 32.8502C119 32.8502 118.333 32.9535 117.948 32.6715C117.563 32.3898 121.854 13.6066 121.854 13.6066L123.214 13.767" fill="#F8F8F8"/>
<path d="M125.844 17.6434C125.844 17.6434 133.422 20.2133 133.719 21.423C134.016 22.6322 133.191 26.9895 132.904 28.3919C132.616 29.7938 125.468 27.0419 124.831 26.7002C124.195 26.3581 125.364 17.2916 125.844 17.6434" fill="#F8F8F8"/>
<path d="M123.363 22.6485C123.363 22.6485 132.68 25.8711 133.123 26.0719C133.568 26.2728 134.31 20.6151 133.518 20.2833C132.726 19.9518 125.119 16.6161 124.705 17.1811C124.291 17.7466 123.363 22.6485 123.363 22.6485Z" fill="#F8F8F8"/>
<path d="M122.431 14.029C122.431 14.029 129.409 16.4079 130.312 17.1929C131.216 17.9783 129.475 24.3941 129.195 25.1809C128.914 25.968 120.464 23.3794 119.65 23.2798C118.836 23.1802 121.928 13.9086 122.431 14.029Z" fill="#F8F8F8"/>
<path d="M120.512 19.0733C120.512 19.0733 129.829 22.2959 130.272 22.4967C130.716 22.698 131.459 17.0399 130.667 16.7085C129.875 16.3766 122.268 13.0408 121.854 13.6063C121.44 14.1713 120.512 19.0733 120.512 19.0733Z" fill="#F8F8F8"/>
<path d="M116.199 28.5267C116.199 28.5267 116.513 25.736 117.672 25.5985C118.829 25.4611 120.301 24.9676 121.952 25.8577C123.603 26.7482 119.191 27.4838 119.333 28.1038C119.476 28.7237 120.023 29.7393 120.41 30.9107C120.795 32.0824 120.6 33.3606 119.258 33.4074C117.916 33.4546 115.654 33.0491 115.399 32.6487C115.143 32.2484 116.199 28.5267 116.199 28.5267" fill="#F8F8F8"/>
<path d="M120.986 27.1657C120.986 27.1657 117.412 28.1932 117.636 29.3101C117.859 30.427 118.038 33.6436 119.02 33.867C120.003 34.0904 122.729 33.0628 123.399 32.7054C124.069 32.348 124.292 29.2207 123.711 28.4166C123.131 27.6124 120.986 27.1657 120.986 27.1657" fill="#F8F8F8"/>
<path d="M118.261 30.2715C118.152 30.2715 118.043 30.2298 117.96 30.1468C117.794 29.9804 117.794 29.7111 117.96 29.5448C118.633 28.8725 120.497 28.1824 120.707 28.1058C120.927 28.0254 121.172 28.1394 121.252 28.3602C121.333 28.581 121.219 28.8253 120.998 28.9057C120.475 29.0959 119.02 29.6894 118.562 30.1468C118.479 30.2298 118.37 30.2715 118.261 30.2715Z" fill="#F8F8F8"/>
<path d="M118.931 32.4609C118.796 32.4609 118.662 32.3963 118.58 32.2754C118.448 32.0818 118.497 31.8168 118.691 31.6844C118.872 31.5606 120.485 30.4693 121.39 30.2791C121.619 30.2297 121.846 30.3778 121.894 30.6075C121.943 30.8377 121.795 31.0632 121.566 31.1117C120.938 31.2436 119.625 32.0767 119.171 32.3865C119.098 32.4367 119.014 32.4609 118.931 32.4609" fill="#F8F8F8"/>
<path d="M82.3849 61.7969C82.3278 61.7969 82.27 61.7858 82.2147 61.7611C81.6658 61.5212 80.4047 61.3735 79.9652 61.3365C79.7311 61.3174 79.5571 61.1118 79.5767 60.8774C79.5963 60.643 79.8022 60.4643 80.0358 60.489C80.106 60.4949 81.7666 60.6362 82.5559 60.9817C82.7712 61.0761 82.8691 61.3271 82.775 61.5424C82.7048 61.702 82.5487 61.7969 82.3849 61.7969" fill="#F8F8F8"/>
<path d="M82.3784 63.4336C82.3337 63.4336 82.2882 63.4264 82.2435 63.4115C81.8269 63.2728 80.365 63.2209 79.5417 63.2209C79.3064 63.2209 79.1162 63.0302 79.1162 62.7954C79.1162 62.5601 79.3064 62.3699 79.5417 62.3699C79.7736 62.3699 81.8286 62.3767 82.5128 62.6048C82.7358 62.6784 82.8562 62.9196 82.7817 63.1426C82.7226 63.3208 82.5566 63.4336 82.3784 63.4336Z" fill="#F8F8F8"/>
<path d="M125.267 131.424C125.267 131.424 125.714 135.381 124.819 137.557C123.924 139.734 119.674 142.108 123.03 143.295C126.385 144.482 132.873 143.69 134.663 142.503C136.453 141.316 134.663 133.798 134.215 132.809C133.768 131.82 125.267 131.424 125.267 131.424" fill="#F8F8F8"/>
<path d="M127.763 137.508C127.763 137.508 125.363 136.886 124.696 136.841C124.03 136.797 124.474 137.597 124.341 137.686C124.208 137.775 127.052 138.441 127.496 138.485C127.941 138.53 128.074 137.463 127.763 137.508" fill="#F8F8F8"/>
<path d="M126.704 139.337C126.704 139.337 124.389 138.45 123.731 138.331C123.074 138.212 123.426 139.057 123.284 139.13C123.141 139.204 125.893 140.185 126.329 140.279C126.766 140.373 127.018 139.328 126.704 139.337Z" fill="#F8F8F8"/>
<path d="M135.317 140.619C135.317 140.619 133.673 143.108 127.718 142.663C126.271 142.555 123.141 140.174 122.563 140.485C121.985 140.797 119.986 142.796 120.163 143.552C120.341 144.307 132.071 144.423 134.651 143.907C135.762 143.685 135.673 141.152 135.317 140.619" fill="#F8F8F8"/>
<path d="M143.137 131.424C143.137 131.424 143.584 135.381 142.689 137.557C141.794 139.734 137.544 142.108 140.9 143.295C144.255 144.482 150.743 143.69 152.533 142.503C154.323 141.316 152.533 133.798 152.086 132.809C151.638 131.82 143.137 131.424 143.137 131.424" fill="#F8F8F8"/>
<path d="M145.633 137.508C145.633 137.508 143.233 136.886 142.566 136.841C141.9 136.797 142.344 137.597 142.211 137.686C142.078 137.775 144.922 138.441 145.366 138.485C145.811 138.53 145.944 137.463 145.633 137.508" fill="#F8F8F8"/>
<path d="M146.377 135.7C146.377 135.7 143.978 135.078 143.311 135.033C142.645 134.989 143.089 135.789 142.956 135.878C142.823 135.966 145.666 136.633 146.111 136.677C146.555 136.722 146.688 135.655 146.377 135.7" fill="#F8F8F8"/>
<path d="M128.389 134.964C128.389 134.964 125.957 134.486 125.289 134.481C124.621 134.476 125.112 135.248 124.984 135.345C124.856 135.441 127.735 135.938 128.181 135.956C128.627 135.974 128.697 134.901 128.389 134.964Z" fill="#F8F8F8"/>
<path d="M144.574 139.337C144.574 139.337 142.259 138.45 141.601 138.331C140.944 138.212 141.296 139.057 141.154 139.13C141.011 139.204 143.763 140.185 144.199 140.279C144.636 140.373 144.888 139.328 144.574 139.337Z" fill="#F8F8F8"/>
<path d="M153.188 140.619C153.188 140.619 151.544 143.108 145.589 142.663C144.142 142.555 141.012 140.174 140.434 140.485C139.856 140.797 137.856 142.796 138.034 143.552C138.212 144.307 149.941 144.423 152.521 143.907C153.632 143.685 153.543 141.152 153.188 140.619" fill="#F8F8F8"/>
<path d="M108.663 67.246C108.663 67.246 111.167 75.3833 112.262 76.0092C113.357 76.6351 121.71 69.533 123.372 70.6886C125.035 71.8442 128.223 77.8869 127.441 80.3908C126.658 82.8943 113.983 86.9632 110.071 87.7452C106.159 88.5277 103.331 68.0587 103.406 67.5694C103.719 65.5352 108.663 67.246 108.663 67.246" fill="#F8F8F8"/>
<path d="M164.949 68.4122C164.949 68.4122 167.501 81.9556 163.902 84.7727C159.878 87.9213 147.784 80.2346 144.967 80.078C142.15 79.9214 146.845 70.5323 148.879 70.6889C150.914 70.8455 158.217 77.1805 158.738 75.6964C159.317 74.0443 159.737 69.2934 160.206 68.5109C160.676 67.7284 164.949 68.4122 164.949 68.4122" fill="#F8F8F8"/>
<path d="M140.295 99.8577C140.295 99.8577 142.794 128.43 143.683 128.95C144.572 129.471 148.727 129.514 150.412 128.471C152.098 127.428 150.979 98.9471 150.089 98.4268C149.2 97.906 140.295 99.8577 140.295 99.8577" fill="#F8F8F8"/>
<path d="M124.389 101.304C124.389 101.304 125.951 129.942 126.823 130.491C127.695 131.041 131.845 131.22 133.564 130.233C135.283 129.245 135.097 100.744 134.225 100.194C133.353 99.6444 124.389 101.304 124.389 101.304" fill="#F8F8F8"/>
<path d="M121.03 88.457C121.03 88.457 149.713 87.8362 151.001 87.8362C152.289 87.8362 155.04 109.319 153.429 110.61C151.819 111.901 140.548 111.256 139.582 111.578C138.616 111.901 137.477 100.313 137.155 99.3442C136.833 98.3758 137.972 110.933 137.006 111.578C136.04 112.224 123.159 112.547 121.871 111.901C120.582 111.256 121.03 88.457 121.03 88.457" fill="#F8F8F8"/>
<path d="M160.499 50.6996L161.068 71.4379C161.068 71.4379 160.408 71.7158 159.939 71.5247C159.47 71.3337 159.057 50.8839 159.057 50.8839L160.499 50.6996Z" fill="#F8F8F8"/>
<path d="M164.206 54.0155C164.206 54.0155 172.671 54.7128 173.288 55.8821C173.905 57.0517 174.177 61.7516 174.241 63.2697C174.306 64.7874 166.236 63.7922 165.492 63.6041C164.749 63.4156 163.62 53.7768 164.206 54.0155Z" fill="#F8F8F8"/>
<path d="M162.938 59.8094C162.938 59.8094 173.363 60.7314 173.871 60.8241C174.38 60.9169 173.689 54.8985 172.789 54.7606C171.888 54.6232 163.194 53.1442 162.914 53.8331C162.633 54.5219 162.938 59.8094 162.938 59.8094" fill="#F8F8F8"/>
<path d="M159.761 51.1709C159.761 51.1709 167.559 51.8262 168.692 52.4023C169.824 52.9788 169.682 60.0341 169.596 60.917C169.509 61.7994 160.14 61.3076 159.276 61.4144C158.412 61.5212 159.211 51.1769 159.761 51.1709Z" fill="#F8F8F8"/>
<path d="M159.082 56.8601C159.082 56.8601 169.506 57.7822 170.015 57.8749C170.524 57.9677 169.833 51.9497 168.932 51.8118C168.032 51.674 159.338 50.1954 159.057 50.8839C158.777 51.5727 159.082 56.8601 159.082 56.8601Z" fill="#F8F8F8"/>
<path d="M104.39 49.6704L108.967 69.9058C108.967 69.9058 108.374 70.3062 107.877 70.2096C107.379 70.1126 103.011 50.1308 103.011 50.1308L104.39 49.6704Z" fill="#F8F8F8"/>
<path d="M108.669 52.2056C108.669 52.2056 117.109 51.2491 117.941 52.2766C118.773 53.3046 119.95 57.8628 120.308 59.3392C120.665 60.816 112.555 61.4036 111.789 61.3628C111.023 61.3219 108.048 52.0848 108.669 52.2056" fill="#F8F8F8"/>
<path d="M108.548 58.1348C108.548 58.1348 118.953 57.0196 119.47 57.0119C119.987 57.0043 118.143 51.2339 117.233 51.2735C116.322 51.3131 107.507 51.5466 107.365 52.2768C107.223 53.0069 108.548 58.1348 108.548 58.1348Z" fill="#F8F8F8"/>
<path d="M103.756 50.276C103.756 50.276 111.534 49.4076 112.757 49.7535C113.979 50.0994 115.207 57.0488 115.294 57.9312C115.38 58.8141 106.093 60.1467 105.266 60.419C104.439 60.6909 103.219 50.3879 103.756 50.276" fill="#F8F8F8"/>
<path d="M104.193 55.9888C104.193 55.9888 114.599 54.8736 115.116 54.8659C115.633 54.8583 113.789 49.0879 112.879 49.1275C111.968 49.1671 103.153 49.4011 103.011 50.1308C102.869 50.8609 104.193 55.9888 104.193 55.9888" fill="#F8F8F8"/>
<path d="M141.641 61.409C141.641 61.409 141.295 66.6883 141.641 68.0078C141.987 69.3276 147.383 70.7785 149.112 72.8523C150.84 74.926 150.801 86.2966 150.455 87.6164C150.109 88.9358 125.222 87.9934 122.629 88.3704C120.036 88.7473 120.759 73.9645 121.278 72.2677C121.796 70.5704 133.113 68.7311 133.518 67.2538C133.922 65.7765 133.345 62.7288 133.345 62.7288L141.641 61.409Z" fill="#F8F8F8"/>
<path d="M142.386 37.2102C145.168 39.2742 144.892 40.9327 147.322 41.1591C151.181 41.5178 152.976 46.6333 151.181 48.8769C149.921 50.4516 151.091 50.9409 151.091 53.0049C151.091 55.3382 148.902 56.3023 148.992 57.7383C149.082 59.1743 146.425 62.5177 143.643 61.4408C140.412 60.1904 133.861 56.0564 130.54 56.0564C127.22 56.0564 123.63 51.8382 124.976 49.236C126.322 46.6333 126.682 47.1715 126.771 44.3C126.861 41.428 128.387 40.172 130.63 39.5435C132.874 38.9155 132.246 39.2742 134.22 37.5693C136.194 35.864 139.604 35.1462 142.386 37.2102" fill="#F8F8F8"/>
<path d="M129.619 47.6578C129.619 47.6578 127.068 56.8094 126.92 58.8113C126.771 60.8128 130.615 64.6953 132.835 65.4318C135.056 66.1687 140.141 64.9106 141.493 63.3933C142.845 61.8756 144.518 53.1733 144.887 51.9675C145.256 50.7617 141.094 45.393 137.853 45.2555C134.613 45.1181 129.782 47.1421 129.619 47.6578Z" fill="#F8F8F8"/>
<path d="M135.703 58.5615C135.663 58.5615 135.623 58.556 135.583 58.5441C135.445 58.5037 134.226 58.1437 133.906 57.9995C133.773 57.9399 133.676 57.828 133.632 57.6846C133.589 57.5408 133.473 57.1596 134.655 55.2713C134.78 55.0722 135.042 55.0117 135.241 55.1364C135.441 55.2611 135.501 55.5236 135.376 55.7227C135.03 56.2767 134.654 56.9609 134.514 57.32C134.866 57.44 135.448 57.6174 135.823 57.728C136.048 57.794 136.177 58.0305 136.111 58.256C136.056 58.4411 135.887 58.5615 135.703 58.5615Z" fill="#F8F8F8"/>
<path d="M137.395 60.1286C137.395 60.1286 133.704 58.9832 133.218 59.0917C132.733 59.2006 133.194 60.8826 134.617 61.6178C136.04 62.3535 137.953 60.4967 137.395 60.1286Z" fill="#F8F8F8"/>
<path d="M138.49 55.5011C138.348 56.078 138.602 56.6375 139.059 56.7507C139.517 56.8643 140.003 56.4891 140.147 55.9125C140.29 55.3356 140.035 54.7761 139.578 54.6625C139.121 54.5493 138.634 54.9246 138.49 55.5011Z" fill="#F8F8F8"/>
<path d="M132.323 53.8756C132.18 54.4521 132.434 55.0116 132.891 55.1252C133.349 55.2389 133.836 54.8632 133.979 54.2866C134.122 53.7101 133.867 53.1506 133.41 53.037C132.953 52.9234 132.466 53.2987 132.323 53.8756Z" fill="#F8F8F8"/>
<path d="M142.809 58.1611C142.809 58.1611 143.417 56.0183 145.695 57.1573C147.974 58.2964 147.429 60.6459 144.542 61.8019C141.656 62.9583 141.849 60.331 142.809 58.1611" fill="#F8F8F8"/>
<path d="M143.667 60.978C143.466 60.978 143.287 60.8351 143.249 60.6304C143.144 60.0641 143.251 58.8404 144.41 58.263C144.988 57.975 145.475 57.9154 145.858 58.0873C146.168 58.2269 146.337 58.4954 146.388 58.6834C146.449 58.9102 146.315 59.1438 146.088 59.2051C145.866 59.2646 145.639 59.1387 145.571 58.9217C145.565 58.9093 145.547 58.8774 145.5 58.8596C145.448 58.8404 145.249 58.7957 144.79 59.0247C143.909 59.4633 144.084 60.4649 144.086 60.4751C144.129 60.7061 143.976 60.9282 143.745 60.9712C143.719 60.9763 143.693 60.978 143.667 60.978" fill="#F8F8F8"/>
<path d="M129.078 54.0635C129.078 54.0635 129.542 51.8855 126.996 51.8263C124.449 51.7676 123.832 54.0988 125.842 56.4709C127.853 58.8433 128.911 56.43 129.078 54.0635Z" fill="#F8F8F8"/>
<path d="M127.199 56.2017C127.107 56.2017 127.014 56.1719 126.936 56.1098C126.751 55.9634 126.72 55.6958 126.866 55.512C126.89 55.4805 127.488 54.6891 126.923 53.9011C126.623 53.4837 126.426 53.4297 126.372 53.4229C126.318 53.4173 126.286 53.439 126.278 53.4458C126.118 53.6181 125.856 53.6207 125.683 53.4599C125.512 53.2999 125.509 53.0233 125.669 52.8514C125.803 52.7093 126.079 52.5536 126.417 52.5727C126.834 52.5995 127.238 52.8795 127.614 53.405C128.368 54.4568 127.891 55.5885 127.534 56.0404C127.45 56.1463 127.325 56.2017 127.199 56.2017" fill="#F8F8F8"/>
<path d="M138.294 58.6752C138.043 59.6857 138.659 60.7086 139.67 60.9596C140.68 61.2106 141.703 60.5945 141.954 59.584C142.205 58.5731 141.589 57.5502 140.578 57.2992C139.568 57.0486 138.545 57.6643 138.294 58.6752" fill="#F8F8F8"/>
<path d="M129.156 56.6415C128.906 57.652 129.522 58.6749 130.532 58.9259C131.543 59.1769 132.566 58.5608 132.817 57.5503C133.067 56.5394 132.452 55.517 131.441 55.2659C130.43 55.0149 129.408 55.631 129.156 56.6415Z" fill="#F8F8F8"/>
<path d="M140.675 54.251C140.537 54.251 140.401 54.1833 140.319 54.0591C140.293 54.0195 139.679 53.1094 138.908 53.4928C138.697 53.597 138.442 53.5102 138.338 53.3C138.233 53.089 138.32 52.8341 138.531 52.7299C139.694 52.1563 140.675 53.0439 141.032 53.5936C141.16 53.7906 141.104 54.054 140.907 54.1825C140.835 54.2289 140.755 54.251 140.675 54.251" fill="#F8F8F8"/>
<path d="M134.347 52.1699C134.216 52.1699 134.086 52.1095 134.003 51.9951C133.976 51.9576 133.315 51.0786 132.565 51.4985C132.359 51.6125 132.1 51.5389 131.986 51.3334C131.872 51.1284 131.946 50.8692 132.152 50.7548C133.283 50.1242 134.308 50.9633 134.692 51.4955C134.829 51.6861 134.787 51.9521 134.596 52.0895C134.521 52.144 134.434 52.1699 134.347 52.1699" fill="#F8F8F8"/>
<path d="M127.04 50.8511C127.04 50.8511 127.13 52.736 128.566 52.1076C130.002 51.4796 128.925 49.5049 130.989 48.7871C133.053 48.0693 133.316 48.6297 134.669 47.5307C136.104 46.364 136.553 44.6591 138.797 45.1974C141.04 45.736 139.076 40.3243 132.066 43.2231C125.325 46.01 127.462 48.031 127.04 50.8511Z" fill="#F8F8F8"/>
<path d="M144.024 57.0831C144.024 57.0831 143.313 57.2469 143.368 54.5166C143.41 52.4394 145.006 51.0766 142.768 49.5478C141.113 48.4182 138.946 46.381 139.382 45.0156C139.819 43.6507 142.713 44.3604 145.061 46.9813C147.409 49.6023 147.736 55.2267 144.024 57.0831" fill="#F8F8F8"/>
<path d="M121.055 93.752C121.055 93.752 152.288 93.5056 152.288 91.7513C152.288 89.9971 151.217 71.5657 149.697 70.6305C148.176 69.6949 142.095 69.2269 141.393 69.5779C140.691 69.9285 136.247 74.7237 134.61 73.437C132.973 72.1508 132.154 69.2269 131.569 69.1099C130.985 68.9929 122.915 69.6949 120.927 71.0981C118.939 72.5014 120.002 93.752 121.055 93.752" fill="#F8F8F8"/>
<path d="M132.973 67.3554C132.973 67.3554 134.142 72.3842 135.078 72.0336C136.014 71.6826 141.042 67.2384 141.627 67.5894C142.212 67.9405 144.317 70.2793 144.317 71.098C144.317 71.9166 138.704 78.9336 137.534 77.881C136.364 76.8283 134.142 73.7878 134.142 73.7878C134.142 73.7878 131.219 77.2963 130.517 76.3607C129.815 75.4251 128.763 69.9283 128.763 69.2267C128.763 68.5251 132.973 67.3554 132.973 67.3554" fill="#F8F8F8"/>
<path d="M151.518 125.554C151.518 125.554 142.038 125.377 141.591 126.688C141.143 128 142.035 130.655 142.258 132.622C142.482 134.589 150.759 133.278 152.102 133.278C153.444 133.278 152.19 125.554 151.518 125.554Z" fill="#F8F8F8"/>
<path d="M134.478 126.712C134.478 126.712 125.536 125.684 124.839 127.145C124.142 128.607 124.673 130.383 124.516 132.58C124.36 134.776 132.835 133.353 134.168 133.359C135.502 133.366 135.144 126.716 134.478 126.712" fill="#F8F8F8"/>
<path d="M135.004 73.4631C135.004 73.4631 136.389 75.1769 136.493 76.3572C136.55 77.0035 135.576 77.483 135.37 78.0697C135.164 78.6565 137.528 85.4276 137.187 87.1529C136.846 88.8778 134.919 93.3743 133.964 93.2151C133.01 93.056 131.138 89.7445 130.56 88.1366C129.982 86.5283 133.049 78.6633 132.943 77.8357C132.838 77.0086 131.962 76.5572 132.286 75.9104C132.841 74.7999 135.118 72.8883 135.004 73.4631" fill="#F8F8F8"/>
<path d="M162.463 65.6138C162.463 65.6138 158.756 65.7125 158.033 66.4358C157.44 67.0289 157.11 69.375 158.557 70.9663C160.003 72.5576 163.186 71.8343 164.343 70.9663C165.5 70.0984 165.5 66.0478 162.463 65.6138Z" fill="#F8F8F8"/>
<path d="M106.107 70.8672C106.107 70.8672 111.144 70.1932 110.952 69.1887C110.759 68.1841 111.275 66.8558 109.755 65.3351C108.234 63.8144 105.089 64.688 103.975 65.61C102.86 66.532 103.052 70.5779 106.107 70.8672Z" fill="#F8F8F8"/>
<path d="M115.705 73.1925C115.705 73.1925 116.956 84.4592 117.895 85.3983C118.834 86.3369 123.372 83.9899 125.563 83.8334C127.754 83.6768 127.597 70.532 126.502 69.9061C125.406 69.2803 117.426 70.8452 115.705 73.1925Z" fill="#F8F8F8"/>
<path d="M148.409 81.4863C148.409 81.4863 152.634 85.0855 153.573 84.7727C154.512 84.4596 157.955 75.2271 157.173 74.1315C156.39 73.0363 150.757 70.0631 147.47 69.9065C144.184 69.7499 145.749 80.8604 148.409 81.4863" fill="#F8F8F8"/>
<path d="M107.426 71.1968C107.219 71.1968 107.037 71.0445 107.006 70.833C106.972 70.6007 107.133 70.3845 107.366 70.3505C108.054 70.2492 109.165 69.9748 109.482 69.6787C109.655 69.5183 109.923 69.5276 110.083 69.6991C110.244 69.8714 110.235 70.1407 110.063 70.3011C109.439 70.8832 107.809 71.1457 107.488 71.1921C107.468 71.1955 107.447 71.1968 107.426 71.1968" fill="#F8F8F8"/>
<path d="M161.429 72.4185C160.605 72.4185 159.76 72.241 159.52 72.1866C159.291 72.1342 159.147 71.9066 159.199 71.6773C159.251 71.4484 159.477 71.3058 159.708 71.3565C160.54 71.5458 161.911 71.6866 162.352 71.4109C162.552 71.2854 162.814 71.3475 162.939 71.5458C163.063 71.7453 163.003 72.0079 162.804 72.1321C162.458 72.3483 161.948 72.4185 161.429 72.4185Z" fill="#F8F8F8"/>
<path d="M135.628 66.5815C134.415 66.5815 133.537 66.2701 133.467 66.2437C133.247 66.1633 133.133 65.9186 133.214 65.6978C133.295 65.4778 133.54 65.3659 133.76 65.4447C133.89 65.4919 136.763 66.493 139.19 64.455C139.371 64.304 139.639 64.3278 139.79 64.5069C139.941 64.6869 139.917 64.9554 139.738 65.1068C138.341 66.2795 136.821 66.5815 135.628 66.5815" fill="#F8F8F8"/>
<path d="M146.677 78.4604C146.677 78.4604 139.625 76.7138 139.211 77.3703C138.796 78.0268 138.156 82.6743 138.499 83.7614C138.841 84.8485 140.581 86.8819 141.806 86.9747C143.03 87.067 145.349 85.4757 145.679 84.7026C146.009 83.9291 147.265 78.6574 146.677 78.4604" fill="#F8F8F8"/>
<path d="M12.1548 62.6994C12.1548 62.6994 20.3235 57.0903 21.3119 57.3184C22.3005 57.5465 25.0723 63.8414 25.3004 65.0894C25.5286 66.3373 17.7736 70.5249 16.8072 70.7155C15.8407 70.9061 12.1548 62.6994 12.1548 62.6994" fill="#F8F8F8"/>
<path d="M62.3689 131.424C62.3689 131.424 61.9213 135.381 62.8161 137.557C63.7113 139.734 67.9618 142.108 64.6061 143.295C61.2503 144.482 54.7622 143.69 52.9726 142.503C51.183 141.316 52.9726 133.798 53.4202 132.809C53.8674 131.82 62.3689 131.424 62.3689 131.424" fill="#F8F8F8"/>
<path d="M59.2057 135.375C59.2057 135.375 61.6054 134.753 62.2717 134.709C62.9384 134.664 62.4942 135.464 62.6274 135.553C62.7606 135.642 59.9167 136.308 59.472 136.353C59.0278 136.397 58.8947 135.331 59.2057 135.375" fill="#F8F8F8"/>
<path d="M59.8721 137.508C59.8721 137.508 62.2718 136.886 62.9385 136.841C63.6052 136.797 63.1606 137.597 63.2942 137.686C63.4274 137.775 60.583 138.441 60.1388 138.485C59.6946 138.53 59.561 137.463 59.8721 137.508" fill="#F8F8F8"/>
<path d="M60.9317 139.337C60.9317 139.337 63.2468 138.45 63.9041 138.331C64.5615 138.212 64.2096 139.057 64.3522 139.13C64.4943 139.204 61.7431 140.185 61.3066 140.279C60.8696 140.373 60.6177 139.328 60.9317 139.337Z" fill="#F8F8F8"/>
<path d="M52.3177 140.619C52.3177 140.619 53.9618 143.108 59.9168 142.663C61.3634 142.555 64.4941 140.174 65.0715 140.485C65.6493 140.797 67.649 142.796 67.4712 143.552C67.2933 144.307 55.5646 144.423 52.984 143.907C51.8731 143.685 51.962 141.152 52.3177 140.619" fill="#F8F8F8"/>
<path d="M32.4561 93.7137C32.4561 93.7137 33.3121 130.105 34.1733 130.763C35.0345 131.421 39.8454 132.052 41.5911 130.795C43.3368 129.537 43.8087 94.3903 42.9475 93.7325C42.0864 93.0751 32.4561 93.7137 32.4561 93.7137Z" fill="#F8F8F8"/>
<path d="M49.1782 95.1558C49.1782 95.1558 53.473 130.188 54.3933 130.76C55.3136 131.332 59.4625 131.057 61.0789 129.637C62.6953 128.217 59.7833 93.188 58.863 92.6161C57.9422 92.0447 49.1782 95.1558 49.1782 95.1558" fill="#F8F8F8"/>
<path d="M1.19534 33.1987L8.99243 51.1191C8.99243 51.1191 8.51342 51.5939 8.03642 51.5918C7.55941 51.5901 0 33.8676 0 33.8676L1.19534 33.1987" fill="#F8F8F8"/>
<path d="M46.3723 20.5138C46.3723 20.5138 49.1967 30.47 49.3686 32.6498C49.5405 34.8291 45.3737 39.0775 42.9583 39.891C40.5428 40.7045 34.9976 39.36 33.5173 37.7138C32.0367 36.0676 30.1705 26.5965 29.7625 25.2851C29.3544 23.9734 34.5325 20.116 38.0614 19.9501C41.5908 19.7841 46.1924 19.953 46.3723 20.5138" fill="#F8F8F8"/>
<path d="M39.4612 32.2173C39.2485 32.2173 39.0651 32.0582 39.0391 31.842C39.0115 31.6088 39.1783 31.397 39.4114 31.3693C40.1632 31.28 41.0261 31.1578 41.5052 31.0681C41.2478 30.6362 40.6645 29.8559 40.1352 29.216C39.9858 29.0347 40.0109 28.7662 40.1922 28.6164C40.3734 28.4675 40.6415 28.4922 40.7913 28.6735C42.6004 30.8621 42.5127 31.2429 42.4706 31.4259C42.4357 31.5774 42.3357 31.7003 42.1966 31.7637C41.8447 31.9237 40.202 32.1322 39.5123 32.2143C39.4952 32.216 39.4778 32.2173 39.4612 32.2173" fill="#F8F8F8"/>
<path d="M38.6502 34.0194C38.6502 34.0194 42.6651 32.7532 43.1944 32.8689C43.7241 32.9851 43.2297 34.8193 41.6835 35.6277C40.1373 36.4362 38.0439 34.4232 38.6502 34.0194Z" fill="#F8F8F8"/>
<path d="M37.2279 29.0133C37.3866 29.6409 37.1122 30.2514 36.6144 30.3774C36.117 30.5037 35.5847 30.097 35.426 29.4698C35.2669 28.8422 35.5418 28.2313 36.0391 28.1053C36.5369 27.9794 37.0692 28.3861 37.2279 29.0133Z" fill="#F8F8F8"/>
<path d="M43.4591 27.2996C43.6178 27.9272 43.3434 28.5382 42.8456 28.6641C42.3482 28.7901 41.8159 28.3833 41.6568 27.7562C41.4981 27.1286 41.7729 26.518 42.2703 26.3921C42.7681 26.2657 43.3 26.6725 43.4591 27.2996Z" fill="#F8F8F8"/>
<path d="M32.0581 32.0205C32.0581 32.0205 31.385 29.6901 28.9087 30.9423C26.4328 32.1941 27.0383 34.7504 30.1885 35.9957C33.3383 37.2407 33.1141 34.3793 32.0581 32.0205Z" fill="#F8F8F8"/>
<path d="M31.1356 35.0557C31.1105 35.0557 31.085 35.0535 31.0595 35.0489C30.828 35.0072 30.6748 34.7859 30.7165 34.5544C30.7238 34.5106 30.8961 33.4171 29.9213 32.9372C29.4171 32.6891 29.1891 32.7304 29.115 32.7606C29.0435 32.7887 29.0206 32.8419 29.0167 32.8525C28.9563 33.0797 28.7261 33.2074 28.4989 33.1461C28.2717 33.0861 28.139 32.8449 28.199 32.6177C28.2513 32.4207 28.4275 32.1381 28.7521 31.9905C29.1567 31.8067 29.6767 31.868 30.2974 32.1739C31.5424 32.787 31.6637 34.0983 31.5535 34.7059C31.5169 34.9114 31.3373 35.0557 31.1356 35.0557Z" fill="#F8F8F8"/>
<path d="M31.0397 22.5658C31.0397 22.5658 32.9025 22.6777 31.8107 24.6217C30.7185 26.5653 30.0752 27.6456 31.2184 29.8568C32.3621 32.0684 32.1587 32.9122 29.9986 31.6247C27.8384 30.3376 27.9197 28.0242 27.1275 25.2237C26.3348 22.4228 29.7416 21.06 31.0397 22.5658" fill="#F8F8F8"/>
<path d="M46.9946 27.4884C46.9946 27.4884 46.4781 25.118 49.2513 25.041C52.025 24.9644 52.7088 27.5007 50.5308 30.0949C48.3531 32.6886 47.1886 30.0655 46.9946 27.4884Z" fill="#F8F8F8"/>
<path d="M49.0473 29.7695C48.9231 29.7695 48.8001 29.7151 48.7163 29.6104C48.3304 29.1279 47.813 27.917 48.6163 26.7856C49.0167 26.221 49.4447 25.9194 49.888 25.8892C50.245 25.8641 50.5331 26.0291 50.6726 26.1772C50.8339 26.3483 50.8254 26.6176 50.6548 26.7784C50.4871 26.9367 50.2259 26.9324 50.0638 26.7712C50.0519 26.7618 50.008 26.7312 49.9357 26.7388C49.8557 26.7486 49.6353 26.8201 49.3098 27.2783C48.6814 28.1638 49.3532 29.0437 49.3821 29.0807C49.5264 29.2653 49.4949 29.5321 49.3115 29.6772C49.2332 29.7393 49.1396 29.7695 49.0473 29.7695Z" fill="#F8F8F8"/>
<path d="M43.3912 18.6884C43.3912 18.6884 41.8063 19.673 43.6916 20.863C45.5769 22.0531 46.6568 22.6968 46.7036 25.1863C46.7504 27.6754 47.3303 28.3208 48.6178 26.1607C49.9049 24.0005 48.7327 22.0046 48.097 19.1641C47.4614 16.324 43.8163 16.7465 43.3912 18.6884" fill="#F8F8F8"/>
<path d="M27.6289 22.3601C27.6289 22.3601 26.217 21.7057 28.3965 17.8428C30.5758 13.9798 33.3933 14.2781 35.3391 12.7736C37.2848 11.2691 39.6487 8.4635 40.1521 10.4513C40.6554 12.4396 40.6554 12.4396 40.6554 12.4396C40.6554 12.4396 42.2603 9.91779 43.4257 10.9104C44.5907 11.9031 44.6724 13.5382 44.6724 13.5382C44.6724 13.5382 45.4621 11.4065 46.2905 13.0366C47.1185 14.6661 46.3569 17.8947 44.9894 19.7123C43.6214 21.5304 33.3882 20.1659 32.1616 22.8681C30.9345 25.5703 27.6289 22.3601 27.6289 22.3601" fill="#F8F8F8"/>
<path d="M37.5511 32.6696C37.8294 33.769 37.1639 34.8863 36.0641 35.1646C34.9642 35.4433 33.8473 34.7774 33.5686 33.6776C33.2904 32.5781 33.9562 31.4608 35.0557 31.1825C36.1555 30.9039 37.2728 31.5697 37.5511 32.6696Z" fill="#F8F8F8"/>
<path d="M46.9213 30.2973C47.1995 31.3971 46.5336 32.514 45.4342 32.7927C44.3343 33.071 43.217 32.4051 42.9388 31.3057C42.6605 30.2058 43.3259 29.0885 44.4258 28.8102C45.5257 28.532 46.6426 29.1974 46.9213 30.2973Z" fill="#F8F8F8"/>
<path d="M34.3598 27.7124C34.2806 27.7124 34.2011 27.6907 34.1296 27.6448C33.9322 27.5175 33.8752 27.2546 34.0024 27.0567C34.3823 26.4662 35.4294 25.5093 36.674 26.1169C36.885 26.2198 36.9727 26.4747 36.8697 26.6862C36.7663 26.8968 36.5119 26.9848 36.3004 26.8814C35.4188 26.4513 34.7457 27.4733 34.7176 27.5175C34.6368 27.6439 34.4993 27.7124 34.3598 27.7124" fill="#F8F8F8"/>
<path d="M41.2431 25.4141C41.1576 25.4141 41.0712 25.3885 40.9959 25.3349C40.8048 25.1984 40.7606 24.9324 40.8972 24.7414C41.3061 24.17 42.3991 23.2667 43.6117 23.933C43.8177 24.0466 43.8926 24.3053 43.779 24.5112C43.6658 24.7167 43.4075 24.7929 43.2012 24.6784C42.3413 24.2057 41.6201 25.1941 41.5894 25.2362C41.5065 25.3524 41.3758 25.4141 41.2431 25.4141Z" fill="#F8F8F8"/>
<path d="M44.991 35.9155C44.991 35.9155 45.6083 43.3793 46.9265 43.7098C48.2442 44.0404 57.4524 45.4633 58.1115 46.7856C58.7701 48.108 60.8273 74.5065 59.5096 75.1677C58.1915 75.8289 30.9574 75.3962 29.3099 75.7268C27.6625 76.0578 26.8698 54.0992 25.8812 51.785C24.8928 49.4708 37.0894 45.4007 37.4191 44.4089C37.7484 43.4171 36.7541 38.5603 36.7541 38.5603L44.991 35.9155" fill="#F8F8F8"/>
<path d="M35.322 45.8073C35.322 45.8073 42.0297 50.1659 43.8907 49.6344C45.7518 49.1026 47.081 44.45 48.5433 44.1841C50.0057 43.9181 58.8621 44.427 59.8177 45.8341C60.7733 47.2416 60.1087 74.3599 60.3746 75.0249C60.6406 75.6895 30.0656 75.4236 28.2046 75.6895C26.3435 75.9555 25.1694 53.6148 26.0941 50.8403C26.5137 49.5821 32.9291 45.8073 35.322 45.8073" fill="#F8F8F8"/>
<path d="M35.9148 44.1841C35.9148 44.1841 42.9603 49.1027 43.7581 48.5708C44.5554 48.039 45.885 41.2594 46.6824 41.5253C47.4802 41.7912 51.7341 43.2536 51.7341 44.1841C51.7341 45.1146 48.9425 52.692 47.8788 52.5588C46.8156 52.4261 44.0236 50.1659 44.0236 50.1659C44.0236 50.1659 42.2957 53.7553 41.4979 54.154C40.7006 54.5531 31.5281 49.1027 32.3254 48.039C33.1232 46.9757 35.2502 43.785 35.9148 44.1841" fill="#F8F8F8"/>
<path d="M27.6987 76.0983C27.6987 76.0983 58.9919 75.0248 60.3747 75.0248C61.7575 75.0248 64.7099 98.0279 62.9816 99.4103C61.2533 100.793 49.1548 100.102 48.1179 100.448C47.081 100.793 45.9518 86.6765 45.6063 85.6392C45.2604 84.6023 46.3896 99.7562 45.3527 100.448C44.3158 101.139 30.489 101.484 29.1062 100.793C27.7238 100.102 27.6987 76.0983 27.6987 76.0983" fill="#F8F8F8"/>
<path d="M5.60104 34.7914C5.60104 34.7914 13.2429 32.4211 14.1937 33.2257C15.1444 34.0302 17.036 38.0412 17.6268 39.3445C18.2178 40.6482 10.816 42.6194 10.1 42.7164C9.38414 42.8134 5.00468 34.7889 5.60104 34.7914Z" fill="#F8F8F8"/>
<path d="M6.53246 40.2998C6.53246 40.2998 15.9652 37.4363 16.4426 37.338C16.9202 37.2402 14.1979 32.2246 13.3623 32.4216C12.5266 32.6182 4.41008 34.3865 4.40723 35.0868C4.40442 35.7876 6.53246 40.2998 6.53246 40.2998" fill="#F8F8F8"/>
<path d="M0.71526 33.871C0.71526 33.871 7.76027 31.698 8.95225 31.8031C10.1444 31.9082 12.5039 38.1228 12.7392 38.9244C12.9744 39.726 4.61469 42.5942 3.89772 42.9916C3.18053 43.3889 0.237404 34.0692 0.71526 33.871" fill="#F8F8F8"/>
<path d="M2.22645 39.6182C2.22645 39.6182 11.5579 36.2173 12.0354 36.119C12.5128 36.0212 9.79071 31.0056 8.95503 31.2026C8.11934 31.3992 0.00285336 33.1675 2.65083e-06 33.8678C-0.00280551 34.5686 2.22645 39.6182 2.22645 39.6182" fill="#F8F8F8"/>
<path d="M2.75359 46.7167C2.75359 46.7167 7.07621 43.0227 7.86781 44.6165C8.65963 46.2099 11.632 49.2883 10.6108 50.7983C9.58969 52.3083 6.62295 52.864 5.20989 53.4907C3.79687 54.1179 0.609091 50.078 2.75359 46.7167Z" fill="#F8F8F8"/>
<path d="M42.1519 131.424C42.1519 131.424 41.7047 135.381 42.5995 137.557C43.4943 139.734 47.7452 142.108 44.389 143.295C41.0333 144.482 34.5456 143.69 32.756 142.503C30.966 141.316 32.756 133.798 33.2032 132.809C33.6508 131.82 42.1519 131.424 42.1519 131.424" fill="#F8F8F8"/>
<path d="M32.701 114.447C32.701 114.447 42.6066 114.412 43.3018 114.968C45.1526 116.449 42.6023 126.048 43.0235 131.925C43.1392 133.54 34.5454 132.809 33.203 132.809C31.8611 132.809 32.03 114.447 32.701 114.447" fill="#F8F8F8"/>
<path d="M51.5938 115.306C51.5938 115.306 61.9499 114.296 62.0214 115.183C62.3222 118.909 63.3396 127.738 62.5784 131.544C62.2252 133.31 54.7491 132.622 53.4199 132.809C52.0907 132.996 50.9292 115.399 51.5938 115.306" fill="#F8F8F8"/>
<path d="M30.6118 48.0454C30.6118 48.0454 14.5907 55.7623 14.9039 57.5591C15.2174 59.3559 19.0256 64.8552 20.8655 67.911C22.7052 70.9664 32.2189 63.9596 34.0157 63.646C35.8125 63.3329 30.6118 48.0454 30.6118 48.0454Z" fill="#F8F8F8"/>
<path d="M7.05603 48.6601C7.05603 48.6601 21.5645 67.5411 19.3914 69.5226C17.0538 71.6547 13.3711 72.6048 12.1335 72.1278C9.70532 71.1922 2.67376 53.3884 2.21735 50.3969C1.76098 47.4049 7.05603 48.6601 7.05603 48.6601" fill="#F8F8F8"/>
<path d="M53.3281 43.7902C53.3281 43.7902 65.7215 35.1853 65.7177 33.9821C65.7134 32.7784 60.1962 16.3528 61.2365 16.1213C62.2764 15.8903 65.002 13.9297 66.6001 15.1925C68.1978 16.4557 76.6185 34.5535 75.268 39.1444C74.4549 41.9079 57.5621 53.4712 56.9417 51.7922C55.293 47.3302 53.3281 43.7902 53.3281 43.7902" fill="#F8F8F8"/>
<path d="M61.5133 19.4081C61.5133 19.4081 59.6148 18.9273 58.897 17.2853C58.1792 15.6434 56.6458 13.7747 57.721 12.7136C58.7966 11.6524 65.1473 8.42643 66.0812 9.6633C67.0147 10.8997 68.1899 14.7112 67.9529 15.9378C67.7155 17.1645 65.7238 17.8938 65.5362 18.7928C65.3485 19.6923 61.5133 19.4081 61.5133 19.4081Z" fill="#F8F8F8"/>
<path d="M58.4657 13.3287C58.4657 13.3287 62.5265 12.0365 62.9822 12.6853C63.4383 13.3342 63.7893 14.8434 62.6078 15.2442C61.4262 15.6454 60.1949 16.3734 59.1239 16.4691C58.053 16.5644 57.7505 13.9677 58.4657 13.3287" fill="#F8F8F8"/>
<path d="M62.038 16.8008C62.0018 16.8008 61.9648 16.7982 61.9274 16.7936C60.839 16.6548 58.9413 14.0943 58.6984 12.9617C58.6495 12.7319 58.7958 12.506 59.0256 12.4566C59.257 12.4073 59.4817 12.5541 59.5306 12.7834C59.7408 13.7646 61.4074 15.7805 61.9776 15.94C62.1643 15.3716 61.5742 13.6182 60.8922 12.2562C60.7939 12.0592 60.8615 11.8201 61.0483 11.704C61.2351 11.5878 61.4793 11.6333 61.6121 11.8091C62.6681 13.2072 63.8288 14.4479 64.3317 14.7368C64.2586 14.2458 63.5403 12.8477 62.6473 11.5499C62.5162 11.3598 62.5613 11.0994 62.749 10.9641C62.9357 10.8288 63.1978 10.8675 63.3374 11.0526C64.2173 12.2162 65.3333 13.4969 65.8915 13.9296C65.8162 13.2778 65.3435 11.8312 64.8457 10.625C64.7559 10.4075 64.8593 10.159 65.0768 10.0693C65.2933 9.97907 65.5427 10.0833 65.6324 10.3003C67.2744 14.2815 66.6655 14.6802 66.4366 14.83C66.2736 14.9363 65.9758 15.1312 65.081 14.3487C65.1955 14.8159 65.1776 15.2018 64.9585 15.441C64.827 15.5839 64.6449 15.6579 64.4385 15.6477C63.9786 15.626 63.2995 15.0546 62.64 14.3632C62.8553 15.1359 62.954 15.9017 62.7179 16.3727C62.5805 16.6463 62.3316 16.8008 62.038 16.8008" fill="#F8F8F8"/>
<path d="M60.2612 16.1904C60.2612 16.1904 63.6442 14.1 64.1446 14.6264C64.6445 15.1531 62.638 17.2588 62.638 17.2588" fill="#F8F8F8"/>
<path d="M62.6381 17.6841C62.5326 17.6841 62.427 17.6449 62.3445 17.5666C62.1743 17.4045 62.1679 17.1352 62.3296 16.965C63.0359 16.2238 63.6669 15.3465 63.7813 14.9687C63.2686 15.0329 61.8535 15.7069 60.4852 16.5519C60.2852 16.6753 60.0231 16.6136 59.8997 16.4136C59.7759 16.2136 59.838 15.9515 60.0375 15.8281C63.7154 13.5561 64.2706 14.1415 64.4532 14.3334C65.0965 15.0112 63.9885 16.4579 62.9461 17.5522C62.8623 17.6398 62.75 17.6841 62.6381 17.6841" fill="#F8F8F8"/>
<path d="M47.897 43.9734C47.897 43.9734 58.9608 36.2795 60.1393 37.3406C61.3179 38.4014 69.3633 47.4194 68.2413 48.2865C67.1189 49.1537 59.1007 55.7099 58.2183 55.4959C57.3359 55.2814 46.8359 45.152 47.897 43.9734" fill="#F8F8F8"/>
<path d="M44.3114 50.9232C44.3114 50.9232 42.9243 53.9288 42.9243 54.7376C42.9243 55.5469 44.7734 55.4311 45.1202 56.1247C45.467 56.8182 43.8727 66.1945 44.5662 68.2751C45.2598 70.3557 47.5476 75.5436 48.7036 75.1968C49.8592 74.85 50.4536 69.8409 50.9157 67.7603C51.3782 65.6797 47.5476 57.0497 47.5476 56.0094C47.5476 54.9691 48.5564 53.154 47.8786 52.5587C47.2008 51.9635 44.0799 50.2297 44.3114 50.9232Z" fill="#F8F8F8"/>
<path d="M38.9888 135.375C38.9888 135.375 41.3885 134.753 42.0552 134.709C42.7219 134.664 42.2773 135.464 42.4109 135.553C42.5441 135.642 39.6997 136.308 39.2555 136.353C38.8113 136.397 38.6777 135.331 38.9888 135.375" fill="#F8F8F8"/>
<path d="M39.6554 137.508C39.6554 137.508 42.0551 136.886 42.7218 136.841C43.3881 136.797 42.9439 137.597 43.0771 137.686C43.2107 137.775 40.3663 138.441 39.9221 138.485C39.4775 138.53 39.3443 137.463 39.6554 137.508" fill="#F8F8F8"/>
<path d="M40.7149 139.337C40.7149 139.337 43.03 138.45 43.6873 138.331C44.3447 138.212 43.9928 139.057 44.1349 139.13C44.2775 139.204 41.5259 140.185 41.0894 140.279C40.6528 140.373 40.4009 139.328 40.7149 139.337Z" fill="#F8F8F8"/>
<path d="M32.1009 140.619C32.1009 140.619 33.745 143.108 39.6996 142.663C41.1466 142.555 44.2769 140.174 44.8547 140.485C45.4325 140.797 47.4322 142.796 47.2544 143.552C47.0765 144.307 35.3474 144.423 32.7672 143.907C31.6563 143.685 31.7452 141.152 32.1009 140.619" fill="#F8F8F8"/>
<path d="M42.0104 40.9258C40.6569 40.9258 38.7601 40.4688 38.6661 40.4458C38.4381 40.3905 38.2981 40.1603 38.3534 39.9319C38.4091 39.7038 38.6389 39.563 38.8674 39.6191C39.5737 39.7906 41.6066 40.1999 42.5222 40.0391C43.3851 39.8868 44.2701 39.0184 44.5386 38.6963C44.6888 38.5159 44.9568 38.4916 45.1377 38.6418C45.3181 38.7924 45.3423 39.0605 45.1921 39.2413C45.1445 39.2979 44.0131 40.6399 42.6699 40.8769C42.4763 40.9109 42.252 40.9258 42.0104 40.9258" fill="#F8F8F8"/>
<path d="M7.0202 53.7969C6.82759 53.7969 6.65306 53.6654 6.60672 53.4693C6.55269 53.2408 6.69412 53.0114 6.92281 52.9574C6.93728 52.954 8.37974 52.6034 9.12084 51.778C9.27724 51.6031 9.54649 51.5878 9.7217 51.7456C9.89653 51.9026 9.91117 52.1715 9.75391 52.3464C8.83283 53.3731 7.18759 53.7692 7.11794 53.7858C7.08522 53.793 7.05263 53.7969 7.0202 53.7969" fill="#F8F8F8"/>
<path d="M57.6624 55.0599C57.6624 55.0599 51.1321 54.7676 50.896 55.5199C50.6602 56.2717 51.0053 61.1145 51.518 62.1442C52.0307 63.1743 53.9547 64.8698 55.0474 64.7068C56.14 64.5443 57.8653 62.4463 58.0044 61.5936C58.1431 60.7409 58.2172 55.1365 57.6624 55.0599Z" fill="#F8F8F8"/>
</svg>
