<svg width="19" height="18" viewBox="0 0 19 18" fill="none" xmlns="http://www.w3.org/2000/svg">
<path d="M15.2469 7.31784C15.3136 7.31554 15.3801 7.32669 15.4424 7.35063C15.5047 7.37457 15.5616 7.41081 15.6096 7.45718C15.6576 7.50356 15.6957 7.55912 15.7218 7.62056C15.7479 7.682 15.7613 7.74806 15.7613 7.81481C15.7613 7.88155 15.7479 7.94761 15.7218 8.00905C15.6957 8.0705 15.6576 8.12606 15.6096 8.17243C15.5616 8.21881 15.5047 8.25505 15.4424 8.27899C15.3801 8.30293 15.3136 8.31408 15.2469 8.31178H13.8656V9.19764H15.2469C15.314 9.19437 15.3811 9.20475 15.4441 9.22818C15.507 9.2516 15.5646 9.28757 15.6132 9.3339C15.6619 9.38023 15.7006 9.43596 15.7271 9.49772C15.7536 9.55947 15.7672 9.62595 15.7672 9.69314C15.7672 9.76032 15.7536 9.82681 15.7271 9.88856C15.7006 9.95031 15.6619 10.006 15.6132 10.0524C15.5646 10.0987 15.507 10.1347 15.4441 10.1581C15.3811 10.1815 15.314 10.1919 15.2469 10.1886H13.3707C13.2395 10.1882 13.1139 10.1358 13.0212 10.0429C12.9286 9.95006 12.8765 9.8243 12.8763 9.69314V5.93707C12.8763 5.66363 13.0978 5.43921 13.3707 5.43921H15.2505C15.378 5.4458 15.4981 5.5012 15.5859 5.59392C15.6737 5.68665 15.7224 5.8096 15.7221 5.93729C15.7217 6.06499 15.6722 6.18765 15.5839 6.27985C15.4955 6.37205 15.3751 6.42673 15.2475 6.43256H13.8662V7.31843L15.2469 7.31784ZM12.2149 9.69255C12.2138 9.82408 12.1608 9.94986 12.0675 10.0425C11.9741 10.1352 11.848 10.1873 11.7165 10.1875C11.6386 10.1882 11.5616 10.1708 11.4916 10.1367C11.4216 10.1026 11.3605 10.0526 11.3131 9.99079L9.39076 7.3763V9.69196C9.39076 9.82337 9.33856 9.9494 9.24564 10.0423C9.15271 10.1352 9.02668 10.1875 8.89527 10.1875C8.76385 10.1875 8.63782 10.1352 8.5449 10.0423C8.45198 9.9494 8.39977 9.82337 8.39977 9.69196V5.93589C8.39977 5.72387 8.53856 5.5337 8.73817 5.46579C8.78747 5.44838 8.83945 5.43978 8.89172 5.44039C9.04527 5.44039 9.18701 5.52366 9.2821 5.6406L11.2198 8.26099V5.93589C11.2198 5.66245 11.4412 5.43803 11.7153 5.43803C11.9893 5.43803 12.2137 5.66245 12.2137 5.93589L12.2149 9.69255ZM7.69344 9.69255C7.69282 9.82428 7.64001 9.95039 7.54658 10.0433C7.45316 10.1361 7.32673 10.1882 7.195 10.188C7.06425 10.187 6.93921 10.1343 6.84709 10.0415C6.75496 9.94871 6.7032 9.8233 6.70305 9.69255V5.93648C6.70305 5.66304 6.92451 5.43862 7.19854 5.43862C7.47198 5.43862 7.69404 5.66304 7.69404 5.93648L7.69344 9.69255ZM5.75222 10.188H3.87241C3.74082 10.1877 3.61466 10.1355 3.52134 10.0428C3.42801 9.94998 3.37505 9.82413 3.37397 9.69255V5.93648C3.37397 5.66304 3.59838 5.43862 3.87241 5.43862C4.14644 5.43862 4.36791 5.66304 4.36791 5.93648V9.19705H5.75222C5.88363 9.19705 6.00966 9.24926 6.10259 9.34218C6.19551 9.4351 6.24771 9.56113 6.24771 9.69255C6.24771 9.82396 6.19551 9.94999 6.10259 10.0429C6.00966 10.1358 5.88363 10.188 5.75222 10.188ZM18.8985 7.671C18.8985 3.44188 14.6563 0 9.44923 0C4.24211 0 0 3.44188 0 7.671C0 11.4607 3.36215 14.6351 7.90192 15.2381C8.20961 15.3024 8.62774 15.4412 8.73581 15.7028C8.8309 15.9391 8.79723 16.3052 8.76652 16.555L8.63719 17.3576C8.59998 17.5945 8.44643 18.2902 9.46163 17.8655C10.4798 17.4409 14.9091 14.6546 16.8929 12.3714C18.2494 10.8861 18.8985 9.36005 18.8985 7.671Z" fill="#f8f8f8"/>
</svg>
