<svg width="16" height="18" viewBox="0 0 16 18" fill="none" xmlns="http://www.w3.org/2000/svg">
<path d="M8.21451 0.0151883C9.19613 0 10.1721 0.00900048 11.147 0C11.206 1.14812 11.6189 2.31762 12.4594 3.12935C13.2981 3.96134 14.4845 4.34217 15.6388 4.47099V7.49121C14.557 7.45577 13.4702 7.23076 12.4886 6.76499C12.0611 6.57148 11.6628 6.32227 11.273 6.06745C11.2679 8.25907 11.282 10.4479 11.2589 12.6305C11.2004 13.679 10.8545 14.7225 10.2447 15.5866C9.26363 17.025 7.56085 17.9627 5.81195 17.992C4.7392 18.0533 3.66758 17.7608 2.75347 17.2219C1.23858 16.3286 0.172585 14.6933 0.0173265 12.9382C-0.00222997 12.5665 -0.00523312 12.1941 0.00832599 11.8221C0.143333 10.395 0.849309 9.02973 1.94512 8.10099C3.18718 7.01925 4.92709 6.50397 6.55618 6.80886C6.57136 7.91986 6.52692 9.02973 6.52692 10.1407C5.7827 9.89997 4.91303 9.96747 4.26274 10.4192C3.78698 10.7326 3.42744 11.1937 3.2395 11.7316C3.08424 12.1118 3.12868 12.5343 3.13768 12.9382C3.316 14.169 4.49957 15.2035 5.76301 15.0916C6.60062 15.0826 7.40335 14.5965 7.83987 13.8849C7.98106 13.6357 8.13914 13.3809 8.14757 13.0878C8.22126 11.7462 8.19201 10.4102 8.20101 9.06855C8.2072 6.04495 8.19201 3.02979 8.21508 0.0157508L8.21451 0.0151883Z" fill="#f8f8f8"/>
</svg>
