<svg width="69" height="68" viewBox="0 0 69 68" fill="none" xmlns="http://www.w3.org/2000/svg">
<path d="M57.9418 8.00129L68.6093 47.8064C68.9761 49.1756 69.0696 50.6036 68.8845 52.0089C68.6993 53.4142 68.2392 54.7693 67.5303 55.9968C66.8215 57.2243 65.8778 58.3001 64.7531 59.1629C63.6285 60.0256 62.3449 60.6584 60.9756 61.025L36.3398 67.6304C34.9701 67.9984 33.5413 68.0928 32.1351 67.9082C30.7289 67.7237 29.3728 67.2638 28.1445 66.5548C26.9161 65.8458 25.8395 64.9017 24.9762 63.7765C24.113 62.6512 23.4799 61.3668 23.1133 59.9967L12.4497 20.1917C12.0829 18.8225 11.9894 17.3944 12.1745 15.9891C12.3597 14.5838 12.8198 13.2287 13.5287 12.0012C14.2375 10.7737 15.1812 9.69792 16.3059 8.83517C17.4306 7.97242 18.7142 7.33965 20.0834 6.973L44.7231 0.3676C46.0923 0.000816226 47.5203 -0.0926784 48.9257 0.0924554C50.331 0.277589 51.6861 0.737726 52.9136 1.44659C54.141 2.15545 55.2169 3.09916 56.0796 4.22382C56.9424 5.34848 57.5751 6.63207 57.9418 8.00129ZM32.6741 19.8541C32.5428 19.3541 32.314 18.885 32.0009 18.4737C31.6877 18.0623 31.2964 17.7169 30.8494 17.4573C30.4024 17.1976 29.9085 17.0288 29.3961 16.9606C28.8837 16.8923 28.3628 16.926 27.8634 17.0596C27.3641 17.1933 26.896 17.4242 26.4861 17.7393C26.0763 18.0543 25.7327 18.4472 25.4751 18.8954C25.2175 19.3436 25.051 19.8383 24.9852 20.351C24.9193 20.8638 24.9554 21.3845 25.0914 21.8832C25.361 22.8888 26.019 23.746 26.9206 24.2664C27.8223 24.7868 28.8937 24.9276 29.8993 24.658C30.9048 24.3884 31.762 23.7305 32.2824 22.8288C32.8028 21.9272 32.9437 20.8557 32.6741 19.8502V19.8541ZM12.4104 35.2236L19.3259 61.0093C20.0053 63.5657 21.3643 65.8903 23.2585 67.7364L21.5198 67.6422C18.6616 67.4921 15.98 66.2128 14.0649 64.0857C12.1497 61.9586 11.1579 59.1579 11.3076 56.2996L12.4104 35.2236ZM8.78002 29.4227L7.38673 56.0955C7.24151 58.835 7.8577 61.4411 9.05083 63.7096L7.42598 63.0777C6.10262 62.5698 4.89226 61.8062 3.86402 60.8306C2.83578 59.8549 2.00979 58.6863 1.43322 57.3913C0.856654 56.0964 0.540802 54.7006 0.503698 53.2837C0.466595 51.8667 0.708968 50.4563 1.21698 49.133L8.78002 29.4227Z" fill="#F8F8F8"/>
</svg>
