<svg width="70" height="56" viewBox="0 0 70 56" fill="none" xmlns="http://www.w3.org/2000/svg">
<path d="M9.53432 0.800825C4.79659 0.138784 0.251953 3.75932 0.251953 8.73153V47.9299C0.251953 52.8952 4.79659 56.5157 9.53088 55.8537C10.2102 55.7606 10.9446 55.6606 11.7239 55.5641C19.3582 54.6333 27.0425 54.1739 34.7333 54.1882C45.7328 54.1882 54.498 55.0917 59.9391 55.8537C64.67 56.5192 69.2146 52.8952 69.2146 47.9299V8.72808C69.2146 3.76277 64.67 0.138784 59.9322 0.800825C54.498 1.56286 45.7363 2.46627 34.7333 2.46627C23.7303 2.46627 14.9686 1.56286 9.53432 0.800825ZM58.8702 50.4987C54.8611 49.9899 50.836 49.6161 46.8017 49.3781V38.6717H55.4221C56.3366 38.6717 57.2136 39.0349 57.8603 39.6816C58.5069 40.3282 58.8702 41.2053 58.8702 42.1198V50.4953V50.4987ZM41.6295 49.1367C37.0333 48.9817 32.4332 48.9817 27.837 49.1367V38.6717C27.837 37.7572 28.2003 36.8801 28.8469 36.2335C29.4936 35.5868 30.3706 35.2235 31.2851 35.2235H38.1814C39.0959 35.2235 39.973 35.5868 40.6196 36.2335C41.2663 36.8801 41.6295 37.7572 41.6295 38.6717V49.1333V49.1367ZM22.6648 49.3781C18.6306 49.6161 14.6055 49.9899 10.5963 50.4987V42.1198C10.5963 41.2053 10.9596 40.3282 11.6063 39.6816C12.2529 39.0349 13.13 38.6717 14.0445 38.6717H22.6648V49.3747V49.3781ZM34.7333 31.7754C33.3615 31.7754 32.046 31.2305 31.076 30.2605C30.106 29.2905 29.5611 27.9749 29.5611 26.6032C29.5611 25.2314 30.106 23.9159 31.076 22.9459C32.046 21.9759 33.3615 21.431 34.7333 21.431C36.105 21.431 37.4206 21.9759 38.3906 22.9459C39.3605 23.9159 39.9055 25.2314 39.9055 26.6032C39.9055 27.9749 39.3605 29.2905 38.3906 30.2605C37.4206 31.2305 36.105 31.7754 34.7333 31.7754ZM22.6648 30.0513C22.6648 30.7305 22.531 31.4031 22.2711 32.0306C22.0112 32.6582 21.6302 33.2283 21.1499 33.7086C20.6696 34.1889 20.0994 34.5699 19.4719 34.8298C18.8444 35.0897 18.1718 35.2235 17.4926 35.2235C16.8134 35.2235 16.1408 35.0897 15.5133 34.8298C14.8858 34.5699 14.3156 34.1889 13.8353 33.7086C13.355 33.2283 12.9741 32.6582 12.7141 32.0306C12.4542 31.4031 12.3204 30.7305 12.3204 30.0513C12.3204 28.6796 12.8653 27.364 13.8353 26.394C14.8053 25.4241 16.1209 24.8791 17.4926 24.8791C18.8644 24.8791 20.1799 25.4241 21.1499 26.394C22.1199 27.364 22.6648 28.6796 22.6648 30.0513ZM57.1461 30.0513C57.1461 31.4231 56.6012 32.7386 55.6312 33.7086C54.6613 34.6786 53.3457 35.2235 51.9739 35.2235C50.6022 35.2235 49.2866 34.6786 48.3166 33.7086C47.3467 32.7386 46.8017 31.4231 46.8017 30.0513C46.8017 28.6796 47.3467 27.364 48.3166 26.394C49.2866 25.4241 50.6022 24.8791 51.9739 24.8791C53.3457 24.8791 54.6613 25.4241 55.6312 26.394C56.6012 27.364 57.1461 28.6796 57.1461 30.0513Z" fill="#F8F8F8"/>
</svg>
