<svg width="55" height="55" viewBox="0 0 55 55" fill="none" xmlns="http://www.w3.org/2000/svg">
<path d="M0.964828 22.5065L7.77705 22.5066L7.77705 27.7467L0.964827 27.7467L0.964828 22.5065ZM7.60238 43.6419L13.1046 38.1397L16.86 41.8952L11.3578 47.3974L7.60238 43.6419ZM16.86 8.35808L13.1046 12.1135L7.51504 6.52402L11.2705 2.76856L16.86 8.35808ZM45.157 21.1092C45.8557 23.7875 45.8702 26.4804 45.2006 29.1878C44.5311 31.8952 43.1773 34.2678 41.1395 36.3057C38.0536 39.3916 34.3273 40.9345 29.9605 40.9345C25.5936 40.9345 21.8673 39.3916 18.7814 36.3057C15.6955 33.2198 14.1526 29.4935 14.1526 25.1266C14.1526 20.7598 15.6955 17.0335 18.7814 13.9476C20.8193 11.9098 23.1773 10.5415 25.8557 9.8428C28.534 9.1441 31.2414 9.17322 33.9779 9.93013L42.9736 0.934499L54.1526 12.1135L45.157 21.1092ZM46.6417 38.1397L52.2312 43.7293L48.4757 47.4847L42.8862 41.8952L46.6417 38.1397ZM27.253 47.2227L32.4059 47.31L32.4932 54.0349H27.253V47.2227Z" fill="#F8F8F8"/>
</svg>
