<svg width="18" height="12" viewBox="0 0 18 12" fill="none" xmlns="http://www.w3.org/2000/svg">
<path d="M17.6145 1.8828C17.5127 1.51945 17.3143 1.19049 17.0404 0.930891C16.7588 0.66331 16.4136 0.471903 16.0375 0.374737C14.6299 0.00371678 8.99038 0.00371686 8.99038 0.00371686C6.63934 -0.0230321 4.28887 0.0946163 1.95225 0.355998C1.57613 0.460343 1.23162 0.656027 0.949374 0.925645C0.672046 1.19248 0.47117 1.52152 0.366236 1.88205C0.114162 3.24002 -0.00831294 4.61886 0.0004626 6C-0.00853182 7.37989 0.113642 8.75828 0.366236 10.1179C0.468922 10.477 0.669048 10.8045 0.947125 11.0691C1.2252 11.3337 1.57149 11.5248 1.95225 11.626C3.37862 11.9963 8.99038 11.9963 8.99038 11.9963C11.3444 12.0231 13.6979 11.9054 16.0375 11.644C16.4136 11.5468 16.7588 11.3554 17.0404 11.0878C17.3177 10.8233 17.5148 10.4942 17.6138 10.1359C17.8724 8.77849 17.9982 7.39907 17.9893 6.01723C18.0088 4.62955 17.8831 3.24363 17.6145 1.88205V1.8828ZM7.1975 8.5664V3.43434L11.8896 6.00075L7.1975 8.5664Z" fill="#f8f8f8"/>
</svg>
