<svg xmlns="http://www.w3.org/2000/svg" viewBox="0 0 1363.14 264.21"><defs><style>.cls-1{fill:#fb9300;}.cls-2{fill:#a66100;}.cls-3{fill:#f54748;}.cls-4{fill:#d13d3d;}.cls-5{fill:#343f56;}.cls-6{fill:#222938;}.cls-7{fill:#a83131;}.cls-8{fill:#c77500;}.cls-9{fill:#252d3d;}.cls-10{fill:#c4393a;}.cls-11{fill:#1a202b;}</style></defs><title>Asset 1</title><g id="Layer_2" data-name="Layer 2"><g id="Layer_3" data-name="Layer 3"><path class="cls-1" d="M631.57,124.07s-.22,1.64-.84,4.66c-1.58,7.74-5.77,24.51-15.51,45.74q-2.37,5.19-5.21,10.71c-.94,1.82-1.92,3.68-3,5.55a279.07,279.07,0,0,1-45.35,61.18c-1.55,1.58-3.12,3.16-4.73,4.75q-3.87,3.78-8,7.55H11.06c23.39-15.16,54.59-34.44,90.67-54.43A1243.17,1243.17,0,0,1,218.86,152.3q18-7.61,36.37-14.51,3.07-1.15,6.16-2.28c21.19-7.75,42.64-14.63,64-20.24,2.13-.57,4.27-1.12,6.4-1.66a512.35,512.35,0,0,1,50.33-10.11q21.75-3.19,41.21-5.12c2.2-.22,4.39-.44,6.55-.64a646.58,646.58,0,0,1,75.59-2.89q3.13.08,6.18.18c28.57,1,51.09,4.35,68.5,8.37a213,213,0,0,1,24.23,7c14.33,5.14,22.29,10.11,25.49,12.37C631,123.61,631.57,124.07,631.57,124.07Z"/><path class="cls-2" d="M630.73,128.73c-25.63,3.57-70.57,15.51-134.27,35.64L610,185.18c-.94,1.82-1.92,3.68-3,5.55L484.29,168.24q-39.3,12.58-87.41,29L561.7,251.91c-1.55,1.58-3.12,3.16-4.73,4.75L387.5,200.49q-11,3.76-22.4,7.73c-16.19,5.62-32.32,11.29-48.16,16.9l93.3,39.09H394.73L308.54,228.1c-17.09,6.07-33.78,12.06-49.78,17.84l38.8,18.27H283.48l-32.69-15.39c-14.82,5.37-29,10.53-42.23,15.39H191.17c17.26-6.35,36.45-13.37,56.9-20.78l7.16-105.64q3.07-1.15,6.16-2.28L254.24,241.2c16.59-6,33.95-12.24,51.74-18.56l19.43-107.37c2.13-.57,4.27-1.12,6.4-1.66L312.5,220.33c16.63-5.9,33.6-11.86,50.63-17.78q14.52-5,28.32-9.76l31.9-94.41c2.2-.22,4.39-.44,6.55-.64l-31.29,92.6Q447.5,173.68,487.24,161l18.25-66.16q3.13.08,6.18.18l-17.61,63.81c64.29-20.31,109.74-32.39,135.83-36,1.14.81,1.68,1.27,1.68,1.27S631.35,125.71,630.73,128.73Z"/><path class="cls-3" d="M226.25,40.5q-.09,3.42-.21,6.81c-.74,23.52-1.93,45.42-3.5,65.82q-.28,3.6-.58,7.12-1.38,16.71-3.1,32.05c-.22,2-.45,4-.69,6-.27,2.34-.55,4.64-.83,6.93-4.93,39.56-11.46,72.15-18.87,99H3.47c15.35-19.73,34.21-41.15,54.39-62.65,9.32-9.93,18.92-19.87,28.59-29.68q8.52-8.64,17.07-17.1c8.89-8.82,17.73-17.43,26.35-25.72l4.93-4.74c10.55-10.07,20.71-19.64,30.19-28.45l5.17-4.79c22.59-20.9,40.7-37,49.77-45C224,42.45,226.25,40.5,226.25,40.5Z"/><path class="cls-4" d="M129.66,264.21H88.46l-30.6-62.65c9.32-9.93,18.92-19.87,28.59-29.68q8.52-8.64,17.07-17.1c8.63,16.85,15.13,43.05,19.87,68.86q.78,4.22,1.49,8.42C126.8,243.33,128.38,254.33,129.66,264.21Z"/><path class="cls-4" d="M226.25,40.5s-2.25,2-6.32,5.54c-7.15,13.63-23.88,45.9-42.16,83.85l-7.61-38.81L165,95.87,173.43,139c-.76,1.6-1.53,3.21-2.29,4.83-5.78,12.19-13,25.22-20.8,38.15L134.8,124.32l-4.93,4.74L146,189c-7.45,12-15.24,23.84-22.64,34.65-11.6,17-22.24,31.47-29,40.57h7.49c6-8.12,14.15-19.3,23-32.15,7.74-11.18,16.07-23.63,24.09-36.44l68.37-30.41c.28-2.29.56-4.59.83-6.93l-63.63,28.29a456.67,456.67,0,0,0,22-40.22l1.05-2.22L222,120.25q.3-3.52.58-7.12L182,135c19.42-40.44,37.28-74.79,44-87.65Q226.16,43.92,226.25,40.5Z"/><path class="cls-5" d="M120,264.21H0V45.72A197.37,197.37,0,0,1,29.11,74.43q2.37,2.83,4.68,5.77c12.84,16.29,24.52,35,35.11,55.11q1.74,3.27,3.42,6.6c5,9.74,9.66,19.77,14.13,30C91.9,184.32,97,197,101.73,209.78,108.52,228,114.61,246.37,120,264.21Z"/><path class="cls-6" d="M28.86,229.23l10.66,35H33.25L22.12,227.68,0,211.74v-7.39l19.23,13.86L0,155.07v-20.6l7.12,23.37,22-83.41q2.37,2.83,4.68,5.77L10.45,168.76l15.87,52.11L68.9,135.31q1.74,3.27,3.42,6.6Z"/><path class="cls-3" d="M1363.14,172v92.24h-98.92q-22.56-5.77-47.09-13.65c-2.61-.85-5.24-1.71-7.88-2.6l-3.29-1.11q-7.14-2.43-13.91-4.9a526.81,526.81,0,0,1-58.27-25.11q-3.57-1.82-7-3.63a340.94,340.94,0,0,1-49.87-32q-2.78-2.17-5.35-4.3a206.92,206.92,0,0,1-27.11-26.49C1035.69,140,1031.12,132,1029,127.7a34,34,0,0,1-1.46-3.31q5.15-.6,10.25-1.11a668.13,668.13,0,0,1,75.85-3.28q3.35,0,6.67.11c21.68.52,42.56,2.07,62.58,4.44q3.28.39,6.54.82c18.91,2.42,37,5.57,54.28,9.25,2.34.5,4.67,1,7,1.52l2.07.47c20.86,4.75,40.42,10.25,58.53,16.13,2.12.68,4.21,1.38,6.28,2.07C1334,160.33,1349.26,166.15,1363.14,172Z"/><path class="cls-7" d="M1327.39,242.58l-9.8-87.77c-2.07-.69-4.16-1.39-6.28-2.07l9.66,86.37c-12.67-6.82-26.61-14.15-41.46-21.7l1.21-.64-30-80.63c-2.3-.51-4.63-1-7-1.52l29.52,79.32-.29.15q-4.23-2.13-8.54-4.27c-17.44-8.68-36.85-18-57.35-27.24l-17.62-57.21q-3.26-.44-6.54-.82l16.88,54.77c-20.79-9.24-42.55-18.34-64.44-26.6l-15-32.61q-3.33-.08-6.67-.11l13.71,29.75c-30.65-11.26-61.31-20.73-89.56-26.47q-5.1.51-10.25,1.11a34,34,0,0,0,1.46,3.31c29.63,5.38,62.41,15.23,95.76,27.48L1071.58,177q2.58,2.13,5.35,4.3l56.15-23c21.33,8.07,42.82,17,63.78,26.37l-70.06,28.57q3.4,1.81,7,3.63L1204.42,188c21.55,9.74,42.44,19.79,61.95,29.57L1209.25,248c2.64.89,5.27,1.75,7.88,2.6l55.81-29.66c16.31,8.25,31.56,16.25,45.3,23.62l-33.5,19.69h11.84l27.83-16.36c11.1,6,21.08,11.53,29.68,16.36h9.05v-1.8C1353.27,256.81,1341.18,250.06,1327.39,242.58Z"/><path class="cls-1" d="M1363.14,113.82V264.21h-35.53c-7-14.77-15.09-30.08-23.85-45.56q-2.07-3.68-4.2-7.36c-8.22-14.25-17-28.59-25.94-42.72q-2.36-3.73-4.75-7.44c-5.32-8.28-10.71-16.48-16.09-24.52-1.06-1.59-2.13-3.17-3.19-4.75-1.44-2.13-2.87-4.25-4.31-6.35-13.5-19.86-26.8-38.59-38.92-55.21l-4.14-5.65c-21.36-29.13-38.51-51.05-45.67-60.1-2.35-3-3.63-4.55-3.63-4.55q9.86,2.55,19.27,5.28a572,572,0,0,1,57.82,20q3.24,1.32,6.41,2.69,17.82,7.59,33.56,15.9,3.51,1.84,6.91,3.72a360,360,0,0,1,57.92,39.24q2.81,2.36,5.5,4.71A298.48,298.48,0,0,1,1363.14,113.82Z"/><path class="cls-8" d="M1363.14,146.79l-12.63,73.06c-6.63-11.56-14-24.07-22-37l1.25.32,10.59-91.53q-2.7-2.36-5.5-4.71l-10.26,88.7-.68-.17q-6-9.54-12.35-19.27-8.62-13.17-17.09-25.28l-17.54-83.22q-3.41-1.87-6.91-3.72l15.74,74.67A648.82,648.82,0,0,0,1241.09,63L1236.42,28q-3.17-1.36-6.41-2.69l4,30q-32.58-34.29-61.83-50-9.4-2.73-19.27-5.28s1.28,1.58,3.63,4.55c22.89,9.18,48.25,28.59,75.29,57.44l-29.62,2.66,4.14,5.65L1237,67.56a662.62,662.62,0,0,1,48.52,61.06l-40.21-3.11c1.44,2.1,2.87,4.22,4.31,6.35L1290,135q8.19,11.72,16.49,24.38,4.54,7,8.91,13.83l-46.51-12.07q2.39,3.7,4.75,7.44l46.43,12c9.49,15.2,18.17,29.85,25.81,43.19l-46.3-12.51q2.13,3.69,4.2,7.36L1350,231.14c4.88,8.65,9.28,16.64,13.11,23.74V242.34c-2.48-4.51-5.14-9.29-8-14.28l8-46.06Z"/><path class="cls-5" d="M729.6,47.25h0c0,.12,0,1.32,0,3.47-.08,5-.36,15-1.31,28.48q-.21,2.92-.45,6.08c-.16,2-.34,4.14-.53,6.3-1.63,18.37-4.39,41.13-9.1,65.76-.39,2-.78,4-1.19,6-2.41,11.94-5.28,24.26-8.71,36.68q-.81,3-1.68,5.94c-3.4,11.78-7.31,23.6-11.81,35.23q-1.15,3-2.38,6-3.48,8.58-7.41,17H489.7a413.68,413.68,0,0,1,14.51-46.44q1.05-2.81,2.19-5.63a321.68,321.68,0,0,1,30-58.07c1.1-1.69,2.23-3.36,3.39-5A247.06,247.06,0,0,1,577.29,106c1-.86,1.91-1.71,2.88-2.56l1.74-1.5a217.71,217.71,0,0,1,57.94-35.73q7.67-3.21,15.82-6c1.93-.64,3.89-1.27,5.87-1.87a263.61,263.61,0,0,1,61.59-10.77C725.27,47.44,727.42,47.33,729.6,47.25Z"/><path class="cls-9" d="M573.51,264.21H595c27-7.5,66.12-16.62,97.45-17q1.23-3,2.38-6C653,241,598.09,256.54,573.51,264.21ZM723.13,47.58C701,61.09,680.27,80.63,661.67,102.16c2.39-15.39,1.41-31.6-.13-43.81-2,.6-3.94,1.23-5.87,1.87,1.77,14.76,2.64,35-2.33,51.88a598,598,0,0,0-45,64.15c-3-15.16-10.93-48.79-26.47-74.35l-1.74,1.5c-1,.85-1.93,1.7-2.88,2.56,17.56,29.63,25.2,71,26.41,78-7.58,12.71-14.39,25-20.34,36.21-5.61-14.87-21-51.39-43.6-71.17-1.16,1.67-2.29,3.34-3.39,5,24.32,21.81,40.51,65.64,43.22,73.34-7.88,15.21-14,28.06-18,36.8h6.59c4.19-9,10.29-21.77,18-36.59,6.93-2.34,71.08-23.51,120.35-21.63q.87-3,1.68-5.94c-44.16-2.2-99,13.84-118,19.91,5.6-10.47,11.93-21.79,18.91-33.47C631.14,165,690.91,163.12,717,163.37c.41-2,.8-4,1.19-6-22.55-.35-72.3.84-101.09,16.23a590.93,590.93,0,0,1,37.42-53.38l2.15-1.26c.5-.29,35-20.35,70.62-27.35.19-2.16.37-4.27.53-6.3-25.07,4.58-49.39,15.53-63,22.45,19.52-22.83,41.44-43.5,64.8-57,0-2.15,0-3.35,0-3.47h0C727.42,47.33,725.27,47.44,723.13,47.58ZM506.4,212.14q-1.14,2.82-2.19,5.63c22.34,11.41,40.53,34.08,49.3,46.44h7.34C553,252.54,532.73,225.28,506.4,212.14Z"/><path class="cls-3" d="M893.94,264.21H652.68c-5.93-11.25-12.14-23.85-18.06-37.32-.92-2.09-1.84-4.2-2.74-6.33-4.79-11.29-9.32-23.11-13.27-35.19q-1-3.08-2-6.18c-.48-1.57-1-3.14-1.42-4.72-2.81-9.61-5.21-19.33-7-29-.39-2-.74-4-1.07-6.05a205.4,205.4,0,0,1-2.73-29,145.85,145.85,0,0,1,1.81-26.62,113.38,113.38,0,0,1,2.65-12.11c.27-1,.55-2,.85-2.92,0,0,1.81-.35,5.16-.79a228.8,228.8,0,0,1,25-1.82,268,268,0,0,1,82.09,11q2.85.86,5.73,1.8l.59.19a237.12,237.12,0,0,1,46,20.8q2.61,1.53,5.22,3.17a236.46,236.46,0,0,1,56.6,49.75l.84,1c1,1.24,2,2.49,3,3.76C861.3,184.73,880.09,219.51,893.94,264.21Z"/><path class="cls-10" d="M839.92,157.71c-1-1.27-2-2.52-3-3.76l-.84-1-64.95,81.5q-5.1-9-10.82-18.47c-4.58-7.51-9.61-15.39-15.07-23.47l1.66.6,32.58-89.91q-2.61-1.64-5.22-3.17l-32,88.17a508.26,508.26,0,0,0-32.2-42L727.67,79q-2.88-.94-5.73-1.8l-16.63,63.49C680.05,112.2,649.77,85.57,614.87,68c-3.35.44-5.16.79-5.16.79-.3,1-.58,1.94-.85,2.92,35,16.94,65.53,43.34,90.93,71.82l-92.66-4.11c.33,2,.68,4,1.07,6.05l97,4.3c11,12.88,21.08,26.05,30,38.86l-118.64-9.43q1,3.1,2,6.18L739.67,195c5.61,8.26,10.75,16.32,15.43,24q4.86,8,9.27,15.72L631.88,220.56c.9,2.13,1.82,4.24,2.74,6.33L768,241.12c4.48,8.06,8.58,15.8,12.27,23.09H787c-3.79-7.57-8-15.67-12.69-24.12Z"/><path class="cls-1" d="M976.11,264.21H812.91c1.67-11.87,3.92-25.95,6.91-41.35q.6-3.09,1.25-6.26c3.54-17.43,8-36.35,13.68-55.53q.93-3.15,1.91-6.32l.24-.8c4.3-13.93,9.22-27.93,14.85-41.54A327.41,327.41,0,0,1,873.35,69c1.08-1.8,2.18-3.59,3.31-5.35,13.7-21.6,30.1-40,49.67-52.45,1.89-1.21,3.82-2.36,5.77-3.45h0c0,.12.52,1.23,1.33,3.25A651.56,651.56,0,0,1,955.2,76.3c.54,1.94,1.08,3.92,1.62,5.92,3.72,13.81,7.38,29,10.58,45.21q2.11,10.68,3.92,21.87.54,3.39,1,6.82a506.35,506.35,0,0,1,5.27,56.18c.08,2.27.15,4.54.19,6.82A377.42,377.42,0,0,1,976.11,264.21Z"/><path class="cls-2" d="M977.64,212.3,900.2,257.12c.4-11.66,1-27.37,2-45.3l70.19-55.7q-.51-3.44-1-6.82l-68.71,54.52c1.69-29.93,4.26-64.91,8.09-97.18l46.12-24.42c-.54-2-1.08-4-1.62-5.92L911.6,99.38c5-39.56,12-74,21.83-88.41.35-.5.69-1,1-1.43L932.1,7.72h0l-2.38-1.83a40.16,40.16,0,0,0-3.39,5.28c-9.14,16.67-15.77,49.41-20.57,86.43l-29.1-34c-1.13,1.76-2.23,3.55-3.31,5.35l31.4,36.68c-4.09,33.93-6.73,70.66-8.41,101.52l-59.68-52.41q-1,3.17-1.91,6.32l61.19,53.72c-1,18.56-1.54,34.55-1.89,45.89l-.08,0-72.9-44.12q-.65,3.17-1.25,6.26l68.33,41.35H900v0l77.86-45.06C977.79,216.84,977.72,214.57,977.64,212.3Z"/><path class="cls-5" d="M1212.73,264.21H936.81c-4.09-4-8.23-8.24-12.35-12.68-1.81-1.94-3.61-3.93-5.4-5.95a319.65,319.65,0,0,1-31.56-41.85c-1.27-2-2.52-4-3.75-6.1a263.37,263.37,0,0,1-19.53-40q-1.19-3-2.28-6.17a233.56,233.56,0,0,1-9.2-33.62c-.35-1.79-.67-3.58-1-5.39,0,0,1.32,0,3.83.07A556,556,0,0,1,923.32,119q3.25.51,6.61,1.06c11.65,1.92,24.23,4.32,37.47,7.33,13,2.94,26.56,6.46,40.54,10.67q2.91.87,5.85,1.79c10.08,3.14,20.33,6.66,30.68,10.57s20.88,8.28,31.36,13.08c1.86.84,3.73,1.71,5.59,2.6,38.74,18.31,77.19,42.87,110.63,75.81C1199.19,249,1206.11,256.39,1212.73,264.21Z"/><path class="cls-11" d="M1065.12,246.26l16.3-80.12c-1.86-.89-3.73-1.76-5.59-2.6l-16,78.53c-14.33-11.33-32.31-25.15-52.34-39.68l6.28-62.5q-2.94-.91-5.85-1.79l-6.05,60.23C983,184.8,962.56,170.81,941.7,157.77L929.93,120.1q-3.36-.55-6.61-1.06l10.59,33.9c-26.62-16.27-53.58-30.71-78.32-40.45-2.51-.07-3.83-.07-3.83-.07.31,1.81.63,3.6,1,5.39,23.45,9.16,49,22.67,74.34,38l-65.14-4.36q1.09,3.12,2.28,6.17l73.84,4.94c19.49,12.18,38.68,25.21,56.51,37.92l-110.82-2.83c1.23,2.06,2.48,4.1,3.75,6.1l115.73,3c18.92,13.7,36,26.81,50,37.8l-134.17,1.09c1.79,2,3.59,4,5.4,5.95l136.27-1.1c6.69,5.33,12.43,10,17,13.78h9.43C1082.15,260,1074.59,253.81,1065.12,246.26Z"/></g></g></svg>