<svg width="359" height="358" viewBox="0 0 359 358" fill="none" xmlns="http://www.w3.org/2000/svg">
<path d="M354 179C354 275.084 275.887 353 179.5 353C83.1132 353 5 275.084 5 179C5 82.9156 83.1132 5 179.5 5C275.887 5 354 82.9156 354 179Z" stroke="#F8F8F8" stroke-width="10"/>
<path d="M165.223 182.338C159.306 171.023 149.236 165.718 145.805 164.082C138.662 162.389 128.56 160.781 116.475 161.176C101.432 161.655 89.5047 165.07 81.8574 167.891C85.0359 175.369 95.1694 196.306 120.503 210.329C136.238 219.048 151.407 221.503 160.25 222.293C160.911 234.173 161.604 246.052 162.264 257.931H169.44C169.408 246.616 169.377 235.329 169.345 224.014C169.786 224.325 171.013 225.087 172.776 225.2C174.192 225.284 175.293 224.889 175.797 224.663C175.702 238.744 175.576 252.852 175.482 266.932H179.51H183.538C183.444 252.852 183.318 238.744 183.224 224.663C183.727 224.889 184.829 225.284 186.245 225.2C188.039 225.115 189.235 224.325 189.675 224.014C189.644 235.329 189.612 246.616 189.581 257.931H196.756C197.417 246.052 198.109 234.173 198.77 222.293C207.645 221.503 222.782 219.02 238.517 210.329C263.851 196.306 273.984 175.369 277.163 167.891C269.516 165.098 257.588 161.683 242.577 161.176C230.492 160.781 220.39 162.389 213.246 164.082C209.816 165.718 199.714 171.023 193.829 182.338C188.731 192.101 189.549 201.018 190.084 204.63C189.36 205.053 188.196 205.617 186.685 205.927C185.395 206.21 184.262 206.21 183.444 206.181C182.846 197.152 183.066 185.047 186.339 171.164C189.046 159.595 193.137 150.002 196.913 142.694C202.137 145.543 212.68 150.284 226.37 149.945C256.204 149.212 272.914 125.002 274.331 122.914C269.39 120.487 242.671 107.959 213.97 117.778C203.522 121.333 196.032 126.751 191.186 131.096C189.297 129.996 187.409 128.924 185.521 127.823C189.14 124.776 194.742 119.245 198.864 110.95C202.767 103.105 203.711 96.0794 203.931 91.734C203.333 87.5579 201.602 80.0522 196.032 72.1515C190.43 64.0815 183.507 59.4257 179.51 57.1401C175.545 59.4257 168.621 64.0815 162.988 72.0951C157.418 79.9958 155.719 87.5014 155.089 91.6775C155.309 96.0511 156.254 103.077 160.156 110.893C164.278 119.189 169.88 124.691 173.499 127.767C171.611 128.867 169.723 129.94 167.835 131.04C162.988 126.723 155.498 121.305 145.05 117.722C116.349 107.959 89.6306 120.487 84.6898 122.885C86.0745 124.973 102.817 149.155 132.651 149.917C146.34 150.256 156.883 145.515 162.107 142.665C165.915 149.974 169.975 159.567 172.681 171.136C175.954 185.019 176.174 197.124 175.576 206.153C174.79 206.21 173.657 206.181 172.335 205.899C170.824 205.589 169.66 205.025 168.936 204.601C169.503 201.018 170.321 192.101 165.223 182.338ZM121.51 193.089C108.198 186.599 99.4809 178.557 94.54 173.252C97.6556 172.491 116.947 168.004 135.263 178.557C149.519 186.768 154.46 199.071 155.75 202.739C148.008 201.977 135.294 199.833 121.51 193.089ZM223.789 178.585C242.105 168.032 261.428 172.491 264.512 173.281C259.571 178.585 250.854 186.599 237.542 193.117C223.758 199.861 211.044 202.005 203.27 202.795C204.592 199.099 209.502 186.796 223.789 178.585ZM216.394 128.077C231.657 120.741 247.486 123.337 253.812 124.719C251.263 127.372 246.102 131.971 238.014 134.68C223.569 139.505 210.666 134.708 207.676 133.523C210.068 131.604 212.963 129.714 216.394 128.077ZM121.038 134.68C112.95 131.971 107.789 127.4 105.24 124.719C111.566 123.337 127.395 120.741 142.658 128.077C146.089 129.714 148.952 131.633 151.344 133.523C148.354 134.708 135.483 139.505 121.038 134.68ZM172.083 104.488C170.541 99.6065 170.101 95.2329 170.069 91.8751C170.447 88.6583 171.58 83.0996 175.45 77.2305C176.741 75.2836 178.157 73.5905 179.51 72.1797C180.863 73.5905 182.28 75.2836 183.57 77.2305C187.441 83.0996 188.574 88.6301 188.951 91.8751C188.92 95.2611 188.479 99.6065 186.937 104.488C185.049 110.498 182.122 115.267 179.479 118.709C176.898 115.267 173.971 110.526 172.083 104.488ZM171.831 138.32C174.381 136.26 176.961 134.2 179.51 132.14C182.059 134.2 184.64 136.26 187.189 138.32C184.923 142.045 182.689 146.136 180.549 150.566C180.171 151.328 179.825 152.09 179.479 152.823C179.133 152.09 178.786 151.328 178.409 150.566C176.332 146.136 174.097 142.045 171.831 138.32Z" fill="white"/>
<path d="M248.399 273.704C243.742 274.353 239.713 274.212 236.787 273.873C232.601 272.35 223.978 269.81 212.995 270.91C204.089 271.785 197.417 274.692 193.704 276.667C191.438 277.824 188.731 279.009 185.616 280.053C183.444 280.786 181.399 281.351 179.542 281.774C177.654 281.351 175.608 280.786 173.468 280.053C170.353 279.009 167.646 277.824 165.38 276.667C161.667 274.72 154.995 271.813 146.089 270.91C135.137 269.81 126.483 272.35 122.297 273.873C119.37 274.184 115.374 274.353 110.685 273.704C105.209 272.942 100.929 271.334 98.065 270.008C96.7747 274.409 95.5159 278.839 94.2256 283.241C100.111 284.991 109.017 286.938 119.905 286.684C127.364 286.514 133.69 285.358 138.504 284.144C141.526 283.58 150.4 282.367 159.684 286.571C166.576 289.703 170.195 294.302 170.195 294.302C170.856 294.923 172.367 296.362 174.916 297.434C176.489 298.112 177.968 298.422 179.133 298.563C179.133 298.591 179.133 298.619 179.133 298.648C179.259 298.648 179.385 298.619 179.51 298.619C179.636 298.648 179.762 298.648 179.888 298.648C179.888 298.619 179.888 298.591 179.888 298.563C181.053 298.422 182.532 298.112 184.105 297.434C186.654 296.362 188.165 294.895 188.826 294.302C188.826 294.302 192.445 289.703 199.337 286.571C208.621 282.367 217.464 283.608 220.516 284.144C225.331 285.358 231.657 286.514 239.115 286.684C250.004 286.938 258.91 284.991 264.795 283.241C263.505 278.839 262.246 274.409 260.956 270.008C258.155 271.306 253.875 272.914 248.399 273.704Z" fill="white"/>
</svg>
