<svg width="464" height="439" viewBox="0 0 464 439" fill="none" xmlns="http://www.w3.org/2000/svg">
<g clip-path="url(#clip0)">
<path d="M213.732 295.072L211.166 438.029L175.672 437.392C168.926 423.19 161.088 408.492 152.554 393.591C151.197 391.188 149.838 388.88 148.481 386.477C140.526 372.729 131.972 358.969 123.314 345.398C121.757 342.992 120.2 340.585 118.641 338.274C113.484 330.284 108.225 322.388 102.962 314.682C101.889 313.14 100.917 311.6 99.8444 310.059C98.4805 308.036 97.0183 305.917 95.6527 303.989C82.4945 284.819 69.5159 266.794 57.7012 250.788C56.3338 248.956 54.9665 247.123 53.6974 245.388C32.7976 217.325 16.0759 196.093 9.03067 187.404C6.78225 184.509 5.50977 182.964 5.50977 182.964C12.0797 184.699 18.4479 186.526 24.7162 188.351C45.5087 194.528 64.5912 201.246 82.1655 208.411C84.3498 209.307 86.4341 210.201 88.5184 211.094C100.329 216.159 111.437 221.401 121.842 226.821C124.121 228.003 126.398 229.281 128.677 230.464C150.764 242.563 169.635 255.461 185.899 268.788C187.771 270.344 189.545 271.803 191.318 273.357C199.49 280.544 206.963 287.719 213.732 295.072Z" fill="#FB9300"/>
<path d="M213.17 326.364L199.324 395.667C192.923 384.516 185.738 372.493 177.961 359.985L179.256 360.294L191.416 273.454C189.644 271.899 187.871 270.345 185.997 268.884L174.185 353.067L173.488 352.864C169.598 346.705 165.608 340.544 161.42 334.284C155.771 325.81 150.315 317.72 144.754 309.913L128.675 230.559C126.398 229.281 124.119 228.098 121.84 226.916L136.262 298.248C121.326 277.809 106.745 259.946 92.6184 244.564L88.5149 211.285C86.4306 210.391 84.2463 209.495 82.162 208.602L85.6492 237.208C64.3436 215.037 44.032 198.783 24.7127 188.542C18.4734 185.099 12.4205 182.422 6.5573 180.319L5.50966 182.964L4.46032 185.704C5.95154 186.207 7.54105 186.806 9.03056 187.404C31.7698 196.565 56.8346 215.473 83.3386 243.351L53.6973 245.388C54.9664 247.123 56.3337 248.956 57.7011 250.788L88.3422 248.769C103.744 265.505 119.594 285.2 135.791 307.754L95.6509 304.084C97.0148 306.107 98.4787 308.131 99.8426 310.154L140.183 313.827C145.549 321.345 150.91 329.148 156.264 337.331C159.185 341.761 162.104 346.285 164.927 350.617L118.639 338.369C120.196 340.775 121.754 343.182 123.312 345.494L169.5 357.74C178.739 372.368 187.187 386.506 194.558 399.292L148.479 386.572C149.836 388.975 151.195 391.283 152.552 393.686L198.631 406.406C203.384 414.674 207.647 422.362 211.325 429.184L211.538 417.294C209.115 412.969 206.598 408.357 203.784 403.549L212.567 359.94L213.17 326.364Z" fill="#C77500"/>
</g>
<g clip-path="url(#clip1)">
<path d="M146.199 186.355C146.199 186.355 146.199 187.311 146.199 189.144C146.279 193.128 146.519 201.097 147.239 211.856C147.319 213.37 147.478 215.043 147.638 216.717C147.798 218.311 147.878 219.984 148.038 221.737C149.317 236.4 151.556 254.49 155.314 274.174C155.633 275.767 155.953 277.361 156.273 278.955C158.192 288.438 160.51 298.32 163.229 308.201C163.628 309.795 164.108 311.389 164.588 312.903C167.306 322.306 170.424 331.71 174.022 340.954C174.662 342.548 175.301 344.142 175.941 345.735C177.78 350.278 179.778 354.82 181.857 359.283H338C335.042 347.568 331.284 335.057 326.407 322.227C325.848 320.713 325.288 319.199 324.648 317.764C318.412 302.225 310.577 286.446 300.663 271.464C299.784 270.109 298.904 268.834 297.945 267.48C289.47 255.207 279.556 243.572 267.964 233.133C267.164 232.416 266.444 231.778 265.645 231.061C265.165 230.663 264.686 230.264 264.286 229.866C258.29 224.686 251.814 219.904 244.858 215.442C236.543 210.182 227.669 205.401 217.995 201.416C213.917 199.743 209.68 198.149 205.362 196.635C203.843 196.157 202.244 195.599 200.645 195.121C185.775 190.578 169.385 187.63 151.396 186.514C149.637 186.514 147.958 186.434 146.199 186.355Z" fill="#343F56"/>
<path d="M253.812 359.283C232.226 353.306 200.965 346.054 175.941 345.735C175.301 344.142 174.662 342.548 174.022 340.954C207.361 340.795 251.334 353.147 271.002 359.283H253.812ZM146.199 189.144C145.8 188.905 145.4 188.666 145 188.427L146.199 186.355L147.399 184.283C148.758 185 150.037 185.797 151.396 186.594C169.065 197.432 185.615 212.971 200.486 230.105C198.567 217.832 199.366 204.923 200.565 195.2C202.164 195.678 203.684 196.157 205.283 196.714C203.843 208.509 203.204 224.606 207.121 238.074C220.953 255.048 233.185 273.058 243.099 289.235C245.498 277.122 251.814 250.346 264.286 230.025C264.766 230.423 265.245 230.822 265.645 231.22C266.445 231.858 267.164 232.575 267.964 233.292C253.892 256.881 247.816 289.872 246.857 295.451C252.933 305.571 258.37 315.373 263.087 324.299C267.564 312.425 279.876 283.338 297.945 267.559C298.904 268.914 299.784 270.189 300.663 271.544C281.235 288.916 268.283 323.821 266.125 329.957C272.441 342.07 277.318 352.35 280.516 359.283H275.239C271.881 352.031 267.004 341.91 260.848 330.116C255.331 328.283 204.003 311.389 164.668 312.903C164.188 311.309 163.788 309.795 163.309 308.201C198.647 306.448 242.459 319.198 257.65 324.06C253.173 315.692 248.136 306.687 242.539 297.363C224.95 280.23 177.22 278.716 156.353 278.955C156.033 277.361 155.713 275.767 155.394 274.173C173.382 273.934 213.198 274.811 236.223 287.083C227.669 273.456 217.595 258.713 206.322 244.529L204.643 243.493C204.243 243.254 176.66 227.315 148.198 221.737C148.038 219.984 147.878 218.31 147.798 216.717C167.866 220.382 187.294 229.069 198.167 234.647C182.417 216.398 164.908 199.902 146.199 189.144ZM324.648 317.764C325.288 319.278 325.848 320.792 326.407 322.227C308.578 331.311 294.027 349.401 286.992 359.283H281.155C287.391 349.959 303.621 328.203 324.648 317.764Z" fill="#252D3D"/>
</g>
<g clip-path="url(#clip2)">
<path d="M413.866 353.141L326.691 416.668L258.547 323.158C251.899 306.288 245.267 288.248 239.048 269.185C238.013 266.175 237.072 263.097 236.063 259.924C235.683 258.608 235.209 257.362 234.829 256.046C233.034 250.405 231.472 244.884 229.885 239.527C222.247 212.956 216.986 188.851 213.447 167.11C212.928 164.014 212.478 161.012 212.028 158.011C208.278 131.212 207.189 108.265 207.902 88.7815C208.011 85.9516 208.163 83.3796 208.247 80.713C209.288 62.8726 211.829 48.2821 214.63 36.8309C218.375 21.5081 222.933 11.6723 225.457 6.79285C226.779 4.23695 227.544 3.10083 227.544 3.10083C230.264 6.03994 233.054 9.07361 235.68 12.0816C256.191 35.0624 274.569 58.2947 291.097 81.5717C292.613 83.6518 294.103 85.8954 295.619 87.9755C310.098 108.837 322.986 129.701 334.591 150.196C335.823 152.483 337.15 154.701 338.313 156.893C349.067 176.417 358.512 195.735 366.934 214.642C368.046 217.161 369.227 219.775 370.339 222.294C370.726 223.024 371.02 223.824 371.313 224.624C381.175 247.692 389.41 269.919 396.398 291.029C397.183 293.497 397.968 295.965 398.753 298.433C404.784 317.634 409.773 336.002 413.866 353.141Z" fill="#F54748"/>
<path d="M322.446 367.937L398.615 298.244C397.829 295.776 397.044 293.308 396.259 290.841L321.251 359.543C318.93 342.85 316.255 324.678 313.174 305.353L314.568 306.074L370.106 222.174C368.994 219.655 367.882 217.136 366.701 214.522L312.212 297.079L311.816 296.933C311.21 293.321 310.536 289.615 310.025 285.934C306.262 263.488 301.619 238.642 296.262 213.015L338.244 156.799C337.012 154.512 335.848 152.32 334.522 150.102L294.352 203.839C288.719 177.834 282.372 151.046 275.13 124.621L295.618 87.9762C294.102 85.8961 292.681 83.7471 291.096 81.5724L272.36 115.059C261.891 78.2456 249.721 42.6729 235.774 12.0134C233.054 9.07428 230.264 6.04061 227.543 3.1015C227.543 3.1015 226.684 4.30652 225.456 6.79352C240.84 38.4323 254.079 76.2661 265.488 116.157L208.221 80.8772C208.068 83.4491 207.985 86.1157 207.876 88.9457L268.276 126.141C275.294 151.861 281.693 178.322 287.274 204.654L211.933 158.08C212.383 161.082 212.833 164.083 213.352 167.179L289.227 214.088C294.869 241.1 299.72 267.82 303.959 293.105L235.967 259.994C236.908 263.072 237.917 266.245 238.952 269.254L305.481 301.55C308.864 322.68 311.842 342.659 314.38 360.642L272.671 342.541L280.801 353.698L315.462 368.683C317.437 383.313 319.127 396.557 320.42 408.065L326.621 416.574L328.323 415.334C326.771 402.279 324.863 386.153 322.446 367.937Z" fill="#A83131"/>
</g>
<defs>
<clipPath id="clip0">
<rect width="211.2" height="253.998" fill="white" transform="translate(4.55762 180.283) rotate(1.02813)"/>
</clipPath>
<clipPath id="clip1">
<rect width="193" height="175" fill="white" transform="matrix(-1 0 0 1 338 184.283)"/>
</clipPath>
<clipPath id="clip2">
<rect width="392.627" height="168.82" fill="white" transform="translate(231.799) rotate(53.9181)"/>
</clipPath>
</defs>
</svg>
