<svg width="199" height="308" viewBox="0 0 199 308" fill="none" xmlns="http://www.w3.org/2000/svg">
<g style="mix-blend-mode:multiply" opacity="0.2">
<circle cx="45" cy="19.2507" r="13.6117" transform="rotate(45 45 19.2507)" fill="#344057"/>
<ellipse cx="11.313" cy="52.9379" rx="13.6117" ry="13.6117" transform="rotate(45 11.313 52.9379)" fill="#344057"/>
<ellipse cx="78.687" cy="52.9379" rx="13.6117" ry="13.6117" transform="rotate(45 78.687 52.9379)" fill="#344057"/>
<circle cx="45" cy="86.6252" r="13.6117" transform="rotate(45 45 86.6252)" fill="#344057"/>
<ellipse cx="11.313" cy="120.313" rx="13.6117" ry="13.6117" transform="rotate(45 11.313 120.313)" fill="#344057"/>
<ellipse cx="112.375" cy="86.6252" rx="13.6117" ry="13.6117" transform="rotate(45 112.375 86.6252)" fill="#344057"/>
<ellipse cx="78.687" cy="120.313" rx="13.6117" ry="13.6117" transform="rotate(45 78.687 120.313)" fill="#344057"/>
<circle cx="45" cy="154" r="13.6117" transform="rotate(45 45 154)" fill="#344057"/>
<circle cx="11.313" cy="187.687" r="13.6117" transform="rotate(45 11.313 187.687)" fill="#344057"/>
<ellipse cx="146.062" cy="120.313" rx="13.6117" ry="13.6117" transform="rotate(45 146.062 120.313)" fill="#344057"/>
<ellipse cx="112.375" cy="154" rx="13.6117" ry="13.6117" transform="rotate(45 112.375 154)" fill="#344057"/>
<circle cx="78.687" cy="187.687" r="13.6117" transform="rotate(45 78.687 187.687)" fill="#344057"/>
<circle cx="45" cy="221.375" r="13.6117" transform="rotate(45 45 221.375)" fill="#344057"/>
<circle cx="11.313" cy="255.062" r="13.6117" transform="rotate(45 11.313 255.062)" fill="#344057"/>
<ellipse cx="179.749" cy="154" rx="13.6117" ry="13.6117" transform="rotate(45 179.749 154)" fill="#344057"/>
<ellipse cx="146.062" cy="187.687" rx="13.6117" ry="13.6117" transform="rotate(45 146.062 187.687)" fill="#344057"/>
<ellipse cx="112.375" cy="221.375" rx="13.6117" ry="13.6117" transform="rotate(45 112.375 221.375)" fill="#344057"/>
<circle cx="78.687" cy="255.062" r="13.6117" transform="rotate(45 78.687 255.062)" fill="#344057"/>
<circle cx="45" cy="288.749" r="13.6117" transform="rotate(45 45 288.749)" fill="#344057"/>
</g>
</svg>
