<svg width="478" height="471" viewBox="0 0 478 471" fill="none" xmlns="http://www.w3.org/2000/svg">
<g clip-path="url(#clip0)">
<path d="M18.8001 208.2L0.100098 213.9C1.3001 170 12.6001 126.5 37.9001 94.8C26.8001 116.6 19.7001 142.7 18.4001 173.4C17.9001 185.5 18.1001 197 18.8001 208.2Z" fill="#FB9300"/>
<path d="M81.6001 372.1L110.6 403.1L90.0001 425.4C90.0001 425.4 30.5001 368.9 14.6001 313.9L40.3001 301C53.5001 333.1 69.7001 357.1 81.6001 372.1Z" fill="#FB9300"/>
<path d="M40.4002 301.1L14.7002 314C12.5002 307.6 10.5002 300.9 8.70019 293.7C2.50019 268.8 -0.599806 241.3 0.100194 214L18.8002 208.3C21.3002 244.1 29.8002 275.2 40.4002 301.1Z" fill="#E08300"/>
<path d="M478 325.5L471.8 339.4C470.9 357.6 468 372.4 465.4 382.9C461.2 399.9 458.4 410.8 449.3 421.6C441.9 430.4 433.5 435.5 427.8 438.3C375.7 449 323.7 459.6 271.6 470.3L193.8 466.5L179 454.7L98.0999 390.6C98.0999 390.6 91.2999 384.3 81.6999 372.1C57.1999 341.1 14.2999 272.2 18.3999 173.4C19.6999 142.7 26.7999 116.6 37.8999 94.7999C76.3999 18.8999 162.6 -5.90011 217 1.09989C294.6 6.89989 472.9 95.6999 478 325.5Z" fill="#343F56"/>
<path d="M477.4 310C474.6 312.9 472.2 315.1 470.2 316.3C467 318.3 465.3 317.7 465.8 313.7C468.4 291.4 444.6 127 312.8 52.6001C182.4 -20.9999 83.6998 51.1001 81.6998 52.6001L67.2998 54.0001C110.8 10.0001 173.9 -4.39994 217 1.10006C292.8 6.80006 464.8 91.7001 477.4 310Z" fill="#1F2533"/>
<path d="M478 325.5C477.9 320.3 477.7 315.1 477.4 310C464.8 91.7001 292.8 6.80007 217 1.10007C173.9 -4.39993 110.8 10.0001 67.2998 54.1001C55.8998 65.6001 45.8998 79.1001 37.8998 94.9001C26.7998 116.7 19.6998 142.8 18.3998 173.5C14.1998 272.3 57.0998 341.2 81.6998 372.2C91.2998 384.4 98.0998 390.7 98.0998 390.7L179 454.8L199.7 452.8C199.7 452.8 102 402 69.5998 335.8C36.9998 269.5 -2.60023 163.6 72.7998 61.8001C72.7998 61.8001 75.7998 58.1001 81.5998 52.7001C104.9 31.1001 173.3 -17.8999 280.2 25.3001C426.1 84.2001 459.9 230.3 464.6 260.4C466.5 272.8 468.5 294.8 470.1 316.4C470.7 324.3 471.2 332.1 471.7 339.4C468.8 366.8 464.8 387.1 462.4 394.8C460.5 400.9 458.3 406.4 458.3 406.4C456.7 410.3 455.2 413.5 454.1 415.8L461.6 420C478.5 385.3 478 325.5 478 325.5Z" fill="#F54748"/>
<path d="M160.5 331.4L164.8 363.1L212.8 373.8C212.8 373.8 240.7 360.5 258.2 373.8C275.8 387.1 288.4 406.4 288.4 406.4H304.5C304.5 406.4 314.8 388.4 334.9 390.5C355 392.6 358.5 396.1 358.5 396.1C358.5 396.1 367.1 387.1 388.5 388L385.1 363.1C385.1 363.1 355.5 366.5 348.7 372.1C348.7 372.1 326.8 361.4 296.4 374.2C296.4 374.2 268.2 342.5 222.3 354.1L160.5 331.4Z" fill="#1F2533"/>
<path d="M302.2 220.1C288.9 229.2 282.3 247.3 285.2 265.7C283.6 265.9 282 266.1 280.4 266.3C279.4 256.3 278.9 244.5 279.8 231.3C280.9 214.8 283.8 200.6 286.9 189.2C288.4 190.8 301.9 205.3 322.6 203.3C346.3 201.1 356.9 179.5 357.3 178.5C354 175.6 328 153.6 298.5 161.5C290.8 163.6 284.6 167.2 279.9 170.8L275.4 164C279 159.1 286 148.1 286.3 133.2C287.1 102 258.5 83.4999 256.7 82.3999C252.9 84.9999 240.4 94.3999 236.5 111.3C232.2 129.5 239.5 149.3 255.1 162.4C253.8 163 252.5 163.7 251.2 164.3C246.1 158.5 230.2 141.9 203.6 136.7C184.5 132.9 168.9 136.8 161.2 139.3C166.2 146.2 200.5 192.3 237.1 185.6C240.1 185.1 243.2 184.1 246.4 182.7C251.8 191.1 258.3 203.2 262.8 218.7C268.4 238 268.7 254.8 267.9 266C265.9 265.8 263.8 265.6 261.8 265.3C262.1 258.8 261.9 240.1 249.6 221.3C236.9 201.8 219 194.3 213 192C207.9 190.1 198.2 187.3 186 188.5C174.1 189.6 165.3 193.8 160.6 196.5C164.2 207.8 173 230.3 194 250.8C217 273.3 242.2 281.3 253.8 284.2C256.5 301.2 259.1 318.3 261.8 335.3C264.7 335.2 267.6 335.1 270.5 335C269.1 319 267.7 303.1 266.3 287.1C267.6 287.4 268.9 287.7 270.2 288.1C272 308.5 273.8 328.8 275.7 349.2C279 349.7 282.4 350.3 285.7 350.8C284.4 330.5 283.1 310.1 281.8 289.7H286.3C287.5 305.9 288.7 322.1 289.8 338.2C292.5 338.8 295.1 339.5 297.8 340.1C297.2 323.8 296.5 307.5 295.9 291.2C300.3 291.7 325.4 294 346.7 275.8C363.4 261.5 367.5 243.2 368.6 237.5C351.9 213 321 207.2 302.2 220.1ZM313.3 172.8C317.7 172.3 321.4 172.9 325.3 173.5C331.9 174.5 337.2 176.3 340.7 177.8C338.7 180.1 336.7 181.7 334.8 182.9C319.3 192.7 298.4 182 295.7 180.6C303.1 174.5 310 173.2 313.3 172.8ZM205.9 163.6C194.5 158 187.7 150.1 184.5 145.8C190.4 145.8 200.1 146.5 211.1 151.2C224.1 156.7 232.2 165 236.2 169.6C230.7 170 218.8 170 205.9 163.6ZM204 241.4C184.2 227.7 174.5 210.4 170.6 202.2C178 202.2 196.5 203.2 215.2 215.5C237.5 230.2 245.4 251.5 247.6 258.1C238.5 256.9 221.5 253.4 204 241.4ZM254.1 130.8C252.2 118.1 255.2 107.3 257.7 100.6C261.8 105.2 269.6 115.4 270.3 129.5C270.8 139.9 267.5 152.4 263.7 152.6C259.8 152.9 255.5 140.1 254.1 130.8ZM267.8 191.2C265 186.4 262.2 181.6 259.4 176.8C261.4 175.5 263.4 174.1 265.4 172.7C268.3 174.8 271.1 177 274 179.1L267.8 191.2ZM339.6 262.9C321 273.8 301.9 268.1 298.7 267.1C298.8 265.7 300.3 245.8 317.8 236C330.9 228.6 347.6 230 360 239.6C358.1 244 352.5 255.4 339.6 262.9Z" fill="#1F2533"/>
<path d="M168.2 328.1L172.5 359.8L220.5 370.5C220.5 370.5 248.4 357.2 265.9 370.5C283.5 383.8 296.1 403.1 296.1 403.1H312.2C312.2 403.1 322.5 385.1 342.6 387.2C362.7 389.3 366.2 392.8 366.2 392.8C366.2 392.8 374.8 383.8 396.2 384.7L392.8 359.8C392.8 359.8 363.2 363.2 356.4 368.8C356.4 368.8 334.5 358.1 304.1 370.9C304.1 370.9 275.9 339.2 230 350.8L168.2 328.1Z" fill="#F5E6CA"/>
<path d="M309.9 216.8C296.6 225.9 290 244 292.9 262.4C291.3 262.6 289.7 262.8 288.1 263C287.1 253 286.6 241.2 287.5 228C288.6 211.5 291.5 197.3 294.6 185.9C296.1 187.5 309.6 202 330.3 200C354 197.8 364.6 176.2 365 175.2C361.7 172.3 335.7 150.3 306.2 158.2C298.5 160.3 292.3 163.9 287.6 167.5L283.1 160.7C286.7 155.8 293.7 144.8 294 129.9C294.8 98.7001 266.2 80.2001 264.4 79.1001C260.6 81.7001 248.1 91.1001 244.2 108C239.9 126.2 247.2 146 262.8 159.1C261.5 159.7 260.2 160.4 258.9 161C253.8 155.2 237.9 138.6 211.3 133.4C192.2 129.6 176.6 133.5 168.9 136C173.9 142.9 208.2 189 244.8 182.3C247.8 181.8 250.9 180.8 254.1 179.4C259.5 187.8 266 199.9 270.5 215.4C276.1 234.7 276.4 251.5 275.6 262.7C273.6 262.5 271.5 262.3 269.5 262C269.8 255.5 269.6 236.8 257.3 218C244.6 198.5 226.7 191 220.7 188.7C215.6 186.8 205.9 184 193.7 185.2C181.8 186.3 173 190.5 168.3 193.2C171.9 204.5 180.7 227 201.7 247.5C224.7 270 249.9 278 261.5 280.9C264.2 297.9 266.8 315 269.5 332C272.4 331.9 275.3 331.8 278.2 331.7C276.8 315.7 275.4 299.8 274 283.8C275.3 284.1 276.6 284.4 277.9 284.8C279.7 305.2 281.5 325.5 283.4 345.9C286.7 346.4 290.1 347 293.4 347.5C292.1 327.2 290.8 306.8 289.5 286.4H294C295.2 302.6 296.4 318.8 297.5 334.9C300.2 335.5 302.8 336.2 305.5 336.8C304.9 320.5 304.2 304.2 303.6 287.9C308 288.4 333.1 290.7 354.4 272.5C371.1 258.2 375.2 239.9 376.3 234.2C359.6 209.8 328.7 204 309.9 216.8ZM321 169.5C325.4 169 329.1 169.6 333 170.2C339.6 171.2 344.9 173 348.4 174.5C346.4 176.8 344.4 178.4 342.5 179.6C327 189.4 306.1 178.7 303.4 177.3C310.8 171.3 317.6 169.9 321 169.5ZM213.6 160.3C202.2 154.7 195.4 146.8 192.2 142.5C198.1 142.5 207.8 143.2 218.8 147.9C231.8 153.4 239.9 161.7 243.9 166.3C238.3 166.7 226.5 166.7 213.6 160.3ZM211.7 238.1C191.9 224.4 182.2 207.1 178.3 198.9C185.7 198.9 204.2 199.9 222.9 212.2C245.2 226.9 253.1 248.2 255.3 254.8C246.2 253.7 229.1 250.2 211.7 238.1ZM261.8 127.6C259.9 114.9 262.9 104.1 265.4 97.4001C269.5 102 277.3 112.2 278 126.3C278.5 136.7 275.2 149.2 271.4 149.4C267.5 149.6 263.2 136.8 261.8 127.6ZM275.5 188C272.7 183.2 269.9 178.4 267.1 173.6C269.1 172.3 271.1 170.9 273.1 169.5C276 171.6 278.8 173.8 281.7 175.9L275.5 188ZM347.2 259.7C328.6 270.6 309.5 264.9 306.3 263.9C306.4 262.5 307.9 242.6 325.4 232.8C338.5 225.4 355.2 226.8 367.6 236.4C365.8 240.7 360.2 252.1 347.2 259.7Z" fill="#F5E6CA"/>
<path d="M340.9 81L338.7 86.7C338.7 86.7 342.2 89.3 343.7 87.5C345.2 85.6 344.6 81.5 340.9 81Z" fill="#F5E6CA" stroke="black" stroke-miterlimit="10"/>
<path d="M57.8003 262.3L60.6003 269.6L95.5003 260.2L92.5003 252.3L57.8003 262.3Z" fill="#1F2533"/>
<path d="M46.7002 211.3L47.7002 218.8L85.2002 221.4V213.7L62.5002 211.3L82.9002 198.5V189.5L46.7002 187.3V194.4L67.9002 195.1L46.7002 211.3Z" fill="#1F2533"/>
<path d="M59.6002 137.2C52.1002 146.9 54.6002 158.4 60.1002 161.5C64.7002 164.1 73.0002 161.7 78.6002 154.6C78.8002 154.5 80.0002 153.9 81.3002 154.4C82.4002 154.8 83.2002 155.9 83.4002 157.1C82.3002 161.7 81.1002 166.2 80.0002 170.8C82.5002 171.6 85.0002 172.3 87.6002 173.1C89.2002 167.3 90.7002 161.5 92.3002 155.7C92.1002 151.3 89.3002 147.4 85.2002 145.9C81.0002 144.3 76.2002 145.5 73.1002 148.8C72.4002 153.3 68.4002 155.8 65.9002 155.1C63.3002 154.4 61.1002 150.2 62.8002 145.9C63.7002 144 64.6002 142.1 65.5002 140.3C63.6002 139.2 61.6002 138.2 59.6002 137.2Z" fill="#1F2533"/>
<path d="M78.7004 93.9001L66.4004 115.6L73.6004 119.8L78.7004 112.6L103 127.7L106.2 122L82.3004 105.7L86.3004 97.8001L78.7004 93.9001Z" fill="#1F2533"/>
<path d="M91.5 78.8L119.9 102.4L124.6 97.8L96.8 73.8L91.5 78.8Z" fill="#1F2533"/>
<path d="M114.3 59.2001L119.4 64.8001L126 61.1L145.3 82L149.6 79.8001L132 57.4001L138.7 53.1L134.5 47.3L114.3 59.2001Z" fill="#1F2533"/>
<path d="M152.4 40.6002L160.1 38.5002L172 58.2002C174 59.5002 176.5 59.6002 178.3 58.4002C180.3 57.0002 180.5 54.7002 180.6 54.4002C176.7 47.9002 172.9 41.3002 169 34.8002L175.4 32.7002L187.9 55.5002C187.8 56.4002 187 62.0002 182.1 65.1002C177.4 68.1002 170.9 67.7002 166 63.8002C161.4 56.1002 156.9 48.3002 152.4 40.6002Z" fill="#1F2533"/>
<path d="M193.2 31.6001L194.5 36.7001H202.2L212.5 61.1001H220L211.5 36.7001L216.3 36.4001L215.5 30.6001L193.2 31.6001Z" fill="#1F2533"/>
<path d="M256.3 39.6002L258.9 68.0002H265.2L264.5 56.1002C264.5 56.1002 272.9 57.7002 273.6 53.4002C274.3 49.1002 275 38.9002 256.3 39.6002ZM268.1 50.9002C267.5 51.5002 263.8 50.9002 263.8 50.9002L263.4 45.4002C269.7 44.8002 268.7 50.4002 268.1 50.9002Z" fill="#1F2533"/>
<path d="M298.2 57.2002L293.9 81.8002L308.4 88.2002L310.4 83.7002L301.2 78.4002L302.6 73.7002L310.4 76.7002L311.3 73.1002L303.3 69.6002L304.3 64.1002L311.8 66.9002L312.6 63.3002L298.2 57.2002Z" fill="#1F2533"/>
<path d="M334.9 81.8L324.7 100.8L330.5 104L333.9 96.3L334.9 96.8L336.3 109.1L343.8 114.1L340.7 97C340.7 97 346 97.4 346.6 92C347.2 86.6 342 81.8 334.9 81.8Z" fill="#1F2533"/>
<path d="M366.4 106.7L364 109.7L370.1 115.1L357.9 128.7L362.3 132.4L374.6 121.2L380.9 127.2L384.2 123.9L366.4 106.7Z" fill="#1F2533"/>
<path d="M400.3 146.2L375.8 150.4L379.7 155.4L384.2 154.5L389.6 161.1L388.3 167.6L391.9 171.6L404.4 151.5L400.3 146.2ZM391.9 158L388.4 152.9L396.1 153.9L391.9 158Z" fill="#1F2533"/>
<path d="M398.7 184.4L401.6 188.7L415.1 185.5L406.9 203L411.1 209L432.8 200.8L428.1 195.7L414.6 200.6L423.5 184.4L419.8 176.5L398.7 184.4Z" fill="#1F2533"/>
<path d="M416.4 226L417.9 232.5H443.5L440.4 226H416.4Z" fill="#1F2533"/>
<path d="M423.6 250V257.1L429.1 260.5L430 269.7L426.8 270.6L427.6 277L450.7 269.2V264.2L423.6 250ZM433.9 268.5V262.9L442.2 266.9L433.9 268.5Z" fill="#1F2533"/>
<path d="M429 290.5L426 297.8L442.3 302.4L425 310.9L425.8 317L449.9 319.1L450.4 314.5L437.7 312.6L450.4 304.8L449.8 298.7L429 290.5Z" fill="#1F2533"/>
<path d="M64.2002 257L67.0002 264.3L101.9 254.8L98.9002 246.9L64.2002 257Z" fill="#F5E6CA"/>
<path d="M53.1001 206L54.2001 213.4L91.7001 216.1V208.3L68.9001 206L89.3001 193.1V184.1L53.1001 182V189.1L74.3001 189.7L53.1001 206Z" fill="#F5E6CA"/>
<path d="M66.1002 131.8C58.6002 141.5 61.1002 153 66.6002 156.1C71.2002 158.7 79.5002 156.3 85.1002 149.2C85.3002 149.1 86.5002 148.5 87.8002 149C88.9002 149.4 89.7002 150.5 89.9002 151.7C88.8002 156.3 87.6002 160.8 86.5002 165.4C89.0002 166.2 91.5002 166.9 94.1002 167.7C95.7002 161.9 97.2002 156.1 98.8002 150.3C98.6002 145.9 95.8002 142 91.7002 140.5C87.5002 138.9 82.7002 140.1 79.6002 143.4C78.9002 147.9 74.9002 150.4 72.4002 149.7C69.8002 149 67.6002 144.8 69.3002 140.5C70.2002 138.6 71.1002 136.7 72.0002 134.9C70.0002 133.8 68.0002 132.8 66.1002 131.8Z" fill="#F5E6CA"/>
<path d="M85.1003 88.5999L72.8003 110.3L80.0003 114.4L85.1003 107.2L109.5 122.3L112.7 116.7L88.7003 100.3L92.7003 92.3999L85.1003 88.5999Z" fill="#F5E6CA"/>
<path d="M97.8999 73.5L126.3 97.1L131 92.4L103.2 68.5L97.8999 73.5Z" fill="#F5E6CA"/>
<path d="M120.7 53.8L125.8 59.5L132.4 55.8L151.7 76.7L156.1 74.4L138.4 52.1L145.1 47.7L141 42L120.7 53.8Z" fill="#F5E6CA"/>
<path d="M158.8 35.1999L166.5 33.0999L178.4 52.8999C180.4 54.1999 182.9 54.2999 184.7 53.0999C186.7 51.6999 186.9 49.3999 187 49.0999C183.1 42.5999 179.3 35.9999 175.4 29.4999L181.8 27.3999L194.3 50.1999C194.2 51.0999 193.4 56.6999 188.5 59.7999C183.8 62.7999 177.3 62.3999 172.4 58.4999C167.9 50.6999 163.3 42.9999 158.8 35.1999Z" fill="#F5E6CA"/>
<path d="M199.6 26.2L200.9 31.2999H208.6L218.9 55.7999H226.5L217.9 31.2999L222.8 31L222 25.2L199.6 26.2Z" fill="#F5E6CA"/>
<path d="M262.8 34.2001L265.4 62.6001H271.7L271 50.8001C271 50.8001 279.4 52.4001 280.1 48.1001C280.8 43.7001 281.4 33.5001 262.8 34.2001ZM274.5 45.6001C273.9 46.2001 270.2 45.6001 270.2 45.6001L269.8 40.1001C276.2 39.4001 275.1 45.0001 274.5 45.6001Z" fill="#F5E6CA"/>
<path d="M304.6 51.8L300.3 76.5L314.8 82.9001L316.8 78.4001L307.6 73L309 68.3001L316.8 71.3001L317.7 67.8001L309.8 64.2L310.7 58.8L318.2 61.6L319.1 57.9001L304.6 51.8Z" fill="#F5E6CA"/>
<path d="M341.4 76.5L331.2 95.5L337 98.7L340.4 91L341.4 91.5L342.8 103.8L350.3 108.8L347.2 91.7C347.2 91.7 352.5 92.1 353.1 86.7C353.7 81.3 348.4 76.5 341.4 76.5Z" fill="#F5E6CA"/>
<path d="M372.8 101.3L370.5 104.3L376.6 109.8L364.3 123.4L368.7 127.1L381.1 115.9L387.3 121.8L390.6 118.5L372.8 101.3Z" fill="#F5E6CA"/>
<path d="M406.7 140.8L382.2 145L386.1 150L390.6 149.1L396 155.7L394.7 162.2L398.3 166.2L410.8 146.1L406.7 140.8ZM398.4 152.6L394.9 147.5L402.6 148.5L398.4 152.6Z" fill="#F5E6CA"/>
<path d="M405.2 179L408.1 183.4L421.6 180.2L413.4 197.7L417.5 203.6L439.2 195.4L434.6 190.3L421.1 195.3L429.9 179L426.2 171.2L405.2 179Z" fill="#F5E6CA"/>
<path d="M422.8 220.7L424.3 227.1H449.9L446.8 220.7H422.8Z" fill="#F5E6CA"/>
<path d="M430.1 244.7V251.8L435.6 255.2L436.5 264.4L433.3 265.3L434.1 271.7L457.2 263.9V258.9L430.1 244.7ZM440.4 263.1V257.5L448.7 261.5L440.4 263.1Z" fill="#F5E6CA"/>
<path d="M435.4 285.2L432.5 292.5L448.8 297.1L431.4 305.5L432.3 311.6L456.4 313.8L456.8 309.2L444.1 307.2L456.8 299.5L456.3 293.3L435.4 285.2Z" fill="#F5E6CA"/>
</g>
<defs>
<clipPath id="clip0">
<rect width="478" height="470.3" fill="white"/>
</clipPath>
</defs>
</svg>
