<svg width="40" height="40" viewBox="0 0 40 40" fill="none" xmlns="http://www.w3.org/2000/svg">
<path d="M38.2894 17.2738L4.30325 0.280718C3.84476 0.0682947 3.34042 -0.0260807 2.83615 0.00618255C2.33187 0.0384458 1.84367 0.196323 1.41598 0.465443C0.988302 0.734563 0.634721 1.10638 0.38743 1.54704C0.140138 1.98771 0.00698866 2.48322 0.000102765 2.98849V36.96C-0.00417898 37.4786 0.125406 37.9896 0.376334 38.4436C0.627262 38.8975 0.991046 39.279 1.43252 39.5513C1.874 39.8235 2.37825 39.9773 2.89652 39.9977C3.41479 40.0181 3.92956 39.9044 4.39107 39.6677L38.2894 22.6747C38.7915 22.4226 39.2137 22.0359 39.5087 21.5577C39.8037 21.0795 39.9599 20.5288 39.9599 19.9669C39.9599 19.4051 39.8037 18.8543 39.5087 18.3761C39.2137 17.8979 38.7915 17.5112 38.2894 17.2591V17.2738Z" fill="#EC4445"/>
</svg>
