<svg width="308" height="308" viewBox="0 0 308 308" fill="none" xmlns="http://www.w3.org/2000/svg">
<g opacity="0.16">
<circle r="13.6117" transform="matrix(-0.707107 -0.707107 -0.707107 0.707107 288.749 154)" fill="#F8F8F8"/>
<ellipse rx="13.6117" ry="13.6117" transform="matrix(-0.707107 -0.707107 -0.707107 0.707107 255.063 187.687)" fill="#F8F8F8"/>
<ellipse rx="13.6117" ry="13.6117" transform="matrix(-0.707107 -0.707107 -0.707107 0.707107 221.375 221.375)" fill="#F8F8F8"/>
<ellipse rx="13.6117" ry="13.6117" transform="matrix(-0.707107 -0.707107 -0.707107 0.707107 187.688 255.062)" fill="#F8F8F8"/>
<ellipse rx="13.6117" ry="13.6117" transform="matrix(-0.707107 -0.707107 -0.707107 0.707107 154 288.749)" fill="#F8F8F8"/>
<ellipse rx="13.6117" ry="13.6117" transform="matrix(-0.707107 -0.707107 -0.707107 0.707107 255.063 120.313)" fill="#F8F8F8"/>
<circle r="13.6117" transform="matrix(-0.707107 -0.707107 -0.707107 0.707107 221.375 154)" fill="#F8F8F8"/>
<ellipse rx="13.6117" ry="13.6117" transform="matrix(-0.707107 -0.707107 -0.707107 0.707107 187.688 187.687)" fill="#F8F8F8"/>
<ellipse rx="13.6117" ry="13.6117" transform="matrix(-0.707107 -0.707107 -0.707107 0.707107 154 221.375)" fill="#F8F8F8"/>
<ellipse rx="13.6117" ry="13.6117" transform="matrix(-0.707107 -0.707107 -0.707107 0.707107 120.313 255.062)" fill="#F8F8F8"/>
<ellipse rx="13.6117" ry="13.6117" transform="matrix(-0.707107 -0.707107 -0.707107 0.707107 221.375 86.6248)" fill="#F8F8F8"/>
<ellipse rx="13.6117" ry="13.6117" transform="matrix(-0.707107 -0.707107 -0.707107 0.707107 187.688 120.313)" fill="#F8F8F8"/>
<circle r="13.6117" transform="matrix(-0.707107 -0.707107 -0.707107 0.707107 154 154)" fill="#F8F8F8"/>
<circle r="13.6117" transform="matrix(-0.707107 -0.707107 -0.707107 0.707107 120.313 187.687)" fill="#F8F8F8"/>
<circle r="13.6117" transform="matrix(-0.707107 -0.707107 -0.707107 0.707107 86.6251 221.375)" fill="#F8F8F8"/>
<ellipse rx="13.6117" ry="13.6117" transform="matrix(-0.707107 -0.707107 -0.707107 0.707107 187.688 52.9377)" fill="#F8F8F8"/>
<ellipse rx="13.6117" ry="13.6117" transform="matrix(-0.707107 -0.707107 -0.707107 0.707107 154 86.6248)" fill="#F8F8F8"/>
<circle r="13.6117" transform="matrix(-0.707107 -0.707107 -0.707107 0.707107 120.313 120.313)" fill="#F8F8F8"/>
<circle r="13.6117" transform="matrix(-0.707107 -0.707107 -0.707107 0.707107 86.6251 154)" fill="#F8F8F8"/>
<circle r="13.6117" transform="matrix(-0.707107 -0.707107 -0.707107 0.707107 52.9376 187.687)" fill="#F8F8F8"/>
<ellipse rx="13.6117" ry="13.6117" transform="matrix(-0.707107 -0.707107 -0.707107 0.707107 154 19.251)" fill="#F8F8F8"/>
<ellipse rx="13.6117" ry="13.6117" transform="matrix(-0.707107 -0.707107 -0.707107 0.707107 120.313 52.9377)" fill="#F8F8F8"/>
<circle r="13.6117" transform="matrix(-0.707107 -0.707107 -0.707107 0.707107 86.6251 86.6248)" fill="#F8F8F8"/>
<circle r="13.6117" transform="matrix(-0.707107 -0.707107 -0.707107 0.707107 52.9376 120.313)" fill="#F8F8F8"/>
<circle r="13.6117" transform="matrix(-0.707107 -0.707107 -0.707107 0.707107 19.2511 154)" fill="#F8F8F8"/>
</g>
</svg>
