<svg width="143" height="122" viewBox="0 0 143 122" fill="none" xmlns="http://www.w3.org/2000/svg">
<path d="M119.918 37.0271C116.867 29.8133 112.5 23.3347 106.938 17.7729C101.376 12.2111 94.8974 7.84376 87.6836 4.79307C80.2114 1.63236 72.2782 0.0292969 64.1023 0.0292969C55.9263 0.0292969 47.9931 1.63236 40.5209 4.79307C40.156 4.94848 39.7928 5.10564 39.4313 5.26804H39.4295C36.6076 6.52709 33.9061 7.98694 31.3287 9.64937C31.3252 9.65287 31.3235 9.65287 31.3235 9.65287C27.7105 11.9789 24.3489 14.6925 21.2668 17.7747C15.705 23.3365 11.3376 29.8151 8.28692 37.0288C6.15825 42.0597 4.73683 47.3002 4.03658 52.6839C3.69432 55.2946 3.5249 57.9401 3.5249 60.6101C3.5249 68.7861 5.12796 76.7193 8.28867 84.1915C11.3394 91.4052 15.7067 97.8838 21.2686 103.446C26.8304 109.007 33.3089 113.375 40.5227 116.425C47.9949 119.586 55.9281 121.189 64.104 121.189C65.5133 121.189 66.9137 121.14 68.3072 121.046C71.1082 120.854 73.8778 120.473 76.6036 119.901C76.6036 119.901 76.6054 119.901 76.6071 119.899C80.3913 119.106 84.0933 117.946 87.6871 116.425C94.9008 113.375 101.379 109.007 106.941 103.446C112.503 97.8838 116.87 91.4052 119.921 84.1915C123.082 76.7193 124.685 68.7861 124.685 60.6101C124.681 52.4325 123.078 44.4993 119.918 37.0271ZM93.6977 99.5113C92.4613 100.454 91.1779 101.34 89.8542 102.164C89.8542 102.164 89.8542 102.164 89.8542 102.166C82.3715 106.819 73.5442 109.51 64.1023 109.51C37.1385 109.51 15.2021 87.574 15.2021 60.6101C15.2021 54.3114 16.3982 48.2869 18.5776 42.753C25.3286 25.5979 41.511 13.1488 60.7058 11.8269H60.7075C61.8286 11.7484 62.962 11.7082 64.1023 11.7082C65.0942 11.7082 66.079 11.7379 67.0552 11.7973C92.6499 13.3287 113.002 34.6365 113.002 60.6084C113.002 60.9873 112.997 61.3628 112.988 61.7382C112.641 77.1297 105.144 90.787 93.6977 99.5113Z" fill="black"/>
<path d="M119.918 84.1922C116.867 91.4059 112.5 97.8845 106.938 103.446C101.376 109.008 94.8975 113.376 87.6837 116.426C84.0899 117.947 80.3878 119.107 76.6037 119.899C76.602 119.901 76.6002 119.901 76.6002 119.901C73.8743 120.476 71.1065 120.856 68.3038 121.047C66.9103 121.141 65.5081 121.19 64.1006 121.19C55.9247 121.19 47.9915 119.587 40.5193 116.426C33.3055 113.376 26.8269 109.008 21.2651 103.446C15.7033 97.8845 11.336 91.4059 8.28525 84.1922C5.12455 76.72 3.52148 68.7868 3.52148 60.6109C3.52148 57.9409 3.69265 55.2953 4.03317 52.6846C4.73341 47.301 6.15483 42.0605 8.28351 37.0295C11.3342 29.8158 15.7016 23.3372 21.2634 17.7754C21.2634 17.7754 17.1981 26.8716 18.5742 42.7537C16.3949 48.2876 15.1987 54.3122 15.1987 60.6109C15.1987 87.5747 37.135 109.511 64.0989 109.511C73.5408 109.511 82.3681 106.82 89.8508 102.166C89.8508 102.165 89.8508 102.165 89.8508 102.165C91.1744 101.342 92.4579 100.455 93.6943 99.5138V99.512C105.141 90.7878 112.638 77.1304 112.987 61.7389C114.022 62.4514 121.131 67.973 119.918 84.1922Z" fill="black"/>
<path d="M121.292 52.3458C121.292 63.4537 117.621 73.9853 110.852 82.5716C112.373 81.3737 113.835 80.0745 115.227 78.6828C119.044 74.8655 122.154 70.5295 124.485 65.8304C124.637 64.1016 124.711 62.3571 124.714 60.6073C124.714 52.7388 123.221 45.0692 120.277 37.8066C117.385 30.6749 113.208 24.2365 107.847 18.6572C116.526 27.7866 121.292 39.7013 121.292 52.3458Z" fill="black"/>
<path d="M42.1414 13.8615C50.7277 7.09304 61.2593 3.42244 72.3637 3.41895C85.0117 3.42244 96.9264 8.18793 106.058 16.8685C106.36 17.1567 106.66 17.45 106.959 17.7486C107.257 18.0473 107.554 18.3511 107.846 18.6567C116.525 27.7861 121.288 39.7007 121.288 52.3436C121.288 63.4515 117.618 73.9831 110.849 82.5694C109.286 83.8022 107.659 84.9355 105.975 85.9571C110.572 78.3889 113.027 69.6856 113.027 60.6068C113.027 47.5397 107.938 35.2531 98.6953 26.0102C89.4577 16.7725 77.1694 11.6822 64.0987 11.6787C55.0199 11.6787 46.3201 14.1374 38.7554 18.737C39.7787 17.0554 40.9085 15.4244 42.1414 13.8615Z" fill="black"/>
<path d="M21.2423 17.7488C22.6306 16.3605 24.0712 15.0473 25.5713 13.8145C21.6544 18.5555 18.5094 23.8205 16.1922 29.5394C13.2445 36.8056 11.7515 44.4768 11.755 52.3472C11.755 60.2158 13.2445 67.8888 16.1887 75.1514C19.0874 82.2831 23.2645 88.7215 28.6254 94.3008C28.9136 94.6029 29.207 94.9033 29.5056 95.2019C29.8042 95.5005 30.108 95.7973 30.4136 96.0889C35.9929 101.45 42.4313 105.627 49.5595 108.522C56.8221 111.466 64.4969 112.956 72.3637 112.956C80.2306 112.956 87.9054 111.466 95.1715 108.519C100.89 106.201 106.157 103.056 110.893 99.1362C109.66 100.636 108.347 102.077 106.959 103.465C101.175 109.249 94.4311 113.731 86.9082 116.782C79.6456 119.726 71.9674 121.219 64.1005 121.219C56.2319 121.219 48.5624 119.726 41.2997 116.782C33.7769 113.731 27.0294 109.252 21.2423 103.465C15.4587 97.6815 10.9796 90.934 7.92891 83.4112C4.98473 76.1485 3.49171 68.4773 3.49171 60.6104C3.48821 52.7383 4.98473 45.0653 7.92891 37.8027C10.9796 30.2798 15.4587 23.5323 21.2423 17.7488Z" fill="black"/>
<path d="M121.292 52.3458C121.292 63.4537 117.621 73.9853 110.852 82.5716C112.373 81.3737 113.835 80.0745 115.227 78.6828C119.044 74.8655 122.154 70.5295 124.485 65.8304C124.637 64.1016 124.711 62.3571 124.714 60.6073C124.714 52.7388 123.221 45.0692 120.277 37.8066C117.385 30.6749 113.208 24.2365 107.847 18.6572C116.526 27.7866 121.292 39.7013 121.292 52.3458Z" fill="black"/>
<path d="M30.4136 96.0926C39.543 104.771 51.4541 109.539 64.1005 109.535C71.7717 109.535 79.1706 107.785 85.8448 104.471C91.892 103.961 97.7874 102.545 103.433 100.259C107.315 98.6875 110.987 96.7334 114.426 94.4092C113.334 96.0437 112.154 97.617 110.893 99.1398C106.155 103.06 100.89 106.205 95.1715 108.522C87.9053 111.47 80.2305 112.96 72.3637 112.96C64.4968 112.96 56.8221 111.47 49.5595 108.526C42.4313 105.629 35.9928 101.452 30.4136 96.0926Z" fill="black"/>
<path d="M25.5712 13.8149C27.0922 12.5541 28.6673 11.3736 30.3018 10.2822C27.981 13.7223 26.0252 17.3964 24.4553 21.2783C22.1625 26.931 20.7498 32.8298 20.2399 38.884C16.9255 45.5512 15.1758 52.9431 15.1758 60.6074C15.1758 73.2589 19.9448 85.1701 28.6254 94.3012C23.2644 88.7219 19.0874 82.2835 16.1886 75.1518C13.2444 67.8892 11.7549 60.2144 11.7549 52.3476C11.7514 44.4755 13.2444 36.806 16.1921 29.5399C18.5094 23.8209 21.6543 18.5559 25.5712 13.8149Z" fill="black"/>
<path d="M30.3016 10.282C33.7418 7.96125 37.4159 6.00721 41.2978 4.43558C46.9504 2.14276 52.8492 0.730045 58.9 0.223633C54.1938 2.55487 49.8527 5.66495 46.0301 9.48574C44.6384 10.8775 43.3391 12.3391 42.1412 13.8601C40.9084 15.423 39.7785 17.054 38.757 18.7374C37.0736 19.7589 35.4426 20.8887 33.8797 22.1216C32.3587 23.3195 30.8971 24.6187 29.5054 26.0105C25.6846 29.8313 22.571 34.1777 20.2397 38.8838C20.7497 32.8296 22.1624 26.9307 24.4552 21.2781C26.0251 17.3962 27.9791 13.7239 30.3016 10.282Z" fill="black"/>
<path d="M46.0302 9.48738C49.851 5.66659 54.1939 2.55651 58.9001 0.225273C60.6219 0.0733493 62.3594 0 64.1056 0C71.9742 0 79.6437 1.49305 86.9064 4.43722C94.0415 7.3325 100.48 11.5095 106.059 16.8705C96.9264 8.18816 85.0117 3.42441 72.3654 3.42092C61.261 3.42441 50.7294 7.09501 42.1431 13.8635C43.3392 12.339 44.6385 10.8774 46.0302 9.48738Z" fill="black"/>
<path d="M115.225 78.6825C119.043 74.8652 122.153 70.5292 124.484 65.8301C123.974 71.8773 122.561 77.7692 120.275 83.4148C118.704 87.2967 116.75 90.9691 114.426 94.4074C110.989 96.7317 107.315 98.6875 103.433 100.257C97.7873 102.543 91.892 103.959 85.8447 104.469C90.5439 102.138 94.8815 99.0245 98.7006 95.2072C100.092 93.8155 101.392 92.3539 102.589 90.8329C103.822 89.27 104.956 87.6425 105.977 85.9591C107.661 84.9375 109.288 83.8042 110.851 82.5714C112.374 81.3734 113.835 80.0742 115.225 78.6825Z" fill="black"/>
<path d="M31.8389 51.1782L29.2213 59.1132L24.9115 60.009L21.0401 60.814L18.0173 57.4263L15.4766 54.5799L18.0959 46.6432L22.128 45.805L26.2753 44.9424L29.0379 48.0385L29.4535 48.5047L31.8389 51.1782Z" fill="black"/>
<path d="M53.7942 85.073L51.1766 93.0097L47.0729 93.8618L42.9954 94.7088L40.3708 91.7681V91.7663L37.4336 88.4747L40.0495 80.5415L44.0641 79.7068H44.0658L48.2306 78.8389L51.1626 82.1253L53.7942 85.073Z" fill="black"/>
<path d="M35.1147 66.5001L32.5093 74.4019L28.2519 75.2872H28.2502L24.3648 76.0957L21.4625 72.8442L18.8257 69.8878L21.4311 61.9878L25.4579 61.1496L29.5756 60.2939L32.4761 63.5455L35.1147 66.5001Z" fill="black"/>
<path d="M37.8074 81.3779L35.3871 88.7138L31.5733 89.5066L27.8241 90.2855L24.9061 87.0147L22.7966 84.6503L22.6831 84.5246L23.0935 83.2795L25.1017 77.1886L28.6308 76.4534L32.6647 75.6152L34.7829 77.9901L37.8074 81.3779Z" fill="black"/>
<path d="M19.5941 61.8746L17.0673 69.5406L13.0072 70.3841L9.16374 71.1821L6.3523 68.0301L3.79053 65.1593L6.31909 57.4967L10.2918 56.6708L11.1754 56.4874L11.2103 56.4787L14.2191 55.8535L14.2593 55.8972L17.0009 58.9706L19.5941 61.8746Z" fill="black"/>
<path d="M22.9922 76.2894L20.626 83.4648L17.2453 84.1668L13.2289 85.0015L10.9011 82.3926L8.19971 79.3646L10.5659 72.191L14.0392 71.4698L17.963 70.6543L20.8007 73.8342L20.8024 73.836L22.9922 76.2894Z" fill="black"/>
<path d="M40.9229 95.6174L38.5584 102.793L34.9524 103.54L31.1613 104.329L28.5315 101.382L26.1304 98.6925L28.4983 91.5189L31.8843 90.8152L31.893 90.8134L35.8937 89.9805L38.4502 92.8461L40.9229 95.6174Z" fill="black"/>
<path d="M15.7403 48.5542L13.7514 54.5822L10.6378 55.2283L7.53646 55.8745L5.27857 53.3459L3.31055 51.1386L5.29955 45.1088L8.26817 44.4924H8.26992L11.5144 43.8184L13.7619 46.3364L15.7403 48.5542Z" fill="black"/>
<path d="M26.5825 37.8286L24.5569 43.9701L21.2984 44.6477L18.2233 45.2868L16.023 42.8211L13.917 40.4602L15.9427 34.3186L18.9776 33.6882L22.2746 33.002L24.749 35.775L26.5825 37.8286Z" fill="black"/>
<path d="M42.3934 41.0294L40.6908 46.1913L37.9806 46.7571L35.3682 47.2984L33.973 45.7338L33.5154 45.2204L31.75 43.2419L33.4526 38.0817L36.0597 37.5387L38.7734 36.9746L40.8444 39.2919L42.3934 41.0294Z" fill="black"/>
<path d="M47.4748 65.4679L45.7722 70.6315L43.1178 71.1833H43.1161L40.4496 71.7387L38.6649 69.7374L36.8296 67.6821L38.5339 62.5202L41.0747 61.9928L43.8565 61.4131L45.739 63.5243L47.4748 65.4679Z" fill="black"/>
<path d="M64.1932 95.8848L62.5464 100.877L59.8153 101.447L57.3967 101.949L56.1395 100.54L53.8955 98.0239L55.544 93.0314L57.8194 92.5582L60.6919 91.9609L62.5744 94.0704L64.1932 95.8848Z" fill="black"/>
<path d="M54.51 101.002L52.1456 108.178L48.5396 108.927L44.7468 109.716L42.2235 106.889L41.4254 105.993L39.7158 104.079L42.0855 96.9039L43.3759 96.6367L45.4714 96.2002L45.4802 96.1984L49.4791 95.3672L52.0496 98.2467L54.51 101.002Z" fill="black"/>
<path d="M38.3926 25.06L36.0264 32.2353L32.4221 32.9844L28.6293 33.772L27.3895 32.382L26.1095 30.95L25.8074 30.6113L23.6001 28.1368L25.9663 20.9615L29.3523 20.2578L29.361 20.256L33.3617 19.4248L36.0753 22.4633L38.3926 25.06Z" fill="black"/>
<path d="M11.4584 37.7042L9.75577 42.8678L7.10318 43.4179H7.10144L4.43491 43.9732L2.6485 41.9738L0.814941 39.9184L2.51753 34.7565L5.05833 34.2274L7.8401 33.6494L9.72256 35.7606L11.4584 37.7042Z" fill="black"/>
<path d="M26.5876 91.4226L23.9718 99.3593L19.8663 100.211L15.7906 101.058L13.166 98.1177L13.1642 98.1142L10.2271 94.8243L12.8447 86.8911L16.8576 86.0564H16.8593L21.0241 85.1885L23.9578 88.4749L26.5876 91.4226Z" fill="black"/>
<path d="M61.5374 70.9428L59.1712 78.1181L55.567 78.8672L51.7741 79.6548L49.1443 76.7089L46.7432 74.0197L49.1111 66.8443L52.4971 66.1406L52.5058 66.1388L56.5065 65.3076L59.0647 68.1732L61.5374 70.9428Z" fill="black"/>
<path d="M38.3766 25.0215L36.0104 32.1968L32.4044 32.946L28.6133 33.7353L27.3735 32.3435L26.0952 30.9116C26.0952 30.9116 33.2059 27.7718 36.0593 22.4248L38.3766 25.0215Z" fill="black"/>
<path d="M42.3772 40.9897L40.6746 46.1533L37.9644 46.7174L35.3521 47.2605L33.9551 45.6958L33.4976 45.1824C33.4976 45.1824 38.9389 43.4816 40.8266 39.2539L42.3772 40.9897Z" fill="black"/>
<path d="M26.5669 37.788L24.5413 43.9295L21.2828 44.6071L18.2076 45.2462L16.0073 42.7805C16.0073 42.7805 21.7455 41.9388 24.7333 35.7344L26.5669 37.788Z" fill="black"/>
<path d="M31.823 51.1388L29.2054 59.0755L24.8956 59.9696L21.0242 60.7746L18.0015 57.3869C18.0015 57.3869 27.4766 53.2517 29.022 47.999L29.4376 48.4653L31.823 51.1388Z" fill="black"/>
<path d="M13.7355 54.5434L10.622 55.1896L7.52063 55.8339L5.2627 53.3053C5.2627 53.3053 10.7564 51.9363 13.746 46.2959L15.7245 48.5136L13.7355 54.5434Z" fill="black"/>
<path d="M19.5782 61.8364L17.0514 69.5024L12.9914 70.3459L9.14786 71.1439L6.33643 67.9919C6.33643 67.9919 13.0944 64.5972 16.985 58.9307L19.5782 61.8364Z" fill="black"/>
<path d="M47.4589 65.4301L45.7564 70.5938L43.1038 71.1456H43.1021L40.4355 71.7009L38.6509 69.7014C38.6509 69.7014 43.3885 68.9802 45.7249 63.4883L47.4589 65.4301Z" fill="black"/>
<path d="M37.7919 81.3399L35.3716 88.6759L31.5578 89.4686H31.556L27.8086 90.2492L24.8906 86.9785C32.6195 86.3464 34.7674 77.9521 34.7674 77.9521L37.7919 81.3399Z" fill="black"/>
<path d="M53.7787 85.0344L51.1628 92.9711L47.0573 93.8232L42.9799 94.6702L40.3553 91.7295L40.3535 91.726C40.3535 91.726 46.9264 89.4471 51.147 82.085L53.7787 85.0344Z" fill="black"/>
<path d="M20.787 73.7959L22.9768 76.2494L20.6106 83.4247L17.2298 84.1267L13.2135 84.9614L10.8857 82.3525C10.8857 82.3525 18.8608 79.817 20.787 73.7959Z" fill="black"/>
<path d="M23.6176 76.1431C23.5006 76.0208 23.3872 75.8986 23.2754 75.7764L23.6002 76.0348L23.6176 76.1431Z" fill="black"/>
<path d="M23.5984 76.0348L23.6176 76.1431C23.5006 76.0208 23.3872 75.8986 23.2754 75.7764L23.5984 76.0348Z" fill="black"/>
<path d="M35.0991 66.4615L32.4938 74.3632L28.2364 75.2486L28.2346 75.2504L24.3492 76.0589L21.4487 72.8074C21.4487 72.8074 30.3843 69.0372 32.4623 63.5068L35.0991 66.4615Z" fill="black"/>
<path d="M40.9073 95.5772L38.5411 102.752L34.9351 103.502L31.144 104.291L28.5142 101.343C28.5142 101.343 35.5568 98.8095 38.4346 92.8076L40.9073 95.5772Z" fill="black"/>
<path d="M54.4932 100.965L52.1287 108.14L48.5228 108.889L44.7299 109.678L42.2065 106.851C42.2065 106.851 48.3376 104.972 52.0327 98.209L54.4932 100.965Z" fill="black"/>
<path d="M64.1777 95.8446L62.531 100.839L59.7999 101.406L57.3814 101.909L56.124 100.5C59.2568 99.2114 62.559 94.0303 62.559 94.0303L64.1777 95.8446Z" fill="black"/>
<path d="M11.4423 37.6664L9.73975 42.8301L7.08721 43.3819H7.08546L4.41894 43.9372L2.63428 41.9378C2.63428 41.9378 7.37185 41.2166 9.70833 35.7246L11.4423 37.6664Z" fill="black"/>
<path d="M26.5719 91.384L23.9543 99.3207L19.8488 100.173L15.7714 101.02L13.1468 98.0791L13.145 98.0756C13.145 98.0756 19.7179 95.7968 23.9386 88.4346L26.5719 91.384Z" fill="black"/>
<path d="M61.5215 70.9024L59.1554 78.0777L55.5494 78.8268L51.7582 79.6161L49.1284 76.6685C49.1284 76.6685 56.171 74.1347 59.0488 68.1328L61.5215 70.9024Z" fill="black"/>
<path d="M59.4487 61.7424L56.3491 54.5146C56.3491 54.5146 56.3509 54.5147 56.3526 54.5164C56.4225 54.5531 57.5418 55.166 58.5494 55.4803C58.5494 55.4803 58.9004 58.4053 59.1955 60.3227C59.1955 60.3227 59.1955 60.3244 59.1955 60.3262C59.2898 60.9513 59.3771 61.47 59.4487 61.7424Z" fill="black"/>
<path d="M66.6656 51.8136C66.6761 53.5144 63.7127 57.1117 56.457 54.2129C56.457 54.2129 65.2057 50.221 66.3932 51.1378C66.573 51.274 66.6638 51.5149 66.6656 51.8136Z" fill="black"/>
<path d="M80.0839 94.2089C80.0821 94.2124 80.0804 94.2142 80.0804 94.2142L80.0786 94.2159C81.0373 82.9649 86.3494 75.7948 87.8407 76.0846C87.9332 76.1021 88.0118 76.1492 88.0729 76.2261V76.2296C90.6033 79.4043 80.3388 93.8492 80.0839 94.2089Z" fill="black"/>
<path d="M79.3609 94.1144C79.3609 94.1144 76.3032 95.1673 74.0977 95.9968C73.2141 96.3286 72.4684 96.6237 72.1069 96.8018L79.9511 91.2383C79.9511 91.2383 79.9494 91.2453 79.9441 91.2575C79.89 91.4444 79.4744 92.878 79.3609 94.1144Z" fill="black"/>
<path d="M75.5925 72.0471C75.5925 72.0471 71.9202 75.8085 70.6262 77.3277C70.497 77.4779 70.3939 77.6054 70.3188 77.7066L70.5214 77.3242C70.5214 77.3242 70.5214 77.3225 70.5232 77.3225L74.8277 69.2129C74.8277 69.2129 74.8277 69.2146 74.8277 69.2181C74.8451 69.3124 75.121 70.8491 75.5925 72.0471Z" fill="black"/>
<path d="M76.0973 70.3938C71.73 62.1114 76.2615 58.4495 77.9536 58.8092C78.1107 58.8407 78.2452 58.9105 78.3447 59.0136C79.5008 60.2237 76.0973 70.3938 76.0973 70.3938Z" fill="black"/>
<path d="M109.585 48.2718C102.848 48.1076 95.6446 47.706 86.2236 45.8323C92.9973 46.0855 99.0865 45.5895 104.528 44.5977L109.585 48.2718Z" fill="black"/>
<path d="M130.936 42.1964C126.15 44.6744 119.876 47.0492 110.832 48.0411C109.007 46.7646 107.299 45.5038 105.785 44.3548C111.991 43.1167 117.328 41.229 121.849 39.0898L130.936 42.1964Z" fill="black"/>
<path d="M131.537 41.8701C128.41 40.7997 125.425 39.6402 122.883 38.5907C135.919 32.1296 141.805 23.6952 141.955 23.4769C141.957 23.4752 141.957 23.4734 141.957 23.4734L141.959 23.4717C141.959 23.4717 143.766 33.5318 131.537 41.8701Z" fill="black"/>
<path d="M140.811 23.9883C140.717 24.1175 133.344 32.8627 120.05 38.9589C117.195 37.6771 113.771 36.0531 112.475 35.4035C124.268 30.6886 137.738 26.0751 140.806 23.9918C140.81 23.99 140.811 23.9883 140.811 23.9883Z" fill="black"/>
<path d="M101.662 44.2345C96.1929 45.0623 89.4629 45.3678 82.6997 44.9121C82.6997 44.9121 86.5379 43.6268 81.1909 42.1146C81.1909 42.1146 88.2493 41.1681 96.4584 40.04L101.662 44.2345Z" fill="black"/>
<path d="M119.002 39.4289C114.42 41.4336 109.03 43.1572 102.789 44.2084C100.18 42.1042 98.1714 40.3562 97.1865 39.4848C101.278 38.3951 107.348 37.1937 111.862 35.9521L119.002 39.4289Z" fill="black"/>
<path d="M100.073 37.712C95.9452 38.7754 91.5324 39.7795 85.8571 40.3855C85.8501 40.3855 85.8431 40.3872 85.8344 40.3889C85.4712 40.4291 85.1027 40.464 84.7273 40.5007C84.275 40.5444 83.814 40.5845 83.3442 40.6212C83.5276 40.5758 83.7127 40.5304 83.8943 40.4833H83.896C88.4241 39.3395 92.3793 37.8464 95.8299 36.1543L97.9044 36.9157L100.073 37.712Z" fill="black"/>
<path d="M113.734 29.2782C110.89 31.9482 106.994 34.8348 100.896 37.3074C99.3749 36.7783 97.9377 36.2387 96.6577 35.7376C100.732 33.6508 104.074 31.2864 106.796 28.9062L113.734 29.2782Z" fill="black"/>
<path d="M118.477 18.1946C118.477 20.8978 117.618 24.7081 114.088 28.9323C111.7 28.8031 109.394 28.583 107.419 28.356C115.258 21.2523 117.673 14.187 117.712 14.0752C117.712 14.0752 118.477 15.6416 118.477 18.1946Z" fill="black"/>
<path d="M117.013 14.6621C117.013 14.6656 117.012 14.6673 117.01 14.6708C116.867 15.0044 113.442 22.4154 105.52 29.1717C103.281 28.8416 100.578 28.3859 99.5474 28.1885C106.826 22.5831 115.292 16.7157 117.013 14.6621Z" fill="black"/>
<path d="M79.2668 38.7318C79.1411 38.7266 79.0066 38.7248 78.8652 38.7248H78.8564C78.8564 38.7248 83.8263 36.9768 89.3182 34.5723L93.7641 36.4652C90.1215 38.1207 85.4991 39.6591 80.7039 40.6754C80.7039 40.6754 82.7209 38.8611 79.2668 38.7318Z" fill="black"/>
<path d="M104.882 29.7044C102.088 32.0025 98.6762 34.2639 94.541 36.2284C92.3111 35.2767 90.5683 34.456 89.7109 34.0439C92.3443 32.481 96.3292 30.4466 99.2262 28.6934L104.882 29.7044Z" fill="black"/>
<path d="M99.3136 109.365C98.3357 109.904 97.4032 110.683 96.5615 111.539C95.9888 112.12 95.4579 112.733 94.9847 113.33C93.5388 115.15 92.6168 116.802 92.6168 116.802C92.6168 116.798 92.6167 116.795 92.6185 116.791C92.6202 116.777 92.6237 116.744 92.629 116.694C92.629 116.69 92.629 116.687 92.6307 116.683C92.6569 116.391 92.6954 115.564 92.5207 114.27C92.3217 112.798 91.8415 110.727 90.7396 108.16C90.668 107.99 90.5981 107.824 90.5335 107.662C90.5317 107.66 90.5335 107.658 90.5317 107.657C88.4834 102.596 89.5521 100.506 89.5521 100.506C89.5521 100.506 89.5521 100.506 89.5539 100.508C90.2995 101.559 91.4957 102.626 92.8473 103.625L92.8508 103.626C93.0167 103.749 93.1843 103.871 93.3554 103.99C94.15 104.55 94.9847 105.088 95.8037 105.582C95.8037 105.582 95.8037 105.582 95.8037 105.584C97.0645 106.344 98.2921 107.011 99.2857 107.522C100.019 107.905 100.042 108.963 99.3136 109.365Z" fill="black"/>
<path d="M101.853 106.583C101.729 106.789 101.572 106.937 101.379 107.026C101.313 107.059 101.245 107.084 101.172 107.098L101.165 107.099C101.165 107.099 101.165 107.099 101.163 107.099V107.101C100.616 107.227 99.8445 106.982 98.809 106.371C98.7461 106.335 98.6832 106.296 98.6186 106.258C97.742 105.741 96.9247 105.229 96.1616 104.723L96.1581 104.719C94.81 103.825 93.6348 102.947 92.6115 102.093H92.6098C83.4437 94.4374 86.5468 88.666 86.5468 88.666C86.5468 88.666 86.5485 88.6678 86.5503 88.6713C87.2924 89.7662 88.1952 90.7493 89.1924 91.6242C90.7029 92.9531 92.4264 94.0392 94.1325 94.9141C95.5173 95.6248 96.8916 96.1976 98.1314 96.6499C98.1314 96.6499 98.1314 96.6499 98.1314 96.6516C100.934 97.6732 103.049 98.08 103.049 98.08C103.049 98.08 103.047 98.0905 103.045 98.1062C103.045 98.1097 103.044 98.1132 103.044 98.1167C102.989 98.6057 102.41 103.855 102.165 105.587C102.104 106.005 102.001 106.336 101.853 106.583Z" fill="black"/>
<path d="M103.683 96.4758L103.681 96.4793C103.178 96.4619 102.686 96.4287 102.205 96.3745C101.393 96.2872 100.608 96.151 99.8532 95.9729C98.4859 95.6534 97.2163 95.2028 96.0463 94.6702C96.0463 94.6702 96.0463 94.6702 96.0446 94.6702C90.0235 91.9321 86.6777 87.0705 86.6777 87.0705L89.662 78.9505C92.112 78.8789 94.6127 79.4412 96.8898 80.2444C96.8898 80.2444 96.8898 80.2444 96.8915 80.2444C98.175 80.6985 99.3869 81.2276 100.478 81.7637C103.52 83.2567 105.611 84.7952 105.677 84.8423C105.679 84.8441 105.679 84.8441 105.679 84.8441C106.03 91.3471 103.753 96.3222 103.683 96.4758Z" fill="black"/>
<path d="M105.888 83.6427C104.486 82.1148 102.712 80.957 100.857 80.0856C95.594 77.6059 89.6707 77.4016 89.6707 77.4016C89.6323 76.9668 89.5747 76.5896 89.5014 76.2648C88.8395 73.3573 86.8505 74.4889 85.6456 75.5122C85.0746 75.9942 84.68 76.4534 84.68 76.4534C82.7294 72.7758 85.024 68.2007 85.024 68.2007C85.024 68.2007 85.0257 68.2007 85.0292 68.2007C85.2684 68.2164 85.5024 68.2251 85.7295 68.2304C85.7347 68.2304 85.7399 68.2321 85.7452 68.2304C87.9577 68.2845 89.6236 67.9405 90.8809 67.3991C90.8826 67.3974 90.8861 67.3974 90.8896 67.3939L90.8914 67.3921C90.8984 67.3887 90.9071 67.3852 90.9123 67.3817C91.2267 67.2455 91.5183 67.0935 91.782 66.9329C91.7872 66.9311 91.7889 66.9294 91.7924 66.9276C94.5148 65.2844 94.7069 62.6581 94.7156 62.5533C94.7139 62.5516 94.7156 62.5498 94.7156 62.5498C94.7174 62.5498 94.7191 62.5533 94.7209 62.5533H94.7226C94.8536 62.6389 94.9863 62.7227 95.1155 62.81C95.2465 62.8956 95.3757 62.9846 95.5049 63.0719C96.6819 63.8665 97.7314 64.6732 98.6727 65.4817C98.7146 65.5184 98.7565 65.5534 98.7984 65.5883C108.969 74.4435 105.888 83.6427 105.888 83.6427Z" fill="black"/>
<path d="M92.4247 60.2667C92.4579 60.3191 92.4911 60.3732 92.5225 60.4308C92.5452 60.4727 92.5697 60.5147 92.5924 60.5583C92.6238 60.6194 92.6535 60.684 92.6849 60.7504C92.7513 60.8918 92.8106 61.0333 92.8595 61.1765C92.8595 61.18 92.863 61.1835 92.863 61.187C93.235 62.2766 93.1617 63.3925 93.0481 64.0927C93.0429 64.1172 93.0411 64.1416 93.0359 64.1643C92.9696 64.5694 92.891 64.8174 92.891 64.8174C92.7146 64.6987 92.4387 64.4367 92.1314 64.1172C92.0475 64.0299 91.9602 63.939 91.8747 63.8465C91.2251 63.1497 90.5143 62.3133 90.3013 62.0636C90.31 62.0758 90.3205 62.088 90.3275 62.102C90.551 62.3988 90.7326 62.7289 90.8793 63.0677C90.8793 63.0677 90.8793 63.0694 90.881 63.0694C90.9753 63.2825 91.0539 63.5007 91.1238 63.7155C91.1622 63.836 91.1988 63.9583 91.2285 64.0788C91.3246 64.4367 91.3892 64.7825 91.4346 65.0881C91.5376 65.7988 91.5341 66.3052 91.5341 66.3052C89.023 66.2476 87.3309 64.084 87.3309 64.084C87.6522 65.9263 90.0254 67.0247 90.0254 67.0247C85.3821 67.8716 83.917 65.3186 83.917 65.3186C83.7179 66.4641 85.2005 67.7825 85.2005 67.7825C80.7964 67.463 79.7417 65.5246 79.7417 65.5246L81.9176 65.5945L81.0374 63.8692C81.0374 63.8692 81.0392 63.8692 81.0409 63.8692C81.0427 63.8692 81.0461 63.8709 81.0496 63.8692L84.4601 63.5007L84.4234 63.4431L83.2429 61.5554C83.2412 61.5537 83.2394 61.5537 83.2394 61.5537L86.2395 61.7719L85.4415 59.8685C85.4537 59.8703 85.4677 59.8738 85.4816 59.8755C85.4974 59.8773 85.5166 59.8808 85.541 59.886C85.6021 59.8965 85.6877 59.9122 85.7907 59.9314C85.8187 59.9349 85.8484 59.9419 85.8798 59.9471C85.9776 59.9646 86.0893 59.9838 86.2063 60.0047L86.477 60.0501C86.4979 60.0536 86.5189 60.0571 86.5399 60.0606C86.6062 60.0729 86.6743 60.0833 86.7407 60.0938C87.289 60.1829 87.8286 60.2597 87.9491 60.2422C87.9578 60.2405 87.9631 60.2405 87.9665 60.2388C87.97 60.2388 87.9718 60.237 87.9735 60.2335V60.2318C87.9666 60.1287 87.4567 58.1363 87.4567 58.1363L89.2448 58.8016L88.7559 57.1112L91.0766 58.1502L90.8217 55.6898L92.1785 57.8726L92.4841 55.5605C94.405 58.3528 94.178 62.7848 94.1692 62.9227C93.8444 61.7947 92.5068 60.3557 92.4247 60.2667Z" fill="black"/>
<path d="M90.3642 54.4573L90.317 54.4049L90.3589 56.2612L90.3659 56.5615L90.3834 57.3142L89.4509 56.82L89.4352 56.813L89.2186 56.6977L88.7699 56.4585L88.3682 56.2437L88.2669 56.1896L88.2093 56.1599L88.2145 56.1896L88.2338 56.3031L88.2564 56.4306L88.3053 56.7309L88.4031 57.3159V57.3194L88.4904 57.8363L88.5044 57.9219L87.2663 57.4504L86.7826 57.2653L86.7931 57.3211L87.2349 59.621L85.4922 59.2542H85.4887L84.5911 59.0674L84.874 59.9807L85.2075 61.0546L82.2127 60.9254L83.4491 63.1763L80.201 63.2217L80.8524 65.0797L78.797 64.6449C79.1131 63.3248 79.3192 61.795 79.2546 60.5011C79.2179 59.7764 79.0974 59.1268 78.8599 58.6308C78.563 58.0022 78.0828 57.6198 77.3634 57.6407C77.1748 57.646 76.9687 57.6791 76.7452 57.7437C76.6247 57.7787 76.5094 57.8223 76.3977 57.8747C76.0275 58.0528 75.6974 58.3252 75.4041 58.6675C75.322 58.7618 75.2434 58.8631 75.1666 58.9679C73.5583 61.1769 73.1566 65.4098 73.1566 65.4098C68.3527 63.3073 68.1205 60.5674 68.1152 60.4818L69.5821 61.4475L69.6519 60.0697L69.6606 59.9091L69.7742 57.6774L71.2847 59.3555L71.5309 59.6297L71.8802 60.0174L71.9727 59.5354L72.053 59.1093L72.4075 57.2513L72.8126 55.1348L76.5793 56.5912L76.6247 56.6104L76.6439 56.6174L76.6561 56.6226L76.6544 56.6157L76.595 56.3764L76.5636 56.2559L76.5374 56.1477C76.5356 56.1459 76.5356 56.1424 76.5339 56.1389L76.2702 55.072L75.6328 52.4928L75.5996 52.3566L75.6363 52.3723L76.0572 52.5504H76.0589L76.8936 52.9031C76.8936 52.9031 76.9006 52.9049 76.9128 52.9101L79.6038 54.0469L80.5258 54.4363L80.2254 53.6855L80.2045 53.6331L80.112 53.4061L80.1085 53.3956L79.8308 52.7093L79.7138 52.4194L79.5688 52.0545L79.031 50.7168L78.9559 50.5265L78.9193 50.4374L78.9559 50.4497L79.7173 50.7291L83.1906 52.0003L83.1382 51.8082L83.0142 51.3577L82.0625 47.8844L85.9182 49.2011L85.8536 49.002L85.6423 48.3577L84.867 45.974L84.7902 45.7383C84.8757 45.7942 84.963 45.85 85.0469 45.9077C91.473 50.1947 92.0738 56.4515 92.0738 56.4515L91.1622 55.3985L90.3642 54.4573Z" fill="black"/>
<path d="M80.7354 46.9028L81.9281 50.4965L79.7016 49.7544L77.091 48.8848L78.3902 52.3703L78.4199 52.4471L78.3361 52.4157L74.7545 51.078L74.2219 50.879L74.1835 50.8632L74.765 53.2451L75.1701 54.9023L72.0496 54.0432L71.7754 55.4227L71.2096 58.2569L69.3952 56.219L68.826 59.8931L67.2753 58.0106L66.1053 60.6597L65.2916 57.6212L64.3381 59.1108L64.2595 55.9169C65.0454 55.7318 68.0384 54.4273 67.7713 51.6194C67.5058 48.8131 63.1367 50.2346 63.1367 50.2346L63.7008 48.078C63.7008 48.078 63.7077 48.0762 63.7217 48.0727C63.7217 48.0727 63.7234 48.071 63.7269 48.071C64.2543 47.94 64.7555 47.7951 65.2357 47.6344C66.8807 47.0966 68.2497 46.4121 69.3848 45.6699C69.6852 45.4726 69.9698 45.2718 70.2387 45.0692C70.2492 45.0605 70.2614 45.0517 70.2754 45.0413C70.7276 44.6972 71.1345 44.348 71.5012 43.997C71.7998 43.7124 72.0722 43.4295 72.3185 43.1501V43.1483C74.0927 41.1454 74.5921 39.3799 74.5921 39.3799C74.5921 39.3799 75.7918 39.2664 78.5421 39.1756C82.342 39.0516 79.6754 40.9934 79.6754 40.9934L82.4118 41.21L82.7838 41.2397L82.4624 41.32L79.7156 42.0028C84.3973 42.8794 81.9665 45.1984 81.9665 45.1984L83.8996 45.6175L84.4287 47.5803L81.488 46.9831L80.7144 46.8259L80.7354 46.9028Z" fill="black"/>
<path d="M72.0198 42.5775C71.3475 43.2952 70.5425 43.9606 69.6728 44.563C69.1193 44.9472 68.5395 45.3034 67.951 45.6352C65.7159 46.889 63.3357 47.7551 61.7309 48.1149C59.1534 48.6911 55.179 48.1865 53.4362 46.5782L53.0957 46.0368C53.2878 46.0962 53.4816 46.1434 53.6824 46.173C56.9951 46.6934 61.2943 43.3005 63.2431 41.5629C63.2431 41.5629 63.2431 41.5629 63.2449 41.5612C63.8962 40.9797 64.2874 40.5833 64.2874 40.5833L65.7578 40.2009L73.9756 38.0652C73.9791 38.0652 73.9808 38.0652 73.9808 38.0652C73.9826 38.0652 73.9826 38.0635 73.9826 38.0635C74.0681 39.7189 73.2736 41.2416 72.0198 42.5775Z" fill="black"/>
<path d="M68.1398 32.221C67.9704 32.5807 67.7766 32.9561 67.5583 33.3456C67.4273 33.583 67.2841 33.824 67.1339 34.0737C66.9069 34.4457 66.6589 34.8264 66.3883 35.2228L66.2992 33.9899L66.266 33.487V33.4852L66.184 32.2873L66.0635 30.5289L55.0062 33.742C55.2699 33.597 62.8189 29.4759 66.8667 28.9799C66.8667 28.9799 66.9593 29.1755 67.0606 29.5632V29.5649C67.1322 29.8303 67.2055 30.1883 67.2579 30.6354L67.8342 28.6062L53.2373 27.6894C53.2373 27.6894 53.2373 27.6894 53.2391 27.6877C53.2408 27.6877 53.2443 27.6894 53.2477 27.6877C53.6162 27.6283 64.4098 25.9502 69.4582 27.0975C69.4582 27.0975 69.4879 27.3926 69.4338 27.9374C69.3482 28.7966 69.06 30.2826 68.1398 32.221Z" fill="black"/>
<path d="M73.8006 37.4702L70.2313 38.4009L65.4396 39.6512L65.3994 39.6617L65.2946 39.6897L64.0722 40.0075C64.0722 40.0075 59.5041 44.8778 54.3369 45.7055C54.3369 45.7055 54.5866 43.0407 55.9278 40.0773C56.3294 39.1902 56.8271 38.2769 57.447 37.4003C58.0617 36.5272 58.7951 35.6925 59.6717 34.9573C59.6717 34.9573 59.6717 34.9573 59.6735 34.9556C59.9092 34.7583 60.1537 34.5679 60.4104 34.3846L60.4121 34.3828C62.7207 32.7413 65.8953 31.7826 70.247 32.3973C71.2039 32.5772 71.9147 33.1762 72.4385 33.9043C73.5212 35.4148 73.8006 37.4702 73.8006 37.4702Z" fill="black"/>
<path d="M90.9126 67.3833C91.0436 67.317 91.6932 66.9817 91.7822 66.9346C91.5185 67.0952 91.2287 67.2471 90.9126 67.3833Z" fill="black"/>
<path d="M73.8009 37.4702C63.2204 29.6767 54.3354 45.7055 54.3354 45.7055C54.3354 45.7055 54.5852 43.0407 55.9263 40.0773C56.3279 39.1902 56.8256 38.2769 57.4455 37.4003C58.0602 36.5272 58.7936 35.6925 59.6702 34.9573C59.6702 34.9573 59.6702 34.9573 59.672 34.9556C59.9077 34.7583 60.1522 34.5679 60.4089 34.3846L60.4107 34.3828C62.7192 32.7413 65.8939 31.7826 70.2455 32.3973C71.2025 32.5772 71.9132 33.1762 72.4371 33.9043C73.5215 35.4148 73.8009 37.4702 73.8009 37.4702Z" fill="black"/>
<path d="M73.9805 38.0672C64.4285 47.4393 55.9418 46.6133 53.6821 46.175C56.9948 46.6954 61.294 43.3024 63.2428 41.5649C63.2428 41.5649 63.2428 41.5649 63.2446 41.5632C63.8959 40.9817 64.2871 40.5853 64.2871 40.5853L65.7575 40.2029L73.9753 38.0672C73.9806 38.0654 73.9805 38.0672 73.9805 38.0672Z" fill="black"/>
<path d="M105.888 83.6427C100.889 70.1372 88.8187 68.4434 85.7471 68.2304C87.9596 68.2845 89.6255 67.9405 90.8828 67.3991C90.8845 67.3974 90.888 67.3974 90.8915 67.3939L90.8933 67.3921C90.9002 67.3887 90.909 67.3852 90.9142 67.3817C91.2286 67.2455 91.5202 67.0935 91.7839 66.9329C91.7891 66.9311 91.7908 66.9294 91.7943 66.9276C94.5167 65.2844 94.7088 62.6581 94.7175 62.5533C94.7158 62.5516 94.7175 62.5498 94.7175 62.5498C94.7193 62.5498 94.721 62.5533 94.7228 62.5533H94.7245C94.8555 62.6389 94.9882 62.7227 95.1174 62.81C95.2484 62.8956 95.3776 62.9846 95.5068 63.0719C96.6838 63.8665 97.7333 64.6732 98.6746 65.4817C98.7165 65.5184 98.7584 65.5534 98.8003 65.5883C108.969 74.4435 105.888 83.6427 105.888 83.6427Z" fill="black"/>
<path d="M103.683 96.4756C98.9275 84.0022 89.6602 78.9485 89.6602 78.9485C92.1101 78.8769 94.6108 79.4392 96.8879 80.2425C96.8879 80.2425 96.8879 80.2425 96.8896 80.2425C98.1731 80.6965 99.385 81.2256 100.476 81.7617C103.518 83.2548 105.609 84.7932 105.675 84.8404C105.677 84.8421 105.677 84.8421 105.677 84.8421C106.029 91.3469 103.752 96.322 103.683 96.4756Z" fill="black"/>
<path d="M101.853 106.582C90.9753 97.4233 86.6813 88.9365 86.5503 88.6729C87.2924 89.7677 88.1953 90.7509 89.1924 91.6258C90.7029 92.9547 92.4264 94.0408 94.1325 94.9157C95.5173 95.6264 96.8916 96.1992 98.1314 96.6514C98.1314 96.6514 98.1314 96.6515 98.1314 96.6532C100.934 97.6748 103.049 98.0816 103.049 98.0816C103.049 98.0816 103.047 98.0921 103.045 98.1078C103.045 98.1113 103.044 98.1148 103.044 98.1183C102.99 98.6073 102.41 103.856 102.165 105.589C102.104 106.004 102.001 106.336 101.853 106.582Z" fill="black"/>
<path d="M99.3133 109.365C98.3354 109.904 97.4029 110.683 96.5613 111.539C92.9797 110.667 89.6007 100.663 89.5483 100.508C90.294 101.559 91.4901 102.626 92.8417 103.625L92.8452 103.627C93.0111 103.749 93.1788 103.871 93.3499 103.99C94.1445 104.55 94.9792 105.088 95.7982 105.582C95.7982 105.582 95.7982 105.582 95.7982 105.584C97.059 106.344 98.2866 107.011 99.2802 107.522C100.019 107.905 100.042 108.963 99.3133 109.365Z" fill="black"/>
<path d="M80.7353 46.9032L81.928 50.497C76.6491 46.774 68.0803 46.9468 65.2339 47.6384C66.8789 47.1005 68.2479 46.416 69.383 45.6738C69.6833 45.4765 69.9679 45.2757 70.2369 45.0731C70.2473 45.0644 70.2596 45.0557 70.2735 45.0452C70.7258 44.7012 71.1327 44.3519 71.4994 44.0009C71.798 43.7163 72.0705 43.4334 72.3167 43.154V43.1522C74.0909 41.1493 74.5903 39.3838 74.5903 39.3838C74.5903 39.3838 75.7899 39.2703 78.5403 39.1795C82.3401 39.0555 79.6736 40.9974 79.6736 40.9974L82.41 41.2139L82.7819 41.2436L82.4606 41.3239L79.7138 42.0067C84.3955 42.8833 81.9647 45.2023 81.9647 45.2023L83.8978 45.6214L84.4269 47.5842L81.4862 46.987L80.7126 46.8298L80.7353 46.9032Z" fill="black"/>
<path d="M91.1778 55.3971L92.0894 56.4501C92.0894 56.4501 91.4886 50.1933 85.0625 45.9062C85.0031 45.9272 84.9437 45.9499 84.8826 45.9726L85.6579 48.3562L85.8692 49.0006L85.9338 49.1997L82.0781 47.883L83.0298 51.3563L83.1538 51.8068L83.2062 51.9989L79.7329 50.7276L78.9715 50.4482L78.9349 50.436L78.9715 50.5251L79.0466 50.7154L79.5845 52.0531L79.7294 52.418L79.8464 52.7079L80.1241 53.3942L80.1276 53.4047L80.2201 53.6317L80.241 53.684L80.5414 54.4349L79.6194 54.0455L76.9284 52.9087C76.9144 52.9035 76.9092 52.9017 76.9092 52.9017L76.0745 52.549H76.0727L75.6519 52.3709L75.6152 52.3552L75.6484 52.4914L76.2858 55.0706L76.5495 56.1375C76.5495 56.141 76.5512 56.1445 76.5529 56.1463C76.5756 56.2248 76.5949 56.2999 76.6088 56.375C76.6246 56.4553 76.6351 56.5339 76.6368 56.609C76.6368 56.6125 76.6368 56.616 76.6368 56.6195C76.6438 56.6177 76.649 56.6178 76.656 56.616C76.6595 56.616 76.663 56.6143 76.6665 56.6143C78.5227 56.265 82.6753 56.2458 86.7563 57.3128L86.7982 57.3232C86.9554 57.3651 87.1143 57.407 87.2714 57.4542C87.6818 57.5694 88.0922 57.6987 88.4956 57.8401L88.4082 57.3232V57.3197L88.3104 56.7347L88.2615 56.4344L88.2389 56.3069L88.2196 56.1934L88.2144 56.1637L88.272 56.1934L88.3733 56.2475L88.775 56.4623L89.2237 56.7016L89.4403 56.8168L89.456 56.8238L90.3885 57.318L90.371 56.5654L90.364 56.265L90.3221 54.4087L90.3693 54.4611L91.1778 55.3971Z" fill="black"/>
<path d="M87.081 60.3348L87.0408 60.3138L87.0828 60.3453L87.081 60.3348ZM94.169 62.9227C94.1778 62.7848 94.4048 58.3528 92.4839 55.5605L92.1783 57.8726L90.8215 55.6898L91.0764 58.1502L88.7557 57.1112L89.2446 58.8016L87.4565 58.1363C87.4565 58.1363 87.9664 60.1305 87.9734 60.2318V60.2335C87.9734 60.237 87.9699 60.237 87.9664 60.2388C87.9629 60.2405 87.9576 60.2422 87.9489 60.2422C87.8284 60.2597 87.2871 60.1829 86.7405 60.0938C86.6741 60.0833 86.6061 60.0729 86.5397 60.0606C86.5187 60.0589 86.4978 60.0554 86.4768 60.0501L86.2061 60.0047C86.0891 59.9838 85.9774 59.9646 85.8796 59.9471C85.8499 59.9401 85.8185 59.9349 85.7905 59.9314C85.6875 59.9122 85.602 59.8982 85.5408 59.886C85.5164 59.8808 85.4972 59.8773 85.4815 59.8755C85.4675 59.8738 85.4535 59.8703 85.4413 59.8685L86.2393 61.7719L83.2393 61.5537C83.2393 61.5537 83.241 61.5537 83.2428 61.5554L84.4232 63.4431C86.0088 63.2755 88.4728 63.2929 91.1236 63.7155C91.0555 63.5007 90.9751 63.2825 90.8808 63.0694C90.8791 63.0694 90.8791 63.0677 90.8791 63.0677C90.7324 62.7289 90.5508 62.3988 90.3273 62.102C90.3186 62.088 90.3098 62.0758 90.3011 62.0636C90.5142 62.315 91.2249 63.1497 91.8745 63.8465C91.9618 63.939 92.0491 64.0299 92.1312 64.1172C92.4385 64.4367 92.7144 64.6987 92.8908 64.8174C92.8908 64.8174 92.9694 64.5677 93.0357 64.1643C93.0392 64.1416 93.0427 64.1172 93.048 64.0927C93.1615 63.3942 93.2348 62.2784 92.8629 61.187C92.8629 61.1835 92.8594 61.18 92.8594 61.1765C92.772 60.9442 92.683 60.7347 92.5922 60.5583C92.5695 60.5147 92.545 60.4727 92.5223 60.4308C92.4909 60.3732 92.4577 60.3191 92.4245 60.2667C92.5066 60.3557 93.8442 61.7947 94.169 62.9227Z" fill="black"/>
<path d="M117.013 14.6621C117.013 14.6656 117.012 14.6673 117.01 14.6708C116.792 15.0567 110.198 26.5872 99.5474 28.1885C106.826 22.5831 115.292 16.7157 117.013 14.6621Z" fill="black"/>
<path d="M104.882 29.7044C104.882 29.7044 96.9945 34.1399 89.7109 34.0439C92.3443 32.481 96.3292 30.4466 99.2262 28.6934L104.882 29.7044Z" fill="black"/>
<path d="M93.7641 36.4652C93.7641 36.4652 83.8769 38.758 79.2668 38.7318C79.1288 38.7318 78.9962 38.7301 78.8652 38.7248H78.8564C78.8564 38.7248 83.8263 36.9768 89.3182 34.5723L93.7641 36.4652Z" fill="black"/>
<path d="M107.418 28.356C115.257 21.2523 117.672 14.187 117.71 14.0752C117.712 14.0752 119.364 25.2023 107.418 28.356Z" fill="black"/>
<path d="M113.734 29.2784C113.549 29.371 101.837 35.186 96.6577 35.7395C100.732 33.6528 104.074 31.2883 106.796 28.9082L113.734 29.2784Z" fill="black"/>
<path d="M97.9044 36.9159C97.9044 36.9159 90.2436 39.7553 85.857 40.3857C85.85 40.3857 85.8431 40.3874 85.8343 40.3892C85.4362 40.4468 85.0642 40.4835 84.7272 40.5009C84.4164 40.5149 84.137 40.5114 83.896 40.4852C88.424 39.3414 92.3793 37.8484 95.8299 36.1562L97.9044 36.9159Z" fill="black"/>
<path d="M140.808 23.9922C140.528 24.2314 127.178 35.5716 112.477 35.4039C124.269 30.689 137.738 26.0755 140.808 23.9922Z" fill="black"/>
<path d="M119.003 39.4289C119.003 39.4289 102.525 41.0477 97.1851 39.4848C101.277 38.3951 107.346 37.1937 111.861 35.9521L119.003 39.4289Z" fill="black"/>
<path d="M101.662 44.2343C101.662 44.2343 87.5579 43.803 81.1929 42.1126C81.1929 42.1126 88.2512 41.1662 96.4603 40.0381L101.662 44.2343Z" fill="black"/>
<path d="M141.955 23.4766C141.905 23.6861 138.534 37.0519 122.883 38.5903C135.919 32.1292 141.805 23.6948 141.955 23.4766Z" fill="black"/>
<path d="M130.936 42.1964C130.936 42.1964 113.752 46.2215 105.785 44.3548C111.991 43.1167 117.328 41.229 121.849 39.0898L130.936 42.1964Z" fill="black"/>
<path d="M104.528 44.5977C104.528 44.5977 100.131 48.5128 86.2236 45.8323C92.9973 46.0837 99.0865 45.5895 104.528 44.5977Z" fill="black"/>
<path d="M66.6656 51.8136C62.8064 54.611 56.457 54.2129 56.457 54.2129C56.457 54.2129 65.2057 50.221 66.3932 51.1378C66.573 51.274 66.6638 51.5149 66.6656 51.8136Z" fill="black"/>
<path d="M76.0973 70.3938C71.73 62.1114 76.2615 58.4495 77.9536 58.8092C74.496 61.8442 76.0973 70.3938 76.0973 70.3938Z" fill="black"/>
<path d="M88.0729 76.2296C88.0729 76.2296 81.4669 88.3677 80.0786 94.2159C81.0373 82.9649 86.3494 75.7948 87.8407 76.0846L88.0729 76.2296Z" fill="black"/>
<path d="M66.0769 35.6937C66.0769 35.6937 63.4558 33.3921 60.9971 38.1629C60.9971 38.1629 66.358 38.3602 66.0769 35.6937Z" fill="black"/>
<path d="M65.012 36.1419C65.012 36.1419 63.6185 34.9177 62.3105 37.455C62.3123 37.455 65.1622 37.5598 65.012 36.1419Z" fill="black"/>
</svg>
