<svg width="146" height="182" viewBox="0 0 146 182" fill="none" xmlns="http://www.w3.org/2000/svg">
<path d="M131.111 58.7663C131.111 69.5694 127.542 79.8111 120.958 88.1625C122.438 86.9982 123.858 85.7333 125.212 84.3801C128.925 80.6671 131.95 76.4498 134.216 71.8807C134.363 70.1983 134.436 68.5038 134.438 66.8006C134.438 59.1475 132.986 51.6884 130.122 44.6243C127.31 37.6885 123.247 31.4267 118.033 26C126.476 34.8816 131.111 46.4696 131.111 58.7663Z" fill="url(#paint0_linear)"/>
<path d="M54.1329 21.3375C62.4843 14.7534 72.726 11.1841 83.5257 11.1807C95.8258 11.1841 107.414 15.819 116.297 24.2622C116.592 24.5429 116.883 24.8271 117.174 25.1181C117.465 25.4092 117.753 25.7038 118.037 26.0018C126.476 34.8799 131.111 46.4679 131.111 58.7663C131.111 69.5695 127.542 79.8112 120.958 88.1626C119.437 89.3616 117.855 90.4653 116.217 91.4581C120.688 84.0978 123.075 75.632 123.075 66.8024C123.075 54.0934 118.125 42.1432 109.138 33.1542C100.152 24.1686 88.2021 19.2202 75.4896 19.2167C66.6582 19.2167 58.1977 21.6078 50.8408 26.0815C51.8336 24.4441 52.9339 22.8588 54.1329 21.3375Z" fill="url(#paint1_linear)"/>
<path d="M33.8072 25.1177C35.1569 23.768 36.5569 22.491 38.0175 21.292C34.2091 25.9026 31.1493 31.0243 28.8951 36.5862C26.0275 43.6519 24.5756 51.1127 24.579 58.7693C24.579 66.4225 26.0275 73.885 28.8916 80.9491C31.7107 87.8849 35.7737 94.1467 40.9873 99.5734C41.268 99.868 41.5521 100.159 41.8432 100.45C42.1343 100.741 42.4289 101.029 42.7269 101.313C48.1536 106.527 54.4137 110.59 61.3477 113.405C68.41 116.269 75.8743 117.718 83.5275 117.718C91.1806 117.718 98.6432 116.269 105.711 113.402C111.274 111.148 116.394 108.089 121.001 104.276C119.802 105.735 118.525 107.136 117.176 108.486C111.551 114.11 104.992 118.471 97.6746 121.438C90.6123 124.302 83.1446 125.754 75.4914 125.754C67.8383 125.754 60.3792 124.302 53.3151 121.438C45.9981 118.471 39.4348 114.114 33.8072 108.486C28.183 102.862 23.8253 96.2987 20.859 88.9817C17.9949 81.9194 16.543 74.4585 16.543 66.8054C16.5395 59.1488 17.9949 51.6863 20.859 44.6222C23.8253 37.3052 28.183 30.7436 33.8072 25.1177Z" fill="url(#paint2_linear)"/>
<path d="M131.111 58.7663C131.111 69.5694 127.542 79.8111 120.958 88.1625C122.438 86.9982 123.858 85.7333 125.212 84.3801C128.925 80.6671 131.95 76.4498 134.216 71.8807C134.363 70.1983 134.436 68.5038 134.438 66.8006C134.438 59.1475 132.986 51.6884 130.122 44.6243C127.31 37.6885 123.247 31.4267 118.033 26C126.476 34.8816 131.111 46.4696 131.111 58.7663Z" fill="url(#paint3_linear)"/>
<path d="M42.7266 101.313C51.6047 109.753 63.1892 114.391 75.4911 114.388C82.9519 114.388 90.1476 112.685 96.6399 109.462C102.521 108.965 108.256 107.589 113.746 105.366C117.522 103.838 121.095 101.937 124.437 99.6758C123.375 101.265 122.228 102.796 121.001 104.276C116.394 108.088 111.272 111.148 105.71 113.402C98.6446 116.269 91.1803 117.718 83.5272 117.718C75.874 117.718 68.4115 116.269 61.3474 113.405C54.4133 110.588 48.1515 106.527 42.7266 101.313Z" fill="url(#paint4_linear)"/>
<path d="M38.0156 21.2923C39.4953 20.0656 41.027 18.9186 42.6158 17.8564C40.3582 21.2022 38.4575 24.775 36.9293 28.5504C34.6993 34.0481 33.3253 39.785 32.8298 45.6743C29.6071 52.1579 27.9039 59.3484 27.9039 66.8023C27.9039 79.1059 32.5422 90.6904 40.9854 99.5737C35.7718 94.1488 31.7088 87.887 28.8897 80.9494C26.0257 73.8871 24.5772 66.4228 24.5772 58.7697C24.5737 51.1131 26.0257 43.654 28.8932 36.5865C31.1491 31.0247 34.2073 25.9029 38.0156 21.2923Z" fill="url(#paint5_linear)"/>
<path d="M42.6161 17.8568C45.9619 15.5991 49.5346 13.6984 53.3101 12.1702C58.8078 9.94029 64.5446 8.56629 70.4305 8.07422C65.8545 10.3423 61.6303 13.3657 57.9137 17.0823C56.5605 18.4355 55.2974 19.8563 54.1314 21.336C52.9324 22.8572 51.8321 24.4426 50.8393 26.08C49.2019 27.0728 47.6166 28.173 46.0953 29.372C44.6156 30.5364 43.1948 31.8012 41.8416 33.1544C38.1251 36.871 35.0964 41.0987 32.8301 45.6746C33.3274 39.787 34.6996 34.0485 36.9295 28.5508C38.4577 24.777 40.3602 21.2043 42.6161 17.8568Z" fill="url(#paint6_linear)"/>
<path d="M57.9154 17.0836C61.632 13.3671 65.8562 10.3418 70.4321 8.07552C72.1076 7.92824 73.7952 7.85547 75.495 7.85547C83.1481 7.85547 90.6072 9.30744 97.6712 12.1715C104.611 14.9871 110.872 19.0502 116.299 24.2637C107.417 15.8205 95.8294 11.1856 83.5275 11.1822C72.7279 11.1856 62.4862 14.7549 54.1348 21.339C55.2974 19.8576 56.5622 18.4351 57.9154 17.0836Z" fill="url(#paint7_linear)"/>
<path d="M125.214 84.3822C128.927 80.6691 131.952 76.4518 134.218 71.8828C133.721 77.7634 132.349 83.4951 130.126 88.9859C128.598 92.7613 126.697 96.3341 124.436 99.6764C121.092 101.937 117.521 103.838 113.745 105.366C108.254 107.589 102.521 108.967 96.6387 109.462C101.208 107.194 105.428 104.167 109.142 100.454C110.495 99.1011 111.758 97.6803 112.924 96.2006C114.123 94.6794 115.227 93.0975 116.219 91.4601C117.857 90.4673 119.439 89.3636 120.96 88.1646C122.438 86.9985 123.86 85.7354 125.214 84.3822Z" fill="url(#paint8_linear)"/>
<path d="M92.4451 102.986C92.4451 102.986 85.3326 98.4965 85.3794 90.0151C85.4261 81.5338 83.541 78.3838 83.541 78.3838C83.541 78.3838 90.2221 82.2667 90.0957 86.633C89.9692 90.9993 90.3417 92.9086 90.3417 92.9086C90.3417 92.9086 88.2123 91.623 87.6509 89.1609C87.0912 86.6971 85.9459 91.999 92.4451 102.986Z" fill="url(#paint9_linear)"/>
<path d="M88.4478 92.2379C88.4478 92.2379 89.2084 96.4483 92.6374 101.624C92.6374 101.624 91.6792 84.81 98.4088 72.7057C98.4088 72.7057 91.2391 64.3318 94.9661 47.8213C94.9661 47.8213 82.0526 66.2065 87.4013 80.4126C87.4013 80.4126 90.7644 82.5836 90.9688 85.3662C91.1733 88.1489 91.5856 96.5852 91.5856 96.5852C91.5856 96.5852 91.097 97.2817 88.4478 92.2379Z" fill="#EBEBEF"/>
<path d="M98.6358 71.9655C98.6358 71.9655 90.0228 58.5686 97.9393 47.691C97.9393 47.691 104.61 39.9235 119.521 28.7998C119.521 28.7998 108.081 43.4044 108.467 50.1756C108.467 50.1756 105.771 48.4256 106.771 44.2274C106.771 44.2291 94.8846 53.3654 98.6358 71.9655Z" fill="#EBEBEF"/>
<path d="M105.819 45.851C105.819 45.851 96.269 58.016 99.3462 71.1703C99.3462 71.1703 105.476 52.6257 140.575 30.3385C140.575 30.3385 132.778 30.8808 130.475 27.2197C130.475 27.2197 113.183 30.1878 109.363 51.269C109.363 51.2707 106.367 50.4754 105.819 45.851Z" fill="#EBEBEF"/>
<path d="M96.0349 103.188C95.3713 99.0015 98.9822 93.4449 101.727 90.6622C105.466 86.8729 110.664 84.8994 114.432 81.0928C111.204 81.2002 108.089 82.4026 105.319 84.066C102.548 85.7293 100.084 87.8449 97.6342 89.9501C94.6298 92.5335 95.4753 99.6565 96.0349 103.188Z" fill="#EBEBEF"/>
<path d="M110.262 81.0307C110.696 80.8072 111.115 80.5491 111.512 80.2285C112.927 79.0798 114.274 77.8461 115.706 76.7112C118.763 74.2942 121.906 71.9499 124.56 69.0771C123.28 70.465 119.348 70.8652 117.581 71.0576C115.017 71.3365 112.809 71.4665 110.306 72.241C105.773 73.6427 100.802 76.1481 98.8338 80.7483C97.6764 83.4547 96.7321 87.0136 96.7373 89.9695C98.4838 88.3685 100.341 86.8715 102.251 85.4715C103.73 84.3869 105.26 83.3438 106.894 82.5035C108.008 81.93 109.18 81.5887 110.262 81.0307Z" fill="#EBEBEF"/>
<path d="M99.1406 78.486C99.1406 78.486 104.193 70.5245 126.165 68.5008C126.165 68.5008 130.772 67.9602 140.324 56.6338C140.324 56.6338 130.067 63.7255 122.279 63.9681C114.49 64.2107 110.995 66.1305 110.995 66.1305C110.995 66.1305 115.894 66.3384 116.634 67.5651C116.635 67.5651 102.98 69.2302 99.1406 78.486Z" fill="#EBEBEF"/>
<path d="M98.8008 77.1206C98.8008 77.1206 102.251 69.5558 114.091 67.3848C114.091 67.3848 109.841 66.4474 109.058 66.8373C109.058 66.8373 109.819 64.9019 117.552 63.5262C125.284 62.1504 135.445 63.7219 140.534 51.5137C140.534 51.5137 134.37 57.0183 131.683 56.9005C131.683 56.9005 141.788 50.8345 143.71 44.9469C143.71 44.9469 144.52 40.2739 143.185 37.0391C143.185 37.0391 143.514 33.7782 145.056 33.2099C145.056 33.2099 144.163 33.0886 142.076 35.6598C140.937 37.0598 139.179 38.1947 137.373 38.3316C138.274 37.039 139.336 35.8141 140.132 34.2633C140.8 32.9604 141.921 31.621 143.385 31.6817C137.099 31.8082 132.13 36.625 127.613 40.4455C122.483 44.7858 117.64 49.4657 113.064 54.3847C109.732 57.9661 106.556 61.7363 103.876 65.8341C101.483 69.4952 100.556 73.2706 98.8008 77.1206Z" fill="#EBEBEF"/>
<path d="M96.0355 103.188C96.0355 103.188 94.0256 95.6159 99.5077 90.5947C104.99 85.5734 111.631 81.8985 114.435 81.0928C114.435 81.0928 111.491 84.5113 106.537 87.2818C102.93 89.3004 95.6248 96.2154 96.0355 103.188Z" fill="url(#paint10_linear)"/>
<path d="M96.7383 89.9695C96.7383 89.9695 103.009 79.5216 112.324 75.7149C121.638 71.9083 124.561 69.0771 124.561 69.0771C124.561 69.0771 120.55 73.1073 119.45 73.8697C118.35 74.632 113.011 78.9186 111.513 80.2285C111.513 80.2285 110.856 80.802 109.872 81.2213C108.889 81.6406 108.321 81.8659 108.042 81.982C107.763 82.0981 103.728 83.6921 96.7383 89.9695Z" fill="url(#paint11_linear)"/>
<path d="M99.1406 78.4858C99.1406 78.4858 106.617 68.8297 120.986 68.2372C120.986 68.2372 120.619 66.7939 117.801 66.4439C117.801 66.4439 120.159 65.3921 124.129 67.3327C124.129 67.3327 131.671 66.3902 140.324 56.6318C140.324 56.6318 131.105 67.908 126.165 68.4988C121.227 69.0914 107.217 70.1327 99.1406 78.4858Z" fill="url(#paint12_linear)"/>
<path d="M109.058 66.8351C109.058 66.8351 112.573 61.6822 123.674 60.4589C134.775 59.2357 140.533 51.5098 140.533 51.5098C140.533 51.5098 138.288 57.5411 133.483 60.0777C128.678 62.6144 123.697 62.7807 123.697 62.7807C123.697 62.7807 111.936 63.5725 109.058 66.8351Z" fill="url(#paint13_linear)"/>
<path d="M94.9646 47.8213C94.9646 47.8213 86.206 70.5295 94.5349 82.8521C94.5349 82.8521 96.1186 76.521 98.4074 72.7057C98.4091 72.7057 91.4837 64.7026 94.9646 47.8213Z" fill="url(#paint14_linear)"/>
<path d="M99.346 71.1699C99.346 71.1699 95.8633 59.4935 105.819 45.8506C105.819 45.8506 106.036 48.7528 107.807 50.3035C107.807 50.3035 99.469 56.9465 99.346 71.1699Z" fill="url(#paint15_linear)"/>
<path d="M108.374 50.1014C108.509 48.3133 108.994 46.5547 109.715 44.9139C112.976 37.4704 115.819 34.0068 119.461 28.8643C114.88 31.8843 111.486 36.4238 108.888 41.258C107.312 44.1913 106.482 47.0832 108.374 50.1014Z" fill="url(#paint16_linear)"/>
<path d="M130.475 27.2197C130.475 27.2197 117.359 34.5333 112.894 52.2341C112.894 52.2341 124.563 40.0397 140.576 30.3385C140.574 30.3385 133.576 30.5811 130.475 27.2197Z" fill="url(#paint17_linear)"/>
<path d="M137.373 38.3299C137.373 38.3299 130.827 39.8183 118.307 55.0691C118.307 55.0691 137.461 54.7399 143.707 44.947C143.707 44.947 144.513 40.0384 143.182 37.0391C143.182 37.0391 143.726 33.5028 145.054 33.21C145.054 33.21 143.791 33.2585 142.073 35.6599C140.356 38.0596 137.373 38.3299 137.373 38.3299Z" fill="url(#paint18_linear)"/>
<path d="M66.4766 94.4539C66.4766 94.4539 75.3426 88.8574 75.2854 78.2848C75.2282 67.7104 77.5777 63.7842 77.5777 63.7842C77.5777 63.7842 69.2471 68.6252 69.4048 74.0692C69.5624 79.5132 69.0981 81.8922 69.0981 81.8922C69.0981 81.8922 71.7525 80.2895 72.4508 77.2192C73.149 74.1489 74.5802 80.7556 66.4766 94.4539Z" fill="url(#paint19_linear)"/>
<path d="M71.4619 81.0558C71.4619 81.0558 70.5124 86.304 66.2397 92.7565C66.2397 92.7565 67.4352 71.7948 59.0439 56.7068C59.0439 56.7068 67.9827 46.2676 63.3357 25.6836C63.3357 25.6836 79.4356 48.6032 72.7666 66.3144C72.7666 66.3144 68.5736 69.0208 68.3189 72.4896C68.0642 75.9584 67.5496 86.4756 67.5496 86.4756C67.5496 86.4756 68.1577 87.3436 71.4619 81.0558Z" fill="#EBEBEF"/>
<path d="M58.7573 55.7833C58.7573 55.7833 69.4946 39.0805 59.6254 25.5208C59.6254 25.5208 51.3086 15.8387 32.7207 1.96875C32.7207 1.96875 46.9839 20.1772 46.5005 28.6187C46.5005 28.6187 49.8619 26.4373 48.6161 21.203C48.6161 21.2047 63.4355 32.5952 58.7573 55.7833Z" fill="#EBEBEF"/>
<path d="M49.8031 23.2263C49.8031 23.2263 61.71 38.3922 57.8739 54.7901C57.8739 54.7901 50.2328 31.6712 6.47461 3.88807C6.47461 3.88807 16.1931 4.56382 19.0658 0C19.0658 0 40.6235 3.70096 45.3866 29.9819C45.3866 29.9836 49.1205 28.9925 49.8031 23.2263Z" fill="#EBEBEF"/>
<path d="M62.0014 94.7069C62.8278 89.4881 58.3281 82.561 54.9044 79.0905C50.2436 74.3655 43.7617 71.9069 39.0645 67.1611C43.0894 67.2945 46.974 68.7933 50.4255 70.8673C53.8769 72.9395 56.9507 75.5784 60.0036 78.2033C63.7531 81.4244 62.6979 90.3042 62.0014 94.7069Z" fill="#EBEBEF"/>
<path d="M44.266 67.0832C43.7254 66.8043 43.2022 66.4837 42.7083 66.0818C40.9428 64.6489 39.2638 63.1102 37.4775 61.6981C33.6673 58.6833 29.7481 55.7638 26.4404 52.1807C28.0379 53.9099 32.9379 54.4089 35.1401 54.6497C38.3369 54.998 41.0883 55.1608 44.2088 56.1259C49.8607 57.8742 56.0567 60.9982 58.5102 66.7332C59.9535 70.1085 61.1299 74.5441 61.1247 78.2294C58.9468 76.2334 56.632 74.3656 54.2513 72.6208C52.4078 71.2693 50.4984 69.9681 48.4625 68.9199C47.0764 68.2043 45.6157 67.778 44.266 67.0832Z" fill="#EBEBEF"/>
<path d="M58.1309 63.9103C58.1309 63.9103 51.831 53.9839 24.4394 51.4612C24.4394 51.4612 18.6957 50.7889 6.78711 36.666C6.78711 36.666 19.5741 45.5078 29.2822 45.811C38.9903 46.1142 43.3479 48.507 43.3479 48.507C43.3479 48.507 37.242 48.7669 36.3202 50.2968C36.3202 50.2951 53.3436 52.3708 58.1309 63.9103Z" fill="#EBEBEF"/>
<path d="M58.5532 62.2076C58.5532 62.2076 54.2528 52.7768 39.4905 50.0703C39.4905 50.0703 44.789 48.9025 45.7662 49.3877C45.7662 49.3877 44.8184 46.9741 35.1779 45.2588C25.5374 43.5434 12.8717 45.5031 6.52847 30.2834C6.52847 30.2834 14.2128 37.1465 17.562 36.9992C17.562 36.9992 4.96561 29.4362 2.56935 22.0984C2.56935 22.0984 1.55748 16.2732 3.22256 12.2395C3.22256 12.2395 2.81192 8.17471 0.888672 7.46606C0.888672 7.46606 2.00104 7.31531 4.60522 10.519C6.02426 12.2638 8.21781 13.6794 10.4668 13.8492C9.34404 12.2378 8.01855 10.7096 7.02921 8.77769C6.1958 7.15246 4.79754 5.4839 2.97132 5.56013C10.8081 5.71781 17.0024 11.7215 22.6335 16.4863C29.0287 21.8974 35.0653 27.7312 40.771 33.8648C44.9241 38.3299 48.8832 43.0288 52.2255 48.1402C55.2092 52.7022 56.3666 57.4099 58.5532 62.2076Z" fill="#EBEBEF"/>
<path d="M62.0014 94.7069C62.0014 94.7069 64.5068 85.2674 57.6732 79.0073C50.8396 72.7472 42.561 68.1661 39.0645 67.1611C39.0645 67.1611 42.7342 71.4235 48.9094 74.8784C53.4057 77.3942 62.5125 86.0142 62.0014 94.7069Z" fill="url(#paint20_linear)"/>
<path d="M61.1247 78.2277C61.1247 78.2277 53.307 65.2033 41.6965 60.4576C30.0859 55.7118 26.4404 52.1807 26.4404 52.1807C26.4404 52.1807 31.4409 57.2036 32.8131 58.1549C34.1854 59.1061 40.8388 64.4496 42.7083 66.0818C42.7083 66.0818 43.5279 66.7956 44.7529 67.3206C45.9779 67.8439 46.6848 68.1228 47.0331 68.2701C47.3813 68.4157 52.4095 70.403 61.1247 78.2277Z" fill="url(#paint21_linear)"/>
<path d="M58.1309 63.9103C58.1309 63.9103 48.811 51.8735 30.897 51.1337C30.897 51.1337 31.3544 49.3335 34.8665 48.8968C34.8665 48.8968 31.928 47.5852 26.9778 50.0057C26.9778 50.0057 17.5764 48.831 6.78711 36.666C6.78711 36.666 18.2816 50.7248 24.4394 51.4612C30.5973 52.1975 48.0625 53.497 58.1309 63.9103Z" fill="url(#paint22_linear)"/>
<path d="M45.7658 49.3875C45.7658 49.3875 41.3839 42.9645 27.5435 41.4398C13.703 39.915 6.52637 30.2832 6.52637 30.2832C6.52637 30.2832 9.32634 37.8012 15.3161 40.965C21.3059 44.1289 27.5158 44.3333 27.5158 44.3333C27.5158 44.3333 42.1792 45.3192 45.7658 49.3875Z" fill="url(#paint23_linear)"/>
<path d="M63.3357 25.6836C63.3357 25.6836 74.2532 53.9917 63.8711 69.3552C63.8711 69.3552 61.8959 61.4612 59.0439 56.7051C59.0439 56.7068 67.676 46.7267 63.3357 25.6836Z" fill="url(#paint24_linear)"/>
<path d="M57.8736 54.7913C57.8736 54.7913 62.2139 40.2353 49.8029 23.2275C49.8029 23.2275 49.5326 26.8453 47.3252 28.779C47.3252 28.779 57.7194 37.0593 57.8736 54.7913Z" fill="url(#paint25_linear)"/>
<path d="M46.6204 28.5246C46.4524 26.2964 45.846 24.1046 44.9502 22.0566C40.8836 12.7765 37.3403 8.45868 32.8008 2.04785C38.5116 5.81291 42.7445 11.4718 45.9811 17.498C47.9425 21.1573 48.9786 24.763 46.6204 28.5246Z" fill="url(#paint26_linear)"/>
<path d="M19.0658 0C19.0658 0 35.4169 9.11723 40.9839 31.1843C40.9839 31.1843 26.4365 15.982 6.47461 3.88807C6.47461 3.88807 15.2003 4.1913 19.0658 0Z" fill="url(#paint27_linear)"/>
<path d="M10.4668 13.8487C10.4668 13.8487 18.6276 15.7044 34.2354 34.7151C34.2354 34.7151 10.3559 34.3045 2.56935 22.0962C2.56935 22.0962 1.56614 15.9764 3.22256 12.2373C3.22256 12.2373 2.54336 7.82946 0.888672 7.46387C0.888672 7.46387 2.46366 7.52278 4.60522 10.5168C6.74678 13.5126 10.4668 13.8487 10.4668 13.8487Z" fill="url(#paint28_linear)"/>
<path d="M85.8114 57.2831C84.4859 56.8863 83.1188 56.5744 81.7171 56.3578C63.4497 53.5197 46.1093 67.5127 42.9853 87.6115C42.1658 92.8892 42.3841 96.9401 43.2279 102.765C42.0808 101.447 39.6499 99.4438 39.598 97.9468C39.5668 97.0285 40.1974 96.2626 40.842 95.7064C39.6014 94.9458 38.8737 93.4939 39.1111 91.9674C39.3588 90.3768 40.5786 89.1795 42.0722 88.8902C40.6445 88.1954 39.7729 86.6308 40.0311 84.9796C40.2841 83.3474 41.5645 82.1311 43.1118 81.8833C42.2403 81.0707 41.7724 79.8544 41.9682 78.5895C42.2281 76.9175 43.564 75.6821 45.1615 75.476C44.5707 74.6997 44.2848 73.6948 44.4459 72.6552C44.7613 70.628 46.6603 69.2401 48.6875 69.5537C48.9508 69.5953 49.2038 69.6646 49.4446 69.7547C48.8192 68.9352 48.535 67.8609 48.7585 66.759C49.0998 65.0766 50.5847 63.8256 52.3018 63.7875C52.7921 63.7771 53.2582 63.8602 53.6793 64.0144C53.4453 63.3959 53.3691 62.7063 53.5025 62.0028C53.8768 60.0362 55.7983 58.7004 57.7718 59.0348C58.1356 59.0954 58.4787 59.208 58.7923 59.3622C58.6762 58.7922 58.6901 58.1806 58.8668 57.5689C59.3624 55.8675 61.0344 54.743 62.7982 54.9197C63.7061 55.0115 64.4962 55.4153 65.0819 56.0113C65.0888 55.9472 65.0975 55.8848 65.1061 55.8224C65.4215 53.7952 67.3205 52.4074 69.3459 52.721C70.8239 52.9514 71.9605 54.0205 72.3469 55.3685C72.8944 53.6549 74.6219 52.546 76.455 52.8301C77.7666 53.0346 78.808 53.8992 79.2966 55.0323C80.1075 54.1019 81.3619 53.5942 82.6701 53.7987C84.4408 54.0794 85.7247 55.5608 85.8114 57.2831Z" fill="url(#paint29_radial)"/>
<path d="M110.677 113.303C109.511 114.14 108.319 114.916 107.118 115.633C106.641 115.921 106.161 116.198 105.682 116.469L105.68 116.47C100.866 119.168 96.0393 120.984 92.2621 122.155C89.8711 122.897 87.901 123.378 86.6241 123.659C85.6053 123.883 85.0283 123.98 85.0283 123.98C93.1458 119.733 97.3873 103.89 97.7027 102.68C94.4245 113.783 87.1906 119.376 82.7429 121.868C82.7412 121.869 82.7394 121.871 82.7377 121.871C80.8387 122.935 79.4491 123.434 79.0957 123.55C79.3885 123.443 79.6952 123.28 80.0122 123.068C83.4949 120.762 88.18 112.828 88.4971 112.289C86.5651 115.38 83.1293 117.846 79.8806 119.641C75.937 121.821 72.2638 123.015 71.8687 123.139C72.5861 122.874 73.4732 122.212 74.4383 121.315C78.3922 117.629 83.656 109.969 84.0181 109.441C79.2793 115.812 70.668 120.887 65.2015 123.668C64.4426 124.054 63.7443 124.394 63.1258 124.692C61.3862 125.518 60.2755 125.974 60.2097 126.002C60.2738 125.932 61.5404 124.605 63.3146 122.626C63.7183 122.178 64.1463 121.696 64.5933 121.187C67.2426 118.177 70.5259 114.246 72.7836 110.865C77.5328 103.749 82.7464 98.248 83.0652 97.9119L83.0773 97.8997C76.2922 103.309 74.6912 105.522 68.7136 114.228C66.7695 117.059 64.1827 119.504 61.5733 121.516C56.9488 125.087 52.262 127.291 50.9972 127.857C50.9954 127.857 50.9954 127.859 50.9937 127.859C50.7979 127.946 50.6836 127.994 50.668 127.999C53.6811 124.477 56.0167 121.382 57.8897 118.619C66.9116 105.3 65.1495 99.7398 76.5972 91.8337C87.4886 84.3105 100.134 88.1414 105.006 90.1045C106.042 90.5221 106.402 91.8043 105.737 92.7035C105.368 93.2042 105.028 93.6946 104.722 94.1763C102.178 98.1388 101.651 101.429 102.173 104.094C102.547 106.014 103.467 107.615 104.571 108.909C105.964 110.548 107.65 111.702 108.896 112.414C109.94 113.017 110.677 113.303 110.677 113.303Z" fill="url(#paint30_linear)"/>
<path d="M120.085 97.349C119.335 91.6087 117.391 87.3343 114.303 85.2031C114.244 85.1598 114.182 85.1199 114.123 85.0801C114.107 85.0697 114.092 85.0593 114.076 85.0489C111.616 83.4618 106.146 82.2888 103.533 77.7665C102.44 75.8727 104.082 73.5527 106.234 73.9218C106.264 73.927 106.293 73.9339 106.324 73.9374C107.61 74.147 108.528 75.2819 108.502 76.5866C108.469 78.1807 108.752 79.8839 110.11 79.8509C111.749 79.8076 111.202 77.2034 110.602 75.3582C110.365 74.6218 110.119 74.0101 109.999 73.7225C109.963 73.6324 109.921 73.5441 109.873 73.4574C109.568 72.9134 108.177 69.999 111.503 67.2892C112.34 66.6065 112.676 65.4751 112.33 64.4528C111.647 62.4499 109.916 59.4801 105.543 58.2967C105.252 58.2187 104.976 58.0905 104.73 57.9155C104.068 57.4442 102.642 55.8346 102.142 54.8747C100.941 52.5755 97.292 52.0609 93.8908 54.8591C92.6849 55.8484 91.6089 57.6435 90.8517 59.8232C90.6733 60.3326 90.5121 60.8645 90.3735 61.412C89.7203 63.9694 89.5055 66.8716 89.9837 69.5746C90.2003 70.7943 90.5555 71.9726 91.077 73.0624C93.7609 78.6623 95.3601 79.6621 99.1841 82.2559C100.03 82.8294 100.917 83.3353 101.842 83.765C103.464 84.5187 106.241 85.8996 108.196 87.3273C109.388 88.1989 109.618 89.8813 108.709 91.0439C107.172 93.0087 104.969 96.3753 104.768 99.7557C104.692 101.031 104.857 102.199 105.217 103.233C106.099 105.77 108.158 107.515 110.722 108.142C111.399 108.308 112.115 108.396 112.851 108.403C117.503 108.428 120.853 103.231 120.085 97.349ZM102.577 68.8382C102.577 68.8382 101.159 68.2785 99.8668 67.128C98.2797 65.7159 98.0527 63.3041 99.4284 61.6875C100.39 60.5578 101.897 59.6846 104.127 60.544C104.127 60.544 107.866 61.4813 109.239 65.1528C109.324 65.3798 109.355 65.6241 109.325 65.8649C109.24 66.5701 108.929 68.0931 107.792 68.8347C107.435 69.0686 106.976 69.053 106.615 68.8295C106.045 68.476 105.061 68.0065 104.29 68.3565C104.288 68.3582 102.816 68.982 102.577 68.8382Z" fill="url(#paint31_linear)"/>
<path d="M97.999 64.4497C97.999 64.4497 99.3765 58.6938 103.992 60.3884C103.992 60.3884 107.953 61.3067 109.298 65.297C109.298 65.297 109.298 68.4054 107.127 69.0759C107.127 69.0759 105.474 67.7695 104.337 68.3343C104.337 68.3343 102.89 69.0049 102.649 68.8645C102.649 68.8628 98.997 67.4853 97.999 64.4497Z" fill="white"/>
<path d="M79.0559 88.7535C77.4394 89.398 75.8297 90.2418 74.2582 91.3265C72.4095 92.6034 70.8899 93.8232 69.6026 95.024C62.937 96.3183 54.8629 98.4615 46.002 102.001C45.2258 98.8254 44.8741 95.4658 44.9572 92.0109C44.9832 90.9158 45.0612 89.8347 45.1912 88.7691C50.1223 87.8923 61.6306 86.5617 79.0559 88.7535Z" fill="url(#paint32_linear)"/>
<path d="M67.7382 97.4395C62.885 102.873 61.7311 108.452 55.1244 118.205C51.2485 114.707 48.4554 110.268 46.7852 105.275C51.3195 103.188 58.9103 99.9847 67.7382 97.4395Z" fill="url(#paint33_linear)"/>
<path d="M90.0755 85.6742C90.0755 85.6742 84.8031 85.5702 80.383 87.769C80.383 87.769 62.1555 84.1061 45.0732 87.1452C45.0732 87.1452 49.0861 71.9359 54.4123 69.2988C59.7384 66.6617 90.0755 85.6742 90.0755 85.6742Z" fill="url(#paint34_linear)"/>
<path d="M98.8375 85.9756C98.8375 85.9756 94.0328 85.2341 91.8861 85.4559C91.8861 85.4559 62.793 66.4313 56.5156 66.9563C56.5156 66.9563 68.2648 54.9195 84.8376 59.2061L88.1054 64.8858C88.1054 64.8858 86.4819 76.6955 97.7858 82.4532L98.8375 85.9756Z" fill="url(#paint35_linear)"/>
<path d="M67.738 97.4395C67.738 97.4395 53.4956 105.72 50.4219 112.751C50.4219 112.751 52.7263 116.246 55.1243 118.205C55.1243 118.205 59.4958 111.696 61.6079 107.122C63.72 102.547 67.3205 97.4828 67.738 97.4395Z" fill="url(#paint36_linear)"/>
<path d="M46.0039 102.001C46.0039 102.001 56.9543 87.6127 79.0561 88.7528C79.0561 88.7528 76.4016 89.4372 69.6027 95.025C69.6027 95.0233 55.8679 97.5391 46.0039 102.001Z" fill="url(#paint37_linear)"/>
<path d="M45.0732 87.1472C45.0732 87.1472 65.3107 70.6177 90.0755 85.6762C90.0755 85.6762 84.9503 85.6935 80.383 87.771C80.383 87.771 63.306 84.0718 45.0732 87.1472Z" fill="url(#paint38_linear)"/>
<path d="M98.8375 85.9763C98.8375 85.9763 94.4469 85.375 91.8861 85.4565C91.8861 85.4565 63.8309 66.8702 56.5156 66.9569C56.5156 66.9569 77.985 62.2285 89.6648 74.1682C89.6648 74.1682 91.1012 78.6298 97.784 82.4538L98.8375 85.9763Z" fill="url(#paint39_linear)"/>
<path d="M113.61 68.9626C113.2 68.5381 112.541 68.4462 112.042 68.7633C111.663 69.0042 111.25 69.3871 110.999 69.9796C110.999 69.9796 110.996 69.9848 110.991 69.9952C110.906 70.1945 110.84 70.418 110.8 70.6675C110.798 70.6848 110.796 70.7004 110.793 70.716C110.734 71.0903 110.734 71.5235 110.812 72.0225C110.855 72.3014 110.93 72.5942 111.03 72.9026C111.311 73.7742 111.796 74.7496 112.347 75.7788C112.356 75.7962 112.371 75.8222 112.392 75.8585C112.772 76.5655 113.182 77.2984 113.581 78.04C113.586 78.0469 113.59 78.0556 113.593 78.0625C114.146 79.0934 114.674 80.14 115.062 81.1605C115.064 81.164 115.066 81.1674 115.066 81.1691C115.289 81.7582 115.468 82.3404 115.575 82.9035C115.577 82.907 115.577 82.9105 115.577 82.9139C115.579 82.9174 115.579 82.9191 115.579 82.9226C115.61 83.0855 115.845 83.082 115.865 82.9157C116.234 79.9546 116.823 72.2962 113.61 68.9626ZM113.063 70.1217C113.269 69.964 113.609 69.945 113.818 70.3331C113.981 70.6381 114.3 72.6601 114.3 72.6601C114.3 72.6601 113.286 71.1786 113.073 70.9049C112.864 70.6311 112.858 70.2794 113.063 70.1217Z" fill="url(#paint40_linear)"/>
<path d="M115.579 82.9259C115.579 82.9259 114.371 71.2755 111.001 69.9795C111.001 69.9795 109.932 71.7589 112.34 75.7648C112.339 75.7648 115.485 81.2279 115.579 82.9259Z" fill="url(#paint41_linear)"/>
<path d="M105.756 66.0852C105.583 65.9362 105.431 65.7525 105.306 65.5619C105.195 65.3904 105.113 65.2102 105.082 65.0092C105.049 64.7961 105.056 64.576 105.01 64.3647C104.952 64.1065 104.857 63.857 104.724 63.6283C104.497 63.2419 104.152 62.9335 103.727 62.781C103.597 62.7342 103.469 62.7082 103.332 62.6961C102.925 62.6615 102.483 62.5748 102.222 62.2266C102.39 62.4501 102.464 62.7533 102.445 63.0305C102.424 63.3268 102.319 63.6266 102.404 63.9211C102.466 64.136 102.589 64.3317 102.721 64.5119C102.904 64.7632 103.135 64.9797 103.386 65.1617C103.746 65.4233 104.152 65.6174 104.569 65.7681C104.751 65.8339 104.937 65.8911 105.126 65.9414C105.226 65.9691 105.328 65.9934 105.431 66.0176C105.533 66.0401 105.652 66.0817 105.756 66.0852Z" fill="url(#paint42_linear)"/>
<path d="M112.855 108.445C112.118 108.439 111.405 108.351 110.725 108.183C108.161 107.556 106.103 105.813 105.221 103.274C107.558 102.774 120.705 99.2806 114.125 85.123C114.185 85.1629 114.248 85.2045 114.305 85.2461C117.393 87.3772 119.337 91.6517 120.087 97.392C120.858 103.276 117.509 108.472 112.855 108.445Z" fill="url(#paint43_linear)"/>
<path d="M60.1904 125.954C63.7424 122.293 67.3013 118.625 70.4772 114.632C75.2541 108.629 80.5855 98.2121 89.4966 98.4807C92.0522 98.5586 94.5507 99.574 96.4757 101.249C97.3888 102.045 97.744 102.75 97.3455 103.919C94.3948 112.609 87.653 119.934 79.2392 123.596C83.0909 120.605 86.2548 116.736 88.4223 112.366C86.584 115.138 83.9451 117.311 81.0828 119.006C78.2187 120.7 75.119 121.95 72.0245 123.176C76.7616 119.377 80.8142 114.726 83.9296 109.513C77.7457 117.018 69.1933 122.275 60.1904 125.954Z" fill="url(#paint44_linear)"/>
<path d="M102.552 98.6879C102.552 98.6879 85.2877 84.0435 63.749 108.445C63.749 108.445 70.3522 89.2363 88.1154 87.5591C88.1154 87.5591 96.5517 86.3549 105.005 90.1061C105.005 90.1061 106.752 91.2341 105.736 92.7051C105.736 92.7051 103.044 96.3887 102.552 98.6879Z" fill="url(#paint45_linear)"/>
<path d="M17.8887 144.382C18.493 144.127 19.0173 144 19.4633 144C19.9093 144 20.3007 144.042 20.6411 144.127C20.9797 144.213 21.3274 144.353 21.6824 144.55C22.0374 144.746 22.3687 144.987 22.6764 145.272C23.2698 145.835 23.7741 146.47 24.1873 147.18L27.3676 153.146L31.9805 145.209H32.1243L33.7791 154.562C34.0339 156.004 34.4726 157.149 35.0989 157.997C35.7251 158.856 36.5825 159.286 37.6748 159.286C37.7494 159.286 37.8186 159.286 37.8823 159.286V159.444C37.2998 159.603 36.7263 159.683 36.1638 159.683C35.0188 159.683 33.9739 159.231 33.0309 158.33C32.1189 157.471 31.4981 156.215 31.1704 154.56L30.3913 149.931L27.4003 155.115C26.998 155.784 26.7905 156.372 26.7796 156.881H26.6358L22.6745 149.374L21.8954 155.736C21.8645 155.98 21.97 156.177 22.214 156.324C22.3086 156.388 22.4106 156.419 22.5162 156.419H22.771V156.563H19.4469V156.404H19.7018C19.9767 156.404 20.2243 156.322 20.4409 156.159C20.6575 155.995 20.7941 155.769 20.8468 155.483L21.9282 147.896C21.4512 147.047 20.9051 146.296 20.2898 145.637C19.5999 144.894 18.879 144.522 18.1271 144.522C18.0525 144.522 17.9833 144.528 17.9196 144.539L17.8887 144.382Z" fill="url(#paint46_linear)"/>
<path d="M46.5496 156.406H46.6934V156.564H41.6199V156.406H41.7638C41.9968 156.406 42.1697 156.335 42.2807 156.191C42.3918 156.047 42.4482 155.913 42.4482 155.785C42.4482 155.658 42.4209 155.53 42.3681 155.403L41.589 153.446H37.8662L37.0398 155.403C36.987 155.541 36.9597 155.671 36.9597 155.793C36.9597 155.915 37.0161 156.047 37.1272 156.189C37.2382 156.333 37.4166 156.404 37.6605 156.404H37.788V156.563H34.3838V156.404H34.5276C34.7715 156.404 35.0155 156.33 35.2594 156.182C35.5033 156.035 35.7054 155.811 35.8638 155.514L39.5374 147.195C40.0362 146.144 40.3001 145.451 40.3329 145.11H40.4767L45.2007 155.481C45.3591 155.789 45.5611 156.02 45.8051 156.173C46.0472 156.33 46.2966 156.406 46.5496 156.406ZM38.1357 152.78H41.3159L39.7722 148.868L38.1357 152.78Z" fill="url(#paint47_linear)"/>
<path d="M54.614 156.406C54.8889 156.406 55.1019 156.337 55.2494 156.201C55.4933 155.957 55.6207 155.696 55.6316 155.421V151.365H50.478V155.405C50.478 155.682 50.5782 155.917 50.7802 156.113C50.9823 156.31 51.2208 156.408 51.4957 156.408H51.6868L51.7032 156.566H46.8682V156.408H47.0757C47.3506 156.408 47.5872 156.31 47.7838 156.113C47.9804 155.917 48.0842 155.682 48.0933 155.405V146.578C48.0824 146.303 47.9786 146.068 47.7838 145.879C47.5872 145.688 47.3524 145.593 47.0757 145.593H46.8682V145.435H51.7032L51.6868 145.593H51.4957C51.219 145.593 50.9805 145.688 50.7802 145.879C50.5782 146.07 50.478 146.303 50.478 146.578V150.681H55.6316V146.578C55.6207 146.303 55.5169 146.068 55.3222 145.879C55.1256 145.688 54.8907 145.593 54.614 145.593H54.4065V145.435H59.2415V145.593H59.034C58.7573 145.593 58.5188 145.691 58.3186 145.888C58.1165 146.084 58.0164 146.319 58.0164 146.596V155.409C58.0164 155.685 58.1165 155.92 58.3186 156.117C58.5206 156.313 58.7591 156.412 59.034 156.412H59.2415V156.57H54.4065V156.412H54.614V156.406Z" fill="url(#paint48_linear)"/>
<path d="M71.3475 156.406H71.4913V156.564H66.4178V156.406H66.5616C66.7946 156.406 66.9676 156.335 67.0786 156.191C67.1896 156.047 67.2461 155.913 67.2461 155.785C67.2461 155.658 67.2188 155.53 67.166 155.403L66.3868 153.446H62.6641L61.8376 155.403C61.7848 155.541 61.7575 155.671 61.7575 155.793C61.7575 155.915 61.814 156.047 61.925 156.189C62.0361 156.333 62.2145 156.404 62.4584 156.404H62.5858V156.563H59.1816V156.404H59.3254C59.5694 156.404 59.8133 156.33 60.0573 156.182C60.3012 156.035 60.5033 155.811 60.6616 155.514L64.3352 147.195C64.834 146.144 65.098 145.451 65.1308 145.11H65.2746L69.9985 155.481C70.1569 155.789 70.359 156.02 70.6029 156.173C70.8432 156.33 71.0926 156.406 71.3475 156.406ZM62.9335 152.78H66.1138L64.5719 148.868L62.9335 152.78Z" fill="url(#paint49_linear)"/>
<path d="M76.0547 146.132H75.3702C75.3484 146.132 75.3338 146.132 75.3229 146.132V155.405C75.3338 155.798 75.5031 156.089 75.8326 156.28C75.991 156.366 76.1603 156.408 76.3423 156.408H76.5499V156.566H71.7148V156.408H71.9224C72.3047 156.408 72.5959 156.244 72.798 155.915C72.8836 155.767 72.9309 155.601 72.9418 155.421V146.594C72.9309 146.319 72.8271 146.083 72.6323 145.886C72.4357 145.689 72.2009 145.591 71.9242 145.591H71.7167V145.433H77.1725C78.201 145.433 79.0711 145.655 79.7811 146.101C80.1415 146.323 80.4274 146.634 80.6403 147.031C80.8515 147.428 80.9589 147.879 80.9589 148.384C80.9589 148.888 80.8715 149.352 80.6968 149.776C80.522 150.2 80.2307 150.572 79.8212 150.89C79.4134 151.209 78.9219 151.4 78.3503 151.464C78.9656 151.666 79.5062 152.132 79.9723 152.864C81.1173 154.699 81.9656 155.791 82.5172 156.14C82.7921 156.31 83.1379 156.401 83.5512 156.41V156.568H81.9929C81.0918 156.568 80.3382 156.444 79.7338 156.195C79.1294 155.946 78.6361 155.52 78.2538 154.915C78.0626 154.608 77.8187 154.143 77.522 153.523C77.2252 152.902 77.0286 152.459 76.934 152.194C76.6482 151.558 76.2877 151.202 75.8527 151.129V150.97H76.346C76.8229 150.97 77.2453 150.826 77.6112 150.541C77.9771 150.255 78.2228 149.787 78.3503 149.141C78.3921 148.919 78.414 148.744 78.414 148.617C78.414 147.748 78.2392 147.118 77.8897 146.732C77.5402 146.345 77.0887 146.146 76.5371 146.135C76.4261 146.132 76.2677 146.132 76.0547 146.132Z" fill="url(#paint50_linear)"/>
<path d="M93.5668 146.927C94.659 147.925 95.2052 149.281 95.2052 150.999C95.2052 152.718 94.659 154.074 93.5668 155.072C92.4746 156.069 90.9909 156.566 89.1141 156.566H83.3397V156.408H83.5472C83.8221 156.408 84.0588 156.31 84.2554 156.113C84.452 155.916 84.5557 155.682 84.5648 155.405V146.498C84.5339 146.243 84.421 146.028 84.2299 145.853C84.0387 145.678 83.8112 145.591 83.5454 145.591H83.3379V145.433H89.1122C90.9909 145.431 92.4746 145.93 93.5668 146.927ZM88.9065 155.898C89.6693 155.898 90.3301 155.7 90.8871 155.301C91.4442 154.904 91.8702 154.336 92.1669 153.599C92.4636 152.862 92.6129 151.995 92.6129 150.998C92.6129 149.492 92.2816 148.3 91.619 147.419C90.9563 146.539 90.0516 146.099 88.9065 146.099H86.9496V155.896H88.9065V155.898Z" fill="url(#paint51_linear)"/>
<path d="M96.398 156.406C96.6728 156.406 96.9095 156.308 97.1061 156.111C97.3027 155.915 97.4065 155.68 97.4156 155.403V146.576C97.4047 146.301 97.3009 146.066 97.1061 145.877C96.9095 145.686 96.6747 145.591 96.398 145.591H96.1904V145.433H101.025L101.009 145.591H100.818C100.541 145.591 100.303 145.686 100.102 145.877C99.9004 146.068 99.8003 146.301 99.8003 146.576V155.403C99.8003 155.68 99.9004 155.915 100.102 156.111C100.305 156.308 100.543 156.406 100.818 156.406H101.009L101.025 156.564H96.1904V156.406H96.398Z" fill="url(#paint52_linear)"/>
<path d="M102.538 156.406C102.813 156.406 103.05 156.308 103.247 156.111C103.443 155.914 103.547 155.68 103.556 155.403V146.576C103.545 146.193 103.37 145.908 103.032 145.716C102.883 145.631 102.719 145.589 102.538 145.589H102.331V145.431H107.166L107.15 145.589H106.958C106.576 145.589 106.285 145.753 106.083 146.082C105.988 146.232 105.939 146.395 105.939 146.576V155.403C105.939 155.68 106.039 155.914 106.241 156.111C106.443 156.308 106.682 156.406 106.957 156.406H107.148L107.164 156.564H102.329V156.406H102.538ZM114.022 156.566H112.718C111.105 156.566 109.966 156.126 109.298 155.246C107.399 152.669 106.451 151.36 106.451 151.318L110.221 146.324C110.306 146.219 110.348 146.122 110.348 146.039C110.348 145.953 110.332 145.88 110.301 145.817C110.215 145.658 110.068 145.578 109.855 145.578H109.696V145.434H113.339V145.578H113.275C112.565 145.578 111.986 145.833 111.542 146.341L108.44 150.014L112.401 155.423C112.889 156.058 113.43 156.388 114.023 156.41V156.566H114.022Z" fill="url(#paint53_linear)"/>
<path d="M129.053 159.477C127.897 160.06 126.724 160.156 125.537 159.763C124.276 159.36 123.189 158.501 122.277 157.187C121.789 156.488 121.371 155.676 121.021 154.753L120.511 153.4H116.758L115.915 155.405C115.862 155.543 115.835 155.654 115.835 155.738C115.835 155.823 115.853 155.916 115.891 156.016C115.928 156.117 116.008 156.208 116.13 156.286C116.252 156.366 116.386 156.406 116.536 156.406H116.663V156.564H113.259V156.406H113.403C113.647 156.406 113.887 156.335 114.127 156.191C114.366 156.047 114.564 155.833 114.724 155.547L118.27 147.451C117.857 146.517 117.417 145.877 116.951 145.527C116.557 145.23 116.184 145.081 115.829 145.081C115.474 145.081 115.143 145.134 114.835 145.24L114.804 145.081C115.567 144.69 116.299 144.493 117 144.493C117.87 144.493 118.649 144.832 119.337 145.511C120.016 146.179 120.615 147.144 121.134 148.405L123.44 154.099C124.311 156.253 125.201 157.731 126.113 158.538C126.484 158.867 126.866 159.095 127.258 159.222C127.649 159.35 127.982 159.413 128.252 159.413C128.521 159.413 128.785 159.382 129.04 159.319L129.053 159.477ZM117.029 152.716H120.273L119.159 149.774C119.106 149.625 119.031 149.421 118.937 149.163C118.842 148.902 118.778 148.72 118.746 148.613L117.029 152.716Z" fill="url(#paint54_linear)"/>
<path d="M21.259 181.326C19.7689 182.078 18.2571 182.201 16.7254 181.695C15.0981 181.175 13.6964 180.067 12.5206 178.371C11.892 177.468 11.352 176.423 10.9004 175.232L10.2448 173.487H5.40237L4.31503 176.072C4.2464 176.249 4.21208 176.394 4.21208 176.504C4.21208 176.614 4.23556 176.733 4.28433 176.863C4.33129 176.993 4.43424 177.109 4.59138 177.212C4.74852 177.315 4.92373 177.365 5.11518 177.365H5.27955V177.571H0.888672V177.365H1.07291C1.38718 177.365 1.69785 177.273 2.00671 177.089C2.31557 176.905 2.57025 176.627 2.77615 176.258L7.35126 165.815C6.81843 164.612 6.24948 163.783 5.64801 163.333C5.14227 162.95 4.66002 162.759 4.20125 162.759C3.74247 162.759 3.31621 162.827 2.91884 162.965L2.8773 162.759C3.86168 162.253 4.80632 162 5.70942 162C6.83107 162 7.83532 162.437 8.72578 163.313C9.59998 164.175 10.373 165.419 11.0431 167.047L14.0179 174.391C15.1396 177.167 16.2883 179.074 17.4642 180.114C17.9428 180.539 18.4359 180.833 18.9416 180.996C19.4474 181.16 19.8755 181.241 20.224 181.241C20.5726 181.241 20.9122 181.2 21.2391 181.119L21.259 181.326ZM5.74916 172.608H9.93412L8.4982 168.813C8.42956 168.622 8.33383 168.358 8.21101 168.024C8.08819 167.69 8.0051 167.453 7.96537 167.316L5.74916 172.608Z" fill="url(#paint55_linear)"/>
<path d="M22.4272 164.113H21.5458C21.5187 164.113 21.497 164.113 21.4844 164.113V176.074C21.497 176.58 21.7174 176.955 22.14 177.203C22.3459 177.313 22.5645 177.367 22.7957 177.367H23.063V177.573H16.8262V177.367H17.0935C17.5866 177.367 17.9623 177.156 18.2224 176.731C18.3307 176.54 18.394 176.329 18.4066 176.096V164.709C18.3921 164.353 18.2603 164.05 18.0056 163.797C17.7528 163.544 17.4475 163.418 17.0935 163.418H16.8262V163.212H23.8631C25.1889 163.212 26.3105 163.499 27.2281 164.073C27.6923 164.361 28.0625 164.762 28.3353 165.275C28.608 165.788 28.7453 166.369 28.7453 167.019C28.7453 167.67 28.6333 168.267 28.4075 168.815C28.1818 169.362 27.8061 169.841 27.2787 170.251C26.7512 170.661 26.1191 170.906 25.3803 170.989C26.1733 171.25 26.8705 171.851 27.4737 172.796C28.9512 175.162 30.0439 176.571 30.7556 177.022C31.1114 177.241 31.5557 177.356 32.0886 177.371V177.577H30.0783C28.9151 177.577 27.9451 177.416 27.1649 177.094C26.3846 176.773 25.7488 176.222 25.2575 175.443C25.0119 175.046 24.6958 174.448 24.3129 173.648C23.93 172.848 23.6771 172.277 23.5543 171.936C23.1858 171.116 22.7198 170.657 22.1599 170.561V170.355H22.7957C23.4116 170.355 23.9552 170.171 24.4267 169.801C24.8981 169.431 25.216 168.829 25.3803 167.995C25.4345 167.708 25.4616 167.482 25.4616 167.317C25.4616 166.196 25.2358 165.387 24.7843 164.886C24.3327 164.388 23.7511 164.131 23.0413 164.117C22.9058 164.113 22.6999 164.113 22.4272 164.113Z" fill="url(#paint56_linear)"/>
<path d="M46.5544 163.416H46.2058C45.9186 163.416 45.6694 163.508 45.4562 163.692C45.2449 163.876 45.1383 164.106 45.1383 164.38V172.382C45.1383 174.063 44.6109 175.398 43.5579 176.382C42.5049 177.367 41.0617 177.86 39.2284 177.86C37.0664 177.86 35.4119 177.378 34.2632 176.413C33.1145 175.449 32.5401 174.112 32.5401 172.402V164.442C32.5401 164.142 32.4335 163.894 32.2222 163.703C32.0109 163.511 31.7544 163.416 31.4528 163.416H31.124V163.21H37.0321V163.416H36.7034C36.4017 163.416 36.1489 163.508 35.9448 163.692C35.7389 163.876 35.6305 164.113 35.616 164.4V172.237C35.616 173.688 35.9719 174.836 36.6835 175.683C37.3952 176.532 38.3723 176.955 39.6168 176.955C40.8612 176.955 41.8456 176.554 42.5717 175.754C43.296 174.954 43.6663 173.87 43.6789 172.503V164.398C43.6789 164.111 43.5724 163.875 43.361 163.69C43.1497 163.506 42.8932 163.414 42.5916 163.414H42.2629V163.208H46.5508V163.416H46.5544Z" fill="url(#paint57_linear)"/>
<path d="M63.9523 163.416C63.6109 163.416 63.3165 163.536 63.0708 163.776C62.8252 164.016 62.6952 164.307 62.6807 164.648V175.234C62.6807 176.15 62.7421 176.923 62.8649 177.552L62.9263 177.859H62.7421L52.3817 167.99V176.134C52.3817 176.475 52.5046 176.766 52.752 177.006C52.9977 177.246 53.2921 177.366 53.6334 177.366H54.0236V177.571H47.8066V177.366H48.1751C48.5309 177.366 48.8308 177.246 49.0782 177.006C49.3239 176.768 49.4467 176.47 49.4467 176.114V165.466C49.4467 164.563 49.3853 163.812 49.2624 163.21L49.2209 162.903H49.4051L59.7655 172.772V164.668C59.751 164.312 59.621 164.014 59.3754 163.776C59.1297 163.537 58.8353 163.416 58.4939 163.416H58.1255V163.21H64.3424V163.416H63.9523Z" fill="url(#paint58_linear)"/>
<path d="M79.9554 177.368H80.1396V177.574H73.5957V177.368H73.78C74.0798 177.368 74.3037 177.276 74.4464 177.091C74.5891 176.907 74.6614 176.732 74.6614 176.567C74.6614 176.403 74.6271 176.239 74.5584 176.074L73.5524 173.551H68.7515L67.684 176.074C67.6154 176.251 67.5811 176.419 67.5811 176.577C67.5811 176.734 67.6533 176.905 67.796 177.09C67.9405 177.274 68.1681 177.366 68.4824 177.366H68.6467V177.572H64.2559V177.366H64.4401C64.7544 177.366 65.0686 177.27 65.3829 177.079C65.6972 176.887 65.9573 176.6 66.1632 176.217L70.9027 165.486C71.5457 164.132 71.8871 163.236 71.9286 162.799H72.1128L78.2051 176.176C78.411 176.573 78.6693 176.869 78.9854 177.068C79.3051 177.268 79.6266 177.368 79.9554 177.368ZM69.1019 172.69H73.2056L71.2152 167.643L69.1019 172.69Z" fill="url(#paint59_linear)"/>
<path d="M80.6306 177.367C80.9864 177.367 81.2899 177.241 81.5427 176.988C81.7956 176.735 81.9293 176.43 81.9437 176.076V164.689C81.9293 164.196 81.7035 163.828 81.2664 163.582C81.0749 163.472 80.8636 163.418 80.6306 163.418H80.3633V163.212H86.6001L86.5802 163.418H86.3346C85.8415 163.418 85.4658 163.631 85.2057 164.054C85.0829 164.245 85.0215 164.456 85.0215 164.689V176.076C85.0215 176.431 85.1515 176.735 85.4116 176.988C85.6717 177.241 85.9788 177.367 86.3346 177.367H86.5802L86.6001 177.573H80.3633V177.367H80.6306ZM95.4432 177.573H93.7617C91.6827 177.573 90.2125 177.006 89.3509 175.87C86.9017 172.546 85.6789 170.858 85.6789 170.802L90.5412 164.359C90.6496 164.222 90.7056 164.099 90.7056 163.99C90.7056 163.88 90.6857 163.784 90.6442 163.703C90.534 163.499 90.3425 163.396 90.0698 163.396H89.8639V163.212H94.5618V163.396H94.4805C93.5648 163.396 92.8188 163.725 92.2445 164.381L88.2437 169.12L93.3517 176.096C93.9802 176.916 94.6774 177.34 95.4451 177.367V177.573H95.4432Z" fill="url(#paint60_linear)"/>
<path d="M110.153 177.368H110.337V177.574H103.793V177.368H103.977C104.277 177.368 104.501 177.276 104.644 177.091C104.788 176.907 104.859 176.732 104.859 176.567C104.859 176.403 104.824 176.239 104.756 176.074L103.75 173.551H98.9488L97.8813 176.074C97.8127 176.251 97.7783 176.419 97.7783 176.577C97.7783 176.734 97.8506 176.905 97.9933 177.09C98.1378 177.274 98.3654 177.366 98.6796 177.366H98.844V177.572H94.4531V177.366H94.6374C94.9516 177.366 95.2659 177.27 95.5802 177.079C95.8945 176.887 96.1546 176.6 96.3605 176.217L101.1 165.486C101.743 164.132 102.084 163.236 102.126 162.799H102.31L108.402 176.176C108.608 176.573 108.867 176.869 109.183 177.068C109.504 177.268 109.826 177.368 110.153 177.368ZM99.301 172.69H103.405L101.414 167.643L99.301 172.69Z" fill="url(#paint61_linear)"/>
<path d="M116.226 164.113H115.345C115.317 164.113 115.296 164.113 115.283 164.113V176.074C115.296 176.58 115.516 176.955 115.939 177.203C116.145 177.313 116.363 177.367 116.594 177.367H116.862V177.573H110.625V177.367H110.892C111.385 177.367 111.761 177.156 112.021 176.731C112.13 176.54 112.193 176.329 112.205 176.096V164.709C112.191 164.353 112.059 164.05 111.804 163.797C111.552 163.544 111.246 163.418 110.892 163.418H110.625V163.212H117.662C118.988 163.212 120.109 163.499 121.027 164.073C121.491 164.361 121.861 164.762 122.134 165.275C122.407 165.788 122.544 166.369 122.544 167.019C122.544 167.67 122.432 168.267 122.206 168.815C121.981 169.362 121.605 169.841 121.077 170.251C120.55 170.661 119.918 170.906 119.179 170.989C119.972 171.25 120.669 171.851 121.273 172.796C122.75 175.162 123.845 176.571 124.554 177.022C124.91 177.241 125.355 177.356 125.887 177.371V177.577H123.877C122.714 177.577 121.744 177.416 120.964 177.094C120.183 176.773 119.548 176.222 119.056 175.443C118.811 175.046 118.495 174.448 118.112 173.648C117.729 172.848 117.476 172.277 117.353 171.936C116.985 171.116 116.519 170.657 115.959 170.561V170.355H116.594C117.21 170.355 117.754 170.171 118.225 169.801C118.697 169.431 119.015 168.829 119.179 167.995C119.233 167.708 119.26 167.482 119.26 167.317C119.26 166.196 119.035 165.387 118.583 164.886C118.132 164.388 117.55 164.131 116.84 164.117C116.705 164.113 116.501 164.113 116.226 164.113Z" fill="url(#paint62_linear)"/>
<path d="M144.579 181.326C143.089 182.078 141.577 182.201 140.046 181.695C138.418 181.175 137.017 180.067 135.841 178.371C135.212 177.468 134.672 176.423 134.221 175.232L133.565 173.487H128.723L127.635 176.072C127.567 176.249 127.532 176.394 127.532 176.504C127.532 176.614 127.556 176.733 127.605 176.863C127.652 176.993 127.755 177.109 127.912 177.212C128.069 177.315 128.244 177.365 128.435 177.365H128.6V177.571H124.209V177.365H124.393C124.707 177.365 125.018 177.273 125.327 177.089C125.636 176.905 125.891 176.627 126.096 176.258L130.672 165.815C130.139 164.612 129.57 163.783 128.968 163.333C128.463 162.95 127.98 162.759 127.522 162.759C127.063 162.759 126.637 162.827 126.239 162.965L126.198 162.759C127.182 162.253 128.127 162 129.03 162C130.151 162 131.156 162.437 132.046 163.313C132.92 164.175 133.693 165.419 134.363 167.047L137.338 174.391C138.46 177.167 139.609 179.074 140.784 180.114C141.263 180.539 141.756 180.833 142.262 180.996C142.768 181.16 143.196 181.241 143.544 181.241C143.893 181.241 144.233 181.2 144.559 181.119L144.579 181.326ZM129.069 172.608H133.254L131.819 168.813C131.75 168.622 131.654 168.358 131.531 168.024C131.409 167.69 131.325 167.453 131.286 167.316L129.069 172.608Z" fill="url(#paint63_linear)"/>
<defs>
<linearGradient id="paint0_linear" x1="136.013" y1="73.584" x2="103.236" y2="40.8068" gradientUnits="userSpaceOnUse">
<stop offset="0.1173" stop-color="#D24D56"/>
<stop offset="0.212" stop-color="#C84950"/>
<stop offset="0.5312" stop-color="#AA3C3D"/>
<stop offset="0.8051" stop-color="#983531"/>
<stop offset="1" stop-color="#91322D"/>
</linearGradient>
<linearGradient id="paint1_linear" x1="133.773" y1="75.3515" x2="66.9481" y2="8.52638" gradientUnits="userSpaceOnUse">
<stop stop-color="#3F3C6A"/>
<stop offset="0.2077" stop-color="#464170"/>
<stop offset="0.4996" stop-color="#584F82"/>
<stop offset="0.8398" stop-color="#76659E"/>
<stop offset="0.8827" stop-color="#7A68A2"/>
</linearGradient>
<linearGradient id="paint2_linear" x1="98.3501" y1="127.312" x2="-9.21969" y2="19.7422" gradientUnits="userSpaceOnUse">
<stop offset="0.1173" stop-color="#7A68A2"/>
<stop offset="0.212" stop-color="#706198"/>
<stop offset="0.5312" stop-color="#524B7D"/>
<stop offset="0.8051" stop-color="#403E6C"/>
<stop offset="1" stop-color="#393966"/>
</linearGradient>
<linearGradient id="paint3_linear" x1="147.436" y1="85.0063" x2="93.3691" y2="30.9396" gradientUnits="userSpaceOnUse">
<stop offset="0.1173" stop-color="#3D3D6B"/>
<stop offset="0.1784" stop-color="#434171"/>
<stop offset="0.5112" stop-color="#61578C"/>
<stop offset="0.7968" stop-color="#73639C"/>
<stop offset="1" stop-color="#7A68A2"/>
</linearGradient>
<linearGradient id="paint4_linear" x1="104.19" y1="121.088" x2="63.5722" y2="80.4704" gradientUnits="userSpaceOnUse">
<stop offset="0.1173" stop-color="#7A68A2"/>
<stop offset="0.1784" stop-color="#74649C"/>
<stop offset="0.5112" stop-color="#564E81"/>
<stop offset="0.7968" stop-color="#444271"/>
<stop offset="1" stop-color="#3D3D6B"/>
</linearGradient>
<linearGradient id="paint5_linear" x1="38.8684" y1="99.7531" x2="30.2203" y2="0.905166" gradientUnits="userSpaceOnUse">
<stop offset="0.3128" stop-color="#3B3A67"/>
<stop offset="0.4616" stop-color="#403E6B"/>
<stop offset="0.6356" stop-color="#4E4879"/>
<stop offset="0.8214" stop-color="#65598E"/>
<stop offset="0.9609" stop-color="#7C69A3"/>
</linearGradient>
<linearGradient id="paint6_linear" x1="68.875" y1="44.1039" x2="31.3235" y2="6.55244" gradientUnits="userSpaceOnUse">
<stop stop-color="#7A69A2"/>
<stop offset="0.7542" stop-color="#3B3B68"/>
</linearGradient>
<linearGradient id="paint7_linear" x1="101.496" y1="39.0666" x2="68.7158" y2="6.28595" gradientUnits="userSpaceOnUse">
<stop offset="0.1173" stop-color="#7868A1"/>
<stop offset="0.1784" stop-color="#72639B"/>
<stop offset="0.5112" stop-color="#544D7F"/>
<stop offset="0.7968" stop-color="#42406E"/>
<stop offset="1" stop-color="#3B3B68"/>
</linearGradient>
<linearGradient id="paint8_linear" x1="124.443" y1="99.6718" x2="104.847" y2="80.076" gradientUnits="userSpaceOnUse">
<stop offset="0.1173" stop-color="#7A68A2"/>
<stop offset="0.1784" stop-color="#74649C"/>
<stop offset="0.5112" stop-color="#564E80"/>
<stop offset="0.7968" stop-color="#44426F"/>
<stop offset="1" stop-color="#3D3D69"/>
</linearGradient>
<linearGradient id="paint9_linear" x1="86.5811" y1="102.278" x2="89.4046" y2="79.1043" gradientUnits="userSpaceOnUse">
<stop/>
<stop offset="0.0162" stop-color="#0C0C0C"/>
<stop offset="0.0908" stop-color="#3E3E3E"/>
<stop offset="0.1709" stop-color="#6C6C6C"/>
<stop offset="0.2545" stop-color="#949494"/>
<stop offset="0.3427" stop-color="#B5B5B5"/>
<stop offset="0.4368" stop-color="#D0D0D0"/>
<stop offset="0.5388" stop-color="#E5E5E5"/>
<stop offset="0.6526" stop-color="#F4F4F4"/>
<stop offset="0.7879" stop-color="#FCFCFC"/>
<stop offset="1" stop-color="white"/>
</linearGradient>
<linearGradient id="paint10_linear" x1="98.2986" y1="104.199" x2="109.526" y2="78.9177" gradientUnits="userSpaceOnUse">
<stop stop-color="white"/>
<stop offset="0.1931" stop-color="#FBFBFB"/>
<stop offset="0.3868" stop-color="#EFF0F0"/>
<stop offset="0.5808" stop-color="#DBDCDE"/>
<stop offset="0.7752" stop-color="#BFC1C4"/>
<stop offset="0.9681" stop-color="#9B9EA3"/>
<stop offset="1" stop-color="#94989D"/>
</linearGradient>
<linearGradient id="paint11_linear" x1="96.4031" y1="89.5468" x2="123.796" y2="68.1043" gradientUnits="userSpaceOnUse">
<stop stop-color="white"/>
<stop offset="0.1606" stop-color="#F6F6F7"/>
<stop offset="0.4218" stop-color="#DEDFE1"/>
<stop offset="0.7491" stop-color="#B7B9BD"/>
<stop offset="1" stop-color="#94989D"/>
</linearGradient>
<linearGradient id="paint12_linear" x1="102.001" y1="82.1449" x2="138.146" y2="53.8509" gradientUnits="userSpaceOnUse">
<stop stop-color="#EBEBEF"/>
<stop offset="0.187" stop-color="#E2E3E7"/>
<stop offset="0.4911" stop-color="#CACBD0"/>
<stop offset="0.8724" stop-color="#A3A6AB"/>
<stop offset="1" stop-color="#94989D"/>
</linearGradient>
<linearGradient id="paint13_linear" x1="112.022" y1="70.6271" x2="138.977" y2="49.5266" gradientUnits="userSpaceOnUse">
<stop offset="0.1564" stop-color="#EBEBEF"/>
<stop offset="0.3142" stop-color="#E2E3E7"/>
<stop offset="0.5707" stop-color="#CACBD0"/>
<stop offset="0.8924" stop-color="#A3A6AB"/>
<stop offset="1" stop-color="#94989D"/>
</linearGradient>
<linearGradient id="paint14_linear" x1="88.2265" y1="80.3963" x2="102.134" y2="48.3009" gradientUnits="userSpaceOnUse">
<stop offset="0.1508" stop-color="#EBEBEF"/>
<stop offset="0.2541" stop-color="#E7E7EB"/>
<stop offset="0.3635" stop-color="#DADADE"/>
<stop offset="0.4759" stop-color="#C5C5C9"/>
<stop offset="0.5902" stop-color="#A8A8AB"/>
<stop offset="0.706" stop-color="#838385"/>
<stop offset="0.8232" stop-color="#555556"/>
<stop offset="0.9391" stop-color="#1F1F20"/>
<stop offset="1"/>
</linearGradient>
<linearGradient id="paint15_linear" x1="105.651" y1="69.7127" x2="100.41" y2="47.1082" gradientUnits="userSpaceOnUse">
<stop stop-color="white"/>
<stop offset="0.2121" stop-color="#FCFCFC"/>
<stop offset="0.3474" stop-color="#F4F4F4"/>
<stop offset="0.4612" stop-color="#E5E5E5"/>
<stop offset="0.5632" stop-color="#D0D0D0"/>
<stop offset="0.6573" stop-color="#B5B5B5"/>
<stop offset="0.7455" stop-color="#949494"/>
<stop offset="0.8291" stop-color="#6C6C6C"/>
<stop offset="0.9092" stop-color="#3E3E3E"/>
<stop offset="0.9838" stop-color="#0C0C0C"/>
<stop offset="1"/>
</linearGradient>
<linearGradient id="paint16_linear" x1="115.77" y1="48.3899" x2="111.663" y2="30.6736" gradientUnits="userSpaceOnUse">
<stop stop-color="#EBEBEF"/>
<stop offset="0.2168" stop-color="#E8E8EC"/>
<stop offset="0.3551" stop-color="#E0E0E4"/>
<stop offset="0.4715" stop-color="#D1D1D5"/>
<stop offset="0.5757" stop-color="#BDBDC0"/>
<stop offset="0.6718" stop-color="#A2A2A5"/>
<stop offset="0.762" stop-color="#828284"/>
<stop offset="0.8476" stop-color="#5B5B5C"/>
<stop offset="0.9273" stop-color="#2F2F30"/>
<stop offset="1"/>
</linearGradient>
<linearGradient id="paint17_linear" x1="126.854" y1="47.8363" x2="126.4" y2="23.152" gradientUnits="userSpaceOnUse">
<stop stop-color="#EBEBEF"/>
<stop offset="0.2168" stop-color="#E8E8EC"/>
<stop offset="0.3551" stop-color="#E0E0E4"/>
<stop offset="0.4715" stop-color="#D1D1D5"/>
<stop offset="0.5757" stop-color="#BDBDC0"/>
<stop offset="0.6718" stop-color="#A2A2A5"/>
<stop offset="0.762" stop-color="#828284"/>
<stop offset="0.8476" stop-color="#5B5B5C"/>
<stop offset="0.9273" stop-color="#2F2F30"/>
<stop offset="1"/>
</linearGradient>
<linearGradient id="paint18_linear" x1="120.191" y1="57.4777" x2="147.387" y2="36.189" gradientUnits="userSpaceOnUse">
<stop offset="0.1564" stop-color="#EBEBEF"/>
<stop offset="0.3142" stop-color="#E2E3E7"/>
<stop offset="0.5707" stop-color="#CACBD0"/>
<stop offset="0.8924" stop-color="#A3A6AB"/>
<stop offset="1" stop-color="#94989D"/>
</linearGradient>
<linearGradient id="paint19_linear" x1="73.7663" y1="93.5523" x2="70.2464" y2="64.6627" gradientUnits="userSpaceOnUse">
<stop/>
<stop offset="0.0162" stop-color="#0C0C0C"/>
<stop offset="0.0908" stop-color="#3E3E3E"/>
<stop offset="0.1709" stop-color="#6C6C6C"/>
<stop offset="0.2545" stop-color="#949494"/>
<stop offset="0.3427" stop-color="#B5B5B5"/>
<stop offset="0.4368" stop-color="#D0D0D0"/>
<stop offset="0.5388" stop-color="#E5E5E5"/>
<stop offset="0.6526" stop-color="#F4F4F4"/>
<stop offset="0.7879" stop-color="#FCFCFC"/>
<stop offset="1" stop-color="white"/>
</linearGradient>
<linearGradient id="paint20_linear" x1="59.1591" y1="95.9479" x2="45.162" y2="64.4311" gradientUnits="userSpaceOnUse">
<stop stop-color="white"/>
<stop offset="0.1931" stop-color="#FBFBFB"/>
<stop offset="0.3868" stop-color="#EFF0F0"/>
<stop offset="0.5808" stop-color="#DBDCDE"/>
<stop offset="0.7752" stop-color="#BFC1C4"/>
<stop offset="0.9681" stop-color="#9B9EA3"/>
<stop offset="1" stop-color="#94989D"/>
</linearGradient>
<linearGradient id="paint21_linear" x1="61.5215" y1="77.6818" x2="27.372" y2="50.9501" gradientUnits="userSpaceOnUse">
<stop stop-color="white"/>
<stop offset="0.1606" stop-color="#F6F6F7"/>
<stop offset="0.4218" stop-color="#DEDFE1"/>
<stop offset="0.7491" stop-color="#B7B9BD"/>
<stop offset="1" stop-color="#94989D"/>
</linearGradient>
<linearGradient id="paint22_linear" x1="54.5447" y1="68.4531" x2="9.48363" y2="33.1801" gradientUnits="userSpaceOnUse">
<stop stop-color="#EBEBEF"/>
<stop offset="0.187" stop-color="#E2E3E7"/>
<stop offset="0.4911" stop-color="#CACBD0"/>
<stop offset="0.8724" stop-color="#A3A6AB"/>
<stop offset="1" stop-color="#94989D"/>
</linearGradient>
<linearGradient id="paint23_linear" x1="42.05" y1="54.095" x2="8.44532" y2="27.7898" gradientUnits="userSpaceOnUse">
<stop offset="0.1564" stop-color="#EBEBEF"/>
<stop offset="0.3142" stop-color="#E2E3E7"/>
<stop offset="0.5707" stop-color="#CACBD0"/>
<stop offset="0.8924" stop-color="#A3A6AB"/>
<stop offset="1" stop-color="#94989D"/>
</linearGradient>
<linearGradient id="paint24_linear" x1="71.7158" y1="66.2742" x2="54.3778" y2="26.2619" gradientUnits="userSpaceOnUse">
<stop offset="0.1508" stop-color="#EBEBEF"/>
<stop offset="0.2541" stop-color="#E7E7EB"/>
<stop offset="0.3635" stop-color="#DADADE"/>
<stop offset="0.4759" stop-color="#C5C5C9"/>
<stop offset="0.5902" stop-color="#A8A8AB"/>
<stop offset="0.706" stop-color="#838385"/>
<stop offset="0.8232" stop-color="#555556"/>
<stop offset="0.9391" stop-color="#1F1F20"/>
<stop offset="1"/>
</linearGradient>
<linearGradient id="paint25_linear" x1="49.9919" y1="52.9552" x2="56.5254" y2="24.775" gradientUnits="userSpaceOnUse">
<stop stop-color="white"/>
<stop offset="0.2121" stop-color="#FCFCFC"/>
<stop offset="0.3474" stop-color="#F4F4F4"/>
<stop offset="0.4612" stop-color="#E5E5E5"/>
<stop offset="0.5632" stop-color="#D0D0D0"/>
<stop offset="0.6573" stop-color="#B5B5B5"/>
<stop offset="0.7455" stop-color="#949494"/>
<stop offset="0.8291" stop-color="#6C6C6C"/>
<stop offset="0.9092" stop-color="#3E3E3E"/>
<stop offset="0.9838" stop-color="#0C0C0C"/>
<stop offset="1"/>
</linearGradient>
<linearGradient id="paint26_linear" x1="37.378" y1="26.3724" x2="42.4986" y2="4.28611" gradientUnits="userSpaceOnUse">
<stop stop-color="#EBEBEF"/>
<stop offset="0.2168" stop-color="#E8E8EC"/>
<stop offset="0.3551" stop-color="#E0E0E4"/>
<stop offset="0.4715" stop-color="#D1D1D5"/>
<stop offset="0.5757" stop-color="#BDBDC0"/>
<stop offset="0.6718" stop-color="#A2A2A5"/>
<stop offset="0.762" stop-color="#828284"/>
<stop offset="0.8476" stop-color="#5B5B5C"/>
<stop offset="0.9273" stop-color="#2F2F30"/>
<stop offset="1"/>
</linearGradient>
<linearGradient id="paint27_linear" x1="23.5594" y1="25.6827" x2="24.1251" y2="-5.09039" gradientUnits="userSpaceOnUse">
<stop stop-color="#EBEBEF"/>
<stop offset="0.2168" stop-color="#E8E8EC"/>
<stop offset="0.3551" stop-color="#E0E0E4"/>
<stop offset="0.4715" stop-color="#D1D1D5"/>
<stop offset="0.5757" stop-color="#BDBDC0"/>
<stop offset="0.6718" stop-color="#A2A2A5"/>
<stop offset="0.762" stop-color="#828284"/>
<stop offset="0.8476" stop-color="#5B5B5C"/>
<stop offset="0.9273" stop-color="#2F2F30"/>
<stop offset="1"/>
</linearGradient>
<linearGradient id="paint28_linear" x1="31.8663" y1="37.7013" x2="-2.03809" y2="11.1615" gradientUnits="userSpaceOnUse">
<stop offset="0.1564" stop-color="#EBEBEF"/>
<stop offset="0.3142" stop-color="#E2E3E7"/>
<stop offset="0.5707" stop-color="#CACBD0"/>
<stop offset="0.8924" stop-color="#A3A6AB"/>
<stop offset="1" stop-color="#94989D"/>
</linearGradient>
<radialGradient id="paint29_radial" cx="0" cy="0" r="1" gradientUnits="userSpaceOnUse" gradientTransform="translate(62.3624 77.8415) rotate(1.36379) scale(24.1881)">
<stop stop-color="#7F6CA7"/>
<stop offset="0.3209" stop-color="#7C6AA4"/>
<stop offset="0.5324" stop-color="#73649C"/>
<stop offset="0.7123" stop-color="#64598E"/>
<stop offset="0.8737" stop-color="#4F497B"/>
<stop offset="1" stop-color="#393966"/>
</radialGradient>
<linearGradient id="paint30_linear" x1="58.08" y1="145.904" x2="108.352" y2="82.8402" gradientUnits="userSpaceOnUse">
<stop stop-color="#7F6CA7"/>
<stop offset="0.2604" stop-color="#72629A"/>
<stop offset="0.7456" stop-color="#4E487A"/>
<stop offset="1" stop-color="#393966"/>
</linearGradient>
<linearGradient id="paint31_linear" x1="86.904" y1="76.3763" x2="123.776" y2="84.8895" gradientUnits="userSpaceOnUse">
<stop stop-color="#393966"/>
<stop offset="0.344" stop-color="#534C7E"/>
<stop offset="0.8464" stop-color="#7F6CA7"/>
</linearGradient>
<linearGradient id="paint32_linear" x1="44.8908" y1="94.5549" x2="78.8918" y2="95.3644" gradientUnits="userSpaceOnUse">
<stop stop-color="#7F6CA7"/>
<stop offset="0.2105" stop-color="#7867A1"/>
<stop offset="0.5137" stop-color="#65598F"/>
<stop offset="0.8713" stop-color="#464272"/>
<stop offset="1" stop-color="#393966"/>
</linearGradient>
<linearGradient id="paint33_linear" x1="46.7255" y1="107.468" x2="67.4801" y2="107.962" gradientUnits="userSpaceOnUse">
<stop stop-color="#7F6CA7"/>
<stop offset="0.2105" stop-color="#7867A1"/>
<stop offset="0.5137" stop-color="#65598F"/>
<stop offset="0.8713" stop-color="#464272"/>
<stop offset="1" stop-color="#393966"/>
</linearGradient>
<linearGradient id="paint34_linear" x1="52.202" y1="95.1686" x2="78.0691" y2="72.1735" gradientUnits="userSpaceOnUse">
<stop stop-color="#7F6CA7"/>
<stop offset="0.252" stop-color="#7B69A4"/>
<stop offset="0.4844" stop-color="#706199"/>
<stop offset="0.7091" stop-color="#5D5488"/>
<stop offset="0.9279" stop-color="#434170"/>
<stop offset="1" stop-color="#393966"/>
</linearGradient>
<linearGradient id="paint35_linear" x1="56.3168" y1="70.2254" x2="99.6058" y2="72.7698" gradientUnits="userSpaceOnUse">
<stop stop-color="#7F6CA7"/>
<stop offset="0.497" stop-color="#5A5185"/>
<stop offset="1" stop-color="#393966"/>
</linearGradient>
<linearGradient id="paint36_linear" x1="59.2177" y1="118.155" x2="58.9887" y2="97.5328" gradientUnits="userSpaceOnUse">
<stop stop-color="#3E3E6A"/>
<stop offset="0.2485" stop-color="#43426F"/>
<stop offset="0.5563" stop-color="#534D7E"/>
<stop offset="0.8942" stop-color="#6C6097"/>
<stop offset="1" stop-color="#7567A0"/>
</linearGradient>
<linearGradient id="paint37_linear" x1="46.3444" y1="102.69" x2="78.0627" y2="86.7815" gradientUnits="userSpaceOnUse">
<stop stop-color="#393966"/>
<stop offset="1" stop-color="#7F6CA7"/>
</linearGradient>
<linearGradient id="paint38_linear" x1="49.1665" y1="95.3162" x2="85.7124" y2="76.9865" gradientUnits="userSpaceOnUse">
<stop stop-color="#393966"/>
<stop offset="1" stop-color="#7F6CA7"/>
</linearGradient>
<linearGradient id="paint39_linear" x1="58.9897" y1="62.3585" x2="99.7101" y2="84.3427" gradientUnits="userSpaceOnUse">
<stop offset="0.1453" stop-color="#393966"/>
<stop offset="0.3327" stop-color="#423F6E"/>
<stop offset="0.6377" stop-color="#5A5185"/>
<stop offset="1" stop-color="#7F6CA7"/>
</linearGradient>
<linearGradient id="paint40_linear" x1="110.638" y1="75.7221" x2="116.221" y2="75.855" gradientUnits="userSpaceOnUse">
<stop stop-color="#7F6CA7"/>
<stop offset="0.2105" stop-color="#7867A1"/>
<stop offset="0.5137" stop-color="#65598F"/>
<stop offset="0.8713" stop-color="#464272"/>
<stop offset="1" stop-color="#393966"/>
</linearGradient>
<linearGradient id="paint41_linear" x1="115.081" y1="83.0601" x2="111.388" y2="69.8668" gradientUnits="userSpaceOnUse">
<stop stop-color="#7F6CA7"/>
<stop offset="0.2281" stop-color="#75659E"/>
<stop offset="0.6159" stop-color="#5A5185"/>
<stop offset="1" stop-color="#393966"/>
</linearGradient>
<linearGradient id="paint42_linear" x1="102.17" y1="64.1093" x2="105.795" y2="64.1956" gradientUnits="userSpaceOnUse">
<stop stop-color="#7F6CA7"/>
<stop offset="1" stop-color="#393966"/>
</linearGradient>
<linearGradient id="paint43_linear" x1="101.936" y1="97.6038" x2="123.862" y2="96.0599" gradientUnits="userSpaceOnUse">
<stop offset="0.1397" stop-color="#7F6CA7"/>
<stop offset="0.3118" stop-color="#6A5D93"/>
<stop offset="0.5793" stop-color="#4F497A"/>
<stop offset="0.8174" stop-color="#3F3D6B"/>
<stop offset="1" stop-color="#393966"/>
</linearGradient>
<linearGradient id="paint44_linear" x1="79.7053" y1="124.246" x2="77.536" y2="99.45" gradientUnits="userSpaceOnUse">
<stop offset="0.4581" stop-color="#393966"/>
<stop offset="0.5726" stop-color="#3F3D6C"/>
<stop offset="0.7256" stop-color="#504A7B"/>
<stop offset="0.8997" stop-color="#6C5E95"/>
<stop offset="1" stop-color="#7F6CA7"/>
</linearGradient>
<linearGradient id="paint45_linear" x1="65.0386" y1="110.506" x2="103.152" y2="86.6903" gradientUnits="userSpaceOnUse">
<stop stop-color="#393966"/>
<stop offset="0.2919" stop-color="#3C3B69"/>
<stop offset="0.5107" stop-color="#464272"/>
<stop offset="0.7056" stop-color="#564E81"/>
<stop offset="0.8857" stop-color="#6C5E96"/>
<stop offset="1" stop-color="#7F6CA7"/>
</linearGradient>
<linearGradient id="paint46_linear" x1="27.8849" y1="159.683" x2="27.8849" y2="144" gradientUnits="userSpaceOnUse">
<stop stop-color="#3F3C6A"/>
<stop offset="0.2077" stop-color="#464170"/>
<stop offset="0.4996" stop-color="#584F82"/>
<stop offset="0.8398" stop-color="#76659E"/>
<stop offset="0.8827" stop-color="#7A68A2"/>
</linearGradient>
<linearGradient id="paint47_linear" x1="40.538" y1="156.566" x2="40.538" y2="145.113" gradientUnits="userSpaceOnUse">
<stop stop-color="#3F3C6A"/>
<stop offset="0.2077" stop-color="#464170"/>
<stop offset="0.4996" stop-color="#584F82"/>
<stop offset="0.8398" stop-color="#76659E"/>
<stop offset="0.8827" stop-color="#7A68A2"/>
</linearGradient>
<linearGradient id="paint48_linear" x1="53.0556" y1="156.566" x2="53.0556" y2="145.432" gradientUnits="userSpaceOnUse">
<stop stop-color="#3F3C6A"/>
<stop offset="0.2077" stop-color="#464170"/>
<stop offset="0.4996" stop-color="#584F82"/>
<stop offset="0.8398" stop-color="#76659E"/>
<stop offset="0.8827" stop-color="#7A68A2"/>
</linearGradient>
<linearGradient id="paint49_linear" x1="65.3351" y1="156.566" x2="65.3351" y2="145.113" gradientUnits="userSpaceOnUse">
<stop stop-color="#3F3C6A"/>
<stop offset="0.2077" stop-color="#464170"/>
<stop offset="0.4996" stop-color="#584F82"/>
<stop offset="0.8398" stop-color="#76659E"/>
<stop offset="0.8827" stop-color="#7A68A2"/>
</linearGradient>
<linearGradient id="paint50_linear" x1="77.6297" y1="156.566" x2="77.6297" y2="145.432" gradientUnits="userSpaceOnUse">
<stop stop-color="#3F3C6A"/>
<stop offset="0.2077" stop-color="#464170"/>
<stop offset="0.4996" stop-color="#584F82"/>
<stop offset="0.8398" stop-color="#76659E"/>
<stop offset="0.8827" stop-color="#7A68A2"/>
</linearGradient>
<linearGradient id="paint51_linear" x1="89.2723" y1="156.566" x2="89.2723" y2="145.432" gradientUnits="userSpaceOnUse">
<stop stop-color="#3F3C6A"/>
<stop offset="0.2077" stop-color="#464170"/>
<stop offset="0.4996" stop-color="#584F82"/>
<stop offset="0.8398" stop-color="#76659E"/>
<stop offset="0.8827" stop-color="#7A68A2"/>
</linearGradient>
<linearGradient id="paint52_linear" x1="98.6093" y1="156.566" x2="98.6093" y2="145.432" gradientUnits="userSpaceOnUse">
<stop stop-color="#3F3C6A"/>
<stop offset="0.2077" stop-color="#464170"/>
<stop offset="0.4996" stop-color="#584F82"/>
<stop offset="0.8398" stop-color="#76659E"/>
<stop offset="0.8827" stop-color="#7A68A2"/>
</linearGradient>
<linearGradient id="paint53_linear" x1="108.177" y1="156.565" x2="108.177" y2="145.431" gradientUnits="userSpaceOnUse">
<stop stop-color="#3F3C6A"/>
<stop offset="0.2077" stop-color="#464170"/>
<stop offset="0.4996" stop-color="#584F82"/>
<stop offset="0.8398" stop-color="#76659E"/>
<stop offset="0.8827" stop-color="#7A68A2"/>
</linearGradient>
<linearGradient id="paint54_linear" x1="121.155" y1="159.999" x2="121.155" y2="144.493" gradientUnits="userSpaceOnUse">
<stop stop-color="#3F3C6A"/>
<stop offset="0.2077" stop-color="#464170"/>
<stop offset="0.4996" stop-color="#584F82"/>
<stop offset="0.8398" stop-color="#76659E"/>
<stop offset="0.8827" stop-color="#7A68A2"/>
</linearGradient>
<linearGradient id="paint55_linear" x1="11.0725" y1="182.001" x2="11.0725" y2="162.001" gradientUnits="userSpaceOnUse">
<stop stop-color="#3F3C6A"/>
<stop offset="0.2077" stop-color="#464170"/>
<stop offset="0.4996" stop-color="#584F82"/>
<stop offset="0.8398" stop-color="#76659E"/>
<stop offset="0.8827" stop-color="#7A68A2"/>
</linearGradient>
<linearGradient id="paint56_linear" x1="24.4585" y1="177.572" x2="24.4585" y2="163.211" gradientUnits="userSpaceOnUse">
<stop stop-color="#3F3C6A"/>
<stop offset="0.2077" stop-color="#464170"/>
<stop offset="0.4996" stop-color="#584F82"/>
<stop offset="0.8398" stop-color="#76659E"/>
<stop offset="0.8827" stop-color="#7A68A2"/>
</linearGradient>
<linearGradient id="paint57_linear" x1="38.8401" y1="177.859" x2="38.8401" y2="163.211" gradientUnits="userSpaceOnUse">
<stop stop-color="#3F3C6A"/>
<stop offset="0.2077" stop-color="#464170"/>
<stop offset="0.4996" stop-color="#584F82"/>
<stop offset="0.8398" stop-color="#76659E"/>
<stop offset="0.8827" stop-color="#7A68A2"/>
</linearGradient>
<linearGradient id="paint58_linear" x1="56.074" y1="177.86" x2="56.074" y2="162.903" gradientUnits="userSpaceOnUse">
<stop stop-color="#3F3C6A"/>
<stop offset="0.2077" stop-color="#464170"/>
<stop offset="0.4996" stop-color="#584F82"/>
<stop offset="0.8398" stop-color="#76659E"/>
<stop offset="0.8827" stop-color="#7A68A2"/>
</linearGradient>
<linearGradient id="paint59_linear" x1="72.1996" y1="177.573" x2="72.1996" y2="162.801" gradientUnits="userSpaceOnUse">
<stop stop-color="#3F3C6A"/>
<stop offset="0.2077" stop-color="#464170"/>
<stop offset="0.4996" stop-color="#584F82"/>
<stop offset="0.8398" stop-color="#76659E"/>
<stop offset="0.8827" stop-color="#7A68A2"/>
</linearGradient>
<linearGradient id="paint60_linear" x1="87.9041" y1="177.572" x2="87.9041" y2="163.211" gradientUnits="userSpaceOnUse">
<stop stop-color="#3F3C6A"/>
<stop offset="0.2077" stop-color="#464170"/>
<stop offset="0.4996" stop-color="#584F82"/>
<stop offset="0.8398" stop-color="#76659E"/>
<stop offset="0.8827" stop-color="#7A68A2"/>
</linearGradient>
<linearGradient id="paint61_linear" x1="102.398" y1="177.573" x2="102.398" y2="162.801" gradientUnits="userSpaceOnUse">
<stop stop-color="#3F3C6A"/>
<stop offset="0.2077" stop-color="#464170"/>
<stop offset="0.4996" stop-color="#584F82"/>
<stop offset="0.8398" stop-color="#76659E"/>
<stop offset="0.8827" stop-color="#7A68A2"/>
</linearGradient>
<linearGradient id="paint62_linear" x1="118.258" y1="177.572" x2="118.258" y2="163.211" gradientUnits="userSpaceOnUse">
<stop stop-color="#3F3C6A"/>
<stop offset="0.2077" stop-color="#464170"/>
<stop offset="0.4996" stop-color="#584F82"/>
<stop offset="0.8398" stop-color="#76659E"/>
<stop offset="0.8827" stop-color="#7A68A2"/>
</linearGradient>
<linearGradient id="paint63_linear" x1="134.393" y1="182.001" x2="134.393" y2="162.001" gradientUnits="userSpaceOnUse">
<stop stop-color="#3F3C6A"/>
<stop offset="0.2077" stop-color="#464170"/>
<stop offset="0.4996" stop-color="#584F82"/>
<stop offset="0.8398" stop-color="#76659E"/>
<stop offset="0.8827" stop-color="#7A68A2"/>
</linearGradient>
</defs>
</svg>
