<svg width="147" height="182" viewBox="0 0 147 182" fill="none" xmlns="http://www.w3.org/2000/svg">
<path d="M123.355 56.2138C123.355 66.0576 120.103 75.3888 114.105 82.9971C115.454 81.9367 116.748 80.7835 117.981 79.5512C121.364 76.1677 124.119 72.3256 126.186 68.1632C126.321 66.6308 126.385 65.0865 126.388 63.5355C126.388 56.5628 125.065 49.7654 122.455 43.3305C119.893 37.0102 116.192 31.3052 111.441 26.3623C119.134 34.4511 123.355 45.0096 123.355 56.2138Z" fill="url(#paint0_linear)"/>
<path d="M53.2196 22.1121C60.8279 16.1138 70.1591 12.8618 79.9995 12.8584C91.2071 12.8618 101.764 17.0848 109.858 24.7774C110.126 25.0337 110.392 25.2916 110.657 25.558C110.922 25.8243 111.185 26.0924 111.442 26.3638C119.132 34.4526 123.355 45.0111 123.355 56.2153C123.355 66.0591 120.103 75.3903 114.104 82.9986C112.719 84.091 111.277 85.0958 109.785 86.0011C113.858 79.2948 116.033 71.5819 116.033 63.537C116.033 51.9585 111.523 41.0696 103.333 32.8797C95.1469 24.6931 84.2579 20.1834 72.6761 20.1801C64.6312 20.1801 56.9217 22.3582 50.2188 26.4346C51.1257 24.9426 52.1272 23.4962 53.2196 22.1121Z" fill="url(#paint1_linear)"/>
<path d="M34.7005 25.5567C35.9295 24.3277 37.2074 23.1627 38.5358 22.0703C35.0646 26.2715 32.2779 30.9363 30.2245 36.0056C27.6131 42.4439 26.2897 49.2413 26.2914 56.2174C26.2914 63.1901 27.6114 69.9892 30.2212 76.4258C32.7904 82.7461 36.4909 88.451 41.2416 93.394C41.4979 93.662 41.7558 93.9284 42.0222 94.1931C42.2885 94.4577 42.5566 94.7207 42.828 94.9804C47.771 99.7311 53.4759 103.432 59.7928 105.997C66.2278 108.607 73.0285 109.927 80.0012 109.927C86.9739 109.927 93.773 108.607 100.213 105.994C105.281 103.941 109.947 101.154 114.145 97.6794C113.053 99.0096 111.889 100.286 110.659 101.515C105.534 106.64 99.5572 110.612 92.8913 113.314C86.4564 115.924 79.6522 117.247 72.6795 117.247C65.7068 117.247 58.9094 115.924 52.4745 113.314C45.8086 110.612 39.8289 106.641 34.7005 101.515C29.5755 96.3897 25.607 90.41 22.9028 83.7441C20.2931 77.3092 18.9697 70.5118 18.9697 63.5391C18.9664 56.5647 20.2931 49.7639 22.9028 43.3273C25.6053 36.6614 29.5755 30.6817 34.7005 25.5567Z" fill="url(#paint2_linear)"/>
<path d="M123.355 56.2138C123.355 66.0576 120.103 75.3888 114.105 82.9971C115.454 81.9367 116.748 80.7835 117.981 79.5512C121.364 76.1677 124.119 72.3256 126.186 68.1632C126.321 66.6308 126.385 65.0865 126.388 63.5355C126.388 56.5628 125.065 49.7654 122.455 43.3305C119.893 37.0102 116.192 31.3052 111.441 26.3623C119.134 34.4511 123.355 45.0096 123.355 56.2138Z" fill="url(#paint3_linear)"/>
<path d="M42.8262 94.9783C50.9149 102.668 61.4701 106.894 72.6777 106.891C79.4751 106.891 86.0314 105.34 91.9454 102.403C97.3047 101.951 102.528 100.695 107.531 98.6703C110.97 97.2778 114.226 95.5464 117.272 93.4863C116.304 94.9345 115.259 96.3287 114.141 97.6774C109.944 101.15 105.279 103.939 100.209 105.992C93.7712 108.603 86.9704 109.925 79.9977 109.925C73.025 109.925 66.2259 108.605 59.7893 105.995C53.4757 103.43 47.7708 99.7274 42.8262 94.9783Z" fill="url(#paint4_linear)"/>
<path d="M38.5364 22.0701C39.8851 20.9524 41.2793 19.9071 42.7274 18.9395C40.6707 21.9892 38.9393 25.2429 37.5468 28.6837C35.5153 33.6924 34.2644 38.9203 33.8109 44.2847C30.8742 50.1919 29.3232 56.7432 29.3232 63.5338C29.3232 74.7448 33.5496 85.2983 41.2422 93.3921C36.4914 88.4491 32.791 82.7442 30.2217 76.4239C27.612 69.989 26.292 63.1882 26.292 56.2155C26.2886 49.2411 27.612 42.4437 30.2251 36.0037C32.2785 30.9377 35.0652 26.2713 38.5364 22.0701Z" fill="url(#paint5_linear)"/>
<path d="M42.7271 18.9405C45.7768 16.8837 49.0305 15.1524 52.4713 13.7598C57.48 11.7284 62.7079 10.4775 68.0689 10.0273C63.8998 12.0942 60.0509 14.8489 56.6657 18.2358C55.4334 19.4682 54.2819 20.7629 53.2199 22.1116C52.1274 23.4974 51.126 24.9422 50.2207 26.4341C48.7287 27.3394 47.2839 28.3408 45.8982 29.4333C44.5495 30.4937 43.2547 31.6468 42.0224 32.8792C38.6355 36.2661 35.8774 40.1166 33.8105 44.2857C34.2624 38.9213 35.5149 33.6934 37.5464 28.6848C38.9389 25.2439 40.6703 21.9885 42.7271 18.9405Z" fill="url(#paint6_linear)"/>
<path d="M56.6656 18.2345C60.0525 14.8476 63.8996 12.0929 68.0688 10.0261C69.5945 9.8912 71.1337 9.82715 72.6813 9.82715C79.654 9.82715 86.4514 11.1505 92.8863 13.7603C99.21 16.3261 104.915 20.0266 109.858 24.7773C101.766 17.0848 91.2072 12.8617 79.9996 12.8583C70.1592 12.8617 60.828 16.1137 53.2197 22.112C54.2801 20.7633 55.4316 19.4686 56.6656 18.2345Z" fill="url(#paint7_linear)"/>
<path d="M117.98 79.5511C121.364 76.1675 124.118 72.3255 126.185 68.1631C125.733 73.5224 124.481 78.7435 122.456 83.7455C121.063 87.1846 119.332 90.44 117.272 93.4864C114.226 95.5465 110.97 97.2779 107.531 98.6704C102.527 100.695 97.3047 101.951 91.9453 102.403C96.1094 100.336 99.9531 97.578 103.337 94.1944C104.569 92.9621 105.72 91.6673 106.783 90.3186C107.875 88.9329 108.88 87.4915 109.785 85.9995C111.277 85.0942 112.718 84.0894 114.104 82.997C115.453 81.9366 116.748 80.7834 117.98 79.5511Z" fill="url(#paint8_linear)"/>
<path d="M79.9513 112.175C74.9494 126.597 76.5425 135.836 76.5712 135.999C76.5678 135.997 76.5594 135.992 76.5459 135.986C76.5392 135.982 76.5324 135.977 76.524 135.974C75.6136 135.458 62.324 127.533 65.0955 108.113C66.4476 98.2207 62.9124 88.5894 59.6047 83.493C56.297 78.395 59.4176 71.8252 58.7213 67.8162C58.0267 63.809 56.0947 58.1074 56.0947 58.1074L61.0613 60.3209L58.0824 51.3488L64.1852 54.5182L61.948 47.3887L74.2177 62.5985C74.2177 62.5985 72.0986 70.7446 81.9002 67.0525C81.9002 67.0525 84.284 79.7791 71.9654 79.651C71.9654 79.651 69.3456 73.4504 66.0666 74.204C66.0666 74.204 66.6196 79.157 71.0652 83.2317C71.0669 83.2334 71.0669 83.2334 71.0669 83.2351C71.9351 84.0308 72.9483 84.7929 74.1385 85.4773C81.4214 89.6734 85.0005 97.6222 79.9513 112.175Z" fill="url(#paint9_linear)"/>
<path d="M92.0103 55.0261L93.0639 53.057C93.0639 53.057 88.5931 45.7555 77.3281 44.2096C77.3281 44.2096 77.3281 39.1419 69.5496 36.9941L70.9792 41.2897L63.0236 40.6019L62.0391 45.4976L75.5411 61.8201C75.5411 61.8201 81.1736 58.2966 82.5155 65.4278C82.5155 65.4278 92.2598 65.942 91.4556 56.0646V56.0629L92.0103 55.0261ZM73.0073 44.803C74.0744 44.8856 74.8971 45.705 76.8696 46.1989C76.8696 46.1989 75.7805 46.6103 77.2674 49.7308C77.2674 49.7308 75.7266 49.4847 73.5872 47.1835C72.4627 45.9747 72.0649 45.56 71.9418 45.4386C71.9502 45.3189 72.0463 44.7272 73.0073 44.803Z" fill="url(#paint10_linear)"/>
<path d="M79.9518 112.175C74.9499 126.597 76.543 135.836 76.5717 135.999C76.5683 135.997 76.5599 135.992 76.5464 135.986C76.5396 135.982 76.5329 135.977 76.5245 135.974C75.872 135.584 67.3804 127.776 72.7599 113.105C78.2575 98.1077 71.4838 84.0848 71.0673 83.2334C71.9356 84.0291 72.9488 84.7911 74.139 85.4756C81.4219 89.6734 85.001 97.6222 79.9518 112.175Z" fill="url(#paint11_linear)"/>
<path d="M52.6687 116.069C51.2492 108.975 38.5109 105.993 37.9427 96.7713C35.8304 63.1097 52.7007 57.833 52.9486 57.7588H52.9502C52.9502 57.7588 52.9502 57.7588 52.9502 57.7605C46.5659 66.8405 42.594 82.4448 49.12 92.5179C55.6493 102.589 52.6687 116.069 52.6687 116.069Z" fill="url(#paint12_linear)"/>
<path d="M52.6693 116.069C52.0101 103.779 47.7382 102.331 44.0427 95.1863C34.2192 76.1934 52.6845 57.9777 52.9508 57.7568H52.9525C52.9525 57.7568 52.9525 57.7568 52.9525 57.7585C46.5682 66.8386 42.5963 82.4429 49.1222 92.5159C55.6499 102.589 52.6693 116.069 52.6693 116.069Z" fill="url(#paint13_linear)"/>
<path d="M61.0939 114.986C61.0905 115.001 61.0871 115.009 61.0871 115.009C61.7126 106.406 53.113 97.2453 49.8846 84.7379C46.6562 72.2322 54.3184 63.083 54.3184 63.083C54.3184 63.083 53.5379 67.3971 53.9003 72.9807C54.1583 76.9728 55.0012 81.614 57.1321 85.7932C65.14 101.505 61.2895 114.363 61.0939 114.986Z" fill="url(#paint14_linear)"/>
<path d="M61.0937 114.985C62.6043 106.5 55.0263 96.4915 53.1314 83.7261C52.5245 79.6464 52.9898 76.0218 53.9002 72.9805C54.1581 76.9726 55.001 81.6138 57.132 85.793C65.1398 101.505 61.2893 114.363 61.0937 114.985Z" fill="url(#paint15_linear)"/>
<path d="M67.891 31.7747C67.8623 32.3293 67.8185 32.8401 67.7629 33.3155C67.7629 33.3206 67.7612 33.324 67.7612 33.3273C67.1509 38.4355 65.0116 39.0609 63.4134 38.7558C62.9784 38.6715 62.5704 38.5147 62.2012 38.2939C61.773 38.041 61.3954 37.7055 61.0886 37.3144C59.4735 35.2526 53.3572 28.9188 39.1757 28.7755C22.2312 28.6036 20.9415 19.7039 13.0449 15.7506C13.0449 15.7506 18.4296 14.9734 28.0288 21.3206C34.1401 25.3616 51.2077 23.3791 59.3268 32.1944C59.3285 32.1978 59.3302 32.1978 59.3302 32.1995C59.2712 32.0646 55.4544 23.6539 44.2603 22.349C30.6925 20.766 29.3674 14.208 29.3674 14.208C29.3674 14.208 36.4143 18.8357 43.2808 18.8357C50.144 18.8374 68.4271 21.3223 67.891 31.7747Z" fill="url(#paint16_linear)"/>
<path d="M67.8912 31.7749C67.8625 32.3296 67.8187 32.8404 67.7631 33.3158C67.7631 33.3209 67.7614 33.3242 67.7614 33.3276C67.7597 33.3175 67.758 33.3107 67.7563 33.3006C66.5172 25.4884 55.1714 20.8708 46.6629 20.6516C35.7166 20.3701 29.3643 14.21 29.3643 14.21C29.3643 14.21 36.4111 18.8376 43.2776 18.8376C50.1441 18.8376 68.4273 21.3226 67.8912 31.7749Z" fill="url(#paint17_linear)"/>
<path d="M59.3302 32.2024C44.611 24.0681 34.3002 29.4898 26.4694 23.215C21.3006 19.0729 13.0449 15.7518 13.0449 15.7518C13.0449 15.7518 18.4296 14.9746 28.0288 21.3218C34.1401 25.3628 51.2077 23.3803 59.3268 32.1956C59.3285 32.2007 59.3302 32.2024 59.3302 32.2024Z" fill="url(#paint18_linear)"/>
<path d="M67.7623 33.3154C67.7623 33.3205 67.7606 33.3239 67.7606 33.3273C67.1503 38.4354 65.011 39.0609 63.4128 38.7557C62.9778 38.6714 62.5699 38.5146 62.2006 38.2938C62.086 37.7796 62.0135 37.1575 61.9899 36.409C61.732 27.946 54.9717 24.4883 54.9717 24.4883C62.6491 25.4206 66.1709 29.8915 67.7573 33.3003C67.7589 33.3053 67.7606 33.3104 67.7623 33.3154Z" fill="url(#paint19_linear)"/>
<path d="M60.9472 45.1764L58.6207 44.2188C58.6207 44.2188 59.3069 50.1581 53.8329 53.5837C48.3606 57.0094 36.4753 62.0333 33.3547 100.447L33.3514 100.441C33.1811 100.088 25.5981 84.2512 34.1302 63.8709C35.2867 61.6489 36.8815 59.8197 38.6652 58.2266C45.0209 52.552 53.7739 49.8715 53.639 43.1179L50.6162 41.1657C50.6162 41.1657 50.414 47.5265 46.0762 49.8142C41.7368 52.1019 29.4233 59.4978 23.1637 86.431C23.1637 86.431 13.3537 61.632 36.3151 46.3447C36.0201 46.4458 26.5456 49.7821 18.681 61.8074C18.6793 61.8091 18.6793 61.8107 18.6793 61.8107C18.6793 61.8107 20.7041 46.461 37.9184 40.1879C37.8712 40.1947 37.4632 40.2486 36.7585 40.3683C33.2216 40.9634 22.2264 43.1719 12.2461 48.9207C7.79205 51.4865 3.54032 54.7571 0.242775 58.906C0.161853 59.0089 0.0809213 59.11 0 59.2145C0.0792354 58.9026 5.24471 38.9168 19.2778 34.0042C19.2778 34.0042 45.5401 22.3987 62.1644 40.1795L60.9472 45.1764Z" fill="url(#paint20_linear)"/>
<path d="M62.1661 40.1735L60.9472 45.1771C60.9472 45.1771 57.8739 38.7354 40.1808 35.8998C14.436 32.0392 2.39899 55.6985 0.244462 58.9017C0.138253 59.0585 0.0573192 59.1647 0 59.2136C0.00168586 59.2119 0.00168751 59.2119 0.00168751 59.2102C0.0809229 58.8983 5.24639 38.9125 19.2795 33.9999C19.2812 33.9982 45.5435 22.3927 62.1661 40.1735Z" fill="url(#paint21_linear)"/>
<path d="M48.844 40.3744C45.3762 39.2702 41.143 39.464 36.7614 40.3643C33.2245 40.9594 22.2293 43.1679 12.249 48.9167C28.5429 30.8948 49.2739 40.5109 48.844 40.3744Z" fill="url(#paint22_linear)"/>
<path d="M23.1653 86.4301C23.1653 86.4301 13.3553 61.6311 36.3167 46.3437C36.0217 46.4448 26.5472 49.7811 18.6826 61.8064C18.777 61.5569 23.8734 44.619 42.1245 43.1523C42.1262 43.1507 20.0633 61.6176 23.1653 86.4301Z" fill="url(#paint23_linear)"/>
<path d="M38.6666 58.2275C28.0726 73.5537 33.3544 100.448 33.3544 100.448L33.351 100.441C33.1808 100.089 25.5978 84.2522 34.1299 63.8718C35.2881 61.6498 36.8829 59.8207 38.6666 58.2275Z" fill="url(#paint24_linear)"/>
<path d="M71.9678 79.6492C80.564 77.6666 81.9026 67.0508 81.9026 67.0508C81.9026 67.0508 84.2864 79.7773 71.9678 79.6492Z" fill="url(#paint25_linear)"/>
<path d="M82.5146 65.4274C82.5146 65.4274 90.7079 63.546 91.4547 56.0625C92.2589 65.9416 82.5146 65.4274 82.5146 65.4274Z" fill="url(#paint26_linear)"/>
<path d="M77.3281 44.2096C77.3281 44.2096 77.3281 39.1419 69.5496 36.9941L70.9792 41.2897L63.0236 40.6019L62.0391 45.4976C78.5116 61.7088 91.2887 56.1371 91.4539 56.0646C91.4539 56.0646 91.4539 56.0663 91.4556 56.0646V56.0629L92.012 55.0244L93.0656 53.0553C93.0639 53.057 88.5931 45.7555 77.3281 44.2096Z" fill="url(#paint27_linear)"/>
<path d="M73.5868 47.183C72.4623 45.9743 72.0645 45.5595 71.9414 45.4382C71.9515 45.3185 72.0476 44.7267 73.0069 44.8026C74.074 44.8852 74.8967 45.7045 76.8692 46.1985C76.8692 46.1985 75.7801 46.6098 77.267 49.7304C77.267 49.7304 75.7262 49.4842 73.5868 47.183Z" fill="white"/>
<path d="M60.8236 54.8561L64.9219 65.568L56.0947 58.1064L61.0613 60.3183L58.0824 51.3461L64.1852 54.5172L61.948 47.3877L68.5886 59.8883L60.8236 54.8561Z" fill="url(#paint28_linear)"/>
<path d="M92.0109 55.0264L91.4546 56.0649V56.0666C91.4529 56.0683 91.4529 56.0666 91.4529 56.0666C89.5513 55.3636 90.4717 54.6387 90.4717 54.6387C91.1579 54.701 91.6552 54.8511 92.0109 55.0264Z" fill="url(#paint29_linear)"/>
<path d="M113.266 83.4673C113.267 83.4656 113.271 83.464 113.274 83.4623C113.414 83.3628 115.73 81.714 118.021 79.2021C120.623 76.353 123.19 72.3946 122.511 68.3384C120.862 58.4981 128.668 54.8145 128.668 54.8145C128.737 54.9932 128.801 55.1719 128.867 55.3472C138.301 81.1021 113.266 83.4673 113.266 83.4673Z" fill="#D9DAE0"/>
<path d="M98.2666 88.7663C98.2666 88.7663 102.496 82.0482 112.003 85.0709C121.51 88.092 128.585 76.9805 128.585 76.9805C128.585 76.9805 123.109 101.874 98.2666 88.7663Z" fill="#D9DAE0"/>
<path d="M83.0059 83.471C83.0059 83.471 90.5315 80.9422 95.9836 89.2956C101.436 97.6491 113.945 93.517 113.945 93.517C113.945 93.517 93.9572 109.335 83.0059 83.471Z" fill="#D9DAE0"/>
<path d="M131.746 69.7226C131.8 69.5068 133.649 62.0013 129.138 51.5524C129.065 51.3855 128.993 51.2203 128.918 51.0534C128.918 51.0534 120.332 54.2026 120.562 63.8845C120.858 76.2536 112.271 80.6149 112.271 80.6149C112.326 80.1125 116.802 70.2873 113.847 59.1118C111.686 50.9404 127.313 36.963 125.575 29.6699C125.574 29.6716 142.773 47.5738 131.746 69.7226Z" fill="#D9DAE0"/>
<path d="M115.19 108.136C115.19 108.136 111.748 100.983 101.96 102.912C92.1715 104.841 86.3975 92.999 86.3975 92.999C86.3975 92.999 89.0257 118.353 115.19 108.136Z" fill="#D9DAE0"/>
<path d="M111.682 73.7758C111.682 73.7758 107.371 72.4709 104.422 77.3009C101.474 82.1309 94.3105 80.0034 94.3105 80.0034C94.3105 80.0034 105.914 88.6299 111.682 73.7758Z" fill="#D9DAE0"/>
<path d="M101.646 49.4146C101.646 49.4146 102.439 44.6537 101.648 39.7849C101.65 39.7799 101.648 39.7731 101.646 39.7698C101.107 36.4419 99.8256 33.0702 97.0507 31.128C88.7579 25.3321 91.1164 17.1843 91.3541 16.4375C91.3659 16.4004 91.371 16.3818 91.371 16.3818C118.731 28.3666 101.646 49.4146 101.646 49.4146Z" fill="#D9DAE0"/>
<path d="M95.2477 65.3152C95.2477 65.3152 93.1286 57.1439 102.397 51.9835C111.666 46.823 108.219 33.2451 108.219 33.2451C108.219 33.2451 123.503 55.6317 95.2477 65.3152Z" fill="#D9DAE0"/>
<path d="M83.6738 75.5101C83.6738 75.5101 86.528 67.5663 97.0933 68.5273C107.657 69.4899 112.463 56.3301 112.463 56.3301C112.463 56.3301 112.472 83.437 83.6738 75.5101Z" fill="#D9DAE0"/>
<path d="M88.6794 13.4515C88.3456 14.2438 85.0649 22.5922 92.2197 29.2884C101.827 38.2791 98.7406 48.0453 98.7406 48.0453C98.4001 47.6289 94.2798 36.9153 83.5965 30.831C75.7859 26.3837 76.816 4.1135 69.9883 0C69.9883 0 96.3871 0.283221 104.98 25.1564C104.98 25.1564 100.568 17.7943 88.7047 13.3908C88.7047 13.3908 88.6963 13.411 88.6794 13.4515Z" fill="#D9DAE0"/>
<path d="M95.2471 65.3149C95.2471 65.3149 95.4629 58.1534 101.352 56.3309C107.242 54.5102 111.683 44.3799 111.683 44.3799C111.683 44.3799 112.148 60.4748 95.2471 65.3149Z" fill="url(#paint30_linear)"/>
<path d="M98.7912 48.0234C97.0868 44.1021 96.3501 40.1066 92.3007 36.0706C89.7533 33.5334 85.977 31.4109 84.2456 28.2331C82.3271 24.7147 82.7772 21.0564 83.4398 17.103C83.5983 16.1539 83.836 15.2182 84.1529 14.3096C84.6115 16.8822 85.0751 19.4717 85.9736 21.9263C86.8014 24.1887 87.9747 26.5557 89.9034 28.0797C90.8171 28.8029 91.8842 29.1552 92.7828 29.8987C93.8297 30.7636 94.7519 31.8088 95.551 32.9012C98.6816 37.1816 99.9831 42.8293 98.7912 48.0234Z" fill="url(#paint31_linear)"/>
<path d="M104.98 25.1563C104.98 25.1563 91.5639 9.42729 81.624 9.55035C81.624 9.55035 87.3408 5.30366 95.8948 10.7406C95.8948 10.7389 103.238 17.7588 104.98 25.1563Z" fill="url(#paint32_linear)"/>
<path d="M101.646 49.4142C101.646 49.4142 106.657 37.2827 96.4708 27.9566C96.4708 27.9566 92.0943 22.926 93.3014 20.8389C93.3014 20.8389 104.995 24.1533 106.439 31.1462C106.439 31.1462 109.398 39.5806 101.646 49.4142Z" fill="url(#paint33_linear)"/>
<path d="M83.6738 75.5097C83.6738 75.5097 89.9908 69.4372 98.2683 70.6612C106.546 71.8851 111.469 62.8135 111.469 62.8135C111.469 62.8135 107.856 82.6223 83.6738 75.5097Z" fill="url(#paint34_linear)"/>
<path d="M94.3096 80.002C96.4742 80.5955 98.8412 80.9866 101.085 80.8264C101.731 80.7809 102.381 80.6932 102.985 80.4454C104.025 80.0172 104.587 78.9636 105.273 78.1425C106.065 77.1934 107.031 76.3286 108.172 75.8279C108.997 75.4671 110.012 75.3288 110.758 75.8312C110.92 75.9408 109.256 78.3432 109.089 78.5623C108.054 79.9127 106.728 81.1602 105.114 81.8295C103.487 82.5055 101.329 82.8326 99.6065 82.3589C98.1584 81.9593 96.6967 81.4687 95.3818 80.732C95.0058 80.5196 94.6383 80.2836 94.3096 80.002Z" fill="url(#paint35_linear)"/>
<path d="M112.27 80.6146C112.27 80.6146 117.701 74.0937 116.228 59.7369C116.228 59.7369 117.996 51.1475 128.585 46.4844C128.585 46.4844 137.812 53.1992 131.745 69.7206C131.745 69.7206 133.14 60.5293 128.917 51.0531C128.917 51.0531 120.353 54.1652 120.561 63.8841C120.77 73.6048 115.55 79.0367 112.27 80.6146Z" fill="url(#paint36_linear)"/>
<path d="M113.274 83.4623C113.274 83.4623 123.433 78.6171 125.382 71.41C127.331 64.203 130.713 62.3418 130.713 62.3418C130.713 62.3418 134.766 80.5154 113.274 83.4623Z" fill="url(#paint37_linear)"/>
<path d="M98.2666 88.7653C98.2666 88.7653 108.461 84.0027 113.266 87.575C118.07 91.1491 126.485 82.4922 126.485 82.4922C126.485 82.4922 118.971 100.472 98.2666 88.7653Z" fill="url(#paint38_linear)"/>
<path d="M83.0059 83.4707C83.0059 83.4707 92.4568 85.7584 94.3096 90.7081C96.164 95.6595 107.744 96.902 107.744 96.902C107.744 96.902 92.2477 105.464 83.0059 83.4707Z" fill="url(#paint39_linear)"/>
<path d="M86.3984 92.999C86.3984 92.999 90.3299 103.645 100.794 104.911C111.258 106.177 113.273 108.836 113.273 108.836C113.273 108.836 90.5558 118.72 86.3984 92.999Z" fill="url(#paint40_linear)"/>
<path d="M23 140.381C23.6044 140.126 24.1299 140 24.5747 140C25.0196 140 25.4119 140.043 25.7516 140.128C26.0913 140.212 26.4385 140.353 26.7933 140.55C27.148 140.747 27.4802 140.987 27.788 141.274C28.3812 141.837 28.886 142.474 29.299 143.183L32.4804 149.148L37.0938 141.211H37.2365L38.8901 150.563C39.1453 152.005 39.5845 153.152 40.2095 154C40.8346 154.86 41.6942 155.288 42.7866 155.288C42.8598 155.288 42.9292 155.288 42.993 155.288V155.447C42.4093 155.607 41.8368 155.685 41.2756 155.685C40.1307 155.685 39.0853 155.235 38.143 154.334C37.2309 153.474 36.6096 152.219 36.2811 150.565L35.5022 145.937L32.5123 151.123C32.1087 151.791 31.9023 152.378 31.891 152.889H31.7484L27.788 145.381L27.0091 151.744C26.9772 151.988 27.0823 152.185 27.3282 152.333C27.4239 152.397 27.5234 152.429 27.6304 152.429H27.8856V152.572H24.5616V152.412H24.8169C25.0928 152.412 25.3387 152.33 25.5564 152.166C25.7741 152.001 25.9092 151.776 25.9618 151.491L27.0429 143.902C26.5662 143.054 26.02 142.301 25.4043 141.644C24.7155 140.903 23.9948 140.531 23.2403 140.531C23.1671 140.531 23.0976 140.537 23.0338 140.548L23 140.381Z" fill="url(#paint41_linear)"/>
<path d="M51.6632 152.407H51.8058V152.566H46.7306V152.407H46.8732C47.106 152.407 47.2786 152.336 47.3894 152.193C47.5001 152.05 47.5564 151.915 47.5564 151.787C47.5564 151.66 47.5302 151.532 47.4776 151.406L46.6987 149.451H42.9767L42.149 151.406C42.0965 151.543 42.0702 151.675 42.0702 151.797C42.0702 151.919 42.1265 152.052 42.2372 152.195C42.348 152.337 42.5263 152.409 42.7703 152.409H42.8979V152.568H39.4932V152.409H39.6358C39.8798 152.409 40.1238 152.336 40.3678 152.185C40.6118 152.037 40.8126 151.814 40.9722 151.517L44.6472 143.199C45.1465 142.149 45.4111 141.455 45.443 141.115H45.5857L50.3099 151.487C50.4694 151.795 50.6703 152.026 50.9143 152.18C51.1601 152.33 51.4098 152.407 51.6632 152.407ZM43.2489 148.781H46.4303L44.8875 144.867L43.2489 148.781Z" fill="url(#paint42_linear)"/>
<path d="M59.7275 152.407C60.0034 152.407 60.2155 152.337 60.3638 152.2C60.6078 151.956 60.7354 151.697 60.7448 151.422V147.366H55.5908V151.407C55.5908 151.682 55.6921 151.919 55.893 152.114C56.0938 152.311 56.3321 152.409 56.6081 152.409H56.7995L56.8164 152.568H51.9814V152.409H52.1879C52.4638 152.409 52.7003 152.311 52.8955 152.114C53.0907 151.917 53.1958 151.682 53.2052 151.407V142.577C53.1939 142.302 53.0907 142.069 52.8955 141.877C52.6984 141.686 52.4638 141.59 52.1879 141.59H51.9814V141.431H56.8164L56.7995 141.59H56.6081C56.3321 141.59 56.0938 141.686 55.893 141.877C55.6921 142.069 55.5908 142.302 55.5908 142.577V146.68H60.7448V142.577C60.7335 142.302 60.6303 142.069 60.4351 141.877C60.238 141.686 60.0034 141.59 59.7275 141.59H59.521V141.431H64.356V141.59H64.1496C63.8736 141.59 63.6353 141.688 63.4344 141.885C63.2336 142.082 63.1323 142.317 63.1323 142.592V151.405C63.1323 151.681 63.2336 151.917 63.4344 152.112C63.6353 152.309 63.8736 152.407 64.1496 152.407H64.356V152.566H59.521V152.407H59.7275Z" fill="url(#paint43_linear)"/>
<path d="M76.46 152.407H76.6027V152.566H71.5275V152.407H71.6701C71.9028 152.407 72.0755 152.336 72.1863 152.193C72.297 152.05 72.3533 151.915 72.3533 151.787C72.3533 151.66 72.3271 151.532 72.2745 151.406L71.4956 149.451H67.7736L66.9459 151.406C66.8933 151.543 66.8671 151.675 66.8671 151.797C66.8671 151.919 66.9234 152.052 67.0341 152.195C67.1448 152.337 67.3231 152.409 67.5671 152.409H67.6948V152.568H64.29V152.409H64.4327C64.6767 152.409 64.9207 152.336 65.1647 152.185C65.4087 152.037 65.6095 151.814 65.7691 151.517L69.4441 143.199C69.9433 142.149 70.208 141.455 70.2399 141.115H70.3825L75.1068 151.487C75.2663 151.795 75.4671 152.026 75.7111 152.18C75.957 152.33 76.2066 152.407 76.46 152.407ZM68.0458 148.781H71.2272L69.6843 144.867L68.0458 148.781Z" fill="url(#paint44_linear)"/>
<path d="M81.1695 142.133H80.4863C80.4656 142.133 80.4487 142.133 80.4393 142.133V151.407C80.4506 151.799 80.6195 152.09 80.948 152.281C81.1075 152.366 81.2764 152.409 81.4566 152.409H81.6631V152.568H76.8281V152.409H77.0346C77.4156 152.409 77.7084 152.244 77.9092 151.915C77.9937 151.767 78.0425 151.602 78.0519 151.422V142.592C78.0406 142.317 77.9374 142.08 77.7422 141.885C77.5451 141.69 77.3105 141.59 77.0346 141.59H76.8281V141.431H82.2843C83.3129 141.431 84.1819 141.654 84.8933 142.099C85.2536 142.322 85.5408 142.632 85.7529 143.03C85.965 143.428 86.0701 143.878 86.0701 144.381C86.0701 144.884 85.9819 145.35 85.8073 145.774C85.6328 146.198 85.34 146.57 84.9327 146.887C84.5235 147.204 84.0336 147.396 83.4612 147.459C84.0768 147.66 84.6174 148.128 85.0828 148.86C86.2278 150.695 87.0761 151.786 87.628 152.137C87.9039 152.306 88.2473 152.398 88.6621 152.407V152.566H87.1024C86.2015 152.566 85.4488 152.443 84.8445 152.193C84.2401 151.943 83.7465 151.517 83.3655 150.913C83.174 150.605 82.93 150.141 82.6334 149.52C82.3369 148.901 82.1398 148.458 82.0441 148.191C81.7569 147.555 81.3965 147.2 80.963 147.125V146.966H81.4566C81.9334 146.966 82.3557 146.823 82.7217 146.536C83.0877 146.249 83.3335 145.783 83.4612 145.136C83.5044 144.912 83.525 144.738 83.525 144.61C83.525 143.741 83.3504 143.112 82.9995 142.726C82.6504 142.339 82.198 142.14 81.6481 142.129C81.5411 142.133 81.3816 142.133 81.1695 142.133Z" fill="url(#paint45_linear)"/>
<path d="M98.6834 142.926C99.7758 143.922 100.322 145.279 100.322 146.999C100.322 148.718 99.7758 150.075 98.6834 151.072C97.5911 152.068 96.1064 152.567 94.2295 152.567H88.4561V152.408H88.6625C88.9384 152.408 89.1749 152.31 89.3701 152.113C89.5653 151.916 89.6704 151.682 89.6798 151.406V142.498C89.6479 142.242 89.5372 142.029 89.3457 141.854C89.1543 141.679 88.9272 141.591 88.6625 141.591H88.4561V141.432H94.2295C96.1064 141.432 97.5911 141.929 98.6834 142.926ZM94.023 151.897C94.7869 151.897 95.4476 151.698 96.0032 151.301C96.5587 150.903 96.9867 150.336 97.2833 149.598C97.5798 148.861 97.7281 147.995 97.7281 146.997C97.7281 145.491 97.3959 144.298 96.7333 143.417C96.0707 142.537 95.1661 142.098 94.0212 142.098H92.0654V151.895H94.023V151.897Z" fill="url(#paint46_linear)"/>
<path d="M101.514 152.407C101.79 152.407 102.026 152.309 102.222 152.112C102.417 151.915 102.522 151.68 102.531 151.405V142.576C102.52 142.3 102.417 142.067 102.222 141.875C102.025 141.684 101.79 141.588 101.514 141.588H101.308V141.429H106.143L106.128 141.588H105.936C105.66 141.588 105.422 141.684 105.221 141.875C105.02 142.067 104.919 142.3 104.919 142.576V151.405C104.919 151.68 105.02 151.917 105.221 152.112C105.422 152.309 105.66 152.407 105.936 152.407H106.128L106.143 152.566H101.308V152.407H101.514Z" fill="url(#paint47_linear)"/>
<path d="M107.654 152.407C107.93 152.407 108.166 152.309 108.361 152.112C108.556 151.915 108.662 151.68 108.671 151.405V142.576C108.66 142.194 108.485 141.907 108.145 141.716C107.997 141.631 107.832 141.588 107.652 141.588H107.445V141.429H112.28L112.265 141.588H112.074C111.693 141.588 111.4 141.753 111.199 142.082C111.103 142.23 111.057 142.395 111.057 142.576V151.405C111.057 151.68 111.158 151.917 111.359 152.112C111.56 152.309 111.798 152.407 112.074 152.407H112.265L112.28 152.566H107.445V152.407H107.654ZM119.139 152.566H117.834C116.222 152.566 115.083 152.127 114.414 151.247C112.517 148.67 111.567 147.36 111.567 147.319L115.338 142.324C115.422 142.219 115.465 142.123 115.465 142.037C115.465 141.952 115.45 141.877 115.418 141.813C115.334 141.654 115.186 141.575 114.974 141.575H114.814V141.432H118.457V141.575H118.393C117.682 141.575 117.106 141.83 116.659 142.339L113.557 146.014L117.517 151.421C118.005 152.058 118.545 152.386 119.139 152.407V152.566Z" fill="url(#paint48_linear)"/>
<path d="M134.17 155.478C133.014 156.061 131.843 156.155 130.655 155.765C129.394 155.361 128.305 154.504 127.395 153.188C126.907 152.488 126.488 151.677 126.137 150.753L125.628 149.402H121.875L121.032 151.407C120.979 151.544 120.953 151.656 120.953 151.741C120.953 151.825 120.972 151.919 121.009 152.018C121.047 152.12 121.126 152.21 121.248 152.289C121.37 152.368 121.505 152.409 121.653 152.409H121.781V152.568H118.376V152.409H118.519C118.763 152.409 119.003 152.338 119.243 152.195C119.481 152.052 119.68 151.836 119.84 151.551L123.387 143.454C122.974 142.521 122.533 141.879 122.068 141.528C121.676 141.232 121.302 141.083 120.947 141.083C120.593 141.083 120.26 141.136 119.953 141.243L119.921 141.083C120.685 140.691 121.417 140.494 122.117 140.494C122.986 140.494 123.767 140.834 124.455 141.511C125.135 142.18 125.734 143.144 126.253 144.406L128.56 150.1C129.429 152.253 130.321 153.732 131.233 154.539C131.605 154.868 131.986 155.097 132.378 155.222C132.77 155.35 133.102 155.414 133.373 155.414C133.643 155.414 133.906 155.382 134.161 155.318L134.17 155.478ZM122.145 148.717H125.39L124.277 145.774C124.224 145.626 124.149 145.421 124.054 145.162C123.958 144.903 123.894 144.719 123.862 144.614L122.145 148.717Z" fill="url(#paint49_linear)"/>
<path d="M33.9909 158.248C34.6247 158.083 35.1403 158 35.5397 158C35.939 158 36.2559 158.013 36.4903 158.041V158.248C34.6865 158.343 33.2409 159.17 32.1516 160.726C31.5872 161.525 31.1316 162.455 30.7885 163.514L26.9054 175.619C26.671 176.377 26.5548 177.08 26.5548 177.727C26.5548 177.796 26.5548 177.858 26.5548 177.912H26.3485L21.8655 167.956L18.1886 176.693C17.8174 177.603 17.2718 178.484 16.5574 179.337C15.7868 180.247 14.8493 180.845 13.7487 181.135C13.4862 181.218 13.2125 181.259 12.9218 181.259C12.6331 181.259 12.3237 181.21 11.9918 181.115L12.0125 180.908C12.5225 180.88 13.0137 180.743 13.49 180.496C13.9643 180.248 14.3806 179.948 14.7406 179.598C15.0987 179.247 15.4437 178.837 15.7737 178.37C16.3099 177.612 16.7655 176.785 17.1368 175.891L12.9425 164.487C12.7625 164.088 12.5094 163.788 12.1775 163.589C11.8475 163.391 11.51 163.289 11.165 163.289H11V163.083H17.2999V163.289H17.1143C16.8255 163.289 16.6081 163.383 16.4637 163.569C16.3193 163.754 16.2462 163.931 16.2462 164.096C16.2462 164.261 16.2743 164.42 16.3287 164.57L18.8693 171.738L22.6079 162.751L22.7936 162.772L26.9035 171.841L29.2791 163.516C29.6241 162.318 30.1679 161.257 30.9103 160.334C31.7803 159.245 32.806 158.549 33.9909 158.248Z" fill="url(#paint50_linear)"/>
<path d="M32.648 177.335C33.0061 177.335 33.3117 177.207 33.5667 176.952C33.8217 176.697 33.9549 176.392 33.9699 176.033V164.568C33.9567 164.21 33.8217 163.906 33.5667 163.659C33.3117 163.411 33.0061 163.287 32.648 163.287H32.3799V163.081H38.6592L38.6385 163.287H38.391C38.0329 163.287 37.7236 163.411 37.4611 163.659C37.1986 163.906 37.0692 164.21 37.0692 164.568V176.033C37.0692 176.392 37.2004 176.697 37.4611 176.952C37.7217 177.207 38.0329 177.335 38.391 177.335H38.6385L38.6592 177.541H32.3799V177.335H32.648Z" fill="url(#paint51_linear)"/>
<path d="M46.055 163.99H45.1662C45.1381 163.99 45.1175 163.99 45.1044 163.99V176.033C45.1175 176.543 45.3387 176.922 45.7643 177.17C45.9706 177.28 46.1918 177.335 46.4262 177.335H46.6943V177.541H40.415V177.335H40.6831C41.1781 177.335 41.5569 177.121 41.8194 176.693C41.93 176.5 41.9919 176.286 42.005 176.052V164.587C41.9919 164.228 41.8569 163.923 41.6019 163.668C41.3469 163.413 41.0413 163.285 40.6831 163.285H40.415V163.079H47.5006C48.8355 163.079 49.9662 163.368 50.8886 163.947C51.3574 164.236 51.7286 164.639 52.0042 165.157C52.2799 165.672 52.4167 166.259 52.4167 166.912C52.4167 167.566 52.3024 168.168 52.0755 168.719C51.8486 169.27 51.4699 169.752 50.9393 170.165C50.4087 170.577 49.773 170.826 49.0287 170.909C49.8274 171.171 50.5286 171.777 51.1361 172.728C52.623 175.111 53.7255 176.528 54.4417 176.984C54.7998 177.205 55.248 177.321 55.7842 177.335V177.541H53.7592C52.5892 177.541 51.6105 177.38 50.8268 177.055C50.0411 176.733 49.4018 176.178 48.9049 175.392C48.6574 174.993 48.3405 174.391 47.9543 173.585C47.5681 172.778 47.3131 172.205 47.1893 171.86C46.8181 171.033 46.3493 170.571 45.785 170.476V170.27H46.4243C47.0449 170.27 47.5924 170.084 48.0668 169.713C48.5412 169.341 48.8618 168.736 49.0268 167.894C49.0812 167.605 49.1093 167.378 49.1093 167.212C49.1093 166.083 48.8824 165.267 48.4268 164.763C47.9731 164.26 47.3862 164.002 46.6718 163.988C46.5368 163.99 46.3306 163.99 46.055 163.99Z" fill="url(#paint52_linear)"/>
<path d="M69.893 177.335H70.0787V177.541H63.4881V177.335H63.6737C63.9756 177.335 64.2006 177.241 64.345 177.056C64.4894 176.87 64.5625 176.694 64.5625 176.529C64.5625 176.364 64.5287 176.199 64.4594 176.034L63.4469 173.493H58.6132L57.5388 176.034C57.4694 176.214 57.4357 176.383 57.4357 176.54C57.4357 176.697 57.5088 176.87 57.6532 177.056C57.7976 177.241 58.0282 177.335 58.3451 177.335H58.5101V177.541H54.0889V177.335H54.2745C54.5914 177.335 54.9082 177.239 55.2251 177.046C55.542 176.853 55.8045 176.564 56.0107 176.178L60.7825 165.375C61.4294 164.011 61.7744 163.11 61.8157 162.669H62.0013L68.1362 176.137C68.3424 176.536 68.6049 176.836 68.9218 177.035C69.2387 177.236 69.5612 177.335 69.893 177.335ZM58.9657 172.625H63.0962L61.0919 167.544L58.9657 172.625Z" fill="url(#paint53_linear)"/>
<path d="M70.5738 177.335C70.9319 177.335 71.2375 177.207 71.4925 176.952C71.7475 176.697 71.8807 176.392 71.8957 176.033V164.568C71.8825 164.073 71.6538 163.7 71.2132 163.452C71.02 163.342 70.8063 163.287 70.5738 163.287H70.3057V163.081H76.585L76.5643 163.287H76.3168C75.8218 163.287 75.4412 163.501 75.1806 163.929C75.0568 164.122 74.995 164.335 74.995 164.57V176.035C74.995 176.393 75.1262 176.699 75.3869 176.954C75.6475 177.209 75.9587 177.336 76.3168 177.336H76.5643L76.585 177.543H70.3057V177.336H70.5738V177.335ZM85.4892 177.541H83.7961C81.7036 177.541 80.2224 176.969 79.3543 175.827C76.8887 172.48 75.6568 170.78 75.6568 170.725L80.5524 164.24C80.663 164.103 80.7174 163.979 80.7174 163.869C80.7174 163.758 80.6968 163.662 80.6555 163.58C80.5449 163.374 80.3518 163.27 80.078 163.27H79.8718V163.085H84.6023V163.27H84.5199C83.5974 163.27 82.8474 163.6 82.268 164.262L78.2406 169.034L83.3836 176.058C84.0173 176.885 84.7186 177.31 85.4911 177.338V177.541H85.4892Z" fill="url(#paint54_linear)"/>
<path d="M100.299 177.335H100.485V177.541H93.8944V177.335H94.08C94.3819 177.335 94.6068 177.241 94.7512 177.056C94.8956 176.87 94.9687 176.694 94.9687 176.529C94.9687 176.364 94.935 176.199 94.8656 176.034L93.8531 173.493H89.0194L87.9451 176.034C87.8757 176.214 87.8419 176.383 87.8419 176.54C87.8419 176.697 87.9151 176.87 88.0594 177.056C88.2038 177.241 88.4344 177.335 88.7513 177.335H88.9163V177.541H84.4951V177.335H84.6807C84.9976 177.335 85.3145 177.239 85.6313 177.046C85.9482 176.853 86.2107 176.564 86.417 176.178L91.1888 165.375C91.8356 164.011 92.1806 163.11 92.2219 162.669H92.4075L98.5424 176.137C98.7487 176.536 99.0112 176.836 99.328 177.035C99.6449 177.236 99.9693 177.335 100.299 177.335ZM89.3719 172.625H93.5025L91.4981 167.544L89.3719 172.625Z" fill="url(#paint55_linear)"/>
<path d="M106.413 163.99H105.525C105.497 163.99 105.476 163.99 105.463 163.99V176.033C105.476 176.543 105.697 176.922 106.123 177.17C106.329 177.28 106.55 177.335 106.785 177.335H107.053V177.541H100.773V177.335H101.042C101.537 177.335 101.915 177.121 102.178 176.693C102.288 176.5 102.35 176.286 102.363 176.052V164.587C102.35 164.228 102.215 163.923 101.96 163.668C101.705 163.413 101.4 163.285 101.042 163.285H100.773V163.079H107.859C109.194 163.079 110.325 163.368 111.247 163.947C111.716 164.236 112.087 164.639 112.363 165.157C112.638 165.672 112.775 166.259 112.775 166.912C112.775 167.566 112.661 168.168 112.434 168.719C112.207 169.27 111.828 169.752 111.298 170.165C110.767 170.577 110.131 170.826 109.387 170.909C110.186 171.171 110.887 171.777 111.495 172.728C112.981 175.111 114.084 176.528 114.8 176.984C115.158 177.205 115.606 177.321 116.143 177.335V177.541H114.118C112.948 177.541 111.969 177.38 111.185 177.055C110.4 176.733 109.76 176.178 109.263 175.392C109.016 174.993 108.699 174.391 108.313 173.585C107.926 172.778 107.671 172.205 107.548 171.86C107.176 171.033 106.708 170.571 106.143 170.476V170.27H106.783C107.403 170.27 107.951 170.084 108.425 169.713C108.9 169.341 109.22 168.736 109.385 167.894C109.44 167.605 109.468 167.378 109.468 167.212C109.468 166.083 109.241 165.267 108.785 164.763C108.331 164.26 107.745 164.002 107.03 163.988C106.895 163.99 106.689 163.99 106.413 163.99Z" fill="url(#paint56_linear)"/>
<path d="M116.122 175.619C116.122 174.628 116.336 173.78 116.763 173.079H116.949C116.936 173.19 116.928 173.3 116.928 173.409C116.928 174.36 117.27 175.188 117.95 175.899C118.633 176.608 119.565 176.962 120.75 176.962C121.672 176.962 122.392 176.743 122.908 176.3C123.423 175.86 123.682 175.303 123.682 174.628C123.682 173.816 123.131 173.107 122.03 172.5L118.436 170.124C117.72 169.711 117.208 169.213 116.896 168.626C116.587 168.041 116.431 167.445 116.431 166.839C116.431 165.545 116.84 164.546 117.66 163.843C118.479 163.14 119.529 162.789 120.81 162.789C121.567 162.789 122.503 162.858 123.618 162.995H124.919L124.651 166.033H124.445C124.445 165.317 124.181 164.741 123.65 164.308C123.119 163.875 122.415 163.657 121.533 163.657C120.459 163.657 119.681 163.987 119.199 164.649C118.951 164.966 118.828 165.324 118.828 165.723C118.828 166.385 119.31 166.996 120.273 167.563L124.218 170.124C125.458 170.84 126.078 171.894 126.078 173.285C126.078 174.759 125.579 175.886 124.58 176.662C123.581 177.44 122.257 177.83 120.603 177.83C119.666 177.83 118.803 177.716 118.01 177.489C117.219 177.262 116.636 176.954 116.265 176.57C116.171 176.31 116.122 175.993 116.122 175.619Z" fill="url(#paint57_linear)"/>
<path d="M146.984 181.321C145.482 182.078 143.961 182.202 142.418 181.692C140.78 181.169 139.368 180.053 138.183 178.345C137.549 177.436 137.005 176.382 136.551 175.184L135.89 173.429H131.015L129.92 176.031C129.85 176.211 129.817 176.356 129.817 176.464C129.817 176.575 129.841 176.695 129.89 176.826C129.938 176.958 130.042 177.074 130.199 177.177C130.357 177.28 130.533 177.333 130.726 177.333H130.891V177.539H126.47V177.333H126.655C126.972 177.333 127.285 177.239 127.595 177.053C127.904 176.868 128.163 176.588 128.369 176.217L132.976 165.702C132.438 164.491 131.868 163.656 131.262 163.203C130.752 162.816 130.267 162.623 129.805 162.623C129.344 162.623 128.913 162.693 128.513 162.83L128.472 162.623C129.464 162.113 130.415 161.858 131.322 161.858C132.451 161.858 133.463 162.299 134.36 163.18C135.241 164.048 136.019 165.301 136.694 166.94L139.69 174.334C140.819 177.13 141.976 179.052 143.161 180.098C143.643 180.526 144.138 180.822 144.648 180.987C145.158 181.152 145.587 181.234 145.939 181.234C146.29 181.234 146.631 181.193 146.961 181.111L146.984 181.321ZM131.367 172.542H135.582L134.136 168.721C134.067 168.528 133.971 168.263 133.848 167.926C133.724 167.588 133.642 167.35 133.6 167.213L131.367 172.542Z" fill="url(#paint58_linear)"/>
<defs>
<linearGradient id="paint0_linear" x1="127.821" y1="69.7135" x2="97.9574" y2="39.85" gradientUnits="userSpaceOnUse">
<stop offset="0.1173" stop-color="#D24D56"/>
<stop offset="0.212" stop-color="#C84950"/>
<stop offset="0.5312" stop-color="#AA3C3D"/>
<stop offset="0.8051" stop-color="#983531"/>
<stop offset="1" stop-color="#91322D"/>
</linearGradient>
<linearGradient id="paint1_linear" x1="125.779" y1="71.3237" x2="64.8943" y2="10.4388" gradientUnits="userSpaceOnUse">
<stop offset="0.1173" stop-color="#D24D56"/>
<stop offset="0.212" stop-color="#C84950"/>
<stop offset="0.5312" stop-color="#AA3C3D"/>
<stop offset="0.8051" stop-color="#983531"/>
<stop offset="1" stop-color="#91322D"/>
</linearGradient>
<linearGradient id="paint2_linear" x1="93.5049" y1="118.666" x2="-4.50281" y2="20.6584" gradientUnits="userSpaceOnUse">
<stop offset="0.1173" stop-color="#D24D56"/>
<stop offset="0.212" stop-color="#C84950"/>
<stop offset="0.5312" stop-color="#AA3C3D"/>
<stop offset="0.8051" stop-color="#983531"/>
<stop offset="1" stop-color="#91322D"/>
</linearGradient>
<linearGradient id="paint3_linear" x1="138.228" y1="80.1205" x2="88.9673" y2="30.8599" gradientUnits="userSpaceOnUse">
<stop offset="0.1173" stop-color="#D24D56"/>
<stop offset="0.212" stop-color="#C84950"/>
<stop offset="0.5312" stop-color="#AA3C3D"/>
<stop offset="0.8051" stop-color="#983531"/>
<stop offset="1" stop-color="#91322D"/>
</linearGradient>
<linearGradient id="paint4_linear" x1="98.8258" y1="112.995" x2="61.8185" y2="75.9879" gradientUnits="userSpaceOnUse">
<stop offset="0.1173" stop-color="#D24D56"/>
<stop offset="0.212" stop-color="#C84950"/>
<stop offset="0.5312" stop-color="#AA3C3D"/>
<stop offset="0.8051" stop-color="#983531"/>
<stop offset="1" stop-color="#91322D"/>
</linearGradient>
<linearGradient id="paint5_linear" x1="60.2339" y1="74.4027" x2="15.0384" y2="29.2072" gradientUnits="userSpaceOnUse">
<stop offset="0.1173" stop-color="#D24D56"/>
<stop offset="0.212" stop-color="#C84950"/>
<stop offset="0.5312" stop-color="#AA3C3D"/>
<stop offset="0.8051" stop-color="#983531"/>
<stop offset="1" stop-color="#91322D"/>
</linearGradient>
<linearGradient id="paint6_linear" x1="66.6499" y1="42.8531" x2="32.4365" y2="8.63965" gradientUnits="userSpaceOnUse">
<stop offset="0.1173" stop-color="#D24D56"/>
<stop offset="1" stop-color="#91322D"/>
</linearGradient>
<linearGradient id="paint7_linear" x1="96.3715" y1="38.2643" x2="66.5048" y2="8.39763" gradientUnits="userSpaceOnUse">
<stop offset="0.1173" stop-color="#D24D56"/>
<stop offset="0.212" stop-color="#C84950"/>
<stop offset="0.5312" stop-color="#AA3C3D"/>
<stop offset="0.8051" stop-color="#983531"/>
<stop offset="1" stop-color="#91322D"/>
</linearGradient>
<linearGradient id="paint8_linear" x1="117.278" y1="93.4819" x2="99.4239" y2="75.628" gradientUnits="userSpaceOnUse">
<stop offset="0.1173" stop-color="#D24D56"/>
<stop offset="0.212" stop-color="#C84950"/>
<stop offset="0.5312" stop-color="#AA3C3D"/>
<stop offset="0.8051" stop-color="#983531"/>
<stop offset="1" stop-color="#91322D"/>
</linearGradient>
<linearGradient id="paint9_linear" x1="56.0948" y1="91.6929" x2="82.3094" y2="91.6929" gradientUnits="userSpaceOnUse">
<stop offset="0.1173" stop-color="#D24D56"/>
<stop offset="0.212" stop-color="#C84950"/>
<stop offset="0.5312" stop-color="#AA3C3D"/>
<stop offset="0.8051" stop-color="#983531"/>
<stop offset="1" stop-color="#91322D"/>
</linearGradient>
<linearGradient id="paint10_linear" x1="86.2254" y1="71.9486" x2="75.1387" y2="42.9719" gradientUnits="userSpaceOnUse">
<stop offset="0.1173" stop-color="#D24D56"/>
<stop offset="0.212" stop-color="#C84950"/>
<stop offset="0.5312" stop-color="#AA3C3D"/>
<stop offset="0.8051" stop-color="#983531"/>
<stop offset="1" stop-color="#91322D"/>
</linearGradient>
<linearGradient id="paint11_linear" x1="80.4973" y1="78.719" x2="69.7823" y2="128.297" gradientUnits="userSpaceOnUse">
<stop stop-color="#D24D56"/>
<stop offset="0.1072" stop-color="#C84950"/>
<stop offset="0.4689" stop-color="#AA3C3D"/>
<stop offset="0.7792" stop-color="#983531"/>
<stop offset="1" stop-color="#91322D"/>
</linearGradient>
<linearGradient id="paint12_linear" x1="37.761" y1="86.9135" x2="53.3477" y2="86.9135" gradientUnits="userSpaceOnUse">
<stop offset="0.1173" stop-color="#D24D56"/>
<stop offset="0.212" stop-color="#C84950"/>
<stop offset="0.5312" stop-color="#AA3C3D"/>
<stop offset="0.8051" stop-color="#983531"/>
<stop offset="1" stop-color="#91322D"/>
</linearGradient>
<linearGradient id="paint13_linear" x1="55.564" y1="58.322" x2="43.5114" y2="114.09" gradientUnits="userSpaceOnUse">
<stop offset="0.1173" stop-color="#D24D56"/>
<stop offset="0.212" stop-color="#C84950"/>
<stop offset="0.5312" stop-color="#AA3C3D"/>
<stop offset="0.8051" stop-color="#983531"/>
<stop offset="1" stop-color="#91322D"/>
</linearGradient>
<linearGradient id="paint14_linear" x1="49.0914" y1="89.0465" x2="62.1891" y2="89.0465" gradientUnits="userSpaceOnUse">
<stop offset="0.1173" stop-color="#D24D56"/>
<stop offset="0.212" stop-color="#C84950"/>
<stop offset="0.5312" stop-color="#AA3C3D"/>
<stop offset="0.8051" stop-color="#983531"/>
<stop offset="1" stop-color="#91322D"/>
</linearGradient>
<linearGradient id="paint15_linear" x1="52.8572" y1="93.9835" x2="62.1889" y2="93.9835" gradientUnits="userSpaceOnUse">
<stop offset="0.1173" stop-color="#D24D56"/>
<stop offset="0.212" stop-color="#C84950"/>
<stop offset="0.5312" stop-color="#AA3C3D"/>
<stop offset="0.8051" stop-color="#983531"/>
<stop offset="1" stop-color="#91322D"/>
</linearGradient>
<linearGradient id="paint16_linear" x1="13.0439" y1="26.5156" x2="67.9025" y2="26.5156" gradientUnits="userSpaceOnUse">
<stop offset="0.1173" stop-color="#D24D56"/>
<stop offset="0.212" stop-color="#C84950"/>
<stop offset="0.5312" stop-color="#AA3C3D"/>
<stop offset="0.8051" stop-color="#983531"/>
<stop offset="1" stop-color="#91322D"/>
</linearGradient>
<linearGradient id="paint17_linear" x1="29.3673" y1="23.9922" x2="67.9027" y2="23.5451" gradientUnits="userSpaceOnUse">
<stop offset="0.1173" stop-color="#D24D56"/>
<stop offset="0.212" stop-color="#C84950"/>
<stop offset="0.5312" stop-color="#AA3C3D"/>
<stop offset="0.8051" stop-color="#983531"/>
<stop offset="1" stop-color="#91322D"/>
</linearGradient>
<linearGradient id="paint18_linear" x1="13.009" y1="24.2346" x2="59.3391" y2="23.697" gradientUnits="userSpaceOnUse">
<stop stop-color="#D24D56"/>
<stop offset="0.1072" stop-color="#C84950"/>
<stop offset="0.4689" stop-color="#AA3C3D"/>
<stop offset="0.7792" stop-color="#983531"/>
<stop offset="1" stop-color="#91322D"/>
</linearGradient>
<linearGradient id="paint19_linear" x1="46.0221" y1="18.5433" x2="67.8704" y2="37.395" gradientUnits="userSpaceOnUse">
<stop stop-color="#D24D56"/>
<stop offset="0.1072" stop-color="#C84950"/>
<stop offset="0.4689" stop-color="#AA3C3D"/>
<stop offset="0.7792" stop-color="#983531"/>
<stop offset="1" stop-color="#91322D"/>
</linearGradient>
<linearGradient id="paint20_linear" x1="0.00256251" y1="65.3622" x2="62.1665" y2="65.3622" gradientUnits="userSpaceOnUse">
<stop offset="0.1173" stop-color="#D24D56"/>
<stop offset="0.212" stop-color="#C84950"/>
<stop offset="0.5312" stop-color="#AA3C3D"/>
<stop offset="0.8051" stop-color="#983531"/>
<stop offset="1" stop-color="#91322D"/>
</linearGradient>
<linearGradient id="paint21_linear" x1="-5.5955" y1="24.8036" x2="46.1741" y2="59.2197" gradientUnits="userSpaceOnUse">
<stop offset="0.1173" stop-color="#D24D56"/>
<stop offset="0.212" stop-color="#C84950"/>
<stop offset="0.5312" stop-color="#AA3C3D"/>
<stop offset="0.8051" stop-color="#983531"/>
<stop offset="1" stop-color="#91322D"/>
</linearGradient>
<linearGradient id="paint22_linear" x1="8.43964" y1="37.2382" x2="43.1689" y2="48.797" gradientUnits="userSpaceOnUse">
<stop stop-color="#D24D56"/>
<stop offset="0.1072" stop-color="#C84950"/>
<stop offset="0.4689" stop-color="#AA3C3D"/>
<stop offset="0.7792" stop-color="#983531"/>
<stop offset="1" stop-color="#91322D"/>
</linearGradient>
<linearGradient id="paint23_linear" x1="15.645" y1="59.1318" x2="33.3735" y2="65.0323" gradientUnits="userSpaceOnUse">
<stop stop-color="#D24D56"/>
<stop offset="0.1072" stop-color="#C84950"/>
<stop offset="0.4689" stop-color="#AA3C3D"/>
<stop offset="0.7792" stop-color="#983531"/>
<stop offset="1" stop-color="#91322D"/>
</linearGradient>
<linearGradient id="paint24_linear" x1="27.1651" y1="76.3934" x2="39.0579" y2="80.3516" gradientUnits="userSpaceOnUse">
<stop stop-color="#D24D56"/>
<stop offset="0.1072" stop-color="#C84950"/>
<stop offset="0.4689" stop-color="#AA3C3D"/>
<stop offset="0.7792" stop-color="#983531"/>
<stop offset="1" stop-color="#91322D"/>
</linearGradient>
<linearGradient id="paint25_linear" x1="71.9671" y1="73.3506" x2="82.0873" y2="73.3506" gradientUnits="userSpaceOnUse">
<stop offset="0.1173" stop-color="#D24D56"/>
<stop offset="0.212" stop-color="#C84950"/>
<stop offset="0.5312" stop-color="#AA3C3D"/>
<stop offset="0.8051" stop-color="#983531"/>
<stop offset="1" stop-color="#91322D"/>
</linearGradient>
<linearGradient id="paint26_linear" x1="84.5817" y1="60.8849" x2="93.5574" y2="60.4177" gradientUnits="userSpaceOnUse">
<stop offset="0.1173" stop-color="#D24D56"/>
<stop offset="0.212" stop-color="#C84950"/>
<stop offset="0.5312" stop-color="#AA3C3D"/>
<stop offset="0.8051" stop-color="#983531"/>
<stop offset="1" stop-color="#91322D"/>
</linearGradient>
<linearGradient id="paint27_linear" x1="111.922" y1="61.0428" x2="50.7766" y2="37.5457" gradientUnits="userSpaceOnUse">
<stop offset="0.1173" stop-color="#D24D56"/>
<stop offset="0.212" stop-color="#C84950"/>
<stop offset="0.5312" stop-color="#AA3C3D"/>
<stop offset="0.8051" stop-color="#983531"/>
<stop offset="1" stop-color="#91322D"/>
</linearGradient>
<linearGradient id="paint28_linear" x1="58.1441" y1="63.2885" x2="74.0299" y2="40.4332" gradientUnits="userSpaceOnUse">
<stop stop-color="#D24D56"/>
<stop offset="0.1072" stop-color="#C84950"/>
<stop offset="0.4689" stop-color="#AA3C3D"/>
<stop offset="0.7792" stop-color="#983531"/>
<stop offset="1" stop-color="#91322D"/>
</linearGradient>
<linearGradient id="paint29_linear" x1="87.6081" y1="55.3512" x2="95.0862" y2="55.3512" gradientUnits="userSpaceOnUse">
<stop offset="0.1173" stop-color="#D24D56"/>
<stop offset="0.212" stop-color="#C84950"/>
<stop offset="0.5312" stop-color="#AA3C3D"/>
<stop offset="0.8051" stop-color="#983531"/>
<stop offset="1" stop-color="#91322D"/>
</linearGradient>
<linearGradient id="paint30_linear" x1="108.389" y1="43.1153" x2="99.2744" y2="66.8605" gradientUnits="userSpaceOnUse">
<stop offset="0.1899" stop-color="#D9DAE0"/>
<stop offset="0.3701" stop-color="#D4D5DB"/>
<stop offset="0.5797" stop-color="#C6C8CE"/>
<stop offset="0.8032" stop-color="#AFB2B8"/>
<stop offset="1" stop-color="#94999E"/>
</linearGradient>
<linearGradient id="paint31_linear" x1="82.8706" y1="31.1669" x2="99.2277" y2="31.1669" gradientUnits="userSpaceOnUse">
<stop stop-color="#D9DAE0"/>
<stop offset="0.2224" stop-color="#D4D5DB"/>
<stop offset="0.4811" stop-color="#C6C8CE"/>
<stop offset="0.757" stop-color="#AFB2B7"/>
<stop offset="1" stop-color="#94989D"/>
</linearGradient>
<linearGradient id="paint32_linear" x1="83.5799" y1="6.65095" x2="106.867" y2="22.3585" gradientUnits="userSpaceOnUse">
<stop offset="0.1849" stop-color="#D9DAE0"/>
<stop offset="0.4184" stop-color="#CBCDD3"/>
<stop offset="0.8557" stop-color="#A7ABB1"/>
<stop offset="1" stop-color="#9A9EA4"/>
</linearGradient>
<linearGradient id="paint33_linear" x1="92.7919" y1="21.145" x2="107.621" y2="45.8241" gradientUnits="userSpaceOnUse">
<stop offset="0.1899" stop-color="#D9DAE0"/>
<stop offset="0.3701" stop-color="#D4D5DB"/>
<stop offset="0.5797" stop-color="#C6C8CE"/>
<stop offset="0.8032" stop-color="#AFB2B7"/>
<stop offset="1" stop-color="#94989D"/>
</linearGradient>
<linearGradient id="paint34_linear" x1="110.099" y1="61.181" x2="87.5359" y2="80.1136" gradientUnits="userSpaceOnUse">
<stop offset="0.3758" stop-color="#D9DAE0"/>
<stop offset="0.5155" stop-color="#CCCED4"/>
<stop offset="0.771" stop-color="#ABAEB3"/>
<stop offset="1" stop-color="#888D91"/>
</linearGradient>
<linearGradient id="paint35_linear" x1="103.856" y1="73.6369" x2="101.051" y2="82.8129" gradientUnits="userSpaceOnUse">
<stop offset="0.1899" stop-color="#D9DAE0"/>
<stop offset="0.3568" stop-color="#D4D5DB"/>
<stop offset="0.551" stop-color="#C6C8CE"/>
<stop offset="0.7589" stop-color="#AFB1B7"/>
<stop offset="0.975" stop-color="#8E9297"/>
<stop offset="1" stop-color="#8A8E93"/>
</linearGradient>
<linearGradient id="paint36_linear" x1="115.232" y1="53.2583" x2="126.376" y2="73.4336" gradientUnits="userSpaceOnUse">
<stop stop-color="#D9DAE0"/>
<stop offset="0.2567" stop-color="#D6D7DD"/>
<stop offset="0.4662" stop-color="#CCCDD3"/>
<stop offset="0.6591" stop-color="#BBBDC2"/>
<stop offset="0.841" stop-color="#A3A6AB"/>
<stop offset="1" stop-color="#878B90"/>
</linearGradient>
<linearGradient id="paint37_linear" x1="130.087" y1="62.0083" x2="117.488" y2="85.7025" gradientUnits="userSpaceOnUse">
<stop offset="0.2737" stop-color="#D9DAE0"/>
<stop offset="0.4679" stop-color="#C4C5CB"/>
<stop offset="0.8686" stop-color="#8C9093"/>
<stop offset="1" stop-color="#797D80"/>
</linearGradient>
<linearGradient id="paint38_linear" x1="126.732" y1="87.2079" x2="98.2638" y2="88.6998" gradientUnits="userSpaceOnUse">
<stop offset="0.2889" stop-color="#D9DAE0"/>
<stop offset="0.4027" stop-color="#D1D2D8"/>
<stop offset="0.5814" stop-color="#BABCC1"/>
<stop offset="0.8015" stop-color="#96999D"/>
<stop offset="1" stop-color="#6F7476"/>
</linearGradient>
<linearGradient id="paint39_linear" x1="104.743" y1="100.479" x2="83.6125" y2="82.7477" gradientUnits="userSpaceOnUse">
<stop stop-color="#EBEBEF"/>
<stop offset="0.1518" stop-color="#E3E3E7"/>
<stop offset="0.3905" stop-color="#CCCDD1"/>
<stop offset="0.6861" stop-color="#A8AAAD"/>
<stop offset="1" stop-color="#797D80"/>
</linearGradient>
<linearGradient id="paint40_linear" x1="107.921" y1="113.489" x2="88.5123" y2="91.1614" gradientUnits="userSpaceOnUse">
<stop stop-color="#EBEBEF"/>
<stop offset="0.2851" stop-color="#C7C8CC"/>
<stop offset="0.7671" stop-color="#8F9295"/>
<stop offset="1" stop-color="#797D80"/>
</linearGradient>
<linearGradient id="paint41_linear" x1="32.9966" y1="140" x2="32.9966" y2="155.684" gradientUnits="userSpaceOnUse">
<stop offset="0.1173" stop-color="#D24D56"/>
<stop offset="0.212" stop-color="#C84950"/>
<stop offset="0.5312" stop-color="#AA3C3D"/>
<stop offset="0.8051" stop-color="#983531"/>
<stop offset="1" stop-color="#91322D"/>
</linearGradient>
<linearGradient id="paint42_linear" x1="45.6507" y1="141.114" x2="45.6507" y2="152.566" gradientUnits="userSpaceOnUse">
<stop offset="0.1173" stop-color="#D24D56"/>
<stop offset="0.212" stop-color="#C84950"/>
<stop offset="0.5312" stop-color="#AA3C3D"/>
<stop offset="0.8051" stop-color="#983531"/>
<stop offset="1" stop-color="#91322D"/>
</linearGradient>
<linearGradient id="paint43_linear" x1="58.1683" y1="141.432" x2="58.1683" y2="152.567" gradientUnits="userSpaceOnUse">
<stop offset="0.1173" stop-color="#D24D56"/>
<stop offset="0.212" stop-color="#C84950"/>
<stop offset="0.5312" stop-color="#AA3C3D"/>
<stop offset="0.8051" stop-color="#983531"/>
<stop offset="1" stop-color="#91322D"/>
</linearGradient>
<linearGradient id="paint44_linear" x1="70.4481" y1="141.114" x2="70.4481" y2="152.566" gradientUnits="userSpaceOnUse">
<stop offset="0.1173" stop-color="#D24D56"/>
<stop offset="0.212" stop-color="#C84950"/>
<stop offset="0.5312" stop-color="#AA3C3D"/>
<stop offset="0.8051" stop-color="#983531"/>
<stop offset="1" stop-color="#91322D"/>
</linearGradient>
<linearGradient id="paint45_linear" x1="82.7441" y1="141.432" x2="82.7441" y2="152.567" gradientUnits="userSpaceOnUse">
<stop offset="0.1173" stop-color="#D24D56"/>
<stop offset="0.212" stop-color="#C84950"/>
<stop offset="0.5312" stop-color="#AA3C3D"/>
<stop offset="0.8051" stop-color="#983531"/>
<stop offset="1" stop-color="#91322D"/>
</linearGradient>
<linearGradient id="paint46_linear" x1="94.3881" y1="141.431" x2="94.3881" y2="152.566" gradientUnits="userSpaceOnUse">
<stop offset="0.1173" stop-color="#D24D56"/>
<stop offset="0.212" stop-color="#C84950"/>
<stop offset="0.5312" stop-color="#AA3C3D"/>
<stop offset="0.8051" stop-color="#983531"/>
<stop offset="1" stop-color="#91322D"/>
</linearGradient>
<linearGradient id="paint47_linear" x1="103.726" y1="141.432" x2="103.726" y2="152.566" gradientUnits="userSpaceOnUse">
<stop offset="0.1173" stop-color="#D24D56"/>
<stop offset="0.212" stop-color="#C84950"/>
<stop offset="0.5312" stop-color="#AA3C3D"/>
<stop offset="0.8051" stop-color="#983531"/>
<stop offset="1" stop-color="#91322D"/>
</linearGradient>
<linearGradient id="paint48_linear" x1="113.293" y1="141.432" x2="113.293" y2="152.566" gradientUnits="userSpaceOnUse">
<stop offset="0.1173" stop-color="#D24D56"/>
<stop offset="0.212" stop-color="#C84950"/>
<stop offset="0.5312" stop-color="#AA3C3D"/>
<stop offset="0.8051" stop-color="#983531"/>
<stop offset="1" stop-color="#91322D"/>
</linearGradient>
<linearGradient id="paint49_linear" x1="126.273" y1="140.493" x2="126.273" y2="156" gradientUnits="userSpaceOnUse">
<stop offset="0.1173" stop-color="#D24D56"/>
<stop offset="0.212" stop-color="#C84950"/>
<stop offset="0.5312" stop-color="#AA3C3D"/>
<stop offset="0.8051" stop-color="#983531"/>
<stop offset="1" stop-color="#91322D"/>
</linearGradient>
<linearGradient id="paint50_linear" x1="23.7446" y1="157.999" x2="23.7446" y2="181.259" gradientUnits="userSpaceOnUse">
<stop offset="0.1173" stop-color="#D24D56"/>
<stop offset="0.212" stop-color="#C84950"/>
<stop offset="0.5312" stop-color="#AA3C3D"/>
<stop offset="0.8051" stop-color="#983531"/>
<stop offset="1" stop-color="#91322D"/>
</linearGradient>
<linearGradient id="paint51_linear" x1="35.5187" y1="163.081" x2="35.5187" y2="177.541" gradientUnits="userSpaceOnUse">
<stop offset="0.1173" stop-color="#D24D56"/>
<stop offset="0.212" stop-color="#C84950"/>
<stop offset="0.5312" stop-color="#AA3C3D"/>
<stop offset="0.8051" stop-color="#983531"/>
<stop offset="1" stop-color="#91322D"/>
</linearGradient>
<linearGradient id="paint52_linear" x1="48.0996" y1="163.081" x2="48.0996" y2="177.541" gradientUnits="userSpaceOnUse">
<stop offset="0.1173" stop-color="#D24D56"/>
<stop offset="0.212" stop-color="#C84950"/>
<stop offset="0.5312" stop-color="#AA3C3D"/>
<stop offset="0.8051" stop-color="#983531"/>
<stop offset="1" stop-color="#91322D"/>
</linearGradient>
<linearGradient id="paint53_linear" x1="62.0841" y1="162.668" x2="62.0841" y2="177.541" gradientUnits="userSpaceOnUse">
<stop offset="0.1173" stop-color="#D24D56"/>
<stop offset="0.212" stop-color="#C84950"/>
<stop offset="0.5312" stop-color="#AA3C3D"/>
<stop offset="0.8051" stop-color="#983531"/>
<stop offset="1" stop-color="#91322D"/>
</linearGradient>
<linearGradient id="paint54_linear" x1="77.897" y1="163.081" x2="77.897" y2="177.541" gradientUnits="userSpaceOnUse">
<stop offset="0.1173" stop-color="#D24D56"/>
<stop offset="0.212" stop-color="#C84950"/>
<stop offset="0.5312" stop-color="#AA3C3D"/>
<stop offset="0.8051" stop-color="#983531"/>
<stop offset="1" stop-color="#91322D"/>
</linearGradient>
<linearGradient id="paint55_linear" x1="92.4909" y1="162.668" x2="92.4909" y2="177.541" gradientUnits="userSpaceOnUse">
<stop offset="0.1173" stop-color="#D24D56"/>
<stop offset="0.212" stop-color="#C84950"/>
<stop offset="0.5312" stop-color="#AA3C3D"/>
<stop offset="0.8051" stop-color="#983531"/>
<stop offset="1" stop-color="#91322D"/>
</linearGradient>
<linearGradient id="paint56_linear" x1="108.459" y1="163.081" x2="108.459" y2="177.541" gradientUnits="userSpaceOnUse">
<stop offset="0.1173" stop-color="#D24D56"/>
<stop offset="0.212" stop-color="#C84950"/>
<stop offset="0.5312" stop-color="#AA3C3D"/>
<stop offset="0.8051" stop-color="#983531"/>
<stop offset="1" stop-color="#91322D"/>
</linearGradient>
<linearGradient id="paint57_linear" x1="121.101" y1="162.792" x2="121.101" y2="177.83" gradientUnits="userSpaceOnUse">
<stop offset="0.1173" stop-color="#D24D56"/>
<stop offset="0.212" stop-color="#C84950"/>
<stop offset="0.5312" stop-color="#AA3C3D"/>
<stop offset="0.8051" stop-color="#983531"/>
<stop offset="1" stop-color="#91322D"/>
</linearGradient>
<linearGradient id="paint58_linear" x1="136.727" y1="161.862" x2="136.727" y2="182" gradientUnits="userSpaceOnUse">
<stop offset="0.1173" stop-color="#D24D56"/>
<stop offset="0.212" stop-color="#C84950"/>
<stop offset="0.5312" stop-color="#AA3C3D"/>
<stop offset="0.8051" stop-color="#983531"/>
<stop offset="1" stop-color="#91322D"/>
</linearGradient>
</defs>
</svg>
