<svg width="34" height="32" viewBox="0 0 34 32" fill="none" xmlns="http://www.w3.org/2000/svg">
<path d="M27.1056 13.0095C27.2242 13.0054 27.3424 13.0252 27.4532 13.0678C27.5639 13.1103 27.665 13.1748 27.7503 13.2572C27.8357 13.3397 27.9035 13.4384 27.9499 13.5477C27.9962 13.6569 28.0201 13.7743 28.0201 13.893C28.0201 14.0116 27.9962 14.1291 27.9499 14.2383C27.9035 14.3475 27.8357 14.4463 27.7503 14.5288C27.665 14.6112 27.5639 14.6756 27.4532 14.7182C27.3424 14.7608 27.2242 14.7806 27.1056 14.7765H24.6499V16.3514H27.1056C27.2249 16.3455 27.3442 16.364 27.4561 16.4056C27.5681 16.4473 27.6704 16.5112 27.7569 16.5936C27.8434 16.676 27.9122 16.775 27.9593 16.8848C28.0063 16.9946 28.0306 17.1128 28.0306 17.2322C28.0306 17.3517 28.0063 17.4699 27.9593 17.5797C27.9122 17.6894 27.8434 17.7885 27.7569 17.8709C27.6704 17.9533 27.5681 18.0172 27.4561 18.0588C27.3442 18.1005 27.2249 18.1189 27.1056 18.1131H23.7701C23.5369 18.1123 23.3135 18.0191 23.1488 17.8541C22.9842 17.689 22.8916 17.4654 22.8913 17.2322V10.5548C22.8913 10.0687 23.285 9.66971 23.7701 9.66971H27.1119C27.3387 9.68143 27.5522 9.77991 27.7083 9.94475C27.8643 10.1096 27.951 10.3282 27.9503 10.5552C27.9497 10.7822 27.8617 11.0003 27.7046 11.1642C27.5476 11.3281 27.3335 11.4253 27.1067 11.4357H24.6509V13.0105L27.1056 13.0095ZM21.7154 17.2312C21.7134 17.465 21.6193 17.6886 21.4533 17.8534C21.2874 18.0182 21.0631 18.1108 20.8293 18.111C20.6908 18.1124 20.5539 18.0815 20.4295 18.0208C20.305 17.9601 20.1964 17.8713 20.1122 17.7614L16.6947 13.1134V17.2301C16.6947 17.4638 16.6019 17.6878 16.4367 17.853C16.2715 18.0182 16.0474 18.111 15.8138 18.111C15.5802 18.111 15.3561 18.0182 15.1909 17.853C15.0257 17.6878 14.9329 17.4638 14.9329 17.2301V10.5527C14.9329 10.1758 15.1797 9.8377 15.5345 9.71696C15.6222 9.686 15.7146 9.67072 15.8075 9.67181C16.0805 9.67181 16.3325 9.81985 16.5015 10.0277L19.9463 14.6862V10.5527C19.9463 10.0666 20.34 9.66761 20.8272 9.66761C21.3143 9.66761 21.7133 10.0666 21.7133 10.5527L21.7154 17.2312ZM13.6772 17.2312C13.6761 17.4654 13.5822 17.6896 13.4161 17.8547C13.2501 18.0198 13.0253 18.1124 12.7911 18.1121C12.5587 18.1101 12.3364 18.0165 12.1726 17.8515C12.0088 17.6866 11.9168 17.4636 11.9165 17.2312V10.5537C11.9165 10.0676 12.3102 9.66866 12.7974 9.66866C13.2835 9.66866 13.6783 10.0676 13.6783 10.5537L13.6772 17.2312ZM10.2262 18.1121H6.88429C6.65035 18.1115 6.42607 18.0187 6.26016 17.8538C6.09424 17.6889 6.0001 17.4651 5.99816 17.2312V10.5537C5.99816 10.0676 6.39713 9.66866 6.88429 9.66866C7.37145 9.66866 7.76517 10.0676 7.76517 10.5537V16.3503H10.2262C10.4598 16.3503 10.6838 16.4431 10.849 16.6083C11.0142 16.7735 11.107 16.9976 11.107 17.2312C11.107 17.4648 11.0142 17.6889 10.849 17.8541C10.6838 18.0193 10.4598 18.1121 10.2262 18.1121ZM33.5973 13.6373C33.5973 6.1189 26.0557 0 16.7986 0C7.54153 0 0 6.1189 0 13.6373C0 20.3746 5.97716 26.0179 14.0479 27.0899C14.5949 27.2043 15.3382 27.4511 15.5303 27.9162C15.6994 28.3361 15.6395 28.9871 15.5849 29.4312L15.355 30.858C15.2889 31.279 15.0159 32.5158 16.8207 31.761C18.6307 31.0061 26.5051 26.0526 30.0317 21.9936C32.4434 19.3531 33.5973 16.6401 33.5973 13.6373Z" fill="#F8F8F8"/>
</svg>
