<svg width="133" height="180" viewBox="0 0 133 180" fill="none" xmlns="http://www.w3.org/2000/svg">
<path d="M23.9613 177.675C24.191 177.807 24.452 177.932 24.7443 178.05C25.0366 178.167 25.3178 178.252 25.5898 178.3C25.8619 178.348 26.1596 178.373 26.4868 178.373C26.814 178.373 27.1522 178.331 27.4996 178.248L27.5823 178.458C26.803 178.833 26.0163 179.022 25.2222 179.022C23.3988 179.022 21.5405 178.013 19.6473 175.995L9.75104 165.494V174.034C9.75104 174.381 9.87603 174.677 10.1279 174.921C10.3778 175.166 10.6774 175.287 11.0248 175.287H11.4219V175.497H5.09517V175.287H5.47014C5.83225 175.287 6.13737 175.166 6.38919 174.921C6.63917 174.679 6.76415 174.376 6.76415 174.013V162.301C6.08222 161.522 5.56756 160.976 5.21832 160.662C4.87092 160.349 4.56029 160.088 4.29009 159.879C4.01805 159.669 3.75704 159.496 3.50706 159.357C2.92255 159.022 2.45201 158.827 2.09726 158.772C1.74251 158.717 1.40797 158.689 1.0955 158.689C0.783023 158.689 0.444819 158.752 0.0827161 158.877L0 158.667C0.766482 158.222 1.55134 158 2.3601 158C4.11363 158 5.97194 159.044 7.93501 161.132L17.267 171.049V162.364C17.2523 162.002 17.1199 161.698 16.8699 161.456C16.62 161.213 16.3204 161.09 15.973 161.09H15.598V160.88H21.9247V161.09H21.5277C21.1803 161.09 20.8806 161.211 20.6307 161.456C20.3807 161.7 20.2483 161.996 20.2336 162.343V174.223L20.5682 174.557C20.6509 174.64 20.7796 174.784 20.9542 174.986C21.1288 175.188 21.285 175.361 21.4247 175.508C21.5644 175.653 21.7409 175.839 21.9578 176.061C22.1728 176.283 22.375 176.478 22.5625 176.646C22.75 176.813 22.9724 176.993 23.2297 177.188C23.4871 177.379 23.7315 177.543 23.9613 177.675Z" fill="url(#paint0_linear)"/>
<path d="M37.918 175.285H38.1055V175.495H31.4461V175.285H31.6336C31.9388 175.285 32.1667 175.191 32.3119 175.004C32.4589 174.816 32.5306 174.638 32.5306 174.471C32.5306 174.303 32.4957 174.136 32.4258 173.969L31.402 171.401H26.5164L25.4301 173.969C25.3602 174.151 25.3253 174.32 25.3253 174.48C25.3253 174.64 25.3988 174.814 25.5441 175.002C25.6911 175.189 25.9227 175.283 26.2425 175.283H26.4098V175.493H21.9414V175.283H22.1289C22.4487 175.283 22.7685 175.186 23.0884 174.991C23.4082 174.796 23.6729 174.504 23.8824 174.114L28.7056 163.194C29.3599 161.815 29.7073 160.904 29.7496 160.459H29.9371L36.1369 174.072C36.3465 174.476 36.6093 174.778 36.931 174.98C37.2563 175.184 37.5835 175.285 37.918 175.285ZM26.873 170.524H31.0491L29.0235 165.389L26.873 170.524Z" fill="url(#paint1_linear)"/>
<path d="M56.3518 161.088H56.1643C55.8169 161.088 55.4658 161.193 55.1092 161.4C54.7545 161.61 54.5008 161.91 54.3464 162.297L50.8393 173.55C50.6022 174.317 50.4846 175.026 50.4846 175.681C50.4846 175.75 50.4846 175.813 50.4846 175.868H50.2751L45.724 165.784L42.4246 173.55C42.1048 174.357 41.9375 175.129 41.9228 175.868H41.7132L36.7228 162.297C36.5427 161.893 36.2854 161.592 35.9508 161.389C35.6163 161.187 35.2763 161.086 34.927 161.086H34.7598V160.877H41.1269V161.086H40.9394C40.6472 161.086 40.4284 161.18 40.2814 161.367C40.1343 161.555 40.0626 161.733 40.0626 161.9C40.0626 162.068 40.0902 162.228 40.1454 162.38L42.7132 169.646L46.4923 160.544L46.6798 160.564L50.8338 169.729L52.9219 162.38C52.9642 162.228 52.9844 162.068 52.9844 161.9C52.9844 161.733 52.9182 161.557 52.7859 161.367C52.6535 161.18 52.4348 161.086 52.1278 161.086H51.9404V160.877H56.3462V161.088H56.3518Z" fill="url(#paint2_linear)"/>
<path d="M69.2559 175.285H69.4434V175.495H62.784V175.285H62.9715C63.2767 175.285 63.5046 175.191 63.6498 175.004C63.795 174.816 63.8685 174.638 63.8685 174.471C63.8685 174.303 63.8336 174.136 63.7637 173.969L62.7399 171.401H57.8543L56.768 173.969C56.6981 174.151 56.6632 174.32 56.6632 174.48C56.6632 174.64 56.7367 174.814 56.882 175.002C57.029 175.189 57.2606 175.283 57.5804 175.283H57.7477V175.493H53.2793V175.283H53.4668C53.7866 175.283 54.1064 175.186 54.4263 174.991C54.7461 174.796 55.0108 174.504 55.2203 174.114L60.0434 163.194C60.6978 161.815 61.0452 160.904 61.0875 160.459H61.275L67.4748 174.072C67.6844 174.476 67.9472 174.778 68.2689 174.98C68.5942 175.184 68.9214 175.285 69.2559 175.285ZM58.2109 170.524H62.387L60.3614 165.389L58.2109 170.524Z" fill="url(#paint3_linear)"/>
<path d="M69.8398 173.552C69.8398 172.55 70.0549 171.694 70.4868 170.984H70.6743C70.6596 171.096 70.6541 171.207 70.6541 171.319C70.6541 172.28 70.9978 173.118 71.6871 173.835C72.3764 174.552 73.3193 174.91 74.5159 174.91C75.4478 174.91 76.1757 174.688 76.6977 174.243C77.2198 173.798 77.4808 173.234 77.4808 172.552C77.4808 171.73 76.9238 171.014 75.8099 170.402L72.1779 168.001C71.4537 167.584 70.9353 167.078 70.6229 166.488C70.3104 165.896 70.1523 165.295 70.1523 164.681C70.1523 163.373 70.5659 162.364 71.3949 161.654C72.222 160.945 73.2844 160.59 74.5784 160.59C75.3431 160.59 76.2897 160.66 77.4183 160.799H78.7343L78.4623 163.869H78.2528C78.2528 163.145 77.9844 162.564 77.4495 162.126C76.9128 161.687 76.1996 161.468 75.31 161.468C74.2237 161.468 73.437 161.803 72.9517 162.47C72.7017 162.79 72.5767 163.152 72.5767 163.557C72.5767 164.224 73.0638 164.845 74.038 165.415L78.0267 168.003C79.2802 168.727 79.9052 169.791 79.9052 171.197C79.9052 172.686 79.3997 173.824 78.3924 174.611C77.3833 175.397 76.0434 175.791 74.3726 175.791C73.4259 175.791 72.5529 175.677 71.7514 175.447C70.95 175.217 70.3637 174.909 69.9869 174.519C69.8876 174.249 69.8398 173.927 69.8398 173.552Z" fill="url(#paint4_linear)"/>
<path d="M81.8872 175.286C82.2493 175.286 82.5581 175.157 82.8154 174.9C83.0727 174.642 83.2087 174.334 83.2234 173.972V162.342C83.1812 161.855 82.9514 161.493 82.5342 161.256C82.3246 161.145 82.1096 161.088 81.8872 161.088H81.6151V160.879H89.6108C90.0427 160.879 90.5151 160.837 91.0298 160.754C91.5445 160.671 91.9066 160.587 92.1161 160.504V164.158H91.9066V163.908C91.9066 163.281 91.7227 162.778 91.3533 162.395C90.9838 162.013 90.4876 161.807 89.8608 161.78H86.3537V167.854H89.109C89.6237 167.842 90.0482 167.663 90.3828 167.321C90.7173 166.981 90.8846 166.559 90.8846 166.059V165.871H91.0941V170.694H90.8846V170.527C90.8846 169.83 90.6052 169.316 90.0501 168.983C89.7707 168.83 89.4656 168.746 89.131 168.733H86.3537V174.6H89.0888C90.1052 174.6 90.9581 174.308 91.6456 173.723C92.3348 173.139 92.8458 172.31 93.1804 171.238H93.3899L92.4286 175.497H81.6133V175.288H81.8872V175.286Z" fill="url(#paint5_linear)"/>
<path d="M110.969 161.088C110.621 161.088 110.322 161.209 110.072 161.453C109.822 161.698 109.689 161.994 109.675 162.341V173.114C109.675 174.046 109.737 174.833 109.862 175.474L109.925 175.787H109.737L99.1939 165.743V174.031C99.1939 174.379 99.3189 174.675 99.5708 174.919C99.8207 175.164 100.12 175.285 100.468 175.285H100.865V175.494H94.5381V175.285H94.9131C95.2752 175.285 95.5803 175.164 95.8321 174.919C96.0821 174.677 96.2071 174.373 96.2071 174.011V163.176C96.2071 162.257 96.1446 161.492 96.0196 160.88L95.9773 160.567H96.1648L106.708 170.611V162.363C106.693 162.001 106.561 161.698 106.311 161.455C106.061 161.213 105.761 161.089 105.414 161.089H105.039V160.88H111.366V161.089H110.969V161.088Z" fill="url(#paint6_linear)"/>
<path d="M132.015 179.314C130.498 180.079 128.96 180.204 127.401 179.689C125.745 179.16 124.319 178.033 123.122 176.307C122.483 175.388 121.933 174.324 121.473 173.112L120.806 171.339H115.875L114.768 173.969C114.698 174.151 114.663 174.296 114.663 174.408C114.663 174.52 114.687 174.642 114.737 174.774C114.785 174.906 114.889 175.024 115.049 175.129C115.209 175.234 115.388 175.285 115.582 175.285H115.75V175.495H111.281V175.285H111.469C111.789 175.285 112.105 175.191 112.419 175.004C112.733 174.816 112.993 174.533 113.202 174.158L117.858 163.53C117.316 162.306 116.737 161.463 116.125 161.005C115.61 160.615 115.119 160.42 114.652 160.42C114.185 160.42 113.752 160.49 113.347 160.63L113.305 160.42C114.307 159.906 115.268 159.648 116.187 159.648C117.329 159.648 118.351 160.093 119.257 160.985C120.146 161.861 120.933 163.128 121.615 164.784L124.642 172.258C125.784 175.083 126.953 177.024 128.149 178.083C128.636 178.515 129.138 178.814 129.653 178.98C130.168 179.147 130.603 179.23 130.958 179.23C131.313 179.23 131.658 179.187 131.991 179.105L132.015 179.314ZM116.231 170.44H120.49L119.029 166.578C118.959 166.383 118.862 166.115 118.737 165.775C118.612 165.435 118.527 165.194 118.487 165.054L116.231 170.44Z" fill="url(#paint7_linear)"/>
<path d="M11 140.382C11.6044 140.127 12.1287 140 12.5747 140C13.0207 140 13.412 140.042 13.7525 140.127C14.0911 140.213 14.4388 140.353 14.7937 140.55C15.1487 140.746 15.48 140.987 15.7877 141.274C16.3811 141.837 16.8854 142.472 17.2986 143.182L20.4789 149.148L25.0918 141.211H25.2356L26.8904 150.564C27.1452 152.006 27.5839 153.151 28.2102 153.999C28.8364 154.858 29.6938 155.288 30.786 155.288C30.8607 155.288 30.9299 155.288 30.9936 155.288V155.446C30.411 155.605 29.8376 155.685 29.2751 155.685C28.1301 155.685 27.0851 155.233 26.1422 154.332C25.2302 153.473 24.6094 152.217 24.2817 150.562L23.5026 145.933L20.5116 151.117C20.1075 151.785 19.9018 152.373 19.8909 152.883H19.7471L15.7859 145.376L15.0067 151.738C14.9758 151.982 15.0814 152.179 15.3253 152.326C15.42 152.39 15.5219 152.421 15.6275 152.421H15.8823V152.564H12.5583V152.406H12.8131C13.088 152.406 13.3356 152.324 13.5522 152.16C13.7688 151.997 13.9054 151.771 13.9582 151.485L15.0395 143.898C14.5625 143.049 14.0164 142.297 13.4011 141.638C12.7112 140.896 11.9903 140.524 11.2385 140.524C11.1638 140.524 11.0947 140.53 11.0309 140.541L11 140.382Z" fill="url(#paint8_linear)"/>
<path d="M39.6618 152.408H39.8056V152.566H34.7303V152.408H34.8741C35.1071 152.408 35.28 152.337 35.3911 152.193C35.5021 152.049 35.5586 151.915 35.5586 151.787C35.5586 151.66 35.5313 151.532 35.4785 151.405L34.6993 149.448H30.9766L30.1501 151.405C30.0973 151.543 30.07 151.673 30.07 151.794C30.07 151.916 30.1265 152.049 30.2375 152.191C30.3485 152.335 30.5269 152.406 30.7709 152.406H30.8983V152.565H27.4941V152.406H27.6379C27.8819 152.406 28.1258 152.331 28.3698 152.184C28.6137 152.035 28.8158 151.813 28.9741 151.516L32.6477 143.197C33.1465 142.146 33.4105 141.453 33.4432 141.112H33.5871L38.311 151.483C38.4694 151.791 38.6715 152.022 38.9154 152.175C39.1575 152.331 39.4069 152.408 39.6618 152.408ZM31.2478 148.782H34.4281L32.8862 144.87L31.2478 148.782Z" fill="url(#paint9_linear)"/>
<path d="M47.7263 152.408C48.0012 152.408 48.2142 152.339 48.3616 152.2C48.6056 151.957 48.733 151.696 48.7439 151.421V147.365H43.5903V151.405C43.5903 151.682 43.6905 151.917 43.8925 152.113C44.0946 152.31 44.3331 152.408 44.608 152.408H44.7991L44.8155 152.566H39.9805V152.408H40.188C40.4629 152.408 40.6995 152.31 40.8961 152.113C41.0927 151.917 41.1965 151.682 41.2056 151.405V142.578C41.1947 142.303 41.0909 142.068 40.8961 141.879C40.6995 141.688 40.4647 141.593 40.188 141.593H39.9805V141.435H44.8155L44.7991 141.593H44.608C44.3312 141.593 44.0928 141.688 43.8925 141.879C43.6905 142.07 43.5903 142.303 43.5903 142.578V146.681H48.7439V142.578C48.733 142.303 48.6292 142.068 48.4345 141.879C48.2378 141.688 48.003 141.593 47.7263 141.593H47.5188V141.435H52.3538V141.593H52.1463C51.8696 141.593 51.6311 141.691 51.4309 141.888C51.2288 142.084 51.1287 142.319 51.1287 142.596V151.409C51.1287 151.685 51.2288 151.92 51.4309 152.117C51.6329 152.313 51.8714 152.412 52.1463 152.412H52.3538V152.57H47.5188V152.412H47.7263V152.408Z" fill="url(#paint10_linear)"/>
<path d="M64.4588 152.408H64.6026V152.566H59.5291V152.408H59.6729C59.9059 152.408 60.0789 152.337 60.1899 152.193C60.301 152.049 60.3574 151.915 60.3574 151.787C60.3574 151.66 60.3301 151.532 60.2773 151.405L59.4982 149.448H55.7754L54.949 151.405C54.8962 151.543 54.8689 151.673 54.8689 151.794C54.8689 151.916 54.9253 152.049 55.0363 152.191C55.1474 152.335 55.3258 152.406 55.5697 152.406H55.6971V152.565H52.293V152.406H52.4368C52.6807 152.406 52.9247 152.331 53.1686 152.184C53.4125 152.035 53.6146 151.813 53.773 151.516L57.4466 143.197C57.9453 142.146 58.2093 141.453 58.2421 141.112H58.3859L63.1099 151.483C63.2682 151.791 63.4703 152.022 63.7142 152.175C63.9563 152.331 64.2057 152.408 64.4588 152.408ZM56.0448 148.782H59.2251L57.6814 144.87L56.0448 148.782Z" fill="url(#paint11_linear)"/>
<path d="M69.168 142.132H68.4835C68.4617 142.132 68.4471 142.132 68.4362 142.132V151.405C68.4471 151.798 68.6164 152.089 68.9459 152.28C69.1043 152.366 69.2736 152.408 69.4556 152.408H69.6631V152.566H64.8281V152.408H65.0356C65.4179 152.408 65.7092 152.244 65.9113 151.915C65.9968 151.767 66.0442 151.601 66.0551 151.421V142.594C66.0442 142.319 65.9404 142.083 65.7456 141.886C65.549 141.689 65.3142 141.591 65.0375 141.591H64.8299V141.433H70.2857C71.3142 141.433 72.1844 141.655 72.8944 142.101C73.2548 142.323 73.5406 142.634 73.7536 143.031C73.9648 143.428 74.0722 143.879 74.0722 144.384C74.0722 144.888 73.9848 145.352 73.81 145.776C73.6353 146.2 73.344 146.572 72.9344 146.89C72.5266 147.209 72.0351 147.4 71.4635 147.464C72.0788 147.666 72.6195 148.132 73.0855 148.864C74.2305 150.699 75.0789 151.791 75.6304 152.14C75.9053 152.31 76.2512 152.401 76.6644 152.412V152.57H75.1062C74.2051 152.57 73.4514 152.446 72.847 152.197C72.2427 151.947 71.7493 151.521 71.367 150.917C71.1759 150.609 70.932 150.145 70.6352 149.524C70.3385 148.904 70.1419 148.461 70.0472 148.195C69.7614 147.56 69.401 147.203 68.9659 147.131V146.972H69.4592C69.9362 146.972 70.3585 146.828 70.7244 146.543C71.0903 146.257 71.3361 145.789 71.4635 145.143C71.5054 144.921 71.5272 144.746 71.5272 144.618C71.5272 143.748 71.3525 143.12 71.003 142.734C70.6534 142.346 70.202 142.148 69.6504 142.137C69.5375 142.132 69.3791 142.132 69.168 142.132Z" fill="url(#paint12_linear)"/>
<path d="M86.6781 142.927C87.7704 143.925 88.3165 145.281 88.3165 146.999C88.3165 148.718 87.7704 150.074 86.6781 151.072C85.5859 152.069 84.1022 152.566 82.2254 152.566H76.451V152.408H76.6586C76.9335 152.408 77.1701 152.31 77.3667 152.113C77.5633 151.916 77.6671 151.682 77.6762 151.405V142.498C77.6452 142.243 77.5324 142.028 77.3412 141.853C77.1501 141.678 76.9225 141.591 76.6567 141.591H76.4492V141.433H82.2236C84.1022 141.433 85.5859 141.931 86.6781 142.927ZM82.0179 151.898C82.7806 151.898 83.4414 151.7 83.9985 151.301C84.5555 150.904 84.9815 150.336 85.2782 149.599C85.5749 148.862 85.7242 147.995 85.7242 146.998C85.7242 145.492 85.3929 144.3 84.7303 143.419C84.0676 142.539 83.1629 142.099 82.0179 142.099H80.0609V151.896H82.0179V151.898Z" fill="url(#paint13_linear)"/>
<path d="M89.5103 152.408C89.7851 152.408 90.0218 152.31 90.2184 152.113C90.415 151.917 90.5188 151.682 90.5279 151.405V142.578C90.517 142.303 90.4132 142.068 90.2184 141.879C90.0218 141.688 89.787 141.593 89.5103 141.593H89.3027V141.435H94.1377L94.1214 141.593H93.9302C93.6535 141.593 93.415 141.688 93.2148 141.879C93.0127 142.07 92.9126 142.303 92.9126 142.578V151.405C92.9126 151.682 93.0127 151.917 93.2148 152.113C93.4169 152.31 93.6553 152.408 93.9302 152.408H94.1214L94.1377 152.566H89.3027V152.408H89.5103Z" fill="url(#paint14_linear)"/>
<path d="M95.6488 152.408C95.9237 152.408 96.1603 152.31 96.3569 152.113C96.5535 151.916 96.6573 151.682 96.6664 151.405V142.578C96.6555 142.195 96.4807 141.91 96.1421 141.718C95.9929 141.633 95.829 141.591 95.6488 141.591H95.4413V141.433H100.276L100.26 141.591H100.069C99.6865 141.591 99.3952 141.755 99.1931 142.084C99.0985 142.234 99.0493 142.397 99.0493 142.578V151.405C99.0493 151.682 99.1494 151.916 99.3515 152.113C99.5536 152.31 99.7921 152.408 100.067 152.408H100.258L100.274 152.566H95.4395V152.408H95.6488ZM107.134 152.566H105.83C104.217 152.566 103.078 152.126 102.41 151.246C100.511 148.671 99.5627 147.36 99.5627 147.318L103.333 142.323C103.418 142.217 103.46 142.121 103.46 142.037C103.46 141.951 103.444 141.879 103.413 141.815C103.327 141.657 103.18 141.576 102.967 141.576H102.808V141.433H106.451V141.576H106.387C105.677 141.576 105.099 141.831 104.654 142.339L101.552 146.013L105.514 151.421C106.001 152.057 106.542 152.386 107.136 152.408V152.566H107.134Z" fill="url(#paint15_linear)"/>
<path d="M122.163 155.477C121.007 156.059 119.835 156.156 118.648 155.763C117.386 155.359 116.299 154.501 115.387 153.185C114.9 152.486 114.481 151.674 114.131 150.751L113.622 149.399H109.868L109.025 151.403C108.972 151.541 108.945 151.652 108.945 151.736C108.945 151.822 108.963 151.914 109.001 152.015C109.038 152.115 109.118 152.206 109.24 152.286C109.362 152.366 109.497 152.406 109.646 152.406H109.773V152.564H106.369V152.406H106.513C106.757 152.406 106.997 152.335 107.237 152.191C107.476 152.047 107.674 151.833 107.835 151.547L111.381 143.451C110.968 142.517 110.527 141.877 110.061 141.527C109.668 141.23 109.295 141.081 108.94 141.081C108.585 141.081 108.253 141.134 107.946 141.24L107.915 141.081C108.677 140.69 109.409 140.493 110.11 140.493C110.98 140.493 111.759 140.832 112.447 141.511C113.127 142.179 113.725 143.144 114.244 144.405L116.551 150.099C117.421 152.253 118.311 153.731 119.223 154.538C119.594 154.867 119.977 155.095 120.368 155.222C120.759 155.35 121.093 155.413 121.362 155.413C121.631 155.413 121.895 155.382 122.15 155.319L122.163 155.477ZM110.139 148.718H113.383L112.269 145.776C112.216 145.629 112.142 145.423 112.047 145.164C111.952 144.904 111.889 144.722 111.856 144.616L110.139 148.718Z" fill="url(#paint16_linear)"/>
<path d="M123.952 51.7777C123.952 62.765 120.323 73.1811 113.626 81.6745C115.131 80.4903 116.576 79.205 117.952 77.8292C121.728 74.0536 124.805 69.7642 127.111 65.1178C127.261 63.4076 127.334 61.6835 127.337 59.9507C127.337 52.1678 125.861 44.58 122.949 37.3979C120.089 30.343 115.956 23.9759 110.655 18.457C119.239 27.4851 123.952 39.2718 123.952 51.7777Z" fill="url(#paint17_linear)"/>
<path d="M45.6626 13.7108C54.1561 7.01467 64.5722 3.38532 75.556 3.38184C88.0654 3.38532 99.8503 8.0979 108.884 16.6854C109.183 16.971 109.479 17.2601 109.775 17.5561C110.071 17.8522 110.364 18.1517 110.653 18.4548C119.237 27.4846 123.95 39.2695 123.95 51.7754C123.95 62.7628 120.32 73.1788 113.624 81.6723C112.078 82.8913 110.468 84.0129 108.804 85.023C113.349 77.5361 115.778 68.9278 115.778 59.9467C115.778 47.0228 110.744 34.8669 101.604 25.7274C92.4662 16.5896 80.3121 11.5566 67.3847 11.5531C58.4037 11.5531 49.7988 13.9843 42.3154 18.5349C43.3255 16.87 44.4436 15.2573 45.6626 13.7108Z" fill="url(#paint18_linear)"/>
<path d="M24.9909 17.5566C26.3633 16.1843 27.7878 14.8851 29.2716 13.666C25.3985 18.3542 22.2863 23.5631 19.9945 29.2214C17.0792 36.4086 15.6023 43.9947 15.6058 51.7811C15.6058 59.564 17.0792 67.1553 19.991 74.3374C22.8576 81.3923 26.9902 87.7594 32.2914 93.2783C32.577 93.5778 32.8661 93.8739 33.1622 94.1699C33.4582 94.466 33.7578 94.7586 34.0608 95.0477C39.5797 100.351 45.9467 104.482 52.9982 107.345C60.182 110.256 67.7733 111.73 75.5545 111.73C83.3356 111.73 90.9287 110.256 98.1143 107.341C103.772 105.049 108.98 101.937 113.666 98.0605C112.447 99.5443 111.148 100.969 109.776 102.341C104.055 108.062 97.3846 112.496 89.943 115.512C82.7592 118.424 75.1644 119.901 67.3832 119.901C59.6003 119.901 52.0125 118.424 44.8304 115.512C37.3889 112.496 30.7153 108.064 24.9909 102.341C19.27 96.6203 14.8396 89.9467 11.8232 82.5052C8.9114 75.3214 7.43458 67.7353 7.43458 59.9524C7.43109 52.166 8.9114 44.5747 11.8232 37.3926C14.8396 29.9528 19.2717 23.2775 24.9909 17.5566Z" fill="url(#paint19_linear)"/>
<path d="M123.952 51.7777C123.952 62.765 120.323 73.1811 113.626 81.6745C115.131 80.4903 116.576 79.205 117.952 77.8292C121.728 74.0536 124.805 69.7642 127.111 65.1178C127.261 63.4076 127.334 61.6835 127.337 59.9507C127.337 52.1678 125.861 44.58 122.949 37.3979C120.089 30.343 115.956 23.9759 110.655 18.457C119.239 27.4851 123.952 39.2718 123.952 51.7777Z" fill="url(#paint20_linear)"/>
<path d="M106.34 103.247C103.72 104.816 100.976 106.183 98.1179 107.341C90.9306 110.256 83.341 111.73 75.5581 111.73C67.7752 111.73 60.1839 110.256 53.0018 107.344C45.9504 104.481 39.5834 100.349 34.0645 95.0475C43.0943 103.632 54.8757 108.348 67.3851 108.344C74.973 108.344 82.2926 106.613 88.893 103.334C94.8752 102.829 100.706 101.428 106.291 99.168C110.129 97.6145 113.764 95.6814 117.163 93.3809C116.084 94.997 114.917 96.5539 113.67 98.0586C111.35 99.9795 108.905 101.711 106.34 103.247Z" fill="url(#paint21_linear)"/>
<path d="M29.273 13.6654C30.7777 12.4184 32.3346 11.2516 33.9507 10.1719C31.6554 13.5748 29.7223 17.2094 28.1671 21.0477C25.8997 26.6398 24.5029 32.4739 23.9979 38.463C20.7203 45.0582 18.9875 52.3691 18.9875 59.95C18.9875 72.4629 23.7036 84.2443 32.2911 93.2776C26.9881 87.7587 22.8572 81.3917 19.9906 74.3368C17.0788 67.153 15.6055 59.5634 15.6055 51.7805C15.602 43.9941 17.0788 36.4063 19.9941 29.2207C22.2877 23.5625 25.3981 18.3536 29.273 13.6654Z" fill="url(#paint22_linear)"/>
<path d="M33.9513 10.172C37.3543 7.87668 40.9888 5.94358 44.8272 4.38839C50.4192 2.12092 56.2533 0.724217 62.239 0.222656C57.5856 2.52844 53.2892 5.60572 49.5101 9.38484C48.1343 10.7606 46.8491 12.2061 45.6648 13.7108C44.4458 15.2573 43.3277 16.8699 42.3176 18.5348C40.6527 19.5449 39.0401 20.663 37.4936 21.8821C35.9889 23.0663 34.5434 24.3515 33.1676 25.7273C29.3885 29.5065 26.3077 33.8063 24.002 38.4597C24.507 32.4705 25.9037 26.6364 28.1712 21.0444C29.7229 17.2078 31.656 13.575 33.9513 10.172Z" fill="url(#paint23_linear)"/>
<path d="M49.5103 9.3851C53.2895 5.60598 57.5858 2.5287 62.2392 0.222916C63.9424 0.073144 65.6595 0 67.3889 0C75.1718 0 82.7596 1.47682 89.9417 4.38865C97.0001 7.25173 103.367 11.3844 108.886 16.6856C99.8527 8.09811 88.0678 3.38553 75.5584 3.38205C64.5746 3.38553 54.1585 7.01488 45.665 13.7111C46.8475 12.2064 48.1345 10.7609 49.5103 9.3851Z" fill="url(#paint24_linear)"/>
<path d="M117.953 77.8276C121.729 74.052 124.806 69.7626 127.112 65.1162C126.607 71.0984 125.21 76.9255 122.95 82.5106C121.396 86.3489 119.463 89.9835 117.163 93.383C113.763 95.6818 110.129 97.6149 106.29 99.1701C100.705 101.431 94.8747 102.831 88.8926 103.336C93.539 101.03 97.8318 97.9493 101.607 94.1736C102.983 92.7978 104.269 91.3523 105.453 89.8477C106.672 88.3012 107.793 86.692 108.803 85.0271C110.468 84.017 112.078 82.8955 113.624 81.6764C115.13 80.4904 116.578 79.2052 117.953 77.8276Z" fill="url(#paint25_linear)"/>
<path d="M56.4635 107.038C62.4909 108.441 61.0524 106.16 61.1447 103.008C61.2039 100.988 67.5797 85.6882 68.9886 80.8015C70.3975 75.9147 69.9429 72.3969 68.5288 72.7312C67.1147 73.0656 66.8622 80.5002 64.6678 80.4567C62.4735 80.4131 55.0128 66.4165 52.5172 58.1372C50.302 50.788 48.1407 42.0107 44.8283 41.6101C41.5159 41.2078 44.8579 56.9251 50.4012 65.4133C55.0215 72.4874 61.4059 79.1801 61.8431 88.6105C62.4073 100.759 53.7763 107.271 53.9174 91.6111C53.9975 82.6667 50.079 79.0094 50.1922 89.8836C50.3054 100.758 52.357 101.23 52.714 103.065C53.0727 104.901 52.7732 106.177 56.4635 107.038Z" fill="url(#paint26_linear)"/>
<path d="M49.6902 90.9431L49.6328 94.562C49.6328 94.562 41.7715 85.7846 39.3386 85.1559C36.9057 84.5273 26.5732 82.932 21.1083 77.1188C15.6434 71.3056 22.2159 70.9886 28.0309 76.0495C33.8458 81.1104 45.0404 86.7616 37.5727 74.4316C30.105 62.1016 27.9298 55.8356 27.942 55.078C27.9542 54.3204 28.306 42.788 30.8103 49.3971C33.3147 56.0062 41.1898 79.9627 43.7447 83.4562C43.931 83.7105 45.3225 87.2144 45.8258 85.8456C46.2072 84.8059 47.9348 76.1 48.1455 77.0822C48.6244 79.3183 49.8174 81.6137 49.2496 82.8136C45.8101 90.0862 49.6902 90.9431 49.6902 90.9431Z" fill="url(#paint27_linear)"/>
<path d="M61.5074 102.42C61.5074 102.42 61.3733 107.461 61.739 107.461C62.4339 107.461 67.0994 97.6044 68.9402 96.9252C70.7793 96.246 78.6789 94.1945 82.4667 89.2503C86.2545 84.3061 81.124 84.5777 77.007 88.9646C72.89 93.3516 64.6404 98.6214 69.4697 88.4596C74.2989 78.2978 75.4954 73.2595 75.4257 72.6726C75.356 72.0857 72.2701 71.1209 70.8437 76.45C69.4174 81.7791 66.3105 90.6295 64.4872 94.7796C63.1253 97.8726 61.5074 102.42 61.5074 102.42Z" fill="url(#paint28_linear)"/>
<path d="M50.3703 97.2909C50.3703 97.2909 52.0822 103.562 52.8468 105.123C53.6096 106.681 45.4906 101.955 41.9657 99.2884C38.4408 96.6221 36.9048 90.7601 34.2838 87.385C33.1362 85.9082 30.7363 83.7383 30.7363 83.7383L34.7471 85.276C36.1873 86.2635 38.723 93.0885 39.0643 93.0032C41.4293 92.4163 36.0375 85.5408 36.0375 85.5408C36.4642 84.9748 38.77 85.2046 39.9647 87.6149C39.9647 87.6149 42.9253 92.3014 43.5906 93.7764C46.1959 99.5531 52.0283 104.196 47.6884 97.613C43.3502 91.0266 46.9726 89.7082 50.3703 97.2909Z" fill="url(#paint29_linear)"/>
<path d="M57.2771 94.337C54.7432 100.57 59.2694 103.651 61.1677 92.4719C62.7368 83.2278 52.6116 70.5704 49.4315 65.055C46.2515 59.5396 43.2195 51.7131 42.5595 44.8306C41.8994 37.9481 35.508 28.0997 36.9674 38.7805C38.9336 53.1708 49.2086 66.7234 48.7837 67.3782C48.3587 68.033 34.538 45.468 34.2889 46.7567C34.0399 48.0455 40.797 61.0442 43.1167 63.7001C45.4365 66.3559 54.4193 76.3488 55.9518 82.5173C58.2419 91.7282 57.2771 94.337 57.2771 94.337Z" fill="url(#paint30_linear)"/>
<path d="M29.1847 74.1716C24.3833 62.9179 24.0019 53.1706 24.5035 47.2581C25.005 41.3456 24.3955 33.6236 22.0723 27.7407C19.7491 21.8579 21.2782 10.9768 24.4982 20.3044C28.8346 32.8713 25.4091 48.512 26.0639 48.8516C26.7204 49.1912 29.4947 24.6339 30.261 25.5673C31.0272 26.5008 30.5936 40.123 29.5591 43.3048C28.044 47.9669 25.9716 52.0264 27.3056 57.7003C30.9175 73.0797 38.7196 72.5259 38.8589 80.4951C38.9181 83.8772 30.5518 77.3761 29.1847 74.1716Z" fill="url(#paint31_linear)"/>
<path d="M67.7501 70.9617C69.368 66.054 72.4644 59.9848 76.2714 55.8626C80.0784 51.7404 82.5827 42.5451 76.9088 49.2065C69.2635 58.1806 66.6216 71.7297 65.9946 71.8272C65.3694 71.9247 71.5466 51.3538 70.6341 51.9006C69.7198 52.4475 65.5088 63.5689 65.157 66.4076C64.8052 69.248 62.7432 77.4732 63.297 78.4119C65.7822 82.6317 66.1322 75.8693 67.7501 70.9617Z" fill="url(#paint32_linear)"/>
<path d="M17.7005 48.3984C16.6782 43.3341 16.3665 36.5264 17.6361 31.0598C18.9057 25.5931 16.532 16.363 14.8967 24.9592C12.6919 36.5403 17.098 49.6227 16.6016 50.0163C16.1053 50.4099 11.2987 29.4767 10.7745 30.4032C10.2503 31.3297 12.0928 43.078 13.1917 45.7217C14.2906 48.3636 21.3107 64.6312 21.2097 63.5462C20.5671 56.5819 18.7211 53.4628 17.7005 48.3984Z" fill="url(#paint33_linear)"/>
<path d="M55.044 81.7263C52.9873 76.4982 46.6098 68.2381 44.3423 66.0682C44.3423 66.0682 41.4375 62.4214 39.3163 59.2675C36.5769 55.1958 38.4211 61.5872 39.2327 62.3413C40.3403 63.374 44.0358 67.7366 42.1672 66.6133C37.7646 63.9679 35.7218 54.8196 34.191 54.8301C33.1879 54.8371 34.4 58.1007 34.9276 59.6576C36.7998 65.1922 42.2473 68.8041 43.8843 69.9849C45.6868 71.2841 45.8 72.6128 45.5719 72.9716C45.1539 73.6282 40.5214 69.9866 38.766 68.5725C38.5901 68.4314 38.3463 68.623 38.4386 68.8267L40.0286 72.2924C40.1783 72.6198 40.4361 72.8863 40.7583 73.0465C41.7631 73.548 44.4712 75.159 45.3315 75.1172C48.3095 74.9726 50.53 79.7966 52.8358 83.5653C55.4132 88.6924 53.2973 96.2419 55.6658 96.2419C57.4891 96.2454 56.8134 86.2211 55.044 81.7263Z" fill="url(#paint34_linear)"/>
<path d="M72.8856 62.6168C72.8856 62.6168 75.5032 58.7593 77.3788 55.4521C79.7995 51.1837 78.4481 57.697 77.6975 58.5103C76.6717 59.6231 73.321 64.2556 75.0974 62.9947C79.284 60.0219 80.6233 50.743 82.1506 50.6368C83.152 50.5672 82.1906 53.9126 81.7848 55.5079C80.3394 61.1678 75.1845 65.1873 73.6415 66.4882C71.9435 67.9215 71.9313 69.2538 72.1873 69.5951C72.654 70.2186 76.9939 66.2339 78.6379 64.6892C78.8016 64.536 79.0611 64.7084 78.9827 64.9191L77.6627 68.4962C77.5373 68.8341 77.3022 69.1179 76.9939 69.3043C76.0308 69.8807 73.7042 70.5878 72.5861 72.2405C68.4308 78.3829 71.3479 72.7002 69.0804 72.4024C65.8377 71.9793 70.1149 67.002 72.8856 62.6168Z" fill="url(#paint35_linear)"/>
<path d="M28.3779 73.2171C29.7363 77.6475 26.8105 74.0791 24.4978 72.9994C24.4978 72.9994 20.9503 69.6835 18.8657 67.6355C11.9379 60.8313 10.6474 60.3506 10.8285 58.1528C11.0079 55.955 20.2902 68.3129 21.0234 68.1144C21.7583 67.9141 10.273 52.1898 7.11208 47.0924C3.9512 41.9949 8.05598 43.7486 12.8173 50.6312C17.5787 57.5137 20.6333 65.3227 21.8054 65.0197C22.9774 64.7184 19.8148 56.575 20.0447 53.5395C20.2571 50.7182 22.9582 60.5248 23.4859 61.8483C25.062 65.8034 27.9895 71.991 28.3779 73.2171Z" fill="url(#paint36_linear)"/>
<path d="M69.4221 93.8839C72.7328 93.2117 78.7985 86.7768 81.9803 83.4766C84.7336 80.6204 89.077 70.9323 79.8016 80.873C75.9842 84.9638 84.1467 68.8355 82.9521 69.0271C81.7574 69.2169 75.9232 85.8032 74.5039 86.8725C73.708 87.4716 69.2271 89.7339 68.83 90.8241C67.7206 93.8561 69.2636 93.9153 69.4221 93.8839Z" fill="url(#paint37_linear)"/>
<path d="M63.2019 73.5832C64.1353 65.7986 65.3858 49.6494 65.5286 41.3945C65.6522 34.2508 61.9201 20.9577 61.746 45.1492C61.6746 55.1056 56.2375 30.9384 55.3894 33.629C54.5413 36.3179 62.2597 55.5653 61.8905 59.0937C61.6833 61.0703 59.677 71.765 60.1716 73.0625C61.5492 76.6709 62.7439 77.3937 63.2019 73.5832Z" fill="url(#paint38_linear)"/>
<path d="M51.3417 83.4016C49.8057 90.427 51.4532 97.2625 52.256 101.08C52.5695 102.571 52.0436 101.475 51.9112 101.217C50.6556 98.9343 49.8997 91.949 50.1836 87.3549C50.4414 83.1735 51.3417 83.4016 51.3417 83.4016Z" fill="url(#paint39_linear)"/>
<path d="M37.5057 34.0663C36.8004 45.1737 45.0553 60.8684 45.0553 60.8684C42.483 55.9486 38.798 49.0521 37.1766 40.0728C36.0254 33.704 37.5057 34.0663 37.5057 34.0663Z" fill="url(#paint40_linear)"/>
<path d="M44.8302 41.6107C45.2761 52.8714 52.6828 68.735 52.6828 68.735C49.2137 64.6685 45.2761 56.5948 43.8654 48.1641C42.5993 40.5971 44.8302 41.6107 44.8302 41.6107Z" fill="url(#paint41_linear)"/>
<path d="M33.9964 54.8301C35.4749 61.2424 37.4812 62.2681 39.3777 64.9693C40.4104 66.4391 40.6542 67.5101 40.6542 67.5101C39.1339 66.2092 37.7912 64.8439 36.1315 62.2664C35.4767 61.2494 35.0291 59.9449 34.5728 58.6144C33.3085 54.9311 33.9964 54.8301 33.9964 54.8301Z" fill="url(#paint42_linear)"/>
<path d="M37.0782 102.804C33.0274 100.481 27.0069 94.2391 25.497 92.1109C25.497 92.1109 22.8499 89.281 20.5128 87.1563C17.4947 84.4116 22.5277 86.7018 23.0502 87.4593C23.7642 88.4955 26.9059 92.0604 26.2093 90.3886C24.567 86.4492 17.2909 83.6628 17.4842 82.4071C17.6114 81.5834 20.147 82.9749 21.3644 83.5966C25.6886 85.8049 27.9996 90.7212 28.7728 92.2102C29.6227 93.849 30.7007 94.1033 31.0246 93.9587C31.615 93.6957 29.1821 89.4464 28.2312 87.8303C28.1372 87.67 28.3235 87.4907 28.4803 87.5934L31.1378 89.3193C31.3886 89.483 31.5767 89.725 31.669 90.0107C31.9598 90.8971 32.9577 93.3196 32.8202 94.0214C32.3412 96.4526 36.0385 98.8611 38.8598 101.212C42.7643 103.952 51.8969 104.986 51.3727 105.373C50.1536 106.273 40.5612 104.801 37.0782 102.804Z" fill="url(#paint43_linear)"/>
<path d="M17.5088 82.2467C22.6028 84.2373 23.2036 86.0119 25.1959 87.8979C26.2809 88.9237 27.1307 89.2546 27.1307 89.2546C26.246 87.8474 25.2847 86.5779 23.3656 84.9008C22.608 84.239 21.5892 83.713 20.5512 83.1767C17.6742 81.6929 17.5088 82.2467 17.5088 82.2467Z" fill="url(#paint44_linear)"/>
<path d="M11.4071 52.7365C8.7269 48.3165 8.32635 47.6687 6.64926 44.8265C5.61653 43.078 6.13899 45.3855 6.13899 45.3855C7.51654 47.9456 9.98428 51.6167 12.4816 55.0249C14.5889 57.8984 11.4071 52.7365 11.4071 52.7365Z" fill="url(#paint45_linear)"/>
<path d="M24.1602 62.4233C22.3142 57.655 21.8614 56.0615 20.6667 53.6895C19.7541 51.8748 19.89 54.1754 19.89 54.1754C20.7033 56.9653 22.3542 61.0718 24.0888 64.9241C25.5499 68.1721 24.1602 62.4233 24.1602 62.4233Z" fill="url(#paint46_linear)"/>
<path d="M28.294 50.3994C30.0599 56.5261 33.3636 64.7409 35.0721 67.5639C36.002 69.1 34.3389 67.7555 34.3389 67.7555C32.3814 65.9513 28.7712 58.4575 27.9475 55.1729C27.8238 54.6679 28.294 50.3994 28.294 50.3994Z" fill="url(#paint47_linear)"/>
<path d="M74.3696 72.2475C73.2063 78.2489 69.6849 84.8266 68.0217 88.341C67.1161 90.255 69.1241 88.7468 69.1241 88.7468C70.8744 85.6747 72.8719 81.0475 74.5194 76.2687C75.209 74.2712 75.6043 73.0347 75.3379 72.514C75.1672 72.1814 74.3696 72.2475 74.3696 72.2475Z" fill="url(#paint48_linear)"/>
<path d="M69.3042 73.0938C69.5829 77.66 68.2558 80.0494 66.9027 83.6962C66.166 85.6815 66.8313 86.6881 66.8313 86.6881C68.1931 83.2416 67.7821 84.6453 69.2816 79.7412C69.8998 77.721 69.9521 74.1056 69.6421 73.611C69.4418 73.2923 69.3042 73.0938 69.3042 73.0938Z" fill="url(#paint49_linear)"/>
<path d="M81.9842 54.2168C80.4917 58.541 80.7774 57.6824 78.1302 60.5316C76.69 62.0815 76.4375 64.861 79.4712 60.4428C80.6676 58.7012 82.195 55.401 82.0974 54.8246C82.0347 54.4536 81.9842 54.2168 81.9842 54.2168Z" fill="url(#paint50_linear)"/>
<path d="M29.4489 84.8563C29.4489 84.8563 33.8636 88.1548 34.6142 89.447C36.8382 93.2662 38.3359 96.124 39.1422 97.3483C39.9485 98.5726 40.3073 98.8826 40.3073 98.8826C40.3073 98.8826 37.0297 95.2846 35.8368 93.4055C34.3913 91.131 31.584 88.1339 29.5603 86.8347C27.5367 85.5355 27.2998 84.3408 27.2998 84.3408L29.4489 84.8563Z" fill="url(#paint51_linear)"/>
<path d="M82.4834 102.821C82.4834 102.821 79.157 115.992 71.2331 122.271C63.3091 128.549 58.6331 128.138 53.2797 127.88C50.6169 127.753 45.1868 127.098 45.7179 125.203C46.3188 123.054 49.8715 124.08 55.6133 118.49C58.9658 115.226 65.3903 107.419 70.4302 104.946C73.0582 103.657 75.6461 102.83 77.2675 102.67C80.545 102.346 82.4834 102.821 82.4834 102.821Z" fill="url(#paint52_linear)"/>
<path d="M74.5015 103.295C74.5015 103.295 70.2366 105.477 68.0126 108.892C65.7887 112.309 63.9566 118.35 59.6028 121.621C55.4527 124.738 45.7158 125.202 45.7158 125.202C45.7141 123.41 50.6287 123.223 54.561 119.462C56.7501 117.368 64.9754 107.847 69.7298 105.315" fill="url(#paint53_linear)"/>
<path d="M113.533 78.4067C113.711 77.017 114.03 76.2995 115.17 76.2838C115.191 76.2838 115.214 76.2855 115.235 76.2855C115.175 76.2768 115.118 76.2699 115.064 76.2646C114.009 76.3273 113.704 77.0483 113.533 78.4067Z" fill="url(#paint54_linear)"/>
<path d="M88.7667 54.1853C79.0211 39.546 66.2557 35.5161 64.4532 34.3545C64.3696 36.1309 69.2738 41.8883 71.6004 44.4083C78.1677 51.519 77.5565 53.6768 76.4924 56.9247C75.3082 60.5401 75.4074 60.6673 72.8212 63.8734C71.5221 65.4843 70.1463 69.1659 69.8171 72.3059C69.5315 75.0279 69.9442 77.1456 71.543 77.5949C74.0995 78.3124 76.4227 75.0227 78.6083 73.7339C80.1357 72.8318 82.4954 71.8932 84.3206 72.6089C85.8583 73.2115 87.1697 74.6988 87.464 77.9868C87.9273 83.1713 88.3209 89.4843 85.4229 99.3118C83.7459 105 81.0447 110.424 78.9549 114.15C83.2843 107.466 90.6963 95.4369 93.4514 87.4676C97.3455 76.1982 94.566 62.8982 88.7667 54.1853Z" fill="url(#paint55_linear)"/>
<path d="M76.0399 118.953C76.0277 118.971 76.0173 118.988 76.0068 119.002C76.0208 118.987 76.0382 118.969 76.0556 118.948C76.0486 118.95 76.0452 118.952 76.0399 118.953Z" fill="url(#paint56_linear)"/>
<path d="M112.109 87.0745C108.493 98.9621 100.251 105.942 96.8059 108.673C87.372 116.151 76.5363 118.828 75.9703 119.054C75.9528 119.08 75.9424 119.094 75.9424 119.092C75.9319 118.997 87.1091 116.381 96.8024 108.697C100.245 105.967 108.49 98.9865 112.105 87.0988C112.71 85.1135 113.009 83.3911 113.187 81.9404C113.009 83.3859 112.708 85.0996 112.109 87.0745Z" fill="url(#paint57_linear)"/>
<path d="M106.614 45.8386C106.773 46.0423 106.924 46.2443 107.076 46.4481C106.994 46.1677 106.928 45.9848 106.894 45.8978C106.886 45.8856 106.877 45.8734 106.868 45.8629C103.575 41.6223 98.7075 37.3434 92.9187 35.9589C90.8236 35.4573 89.1448 35.203 87.7969 35.0898C89.1013 35.2135 90.6983 35.466 92.6645 35.9362C98.4516 37.3173 103.321 41.5979 106.614 45.8386Z" fill="url(#paint58_linear)"/>
<path d="M124.291 76.2471C124.04 77.9921 123.283 78.6678 122.093 78.6173C122.006 78.6225 121.917 78.6225 121.825 78.619C121.902 78.6295 121.975 78.6382 122.046 78.6417C123.267 78.7113 124.04 78.0339 124.291 76.2471Z" fill="url(#paint59_linear)"/>
<path d="M82.2849 35.182C82.3702 35.2151 82.4764 35.2273 82.6053 35.2256C82.5827 35.2203 82.56 35.2134 82.5391 35.2047C78.4343 33.6112 74.8764 32.5453 73.1871 32.2597C72.9346 32.2179 72.5671 32.1709 72.123 32.1309C72.4539 32.1639 72.7326 32.2005 72.9346 32.2353C74.6239 32.5227 78.1818 33.5885 82.2849 35.182Z" fill="url(#paint60_linear)"/>
<path d="M87.797 35.0878C84.7406 34.7987 83.3108 35.2184 82.6055 35.2254C83.1854 35.3699 84.5037 34.8092 87.797 35.0878Z" fill="url(#paint61_linear)"/>
<path d="M115.233 76.2861C116.844 76.5334 120.125 78.5223 121.792 78.618C121.802 78.618 121.813 78.618 121.825 78.618C120.002 78.3673 116.665 76.3279 115.233 76.2861Z" fill="url(#paint62_linear)"/>
<path d="M72.1236 32.1327C69.8857 31.9081 65.1679 31.8593 64.2414 34.1041C64.2153 34.1686 64.2902 34.2504 64.4539 34.3549C64.4574 34.2713 64.4696 34.1929 64.4957 34.1268C65.3874 31.9655 69.8004 31.9307 72.1236 32.1327Z" fill="url(#paint63_linear)"/>
<path d="M75.6885 119.07C75.6868 119.06 75.8104 119.021 76.0403 118.953C76.3712 118.464 77.5188 116.707 78.9539 114.148C77.0121 117.147 75.6885 119.072 75.6885 119.07Z" fill="url(#paint64_linear)"/>
<path d="M102.595 78.2674C109.866 59.0514 107.806 48.9296 107.076 46.4479C106.925 46.2442 106.771 46.0404 106.615 45.8384C103.321 41.5978 98.4538 37.3188 92.6649 35.9343C90.6987 35.4641 89.1017 35.2116 87.7973 35.0879C84.5024 34.8093 83.1858 35.3701 82.6058 35.2255C82.477 35.2273 82.3707 35.2151 82.2854 35.182C78.1806 33.5885 74.6227 32.5227 72.9334 32.2371C72.7314 32.2022 72.4545 32.1656 72.1218 32.1326C69.8004 31.9305 65.3856 31.9654 64.4939 34.1284C64.4678 34.1945 64.4556 34.2712 64.4521 34.3565C66.2564 35.5181 79.0218 39.548 88.7656 54.1873C94.5649 62.8984 97.3444 76.2002 93.4486 87.4662C90.6935 95.4354 83.2816 107.464 78.9521 114.148C77.5154 116.708 76.3677 118.464 76.0385 118.953C76.0438 118.951 76.049 118.95 76.0542 118.948C77.5989 117.243 95.4287 97.2065 102.595 78.2674ZM93.9223 45.1261C92.3601 44.9781 90.8015 42.7959 90.5611 42.324C90.8241 42.209 92.9436 43.0328 93.5392 43.4159C95.5454 44.6472 94.7025 45.1993 93.9223 45.1261Z" fill="url(#paint65_linear)"/>
<path d="M107.076 46.4481C106.924 46.2444 106.771 46.0406 106.614 45.8386C103.321 41.5997 98.4534 37.319 92.6663 35.9345C90.6984 35.4643 89.1032 35.2118 87.7988 35.0899C84.5055 34.8112 83.1872 35.372 82.6073 35.2275C82.4784 35.2292 82.3721 35.217 82.2885 35.1839C78.1838 33.5922 74.6258 32.5246 72.9365 32.239C72.7328 32.2042 72.4559 32.1676 72.125 32.1345C69.8035 31.9325 65.3905 31.9673 64.4988 34.1303C64.471 34.1947 64.4605 34.2731 64.457 34.3567C66.2613 35.5183 79.0267 39.5482 88.7705 54.1875C94.5716 62.8986 97.3493 76.1987 93.4535 87.4646C90.6984 95.4339 83.2864 107.463 78.9587 114.147C77.522 116.707 76.3743 118.462 76.0434 118.951C76.0487 118.95 76.0539 118.948 76.0608 118.946C77.6038 117.241 95.4336 97.205 102.6 78.2659C109.867 59.0516 107.805 48.9298 107.076 46.4481ZM93.9202 45.1263C92.3581 44.98 90.7994 42.7962 90.5591 42.3242C90.822 42.2093 92.9415 43.0313 93.5371 43.4161C95.5433 44.6491 94.7022 45.1995 93.9202 45.1263Z" fill="url(#paint66_linear)"/>
<path d="M93.9207 45.1265C92.3586 44.9802 90.7999 42.7963 90.5596 42.3244C90.8225 42.2095 92.942 43.0315 93.5376 43.4163C95.5438 44.6493 94.7027 45.1997 93.9207 45.1265Z" fill="white"/>
<path d="M122.05 78.6179C120.264 78.5152 116.625 76.2407 115.172 76.2599C115.134 76.2599 115.099 76.2651 115.062 76.2668C115.116 76.2703 115.174 76.279 115.233 76.2877C116.665 76.3295 120.001 78.3671 121.825 78.6197C121.917 78.6231 122.006 78.6231 122.093 78.6179C122.079 78.6179 122.065 78.6179 122.05 78.6179Z" fill="url(#paint67_linear)"/>
<path d="M122.05 78.6179C120.264 78.5152 116.625 76.2407 115.172 76.2599C115.134 76.2599 115.099 76.2651 115.062 76.2668C115.116 76.2703 115.174 76.279 115.233 76.2877C116.665 76.3295 120.001 78.3671 121.825 78.6197C121.917 78.6231 122.006 78.6231 122.093 78.6179C122.079 78.6179 122.065 78.6179 122.05 78.6179Z" fill="url(#paint68_linear)"/>
<path d="M112.859 56.6814C114.019 57.9249 116.886 61.3278 117.154 61.6674C118.305 63.1216 121.078 66.5524 122.873 70.1156C123.274 70.9097 124.533 73.8215 124.333 75.8992C124.32 76.0194 124.307 76.136 124.291 76.2475C124.308 76.1273 124.322 76.0037 124.336 75.8731C124.535 73.7937 123.277 70.8836 122.877 70.0894C121.081 66.5263 118.309 63.0937 117.158 61.6413C116.889 61.3017 114.023 57.8987 112.863 56.6553C111.929 53.996 110.014 49.8807 106.872 45.8369C106.872 45.8369 106.881 45.8578 106.896 45.8979C110.019 49.9295 111.928 54.0291 112.859 56.6814Z" fill="url(#paint69_linear)"/>
<path d="M75.9463 119.068C75.9463 119.066 75.955 119.061 75.9707 119.054C75.9794 119.04 75.9916 119.023 76.0055 119.002C75.9672 119.045 75.9463 119.068 75.9463 119.068Z" fill="url(#paint70_linear)"/>
<path d="M113.533 78.4072C113.418 79.3059 113.364 80.4866 113.187 81.9408C113.364 80.4884 113.42 79.3076 113.533 78.4072Z" fill="url(#paint71_linear)"/>
<path d="M112.605 56.6574C113.765 57.9008 116.631 61.3038 116.9 61.6434C118.051 63.0976 120.823 66.5284 122.619 70.0915C123.019 70.8857 124.278 73.7975 124.078 75.8752C123.897 77.7578 123.213 78.5589 122.093 78.6163C123.282 78.6668 124.04 77.9929 124.291 76.2461C124.306 76.1347 124.32 76.018 124.332 75.8978C124.531 73.8184 123.274 70.9083 122.873 70.1142C121.078 66.551 118.305 63.1185 117.154 61.666C116.886 61.3264 114.019 57.9235 112.859 56.68C111.928 54.0294 110.021 49.9299 106.895 45.8965C106.928 45.9836 106.992 46.1664 107.076 46.4468C109.942 50.2921 111.717 54.1322 112.605 56.6574Z" fill="url(#paint72_linear)"/>
<path d="M112.605 56.6574C113.765 57.9008 116.631 61.3038 116.9 61.6434C118.051 63.0976 120.823 66.5284 122.619 70.0915C123.019 70.8857 124.278 73.7975 124.078 75.8752C123.897 77.7578 123.213 78.5589 122.093 78.6163C123.282 78.6668 124.04 77.9929 124.291 76.2461C124.306 76.1347 124.32 76.018 124.332 75.8978C124.531 73.8184 123.274 70.9083 122.873 70.1142C121.078 66.551 118.305 63.1185 117.154 61.666C116.886 61.3264 114.019 57.9235 112.859 56.68C111.928 54.0294 110.021 49.9299 106.895 45.8965C106.928 45.9836 106.992 46.1664 107.076 46.4468C109.942 50.2921 111.717 54.1322 112.605 56.6574Z" fill="url(#paint73_linear)"/>
<path d="M115.063 76.2669C115.013 76.2635 114.962 76.2617 114.917 76.2617C112.304 76.2965 113.999 80.0217 111.852 87.0766C108.236 98.9643 99.9936 105.944 96.5488 108.675C87.8934 115.537 78.0555 118.356 76.0563 118.95C76.0388 118.971 76.0214 118.988 76.0075 119.004C75.9936 119.025 75.9814 119.042 75.9727 119.056C76.5387 118.83 87.3744 116.153 96.8083 108.675C100.251 105.944 108.496 98.9643 112.111 87.0766C112.712 85.1017 113.011 83.3881 113.189 81.9443C113.367 80.4902 113.421 79.3094 113.536 78.4108C113.705 77.0489 114.009 76.3279 115.063 76.2669Z" fill="url(#paint74_linear)"/>
<path d="M115.063 76.2669C115.013 76.2635 114.962 76.2617 114.917 76.2617C112.304 76.2965 113.999 80.0217 111.852 87.0766C108.236 98.9643 99.9936 105.944 96.5488 108.675C87.8934 115.537 78.0555 118.356 76.0563 118.95C76.0388 118.971 76.0214 118.988 76.0075 119.004C75.9936 119.025 75.9814 119.042 75.9727 119.056C76.5387 118.83 87.3744 116.153 96.8083 108.675C100.251 105.944 108.496 98.9643 112.111 87.0766C112.712 85.1017 113.011 83.3881 113.189 81.9443C113.367 80.4902 113.421 79.3094 113.536 78.4108C113.705 77.0489 114.009 76.3279 115.063 76.2669Z" fill="url(#paint75_linear)"/>
<path d="M124.078 75.8768C124.277 73.7974 123.019 70.8873 122.619 70.0932C120.823 66.53 118.051 63.0975 116.9 61.645C116.632 61.3054 113.765 57.9025 112.605 56.659C111.719 54.1338 109.942 50.2937 107.076 46.4502C107.805 48.9319 109.866 59.0536 102.595 78.2697C95.4284 97.2088 77.5987 117.245 76.0557 118.95C78.0549 118.356 87.8928 115.537 96.5482 108.675C99.9912 105.944 108.236 98.9643 111.851 87.0766C113.997 80.0216 112.304 76.2965 114.916 76.2617C114.963 76.2617 115.012 76.2634 115.062 76.2669C115.099 76.2652 115.134 76.2599 115.172 76.2599C116.625 76.2408 120.263 78.5152 122.049 78.618C122.065 78.618 122.079 78.618 122.093 78.618C123.211 78.5588 123.897 77.7594 124.078 75.8768Z" fill="url(#paint76_linear)"/>
<path d="M124.078 75.8768C124.277 73.7974 123.019 70.8873 122.619 70.0932C120.823 66.53 118.051 63.0975 116.9 61.645C116.632 61.3054 113.765 57.9025 112.605 56.659C111.719 54.1338 109.942 50.2937 107.076 46.4502C107.805 48.9319 109.866 59.0536 102.595 78.2697C95.4284 97.2088 77.5987 117.245 76.0557 118.95C78.0549 118.356 87.8928 115.537 96.5482 108.675C99.9912 105.944 108.236 98.9643 111.851 87.0766C113.997 80.0216 112.304 76.2965 114.916 76.2617C114.963 76.2617 115.012 76.2634 115.062 76.2669C115.099 76.2652 115.134 76.2599 115.172 76.2599C116.625 76.2408 120.263 78.5152 122.049 78.618C122.065 78.618 122.079 78.618 122.093 78.618C123.211 78.5588 123.897 77.7594 124.078 75.8768Z" fill="url(#paint77_linear)"/>
<path d="M124.078 75.8768C124.277 73.7974 123.019 70.8873 122.619 70.0932C120.823 66.53 118.051 63.0975 116.9 61.645C116.632 61.3054 113.765 57.9025 112.605 56.659C111.719 54.1338 109.942 50.2937 107.076 46.4502C107.805 48.9319 109.866 59.0536 102.595 78.2697C95.4284 97.2088 77.5987 117.245 76.0557 118.95C78.0549 118.356 87.8928 115.537 96.5482 108.675C99.9912 105.944 108.236 98.9643 111.851 87.0766C113.997 80.0216 112.304 76.2965 114.916 76.2617C114.963 76.2617 115.012 76.2634 115.062 76.2669C115.099 76.2652 115.134 76.2599 115.172 76.2599C116.625 76.2408 120.263 78.5152 122.049 78.618C122.065 78.618 122.079 78.618 122.093 78.618C123.211 78.5588 123.897 77.7594 124.078 75.8768Z" fill="url(#paint78_linear)"/>
<defs>
<linearGradient id="paint0_linear" x1="13.7929" y1="157.997" x2="13.7929" y2="179.022" gradientUnits="userSpaceOnUse">
<stop offset="0.1173" stop-color="#009ACF"/>
<stop offset="0.443" stop-color="#008AB6"/>
<stop offset="0.7684" stop-color="#007EA4"/>
<stop offset="1" stop-color="#007A9D"/>
</linearGradient>
<linearGradient id="paint1_linear" x1="30.0258" y1="160.461" x2="30.0258" y2="175.493" gradientUnits="userSpaceOnUse">
<stop offset="0.1173" stop-color="#009ACF"/>
<stop offset="0.443" stop-color="#008AB6"/>
<stop offset="0.7684" stop-color="#007EA4"/>
<stop offset="1" stop-color="#007A9D"/>
</linearGradient>
<linearGradient id="paint2_linear" x1="45.5584" y1="160.545" x2="45.5584" y2="175.869" gradientUnits="userSpaceOnUse">
<stop offset="0.1173" stop-color="#009ACF"/>
<stop offset="0.443" stop-color="#008AB6"/>
<stop offset="0.7684" stop-color="#007EA4"/>
<stop offset="1" stop-color="#007A9D"/>
</linearGradient>
<linearGradient id="paint3_linear" x1="61.3641" y1="160.461" x2="61.3641" y2="175.493" gradientUnits="userSpaceOnUse">
<stop offset="0.1173" stop-color="#009ACF"/>
<stop offset="0.443" stop-color="#008AB6"/>
<stop offset="0.7684" stop-color="#007EA4"/>
<stop offset="1" stop-color="#007A9D"/>
</linearGradient>
<linearGradient id="paint4_linear" x1="74.8713" y1="160.586" x2="74.8713" y2="175.786" gradientUnits="userSpaceOnUse">
<stop offset="0.1173" stop-color="#009ACF"/>
<stop offset="0.443" stop-color="#008AB6"/>
<stop offset="0.7684" stop-color="#007EA4"/>
<stop offset="1" stop-color="#007A9D"/>
</linearGradient>
<linearGradient id="paint5_linear" x1="87.5029" y1="160.503" x2="87.5029" y2="175.494" gradientUnits="userSpaceOnUse">
<stop offset="0.1173" stop-color="#009ACF"/>
<stop offset="0.443" stop-color="#008AB6"/>
<stop offset="0.7684" stop-color="#007EA4"/>
<stop offset="1" stop-color="#007A9D"/>
</linearGradient>
<linearGradient id="paint6_linear" x1="102.952" y1="160.565" x2="102.952" y2="175.785" gradientUnits="userSpaceOnUse">
<stop offset="0.1173" stop-color="#009ACF"/>
<stop offset="0.443" stop-color="#008AB6"/>
<stop offset="0.7684" stop-color="#007EA4"/>
<stop offset="1" stop-color="#007A9D"/>
</linearGradient>
<linearGradient id="paint7_linear" x1="121.648" y1="159.646" x2="121.648" y2="180" gradientUnits="userSpaceOnUse">
<stop offset="0.1173" stop-color="#009ACF"/>
<stop offset="0.443" stop-color="#008AB6"/>
<stop offset="0.7684" stop-color="#007EA4"/>
<stop offset="1" stop-color="#007A9D"/>
</linearGradient>
<linearGradient id="paint8_linear" x1="20.997" y1="140.001" x2="20.997" y2="155.684" gradientUnits="userSpaceOnUse">
<stop offset="0.1173" stop-color="#009ACF"/>
<stop offset="0.443" stop-color="#008AB6"/>
<stop offset="0.7684" stop-color="#007EA4"/>
<stop offset="1" stop-color="#007A9D"/>
</linearGradient>
<linearGradient id="paint9_linear" x1="33.6493" y1="141.115" x2="33.6493" y2="152.567" gradientUnits="userSpaceOnUse">
<stop offset="0.1173" stop-color="#009ACF"/>
<stop offset="0.443" stop-color="#008AB6"/>
<stop offset="0.7684" stop-color="#007EA4"/>
<stop offset="1" stop-color="#007A9D"/>
</linearGradient>
<linearGradient id="paint10_linear" x1="46.167" y1="141.433" x2="46.167" y2="152.567" gradientUnits="userSpaceOnUse">
<stop offset="0.1173" stop-color="#009ACF"/>
<stop offset="0.443" stop-color="#008AB6"/>
<stop offset="0.7684" stop-color="#007EA4"/>
<stop offset="1" stop-color="#007A9D"/>
</linearGradient>
<linearGradient id="paint11_linear" x1="58.4472" y1="141.115" x2="58.4472" y2="152.567" gradientUnits="userSpaceOnUse">
<stop offset="0.1173" stop-color="#009ACF"/>
<stop offset="0.443" stop-color="#008AB6"/>
<stop offset="0.7684" stop-color="#007EA4"/>
<stop offset="1" stop-color="#007A9D"/>
</linearGradient>
<linearGradient id="paint12_linear" x1="70.7419" y1="141.433" x2="70.7419" y2="152.567" gradientUnits="userSpaceOnUse">
<stop offset="0.1173" stop-color="#009ACF"/>
<stop offset="0.443" stop-color="#008AB6"/>
<stop offset="0.7684" stop-color="#007EA4"/>
<stop offset="1" stop-color="#007A9D"/>
</linearGradient>
<linearGradient id="paint13_linear" x1="82.3844" y1="141.433" x2="82.3844" y2="152.567" gradientUnits="userSpaceOnUse">
<stop offset="0.1173" stop-color="#009ACF"/>
<stop offset="0.443" stop-color="#008AB6"/>
<stop offset="0.7684" stop-color="#007EA4"/>
<stop offset="1" stop-color="#007A9D"/>
</linearGradient>
<linearGradient id="paint14_linear" x1="91.7205" y1="141.433" x2="91.7205" y2="152.567" gradientUnits="userSpaceOnUse">
<stop offset="0.1173" stop-color="#009ACF"/>
<stop offset="0.443" stop-color="#008AB6"/>
<stop offset="0.7684" stop-color="#007EA4"/>
<stop offset="1" stop-color="#007A9D"/>
</linearGradient>
<linearGradient id="paint15_linear" x1="101.288" y1="141.433" x2="101.288" y2="152.567" gradientUnits="userSpaceOnUse">
<stop offset="0.1173" stop-color="#009ACF"/>
<stop offset="0.443" stop-color="#008AB6"/>
<stop offset="0.7684" stop-color="#007EA4"/>
<stop offset="1" stop-color="#007A9D"/>
</linearGradient>
<linearGradient id="paint16_linear" x1="114.267" y1="140.494" x2="114.267" y2="156" gradientUnits="userSpaceOnUse">
<stop offset="0.1173" stop-color="#009ACF"/>
<stop offset="0.443" stop-color="#008AB6"/>
<stop offset="0.7684" stop-color="#007EA4"/>
<stop offset="1" stop-color="#007A9D"/>
</linearGradient>
<linearGradient id="paint17_linear" x1="128.938" y1="66.849" x2="95.6027" y2="33.5141" gradientUnits="userSpaceOnUse">
<stop offset="0.1173" stop-color="#D24D56"/>
<stop offset="0.212" stop-color="#C84950"/>
<stop offset="0.5312" stop-color="#AA3C3D"/>
<stop offset="0.8051" stop-color="#983531"/>
<stop offset="1" stop-color="#91322D"/>
</linearGradient>
<linearGradient id="paint18_linear" x1="126.659" y1="68.6461" x2="58.6965" y2="0.683789" gradientUnits="userSpaceOnUse">
<stop offset="0.1173" stop-color="#009ACF"/>
<stop offset="0.443" stop-color="#008AB6"/>
<stop offset="0.7684" stop-color="#007EA4"/>
<stop offset="1" stop-color="#007A9D"/>
</linearGradient>
<linearGradient id="paint19_linear" x1="90.633" y1="121.492" x2="-18.7672" y2="12.0913" gradientUnits="userSpaceOnUse">
<stop offset="0.1173" stop-color="#009ACF"/>
<stop offset="0.443" stop-color="#008AB6"/>
<stop offset="0.7684" stop-color="#007EA4"/>
<stop offset="1" stop-color="#007A9D"/>
</linearGradient>
<linearGradient id="paint20_linear" x1="140.554" y1="78.4657" x2="85.5676" y2="23.479" gradientUnits="userSpaceOnUse">
<stop offset="0.1173" stop-color="#009ACF"/>
<stop offset="0.443" stop-color="#008AB6"/>
<stop offset="0.7684" stop-color="#007EA4"/>
<stop offset="1" stop-color="#007A9D"/>
</linearGradient>
<linearGradient id="paint21_linear" x1="96.5728" y1="115.162" x2="55.2638" y2="73.8526" gradientUnits="userSpaceOnUse">
<stop offset="0.1173" stop-color="#009ACF"/>
<stop offset="0.443" stop-color="#008AB6"/>
<stop offset="0.7684" stop-color="#007EA4"/>
<stop offset="1" stop-color="#007A9D"/>
</linearGradient>
<linearGradient id="paint22_linear" x1="53.4936" y1="72.0824" x2="3.0446" y2="21.6335" gradientUnits="userSpaceOnUse">
<stop offset="0.1173" stop-color="#6BBAE2"/>
<stop offset="0.1759" stop-color="#60B4DB"/>
<stop offset="0.4308" stop-color="#379BC0"/>
<stop offset="0.662" stop-color="#1989AD"/>
<stop offset="0.8595" stop-color="#077EA1"/>
<stop offset="1" stop-color="#007A9D"/>
</linearGradient>
<linearGradient id="paint23_linear" x1="60.6564" y1="36.8664" x2="22.466" y2="-1.32401" gradientUnits="userSpaceOnUse">
<stop offset="0.1173" stop-color="#009ACF"/>
<stop offset="1" stop-color="#007A9D"/>
</linearGradient>
<linearGradient id="paint24_linear" x1="93.8331" y1="31.7441" x2="60.4947" y2="-1.5943" gradientUnits="userSpaceOnUse">
<stop offset="0.1173" stop-color="#6BBAE2"/>
<stop offset="0.1759" stop-color="#60B4DB"/>
<stop offset="0.4308" stop-color="#379BC0"/>
<stop offset="0.662" stop-color="#1989AD"/>
<stop offset="0.8595" stop-color="#077EA1"/>
<stop offset="1" stop-color="#007A9D"/>
</linearGradient>
<linearGradient id="paint25_linear" x1="117.169" y1="93.3805" x2="97.2401" y2="73.4512" gradientUnits="userSpaceOnUse">
<stop offset="0.1173" stop-color="#009ACF"/>
<stop offset="0.443" stop-color="#008AB6"/>
<stop offset="0.7684" stop-color="#007EA4"/>
<stop offset="1" stop-color="#007A9D"/>
</linearGradient>
<linearGradient id="paint26_linear" x1="57.0181" y1="80.5368" x2="57.6802" y2="121.191" gradientUnits="userSpaceOnUse">
<stop stop-color="white"/>
<stop offset="0.182" stop-color="#FBFBFB"/>
<stop offset="0.3607" stop-color="#EFF0F1"/>
<stop offset="0.5381" stop-color="#DCDDDF"/>
<stop offset="0.7147" stop-color="#C0C3C6"/>
<stop offset="0.8891" stop-color="#9DA1A7"/>
<stop offset="1" stop-color="#82888F"/>
</linearGradient>
<linearGradient id="paint27_linear" x1="33.1037" y1="73.0569" x2="40.3496" y2="103.096" gradientUnits="userSpaceOnUse">
<stop stop-color="white"/>
<stop offset="0.1419" stop-color="#F8F8F8"/>
<stop offset="0.355" stop-color="#E3E4E6"/>
<stop offset="0.6129" stop-color="#C1C4C8"/>
<stop offset="0.9034" stop-color="#93989E"/>
<stop offset="1" stop-color="#82888F"/>
</linearGradient>
<linearGradient id="paint28_linear" x1="71.7215" y1="85.6079" x2="74.3461" y2="115.833" gradientUnits="userSpaceOnUse">
<stop stop-color="white"/>
<stop offset="0.1583" stop-color="#FAFAFB"/>
<stop offset="0.3436" stop-color="#ECEDEE"/>
<stop offset="0.5425" stop-color="#D4D6D9"/>
<stop offset="0.7509" stop-color="#B3B7BB"/>
<stop offset="0.9649" stop-color="#8A8F96"/>
<stop offset="1" stop-color="#82888F"/>
</linearGradient>
<linearGradient id="paint29_linear" x1="39.5124" y1="89.7362" x2="53.5002" y2="107.044" gradientUnits="userSpaceOnUse">
<stop stop-color="white"/>
<stop offset="0.1979" stop-color="#FCFCFC"/>
<stop offset="0.3681" stop-color="#F1F2F2"/>
<stop offset="0.5281" stop-color="#DFE1E3"/>
<stop offset="0.6818" stop-color="#C6C9CC"/>
<stop offset="0.8296" stop-color="#A7ABB0"/>
<stop offset="0.9658" stop-color="#82888F"/>
</linearGradient>
<linearGradient id="paint30_linear" x1="43.2351" y1="50.5962" x2="60.9441" y2="116.632" gradientUnits="userSpaceOnUse">
<stop stop-color="white"/>
<stop offset="0.1606" stop-color="#F2F2F3"/>
<stop offset="0.4594" stop-color="#CFD1D4"/>
<stop offset="0.8606" stop-color="#979CA2"/>
<stop offset="1" stop-color="#82888F"/>
</linearGradient>
<linearGradient id="paint31_linear" x1="25.7844" y1="33.2185" x2="40.799" y2="97.6949" gradientUnits="userSpaceOnUse">
<stop stop-color="white"/>
<stop offset="0.1606" stop-color="#F2F2F3"/>
<stop offset="0.4594" stop-color="#CFD1D4"/>
<stop offset="0.8606" stop-color="#979CA2"/>
<stop offset="1" stop-color="#82888F"/>
</linearGradient>
<linearGradient id="paint32_linear" x1="75.1292" y1="54.6079" x2="55.5977" y2="84.4638" gradientUnits="userSpaceOnUse">
<stop stop-color="white"/>
<stop offset="0.1606" stop-color="#F2F2F3"/>
<stop offset="0.4594" stop-color="#CFD1D4"/>
<stop offset="0.8606" stop-color="#979CA2"/>
<stop offset="1" stop-color="#82888F"/>
</linearGradient>
<linearGradient id="paint33_linear" x1="16.8865" y1="32.0859" x2="14.3237" y2="73.4567" gradientUnits="userSpaceOnUse">
<stop stop-color="white"/>
<stop offset="0.1606" stop-color="#F2F2F3"/>
<stop offset="0.4594" stop-color="#CFD1D4"/>
<stop offset="0.8606" stop-color="#979CA2"/>
<stop offset="1" stop-color="#82888F"/>
</linearGradient>
<linearGradient id="paint34_linear" x1="42.8624" y1="63.954" x2="53.2895" y2="97.0446" gradientUnits="userSpaceOnUse">
<stop stop-color="white"/>
<stop offset="0.1419" stop-color="#F8F8F8"/>
<stop offset="0.355" stop-color="#E3E4E6"/>
<stop offset="0.6129" stop-color="#C1C4C8"/>
<stop offset="0.9034" stop-color="#93989E"/>
<stop offset="1" stop-color="#82888F"/>
</linearGradient>
<linearGradient id="paint35_linear" x1="76.5335" y1="56.0121" x2="71.9958" y2="75.4953" gradientUnits="userSpaceOnUse">
<stop stop-color="white"/>
<stop offset="0.1419" stop-color="#F8F8F8"/>
<stop offset="0.355" stop-color="#E3E4E6"/>
<stop offset="0.6129" stop-color="#C1C4C8"/>
<stop offset="0.9034" stop-color="#93989E"/>
<stop offset="1" stop-color="#82888F"/>
</linearGradient>
<linearGradient id="paint36_linear" x1="11.0884" y1="52.153" x2="35.7488" y2="75.8819" gradientUnits="userSpaceOnUse">
<stop stop-color="white"/>
<stop offset="0.2575" stop-color="#FCFCFD"/>
<stop offset="0.4305" stop-color="#F3F4F5"/>
<stop offset="0.5787" stop-color="#E4E5E7"/>
<stop offset="0.713" stop-color="#CFD1D4"/>
<stop offset="0.8379" stop-color="#B3B7BB"/>
<stop offset="0.9542" stop-color="#91979D"/>
<stop offset="1" stop-color="#82888F"/>
</linearGradient>
<linearGradient id="paint37_linear" x1="77.1122" y1="75.7311" x2="76.6361" y2="100.267" gradientUnits="userSpaceOnUse">
<stop stop-color="white"/>
<stop offset="0.1719" stop-color="#FBFBFB"/>
<stop offset="0.3525" stop-color="#EEEFF0"/>
<stop offset="0.537" stop-color="#D9DBDD"/>
<stop offset="0.7244" stop-color="#BCBFC3"/>
<stop offset="0.912" stop-color="#969BA1"/>
<stop offset="1" stop-color="#82888F"/>
</linearGradient>
<linearGradient id="paint38_linear" x1="55.6292" y1="49.5195" x2="75.6833" y2="57.2857" gradientUnits="userSpaceOnUse">
<stop stop-color="white"/>
<stop offset="0.1719" stop-color="#FBFBFB"/>
<stop offset="0.3525" stop-color="#EEEFF0"/>
<stop offset="0.537" stop-color="#D9DBDD"/>
<stop offset="0.7244" stop-color="#BCBFC3"/>
<stop offset="0.912" stop-color="#969BA1"/>
<stop offset="1" stop-color="#82888F"/>
</linearGradient>
<linearGradient id="paint39_linear" x1="59.2754" y1="91.5879" x2="44.1692" y2="91.4401" gradientUnits="userSpaceOnUse">
<stop stop-color="white"/>
<stop offset="0.1998" stop-color="#FBFCFC"/>
<stop offset="0.3764" stop-color="#F1F1F2"/>
<stop offset="0.5443" stop-color="#DFE0E2"/>
<stop offset="0.7068" stop-color="#C5C8CB"/>
<stop offset="0.8638" stop-color="#A5A9AE"/>
<stop offset="1" stop-color="#82888F"/>
</linearGradient>
<linearGradient id="paint40_linear" x1="48.0769" y1="50.8368" x2="20.1063" y2="36.96" gradientUnits="userSpaceOnUse">
<stop stop-color="white"/>
<stop offset="0.1998" stop-color="#FBFCFC"/>
<stop offset="0.3764" stop-color="#F1F1F2"/>
<stop offset="0.5443" stop-color="#DFE0E2"/>
<stop offset="0.7068" stop-color="#C5C8CB"/>
<stop offset="0.8638" stop-color="#A5A9AE"/>
<stop offset="1" stop-color="#82888F"/>
</linearGradient>
<linearGradient id="paint41_linear" x1="61.2878" y1="59.6036" x2="30.6107" y2="48.7501" gradientUnits="userSpaceOnUse">
<stop stop-color="white"/>
<stop offset="0.1998" stop-color="#FBFCFC"/>
<stop offset="0.3764" stop-color="#F1F1F2"/>
<stop offset="0.5443" stop-color="#DFE0E2"/>
<stop offset="0.7068" stop-color="#C5C8CB"/>
<stop offset="0.8638" stop-color="#A5A9AE"/>
<stop offset="1" stop-color="#82888F"/>
</linearGradient>
<linearGradient id="paint42_linear" x1="40.6264" y1="60.9721" x2="25.2436" y2="61.9063" gradientUnits="userSpaceOnUse">
<stop stop-color="white"/>
<stop offset="0.2347" stop-color="#E6E7E9"/>
<stop offset="0.73" stop-color="#A7ABB0"/>
<stop offset="1" stop-color="#82888F"/>
</linearGradient>
<linearGradient id="paint43_linear" x1="24.4626" y1="90.8709" x2="51.9794" y2="104.203" gradientUnits="userSpaceOnUse">
<stop stop-color="white"/>
<stop offset="0.1419" stop-color="#F8F8F8"/>
<stop offset="0.355" stop-color="#E3E4E6"/>
<stop offset="0.6129" stop-color="#C1C4C8"/>
<stop offset="0.9034" stop-color="#93989E"/>
<stop offset="1" stop-color="#82888F"/>
</linearGradient>
<linearGradient id="paint44_linear" x1="21.737" y1="88.4494" x2="24.3648" y2="75.9143" gradientUnits="userSpaceOnUse">
<stop stop-color="white"/>
<stop offset="0.2347" stop-color="#E6E7E9"/>
<stop offset="0.73" stop-color="#A7ABB0"/>
<stop offset="1" stop-color="#82888F"/>
</linearGradient>
<linearGradient id="paint45_linear" x1="17.654" y1="52.5121" x2="0.385524" y2="47.1335" gradientUnits="userSpaceOnUse">
<stop offset="0.0842" stop-color="white"/>
<stop offset="0.2991" stop-color="#E6E7E9"/>
<stop offset="0.7528" stop-color="#A7ABB0"/>
<stop offset="1" stop-color="#82888F"/>
</linearGradient>
<linearGradient id="paint46_linear" x1="19.0876" y1="67.245" x2="26.1051" y2="50.5237" gradientUnits="userSpaceOnUse">
<stop offset="0.0842" stop-color="white"/>
<stop offset="0.2991" stop-color="#E6E7E9"/>
<stop offset="0.7528" stop-color="#A7ABB0"/>
<stop offset="1" stop-color="#82888F"/>
</linearGradient>
<linearGradient id="paint47_linear" x1="38.4551" y1="61.4712" x2="20.3523" y2="55.7251" gradientUnits="userSpaceOnUse">
<stop stop-color="white"/>
<stop offset="0.2347" stop-color="#E6E7E9"/>
<stop offset="0.73" stop-color="#A7ABB0"/>
<stop offset="1" stop-color="#82888F"/>
</linearGradient>
<linearGradient id="paint48_linear" x1="68.3351" y1="85.8485" x2="80.0001" y2="67.6983" gradientUnits="userSpaceOnUse">
<stop stop-color="white"/>
<stop offset="0.1998" stop-color="#FBFCFC"/>
<stop offset="0.3764" stop-color="#F1F1F2"/>
<stop offset="0.5443" stop-color="#DFE0E2"/>
<stop offset="0.7068" stop-color="#C5C8CB"/>
<stop offset="0.8638" stop-color="#A5A9AE"/>
<stop offset="1" stop-color="#82888F"/>
</linearGradient>
<linearGradient id="paint49_linear" x1="66.036" y1="83.692" x2="73.3208" y2="69.8499" gradientUnits="userSpaceOnUse">
<stop stop-color="white"/>
<stop offset="0.1998" stop-color="#FBFCFC"/>
<stop offset="0.3764" stop-color="#F1F1F2"/>
<stop offset="0.5443" stop-color="#DFE0E2"/>
<stop offset="0.7068" stop-color="#C5C8CB"/>
<stop offset="0.8638" stop-color="#A5A9AE"/>
<stop offset="1" stop-color="#82888F"/>
</linearGradient>
<linearGradient id="paint50_linear" x1="73.6567" y1="60.9738" x2="83.5344" y2="56.9863" gradientUnits="userSpaceOnUse">
<stop stop-color="white"/>
<stop offset="0.1998" stop-color="#FBFCFC"/>
<stop offset="0.3764" stop-color="#F1F1F2"/>
<stop offset="0.5443" stop-color="#DFE0E2"/>
<stop offset="0.7068" stop-color="#C5C8CB"/>
<stop offset="0.8638" stop-color="#A5A9AE"/>
<stop offset="1" stop-color="#82888F"/>
</linearGradient>
<linearGradient id="paint51_linear" x1="42.1978" y1="90.672" x2="20.4897" y2="93.1032" gradientUnits="userSpaceOnUse">
<stop stop-color="white"/>
<stop offset="0.2061" stop-color="#FCFCFC"/>
<stop offset="0.3533" stop-color="#F3F3F4"/>
<stop offset="0.4823" stop-color="#E3E5E6"/>
<stop offset="0.6006" stop-color="#CDCFD2"/>
<stop offset="0.7118" stop-color="#B0B4B9"/>
<stop offset="0.8163" stop-color="#8E9399"/>
<stop offset="0.8469" stop-color="#82888F"/>
</linearGradient>
<linearGradient id="paint52_linear" x1="69.6237" y1="95.2484" x2="58.5197" y2="132.931" gradientUnits="userSpaceOnUse">
<stop offset="0.163" stop-color="#6BBAE2"/>
<stop offset="0.2918" stop-color="#66B7DF"/>
<stop offset="0.4388" stop-color="#58AFD6"/>
<stop offset="0.5948" stop-color="#42A1C7"/>
<stop offset="0.7559" stop-color="#228EB3"/>
<stop offset="0.8958" stop-color="#007A9D"/>
</linearGradient>
<linearGradient id="paint53_linear" x1="76.4666" y1="111.746" x2="45.2585" y2="116.765" gradientUnits="userSpaceOnUse">
<stop offset="0.0716" stop-color="#6BBAE2"/>
<stop offset="0.8434" stop-color="#007A9D"/>
</linearGradient>
<linearGradient id="paint54_linear" x1="126.753" y1="62.5197" x2="84.5224" y2="111.502" gradientUnits="userSpaceOnUse">
<stop offset="0.273" stop-color="#85CCF2"/>
<stop offset="0.2767" stop-color="#84CBF1"/>
<stop offset="0.4286" stop-color="#55AED3"/>
<stop offset="0.5734" stop-color="#3098BC"/>
<stop offset="0.7076" stop-color="#1687AB"/>
<stop offset="0.8273" stop-color="#067DA1"/>
<stop offset="0.9203" stop-color="#007A9D"/>
</linearGradient>
<linearGradient id="paint55_linear" x1="100.97" y1="40.2907" x2="58.7397" y2="89.2726" gradientUnits="userSpaceOnUse">
<stop offset="0.273" stop-color="#85CCF2"/>
<stop offset="0.2767" stop-color="#84CBF1"/>
<stop offset="0.4286" stop-color="#55AED3"/>
<stop offset="0.5734" stop-color="#3098BC"/>
<stop offset="0.7076" stop-color="#1687AB"/>
<stop offset="0.8273" stop-color="#067DA1"/>
<stop offset="0.9203" stop-color="#007A9D"/>
</linearGradient>
<linearGradient id="paint56_linear" x1="125.572" y1="61.4977" x2="83.3423" y2="110.484" gradientUnits="userSpaceOnUse">
<stop offset="0.273" stop-color="#85CCF2"/>
<stop offset="0.2767" stop-color="#84CBF1"/>
<stop offset="0.4286" stop-color="#55AED3"/>
<stop offset="0.5734" stop-color="#3098BC"/>
<stop offset="0.7076" stop-color="#1687AB"/>
<stop offset="0.8273" stop-color="#067DA1"/>
<stop offset="0.9203" stop-color="#007A9D"/>
</linearGradient>
<linearGradient id="paint57_linear" x1="129.347" y1="64.756" x2="87.1162" y2="113.738" gradientUnits="userSpaceOnUse">
<stop offset="0.273" stop-color="#85CCF2"/>
<stop offset="0.2767" stop-color="#84CBF1"/>
<stop offset="0.4286" stop-color="#55AED3"/>
<stop offset="0.5734" stop-color="#3098BC"/>
<stop offset="0.7076" stop-color="#1687AB"/>
<stop offset="0.8273" stop-color="#067DA1"/>
<stop offset="0.9203" stop-color="#007A9D"/>
</linearGradient>
<linearGradient id="paint58_linear" x1="99.1729" y1="38.7413" x2="56.9423" y2="87.7233" gradientUnits="userSpaceOnUse">
<stop offset="0.273" stop-color="#85CCF2"/>
<stop offset="0.2767" stop-color="#84CBF1"/>
<stop offset="0.4286" stop-color="#55AED3"/>
<stop offset="0.5734" stop-color="#3098BC"/>
<stop offset="0.7076" stop-color="#1687AB"/>
<stop offset="0.8273" stop-color="#067DA1"/>
<stop offset="0.9203" stop-color="#007A9D"/>
</linearGradient>
<linearGradient id="paint59_linear" x1="132.254" y1="67.2617" x2="90.0232" y2="116.244" gradientUnits="userSpaceOnUse">
<stop offset="0.273" stop-color="#85CCF2"/>
<stop offset="0.2767" stop-color="#84CBF1"/>
<stop offset="0.4286" stop-color="#55AED3"/>
<stop offset="0.5734" stop-color="#3098BC"/>
<stop offset="0.7076" stop-color="#1687AB"/>
<stop offset="0.8273" stop-color="#067DA1"/>
<stop offset="0.9203" stop-color="#007A9D"/>
</linearGradient>
<linearGradient id="paint60_linear" x1="84.1541" y1="25.7925" x2="41.9235" y2="74.7744" gradientUnits="userSpaceOnUse">
<stop offset="0.273" stop-color="#85CCF2"/>
<stop offset="0.2767" stop-color="#84CBF1"/>
<stop offset="0.4286" stop-color="#55AED3"/>
<stop offset="0.5734" stop-color="#3098BC"/>
<stop offset="0.7076" stop-color="#1687AB"/>
<stop offset="0.8273" stop-color="#067DA1"/>
<stop offset="0.9203" stop-color="#007A9D"/>
</linearGradient>
<linearGradient id="paint61_linear" x1="81.4679" y1="24.6841" x2="109.885" y2="104.605" gradientUnits="userSpaceOnUse">
<stop offset="0.1378" stop-color="#85CCF2"/>
<stop offset="0.371" stop-color="#59B1D6"/>
<stop offset="0.7343" stop-color="#1989AD"/>
<stop offset="0.9061" stop-color="#007A9D"/>
</linearGradient>
<linearGradient id="paint62_linear" x1="97.7018" y1="18.9127" x2="126.119" y2="98.8332" gradientUnits="userSpaceOnUse">
<stop offset="0.1378" stop-color="#85CCF2"/>
<stop offset="0.371" stop-color="#59B1D6"/>
<stop offset="0.7343" stop-color="#1989AD"/>
<stop offset="0.9061" stop-color="#007A9D"/>
</linearGradient>
<linearGradient id="paint63_linear" x1="66.9941" y1="29.8309" x2="95.4113" y2="109.751" gradientUnits="userSpaceOnUse">
<stop offset="0.1378" stop-color="#85CCF2"/>
<stop offset="0.371" stop-color="#59B1D6"/>
<stop offset="0.7343" stop-color="#1989AD"/>
<stop offset="0.9061" stop-color="#007A9D"/>
</linearGradient>
<linearGradient id="paint64_linear" x1="48.7604" y1="36.3146" x2="77.1774" y2="116.235" gradientUnits="userSpaceOnUse">
<stop offset="0.1378" stop-color="#85CCF2"/>
<stop offset="0.371" stop-color="#59B1D6"/>
<stop offset="0.7343" stop-color="#1989AD"/>
<stop offset="0.9061" stop-color="#007A9D"/>
</linearGradient>
<linearGradient id="paint65_linear" x1="106.093" y1="45.3859" x2="60.4093" y2="84.9279" gradientUnits="userSpaceOnUse">
<stop offset="0.273" stop-color="#85CCF2"/>
<stop offset="0.2767" stop-color="#84CBF1"/>
<stop offset="0.4286" stop-color="#55AED3"/>
<stop offset="0.5734" stop-color="#3098BC"/>
<stop offset="0.7076" stop-color="#1687AB"/>
<stop offset="0.8273" stop-color="#067DA1"/>
<stop offset="0.9203" stop-color="#007A9D"/>
</linearGradient>
<linearGradient id="paint66_linear" x1="80.5763" y1="27.1998" x2="97.4811" y2="112.431" gradientUnits="userSpaceOnUse">
<stop offset="0.1378" stop-color="#85CCF2"/>
<stop offset="0.371" stop-color="#59B1D6"/>
<stop offset="0.7343" stop-color="#1989AD"/>
<stop offset="0.9061" stop-color="#007A9D"/>
</linearGradient>
<linearGradient id="paint67_linear" x1="129.436" y1="64.8329" x2="87.2051" y2="113.815" gradientUnits="userSpaceOnUse">
<stop offset="0.273" stop-color="#85CCF2"/>
<stop offset="0.2767" stop-color="#84CBF1"/>
<stop offset="0.4286" stop-color="#55AED3"/>
<stop offset="0.5734" stop-color="#3098BC"/>
<stop offset="0.7076" stop-color="#1687AB"/>
<stop offset="0.8273" stop-color="#067DA1"/>
<stop offset="0.9203" stop-color="#007A9D"/>
</linearGradient>
<linearGradient id="paint68_linear" x1="97.7481" y1="18.8961" x2="126.165" y2="98.8165" gradientUnits="userSpaceOnUse">
<stop offset="0.1378" stop-color="#85CCF2"/>
<stop offset="0.371" stop-color="#59B1D6"/>
<stop offset="0.7343" stop-color="#1989AD"/>
<stop offset="0.9061" stop-color="#007A9D"/>
</linearGradient>
<linearGradient id="paint69_linear" x1="95.8851" y1="9.48306" x2="127.763" y2="90.8028" gradientUnits="userSpaceOnUse">
<stop offset="0.3837" stop-color="#85CCF2"/>
<stop offset="0.5107" stop-color="#5DB3D8"/>
<stop offset="0.689" stop-color="#2B94B8"/>
<stop offset="0.8242" stop-color="#0C81A4"/>
<stop offset="0.8995" stop-color="#007A9D"/>
</linearGradient>
<linearGradient id="paint70_linear" x1="41.3978" y1="30.8424" x2="73.2783" y2="112.161" gradientUnits="userSpaceOnUse">
<stop offset="0.3837" stop-color="#85CCF2"/>
<stop offset="0.5107" stop-color="#5DB3D8"/>
<stop offset="0.689" stop-color="#2B94B8"/>
<stop offset="0.8242" stop-color="#0C81A4"/>
<stop offset="0.8995" stop-color="#007A9D"/>
</linearGradient>
<linearGradient id="paint71_linear" x1="87.0006" y1="12.9655" x2="118.877" y2="94.2859" gradientUnits="userSpaceOnUse">
<stop offset="0.3837" stop-color="#85CCF2"/>
<stop offset="0.5107" stop-color="#5DB3D8"/>
<stop offset="0.689" stop-color="#2B94B8"/>
<stop offset="0.8242" stop-color="#0C81A4"/>
<stop offset="0.8995" stop-color="#007A9D"/>
</linearGradient>
<linearGradient id="paint72_linear" x1="119.875" y1="56.5904" x2="77.6445" y2="105.572" gradientUnits="userSpaceOnUse">
<stop offset="0.273" stop-color="#85CCF2"/>
<stop offset="0.2767" stop-color="#84CBF1"/>
<stop offset="0.4286" stop-color="#55AED3"/>
<stop offset="0.5734" stop-color="#3098BC"/>
<stop offset="0.7076" stop-color="#1687AB"/>
<stop offset="0.8273" stop-color="#067DA1"/>
<stop offset="0.9203" stop-color="#007A9D"/>
</linearGradient>
<linearGradient id="paint73_linear" x1="95.864" y1="9.4916" x2="127.741" y2="90.8114" gradientUnits="userSpaceOnUse">
<stop offset="0.3837" stop-color="#85CCF2"/>
<stop offset="0.5107" stop-color="#5DB3D8"/>
<stop offset="0.689" stop-color="#2B94B8"/>
<stop offset="0.8242" stop-color="#0C81A4"/>
<stop offset="0.8995" stop-color="#007A9D"/>
</linearGradient>
<linearGradient id="paint74_linear" x1="129.34" y1="64.7496" x2="87.1089" y2="113.732" gradientUnits="userSpaceOnUse">
<stop offset="0.273" stop-color="#85CCF2"/>
<stop offset="0.2767" stop-color="#84CBF1"/>
<stop offset="0.4286" stop-color="#55AED3"/>
<stop offset="0.5734" stop-color="#3098BC"/>
<stop offset="0.7076" stop-color="#1687AB"/>
<stop offset="0.8273" stop-color="#067DA1"/>
<stop offset="0.9203" stop-color="#007A9D"/>
</linearGradient>
<linearGradient id="paint75_linear" x1="65.5945" y1="21.3575" x2="97.4719" y2="102.677" gradientUnits="userSpaceOnUse">
<stop offset="0.3837" stop-color="#85CCF2"/>
<stop offset="0.5107" stop-color="#5DB3D8"/>
<stop offset="0.689" stop-color="#2B94B8"/>
<stop offset="0.8242" stop-color="#0C81A4"/>
<stop offset="0.8995" stop-color="#007A9D"/>
</linearGradient>
<linearGradient id="paint76_linear" x1="120.237" y1="56.902" x2="78.0061" y2="105.884" gradientUnits="userSpaceOnUse">
<stop offset="0.273" stop-color="#85CCF2"/>
<stop offset="0.2767" stop-color="#84CBF1"/>
<stop offset="0.4286" stop-color="#55AED3"/>
<stop offset="0.5734" stop-color="#3098BC"/>
<stop offset="0.7076" stop-color="#1687AB"/>
<stop offset="0.8273" stop-color="#067DA1"/>
<stop offset="0.9203" stop-color="#007A9D"/>
</linearGradient>
<linearGradient id="paint77_linear" x1="75.3256" y1="26.8688" x2="103.743" y2="106.789" gradientUnits="userSpaceOnUse">
<stop offset="0.1378" stop-color="#85CCF2"/>
<stop offset="0.371" stop-color="#59B1D6"/>
<stop offset="0.7343" stop-color="#1989AD"/>
<stop offset="0.9061" stop-color="#007A9D"/>
</linearGradient>
<linearGradient id="paint78_linear" x1="69.9966" y1="19.6316" x2="101.874" y2="100.951" gradientUnits="userSpaceOnUse">
<stop offset="0.3837" stop-color="#85CCF2"/>
<stop offset="0.5107" stop-color="#5DB3D8"/>
<stop offset="0.689" stop-color="#2B94B8"/>
<stop offset="0.8242" stop-color="#0C81A4"/>
<stop offset="0.8995" stop-color="#007A9D"/>
</linearGradient>
</defs>
</svg>
