<svg width="33" height="33" viewBox="0 0 33 33" fill="none" xmlns="http://www.w3.org/2000/svg">
<path d="M16.5797 11.2423C13.6418 11.2423 11.2442 13.6399 11.2442 16.5778C11.2442 19.5158 13.6418 21.9133 16.5797 21.9133C19.5176 21.9133 21.9152 19.5158 21.9152 16.5778C21.9152 13.6399 19.5176 11.2423 16.5797 11.2423ZM32.5822 16.5778C32.5822 14.3684 32.6022 12.1789 32.4781 9.97349C32.3541 7.4118 31.7697 5.13831 29.8964 3.26508C28.0192 1.38785 25.7497 0.807465 23.188 0.683384C20.9786 0.559302 18.7891 0.579316 16.5837 0.579316C14.3742 0.579316 12.1848 0.559302 9.97935 0.683384C7.41766 0.807465 5.14417 1.39185 3.27094 3.26508C1.39371 5.14231 0.813325 7.4118 0.689243 9.97349C0.565162 12.1829 0.585175 14.3724 0.585175 16.5778C0.585175 18.7833 0.565162 20.9767 0.689243 23.1822C0.813325 25.7438 1.39771 28.0173 3.27094 29.8906C5.14817 31.7678 7.41766 32.3482 9.97935 32.4723C12.1888 32.5964 14.3782 32.5763 16.5837 32.5763C18.7931 32.5763 20.9826 32.5964 23.188 32.4723C25.7497 32.3482 28.0232 31.7638 29.8964 29.8906C31.7737 28.0133 32.3541 25.7438 32.4781 23.1822C32.6062 20.9767 32.5822 18.7873 32.5822 16.5778V16.5778ZM16.5797 24.7872C12.0367 24.7872 8.37029 21.1208 8.37029 16.5778C8.37029 12.0348 12.0367 8.36843 16.5797 8.36843C21.1227 8.36843 24.7891 12.0348 24.7891 16.5778C24.7891 21.1208 21.1227 24.7872 16.5797 24.7872ZM25.1253 9.94947C24.0646 9.94947 23.208 9.09291 23.208 8.03221C23.208 6.97152 24.0646 6.11495 25.1253 6.11495C26.186 6.11495 27.0426 6.97152 27.0426 8.03221C27.0429 8.28408 26.9935 8.53353 26.8973 8.76629C26.801 8.99904 26.6598 9.21053 26.4817 9.38862C26.3036 9.56672 26.0921 9.70793 25.8594 9.80417C25.6266 9.90041 25.3772 9.94979 25.1253 9.94947V9.94947Z" fill="#F8F8F8"/>
</svg>
