<svg width="158" height="158" viewBox="0 0 158 158" fill="none" xmlns="http://www.w3.org/2000/svg">
<g opacity="0.16">
<circle cx="78.7109" cy="9.8398" r="6.9571" transform="rotate(45 78.7109 9.8398)" fill="≈"/>
<ellipse cx="61.4941" cy="27.0566" rx="6.9571" ry="6.9571" transform="rotate(45 61.4941 27.0566)" fill="#343F56"/>
<ellipse cx="44.2754" cy="44.2744" rx="6.9571" ry="6.95711" transform="rotate(45 44.2754 44.2744)" fill="#343F56"/>
<ellipse cx="27.0566" cy="61.4931" rx="6.9571" ry="6.9571" transform="rotate(45 27.0566 61.4931)" fill="#343F56"/>
<ellipse cx="9.83984" cy="78.7109" rx="6.9571" ry="6.9571" transform="rotate(45 9.83984 78.7109)" fill="#343F56"/>
<ellipse cx="95.9277" cy="27.0566" rx="6.9571" ry="6.9571" transform="rotate(45 95.9277 27.0566)" fill="#343F56"/>
<circle cx="78.7109" cy="44.2744" r="6.9571" transform="rotate(45 78.7109 44.2744)" fill="#343F56"/>
<ellipse cx="61.4941" cy="61.4931" rx="6.9571" ry="6.95709" transform="rotate(45 61.4941 61.4931)" fill="#343F56"/>
<ellipse cx="44.2754" cy="78.7109" rx="6.9571" ry="6.95711" transform="rotate(45 44.2754 78.7109)" fill="#343F56"/>
<ellipse cx="27.0566" cy="95.9287" rx="6.9571" ry="6.9571" transform="rotate(45 27.0566 95.9287)" fill="#343F56"/>
<ellipse cx="113.146" cy="44.2744" rx="6.95711" ry="6.9571" transform="rotate(45 113.146 44.2744)" fill="#343F56"/>
<ellipse cx="95.9277" cy="61.4931" rx="6.95709" ry="6.9571" transform="rotate(45 95.9277 61.4931)" fill="#343F56"/>
<circle cx="78.7109" cy="78.7109" r="6.95709" transform="rotate(45 78.7109 78.7109)" fill="#343F56"/>
<ellipse cx="61.4941" cy="95.9287" rx="6.95709" ry="6.9571" transform="rotate(45 61.4941 95.9287)" fill="#343F56"/>
<ellipse cx="44.2754" cy="113.146" rx="6.9571" ry="6.9571" transform="rotate(45 44.2754 113.146)" fill="#343F56"/>
<ellipse cx="130.365" cy="61.4931" rx="6.9571" ry="6.9571" transform="rotate(45 130.365 61.4931)" fill="#343F56"/>
<ellipse cx="113.146" cy="78.7109" rx="6.95711" ry="6.9571" transform="rotate(45 113.146 78.7109)" fill="#343F56"/>
<ellipse cx="95.9277" cy="95.9287" rx="6.9571" ry="6.95709" transform="rotate(45 95.9277 95.9287)" fill="#343F56"/>
<circle cx="78.7109" cy="113.146" r="6.9571" transform="rotate(45 78.7109 113.146)" fill="#343F56"/>
<circle cx="61.4941" cy="130.364" r="6.9571" transform="rotate(45 61.4941 130.364)" fill="#343F56"/>
<ellipse cx="147.582" cy="78.7109" rx="6.9571" ry="6.9571" transform="rotate(45 147.582 78.7109)" fill="#343F56"/>
<ellipse cx="130.365" cy="95.9287" rx="6.9571" ry="6.9571" transform="rotate(45 130.365 95.9287)" fill="#343F56"/>
<ellipse cx="113.146" cy="113.146" rx="6.9571" ry="6.9571" transform="rotate(45 113.146 113.146)" fill="#343F56"/>
<circle cx="95.9277" cy="130.364" r="6.9571" transform="rotate(45 95.9277 130.364)" fill="#343F56"/>
<circle cx="78.7109" cy="147.582" r="6.9571" transform="rotate(45 78.7109 147.582)" fill="#343F56"/>
</g>
</svg>
