<svg width="165" height="150" viewBox="0 0 165 150" fill="none" xmlns="http://www.w3.org/2000/svg">
<path d="M65.3125 48.9062C70.2604 43.6979 75.4167 39.1667 80.7812 35.3125C86.1458 31.4583 91.1719 28.5677 95.8594 26.6406C100.547 24.7135 104.844 23.7891 108.75 23.8672C112.656 23.9453 115.703 25.1562 117.891 27.5C118.411 28.0208 118.854 28.6068 119.219 29.2578C119.583 29.9089 119.844 30.4167 120 30.7812C120.156 31.1458 120.365 31.7969 120.625 32.7344C120.885 33.6719 121.068 34.2708 121.172 34.5312L150.234 130.156L148.438 132.031C150.469 133.438 152.279 135.078 153.867 136.953C155.456 138.828 156.849 140.365 158.047 141.562C159.245 142.76 160.677 143.594 162.344 144.062C162.708 144.167 163.164 144.518 163.711 145.117C164.258 145.716 164.531 146.25 164.531 146.719C164.531 147.656 164.062 148.438 163.125 149.062C162.188 149.688 161.146 150 160 150C158.542 150 157.135 149.414 155.781 148.242C154.427 147.07 153.06 145.573 151.68 143.75C150.299 141.927 149.297 140.729 148.672 140.156C147.318 138.958 145.807 137.812 144.141 136.719L142.109 138.672L49.7656 107.344C47.7344 106.719 46.1719 105.781 45.0781 104.531C42.8906 102.188 41.7578 98.9453 41.6797 94.8047C41.6016 90.6641 42.474 86.1068 44.2969 81.1328C46.1198 76.1589 48.8411 70.8464 52.4609 65.1953C56.0807 59.5443 60.3646 54.1146 65.3125 48.9062ZM73.75 57.4219C65.7812 65.5469 59.7266 73.3203 55.5859 80.7422C51.4453 88.1641 50.4427 93.0469 52.5781 95.3906C54.7135 97.7344 59.375 96.875 66.5625 92.8125C73.75 88.75 81.3021 82.6823 89.2188 74.6094C97.2396 66.4844 103.32 58.724 107.461 51.3281C111.602 43.9323 112.604 39.0365 110.469 36.6406C108.333 34.2969 103.659 35.1562 96.4453 39.2188C89.2318 43.2812 81.6667 49.349 73.75 57.4219ZM90.8594 89.7656C87.0573 93.151 83.2812 96.1198 79.5312 98.6719C79.4792 98.776 78.1771 101.224 75.625 106.016L82.1875 108.281C85.3125 102.396 88.2031 96.224 90.8594 89.7656ZM117.5 53.9844C116.354 56.5365 114.766 59.6354 112.734 63.2812C111.068 70.7812 108.451 78.9062 104.883 87.6562C101.315 96.4062 97.4219 104.609 93.2031 112.266L99.6875 114.453C104.583 105.391 108.854 95.8984 112.5 85.9766C116.146 76.0547 118.385 67.2917 119.219 59.6875L117.5 53.9844ZM126.562 82.5781C122.917 94.2448 117.786 106.224 111.172 118.516L117.578 120.781C122.734 110.885 126.797 101.589 129.766 92.8906L126.562 82.5781ZM135.547 111.094C133.516 115.885 131.354 120.443 129.062 124.766L135.469 127.031C136.198 125.625 137.24 123.464 138.594 120.547L135.547 111.094ZM78.125 0L74.2188 11.7969L84.2969 19.1406H71.875L68.0469 30.9375L64.2188 19.1406H51.875L61.875 11.7969L57.9688 0.078125L68.0469 7.34375L78.125 0ZM100 0L102.109 10.7031L91.4062 12.8125L89.2969 2.10938L100 0ZM29.6094 32.1875L21.0156 23.2031L9.84375 28.6719L15.625 17.7344L6.95312 8.90625L19.2188 11.0156L25 0L26.7188 12.3438L38.9844 14.4531L27.8125 19.8438L29.6094 32.1875ZM32.5 51.4062L22.1094 58.2812L25.3906 70.3125L15.7031 62.5L5.39062 69.375L9.6875 57.6562L0 50L12.4219 50.5469L16.7969 38.9062L20 50.8594L32.5 51.4062ZM36.9531 22.4219L60.2344 41.4844L57.3438 45L34.0625 25.9375L36.9531 22.4219ZM28.8281 59.2969L47.0312 57.6562L47.5 62.1875L29.2188 63.8281L28.8281 59.2969ZM27.0312 81.1719L30.3906 91.6406L20 95L16.5625 84.6094L27.0312 81.1719Z" fill="#F8F8F8"/>
</svg>
