<svg width="117" height="156" viewBox="0 0 117 156" fill="none" xmlns="http://www.w3.org/2000/svg">
<path d="M43.875 2.01081e-06C40.8493 -0.00158418 37.8976 0.935296 35.4267 2.68152C32.9558 4.42775 31.0873 6.89737 30.0788 9.75H14.625C10.7462 9.75 7.02628 11.2908 4.28356 14.0336C1.54084 16.7763 0 20.4962 0 24.375V141.375C0 145.254 1.54084 148.974 4.28356 151.716C7.02628 154.459 10.7462 156 14.625 156H102.375C106.254 156 109.974 154.459 112.716 151.716C115.459 148.974 117 145.254 117 141.375V24.375C117 20.4962 115.459 16.7763 112.716 14.0336C109.974 11.2908 106.254 9.75 102.375 9.75H86.9212C85.9127 6.89737 84.0442 4.42775 81.5733 2.68152C79.1024 0.935296 76.1507 -0.00158418 73.125 2.01081e-06H43.875ZM39 14.625C39 13.3321 39.5136 12.0921 40.4278 11.1779C41.3421 10.2636 42.5821 9.75 43.875 9.75H73.125C74.4179 9.75 75.6579 10.2636 76.5722 11.1779C77.4864 12.0921 78 13.3321 78 14.625C78 15.9179 77.4864 17.1579 76.5722 18.0721C75.6579 18.9864 74.4179 19.5 73.125 19.5H43.875C42.5821 19.5 41.3421 18.9864 40.4278 18.0721C39.5136 17.1579 39 15.9179 39 14.625ZM52.2015 57.0765L35.139 74.139C34.2508 75.0261 33.0547 75.5364 31.7997 75.5637C30.5447 75.5909 29.3276 75.133 28.4018 74.2853L21.0893 67.6065C20.5923 67.1818 20.1859 66.6615 19.8942 66.0765C19.6024 65.4915 19.4313 64.8539 19.391 64.2015C19.3507 63.549 19.442 62.8951 19.6595 62.2787C19.8769 61.6623 20.2162 61.0959 20.657 60.6132C21.0978 60.1305 21.6312 59.7414 22.2254 59.4691C22.8197 59.1967 23.4626 59.0466 24.116 59.0277C24.7694 59.0089 25.42 59.1216 26.0289 59.3592C26.6379 59.5969 27.1928 59.9546 27.6607 60.411L31.5315 63.9405L45.2985 50.1735C45.7518 49.7202 46.2898 49.3607 46.8821 49.1154C47.4743 48.8701 48.109 48.7438 48.75 48.7438C49.391 48.7438 50.0257 48.8701 50.6179 49.1154C51.2102 49.3607 51.7482 49.7202 52.2015 50.1735C52.6548 50.6268 53.0143 51.1648 53.2596 51.7571C53.5049 52.3493 53.6312 52.984 53.6312 53.625C53.6312 54.266 53.5049 54.9007 53.2596 55.4929C53.0143 56.0852 52.6548 56.6232 52.2015 57.0765ZM52.2015 98.9235C52.6555 99.3763 53.0157 99.9143 53.2614 100.507C53.5072 101.099 53.6337 101.734 53.6337 102.375C53.6337 103.016 53.5072 103.651 53.2614 104.243C53.0157 104.836 52.6555 105.374 52.2015 105.826L35.139 122.889C34.2508 123.776 33.0547 124.286 31.7997 124.314C30.5447 124.341 29.3276 123.883 28.4018 123.035L21.0893 116.356C20.1836 115.473 19.6568 114.272 19.6203 113.007C19.5838 111.743 20.0404 110.513 20.8936 109.579C21.7468 108.645 22.9298 108.079 24.1926 108.001C25.4553 107.923 26.699 108.339 27.6607 109.161L31.5315 112.7L45.2985 98.9235C45.7513 98.4695 46.2893 98.1093 46.8816 97.8636C47.4738 97.6178 48.1088 97.4913 48.75 97.4913C49.3912 97.4913 50.0262 97.6178 50.6184 97.8636C51.2107 98.1093 51.7487 98.4695 52.2015 98.9235ZM68.25 107.25H92.625C93.9179 107.25 95.1579 107.764 96.0722 108.678C96.9864 109.592 97.5 110.832 97.5 112.125C97.5 113.418 96.9864 114.658 96.0722 115.572C95.1579 116.486 93.9179 117 92.625 117H68.25C66.9571 117 65.7171 116.486 64.8028 115.572C63.8886 114.658 63.375 113.418 63.375 112.125C63.375 110.832 63.8886 109.592 64.8028 108.678C65.7171 107.764 66.9571 107.25 68.25 107.25ZM63.375 63.375C63.375 62.0821 63.8886 60.8421 64.8028 59.9278C65.7171 59.0136 66.9571 58.5 68.25 58.5H92.625C93.9179 58.5 95.1579 59.0136 96.0722 59.9278C96.9864 60.8421 97.5 62.0821 97.5 63.375C97.5 64.6679 96.9864 65.9079 96.0722 66.8222C95.1579 67.7364 93.9179 68.25 92.625 68.25H68.25C66.9571 68.25 65.7171 67.7364 64.8028 66.8222C63.8886 65.9079 63.375 64.6679 63.375 63.375Z" fill="#F8F8F8"/>
</svg>
