<svg width="178" height="178" viewBox="0 0 178 178" fill="none" xmlns="http://www.w3.org/2000/svg">
<path d="M169.807 114.329C162.418 111.824 142.591 104.706 122.973 94.7116C109.933 88.0632 102.428 79.5091 92.5425 74.4718C83.5892 69.9097 76.2082 67.9908 76.2082 67.9908L75.1108 70.3192L59.6177 62.4261L62.4809 56.3496C62.7119 55.8519 62.7417 55.2843 62.5641 54.7651C62.3865 54.246 62.0153 53.8155 61.5279 53.5636L60.2915 52.9336C60.2944 52.9276 67.3193 30.9601 85.4339 30.174C87.5398 30.0875 89.5741 30.4692 89.8891 29.8116C90.3159 28.911 86.9222 27.1719 84.9407 26.1729C56.8335 11.991 41.9884 43.5875 41.9811 43.6023L40.8847 43.0427C40.6481 42.9203 40.3892 42.8471 40.1235 42.8274C39.8578 42.8077 39.5909 42.842 39.3389 42.9283C39.0868 43.0145 38.8548 43.1508 38.6569 43.3291C38.4589 43.5073 38.2991 43.7238 38.187 43.9655L24.9857 71.9765C24.7547 72.4741 24.7249 73.0418 24.9025 73.5609C25.0801 74.08 25.4513 74.5105 25.9387 74.7625C25.9387 74.7625 29.9299 78.2773 23.6509 81.3029C21.1245 82.5247 19.6764 83.6834 19.0084 84.7873C18.0513 86.7607 17.1007 88.7372 16.1566 90.7168C15.9256 91.2145 15.8958 91.7821 16.0734 92.3013C16.251 92.8204 16.6222 93.2509 17.1096 93.5028L37.7587 104.027C37.9955 104.149 38.2547 104.222 38.5205 104.242C38.7864 104.261 39.0535 104.227 39.3057 104.141C39.5579 104.055 39.7901 103.918 39.9883 103.74C40.1864 103.561 40.3464 103.345 40.4586 103.103C40.4586 103.103 43.1636 97.2706 43.2149 97.1248C43.6414 95.8989 43.6383 94.0011 43.0126 91.1771C41.4702 84.159 46.582 85.2907 46.582 85.2907C46.8189 85.4138 47.0783 85.4875 47.3445 85.5075C47.6107 85.5274 47.8782 85.4931 48.1308 85.4067C48.3834 85.3203 48.6158 85.1836 48.8141 85.0048C49.0123 84.826 49.1722 84.6088 49.2841 84.3664L52.1473 78.29L67.6353 86.1824L66.5386 88.513C66.5386 88.513 72.5217 93.4031 81.4751 97.9651C91.3574 103.001 102.46 103.926 115.502 110.573C135.115 120.569 152.672 132.498 159.111 137.035C161.539 138.742 161.73 138.442 163.034 135.671L167.105 127.033L171.172 118.4C172.478 115.62 172.593 115.28 169.807 114.329" fill="#F8F8F8"/>
<path d="M86.2856 66.8164C88.7658 67.88 91.2107 69.0241 93.6164 70.2468C98.3709 72.6695 102.699 75.7191 107.127 79.0401L120.114 52.5449C124.081 52.1874 127.888 50.8142 131.17 48.5577C134.452 46.3012 137.097 43.2374 138.851 39.6616C140.605 36.0858 141.408 32.1186 141.183 28.1423C140.958 24.1659 139.713 20.3145 137.567 16.9592L125.779 41.0049L111.898 41.9482L104.137 30.3916L115.925 6.35837C111.959 6.71473 108.152 8.08834 104.872 10.3464C101.592 12.6045 98.9498 15.6706 97.2013 19.2483C95.4465 22.822 94.6419 26.7875 94.8652 30.7625C95.0885 34.7376 96.3322 38.588 98.4763 41.9426L86.2856 66.8164Z" fill="#F8F8F8"/>
<path d="M79.3069 100.62C76.745 99.3127 74.2288 97.9173 71.7628 96.4367L57.6498 125.228C53.6841 125.585 49.8776 126.959 46.5976 129.217C43.3177 131.474 40.6752 134.539 38.9253 138.116C33.2831 149.614 38.0381 163.508 49.5388 169.144C52.2726 170.485 55.244 171.275 58.2831 171.468C61.3222 171.66 64.3695 171.252 67.2509 170.267C70.1322 169.281 72.791 167.737 75.0755 165.724C77.36 163.71 79.2252 161.266 80.5647 158.531C82.3192 154.956 83.1233 150.989 82.8994 147.012C82.6756 143.036 81.4314 139.184 79.2868 135.828L93.8182 106.191C88.7458 104.627 83.9206 102.97 79.3069 100.62V100.62ZM67.5036 159.875L53.6195 160.816L45.862 149.261L51.9909 136.771L65.8705 135.823L73.6287 147.381L67.5036 159.875" fill="#F8F8F8"/>
</svg>
