<svg width="24" height="16" viewBox="0 0 24 16" fill="none" xmlns="http://www.w3.org/2000/svg">
<path d="M23.486 2.5104C23.3502 2.02593 23.0857 1.58732 22.7205 1.24119C22.345 0.884414 21.8848 0.629204 21.3833 0.499649C19.5065 0.0049557 11.9872 0.00495581 11.9872 0.00495581C8.85245 -0.0307094 5.7185 0.126155 2.603 0.474664C2.1015 0.613791 1.64216 0.874703 1.26583 1.23419C0.896061 1.58997 0.628227 2.0287 0.488314 2.5094C0.152216 4.32002 -0.0110839 6.15848 0.0006168 7.99999C-0.0113758 9.83985 0.151523 11.6777 0.488314 13.4906C0.625229 13.9693 0.892064 14.406 1.26283 14.7588C1.6336 15.1116 2.09532 15.3664 2.603 15.5013C4.50482 15.995 11.9872 15.995 11.9872 15.995C15.1259 16.0307 18.2638 15.8739 21.3833 15.5253C21.8848 15.3958 22.345 15.1406 22.7205 14.7838C23.0903 14.431 23.3531 13.9923 23.485 13.5146C23.8299 11.7046 23.9976 9.86543 23.9857 8.02298C24.0117 6.17273 23.8442 4.32484 23.486 2.5094V2.5104ZM9.59666 11.4219V4.57912L15.8528 8.00099L9.59666 11.4219Z" fill="#F8F8F8"/>
</svg>
