<svg width="48" height="48" viewBox="0 0 48 48" fill="none" xmlns="http://www.w3.org/2000/svg">
<path d="M23.9998 16.1892C19.699 16.1892 16.1892 19.699 16.1892 23.9998C16.1892 28.3006 19.699 31.8103 23.9998 31.8103C28.3006 31.8103 31.8103 28.3006 31.8103 23.9998C31.8103 19.699 28.3006 16.1892 23.9998 16.1892ZM47.4256 23.9998C47.4256 20.7654 47.4549 17.5603 47.2732 14.3318C47.0916 10.5818 46.2361 7.2537 43.4939 4.51151C40.7459 1.76346 37.4236 0.913852 33.6736 0.732211C30.4392 0.550571 27.2342 0.579868 24.0056 0.579868C20.7713 0.579868 17.5662 0.550571 14.3377 0.732211C10.5877 0.913852 7.25956 1.76932 4.51737 4.51151C1.76932 7.25955 0.919711 10.5818 0.738071 14.3318C0.55643 17.5662 0.585727 20.7713 0.585727 23.9998C0.585727 27.2283 0.55643 30.4392 0.738071 33.6678C0.919711 37.4178 1.77518 40.7459 4.51737 43.4881C7.26541 46.2361 10.5877 47.0857 14.3377 47.2674C17.5721 47.449 20.7771 47.4197 24.0056 47.4197C27.24 47.4197 30.4451 47.449 33.6736 47.2674C37.4236 47.0857 40.7517 46.2303 43.4939 43.4881C46.242 40.74 47.0916 37.4178 47.2732 33.6678C47.4607 30.4392 47.4256 27.2342 47.4256 23.9998V23.9998ZM23.9998 36.0174C17.3494 36.0174 11.9822 30.6502 11.9822 23.9998C11.9822 17.3494 17.3494 11.9822 23.9998 11.9822C30.6502 11.9822 36.0174 17.3494 36.0174 23.9998C36.0174 30.6502 30.6502 36.0174 23.9998 36.0174ZM36.5096 14.2967C34.9568 14.2967 33.7029 13.0428 33.7029 11.49C33.7029 9.93729 34.9568 8.68338 36.5096 8.68338C38.0623 8.68338 39.3162 9.93729 39.3162 11.49C39.3167 11.8587 39.2444 12.2239 39.1035 12.5646C38.9626 12.9054 38.7559 13.2149 38.4952 13.4756C38.2345 13.7364 37.9249 13.9431 37.5842 14.084C37.2434 14.2248 36.8783 14.2971 36.5096 14.2967V14.2967Z" fill="black"/>
</svg>
