<svg width="33" height="32" viewBox="0 0 33 32" fill="none" xmlns="http://www.w3.org/2000/svg">
<path fill-rule="evenodd" clip-rule="evenodd" d="M10.1165 0.096C11.8227 0.0174545 12.3667 0 16.7129 0C21.0591 0 21.6031 0.0189091 23.3078 0.096C25.0125 0.173091 26.1762 0.445091 27.1943 0.839273C28.2605 1.24218 29.2278 1.872 30.0278 2.68655C30.8423 3.48509 31.4707 4.45091 31.8722 5.51855C32.2678 6.53673 32.5383 7.70036 32.6169 9.40218C32.6954 11.1113 32.7129 11.6553 32.7129 16C32.7129 20.3462 32.694 20.8902 32.6169 22.5964C32.5398 24.2982 32.2678 25.4618 31.8722 26.48C31.4707 27.5478 30.8413 28.5152 30.0278 29.3149C29.2278 30.1295 28.2605 30.7578 27.1943 31.1593C26.1762 31.5549 25.0125 31.8255 23.3107 31.904C21.6031 31.9825 21.0591 32 16.7129 32C12.3667 32 11.8227 31.9811 10.1165 31.904C8.41471 31.8269 7.25107 31.5549 6.23289 31.1593C5.16514 30.7578 4.19772 30.1284 3.39798 29.3149C2.58399 28.5159 1.95408 27.5489 1.55216 26.4815C1.15798 25.4633 0.887436 24.2996 0.808891 22.5978C0.730345 20.8887 0.712891 20.3447 0.712891 16C0.712891 11.6538 0.7318 11.1098 0.808891 9.40509C0.885982 7.70036 1.15798 6.53673 1.55216 5.51855C1.95467 4.45103 2.58506 3.48409 3.39944 2.68509C4.19804 1.87127 5.16449 1.24137 6.23144 0.839273C7.24962 0.445091 8.41325 0.174545 10.1151 0.096H10.1165ZM23.1783 2.976C21.4911 2.89891 20.9849 2.88291 16.7129 2.88291C12.4409 2.88291 11.9347 2.89891 10.2474 2.976C8.68671 3.04727 7.84016 3.30764 7.2758 3.52727C6.52962 3.81818 5.9958 4.16291 5.4358 4.72291C4.90496 5.23935 4.49643 5.86805 4.24016 6.56291C4.02053 7.12727 3.76016 7.97382 3.68889 9.53455C3.6118 11.2218 3.5958 11.728 3.5958 16C3.5958 20.272 3.6118 20.7782 3.68889 22.4655C3.76016 24.0262 4.02053 24.8727 4.24016 25.4371C4.49616 26.1309 4.90489 26.7607 5.4358 27.2771C5.95216 27.808 6.58198 28.2167 7.2758 28.4727C7.84016 28.6924 8.68671 28.9527 10.2474 29.024C11.9347 29.1011 12.4394 29.1171 16.7129 29.1171C20.9863 29.1171 21.4911 29.1011 23.1783 29.024C24.7391 28.9527 25.5856 28.6924 26.15 28.4727C26.8962 28.1818 27.43 27.8371 27.99 27.2771C28.5209 26.7607 28.9296 26.1309 29.1856 25.4371C29.4053 24.8727 29.6656 24.0262 29.7369 22.4655C29.814 20.7782 29.83 20.272 29.83 16C29.83 11.728 29.814 11.2218 29.7369 9.53455C29.6656 7.97382 29.4053 7.12727 29.1856 6.56291C28.8947 5.81673 28.55 5.28291 27.99 4.72291C27.4735 4.1921 26.8448 3.78358 26.15 3.52727C25.5856 3.30764 24.7391 3.04727 23.1783 2.976ZM14.6693 20.9324C15.8106 21.4075 17.0814 21.4716 18.2648 21.1138C19.4481 20.756 20.4706 19.9984 21.1574 18.9705C21.8443 17.9426 22.153 16.7082 22.0308 15.478C21.9086 14.2478 21.3631 13.0981 20.4874 12.2255C19.9292 11.6676 19.2543 11.2405 18.5112 10.9748C17.7681 10.7091 16.9753 10.6114 16.19 10.6889C15.4046 10.7664 14.6462 11.017 13.9693 11.4227C13.2925 11.8285 12.714 12.3793 12.2755 13.0354C11.8371 13.6916 11.5495 14.4368 11.4336 15.2174C11.3178 15.998 11.3764 16.7946 11.6053 17.5498C11.8342 18.3051 12.2278 19.0002 12.7576 19.5851C13.2874 20.1699 13.9403 20.6301 14.6693 20.9324ZM10.8976 10.1847C11.6613 9.42105 12.5679 8.81528 13.5657 8.40198C14.5635 7.98868 15.6329 7.77596 16.7129 7.77596C17.7929 7.77596 18.8623 7.98868 19.8601 8.40198C20.8579 8.81528 21.7645 9.42105 22.5282 10.1847C23.2918 10.9484 23.8976 11.855 24.3109 12.8528C24.7242 13.8506 24.9369 14.92 24.9369 16C24.9369 17.08 24.7242 18.1494 24.3109 19.1472C23.8976 20.145 23.2918 21.0516 22.5282 21.8153C20.9859 23.3576 18.894 24.224 16.7129 24.224C14.5317 24.224 12.4399 23.3576 10.8976 21.8153C9.35531 20.273 8.48885 18.1812 8.48885 16C8.48885 13.8188 9.35531 11.727 10.8976 10.1847ZM26.7609 9.00073C26.9501 8.82221 27.1016 8.60754 27.2064 8.36942C27.3112 8.1313 27.3672 7.87457 27.371 7.61444C27.3747 7.35431 27.3263 7.09607 27.2285 6.855C27.1307 6.61392 26.9855 6.39492 26.8016 6.21097C26.6176 6.02701 26.3986 5.88183 26.1575 5.78403C25.9165 5.68622 25.6582 5.63778 25.3981 5.64158C25.138 5.64537 24.8812 5.70131 24.6431 5.8061C24.405 5.91089 24.1903 6.06239 24.0118 6.25164C23.6646 6.61968 23.4745 7.10854 23.4819 7.61444C23.4893 8.12035 23.6935 8.60346 24.0513 8.96123C24.4091 9.31899 24.8922 9.52324 25.3981 9.53062C25.904 9.53799 26.3928 9.34791 26.7609 9.00073Z" fill="#343F56"/>
</svg>
