<svg width="60" height="68" viewBox="0 0 60 68" fill="none" xmlns="http://www.w3.org/2000/svg">
<path d="M0 61.625C0 65.1445 2.85547 68 6.375 68H53.125C56.6445 68 59.5 65.1445 59.5 61.625V25.5H0V61.625ZM42.5 35.5938C42.5 34.7172 43.2172 34 44.0938 34H49.4062C50.2828 34 51 34.7172 51 35.5938V40.9062C51 41.7828 50.2828 42.5 49.4062 42.5H44.0938C43.2172 42.5 42.5 41.7828 42.5 40.9062V35.5938ZM42.5 52.5938C42.5 51.7172 43.2172 51 44.0938 51H49.4062C50.2828 51 51 51.7172 51 52.5938V57.9062C51 58.7828 50.2828 59.5 49.4062 59.5H44.0938C43.2172 59.5 42.5 58.7828 42.5 57.9062V52.5938ZM25.5 35.5938C25.5 34.7172 26.2172 34 27.0938 34H32.4062C33.2828 34 34 34.7172 34 35.5938V40.9062C34 41.7828 33.2828 42.5 32.4062 42.5H27.0938C26.2172 42.5 25.5 41.7828 25.5 40.9062V35.5938ZM25.5 52.5938C25.5 51.7172 26.2172 51 27.0938 51H32.4062C33.2828 51 34 51.7172 34 52.5938V57.9062C34 58.7828 33.2828 59.5 32.4062 59.5H27.0938C26.2172 59.5 25.5 58.7828 25.5 57.9062V52.5938ZM8.5 35.5938C8.5 34.7172 9.21719 34 10.0938 34H15.4062C16.2828 34 17 34.7172 17 35.5938V40.9062C17 41.7828 16.2828 42.5 15.4062 42.5H10.0938C9.21719 42.5 8.5 41.7828 8.5 40.9062V35.5938ZM8.5 52.5938C8.5 51.7172 9.21719 51 10.0938 51H15.4062C16.2828 51 17 51.7172 17 52.5938V57.9062C17 58.7828 16.2828 59.5 15.4062 59.5H10.0938C9.21719 59.5 8.5 58.7828 8.5 57.9062V52.5938ZM53.125 8.5H46.75V2.125C46.75 0.95625 45.7938 0 44.625 0H40.375C39.2062 0 38.25 0.95625 38.25 2.125V8.5H21.25V2.125C21.25 0.95625 20.2938 0 19.125 0H14.875C13.7063 0 12.75 0.95625 12.75 2.125V8.5H6.375C2.85547 8.5 0 11.3555 0 14.875V21.25H59.5V14.875C59.5 11.3555 56.6445 8.5 53.125 8.5Z" fill="#F8F8F8"/>
</svg>
