<svg width="24" height="22" viewBox="0 0 24 22" fill="none" xmlns="http://www.w3.org/2000/svg">
<path d="M18.6351 8.94402C18.7167 8.94121 18.7979 8.95484 18.8741 8.9841C18.9502 9.01336 19.0197 9.05765 19.0784 9.11433C19.137 9.17101 19.1837 9.23892 19.2155 9.31402C19.2474 9.38911 19.2638 9.46986 19.2638 9.55143C19.2638 9.63301 19.2474 9.71375 19.2155 9.78884C19.1837 9.86394 19.137 9.93185 19.0784 9.98853C19.0197 10.0452 18.9502 10.0895 18.8741 10.1188C18.7979 10.148 18.7167 10.1617 18.6351 10.1588H16.9468V11.2416H18.6351C18.7171 11.2376 18.7991 11.2503 18.8761 11.2789C18.953 11.3075 19.0234 11.3515 19.0829 11.4081C19.1423 11.4647 19.1897 11.5328 19.222 11.6083C19.2543 11.6838 19.271 11.7651 19.271 11.8472C19.271 11.9293 19.2543 12.0105 19.222 12.086C19.1897 12.1615 19.1423 12.2296 19.0829 12.2862C19.0234 12.3429 18.953 12.3868 18.8761 12.4155C18.7991 12.4441 18.7171 12.4568 18.6351 12.4528H16.3419C16.1816 12.4522 16.0281 12.3882 15.9148 12.2747C15.8016 12.1612 15.7379 12.0075 15.7378 11.8472V7.25642C15.7378 6.92222 16.0084 6.64793 16.3419 6.64793H18.6395C18.7953 6.65598 18.9421 6.72369 19.0494 6.83702C19.1567 6.95035 19.2163 7.10062 19.2159 7.25669C19.2154 7.41277 19.1549 7.56268 19.0469 7.67537C18.939 7.78806 18.7918 7.85489 18.6358 7.86202H16.9475V8.94475L18.6351 8.94402ZM14.9293 11.8464C14.928 12.0072 14.8632 12.1609 14.7492 12.2742C14.6351 12.3875 14.4809 12.4511 14.3201 12.4513C14.2249 12.4523 14.1308 12.431 14.0453 12.3893C13.9597 12.3476 13.885 12.2865 13.8271 12.211L11.4776 9.01548V11.8457C11.4776 12.0063 11.4138 12.1604 11.3002 12.274C11.1866 12.3875 11.0326 12.4513 10.872 12.4513C10.7114 12.4513 10.5573 12.3875 10.4438 12.274C10.3302 12.1604 10.2664 12.0063 10.2664 11.8457V7.25497C10.2664 6.99584 10.436 6.76342 10.68 6.68041C10.7402 6.65913 10.8038 6.64862 10.8677 6.64937C11.0553 6.64937 11.2286 6.75115 11.3448 6.89407L13.7131 10.0968V7.25497C13.7131 6.92077 13.9837 6.64648 14.3187 6.64648C14.6536 6.64648 14.9279 6.92077 14.9279 7.25497L14.9293 11.8464ZM9.4031 11.8464C9.40234 12.0075 9.33779 12.1616 9.2236 12.2751C9.10942 12.3886 8.95489 12.4522 8.79389 12.452C8.63408 12.4507 8.48126 12.3863 8.36866 12.2729C8.25607 12.1595 8.1928 12.0063 8.19261 11.8464V7.2557C8.19261 6.92149 8.46329 6.6472 8.79822 6.6472C9.13242 6.6472 9.40382 6.92149 9.40382 7.2557L9.4031 11.8464ZM7.03049 12.452H4.73295C4.57211 12.4517 4.41792 12.3879 4.30386 12.2745C4.18979 12.1611 4.12507 12.0073 4.12374 11.8464V7.2557C4.12374 6.92149 4.39803 6.6472 4.73295 6.6472C5.06787 6.6472 5.33855 6.92149 5.33855 7.2557V11.2408H7.03049C7.1911 11.2408 7.34514 11.3046 7.45872 11.4182C7.57229 11.5318 7.63609 11.6858 7.63609 11.8464C7.63609 12.0071 7.57229 12.1611 7.45872 12.2747C7.34514 12.3882 7.1911 12.452 7.03049 12.452ZM23.0981 9.37567C23.0981 4.20674 17.9133 0 11.5491 0C5.1848 0 0 4.20674 0 9.37567C0 14.0076 4.1093 17.8873 9.6579 18.6243C10.034 18.703 10.545 18.8726 10.6771 19.1924C10.7933 19.4811 10.7522 19.9286 10.7146 20.2339L10.5566 21.2149C10.5111 21.5043 10.3234 22.3546 11.5642 21.8357C12.8086 21.3167 18.2222 17.9111 20.6468 15.1206C22.3048 13.3052 23.0981 11.4401 23.0981 9.37567Z" fill="#F8F8F8"/>
</svg>
