<svg width="18" height="15" viewBox="0 0 18 15" fill="none" xmlns="http://www.w3.org/2000/svg">
<path d="M16.2 14.4H1.8C1.32261 14.4 0.864773 14.2104 0.527208 13.8728C0.189642 13.5352 0 13.0774 0 12.6V1.7217C0.0201894 1.25801 0.218708 0.820043 0.55411 0.499231C0.889512 0.178419 1.33587 -0.000438515 1.8 8.07408e-07H16.2C16.6774 8.07408e-07 17.1352 0.189643 17.4728 0.527209C17.8104 0.864774 18 1.32261 18 1.8V12.6C18 13.0774 17.8104 13.5352 17.4728 13.8728C17.1352 14.2104 16.6774 14.4 16.2 14.4ZM1.8 3.4812V12.6H16.2V3.4812L9 8.28L1.8 3.4812ZM2.52 1.8L9 6.12L15.48 1.8H2.52Z" fill="#f8f8f8"/>
</svg>
